# VPXTOOL table OBJ file
# VPXTOOL OBJ file
# numVerts: 253 numFaces: 288
o PegPlasticT52
v 0 0.2705 -0.133
v 0 0.0045 -0.16625
v 0.042964 0.0045 -0.160585
v 0.034371 0.2705 -0.128468
v 0.083 0.0045 -0.143977
v 0.0664 0.2705 -0.115181
v 0.11738 0.0045 -0.117557
v 0.093904 0.2705 -0.094045
v 0.14376 0.0045 -0.083125
v 0.115008 0.2705 -0.0665
v 0.160344 0.0045 -0.043029
v 0.128275 0.2705 -0.034423
v 0.166 0.0045 0
v 0.1328 0.2705 0
v 0.160344 0.0045 0.043029
v 0.128275 0.2705 0.034423
v 0.14376 0.0045 0.083125
v 0.115008 0.2705 0.0665
v 0.11738 0.0045 0.117557
v 0.093904 0.2705 0.094045
v 0.083 0.0045 0.143977
v 0.0664 0.2705 0.115181
v 0.042964 0.0045 0.160585
v 0.034371 0.2705 0.128468
v 0 0.0045 0.16625
v 0 0.2705 0.133
v -0.042964 0.0045 0.160585
v -0.034371 0.2705 0.128468
v -0.083 0.0045 0.143977
v -0.0664 0.2705 0.115181
v -0.11738 0.0045 0.117557
v -0.093904 0.2705 0.094045
v -0.14376 0.0045 0.083125
v -0.115008 0.2705 0.0665
v -0.160344 0.0045 0.043029
v -0.128275 0.2705 0.034423
v -0.166 0.0045 0
v -0.1328 0.2705 0
v -0.160344 0.0045 -0.043029
v -0.128275 0.2705 -0.034423
v -0.14376 0.0045 -0.083125
v -0.115008 0.2705 -0.0665
v -0.11738 0.0045 -0.117557
v -0.093904 0.2705 -0.094045
v -0.083 0.0045 -0.143977
v -0.0664 0.2705 -0.115181
v -0.042964 0.0045 -0.160585
v -0.034371 0.2705 -0.128468
v 0 0.3845 -0.133
v 0 0.3617 -0.133
v 0.034371 0.3617 -0.128468
v 0.034371 0.3845 -0.128468
v 0.0664 0.3617 -0.115181
v 0.0664 0.3845 -0.115181
v 0.093904 0.3617 -0.094045
v 0.093904 0.3845 -0.094045
v 0.115008 0.3617 -0.0665
v 0.115008 0.3845 -0.0665
v 0.128275 0.3617 -0.034423
v 0.128275 0.3845 -0.034423
v 0.1328 0.3617 0
v 0.1328 0.3845 0
v 0.128275 0.3617 0.034423
v 0.128275 0.3845 0.034423
v 0.115008 0.3617 0.0665
v 0.115008 0.3845 0.0665
v 0.093904 0.3617 0.094045
v 0.093904 0.3845 0.094045
v 0.0664 0.3617 0.115181
v 0.0664 0.3845 0.115181
v 0.034371 0.3617 0.128468
v 0.034371 0.3845 0.128468
v 0 0.3617 0.133
v 0 0.3845 0.133
v -0.034371 0.3617 0.128468
v -0.034371 0.3845 0.128468
v -0.0664 0.3617 0.115181
v -0.0664 0.3845 0.115181
v -0.093904 0.3617 0.094045
v -0.093904 0.3845 0.094045
v -0.115008 0.3617 0.0665
v -0.115008 0.3845 0.0665
v -0.128275 0.3617 0.034423
v -0.128275 0.3845 0.034423
v -0.1328 0.3617 0
v -0.1328 0.3845 0
v -0.128275 0.3617 -0.034423
v -0.128275 0.3845 -0.034423
v -0.115008 0.3617 -0.0665
v -0.115008 0.3845 -0.0665
v -0.093904 0.3617 -0.094045
v -0.093904 0.3845 -0.094045
v -0.0664 0.3617 -0.115181
v -0.0664 0.3845 -0.115181
v -0.034371 0.3617 -0.128468
v -0.034371 0.3845 -0.128468
v 0 0.5555 -0.07125
v 0 0.3845 -0.133
v 0.034371 0.3845 -0.128468
v 0.018413 0.5555 -0.068822
v 0.0664 0.3845 -0.115181
v 0.035571 0.5555 -0.061704
v 0.093904 0.3845 -0.094045
v 0.050306 0.5555 -0.050381
v 0.115008 0.3845 -0.0665
v 0.061612 0.5555 -0.035625
v 0.128275 0.3845 -0.034423
v 0.068719 0.5555 -0.018441
v 0.1328 0.3845 0
v 0.071143 0.5555 0
v 0.128275 0.3845 0.034423
v 0.068719 0.5555 0.018441
v 0.115008 0.3845 0.0665
v 0.061612 0.5555 0.035625
v 0.093904 0.3845 0.094045
v 0.050306 0.5555 0.050381
v 0.0664 0.3845 0.115181
v 0.035571 0.5555 0.061704
v 0.034371 0.3845 0.128468
v 0.018413 0.5555 0.068822
v 0 0.3845 0.133
v 0 0.5555 0.07125
v -0.034371 0.3845 0.128468
v -0.018413 0.5555 0.068822
v -0.0664 0.3845 0.115181
v -0.035571 0.5555 0.061704
v -0.093904 0.3845 0.094045
v -0.050306 0.5555 0.050381
v -0.115008 0.3845 0.0665
v -0.061612 0.5555 0.035625
v -0.128275 0.3845 0.034423
v -0.068719 0.5555 0.018441
v -0.1328 0.3845 0
v -0.071143 0.5555 0
v -0.128275 0.3845 -0.034423
v -0.068719 0.5555 -0.018441
v -0.115008 0.3845 -0.0665
v -0.061612 0.5555 -0.035625
v -0.093904 0.3845 -0.094045
v -0.050306 0.5555 -0.050381
v -0.0664 0.3845 -0.115181
v -0.035571 0.5555 -0.061704
v -0.034371 0.3845 -0.128468
v -0.018413 0.5555 -0.068822
v 0 0.5555 0
v 0 0.5555 -0.07125
v 0.018413 0.5555 -0.068822
v 0.035571 0.5555 -0.061704
v 0.050306 0.5555 -0.050381
v 0.061612 0.5555 -0.035625
v 0.068719 0.5555 -0.018441
v 0.071143 0.5555 0
v 0.068719 0.5555 0.018441
v 0.061612 0.5555 0.035625
v 0.050306 0.5555 0.050381
v 0.035571 0.5555 0.061704
v 0.018413 0.5555 0.068822
v 0 0.5555 0.07125
v -0.018413 0.5555 0.068822
v -0.035571 0.5555 0.061704
v -0.050306 0.5555 0.050381
v -0.061612 0.5555 0.035625
v -0.068719 0.5555 0.018441
v -0.071143 0.5555 0
v -0.068719 0.5555 -0.018441
v -0.061612 0.5555 -0.035625
v -0.050306 0.5555 -0.050381
v -0.035571 0.5555 -0.061704
v -0.018413 0.5555 -0.068822
v -0.102617 0.285871 0
v -0.088869 0.285871 0.051386
v -0.128275 0.2705 0.034423
v -0.1328 0.2705 0
v -0.115008 0.2705 0.0665
v -0.128275 0.2705 -0.034423
v -0.088869 0.285871 -0.051386
v -0.115008 0.2705 -0.0665
v -0.093904 0.2705 -0.094045
v -0.051308 0.285871 -0.089002
v -0.0664 0.2705 -0.115181
v -0.034371 0.2705 -0.128468
v 0 0.285871 -0.102771
v 0 0.2705 -0.133
v 0.034371 0.2705 -0.128468
v 0.051308 0.285871 -0.089002
v 0.0664 0.2705 -0.115181
v 0.093904 0.2705 -0.094045
v 0.088869 0.285871 -0.051386
v 0.115008 0.2705 -0.0665
v 0.128275 0.2705 -0.034423
v 0.102617 0.285871 0
v 0.1328 0.2705 0
v 0.128275 0.2705 0.034423
v 0.088869 0.285871 0.051386
v 0.115008 0.2705 0.0665
v 0.093904 0.2705 0.094045
v 0.051308 0.285871 0.089002
v 0.0664 0.2705 0.115181
v 0.034371 0.2705 0.128468
v 0 0.285871 0.102771
v 0 0.2705 0.133
v -0.034371 0.2705 0.128468
v -0.051308 0.285871 0.089002
v -0.0664 0.2705 0.115181
v -0.093904 0.2705 0.094045
v -0.128275 0.3617 0.034423
v -0.088869 0.346329 0.051386
v -0.102617 0.346329 0
v -0.1328 0.3617 0
v -0.115008 0.3617 0.0665
v -0.128275 0.3617 -0.034423
v -0.088869 0.346329 -0.051386
v -0.115008 0.3617 -0.0665
v -0.093904 0.3617 -0.094045
v -0.051308 0.346329 -0.089002
v -0.0664 0.3617 -0.115181
v -0.034371 0.3617 -0.128468
v 0 0.346329 -0.102771
v 0 0.3617 -0.133
v 0.034371 0.3617 -0.128468
v 0.051308 0.346329 -0.089002
v 0.0664 0.3617 -0.115181
v 0.093904 0.3617 -0.094045
v 0.088869 0.346329 -0.051386
v 0.115008 0.3617 -0.0665
v 0.128275 0.3617 -0.034423
v 0.102617 0.346329 0
v 0.1328 0.3617 0
v 0.128275 0.3617 0.034423
v 0.088869 0.346329 0.051386
v 0.115008 0.3617 0.0665
v 0.093904 0.3617 0.094045
v 0.051308 0.346329 0.089002
v 0.0664 0.3617 0.115181
v 0.034371 0.3617 0.128468
v 0 0.346329 0.102771
v 0 0.3617 0.133
v -0.034371 0.3617 0.128468
v -0.051308 0.346329 0.089002
v -0.0664 0.3617 0.115181
v -0.093904 0.3617 0.094045
v -0.078041 0.3161 0.045125
v -0.090114 0.3161 0
v -0.078041 0.3161 -0.045125
v -0.045057 0.3161 -0.078159
v 0 0.3161 -0.09025
v 0.045057 0.3161 -0.078159
v 0.078041 0.3161 -0.045125
v 0.090114 0.3161 0
v 0.078041 0.3161 0.045125
v 0.045057 0.3161 0.078159
v 0 0.3161 0.09025
v -0.045057 0.3161 0.078159
vt 0.5 0.5
vt 0.5 0.5
vt 0.5 0.5
vt 0.5 0.5
vt 0.5 0.5
vt 0.5 0.5
vt 0.5 0.5
vt 0.5 0.5
vt 0.5 0.5
vt 0.5 0.5
vt 0.5 0.5
vt 0.5 0.5
vt 0.5 0.5
vt 0.5 0.5
vt 0.5 0.5
vt 0.5 0.5
vt 0.5 0.5
vt 0.5 0.5
vt 0.5 0.5
vt 0.5 0.5
vt 0.5 0.5
vt 0.5 0.5
vt 0.5 0.5
vt 0.5 0.5
vt 0.5 0.5
vt 0.5 0.5
vt 0.5 0.5
vt 0.5 0.5
vt 0.5 0.5
vt 0.5 0.5
vt 0.5 0.5
vt 0.5 0.5
vt 0.5 0.5
vt 0.5 0.5
vt 0.5 0.5
vt 0.5 0.5
vt 0.5 0.5
vt 0.5 0.5
vt 0.5 0.5
vt 0.5 0.5
vt 0.5 0.5
vt 0.5 0.5
vt 0.5 0.5
vt 0.5 0.5
vt 0.5 0.5
vt 0.5 0.5
vt 0.5 0.5
vt 0.5 0.5
vt 0.5 0.5
vt 0.5 0.5
vt 0.5 0.5
vt 0.5 0.5
vt 0.5 0.5
vt 0.5 0.5
vt 0.5 0.5
vt 0.5 0.5
vt 0.5 0.5
vt 0.5 0.5
vt 0.5 0.5
vt 0.5 0.5
vt 0.5 0.5
vt 0.5 0.5
vt 0.5 0.5
vt 0.5 0.5
vt 0.5 0.5
vt 0.5 0.5
vt 0.5 0.5
vt 0.5 0.5
vt 0.5 0.5
vt 0.5 0.5
vt 0.5 0.5
vt 0.5 0.5
vt 0.5 0.5
vt 0.5 0.5
vt 0.5 0.5
vt 0.5 0.5
vt 0.5 0.5
vt 0.5 0.5
vt 0.5 0.5
vt 0.5 0.5
vt 0.5 0.5
vt 0.5 0.5
vt 0.5 0.5
vt 0.5 0.5
vt 0.5 0.5
vt 0.5 0.5
vt 0.5 0.5
vt 0.5 0.5
vt 0.5 0.5
vt 0.5 0.5
vt 0.5 0.5
vt 0.5 0.5
vt 0.5 0.5
vt 0.5 0.5
vt 0.5 0.5
vt 0.5 0.5
vt 0.5 0.5
vt 0.5 0.5
vt 0.5 0.5
vt 0.5 0.5
vt 0.5 0.5
vt 0.5 0.5
vt 0.5 0.5
vt 0.5 0.5
vt 0.5 0.5
vt 0.5 0.5
vt 0.5 0.5
vt 0.5 0.5
vt 0.5 0.5
vt 0.5 0.5
vt 0.5 0.5
vt 0.5 0.5
vt 0.5 0.5
vt 0.5 0.5
vt 0.5 0.5
vt 0.5 0.5
vt 0.5 0.5
vt 0.5 0.5
vt 0.5 0.5
vt 0.5 0.5
vt 0.5 0.5
vt 0.5 0.5
vt 0.5 0.5
vt 0.5 0.5
vt 0.5 0.5
vt 0.5 0.5
vt 0.5 0.5
vt 0.5 0.5
vt 0.5 0.5
vt 0.5 0.5
vt 0.5 0.5
vt 0.5 0.5
vt 0.5 0.5
vt 0.5 0.5
vt 0.5 0.5
vt 0.5 0.5
vt 0.5 0.5
vt 0.5 0.5
vt 0.5 0.5
vt 0.5 0.5
vt 0.5 0.5
vt 0.5 0.5
vt 0.5 0.5
vt 0.5 0.5
vt 0.5 0.5
vt 0.5 0.5
vt 0.5 0.5
vt 0.5 0.5
vt 0.5 0.5
vt 0.5 0.5
vt 0.5 0.5
vt 0.5 0.5
vt 0.5 0.5
vt 0.5 0.5
vt 0.5 0.5
vt 0.5 0.5
vt 0.5 0.5
vt 0.5 0.5
vt 0.5 0.5
vt 0.5 0.5
vt 0.5 0.5
vt 0.5 0.5
vt 0.5 0.5
vt 0.5 0.5
vt 0.5 0.5
vt 0.5 0.5
vt 0.5 0.5
vt 0.5 0.5
vt 0.5 0.5
vt 0.5 0.5
vt 0.5 0.5
vt 0.5 0.5
vt 0.5 0.5
vt 0.5 0.5
vt 0.5 0.5
vt 0.5 0.5
vt 0.5 0.5
vt 0.5 0.5
vt 0.5 0.5
vt 0.5 0.5
vt 0.5 0.5
vt 0.5 0.5
vt 0.5 0.5
vt 0.5 0.5
vt 0.5 0.5
vt 0.5 0.5
vt 0.5 0.5
vt 0.5 0.5
vt 0.5 0.5
vt 0.5 0.5
vt 0.5 0.5
vt 0.5 0.5
vt 0.5 0.5
vt 0.5 0.5
vt 0.5 0.5
vt 0.5 0.5
vt 0.5 0.5
vt 0.5 0.5
vt 0.5 0.5
vt 0.5 0.5
vt 0.5 0.5
vt 0.5 0.5
vt 0.5 0.5
vt 0.5 0.5
vt 0.5 0.5
vt 0.5 0.5
vt 0.5 0.5
vt 0.5 0.5
vt 0.5 0.5
vt 0.5 0.5
vt 0.5 0.5
vt 0.5 0.5
vt 0.5 0.5
vt 0.5 0.5
vt 0.5 0.5
vt 0.5 0.5
vt 0.5 0.5
vt 0.5 0.5
vt 0.5 0.5
vt 0.5 0.5
vt 0.5 0.5
vt 0.5 0.5
vt 0.5 0.5
vt 0.5 0.5
vt 0.5 0.5
vt 0.5 0.5
vt 0.5 0.5
vt 0.5 0.5
vt 0.5 0.5
vt 0.5 0.5
vt 0.5 0.5
vt 0.5 0.5
vt 0.5 0.5
vt 0.5 0.5
vt 0.5 0.5
vt 0.5 0.5
vt 0.5 0.5
vt 0.5 0.5
vt 0.5 0.5
vt 0.5 0.5
vt 0.5 0.5
vt 0.5 0.5
vt 0.5 0.5
vt 0.5 0.5
vt 0.5 0.5
vt 0.5 0.5
vt 0.5 0.5
vt 0.5 0.5
vt 0.5 0.5
vt 0.5 0.5
vt 0.5 0.5
vt 0.5 0.5
vt 0.5 0.5
vn 0 0.124027 -0.992248
vn 0 0.124027 -0.992248
vn 0.257149 0.123997 -0.958373
vn 0.257149 0.123997 -0.958373
vn 0.496658 0.123966 -0.859035
vn 0.496689 0.123966 -0.859004
vn 0.702139 0.123936 -0.701132
vn 0.70217 0.123936 -0.701132
vn 0.859645 0.123875 -0.49559
vn 0.859645 0.123875 -0.49559
vn 0.958556 0.123844 -0.256478
vn 0.958556 0.123844 -0.256447
vn 0.992279 0.123844 0
vn 0.992279 0.123844 0
vn 0.958556 0.123844 0.256478
vn 0.958556 0.123844 0.256447
vn 0.859645 0.123875 0.49559
vn 0.859645 0.123875 0.49559
vn 0.702139 0.123936 0.701132
vn 0.70217 0.123936 0.701132
vn 0.496658 0.123966 0.859035
vn 0.496689 0.123966 0.859004
vn 0.257149 0.123997 0.958373
vn 0.257149 0.123997 0.958373
vn 0 0.124027 0.992248
vn 0 0.124027 0.992248
vn -0.257149 0.123997 0.958373
vn -0.257149 0.123997 0.958373
vn -0.496658 0.123966 0.859035
vn -0.496689 0.123966 0.859004
vn -0.702139 0.123936 0.701132
vn -0.70217 0.123936 0.701132
vn -0.859645 0.123875 0.49559
vn -0.859645 0.123875 0.49559
vn -0.958556 0.123844 0.256478
vn -0.958556 0.123844 0.256447
vn -0.992279 0.123844 0
vn -0.992279 0.123844 0
vn -0.958556 0.123844 -0.256478
vn -0.958556 0.123844 -0.256447
vn -0.859645 0.123875 -0.49559
vn -0.859645 0.123875 -0.49559
vn -0.702139 0.123936 -0.701132
vn -0.70217 0.123936 -0.701132
vn -0.496658 0.123966 -0.859035
vn -0.496689 0.123966 -0.859004
vn -0.257149 0.123997 -0.958373
vn -0.257149 0.123997 -0.958373
vn 0 0 -1
vn 0 0 -1
vn 0.259163 0 -0.965819
vn 0.259163 0 -0.965819
vn 0.500534 0 -0.865688
vn 0.500534 0 -0.865688
vn 0.707602 0 -0.706565
vn 0.707602 0 -0.706565
vn 0.866329 0 -0.499435
vn 0.866329 0 -0.499435
vn 0.966002 0 -0.258461
vn 0.966002 0 -0.258461
vn 1 0 0
vn 1 0 0
vn 0.966002 0 0.258461
vn 0.966002 0 0.258461
vn 0.866329 0 0.499435
vn 0.866329 0 0.499435
vn 0.707602 0 0.706565
vn 0.707602 0 0.706565
vn 0.500534 0 0.865688
vn 0.500534 0 0.865688
vn 0.259163 0 0.965819
vn 0.259163 0 0.965819
vn 0 0 0.999969
vn 0 0 1
vn -0.259163 0 0.965819
vn -0.259163 0 0.965819
vn -0.500534 0 0.865688
vn -0.500534 0 0.865688
vn -0.707602 0 0.706565
vn -0.707602 0 0.706565
vn -0.866329 0 0.499435
vn -0.866329 0 0.499435
vn -0.966002 0 0.258461
vn -0.966002 0 0.258461
vn -1 0 0
vn -1 0 0
vn -0.966002 0 -0.258461
vn -0.966002 0 -0.258461
vn -0.866329 0 -0.499435
vn -0.866329 0 -0.499435
vn -0.707602 0 -0.706565
vn -0.707602 0 -0.706565
vn -0.500534 0 -0.865688
vn -0.500534 0 -0.865688
vn -0.259163 0 -0.965819
vn -0.259163 0 -0.965819
vn 0 0.33964 -0.94055
vn 0 0.33964 -0.94055
vn 0.243721 0.33961 -0.908414
vn 0.243782 0.33961 -0.908414
vn 0.470779 0.339518 -0.814295
vn 0.47084 0.339518 -0.814264
vn 0.665578 0.339396 -0.664663
vn 0.665639 0.339396 -0.664602
vn 0.814905 0.339305 -0.469832
vn 0.814936 0.339305 -0.469771
vn 0.908719 0.339213 -0.243141
vn 0.908719 0.339213 -0.24311
vn 0.940703 0.339183 0
vn 0.940703 0.339183 0
vn 0.908719 0.339213 0.243141
vn 0.908719 0.339213 0.24311
vn 0.814905 0.339305 0.469832
vn 0.814936 0.339305 0.469771
vn 0.665578 0.339396 0.664663
vn 0.665639 0.339396 0.664602
vn 0.470779 0.339518 0.814295
vn 0.47084 0.339518 0.814264
vn 0.243721 0.33961 0.908414
vn 0.243782 0.33961 0.908414
vn 0 0.33964 0.94055
vn 0 0.33964 0.94055
vn -0.243721 0.33961 0.908414
vn -0.243782 0.33961 0.908414
vn -0.470779 0.339518 0.814295
vn -0.47084 0.339518 0.814264
vn -0.665578 0.339396 0.664663
vn -0.665639 0.339396 0.664602
vn -0.814905 0.339305 0.469832
vn -0.814936 0.339305 0.469771
vn -0.908719 0.339213 0.243141
vn -0.908719 0.339213 0.24311
vn -0.940703 0.339183 0
vn -0.940703 0.339183 0
vn -0.908719 0.339213 -0.243141
vn -0.908719 0.339213 -0.24311
vn -0.814905 0.339305 -0.469832
vn -0.814936 0.339305 -0.469771
vn -0.665578 0.339396 -0.664663
vn -0.665639 0.339396 -0.664602
vn -0.470779 0.339518 -0.814295
vn -0.47084 0.339518 -0.814264
vn -0.243721 0.33961 -0.908414
vn -0.243782 0.33961 -0.908414
vn 0 1 0
vn 0 1 0
vn 0 0.999969 0
vn 0 1 0
vn 0 1 0
vn 0 1 0
vn 0 0.999969 0
vn 0 1 0
vn 0 0.999969 0
vn 0 1 0
vn 0 1 0
vn 0 1 0
vn 0 0.999969 0
vn 0 1 0
vn 0 0.999969 0
vn 0 1 0
vn 0 1 0
vn 0 1 0
vn 0 0.999969 0
vn 0 1 0
vn 0 0.999969 0
vn 0 1 0
vn 0 1 0
vn 0 1 0
vn 0 0.999969 0
vn -0.69335 0.720573 0
vn -0.600543 0.720695 0.346263
vn -0.422407 0.899289 0.11301
vn -0.45378 0.891079 0
vn -0.392987 0.891171 0.2266
vn -0.422407 0.899289 -0.11301
vn -0.600543 0.720695 -0.346263
vn -0.392987 0.891171 -0.2266
vn -0.309244 0.899411 -0.308847
vn -0.346812 0.720969 -0.599902
vn -0.226905 0.891293 -0.392499
vn -0.113193 0.899503 -0.421918
vn 0 0.721091 -0.692801
vn 0 0.891354 -0.45323
vn 0.113193 0.899503 -0.421918
vn 0.346812 0.720969 -0.599902
vn 0.226905 0.891293 -0.392499
vn 0.309244 0.899411 -0.308847
vn 0.600543 0.720695 -0.346263
vn 0.392987 0.891171 -0.2266
vn 0.422407 0.899289 -0.11301
vn 0.69335 0.720573 0
vn 0.45378 0.891079 0
vn 0.422407 0.899289 0.11301
vn 0.600543 0.720695 0.346263
vn 0.392987 0.891171 0.2266
vn 0.309244 0.899411 0.308847
vn 0.346812 0.720969 0.599902
vn 0.226905 0.891293 0.392499
vn 0.113193 0.899503 0.421918
vn 0 0.721091 0.692801
vn 0 0.891354 0.45323
vn -0.113193 0.899503 0.421918
vn -0.346812 0.720969 0.599902
vn -0.226905 0.891293 0.392499
vn -0.309244 0.899411 0.308847
vn -0.422407 -0.899289 0.11301
vn -0.600543 -0.720695 0.346263
vn -0.69335 -0.720573 0
vn -0.45378 -0.891079 0
vn -0.392987 -0.891171 0.2266
vn -0.422407 -0.899289 -0.11301
vn -0.600543 -0.720695 -0.346263
vn -0.392987 -0.891171 -0.2266
vn -0.309244 -0.899411 -0.308847
vn -0.346812 -0.720969 -0.599902
vn -0.226905 -0.891293 -0.392499
vn -0.113193 -0.899503 -0.421918
vn 0 -0.721091 -0.692801
vn 0 -0.891354 -0.45323
vn 0.113193 -0.899503 -0.421918
vn 0.346812 -0.720969 -0.599902
vn 0.226905 -0.891293 -0.392499
vn 0.309244 -0.899411 -0.308847
vn 0.600543 -0.720695 -0.346263
vn 0.392987 -0.891171 -0.2266
vn 0.422407 -0.899289 -0.11301
vn 0.69335 -0.720573 0
vn 0.45378 -0.891079 0
vn 0.422407 -0.899289 0.11301
vn 0.600543 -0.720695 0.346263
vn 0.392987 -0.891171 0.2266
vn 0.309244 -0.899411 0.308847
vn 0.346812 -0.720969 0.599902
vn 0.226905 -0.891293 0.392499
vn 0.113193 -0.899503 0.421918
vn 0 -0.721091 0.692801
vn 0 -0.891354 0.45323
vn -0.113193 -0.899503 0.421918
vn -0.346812 -0.720969 0.599902
vn -0.226905 -0.891293 0.392499
vn -0.309244 -0.899411 0.308847
vn -0.866329 0 0.499435
vn -1 0 0
vn -0.866329 0 -0.499435
vn -0.500534 0 -0.865688
vn 0 0 -1
vn 0.500534 0 -0.865688
vn 0.866329 0 -0.499435
vn 1 0 0
vn 0.866329 0 0.499435
vn 0.500534 0 0.865688
vn 0 0 1
vn -0.500534 0 0.865688
f 3/3/3 2/2/2 1/1/1
f 1/1/1 4/4/4 3/3/3
f 48/48/48 1/1/1 2/2/2
f 5/5/5 3/3/3 4/4/4
f 2/2/2 47/47/47 48/48/48
f 4/4/4 6/6/6 5/5/5
f 46/46/46 48/48/48 47/47/47
f 7/7/7 5/5/5 6/6/6
f 47/47/47 45/45/45 46/46/46
f 6/6/6 8/8/8 7/7/7
f 44/44/44 46/46/46 45/45/45
f 9/9/9 7/7/7 8/8/8
f 45/45/45 43/43/43 44/44/44
f 8/8/8 10/10/10 9/9/9
f 42/42/42 44/44/44 43/43/43
f 11/11/11 9/9/9 10/10/10
f 43/43/43 41/41/41 42/42/42
f 10/10/10 12/12/12 11/11/11
f 40/40/40 42/42/42 41/41/41
f 13/13/13 11/11/11 12/12/12
f 41/41/41 39/39/39 40/40/40
f 12/12/12 14/14/14 13/13/13
f 38/38/38 40/40/40 39/39/39
f 15/15/15 13/13/13 14/14/14
f 39/39/39 37/37/37 38/38/38
f 14/14/14 16/16/16 15/15/15
f 36/36/36 38/38/38 37/37/37
f 17/17/17 15/15/15 16/16/16
f 37/37/37 35/35/35 36/36/36
f 16/16/16 18/18/18 17/17/17
f 34/34/34 36/36/36 35/35/35
f 19/19/19 17/17/17 18/18/18
f 35/35/35 33/33/33 34/34/34
f 18/18/18 20/20/20 19/19/19
f 32/32/32 34/34/34 33/33/33
f 21/21/21 19/19/19 20/20/20
f 33/33/33 31/31/31 32/32/32
f 20/20/20 22/22/22 21/21/21
f 30/30/30 32/32/32 31/31/31
f 23/23/23 21/21/21 22/22/22
f 31/31/31 29/29/29 30/30/30
f 22/22/22 24/24/24 23/23/23
f 28/28/28 30/30/30 29/29/29
f 25/25/25 23/23/23 24/24/24
f 29/29/29 27/27/27 28/28/28
f 24/24/24 26/26/26 25/25/25
f 26/26/26 28/28/28 27/27/27
f 27/27/27 25/25/25 26/26/26
f 51/51/51 50/50/50 49/49/49
f 49/49/49 52/52/52 51/51/51
f 96/96/96 49/49/49 50/50/50
f 53/53/53 51/51/51 52/52/52
f 50/50/50 95/95/95 96/96/96
f 52/52/52 54/54/54 53/53/53
f 94/94/94 96/96/96 95/95/95
f 55/55/55 53/53/53 54/54/54
f 95/95/95 93/93/93 94/94/94
f 54/54/54 56/56/56 55/55/55
f 92/92/92 94/94/94 93/93/93
f 57/57/57 55/55/55 56/56/56
f 93/93/93 91/91/91 92/92/92
f 56/56/56 58/58/58 57/57/57
f 90/90/90 92/92/92 91/91/91
f 59/59/59 57/57/57 58/58/58
f 91/91/91 89/89/89 90/90/90
f 58/58/58 60/60/60 59/59/59
f 88/88/88 90/90/90 89/89/89
f 61/61/61 59/59/59 60/60/60
f 89/89/89 87/87/87 88/88/88
f 60/60/60 62/62/62 61/61/61
f 86/86/86 88/88/88 87/87/87
f 63/63/63 61/61/61 62/62/62
f 87/87/87 85/85/85 86/86/86
f 62/62/62 64/64/64 63/63/63
f 84/84/84 86/86/86 85/85/85
f 65/65/65 63/63/63 64/64/64
f 85/85/85 83/83/83 84/84/84
f 64/64/64 66/66/66 65/65/65
f 82/82/82 84/84/84 83/83/83
f 67/67/67 65/65/65 66/66/66
f 83/83/83 81/81/81 82/82/82
f 66/66/66 68/68/68 67/67/67
f 80/80/80 82/82/82 81/81/81
f 69/69/69 67/67/67 68/68/68
f 81/81/81 79/79/79 80/80/80
f 68/68/68 70/70/70 69/69/69
f 78/78/78 80/80/80 79/79/79
f 71/71/71 69/69/69 70/70/70
f 79/79/79 77/77/77 78/78/78
f 70/70/70 72/72/72 71/71/71
f 76/76/76 78/78/78 77/77/77
f 73/73/73 71/71/71 72/72/72
f 77/77/77 75/75/75 76/76/76
f 72/72/72 74/74/74 73/73/73
f 74/74/74 76/76/76 75/75/75
f 75/75/75 73/73/73 74/74/74
f 99/99/99 98/98/98 97/97/97
f 97/97/97 100/100/100 99/99/99
f 144/144/144 97/97/97 98/98/98
f 101/101/101 99/99/99 100/100/100
f 98/98/98 143/143/143 144/144/144
f 100/100/100 102/102/102 101/101/101
f 142/142/142 144/144/144 143/143/143
f 103/103/103 101/101/101 102/102/102
f 143/143/143 141/141/141 142/142/142
f 102/102/102 104/104/104 103/103/103
f 140/140/140 142/142/142 141/141/141
f 105/105/105 103/103/103 104/104/104
f 141/141/141 139/139/139 140/140/140
f 104/104/104 106/106/106 105/105/105
f 138/138/138 140/140/140 139/139/139
f 107/107/107 105/105/105 106/106/106
f 139/139/139 137/137/137 138/138/138
f 106/106/106 108/108/108 107/107/107
f 136/136/136 138/138/138 137/137/137
f 109/109/109 107/107/107 108/108/108
f 137/137/137 135/135/135 136/136/136
f 108/108/108 110/110/110 109/109/109
f 134/134/134 136/136/136 135/135/135
f 111/111/111 109/109/109 110/110/110
f 135/135/135 133/133/133 134/134/134
f 110/110/110 112/112/112 111/111/111
f 132/132/132 134/134/134 133/133/133
f 113/113/113 111/111/111 112/112/112
f 133/133/133 131/131/131 132/132/132
f 112/112/112 114/114/114 113/113/113
f 130/130/130 132/132/132 131/131/131
f 115/115/115 113/113/113 114/114/114
f 131/131/131 129/129/129 130/130/130
f 114/114/114 116/116/116 115/115/115
f 128/128/128 130/130/130 129/129/129
f 117/117/117 115/115/115 116/116/116
f 129/129/129 127/127/127 128/128/128
f 116/116/116 118/118/118 117/117/117
f 126/126/126 128/128/128 127/127/127
f 119/119/119 117/117/117 118/118/118
f 127/127/127 125/125/125 126/126/126
f 118/118/118 120/120/120 119/119/119
f 124/124/124 126/126/126 125/125/125
f 121/121/121 119/119/119 120/120/120
f 125/125/125 123/123/123 124/124/124
f 120/120/120 122/122/122 121/121/121
f 122/122/122 124/124/124 123/123/123
f 123/123/123 121/121/121 122/122/122
f 147/147/147 146/146/146 145/145/145
f 146/146/146 169/169/169 145/145/145
f 148/148/148 147/147/147 145/145/145
f 169/169/169 168/168/168 145/145/145
f 149/149/149 148/148/148 145/145/145
f 168/168/168 167/167/167 145/145/145
f 150/150/150 149/149/149 145/145/145
f 167/167/167 166/166/166 145/145/145
f 151/151/151 150/150/150 145/145/145
f 166/166/166 165/165/165 145/145/145
f 152/152/152 151/151/151 145/145/145
f 165/165/165 164/164/164 145/145/145
f 153/153/153 152/152/152 145/145/145
f 164/164/164 163/163/163 145/145/145
f 154/154/154 153/153/153 145/145/145
f 163/163/163 162/162/162 145/145/145
f 155/155/155 154/154/154 145/145/145
f 162/162/162 161/161/161 145/145/145
f 156/156/156 155/155/155 145/145/145
f 161/161/161 160/160/160 145/145/145
f 157/157/157 156/156/156 145/145/145
f 160/160/160 159/159/159 145/145/145
f 158/158/158 157/157/157 145/145/145
f 159/159/159 158/158/158 145/145/145
f 172/172/172 171/171/171 170/170/170
f 170/170/170 173/173/173 172/172/172
f 171/171/171 172/172/172 174/174/174
f 170/170/170 175/175/175 173/173/173
f 171/171/171 174/174/174 205/205/205
f 175/175/175 170/170/170 176/176/176
f 176/176/176 177/177/177 175/175/175
f 176/176/176 178/178/178 177/177/177
f 205/205/205 203/203/203 171/171/171
f 203/203/203 205/205/205 204/204/204
f 203/203/203 204/204/204 202/202/202
f 178/178/178 176/176/176 179/179/179
f 179/179/179 180/180/180 178/178/178
f 179/179/179 181/181/181 180/180/180
f 202/202/202 200/200/200 203/203/203
f 200/200/200 202/202/202 201/201/201
f 200/200/200 201/201/201 199/199/199
f 179/179/179 182/182/182 181/181/181
f 183/183/183 181/181/181 182/182/182
f 182/182/182 184/184/184 183/183/183
f 199/199/199 197/197/197 200/200/200
f 197/197/197 199/199/199 198/198/198
f 197/197/197 198/198/198 196/196/196
f 182/182/182 185/185/185 184/184/184
f 185/185/185 186/186/186 184/184/184
f 185/185/185 187/187/187 186/186/186
f 196/196/196 194/194/194 197/197/197
f 194/194/194 196/196/196 195/195/195
f 194/194/194 195/195/195 193/193/193
f 187/187/187 185/185/185 188/188/188
f 188/188/188 189/189/189 187/187/187
f 188/188/188 190/190/190 189/189/189
f 193/193/193 191/191/191 194/194/194
f 190/190/190 188/188/188 191/191/191
f 191/191/191 193/193/193 192/192/192
f 191/191/191 192/192/192 190/190/190
f 188/188/188 185/185/185 247/247/247
f 191/191/191 188/188/188 248/248/248
f 247/247/247 248/248/248 188/188/188
f 194/194/194 191/191/191 249/249/249
f 248/248/248 249/249/249 191/191/191
f 197/197/197 194/194/194 250/250/250
f 249/249/249 250/250/250 194/194/194
f 246/246/246 247/247/247 185/185/185
f 185/185/185 182/182/182 246/246/246
f 250/250/250 251/251/251 197/197/197
f 200/200/200 197/197/197 251/251/251
f 245/245/245 246/246/246 182/182/182
f 182/182/182 179/179/179 245/245/245
f 251/251/251 252/252/252 200/200/200
f 203/203/203 200/200/200 252/252/252
f 244/244/244 245/245/245 179/179/179
f 179/179/179 176/176/176 244/244/244
f 252/252/252 253/253/253 203/203/203
f 171/171/171 203/203/203 253/253/253
f 243/243/243 244/244/244 176/176/176
f 176/176/176 170/170/170 243/243/243
f 170/170/170 171/171/171 242/242/242
f 242/242/242 243/243/243 170/170/170
f 253/253/253 242/242/242 171/171/171
f 244/244/244 243/243/243 208/208/208
f 243/243/243 242/242/242 207/207/207
f 207/207/207 208/208/208 243/243/243
f 242/242/242 253/253/253 239/239/239
f 239/239/239 207/207/207 242/242/242
f 253/253/253 252/252/252 236/236/236
f 236/236/236 239/239/239 253/253/253
f 252/252/252 251/251/251 233/233/233
f 233/233/233 236/236/236 252/252/252
f 207/207/207 239/239/239 241/241/241
f 241/241/241 210/210/210 207/207/207
f 240/240/240 241/241/241 239/239/239
f 210/210/210 206/206/206 207/207/207
f 208/208/208 207/207/207 206/206/206
f 238/238/238 240/240/240 239/239/239
f 239/239/239 236/236/236 238/238/238
f 206/206/206 209/209/209 208/208/208
f 237/237/237 238/238/238 236/236/236
f 209/209/209 211/211/211 208/208/208
f 235/235/235 237/237/237 236/236/236
f 236/236/236 233/233/233 235/235/235
f 234/234/234 235/235/235 233/233/233
f 232/232/232 234/234/234 233/233/233
f 212/212/212 208/208/208 211/211/211
f 208/208/208 212/212/212 244/244/244
f 211/211/211 213/213/213 212/212/212
f 245/245/245 244/244/244 212/212/212
f 213/213/213 214/214/214 212/212/212
f 233/233/233 230/230/230 232/232/232
f 230/230/230 233/233/233 251/251/251
f 231/231/231 232/232/232 230/230/230
f 251/251/251 250/250/250 230/230/230
f 229/229/229 231/231/231 230/230/230
f 215/215/215 212/212/212 214/214/214
f 212/212/212 215/215/215 245/245/245
f 214/214/214 216/216/216 215/215/215
f 246/246/246 245/245/245 215/215/215
f 216/216/216 217/217/217 215/215/215
f 230/230/230 227/227/227 229/229/229
f 227/227/227 230/230/230 250/250/250
f 228/228/228 229/229/229 227/227/227
f 250/250/250 249/249/249 227/227/227
f 226/226/226 228/228/228 227/227/227
f 217/217/217 218/218/218 215/215/215
f 215/215/215 218/218/218 246/246/246
f 218/218/218 217/217/217 219/219/219
f 247/247/247 246/246/246 218/218/218
f 219/219/219 220/220/220 218/218/218
f 227/227/227 224/224/224 226/226/226
f 224/224/224 227/227/227 249/249/249
f 225/225/225 226/226/226 224/224/224
f 249/249/249 248/248/248 224/224/224
f 223/223/223 225/225/225 224/224/224
f 248/248/248 247/247/247 221/221/221
f 221/221/221 224/224/224 248/248/248
f 218/218/218 221/221/221 247/247/247
f 224/224/224 221/221/221 223/223/223
f 220/220/220 221/221/221 218/218/218
f 222/222/222 223/223/223 221/221/221
f 220/220/220 222/222/222 221/221/221
