# VPXTOOL table OBJ file
# VPXTOOL OBJ file
# numVerts: 91 numFaces: 66
o PegPlasticT1Mini1
v 0.048856 0.040449 -0.076605
v 0.000713 0.040449 -0.102481
v 0.000713 0.002551 -0.102481
v 0.09601 0.040449 -0.050231
v 0.09601 0.002551 -0.050231
v 0.09601 0.040449 0.002613
v 0.09601 0.040449 -0.050231
v 0.09601 0.002551 -0.050231
v 0.09601 0.040449 0.054269
v 0.09601 0.002551 0.054269
v 0.046478 0.040449 0.081238
v 0.09601 0.040449 0.054269
v 0.09601 0.002551 0.054269
v 0.000713 0.040449 0.106519
v 0.000713 0.002551 0.106519
v -0.046242 0.040449 0.08005
v 0.000713 0.040449 0.106519
v 0.000713 0.002551 0.106519
v -0.09399 0.040449 0.054269
v -0.09399 0.002551 0.054269
v -0.09399 0.040449 0.002019
v -0.09399 0.040449 0.054269
v -0.09399 0.002551 0.054269
v -0.09399 0.040449 -0.050231
v -0.09399 0.002551 -0.050231
v -0.04743 0.040449 -0.076011
v -0.09399 0.040449 -0.050231
v -0.09399 0.002551 -0.050231
v 0.000713 0.040449 -0.102481
v 0.000713 0.002551 -0.102481
v -0.050992 0.249563 -0.026469
v -0.050992 0.249563 0.030588
v -0.09399 0.040449 0.002019
v -0.04743 0.040449 -0.076011
v 0.000743 0.249563 -0.054998
v 0.052803 0.249563 -0.026469
v 0.048856 0.040449 -0.076605
v 0.052803 0.249563 0.030588
v 0.052803 0.249563 -0.026469
v 0.09601 0.040449 0.002613
v 0.000743 0.249563 0.059116
v 0.046478 0.040449 0.081238
v -0.046242 0.040449 0.08005
v -0.02507 0.363449 0.016323
v -0.02507 0.249563 0.016323
v -0.02507 0.249563 -0.012205
v -0.02507 0.363449 -0.012205
v 0.000797 0.249563 -0.026469
v 0.000797 0.363449 -0.026469
v 0.026827 0.249563 -0.012205
v 0.026827 0.363449 -0.012205
v 0.026827 0.363449 -0.012205
v 0.026827 0.249563 -0.012205
v 0.026827 0.249563 0.016323
v 0.026827 0.363449 0.016323
v 0.000797 0.249563 0.030588
v 0.000797 0.363449 0.030588
v 0.000851 0.477449 0.002566
v -0.050992 0.363449 0.030588
v -0.050992 0.363449 -0.026469
v 0.000743 0.363449 -0.054998
v 0.052803 0.363449 -0.026469
v 0.052803 0.363449 0.030588
v 0.000743 0.363449 0.059116
v -0.046242 0.040449 0.08005
v -0.09399 0.040449 0.054269
v -0.09399 0.040449 0.002019
v -0.09399 0.040449 -0.050231
v -0.04743 0.040449 -0.076011
v 0.048856 0.040449 -0.076605
v 0.000713 0.040449 -0.102481
v 0.048856 0.040449 -0.076605
v 0.09601 0.040449 -0.050231
v 0.09601 0.040449 0.002613
v 0.09601 0.040449 0.054269
v 0.046478 0.040449 0.081238
v 0.000713 0.040449 0.106519
v 0.000851 0.249563 0.002566
v -0.050992 0.249563 0.030588
v -0.050992 0.249563 -0.026469
v 0.000743 0.249563 -0.054998
v 0.052803 0.249563 -0.026469
v 0.052803 0.249563 0.030588
v 0.000743 0.249563 0.059116
v 0.000851 0.363449 0.002566
v -0.050992 0.363449 -0.026469
v -0.050992 0.363449 0.030588
v 0.000743 0.363449 -0.054998
v 0.052803 0.363449 -0.026469
v 0.052803 0.363449 0.030588
v 0.000743 0.363449 0.059116
vt 0.088863 0.06919098
vt 0.17455 0.06919098
vt 0.17455 0.004015982
vt 0.007473 0.06919098
vt 0.007473 0.004015982
vt 0.90855 0.06919098
vt 0.988035 0.06919098
vt 0.988035 0.004015982
vt 0.831021 0.06919098
vt 0.831021 0.004015982
vt 0.745635 0.06919098
vt 0.831021 0.06919098
vt 0.831021 0.004015982
vt 0.663944 0.06919098
vt 0.663944 0.004015982
vt 0.579485 0.06919098
vt 0.663944 0.06919098
vt 0.663944 0.004015982
vt 0.497754 0.06919098
vt 0.497754 0.004015982
vt 0.419247 0.06919098
vt 0.497754 0.06919098
vt 0.497754 0.004015982
vt 0.34074 0.06919098
vt 0.34074 0.004015982
vt 0.260736 0.06919098
vt 0.34074 0.06919098
vt 0.34074 0.004015982
vt 0.17455 0.06919098
vt 0.17455 0.004015982
vt 0.315371 0.50356698
vt 0.459986 0.50356698
vt 0.387775 0.076168
vt 0.24174 0.076168
vt 0.16273 0.50356698
vt 0.008995 0.50356698
vt 0.083656 0.076168
vt 0.768555 0.50356698
vt 0.913659 0.50356698
vt 0.840107 0.076168
vt 0.613717 0.50356698
vt 0.689584 0.076168
vt 0.535818 0.076168
vt 0.23427 0.711532
vt 0.23427 0.50723302
vt 0.162107 0.50723302
vt 0.162107 0.711532
vt 0.085726 0.50723302
vt 0.085726 0.711532
vt 0.008939 0.50723302
vt 0.008939 0.711532
vt 0.459601 0.711532
vt 0.459601 0.50723302
vt 0.387438 0.50723302
vt 0.387438 0.711532
vt 0.31065 0.50723302
vt 0.31065 0.711532
vt 0.16353 0.859918
vt 0.317511 0.929480016
vt 0.317511 0.79035598
vt 0.163851 0.72079402
vt 0.009228 0.79035598
vt 0.009228 0.929480016
vt 0.163851 0.99904197454
vt 0.539721 0.876671016
vt 0.603178 0.995796025
vt 0.733796 0.9951729774
vt 0.864413 0.995796025
vt 0.928366 0.87963402
vt 0.928366 0.63465297
vt 0.995032 0.75964999
vt 0.98832 0.076168
vt 0.864413 0.52233398
vt 0.734788 0.52233398
vt 0.603178 0.52233398
vt 0.539721 0.643085
vt 0.47256 0.75964999
vt 0.73216 0.75612402
vt 0.910839 0.85657299
vt 0.910839 0.655675
vt 0.731788 0.55522603
vt 0.553854 0.655675
vt 0.553854 0.85657299
vt 0.731788 0.95702201
vt 0.73216 0.75612402
vt 0.553854 0.655675
vt 0.553854 0.85657299
vt 0.731788 0.55522603
vt 0.910839 0.655675
vt 0.910839 0.85657299
vt 0.731788 0.95702201
vn 0.480758 -0.007355 -0.876797
vn 0.473403 0 -0.880825
vn 0.476241 -0.004639 -0.879269
vn 0.488144 0 -0.872738
vn 0.485275 -0.004669 -0.874325
vn 1 0 0
vn 1 0 0
vn 1 0 0
vn 1 0 0
vn 0.999969 0 0
vn 0.480819 0.002655 0.876797
vn 0.478164 0 0.878231
vn 0.479141 0.001617 0.877712
vn 0.483535 0 0.875301
vn 0.482406 0.00174 0.875912
vn -0.483077 0.007935 0.875515
vn -0.491043 0 0.87112
vn -0.48793 0.005066 0.872829
vn -0.475082 0 0.87991
vn -0.478195 0.005036 0.878231
vn -1 0 0
vn -1 0 0
vn -1 0 0
vn -1 0 0
vn -1 0 0
vn -0.483077 -0.001282 -0.875546
vn -0.48439 0 -0.874813
vn -0.483871 -0.000824 -0.875118
vn -0.481765 0 -0.876278
vn -0.482253 -0.000793 -0.876003
vn -0.840571 0.211188 -0.498795
vn -0.840388 0.209265 0.499893
vn -0.991424 0.130406 0.00473
vn -0.493606 0.126926 -0.860347
vn -0.001923 0.204443 -0.978851
vn 0.839869 0.212378 -0.499496
vn 0.488632 0.127415 -0.863094
vn 0.839625 0.210303 0.500717
vn 0.839869 0.212378 -0.499496
vn 0.991363 0.130467 0.011658
vn -0.001892 0.202338 0.979308
vn 0.473922 0.125553 0.871548
vn -0.490829 0.125248 0.862178
vn -0.861049 0 0.508469
vn -0.861049 0 0.508469
vn -0.861049 0 -0.508469
vn -0.861049 0 -0.508469
vn -0.001312 0 -0.999969
vn -0.001312 0 -0.999969
vn 0.860378 0 -0.509598
vn 0.860378 0 -0.509598
vn 0.860378 0 -0.509598
vn 0.860378 0 -0.509598
vn 0.860378 0 0.509598
vn 0.860378 0 0.509598
vn -0.001312 0 0.999969
vn -0.001312 0 0.999969
vn -0.000244 0.999969 0.003662
vn -0.767083 0.458998 0.448195
vn -0.764855 0.462111 -0.448775
vn -0.001221 0.450728 -0.892636
vn 0.764122 0.462691 -0.449416
vn 0.76635 0.459548 0.448836
vn -0.001221 0.44438 0.89581
vn 0 1 0
vn 0 1 0
vn 0 1 0
vn 0 1 0
vn 0 1 0
vn 0 1 0
vn 0 1 0
vn 0.488632 0.127415 -0.863094
vn 0 1 0
vn 0 1 0
vn 0 1 0
vn 0 1 0
vn 0 0.999969 0
vn 0 1 0
vn 0 1 0
vn 0 1 0
vn 0 1 0
vn 0 1 0
vn 0 1 0
vn 0 1 0
vn 0 -1 0
vn 0 -1 0
vn 0 -1 0
vn 0 -1 0
vn 0 -1 0
vn 0 -1 0
vn 0 -1 0
f 67/67/67 66/66/66 65/65/65
f 65/65/65 77/77/77 76/76/76
f 69/69/69 68/68/68 67/67/67
f 76/76/76 75/75/75 74/74/74
f 71/71/71 69/69/69 70/70/70
f 74/74/74 73/73/73 70/70/70
f 3/3/3 2/2/2 1/1/1
f 1/1/1 5/5/5 3/3/3
f 5/5/5 1/1/1 4/4/4
f 8/8/8 7/7/7 6/6/6
f 8/8/8 6/6/6 10/10/10
f 10/10/10 6/6/6 9/9/9
f 13/13/13 12/12/12 11/11/11
f 13/13/13 11/11/11 15/15/15
f 15/15/15 11/11/11 14/14/14
f 18/18/18 17/17/17 16/16/16
f 18/18/18 16/16/16 20/20/20
f 20/20/20 16/16/16 19/19/19
f 23/23/23 22/22/22 21/21/21
f 23/23/23 21/21/21 25/25/25
f 25/25/25 21/21/21 24/24/24
f 28/28/28 27/27/27 26/26/26
f 28/28/28 26/26/26 30/30/30
f 30/30/30 26/26/26 29/29/29
f 33/33/33 32/32/32 31/31/31
f 31/31/31 34/34/34 33/33/33
f 32/32/32 33/33/33 43/43/43
f 31/31/31 35/35/35 34/34/34
f 43/43/43 41/41/41 32/32/32
f 37/37/37 34/34/34 35/35/35
f 37/37/37 35/35/35 36/36/36
f 41/41/41 43/43/43 42/42/42
f 42/42/42 38/38/38 41/41/41
f 38/38/38 42/42/42 40/40/40
f 40/40/40 39/39/39 38/38/38
f 39/39/39 40/40/40 72/72/72
f 46/46/46 45/45/45 44/44/44
f 44/44/44 47/47/47 46/46/46
f 57/57/57 44/44/44 45/45/45
f 48/48/48 46/46/46 47/47/47
f 45/45/45 56/56/56 57/57/57
f 47/47/47 49/49/49 48/48/48
f 55/55/55 57/57/57 56/56/56
f 50/50/50 48/48/48 49/49/49
f 49/49/49 51/51/51 50/50/50
f 56/56/56 54/54/54 55/55/55
f 52/52/52 55/55/55 54/54/54
f 54/54/54 53/53/53 52/52/52
f 60/60/60 59/59/59 58/58/58
f 59/59/59 64/64/64 58/58/58
f 61/61/61 60/60/60 58/58/58
f 64/64/64 63/63/63 58/58/58
f 62/62/62 61/61/61 58/58/58
f 63/63/63 62/62/62 58/58/58
f 80/80/80 79/79/79 78/78/78
f 79/79/79 84/84/84 78/78/78
f 81/81/81 80/80/80 78/78/78
f 84/84/84 83/83/83 78/78/78
f 82/82/82 81/81/81 78/78/78
f 83/83/83 82/82/82 78/78/78
f 87/87/87 86/86/86 85/85/85
f 91/91/91 87/87/87 85/85/85
f 86/86/86 88/88/88 85/85/85
f 90/90/90 91/91/91 85/85/85
f 88/88/88 89/89/89 85/85/85
f 89/89/89 90/90/90 85/85/85
