# VPXTOOL table OBJ file
# VPXTOOL OBJ file
# numVerts: 109 numFaces: 192
o Bumper Cap - Center 1000 Points
v -0 0.260294 -0.4845
v -0 0.00375 -0.4845
v 0.125398 0.00375 -0.467991
v 0.125092 0.251546 -0.467991
v 0.24225 0.00375 -0.419589
v 0.24166 0.243395 -0.419589
v 0.342593 0.00375 -0.342593
v 0.341759 0.236396 -0.342593
v 0.419589 0.00375 -0.24225
v 0.418567 0.231025 -0.24225
v 0.467991 0.00375 -0.125398
v 0.466851 0.227648 -0.125398
v 0.4845 0.00375 0
v 0.48332 0.226497 0
v 0.467991 0.00375 0.125398
v 0.466851 0.227648 0.125398
v 0.419589 0.00375 0.24225
v 0.418567 0.231025 0.24225
v 0.342593 0.00375 0.342593
v 0.341759 0.236396 0.342593
v 0.24225 0.00375 0.419589
v 0.24166 0.243395 0.419589
v 0.125398 0.00375 0.467991
v 0.125092 0.251546 0.467991
v -0 0.00375 0.4845
v -0 0.260294 0.4845
v -0.125398 0.00375 0.467991
v -0.125092 0.269041 0.467991
v -0.24225 0.00375 0.419589
v -0.24166 0.277192 0.419589
v -0.342593 0.00375 0.342593
v -0.341759 0.284192 0.342593
v -0.419589 0.00375 0.24225
v -0.418567 0.289563 0.24225
v -0.467991 0.00375 0.125398
v -0.466851 0.292939 0.125398
v -0.4845 0.00375 0
v -0.48332 0.294091 0
v -0.467991 0.00375 -0.125398
v -0.466851 0.292939 -0.125398
v -0.419589 0.00375 -0.24225
v -0.418567 0.289563 -0.24225
v -0.342593 0.00375 -0.342593
v -0.341759 0.284192 -0.342593
v -0.24225 0.00375 -0.419589
v -0.24166 0.277192 -0.419589
v -0.125398 0.00375 -0.467991
v -0.125092 0.269041 -0.467991
v 0.001872 0.287059 -0.473331
v 0.12408 0.278513 -0.457202
v 0.23796 0.27055 -0.409916
v 0.335752 0.263712 -0.334695
v 0.410789 0.258465 -0.236665
v 0.45796 0.255166 -0.122507
v 0.474049 0.254041 0
v 0.45796 0.255166 0.122507
v 0.410789 0.258465 0.236665
v 0.335752 0.263712 0.334695
v 0.23796 0.27055 0.409916
v 0.12408 0.278513 0.457202
v 0.001872 0.287059 0.473331
v -0.120337 0.295605 0.457202
v -0.234217 0.303568 0.409916
v -0.332008 0.310406 0.334695
v -0.407046 0.315653 0.236665
v -0.454217 0.318952 0.122507
v -0.470306 0.320077 0
v -0.454217 0.318952 -0.122507
v -0.407046 0.315653 -0.236665
v -0.332008 0.310406 -0.334695
v -0.234217 0.303568 -0.409916
v -0.120337 0.295605 -0.457202
v 0.002651 0.298201 -0.4465
v 0.117932 0.29014 -0.431286
v 0.225357 0.282628 -0.38668
v 0.317605 0.276177 -0.315723
v 0.388389 0.271228 -0.22325
v 0.432886 0.268116 -0.115563
v 0.448063 0.267055 0
v 0.432886 0.268116 0.115563
v 0.388389 0.271228 0.22325
v 0.317605 0.276177 0.315723
v 0.225357 0.282628 0.38668
v 0.117932 0.29014 0.431286
v 0.002651 0.298201 0.4465
v -0.11263 0.306262 0.431286
v -0.220055 0.313774 0.38668
v -0.312303 0.320225 0.315723
v -0.383088 0.325175 0.22325
v -0.427584 0.328286 0.115563
v -0.442762 0.329347 0
v -0.427584 0.328286 -0.115563
v -0.383088 0.325175 -0.22325
v -0.312303 0.320225 -0.315723
v -0.220055 0.313774 -0.38668
v -0.11263 0.306262 -0.431286
v 0.004307 0.321893 -0.342
v 0.174891 0.309965 -0.296181
v 0.299767 0.301233 -0.171
v 0.345474 0.298037 0
v 0.299767 0.301233 0.171
v 0.174891 0.309965 0.296181
v 0.004307 0.321893 0.342
v -0.166276 0.333822 0.296181
v -0.291152 0.342554 0.171
v -0.336859 0.34575 0
v -0.291152 0.342554 -0.171
v -0.166276 0.333822 -0.296181
v 0.005964 0.345585 0
vt 1 0.5
vt 1 0.5
vt 0.982963 0.37059104
vt 0.982963 0.370906
vt 0.933013 0.25
vt 0.933013 0.25060904
vt 0.853553 0.146447
vt 0.853553 0.14730799
vt 0.75 0.06698698
vt 0.75 0.06804198
vt 0.62941 0.017036974
vt 0.62941 0.018213987
vt 0.5 0
vt 0.5 0.0012180209
vt 0.37059 0.017036974
vt 0.37059 0.018213987
vt 0.25 0.06698698
vt 0.25 0.06804198
vt 0.146447 0.146447
vt 0.146447 0.14730799
vt 0.066987 0.25
vt 0.066987 0.25060904
vt 0.017037 0.37059104
vt 0.017037 0.370906
vt 0 0.5
vt 0 0.5
vt 0.017037 0.62941003
vt 0.017037 0.629094
vt 0.066987 0.75
vt 0.066987 0.74939102
vt 0.146447 0.853553
vt 0.146447 0.85269201
vt 0.25 0.93301302
vt 0.25 0.93195802
vt 0.37059 0.982963026
vt 0.37059 0.981786013
vt 0.5 1
vt 0.5 0.9987819791
vt 0.62941 0.982963026
vt 0.62941 0.981786013
vt 0.75 0.93301302
vt 0.75 0.93195802
vt 0.853553 0.853553
vt 0.853553 0.85269201
vt 0.933013 0.75
vt 0.933013 0.74939102
vt 0.982963 0.62941003
vt 0.982963 0.629094
vt 0.988473 0.498069
vt 0.971829 0.37195003
vt 0.92303 0.25442696
vt 0.845403 0.153507
vt 0.744237 0.076069
vt 0.626426 0.02738899
vt 0.5 0.010784984
vt 0.373574 0.02738899
vt 0.255763 0.076069
vt 0.154597 0.153507
vt 0.07697 0.25442696
vt 0.028171 0.37195003
vt 0.011527 0.498069
vt 0.028171 0.624187
vt 0.07697 0.74171
vt 0.154597 0.84263003
vt 0.255763 0.920068026
vt 0.373574 0.968747973
vt 0.5 0.98535198
vt 0.626426 0.968747973
vt 0.744237 0.920068026
vt 0.845403 0.84263003
vt 0.92303 0.74171
vt 0.971829 0.624187
vt 0.960784 0.49726403
vt 0.945083 0.378295
vt 0.899051 0.267434
vt 0.825824 0.172234
vt 0.730392 0.099186
vt 0.61926 0.053264976
vt 0.5 0.03760302
vt 0.38074 0.053264976
vt 0.269608 0.099186
vt 0.174176 0.172234
vt 0.100949 0.267434
vt 0.054917 0.378295
vt 0.039216 0.49726403
vt 0.054917 0.616234
vt 0.100949 0.727095
vt 0.174176 0.822294
vt 0.269608 0.895343006
vt 0.38074 0.941263974
vt 0.5 0.95692599
vt 0.61926 0.941263974
vt 0.730392 0.895343006
vt 0.825824 0.822294
vt 0.899051 0.727095
vt 0.945083 0.616234
vt 0.852941 0.49555504
vt 0.805656 0.31951404
vt 0.676471 0.19064301
vt 0.5 0.14347303
vt 0.323529 0.19064301
vt 0.194344 0.31951404
vt 0.147059 0.49555504
vt 0.194344 0.67159498
vt 0.323529 0.800466
vt 0.5 0.84763598
vt 0.676471 0.800466
vt 0.805656 0.67159498
vt 0.5 0.493845
vn 0.010407 0.19245 -0.981231
vn -0.000031 0.000031 -1
vn 0.25895 0.000244 -0.96588
vn 0.264016 0.183813 -0.946806
vn 0.500259 0.001038 -0.865841
vn 0.499863 0.176122 -0.847987
vn 0.707389 0.002289 -0.706809
vn 0.701926 0.169805 -0.691671
vn 0.866207 0.003632 -0.499649
vn 0.856685 0.165105 -0.488693
vn 0.965972 0.00473 -0.258553
vn 0.953795 0.162206 -0.252815
vn 0.999969 0.005219 0.000031
vn 0.986908 0.161199 0.000031
vn 0.965941 0.004975 0.258644
vn 0.953795 0.162084 0.252846
vn 0.866176 0.004059 0.49968
vn 0.856685 0.164892 0.488723
vn 0.707389 0.002777 0.706778
vn 0.701956 0.169561 0.691733
vn 0.50032 0.001465 0.86581
vn 0.499893 0.175939 0.848018
vn 0.259041 0.000458 0.96585
vn 0.264077 0.183721 0.946837
vn 0.000031 0.000031 1
vn 0.010468 0.19245 0.981231
vn -0.25895 0.000244 0.96588
vn -0.243599 0.201544 0.948668
vn -0.500229 0.000916 0.865871
vn -0.480758 0.210273 0.851222
vn -0.707327 0.001923 0.70687
vn -0.684683 0.217963 0.695456
vn -0.866146 0.002899 0.499741
vn -0.841273 0.223975 0.491958
vn -0.965941 0.003662 0.258614
vn -0.939787 0.22779 0.254707
vn -0.999969 0.003998 -0.000031
vn -0.973388 0.229072 0
vn -0.965941 0.003845 -0.258675
vn -0.939787 0.227699 -0.254738
vn -0.866146 0.003204 -0.499771
vn -0.841304 0.223853 -0.491989
vn -0.707327 0.002258 -0.70687
vn -0.684713 0.217811 -0.695486
vn -0.500259 0.001251 -0.865871
vn -0.480819 0.21012 -0.851253
vn -0.259011 0.000427 -0.96585
vn -0.24366 0.201453 -0.948698
vn 0.048219 0.689901 -0.722282
vn 0.234718 0.67687 -0.697653
vn 0.40849 0.664693 -0.625507
vn 0.557726 0.654286 -0.510727
vn 0.672231 0.64626 -0.361126
vn 0.744194 0.641224 -0.186926
vn 0.768761 0.639515 0
vn 0.744194 0.641224 0.186926
vn 0.672231 0.64626 0.361126
vn 0.557726 0.654286 0.510727
vn 0.40849 0.664693 0.625507
vn 0.234718 0.67687 0.697653
vn 0.048219 0.689901 0.722282
vn -0.138218 0.702933 0.697653
vn -0.311991 0.715079 0.625507
vn -0.461226 0.725516 0.510727
vn -0.575732 0.733543 0.361126
vn -0.647725 0.738578 0.186926
vn -0.672262 0.740287 0
vn -0.647725 0.738578 -0.186926
vn -0.575732 0.733543 -0.361126
vn -0.461226 0.725516 -0.510727
vn -0.311991 0.715079 -0.625507
vn -0.138218 0.702933 -0.697653
vn 0.066286 0.948241 -0.310495
vn 0.145451 0.94409 -0.295816
vn 0.221168 0.937407 -0.268899
vn 0.282418 0.934507 -0.216559
vn 0.334544 0.929472 -0.155248
vn 0.361492 0.928983 -0.079257
vn 0.376049 0.926572 0
vn 0.361492 0.928983 0.079257
vn 0.334544 0.929472 0.155248
vn 0.282418 0.934507 0.216559
vn 0.221168 0.937407 0.268899
vn 0.145451 0.94409 0.295816
vn 0.066286 0.948241 0.310495
vn -0.012665 0.955138 0.295816
vn -0.088565 0.959075 0.268899
vn -0.149632 0.964721 0.216559
vn -0.201941 0.967009 0.155248
vn -0.228706 0.970244 0.079257
vn -0.243416 0.969909 0
vn -0.228706 0.970244 -0.079257
vn -0.201941 0.967009 -0.155248
vn -0.149632 0.964721 -0.216559
vn -0.088565 0.959075 -0.268899
vn -0.012665 0.955138 -0.295816
vn 0.068941 0.986236 -0.15006
vn 0.143803 0.981017 -0.129978
vn 0.198614 0.977172 -0.075014
vn 0.218665 0.975768 0
vn 0.198614 0.977172 0.075014
vn 0.143803 0.981017 0.129978
vn 0.068941 0.986236 0.15006
vn -0.00589 0.991485 0.129978
vn -0.060671 0.995331 0.075014
vn -0.080752 0.996704 0
vn -0.060671 0.995331 -0.075014
vn -0.00589 0.991485 -0.129978
vn 0.069735 0.997559 0
f 3/3/3 2/2/2 1/1/1
f 1/1/1 4/4/4 3/3/3
f 5/5/5 3/3/3 4/4/4
f 48/48/48 1/1/1 2/2/2
f 2/2/2 47/47/47 48/48/48
f 4/4/4 6/6/6 5/5/5
f 7/7/7 5/5/5 6/6/6
f 46/46/46 48/48/48 47/47/47
f 47/47/47 45/45/45 46/46/46
f 6/6/6 8/8/8 7/7/7
f 9/9/9 7/7/7 8/8/8
f 44/44/44 46/46/46 45/45/45
f 45/45/45 43/43/43 44/44/44
f 8/8/8 10/10/10 9/9/9
f 11/11/11 9/9/9 10/10/10
f 42/42/42 44/44/44 43/43/43
f 43/43/43 41/41/41 42/42/42
f 10/10/10 12/12/12 11/11/11
f 13/13/13 11/11/11 12/12/12
f 40/40/40 42/42/42 41/41/41
f 41/41/41 39/39/39 40/40/40
f 12/12/12 14/14/14 13/13/13
f 15/15/15 13/13/13 14/14/14
f 38/38/38 40/40/40 39/39/39
f 39/39/39 37/37/37 38/38/38
f 14/14/14 16/16/16 15/15/15
f 17/17/17 15/15/15 16/16/16
f 36/36/36 38/38/38 37/37/37
f 37/37/37 35/35/35 36/36/36
f 16/16/16 18/18/18 17/17/17
f 19/19/19 17/17/17 18/18/18
f 34/34/34 36/36/36 35/35/35
f 35/35/35 33/33/33 34/34/34
f 18/18/18 20/20/20 19/19/19
f 21/21/21 19/19/19 20/20/20
f 32/32/32 34/34/34 33/33/33
f 33/33/33 31/31/31 32/32/32
f 20/20/20 22/22/22 21/21/21
f 23/23/23 21/21/21 22/22/22
f 30/30/30 32/32/32 31/31/31
f 31/31/31 29/29/29 30/30/30
f 22/22/22 24/24/24 23/23/23
f 25/25/25 23/23/23 24/24/24
f 28/28/28 30/30/30 29/29/29
f 29/29/29 27/27/27 28/28/28
f 27/27/27 25/25/25 26/26/26
f 26/26/26 28/28/28 27/27/27
f 24/24/24 26/26/26 25/25/25
f 30/30/30 28/28/28 62/62/62
f 28/28/28 26/26/26 61/61/61
f 61/61/61 62/62/62 28/28/28
f 26/26/26 24/24/24 60/60/60
f 60/60/60 61/61/61 26/26/26
f 24/24/24 22/22/22 59/59/59
f 59/59/59 60/60/60 24/24/24
f 22/22/22 20/20/20 58/58/58
f 58/58/58 59/59/59 22/22/22
f 57/57/57 58/58/58 20/20/20
f 20/20/20 18/18/18 57/57/57
f 59/59/59 58/58/58 82/82/82
f 56/56/56 57/57/57 18/18/18
f 18/18/18 16/16/16 56/56/56
f 58/58/58 57/57/57 81/81/81
f 81/81/81 82/82/82 58/58/58
f 57/57/57 56/56/56 80/80/80
f 80/80/80 81/81/81 57/57/57
f 55/55/55 56/56/56 16/16/16
f 16/16/16 14/14/14 55/55/55
f 79/79/79 80/80/80 56/56/56
f 56/56/56 55/55/55 79/79/79
f 80/80/80 101/101/101 81/81/81
f 82/82/82 81/81/81 101/101/101
f 80/80/80 79/79/79 100/100/100
f 80/80/80 100/100/100 101/101/101
f 78/78/78 79/79/79 55/55/55
f 78/78/78 100/100/100 79/79/79
f 54/54/54 55/55/55 14/14/14
f 55/55/55 54/54/54 78/78/78
f 14/14/14 12/12/12 54/54/54
f 78/78/78 99/99/99 100/100/100
f 53/53/53 54/54/54 12/12/12
f 12/12/12 10/10/10 53/53/53
f 77/77/77 78/78/78 54/54/54
f 54/54/54 53/53/53 77/77/77
f 78/78/78 77/77/77 99/99/99
f 52/52/52 53/53/53 10/10/10
f 10/10/10 8/8/8 52/52/52
f 76/76/76 77/77/77 53/53/53
f 53/53/53 52/52/52 76/76/76
f 76/76/76 99/99/99 77/77/77
f 51/51/51 52/52/52 8/8/8
f 8/8/8 6/6/6 51/51/51
f 75/75/75 76/76/76 52/52/52
f 52/52/52 51/51/51 75/75/75
f 76/76/76 98/98/98 99/99/99
f 76/76/76 75/75/75 98/98/98
f 50/50/50 51/51/51 6/6/6
f 6/6/6 4/4/4 50/50/50
f 74/74/74 75/75/75 51/51/51
f 51/51/51 50/50/50 74/74/74
f 74/74/74 98/98/98 75/75/75
f 49/49/49 50/50/50 4/4/4
f 4/4/4 1/1/1 49/49/49
f 73/73/73 74/74/74 50/50/50
f 50/50/50 49/49/49 73/73/73
f 74/74/74 97/97/97 98/98/98
f 74/74/74 73/73/73 97/97/97
f 72/72/72 49/49/49 1/1/1
f 1/1/1 48/48/48 72/72/72
f 96/96/96 73/73/73 49/49/49
f 49/49/49 72/72/72 96/96/96
f 96/96/96 97/97/97 73/73/73
f 71/71/71 72/72/72 48/48/48
f 48/48/48 46/46/46 71/71/71
f 95/95/95 96/96/96 72/72/72
f 72/72/72 71/71/71 95/95/95
f 108/108/108 97/97/97 96/96/96
f 95/95/95 108/108/108 96/96/96
f 70/70/70 71/71/71 46/46/46
f 46/46/46 44/44/44 70/70/70
f 94/94/94 95/95/95 71/71/71
f 71/71/71 70/70/70 94/94/94
f 94/94/94 108/108/108 95/95/95
f 69/69/69 70/70/70 44/44/44
f 44/44/44 42/42/42 69/69/69
f 93/93/93 94/94/94 70/70/70
f 70/70/70 69/69/69 93/93/93
f 94/94/94 107/107/107 108/108/108
f 93/93/93 107/107/107 94/94/94
f 68/68/68 69/69/69 42/42/42
f 42/42/42 40/40/40 68/68/68
f 92/92/92 93/93/93 69/69/69
f 69/69/69 68/68/68 92/92/92
f 92/92/92 107/107/107 93/93/93
f 67/67/67 68/68/68 40/40/40
f 40/40/40 38/38/38 67/67/67
f 91/91/91 92/92/92 68/68/68
f 68/68/68 67/67/67 91/91/91
f 92/92/92 106/106/106 107/107/107
f 92/92/92 91/91/91 106/106/106
f 66/66/66 67/67/67 38/38/38
f 38/38/38 36/36/36 66/66/66
f 90/90/90 91/91/91 67/67/67
f 67/67/67 66/66/66 90/90/90
f 90/90/90 106/106/106 91/91/91
f 65/65/65 66/66/66 36/36/36
f 36/36/36 34/34/34 65/65/65
f 89/89/89 90/90/90 66/66/66
f 66/66/66 65/65/65 89/89/89
f 90/90/90 105/105/105 106/106/106
f 90/90/90 89/89/89 105/105/105
f 64/64/64 65/65/65 34/34/34
f 34/34/34 32/32/32 64/64/64
f 88/88/88 89/89/89 65/65/65
f 65/65/65 64/64/64 88/88/88
f 88/88/88 105/105/105 89/89/89
f 63/63/63 64/64/64 32/32/32
f 32/32/32 30/30/30 63/63/63
f 62/62/62 63/63/63 30/30/30
f 87/87/87 88/88/88 64/64/64
f 64/64/64 63/63/63 87/87/87
f 88/88/88 104/104/104 105/105/105
f 88/88/88 87/87/87 104/104/104
f 86/86/86 87/87/87 63/63/63
f 63/63/63 62/62/62 86/86/86
f 86/86/86 104/104/104 87/87/87
f 85/85/85 86/86/86 62/62/62
f 62/62/62 61/61/61 85/85/85
f 86/86/86 103/103/103 104/104/104
f 86/86/86 85/85/85 103/103/103
f 84/84/84 85/85/85 61/61/61
f 84/84/84 103/103/103 85/85/85
f 61/61/61 60/60/60 84/84/84
f 109/109/109 105/105/105 104/104/104
f 109/109/109 104/104/104 103/103/103
f 109/109/109 106/106/106 105/105/105
f 109/109/109 107/107/107 106/106/106
f 109/109/109 108/108/108 107/107/107
f 97/97/97 108/108/108 109/109/109
f 109/109/109 98/98/98 97/97/97
f 109/109/109 99/99/99 98/98/98
f 109/109/109 100/100/100 99/99/99
f 109/109/109 101/101/101 100/100/100
f 109/109/109 103/103/103 102/102/102
f 109/109/109 102/102/102 101/101/101
f 84/84/84 102/102/102 103/103/103
f 82/82/82 101/101/101 102/102/102
f 84/84/84 83/83/83 102/102/102
f 82/82/82 102/102/102 83/83/83
f 83/83/83 84/84/84 60/60/60
f 82/82/82 83/83/83 59/59/59
f 60/60/60 59/59/59 83/83/83
