# VPXTOOL table OBJ file
# VPXTOOL OBJ file
# numVerts: 131 numFaces: 132
o PegMetalT4
v 0.04376 0.00504 -0.072004
v 0.00101 0.27096 -0.083455
v 0.00101 0.00504 -0.083455
v 0.04376 0.27096 -0.072004
v 0.075055 0.27096 -0.040718
v 0.075055 0.00504 -0.040718
v 0.08651 0.00504 0.002019
v 0.08651 0.27096 0.002019
v 0.075055 0.27096 0.044757
v 0.08651 0.27096 0.002019
v 0.075055 0.00504 0.044757
v 0.08651 0.00504 0.002019
v 0.04376 0.00504 0.076042
v 0.04376 0.27096 0.076042
v 0.00101 0.27096 0.087494
v 0.00101 0.00504 0.087494
v -0.04174 0.00504 0.076042
v -0.04174 0.27096 0.076042
v -0.073036 0.27096 0.044757
v -0.073036 0.00504 0.044757
v -0.08449 0.00504 0.002019
v -0.08449 0.27096 0.002019
v -0.073036 0.27096 -0.040718
v -0.073036 0.00504 -0.040718
v -0.04174 0.00504 -0.072004
v -0.04174 0.27096 -0.072004
v 0.00101 0.29946 -0.054394
v 0.00101 0.27096 -0.083455
v 0.04376 0.27096 -0.072004
v 0.075055 0.27096 -0.040718
v 0.04988 0.29946 -0.026187
v 0.04988 0.29946 -0.026187
v 0.075055 0.27096 -0.040718
v 0.08651 0.27096 0.002019
v 0.075055 0.27096 0.044757
v 0.04988 0.29946 0.030226
v 0.04376 0.27096 0.076042
v 0.00101 0.27096 0.087494
v 0.00101 0.29946 0.058433
v -0.04174 0.27096 0.076042
v -0.073036 0.27096 0.044757
v -0.04786 0.29946 0.030226
v -0.08449 0.27096 0.002019
v -0.073036 0.27096 -0.040718
v -0.04786 0.29946 -0.026187
v -0.04174 0.27096 -0.072004
v 0.00101 0.36596 -0.083455
v 0.00101 0.33746 -0.054394
v 0.04376 0.36596 -0.072004
v 0.04988 0.33746 -0.026187
v 0.075055 0.36596 -0.040718
v 0.075055 0.36596 -0.040718
v 0.04988 0.33746 -0.026187
v 0.08651 0.36596 0.002019
v 0.04988 0.33746 0.030226
v 0.075055 0.36596 0.044757
v 0.04376 0.36596 0.076042
v 0.00101 0.33746 0.058433
v 0.00101 0.36596 0.087494
v -0.04174 0.36596 0.076042
v -0.04786 0.33746 0.030226
v -0.073036 0.36596 0.044757
v -0.08449 0.36596 0.002019
v -0.04786 0.33746 -0.026187
v -0.073036 0.36596 -0.040718
v -0.04174 0.36596 -0.072004
v 0.00101 0.55596 -0.083455
v 0.00101 0.36596 -0.083455
v 0.04376 0.36596 -0.072004
v 0.04376 0.55596 -0.072004
v 0.075055 0.36596 -0.040718
v 0.075055 0.55596 -0.040718
v 0.08651 0.36596 0.002019
v 0.08651 0.55596 0.002019
v 0.08651 0.55596 0.002019
v 0.08651 0.36596 0.002019
v 0.075055 0.36596 0.044757
v 0.075055 0.55596 0.044757
v 0.04376 0.36596 0.076042
v 0.04376 0.55596 0.076042
v 0.00101 0.36596 0.087494
v 0.00101 0.55596 0.087494
v -0.04174 0.36596 0.076042
v -0.04174 0.55596 0.076042
v -0.073036 0.36596 0.044757
v -0.073036 0.55596 0.044757
v -0.08449 0.36596 0.002019
v -0.08449 0.55596 0.002019
v -0.073036 0.36596 -0.040718
v -0.073036 0.55596 -0.040718
v -0.04174 0.36596 -0.072004
v -0.04174 0.55596 -0.072004
v 0.00101 0.57496 -0.070634
v 0.04376 0.55596 -0.072004
v 0.037347 0.57496 -0.0609
v 0.00101 0.55596 -0.083455
v 0.075055 0.55596 -0.040718
v 0.063948 0.57496 -0.034307
v 0.08651 0.55596 0.002019
v 0.073685 0.57496 0.002019
v 0.073685 0.57496 0.002019
v 0.08651 0.55596 0.002019
v 0.075055 0.55596 0.044757
v 0.063948 0.57496 0.038346
v 0.04376 0.55596 0.076042
v 0.037347 0.57496 0.064939
v 0.00101 0.55596 0.087494
v 0.00101 0.57496 0.074673
v -0.04174 0.55596 0.076042
v -0.035328 0.57496 0.064939
v -0.073036 0.55596 0.044757
v -0.061929 0.57496 0.038346
v -0.08449 0.55596 0.002019
v -0.071665 0.57496 0.002019
v -0.073036 0.55596 -0.040718
v -0.061929 0.57496 -0.034307
v -0.04174 0.55596 -0.072004
v -0.035328 0.57496 -0.0609
v 0.00101 0.57496 0.002019
v 0.00101 0.57496 -0.070634
v 0.037347 0.57496 -0.0609
v 0.063948 0.57496 -0.034307
v 0.073685 0.57496 0.002019
v 0.063948 0.57496 0.038346
v 0.037347 0.57496 0.064939
v 0.00101 0.57496 0.074673
v -0.035328 0.57496 0.064939
v -0.061929 0.57496 0.038346
v -0.071665 0.57496 0.002019
v -0.061929 0.57496 -0.034307
v -0.035328 0.57496 -0.0609
vt 0.167919 0
vt 0.25675 0.466592
vt 0.25675 0
vt 0.167919 0.466592
vt 0.084003 0.466592
vt 0.084003 0
vt 0 0
vt 0 0.466592
vt 0.915997 0.466592
vt 0.998 0.466592
vt 0.915997 0
vt 0.998 0
vt 0.83608 0
vt 0.83608 0.466592
vt 0.75425 0.466592
vt 0.75425 0
vt 0.672419 0
vt 0.672419 0.466592
vt 0.588503 0.466592
vt 0.588503 0
vt 0.5045 0
vt 0.5045 0.466592
vt 0.422497 0.466592
vt 0.422497 0
vt 0.338581 0
vt 0.338581 0.466592
vt 0.16775 0.516599
vt 0.16775 0.466592
vt 0.083919 0.466592
vt 0.000003 0.466592
vt 0.000003 0.516599
vt 0.998302 0.516599
vt 0.998302 0.466592
vt 0.916 0.466592
vt 0.835997 0.466592
vt 0.835997 0.516599
vt 0.75408 0.466592
vt 0.67225 0.466592
vt 0.67225 0.516599
vt 0.588419 0.466592
vt 0.504503 0.466592
vt 0.504502 0.516599
vt 0.4225 0.466592
vt 0.338497 0.466592
vt 0.338497 0.516599
vt 0.256581 0.466592
vt 0.16775 0.633282
vt 0.16775 0.58327502
vt 0.083919 0.633282
vt 0.000003 0.58327502
vt 0.000003 0.633282
vt 0.998302 0.633282
vt 0.998302 0.58327502
vt 0.916 0.633282
vt 0.835997 0.58327502
vt 0.835997 0.633282
vt 0.75408 0.633282
vt 0.67225 0.58327502
vt 0.67225 0.633282
vt 0.588419 0.633282
vt 0.504502 0.58327502
vt 0.504503 0.633282
vt 0.4225 0.633282
vt 0.338497 0.58327502
vt 0.338497 0.633282
vt 0.256581 0.633282
vt 0.25675 0.96666199
vt 0.25675 0.633282
vt 0.167919 0.633282
vt 0.167919 0.96666199
vt 0.084003 0.633282
vt 0.084003 0.96666199
vt 0 0.633282
vt 0 0.96666199
vt 0.998 0.96666199
vt 0.998 0.633282
vt 0.915997 0.633282
vt 0.915997 0.96666199
vt 0.83608 0.633282
vt 0.83608 0.96666199
vt 0.75425 0.633282
vt 0.75425 0.96666199
vt 0.672419 0.633282
vt 0.672419 0.96666199
vt 0.588503 0.633282
vt 0.588503 0.96666199
vt 0.5045 0.633282
vt 0.5045 0.96666199
vt 0.422497 0.633282
vt 0.422497 0.96666199
vt 0.338581 0.633282
vt 0.338581 0.96666199
vt 0.25675 1
vt 0.167919 0.96666199
vt 0.167919 1
vt 0.25675 0.96666199
vt 0.084003 0.96666199
vt 0.084003 1
vt 0 0.96666199
vt 0 1
vt 0.998 1
vt 0.998 0.96666199
vt 0.915997 0.96666199
vt 0.915997 1
vt 0.83608 0.96666199
vt 0.83608 1
vt 0.75425 0.96666199
vt 0.75425 1
vt 0.672419 0.96666199
vt 0.672419 1
vt 0.588503 0.96666199
vt 0.588503 1
vt 0.5045 0.96666199
vt 0.5045 1
vt 0.422497 0.96666199
vt 0.422497 1
vt 0.338581 0.96666199
vt 0.338581 1
vt 0.168852 0.79548699
vt 0.293852 0.79548699
vt 0.277105 0.732987
vt 0.231352 0.68723297
vt 0.168852 0.67048597
vt 0.106352 0.68723297
vt 0.060599 0.732987
vt 0.043852 0.79548699
vt 0.060599 0.85798699
vt 0.106352 0.90373999
vt 0.168852 0.92048699
vt 0.231352 0.90373999
vt 0.277105 0.85798699
vn 0.499893 0 -0.866054
vn 0 0 -1
vn 0 0 -1
vn 0.499893 0 -0.866054
vn 0.865963 0 -0.500076
vn 0.865963 0 -0.500076
vn 1 0 0
vn 1 0 0
vn 0.865963 0 0.500076
vn 1 0 0
vn 0.865963 0 0.500076
vn 1 0 0
vn 0.499893 0 0.866054
vn 0.499893 0 0.866054
vn 0 0 1
vn 0 0 1
vn -0.499893 0 0.866054
vn -0.499893 0 0.866054
vn -0.865963 0 0.500076
vn -0.865963 0 0.500076
vn -1 0 0
vn -1 0 0
vn -0.865963 0 -0.500076
vn -0.865963 0 -0.500076
vn -0.499893 0 -0.866054
vn -0.499893 0 -0.866054
vn 0 0.497696 -0.867336
vn 0 0.71395 -0.700156
vn 0.333262 0.745354 -0.577349
vn 0.60625 0.714042 -0.350078
vn 0.75103 0.497818 -0.433699
vn 0.75103 0.497818 -0.433699
vn 0.60625 0.714042 -0.350078
vn 0.666555 0.745415 0
vn 0.60625 0.714042 0.350078
vn 0.75103 0.497818 0.433699
vn 0.333262 0.745354 0.577349
vn 0 0.71395 0.700156
vn 0 0.497696 0.867336
vn -0.333262 0.745354 0.577349
vn -0.60625 0.714042 0.350078
vn -0.75103 0.497818 0.433699
vn -0.666585 0.745415 0
vn -0.60625 0.714042 -0.350078
vn -0.75103 0.497818 -0.433699
vn -0.333262 0.745354 -0.577349
vn 0 -0.71395 -0.700156
vn 0 -0.497696 -0.867336
vn 0.333262 -0.745354 -0.577349
vn 0.75103 -0.497818 -0.433699
vn 0.60625 -0.714042 -0.350078
vn 0.60625 -0.714042 -0.350078
vn 0.75103 -0.497818 -0.433699
vn 0.666555 -0.745415 0
vn 0.75103 -0.497818 0.433699
vn 0.60625 -0.714042 0.350078
vn 0.333262 -0.745354 0.577349
vn 0 -0.497696 0.867336
vn 0 -0.71395 0.700156
vn -0.333262 -0.745354 0.577349
vn -0.75103 -0.497818 0.433699
vn -0.60625 -0.714042 0.350078
vn -0.666585 -0.745415 0
vn -0.75103 -0.497818 -0.433699
vn -0.60625 -0.714042 -0.350078
vn -0.333262 -0.745354 -0.577349
vn 0 0 -0.999969
vn 0 0 -0.999969
vn 0.499893 0 -0.866054
vn 0.499893 0 -0.866054
vn 0.865963 0 -0.500076
vn 0.865963 0 -0.500076
vn 1 0 0
vn 1 0 0
vn 1 0 0
vn 1 0 0
vn 0.865963 0 0.500076
vn 0.865963 0 0.500076
vn 0.499893 0 0.866054
vn 0.499893 0 0.866054
vn 0 0 0.999969
vn 0 0 0.999969
vn -0.499893 0 0.866054
vn -0.499893 0 0.866054
vn -0.865963 0 0.500076
vn -0.865963 0 0.500076
vn -1 0 0
vn -1 0 0
vn -0.865963 0 -0.500076
vn -0.865963 0 -0.500076
vn -0.499893 0 -0.866054
vn -0.499893 0 -0.866054
vn 0 0.559343 -0.828913
vn 0.41438 0.559374 -0.717887
vn 0.41435 0.559374 -0.717887
vn 0 0.559343 -0.828913
vn 0.717765 0.559435 -0.414472
vn 0.717734 0.559435 -0.414533
vn 0.828822 0.559465 0
vn 0.828822 0.559465 0
vn 0.828822 0.559465 0
vn 0.828822 0.559465 0
vn 0.717765 0.559435 0.414472
vn 0.717734 0.559435 0.414533
vn 0.41438 0.559374 0.717887
vn 0.41435 0.559374 0.717887
vn 0 0.559343 0.828913
vn 0 0.559343 0.828913
vn -0.41438 0.559374 0.717887
vn -0.41435 0.559374 0.717887
vn -0.717765 0.559435 0.414472
vn -0.717734 0.559435 0.414502
vn -0.828822 0.559465 0
vn -0.828822 0.559465 0
vn -0.717765 0.559435 -0.414472
vn -0.717734 0.559435 -0.414502
vn -0.41438 0.559374 -0.717887
vn -0.41435 0.559374 -0.717887
vn 0 1 0
vn 0 1 0
vn 0 1 0
vn 0 1 0
vn 0 1 0
vn 0 1 0
vn 0 1 0
vn 0 1 0
vn 0 1 0
vn 0 1 0
vn 0 1 0
vn 0 1 0
vn 0 1 0
f 5/5/5 8/8/8 7/7/7
f 6/6/6 5/5/5 7/7/7
f 6/6/6 4/4/4 5/5/5
f 1/1/1 4/4/4 6/6/6
f 2/2/2 4/4/4 1/1/1
f 3/3/3 2/2/2 1/1/1
f 3/3/3 26/26/26 2/2/2
f 25/25/25 26/26/26 3/3/3
f 23/23/23 26/26/26 25/25/25
f 24/24/24 23/23/23 25/25/25
f 24/24/24 22/22/22 23/23/23
f 21/21/21 22/22/22 24/24/24
f 19/19/19 22/22/22 21/21/21
f 20/20/20 19/19/19 21/21/21
f 20/20/20 18/18/18 19/19/19
f 17/17/17 18/18/18 20/20/20
f 15/15/15 18/18/18 17/17/17
f 16/16/16 15/15/15 17/17/17
f 16/16/16 14/14/14 15/15/15
f 13/13/13 14/14/14 16/16/16
f 9/9/9 14/14/14 13/13/13
f 11/11/11 9/9/9 13/13/13
f 11/11/11 10/10/10 9/9/9
f 12/12/12 10/10/10 11/11/11
f 29/29/29 28/28/28 27/27/27
f 46/46/46 27/27/27 28/28/28
f 29/29/29 31/31/31 30/30/30
f 31/31/31 29/29/29 27/27/27
f 27/27/27 46/46/46 45/45/45
f 46/46/46 44/44/44 45/45/45
f 43/43/43 45/45/45 44/44/44
f 31/31/31 27/27/27 48/48/48
f 48/48/48 50/50/50 31/31/31
f 49/49/49 51/51/51 50/50/50
f 50/50/50 48/48/48 49/49/49
f 49/49/49 48/48/48 47/47/47
f 66/66/66 47/47/47 48/48/48
f 64/64/64 48/48/48 27/27/27
f 64/64/64 66/66/66 48/48/48
f 27/27/27 45/45/45 64/64/64
f 66/66/66 64/64/64 65/65/65
f 63/63/63 65/65/65 64/64/64
f 61/61/61 63/63/63 64/64/64
f 61/61/61 64/64/64 45/45/45
f 63/63/63 61/61/61 62/62/62
f 60/60/60 62/62/62 61/61/61
f 45/45/45 43/43/43 42/42/42
f 45/45/45 42/42/42 61/61/61
f 43/43/43 41/41/41 42/42/42
f 40/40/40 42/42/42 41/41/41
f 60/60/60 61/61/61 58/58/58
f 58/58/58 61/61/61 42/42/42
f 60/60/60 58/58/58 59/59/59
f 57/57/57 59/59/59 58/58/58
f 40/40/40 39/39/39 42/42/42
f 42/42/42 39/39/39 58/58/58
f 40/40/40 38/38/38 39/39/39
f 37/37/37 39/39/39 38/38/38
f 57/57/57 58/58/58 55/55/55
f 55/55/55 58/58/58 39/39/39
f 57/57/57 55/55/55 56/56/56
f 54/54/54 56/56/56 55/55/55
f 37/37/37 36/36/36 39/39/39
f 39/39/39 36/36/36 55/55/55
f 37/37/37 35/35/35 36/36/36
f 55/55/55 53/53/53 54/54/54
f 54/54/54 53/53/53 52/52/52
f 53/53/53 55/55/55 36/36/36
f 34/34/34 36/36/36 35/35/35
f 36/36/36 32/32/32 53/53/53
f 36/36/36 34/34/34 32/32/32
f 34/34/34 33/33/33 32/32/32
f 69/69/69 68/68/68 67/67/67
f 67/67/67 70/70/70 69/69/69
f 92/92/92 67/67/67 68/68/68
f 71/71/71 69/69/69 70/70/70
f 68/68/68 91/91/91 92/92/92
f 70/70/70 72/72/72 71/71/71
f 90/90/90 92/92/92 91/91/91
f 73/73/73 71/71/71 72/72/72
f 72/72/72 74/74/74 73/73/73
f 91/91/91 89/89/89 90/90/90
f 88/88/88 90/90/90 89/89/89
f 89/89/89 87/87/87 88/88/88
f 86/86/86 88/88/88 87/87/87
f 87/87/87 85/85/85 86/86/86
f 84/84/84 86/86/86 85/85/85
f 85/85/85 83/83/83 84/84/84
f 82/82/82 84/84/84 83/83/83
f 83/83/83 81/81/81 82/82/82
f 80/80/80 82/82/82 81/81/81
f 81/81/81 79/79/79 80/80/80
f 78/78/78 80/80/80 79/79/79
f 79/79/79 77/77/77 78/78/78
f 75/75/75 78/78/78 77/77/77
f 77/77/77 76/76/76 75/75/75
f 95/95/95 94/94/94 93/93/93
f 96/96/96 93/93/93 94/94/94
f 97/97/97 94/94/94 95/95/95
f 118/118/118 93/93/93 96/96/96
f 95/95/95 98/98/98 97/97/97
f 96/96/96 117/117/117 118/118/118
f 97/97/97 98/98/98 99/99/99
f 100/100/100 99/99/99 98/98/98
f 118/118/118 117/117/117 116/116/116
f 115/115/115 116/116/116 117/117/117
f 116/116/116 115/115/115 114/114/114
f 113/113/113 114/114/114 115/115/115
f 114/114/114 113/113/113 112/112/112
f 111/111/111 112/112/112 113/113/113
f 110/110/110 112/112/112 111/111/111
f 111/111/111 109/109/109 110/110/110
f 110/110/110 109/109/109 108/108/108
f 107/107/107 108/108/108 109/109/109
f 106/106/106 108/108/108 107/107/107
f 107/107/107 105/105/105 106/106/106
f 106/106/106 105/105/105 104/104/104
f 103/103/103 104/104/104 105/105/105
f 101/101/101 104/104/104 103/103/103
f 103/103/103 102/102/102 101/101/101
f 121/121/121 120/120/120 119/119/119
f 120/120/120 131/131/131 119/119/119
f 122/122/122 121/121/121 119/119/119
f 131/131/131 130/130/130 119/119/119
f 123/123/123 122/122/122 119/119/119
f 130/130/130 129/129/129 119/119/119
f 124/124/124 123/123/123 119/119/119
f 129/129/129 128/128/128 119/119/119
f 125/125/125 124/124/124 119/119/119
f 128/128/128 127/127/127 119/119/119
f 126/126/126 125/125/125 119/119/119
f 127/127/127 126/126/126 119/119/119
