# VPXTOOL table OBJ file
# VPXTOOL OBJ file
# numVerts: 158 numFaces: 106
o VRCrossBar
v 9.645586 1.634836 -20.73735
v -0.096336 1.634836 -20.73735
v 9.645586 1.630646 -20.677416
v -0.096336 1.264154 -20.301989
v -0.096336 1.542804 -20.282505
v 9.645588 1.264152 -20.301989
v 9.593522 2.42138 -20.709105
v -0.022127 2.42138 -20.709106
v 9.593522 2.353703 -20.736013
v 9.593522 1.949771 -20.669996
v -0.022127 1.949771 -20.669998
v 9.593522 1.954798 -20.768517
v 9.593522 1.989079 -20.80379
v -0.022127 1.989079 -20.803791
v 9.593522 1.906186 -20.795889
v 9.645589 0.817343 -20.67406
v -0.096336 0.817344 -20.67406
v 9.645589 0.81614 -20.764484
v -0.022127 1.906187 -20.79589
v 9.593519 1.862728 -20.282059
v -0.022127 1.920313 -20.278505
v 9.593519 1.920313 -20.278505
v -0.022127 1.862728 -20.282059
v -0.096336 1.27059 -20.415342
v -0.096336 0.817344 -20.67406
v -0.096336 1.472794 -20.680925
v 9.593522 1.906186 -20.795889
v 9.593522 1.943961 -20.618305
v 9.593522 1.954798 -20.768517
v 9.645586 1.879969 -20.690094
v -0.096336 1.879969 -20.690096
v 9.645586 1.830669 -20.738712
v 9.645588 1.534833 -20.19456
v -0.096336 1.534834 -20.194561
v 9.645586 1.852864 -20.194817
v 9.645586 1.630646 -20.677416
v -0.096336 1.630646 -20.677418
v 9.645586 1.472793 -20.680925
v -0.022127 1.862728 -20.282059
v -0.022127 1.906187 -20.79589
v -0.022127 1.954798 -20.768517
v 9.593522 1.943961 -20.618305
v -0.022127 1.943961 -20.618307
v 9.593522 2.909625 -20.423603
v 9.645586 1.304674 -20.752909
v -0.096336 1.304675 -20.752909
v 9.645586 1.284977 -20.68653
v 9.593522 2.847837 -20.494663
v -0.022127 2.847836 -20.494665
v 9.593522 1.949771 -20.669996
v 9.593522 2.913167 -20.459982
v -0.022127 2.913168 -20.459984
v -0.096336 1.27059 -20.415342
v -0.096336 1.264154 -20.301989
v 9.645588 1.27059 -20.41534
v -0.022127 2.353703 -20.736013
v 9.645586 1.463573 -20.764381
v -0.096336 1.463573 -20.764383
v 9.645586 1.304674 -20.752909
v 9.645586 1.472793 -20.680925
v -0.096336 1.472794 -20.680925
v 9.645586 1.463573 -20.764381
v -0.096336 1.284977 -20.686531
v -0.096336 0.817344 -20.67406
v 9.645586 1.284977 -20.68653
v 9.593522 1.954798 -20.768517
v -0.022127 1.954798 -20.768517
v 9.593522 2.416707 -20.68034
v -0.022127 1.920313 -20.278505
v -0.022127 1.943961 -20.618307
v 9.593519 1.920313 -20.278505
v 9.645586 1.830669 -20.738712
v -0.096336 1.830669 -20.738714
v 9.645586 1.634836 -20.73735
v 9.593522 2.416707 -20.68034
v -0.022127 2.416707 -20.68034
v 9.593522 2.42138 -20.709105
v 9.593522 2.909625 -20.423603
v -0.022127 2.909625 -20.423605
v 9.593522 2.913167 -20.459982
v 9.645586 1.852864 -20.194817
v -0.096336 1.852864 -20.194817
v 9.645588 1.542803 -20.282503
v -0.096336 1.542804 -20.282505
v 9.645588 1.534833 -20.19456
v 9.645586 1.630646 -20.677416
v 9.645586 1.472793 -20.680925
v 9.645588 1.27059 -20.41534
v -0.096336 1.630646 -20.677418
v 9.645588 1.542803 -20.282503
v -0.022127 1.954798 -20.768517
v -0.096336 0.816141 -20.764486
v -0.022127 1.862728 -20.282059
v 9.593519 1.862728 -20.282059
v -0.096336 1.852864 -20.194817
v -0.096336 1.534834 -20.194561
v -0.096336 1.542804 -20.282505
v -0.096336 1.830669 -20.738714
v -0.096336 1.879969 -20.690096
v -0.096336 1.630646 -20.677418
v -0.096336 1.634836 -20.73735
v -0.096336 1.304675 -20.752909
v -0.096336 1.463573 -20.764383
v -0.096336 1.284977 -20.686531
v -0.096336 1.264154 -20.301989
v -0.096336 -1.561733 -20.780195
v -0.096336 0.816141 -20.764486
v -0.096336 -1.57834 -20.43505
v 9.593522 2.913167 -20.459982
v 9.593522 2.847837 -20.494663
v 9.593522 1.949771 -20.669996
v 9.593522 2.909625 -20.423603
v 9.593519 1.862728 -20.282059
v 9.593519 1.920313 -20.278505
v 9.593522 2.353703 -20.736013
v 9.593522 1.989079 -20.80379
v 9.593522 2.416707 -20.68034
v 9.593522 2.42138 -20.709105
v -0.096336 1.830669 -20.738714
v -0.096336 1.852864 -20.194817
v -0.096336 1.472794 -20.680925
v -0.022127 2.913168 -20.459984
v -0.022127 2.909625 -20.423605
v -0.022127 1.943961 -20.618307
v -0.022127 1.949771 -20.669998
v -0.022127 2.847836 -20.494665
v -0.022127 2.42138 -20.709106
v -0.022127 2.416707 -20.68034
v -0.022127 2.353703 -20.736013
v -0.022127 1.920313 -20.278505
v -0.022127 1.989079 -20.803791
v -0.022127 2.909625 -20.423605
v -0.096336 1.284977 -20.686531
v -0.022127 1.949771 -20.669998
v 9.645588 1.264152 -20.301989
v -0.096336 1.304675 -20.752909
v -0.096336 1.463573 -20.764383
v 9.645589 0.817343 -20.67406
v -0.022127 2.416707 -20.68034
v 9.593522 1.943961 -20.618305
v -0.096336 1.634836 -20.73735
v -0.022127 2.42138 -20.709106
v -0.022127 2.913168 -20.459984
v -0.096336 1.534834 -20.194561
v 9.645588 1.534833 -20.19456
v 9.645586 1.852864 -20.194817
v 9.645586 1.879969 -20.690094
v 9.645588 1.264152 -20.301989
v 9.645588 1.542803 -20.282503
v 9.645586 1.830669 -20.738712
v 9.645586 1.634836 -20.73735
v 9.645589 -1.561734 -20.780193
v 9.645588 -1.578341 -20.43505
v 9.645589 0.817343 -20.67406
v 9.645589 0.81614 -20.764484
v 9.645586 1.463573 -20.764381
v 9.645586 1.304674 -20.752909
v 9.645586 1.284977 -20.68653
vt 0.533716 0.07321799
vt 0.533716 0.20758098
vt 0.534176 0.07321799
vt 0.522058 0.07321799
vt 0.519918 0.07321799
vt 0.522058 0.20758098
vt 0.406658 0.647537
vt 0.406658 0.89583403
vt 0.408615 0.647537
vt 0.456852 0.647537
vt 0.456852 0.89583403
vt 0.45953 0.647537
vt 0.41868 0.647537
vt 0.41868 0.89583403
vt 0.420824 0.647537
vt 0.531875 0.20758098
vt 0.531875 0.07321799
vt 0.531181 0.20758098
vt 0.420824 0.89583403
vt 0.434834 0.647537
vt 0.45953 0.647537
vt 0.45953 0.89583403
vt 0.461091 0.647537
vt 0.523606 0.12898499
vt 0.525343 0.13547003
vt 0.525746 0.12645799
vt 0.461495 0.70081902
vt 0.466216 0.69946098
vt 0.462125 0.69950902
vt 0.510866 0.07321799
vt 0.510866 0.20758098
vt 0.511248 0.07321799
vt 0.51748 0.07321799
vt 0.51748 0.20758098
vt 0.519918 0.07321799
vt 0.529102 0.07321799
vt 0.529102 0.20758098
vt 0.530312 0.07321799
vt 0.461091 0.674178
vt 0.475101 0.674178
vt 0.474472 0.672868
vt 0.406658 0.89583403
vt 0.406658 0.647537
vt 0.379926 0.89583403
vt 0.533193 0.07321799
vt 0.533193 0.20758098
vt 0.533716 0.07321799
vt 0.355083 0.647537
vt 0.355083 0.89583403
vt 0.379926 0.647537
vt 0.35314 0.647537
vt 0.35314 0.89583403
vt 0.531181 0.07321799
vt 0.530312 0.07321799
vt 0.531181 0.20758098
vt 0.408615 0.89583403
vt 0.527882 0.07321799
vt 0.527882 0.20758098
vt 0.529102 0.07321799
vt 0.532552 0.07321799
vt 0.532552 0.20758098
vt 0.533193 0.07321799
vt 0.511248 0.20758098
vt 0.514835 0.20758098
vt 0.511248 0.07321799
vt 0.447601 0.89583403
vt 0.447601 0.647537
vt 0.434834 0.89583403
vt 0.456852 0.647537
vt 0.447601 0.647537
vt 0.456852 0.89583403
vt 0.52638 0.07321799
vt 0.52638 0.20758098
vt 0.527882 0.07321799
vt 0.476498 0.647537
vt 0.476498 0.89583403
vt 0.477288 0.647537
vt 0.475505 0.647537
vt 0.475505 0.89583403
vt 0.476498 0.647537
vt 0.507074 0.07321799
vt 0.507074 0.20758098
vt 0.532552 0.20758098
vt 0.532552 0.07321799
vt 0.531875 0.20758098
vt 0.525804 0.117239
vt 0.525746 0.115064025
vt 0.523606 0.11253798
vt 0.534176 0.20758098
vt 0.519918 0.20758098
vt 0.45953 0.89583403
vt 0.531181 0.07321799
vt 0.434834 0.89583403
vt 0.461091 0.89583403
vt 0.522231 0.12076098
vt 0.522058 0.12513697
vt 0.522736 0.125112
vt 0.52638 0.12159002
vt 0.526034 0.12086499
vt 0.525804 0.124283016
vt 0.526265 0.124283016
vt 0.526207 0.12884098
vt 0.52638 0.126665
vt 0.525689 0.12904799
vt 0.522736 0.128964
vt 0.524882 0.16830498
vt 0.526034 0.13557303
vt 0.522233 0.16820097
vt 0.468283 0.674178
vt 0.467494 0.67593497
vt 0.464803 0.69942403
vt 0.469276 0.67418998
vt 0.475505 0.70081902
vt 0.475469 0.69932997
vt 0.462091 0.689174
vt 0.461091 0.698703
vt 0.463454 0.687432
vt 0.462665 0.687374
vt 0.511248 0.20758098
vt 0.519918 0.20758098
vt 0.530312 0.20758098
vt 0.468313 0.647537
vt 0.46732 0.64754897
vt 0.47038 0.67281997
vt 0.471793 0.67278302
vt 0.469103 0.64929402
vt 0.473932 0.66073298
vt 0.473142 0.66079098
vt 0.474505 0.662533
vt 0.461127 0.67268902
vt 0.475505 0.672063
vt 0.379926 0.647537
vt 0.533716 0.20758098
vt 0.379926 0.89583403
vt 0.530312 0.20758098
vt 0.529102 0.20758098
vt 0.533193 0.20758098
vt 0.514835 0.07321799
vt 0.434834 0.647537
vt 0.447601 0.89583403
vt 0.527882 0.20758098
vt 0.477288 0.89583403
vt 0.476498 0.89583403
vt 0.531875 0.07321799
vt 0.522058 0.116386
vt 0.522231 0.12076098
vt 0.526034 0.12065798
vt 0.522736 0.11255801
vt 0.522736 0.11641097
vt 0.52638 0.11993301
vt 0.526265 0.117239
vt 0.524882 0.07321799
vt 0.522233 0.073320985
vt 0.525343 0.106052995
vt 0.526034 0.105948985
vt 0.52638 0.11485702
vt 0.526207 0.112681985
vt 0.525689 0.11247498
vn 0.5165 -0.2458 -0.8202
vn -0.5178 -0.2496 -0.8183
vn 0.8454 0.0941 -0.5257
vn -0.3856 -0.4043 0.8294
vn -0.6823 0.1079 0.7231
vn 0.3434 -0.876 0.3386
vn 0.1193 0.6558 -0.7455
vn -0.1133 0.6537 -0.7482
vn 0.0158 0.2202 -0.9753
vn 0.1021 0.2945 -0.9502
vn -0.1504 0.1395 -0.9787
vn 0.1901 -0.1819 0.9648
vn -0.0182 0.1367 -0.9904
vn 0.0179 0.1366 -0.9905
vn -0.0131 -0.9755 -0.2195
vn 0.4421 0.0566 -0.8952
vn -0.4274 -0.1265 -0.8952
vn 0.8169 0.5767 -0.0077
vn -0.9661 -0.2518 0.056
vn 0.0371 -0.9993 -0.0065
vn -0.0303 0.9716 0.2347
vn 0.0283 0.972 0.2332
vn -0.0992 -0.078 0.992
vn -0.9708 -0.2394 -0.0129
vn -0.4274 -0.1265 -0.8952
vn -0.9683 0.0458 -0.2457
vn -0.0131 -0.9755 -0.2195
vn 0.8344 -0.1406 -0.5329
vn 0.1901 -0.1819 0.9648
vn 0.178 0.984 -0.0119
vn -0.8623 0.4863 0.1415
vn 0.4452 0.1666 -0.8798
vn 0.3592 -0.2433 0.901
vn -0.218 -0.9235 0.3157
vn 0.1989 0.7977 0.5694
vn 0.8454 0.0941 -0.5257
vn -0.6536 -0.2683 -0.7077
vn 0.8346 0.0943 -0.5427
vn -0.0992 -0.078 0.992
vn -0.9661 -0.2518 0.056
vn -0.7553 -0.6343 -0.1647
vn 0.8344 -0.1406 -0.5329
vn -0.504 -0.6727 0.5417
vn -0.0484 0.9813 0.1862
vn 0.5442 -0.3324 -0.7703
vn -0.7661 -0.4345 -0.4736
vn 0.4059 0.0571 -0.9122
vn 0.9604 0.2785 0.0102
vn -0.4341 0.8502 -0.2978
vn 0.1021 0.2945 -0.9502
vn 0.6673 0.7176 0.1996
vn -0.483 0.8589 0.1702
vn -0.9708 -0.2394 -0.0129
vn -0.3856 -0.4043 0.8294
vn 0.9721 -0.2341 -0.0125
vn -0.5861 -0.5127 -0.6273
vn 0.569 0.3192 -0.7578
vn -0.3924 0.6673 -0.633
vn 0.5442 -0.3324 -0.7703
vn 0.8346 0.0943 -0.5427
vn -0.9683 0.0458 -0.2457
vn 0.569 0.3192 -0.7578
vn -0.8329 0.3898 -0.3927
vn -0.4274 -0.1265 -0.8952
vn 0.4059 0.0571 -0.9122
vn 0.1901 -0.1819 0.9648
vn -0.7553 -0.6343 -0.1647
vn 0.0101 0.9805 0.1961
vn -0.0303 0.9716 0.2347
vn -0.504 -0.6727 0.5417
vn 0.0283 0.972 0.2332
vn 0.4452 0.1666 -0.8798
vn -0.5092 0.542 -0.6686
vn 0.5165 -0.2458 -0.8202
vn 0.0101 0.9805 0.1961
vn -0.9986 0.0231 0.0484
vn 0.1193 0.6558 -0.7455
vn -0.0484 0.9813 0.1862
vn -0.9985 0.0498 -0.0234
vn 0.6673 0.7176 0.1996
vn 0.1989 0.7977 0.5694
vn -0.5274 0.1605 0.8343
vn 0.8655 0.2409 0.4392
vn -0.6823 0.1079 0.7231
vn 0.3592 -0.2433 0.901
vn 0.8454 0.0941 -0.5257
vn 0.8346 0.0943 -0.5427
vn 0.9721 -0.2341 -0.0125
vn -0.6536 -0.2683 -0.7077
vn 0.8655 0.2409 0.4392
vn -0.7553 -0.6343 -0.1647
vn -0.8139 0.5809 -0.0077
vn -0.0992 -0.078 0.992
vn 0.0371 -0.9993 -0.0065
vn -0.5274 0.1605 0.8343
vn -0.218 -0.9235 0.3157
vn -0.6823 0.1079 0.7231
vn -0.5092 0.542 -0.6686
vn -0.8623 0.4863 0.1415
vn -0.6536 -0.2683 -0.7077
vn -0.5178 -0.2496 -0.8183
vn -0.7661 -0.4345 -0.4736
vn -0.3924 0.6673 -0.633
vn -0.8329 0.3898 -0.3927
vn -0.3856 -0.4043 0.8294
vn -1 -0 -0
vn -0.8139 0.5809 -0.0077
vn -1 -0 -0
vn 0.6673 0.7176 0.1996
vn 0.9604 0.2785 0.0102
vn 0.1021 0.2945 -0.9502
vn -0.0484 0.9813 0.1862
vn 0.0371 -0.9993 -0.0065
vn 0.0283 0.972 0.2332
vn 0.0158 0.2202 -0.9753
vn -0.0182 0.1367 -0.9904
vn 0.0101 0.9805 0.1961
vn 0.1193 0.6558 -0.7455
vn -0.5092 0.542 -0.6686
vn -0.5274 0.1605 0.8343
vn -0.9683 0.0458 -0.2457
vn -0.483 0.8589 0.1702
vn -0.9985 0.0498 -0.0234
vn -0.504 -0.6727 0.5417
vn -0.1504 0.1395 -0.9787
vn -0.4341 0.8502 -0.2978
vn -0.1133 0.6537 -0.7482
vn -0.9986 0.0231 0.0484
vn -0.5861 -0.5127 -0.6273
vn -0.0303 0.9716 0.2347
vn 0.0179 0.1366 -0.9905
vn -0.9985 0.0498 -0.0234
vn -0.8329 0.3898 -0.3927
vn -0.1504 0.1395 -0.9787
vn 0.3434 -0.876 0.3386
vn -0.7661 -0.4345 -0.4736
vn -0.3924 0.6673 -0.633
vn 0.4421 0.0566 -0.8952
vn -0.9986 0.0231 0.0484
vn 0.8344 -0.1406 -0.5329
vn -0.5178 -0.2496 -0.8183
vn -0.1133 0.6537 -0.7482
vn -0.483 0.8589 0.1702
vn -0.218 -0.9235 0.3157
vn 0.3592 -0.2433 0.901
vn 0.1989 0.7977 0.5694
vn 0.178 0.984 -0.0119
vn 0.3434 -0.876 0.3386
vn 0.8655 0.2409 0.4392
vn 0.4452 0.1666 -0.8798
vn 0.5165 -0.2458 -0.8202
vn 1 -0 -0
vn 1 -0 -0
vn 0.4421 0.0566 -0.8952
vn 0.8169 0.5767 -0.0077
vn 0.569 0.3192 -0.7578
vn 0.5442 -0.3324 -0.7703
vn 0.4059 0.0571 -0.9122
f 3/3/3 2/2/2 1/1/1
f 3/3/3 89/89/89 2/2/2
f 6/6/6 5/5/5 4/4/4
f 6/6/6 90/90/90 5/5/5
f 9/9/9 8/8/8 7/7/7
f 9/9/9 56/56/56 8/8/8
f 13/13/13 56/56/56 9/9/9
f 13/13/13 14/14/14 56/56/56
f 15/15/15 14/14/14 13/13/13
f 15/15/15 19/19/19 14/14/14
f 20/20/20 19/19/19 15/15/15
f 20/20/20 93/93/93 19/19/19
f 12/12/12 11/11/11 10/10/10
f 12/12/12 91/91/91 11/11/11
f 18/18/18 17/17/17 16/16/16
f 18/18/18 92/92/92 17/17/17
f 23/23/23 22/22/22 21/21/21
f 23/23/23 94/94/94 22/22/22
f 26/26/26 25/25/25 24/24/24
f 25/25/25 107/107/107 106/106/106
f 25/25/25 106/106/106 24/24/24
f 106/106/106 108/108/108 24/24/24
f 26/26/26 104/104/104 25/25/25
f 26/26/26 102/102/102 104/104/104
f 26/26/26 103/103/103 102/102/102
f 24/24/24 105/105/105 97/97/97
f 24/24/24 97/97/97 26/26/26
f 97/97/97 95/95/95 26/26/26
f 97/97/97 96/96/96 95/95/95
f 95/95/95 100/100/100 26/26/26
f 95/95/95 98/98/98 100/100/100
f 98/98/98 101/101/101 100/100/100
f 95/95/95 99/99/99 98/98/98
f 29/29/29 28/28/28 27/27/27
f 28/28/28 114/114/114 113/113/113
f 28/28/28 113/113/113 27/27/27
f 27/27/27 115/115/115 29/29/29
f 27/27/27 116/116/116 115/115/115
f 115/115/115 117/117/117 29/29/29
f 115/115/115 118/118/118 117/117/117
f 29/29/29 111/111/111 28/28/28
f 111/111/111 109/109/109 28/28/28
f 109/109/109 112/112/112 28/28/28
f 111/111/111 110/110/110 109/109/109
f 32/32/32 31/31/31 30/30/30
f 32/32/32 119/119/119 31/31/31
f 30/30/30 31/31/31 82/82/82
f 30/30/30 82/82/82 81/81/81
f 35/35/35 34/34/34 33/33/33
f 35/35/35 120/120/120 34/34/34
f 38/38/38 37/37/37 36/36/36
f 38/38/38 121/121/121 37/37/37
f 41/41/41 40/40/40 39/39/39
f 129/129/129 131/131/131 40/40/40
f 41/41/41 129/129/129 40/40/40
f 41/41/41 127/127/127 129/129/129
f 41/41/41 128/128/128 127/127/127
f 39/39/39 124/124/124 41/41/41
f 39/39/39 130/130/130 124/124/124
f 124/124/124 125/125/125 41/41/41
f 124/124/124 122/122/122 125/125/125
f 122/122/122 126/126/126 125/125/125
f 124/124/124 123/123/123 122/122/122
f 44/44/44 43/43/43 42/42/42
f 44/44/44 132/132/132 43/43/43
f 47/47/47 46/46/46 45/45/45
f 47/47/47 133/133/133 46/46/46
f 50/50/50 49/49/49 48/48/48
f 50/50/50 134/134/134 49/49/49
f 48/48/48 49/49/49 52/52/52
f 48/48/48 52/52/52 51/51/51
f 55/55/55 54/54/54 53/53/53
f 55/55/55 135/135/135 54/54/54
f 59/59/59 58/58/58 57/57/57
f 59/59/59 136/136/136 58/58/58
f 62/62/62 61/61/61 60/60/60
f 62/62/62 137/137/137 61/61/61
f 65/65/65 64/64/64 63/63/63
f 65/65/65 138/138/138 64/64/64
f 68/68/68 67/67/67 66/66/66
f 68/68/68 139/139/139 67/67/67
f 71/71/71 70/70/70 69/69/69
f 71/71/71 140/140/140 70/70/70
f 74/74/74 73/73/73 72/72/72
f 74/74/74 141/141/141 73/73/73
f 77/77/77 76/76/76 75/75/75
f 77/77/77 142/142/142 76/76/76
f 80/80/80 79/79/79 78/78/78
f 80/80/80 143/143/143 79/79/79
f 85/85/85 84/84/84 83/83/83
f 85/85/85 144/144/144 84/84/84
f 88/88/88 87/87/87 86/86/86
f 88/88/88 158/158/158 87/87/87
f 158/158/158 156/156/156 87/87/87
f 158/158/158 157/157/157 156/156/156
f 88/88/88 154/154/154 158/158/158
f 152/152/152 155/155/155 154/154/154
f 88/88/88 152/152/152 154/154/154
f 88/88/88 153/153/153 152/152/152
f 149/149/149 148/148/148 88/88/88
f 86/86/86 147/147/147 88/88/88
f 147/147/147 149/149/149 88/88/88
f 86/86/86 151/151/151 147/147/147
f 151/151/151 150/150/150 147/147/147
f 147/147/147 145/145/145 149/149/149
f 147/147/147 146/146/146 145/145/145
