# VPXTOOL table OBJ file
# VPXTOOL OBJ file
# numVerts: 154 numFaces: 112
o VRCab
v 9.969262 -1.593312 -20.783638
v 9.969262 -1.708117 -9.538761
v 9.886239 22.776451 -16.736767
v 7.183698 22.72005 -11.2125
v 9.88624 22.700447 -9.292145
v 2.261388 22.719603 -11.167978
v 7.11303 22.76365 -15.482932
v 9.886239 22.776451 -16.736767
v -0.398276 22.700447 -9.292146
v 0.290348 22.75778 -14.907637
v 0.314252 22.75708 -14.838908
v 2.351614 22.763689 -15.486322
v 0.924268 22.759243 -15.051049
v 0.900364 22.759943 -15.119778
v -0.398275 22.776451 -16.736769
v -0.398276 22.700447 -9.292146
v -0.436659 -1.70812 -9.538753
v -0.43667 0.825512 -20.75663
v -0.398275 22.700445 -9.292146
v 9.88624 22.700445 -9.292146
v -0.436658 -1.70812 -9.538754
v 9.969261 -1.708117 -9.538762
v 9.969262 -1.593312 -20.783638
v -0.436658 -1.70812 -9.538754
v 0.942309 22.46186 -14.641528
v 0.266661 22.46186 -14.641528
v 0.942309 22.471994 -15.319208
v 0.60669 22.755192 -14.65439
v 0.60669 22.448383 -14.65753
v 0.679018 22.755274 -14.662399
v 0.932278 22.758505 -14.978725
v 0.932278 22.45169 -14.981865
v 0.924268 22.759241 -15.051049
v 0.679018 22.448462 -14.66554
v 0.747751 22.755518 -14.686303
v 0.748865 22.761496 -15.271848
v 0.748865 22.454683 -15.274988
v 0.680224 22.761742 -15.296012
v 0.290349 22.450966 -14.910777
v 0.314253 22.450266 -14.842049
v 0.290349 22.757778 -14.907637
v 0.282339 22.451704 -14.983101
v 0.282339 22.758516 -14.979961
v 0.860995 22.756435 -14.776255
v 0.860995 22.449623 -14.779395
v 0.899828 22.757065 -14.837794
v 0.899828 22.45025 -14.840935
v 0.923993 22.757765 -14.906432
v 0.314789 22.453142 -15.124032
v 0.290624 22.452442 -15.055395
v 0.314789 22.759954 -15.120892
v 0.352852 22.756447 -14.777222
v 0.352852 22.449636 -14.780363
v 0.40421 22.755919 -14.72567
v 0.465752 22.755526 -14.686839
v 0.465752 22.448713 -14.689979
v 0.534393 22.755276 -14.662675
v 0.40421 22.449108 -14.72881
v 0.534393 22.448463 -14.665815
v 0.466866 22.45469 -15.275523
v 0.405177 22.4543 -15.236927
v 0.466866 22.761503 -15.272384
v 0.900364 22.453129 -15.122918
v 0.861766 22.453762 -15.184606
v 0.900365 22.759941 -15.119779
v 0.809441 22.75591 -14.724899
v 0.809441 22.4491 -14.72804
v 0.923993 22.45095 -14.909572
v 0.607927 22.455015 -15.307437
v 0.535599 22.454933 -15.299426
v 0.607927 22.761826 -15.304296
v 0.680224 22.454931 -15.299151
v 0.924268 22.452429 -15.05419
v 0.810407 22.7611 -15.233016
v 0.810407 22.454288 -15.236156
v 0.747751 22.448706 -14.689444
v 0.353622 22.760586 -15.182431
v 0.353622 22.453773 -15.185572
v 0.314253 22.757078 -14.838908
v 0.290624 22.759256 -15.052255
v 0.405177 22.76111 -15.233787
v 0.535599 22.761744 -15.296287
v 0.861766 22.760572 -15.181465
v 5.343126 22.84785 -15.325744
v 5.965548 22.84785 -15.325744
v 5.343127 23.01569 -14.70543
v 4.401446 23.015688 -14.705429
v 4.401446 22.84785 -15.325743
v 5.023868 23.015688 -14.705429
v 3.453351 22.84785 -15.325743
v 4.075772 22.84785 -15.325743
v 3.453351 23.01569 -14.705429
v 9.886239 22.776451 -16.736767
v 9.969266 0.825518 -20.756628
v 9.969262 -1.593312 -20.783638
v 9.88624 22.700447 -9.292145
v 0.607926 22.76183 -15.304296
v 0.535598 22.761745 -15.296286
v 0.80944 22.755913 -14.724898
v 0.74775 22.75552 -14.686301
v 0.466866 22.761505 -15.272383
v -0.398275 22.776451 -16.736769
v 0.466866 22.761505 -15.272383
v 0.405176 22.761112 -15.233787
v 0.679018 22.755276 -14.662399
v 0.60669 22.755196 -14.654389
v 0.405176 22.761112 -15.233787
v 0.353622 22.760588 -15.182431
v -0.398275 22.776451 -16.736769
v 0.353622 22.760588 -15.182431
v 0.314789 22.759956 -15.120892
v 0.534393 22.75528 -14.662675
v 0.465752 22.755527 -14.686838
v 0.314789 22.759956 -15.120892
v 0.290623 22.759258 -15.052254
v -0.398275 22.776451 -16.736769
v 0.290623 22.759258 -15.052254
v 0.282338 22.758518 -14.97996
v 0.404209 22.755922 -14.72567
v 0.352851 22.756449 -14.777221
v 0.282338 22.758518 -14.97996
v -0.398276 22.700447 -9.292146
v 0.282338 22.758518 -14.97996
v 0.290348 22.75778 -14.907637
v 0.860994 22.756437 -14.776255
v 0.680223 22.761745 -15.296011
v 0.607926 22.76183 -15.304296
v 2.351614 22.763689 -15.486322
v 0.860994 22.756437 -14.776255
v 0.899827 22.757067 -14.837794
v 0.748864 22.761497 -15.271848
v 0.680223 22.761745 -15.296011
v 0.810407 22.761103 -15.233016
v 0.899827 22.757067 -14.837794
v 0.923993 22.757769 -14.906431
v 0.932278 22.758507 -14.978724
v 0.861765 22.760574 -15.181463
v 0.810407 22.761103 -15.233016
v 2.351614 22.763689 -15.486322
v 0.861765 22.760574 -15.181463
v -0.43667 0.825512 -20.75663
v -0.398275 22.776451 -16.736769
v -0.398276 22.700447 -9.292146
v -0.436659 -1.70812 -9.538753
v -0.436665 -1.59332 -20.783638
v -0.43667 0.825512 -20.75663
v 9.969261 -1.708117 -9.538762
v -0.436665 -1.59332 -20.783638
v 0.266661 22.46186 -14.641528
v 0.266661 22.471994 -15.319208
v 0.942309 22.471994 -15.319208
v 5.965549 23.01569 -14.70543
v 5.023868 22.847847 -15.325743
v 4.075773 23.01569 -14.705429
vt 0.381948 0.00553298
vt 0.004352 0.0052790046
vt 0.253874 0.82507497
vt 0.594967 0.763268
vt 0.704365 0.68562198
vt 0.395787 0.76139599
vt 0.592037 0.936048985
vt 0.704162 0.9868119955
vt 0.288176 0.68539602
vt 0.317191 0.91286099
vt 0.31728 0.90980101
vt 0.399442 0.936159015
vt 0.34147 0.91877699
vt 0.339189 0.92025697
vt 0.288422 0.986599028
vt 0.990084 0.82678097
vt 0.989529 0.0069699883
vt 0.611985 0.088521
vt 0.566833 0.811764
vt 0.566833 0.77050799
vt 0.468914 0.81191802
vt 0.468914 0.77017498
vt 0.423803 0.77017498
vt 0.468914 0.81191802
vt 0 0
vt 1 0
vt 0 1
vt 0.434521 0.87088501
vt 0.435919 0.88780701
vt 0.440105 0.87344402
vt 0.460346 0.89664298
vt 0.444375 0.896267
vt 0.462517 0.90355599
vt 0.437849 0.88799697
vt 0.445053 0.87486899
vt 0.445154 0.91359103
vt 0.439429 0.903411984
vt 0.44202 0.91660899
vt 0.427608 0.89454502
vt 0.42823 0.89273602
vt 0.413354 0.89080697
vt 0.427414 0.89644098
vt 0.412533 0.89593601
vt 0.455088 0.88039601
vt 0.44264 0.89095199
vt 0.459787 0.884801984
vt 0.443617 0.89251101
vt 0.459463 0.891195
vt 0.428267 0.900107026
vt 0.427572 0.89831102
vt 0.414612 0.90652001
vt 0.419413 0.88248098
vt 0.429328 0.89119899
vt 0.423384 0.88034302
vt 0.426867 0.87853402
vt 0.432245 0.88880497
vt 0.43031 0.87583202
vt 0.430665 0.88985503
vt 0.434038 0.88816297
vt 0.43234 0.903844
vt 0.430653 0.90291202
vt 0.426207 0.918365
vt 0.443453 0.89970499
vt 0.442416 0.90122998
vt 0.45514 0.90647602
vt 0.451432 0.87531799
vt 0.441266 0.88955802
vt 0.444208 0.89437801
vt 0.436039 0.904452026
vt 0.434171 0.90436
vt 0.43755 0.92303699
vt 0.437734 0.904148996
vt 0.444126 0.897983015
vt 0.448316 0.91149402
vt 0.441054 0.902473986
vt 0.439689 0.88861501
vt 0.41734 0.91110802
vt 0.429353 0.90169197
vt 0.41305 0.88441098
vt 0.410692 0.901772976
vt 0.419564 0.91764802
vt 0.431479 0.92007601
vt 0.451151 0.90881401
vt 0.07522 0.9941520095
vt 0.225306 0.9941520095
vt 0.07522 0.83397102
vt 0.07522 0.83397102
vt 0.07522 0.9941520095
vt 0.225306 0.83397102
vt 0.07522 0.9941520095
vt 0.225306 0.9941520095
vt 0.07522 0.83397102
vt 0.253874 0.82507497
vt 0.381817 0.08675599
vt 0.381948 0.00553298
vt 0.003888 0.824907
vt 0.329202 0.92864603
vt 0.326394 0.92741299
vt 0.336902 0.905451
vt 0.334221 0.90457201
vt 0.323729 0.92652601
vt 0.288422 0.986599028
vt 0.323729 0.92652601
vt 0.321019 0.925705016
vt 0.331538 0.90372902
vt 0.328761 0.902553976
vt 0.321019 0.925705016
vt 0.319518 0.923249006
vt 0.288422 0.986599028
vt 0.319518 0.923249006
vt 0.318047 0.920809984
vt 0.326513 0.90416199
vt 0.324269 0.90566599
vt 0.318047 0.920809984
vt 0.31642 0.91842997
vt 0.288422 0.986599028
vt 0.31642 0.91842997
vt 0.316855 0.91563803
vt 0.322068 0.90723097
vt 0.319708 0.90850502
vt 0.316855 0.91563803
vt 0.288176 0.68539602
vt 0.316855 0.91563803
vt 0.317191 0.91286099
vt 0.338621 0.90780401
vt 0.331146 0.92674297
vt 0.329202 0.92864603
vt 0.399442 0.936159015
vt 0.338621 0.90780401
vt 0.340454 0.910067976
vt 0.332947 0.92488599
vt 0.331146 0.92674297
vt 0.334667 0.92289102
vt 0.340454 0.910067976
vt 0.340679 0.91286403
vt 0.340866 0.915690005
vt 0.33699 0.921651006
vt 0.334667 0.92289102
vt 0.399442 0.936159015
vt 0.33699 0.921651006
vt 0.611985 0.088521
vt 0.740088 0.826985
vt 0.990084 0.82678097
vt 0.989529 0.0069699883
vt 0.611837 0.0072649717
vt 0.611985 0.088521
vt 0.468914 0.77017498
vt 0.423803 0.81191802
vt 1 0
vt 1 1
vt 0 1
vt 0.225306 0.83397102
vt 0.225306 0.9941520095
vt 0.225306 0.83397102
vn 1 0.0034 -0
vn 1 0.0034 -0
vn 1 0.0034 -0
vn -0 0.9999 0.0102
vn -0 0.9999 0.0102
vn -0 0.9999 0.0102
vn -0 0.9999 0.0102
vn -0 0.9999 0.0102
vn -0 0.9999 0.0102
vn -0 0.9999 0.0102
vn -0 0.9999 0.0102
vn -0 0.9999 0.0102
vn -0 0.9999 0.0102
vn -0 0.9999 0.0102
vn -0 0.9999 0.0102
vn -1 0.0016 0.0004
vn -1 0.0016 0.0004
vn -1 0.0016 0.0004
vn -0 -0.0101 0.9999
vn -0 -0.0101 0.9999
vn -0 -0.0101 0.9999
vn -0 -0.9999 -0.0102
vn -0 -0.9999 -0.0102
vn -0 -0.9999 -0.0102
vn -0 0.9999 0.015
vn -0 0.9999 0.015
vn -0 0.9999 0.015
vn 0.0019 0.0102 -0.9999
vn 0.0019 0.0102 -0.9999
vn -0.2207 0.01 -0.9753
vn -1 -0 -0.0019
vn -1 -0 -0.0019
vn -0.9754 -0.0023 0.2207
vn -0.2207 0.01 -0.9753
vn -0.4322 0.0092 -0.9017
vn -0.4356 -0.0092 0.9001
vn -0.4356 -0.0092 0.9001
vn -0.2244 -0.01 0.9744
vn 0.9753 0.0023 -0.2207
vn 0.9018 0.0044 -0.4322
vn 0.9753 0.0023 -0.2207
vn 1 -0 0.0019
vn 1 -0 0.0019
vn -0.7806 0.0064 -0.6249
vn -0.7806 0.0064 -0.6249
vn -0.9001 0.0045 -0.4356
vn -0.9001 0.0045 -0.4356
vn -0.9745 0.0023 -0.2244
vn 0.9001 -0.0045 0.4356
vn 0.9745 -0.0023 0.2244
vn 0.9001 -0.0045 0.4356
vn 0.783 0.0064 -0.622
vn 0.783 0.0064 -0.622
vn 0.625 0.008 -0.7806
vn 0.4356 0.0092 -0.9001
vn 0.4356 0.0092 -0.9001
vn 0.2244 0.01 -0.9745
vn 0.625 0.008 -0.7806
vn 0.2244 0.01 -0.9745
vn 0.4322 -0.0092 0.9017
vn 0.622 -0.008 0.783
vn 0.4322 -0.0092 0.9017
vn -0.9018 -0.0044 0.4321
vn -0.783 -0.0064 0.622
vn -0.9018 -0.0044 0.4321
vn -0.622 0.008 -0.783
vn -0.622 0.008 -0.783
vn -0.9745 0.0023 -0.2244
vn -0.0019 -0.0102 0.9999
vn 0.2207 -0.01 0.9753
vn -0.0019 -0.0102 0.9999
vn -0.2244 -0.01 0.9745
vn -0.9753 -0.0023 0.2207
vn -0.625 -0.008 0.7806
vn -0.625 -0.008 0.7806
vn -0.4322 0.0092 -0.9017
vn 0.7806 -0.0064 0.6249
vn 0.7806 -0.0064 0.6249
vn 0.9018 0.0044 -0.4322
vn 0.9745 -0.0023 0.2244
vn 0.622 -0.008 0.783
vn 0.2207 -0.01 0.9753
vn -0.783 -0.0064 0.622
vn -0 0.9653 -0.2612
vn -0 0.9653 -0.2612
vn -0 0.9653 -0.2612
vn -0 0.9653 -0.2612
vn -0 0.9653 -0.2612
vn -0 0.9653 -0.2612
vn -0 0.9653 -0.2612
vn -0 0.9653 -0.2612
vn -0 0.9653 -0.2612
vn 0.9998 -0.0002 0.022
vn 0.9998 -0.0002 0.022
vn 0.9998 -0.0002 0.022
vn 1 0.0034 -0
vn -0 0.9999 0.0102
vn -0 0.9999 0.0102
vn -0 0.9999 0.0102
vn -0 0.9999 0.0102
vn -0 0.9999 0.0102
vn -0 0.9999 0.0101
vn -0 0.9999 0.0101
vn -0 0.9999 0.0101
vn -0 0.9999 0.0102
vn -0 0.9999 0.0102
vn -0 0.9999 0.0102
vn -0 0.9999 0.0102
vn -0.0001 0.9999 0.0103
vn -0.0001 0.9999 0.0103
vn -0.0001 0.9999 0.0103
vn -0 0.9999 0.0102
vn -0 0.9999 0.0102
vn -0 0.9999 0.0102
vn -0 0.9999 0.0102
vn -0.0001 0.9999 0.0102
vn -0.0001 0.9999 0.0102
vn -0.0001 0.9999 0.0102
vn -0 0.9999 0.0102
vn -0 0.9999 0.0102
vn -0 0.9999 0.0102
vn -0 0.9999 0.0101
vn -0 0.9999 0.0101
vn -0 0.9999 0.0101
vn -0 0.9999 0.0102
vn -0 0.9999 0.0104
vn -0 0.9999 0.0104
vn -0 0.9999 0.0104
vn -0 0.9999 0.0104
vn -0 0.9999 0.0104
vn -0 0.9999 0.0102
vn -0 0.9999 0.0102
vn -0 0.9999 0.0102
vn -0 0.9999 0.0102
vn -0 0.9999 0.0102
vn -0 0.9999 0.0102
vn -0 0.9999 0.0103
vn -0 0.9999 0.0103
vn -0 0.9999 0.0103
vn -0 0.9999 0.0102
vn -1 0.0017 -0
vn -1 0.0017 -0
vn -1 0.0017 -0
vn -1 -0 -0
vn -1 -0 -0
vn -1 -0 -0
vn -0 -0.0101 0.9999
vn -0 -0.9999 -0.0102
vn -0 0.9999 0.0149
vn -0 0.9999 0.0149
vn -0 0.9999 0.0149
vn -0 0.9653 -0.2612
vn -0 0.9653 -0.2612
vn -0 0.9653 -0.2612
f 18/18/18 17/17/17 16/16/16
f 3/3/3 2/2/2 1/1/1
f 3/3/3 96/96/96 2/2/2
f 6/6/6 5/5/5 4/4/4
f 4/4/4 5/5/5 8/8/8
f 4/4/4 8/8/8 7/7/7
f 15/15/15 7/7/7 8/8/8
f 108/108/108 107/107/107 15/15/15
f 115/115/115 114/114/114 15/15/15
f 6/6/6 9/9/9 5/5/5
f 15/15/15 12/12/12 7/7/7
f 121/121/121 15/15/15 9/9/9
f 101/101/101 98/98/98 15/15/15
f 98/98/98 97/97/97 15/15/15
f 12/12/12 15/15/15 97/97/97
f 11/11/11 10/10/10 9/9/9
f 9/9/9 120/120/120 11/11/11
f 9/9/9 119/119/119 120/120/120
f 9/9/9 113/113/113 119/119/119
f 9/9/9 112/112/112 113/113/113
f 9/9/9 106/106/106 112/112/112
f 9/9/9 105/105/105 106/106/106
f 9/9/9 100/100/100 105/105/105
f 9/9/9 99/99/99 100/100/100
f 9/9/9 6/6/6 99/99/99
f 125/125/125 99/99/99 6/6/6
f 125/125/125 6/6/6 12/12/12
f 12/12/12 140/140/140 14/14/14
f 14/14/14 13/13/13 12/12/12
f 13/13/13 136/136/136 12/12/12
f 136/136/136 135/135/135 12/12/12
f 135/135/135 134/134/134 12/12/12
f 12/12/12 132/132/132 131/131/131
f 12/12/12 131/131/131 133/133/133
f 21/21/21 20/20/20 19/19/19
f 21/21/21 147/147/147 20/20/20
f 24/24/24 23/23/23 22/22/22
f 24/24/24 148/148/148 23/23/23
f 27/27/27 26/26/26 25/25/25
f 30/30/30 29/29/29 28/28/28
f 57/57/57 28/28/28 29/29/29
f 30/30/30 34/34/34 29/29/29
f 57/57/57 29/29/29 59/59/59
f 35/35/35 34/34/34 30/30/30
f 57/57/57 59/59/59 56/56/56
f 35/35/35 76/76/76 34/34/34
f 57/57/57 56/56/56 55/55/55
f 66/66/66 76/76/76 35/35/35
f 54/54/54 55/55/55 56/56/56
f 66/66/66 67/67/67 76/76/76
f 54/54/54 56/56/56 58/58/58
f 44/44/44 67/67/67 66/66/66
f 54/54/54 58/58/58 53/53/53
f 44/44/44 45/45/45 67/67/67
f 54/54/54 53/53/53 52/52/52
f 46/46/46 45/45/45 44/44/44
f 79/79/79 52/52/52 53/53/53
f 46/46/46 47/47/47 45/45/45
f 79/79/79 53/53/53 40/40/40
f 48/48/48 47/47/47 46/46/46
f 41/41/41 79/79/79 40/40/40
f 48/48/48 68/68/68 47/47/47
f 41/41/41 40/40/40 39/39/39
f 31/31/31 68/68/68 48/48/48
f 43/43/43 41/41/41 39/39/39
f 31/31/31 32/32/32 68/68/68
f 43/43/43 39/39/39 42/42/42
f 33/33/33 32/32/32 31/31/31
f 80/80/80 43/43/43 42/42/42
f 33/33/33 73/73/73 32/32/32
f 80/80/80 42/42/42 50/50/50
f 65/65/65 73/73/73 33/33/33
f 51/51/51 80/80/80 50/50/50
f 65/65/65 63/63/63 73/73/73
f 51/51/51 50/50/50 49/49/49
f 65/65/65 64/64/64 63/63/63
f 51/51/51 49/49/49 78/78/78
f 65/65/65 83/83/83 64/64/64
f 51/51/51 78/78/78 77/77/77
f 83/83/83 75/75/75 64/64/64
f 81/81/81 77/77/77 78/78/78
f 83/83/83 74/74/74 75/75/75
f 81/81/81 78/78/78 61/61/61
f 36/36/36 75/75/75 74/74/74
f 62/62/62 81/81/81 61/61/61
f 36/36/36 37/37/37 75/75/75
f 62/62/62 61/61/61 60/60/60
f 38/38/38 37/37/37 36/36/36
f 82/82/82 62/62/62 60/60/60
f 38/38/38 72/72/72 37/37/37
f 82/82/82 60/60/60 70/70/70
f 71/71/71 72/72/72 38/38/38
f 71/71/71 82/82/82 70/70/70
f 71/71/71 69/69/69 72/72/72
f 71/71/71 70/70/70 69/69/69
f 86/86/86 85/85/85 84/84/84
f 86/86/86 152/152/152 85/85/85
f 89/89/89 88/88/88 87/87/87
f 89/89/89 153/153/153 88/88/88
f 92/92/92 91/91/91 90/90/90
f 92/92/92 154/154/154 91/91/91
f 95/95/95 94/94/94 93/93/93
f 104/104/104 103/103/103 102/102/102
f 111/111/111 110/110/110 109/109/109
f 118/118/118 117/117/117 116/116/116
f 124/124/124 123/123/123 122/122/122
f 128/128/128 127/127/127 126/126/126
f 130/130/130 129/129/129 128/128/128
f 139/139/139 138/138/138 137/137/137
f 143/143/143 142/142/142 141/141/141
f 146/146/146 145/145/145 144/144/144
f 151/151/151 150/150/150 149/149/149
