# VPXTOOL table OBJ file
# VPXTOOL OBJ file
# numVerts: 144 numFaces: 132
o PegMetalT3
v 0.04376 0.00504 -0.072004
v 0.00101 0.11896 -0.083455
v 0.00101 0.00504 -0.083455
v 0.04376 0.11896 -0.072004
v 0.075055 0.11896 -0.040718
v 0.075055 0.00504 -0.040718
v 0.08651 0.00504 0.002019
v 0.08651 0.11896 0.002019
v 0.075055 0.11896 0.044757
v 0.08651 0.11896 0.002019
v 0.08651 0.00504 0.002019
v 0.075055 0.00504 0.044757
v 0.04376 0.00504 0.076042
v 0.04376 0.11896 0.076042
v 0.00101 0.11896 0.087494
v 0.00101 0.00504 0.087494
v -0.04174 0.00504 0.076042
v -0.04174 0.11896 0.076042
v -0.073036 0.11896 0.044757
v -0.073036 0.00504 0.044757
v -0.08449 0.00504 0.002019
v -0.08449 0.11896 0.002019
v -0.073036 0.11896 -0.040718
v -0.073036 0.00504 -0.040718
v -0.04174 0.00504 -0.072004
v -0.04174 0.11896 -0.072004
v 0.00101 0.27096 -0.046701
v 0.00101 0.11896 -0.046701
v 0.025377 0.11896 -0.040174
v 0.025377 0.27096 -0.040174
v 0.043215 0.11896 -0.022341
v 0.043215 0.27096 -0.022341
v 0.049745 0.11896 0.002019
v 0.049745 0.27096 0.002019
v 0.049745 0.27096 0.002019
v 0.049745 0.11896 0.002019
v 0.043215 0.11896 0.02638
v 0.043215 0.27096 0.02638
v 0.025377 0.11896 0.044213
v 0.025377 0.27096 0.044213
v 0.00101 0.11896 0.05074
v 0.00101 0.27096 0.05074
v -0.023358 0.11896 0.044213
v -0.023358 0.27096 0.044213
v -0.041196 0.11896 0.02638
v -0.041196 0.27096 0.02638
v -0.047725 0.11896 0.002019
v -0.047725 0.27096 0.002019
v -0.041196 0.11896 -0.022341
v -0.041196 0.27096 -0.022341
v -0.023358 0.11896 -0.040174
v -0.023358 0.27096 -0.040174
v 0.00101 0.57496 -0.051573
v 0.00101 0.38496 -0.051573
v 0.027814 0.38496 -0.044393
v 0.027814 0.57496 -0.044393
v 0.047436 0.38496 -0.024777
v 0.047436 0.57496 -0.024777
v 0.054618 0.38496 0.002019
v 0.054618 0.57496 0.002019
v 0.054618 0.57496 0.002019
v 0.054618 0.38496 0.002019
v 0.047436 0.38496 0.028816
v 0.047436 0.57496 0.028816
v 0.027814 0.38496 0.048432
v 0.027814 0.57496 0.048432
v 0.00101 0.38496 0.055612
v 0.00101 0.57496 0.055612
v -0.025795 0.38496 0.048432
v -0.025795 0.57496 0.048432
v -0.045417 0.38496 0.028816
v -0.045417 0.57496 0.028816
v -0.052599 0.38496 0.002019
v -0.052599 0.57496 0.002019
v -0.045417 0.38496 -0.024777
v -0.045417 0.57496 -0.024777
v -0.025795 0.38496 -0.044393
v -0.025795 0.57496 -0.044393
v 0.00101 0.57496 0.002019
v 0.00101 0.57496 -0.051573
v 0.027814 0.57496 -0.044393
v 0.047436 0.57496 -0.024777
v 0.054618 0.57496 0.002019
v 0.047436 0.57496 0.028816
v 0.027814 0.57496 0.048432
v 0.00101 0.57496 0.055612
v -0.025795 0.57496 0.048432
v -0.045417 0.57496 0.028816
v -0.052599 0.57496 0.002019
v -0.045417 0.57496 -0.024777
v -0.025795 0.57496 -0.044393
v -0.020093 0.38496 0.0142
v -0.020093 0.27096 0.0142
v -0.020093 0.27096 -0.010161
v -0.020093 0.38496 -0.010161
v 0.00101 0.27096 -0.022341
v 0.00101 0.38496 -0.022341
v 0.022113 0.27096 -0.010161
v 0.022113 0.38496 -0.010161
v 0.022113 0.38496 -0.010161
v 0.022113 0.27096 -0.010161
v 0.022113 0.27096 0.0142
v 0.022113 0.38496 0.0142
v 0.00101 0.27096 0.02638
v 0.00101 0.38496 0.02638
v 0.00101 0.11896 0.002019
v 0.00101 0.11896 -0.083455
v 0.04376 0.11896 -0.072004
v 0.075055 0.11896 -0.040718
v 0.08651 0.11896 0.002019
v 0.075055 0.11896 0.044757
v 0.04376 0.11896 0.076042
v 0.00101 0.11896 0.087494
v -0.04174 0.11896 0.076042
v -0.073036 0.11896 0.044757
v -0.08449 0.11896 0.002019
v -0.073036 0.11896 -0.040718
v -0.04174 0.11896 -0.072004
v 0.00101 0.27096 0.002019
v 0.00101 0.27096 -0.046701
v 0.025377 0.27096 -0.040174
v 0.043215 0.27096 -0.022341
v 0.049745 0.27096 0.002019
v 0.043215 0.27096 0.02638
v 0.025377 0.27096 0.044213
v 0.00101 0.27096 0.05074
v -0.023358 0.27096 0.044213
v -0.041196 0.27096 0.02638
v -0.047725 0.27096 0.002019
v -0.041196 0.27096 -0.022341
v -0.023358 0.27096 -0.040174
v 0.00101 0.38496 0.002019
v 0.027814 0.38496 -0.044393
v 0.00101 0.38496 -0.051573
v 0.047436 0.38496 -0.024777
v 0.054618 0.38496 0.002019
v 0.047436 0.38496 0.028816
v 0.027814 0.38496 0.048432
v 0.00101 0.38496 0.055612
v -0.025795 0.38496 0.048432
v -0.045417 0.38496 0.028816
v -0.052599 0.38496 0.002019
v -0.045417 0.38496 -0.024777
v -0.025795 0.38496 -0.044393
vt 0.164335 0
vt 0.24725 0.11188799
vt 0.24725 0
vt 0.164335 0.11188799
vt 0.082503 0.11188799
vt 0.082503 0
vt -0.000499 0
vt -0.000499 0.11188799
vt 0.909995 0.11188799
vt 0.996998 0.11188799
vt 0.996998 0
vt 0.909995 0
vt 0.825536 0
vt 0.825536 0.11188799
vt 0.741748 0.11188799
vt 0.741748 0
vt 0.658832 0
vt 0.658832 0.11188799
vt 0.577001 0.11188799
vt 0.577001 0
vt 0.494 0
vt 0.494 0.11188799
vt 0.411996 0.11188799
vt 0.411996 0
vt 0.329038 0
vt 0.329038 0.11188799
vt 0.24725 0.283592
vt 0.24725 0.11188799
vt 0.164335 0.11188799
vt 0.164335 0.283592
vt 0.082503 0.11188799
vt 0.082503 0.283592
vt -0.000499 0.11188799
vt -0.000499 0.283592
vt 0.996998 0.283592
vt 0.996998 0.11188799
vt 0.909995 0.11188799
vt 0.909995 0.283592
vt 0.825536 0.11188799
vt 0.825536 0.283592
vt 0.741748 0.11188799
vt 0.741748 0.283592
vt 0.658832 0.11188799
vt 0.658832 0.283592
vt 0.577001 0.11188799
vt 0.577001 0.283592
vt 0.494 0.11188799
vt 0.494 0.283592
vt 0.411996 0.11188799
vt 0.411996 0.283592
vt 0.329038 0.11188799
vt 0.329038 0.283592
vt 0.24725 0.71499997
vt 0.24725 0.42861998
vt 0.164335 0.42861998
vt 0.164335 0.71499997
vt 0.082503 0.42861998
vt 0.082503 0.71499997
vt -0.000499 0.42861998
vt -0.000499 0.71499997
vt 0.996998 0.71499997
vt 0.996998 0.42861998
vt 0.909995 0.42861998
vt 0.909995 0.71499997
vt 0.825536 0.42861998
vt 0.825536 0.71499997
vt 0.741748 0.42861998
vt 0.741748 0.71499997
vt 0.658832 0.42861998
vt 0.658832 0.71499997
vt 0.577001 0.42861998
vt 0.577001 0.71499997
vt 0.494 0.42861998
vt 0.494 0.71499997
vt 0.411996 0.42861998
vt 0.411996 0.71499997
vt 0.329038 0.42861998
vt 0.329038 0.71499997
vt 0.373416 0.89927602
vt 0.462158 0.89927602
vt 0.450307 0.855326
vt 0.417931 0.82348698
vt 0.373416 0.81183302
vt 0.329477 0.82348698
vt 0.2971 0.855326
vt 0.28525 0.89927602
vt 0.2971 0.942312002
vt 0.329477 0.974152029
vt 0.373416 0.985805988
vt 0.417931 0.974152029
vt 0.450307 0.942312002
vt 0.494 0.42861998
vt 0.494 0.283592
vt 0.329038 0.283592
vt 0.329038 0.42861998
vt 0.164335 0.283592
vt 0.164335 0.42861998
vt -0.000499 0.283592
vt -0.000499 0.42861998
vt 0.996998 0.42861998
vt 0.996998 0.283592
vt 0.825536 0.283592
vt 0.825536 0.42861998
vt 0.658832 0.283592
vt 0.658832 0.42861998
vt 0.84702 0.868613
vt 0.961058 0.868613
vt 0.945749 0.811679
vt 0.903923 0.76972502
vt 0.84702 0.754368
vt 0.789652 0.76972502
vt 0.747826 0.811679
vt 0.732517 0.868613
vt 0.747826 0.926301
vt 0.789652 0.968255997
vt 0.84702 0.983612001
vt 0.903923 0.968255997
vt 0.945749 0.926301
vt 0.158508 0.84620398
vt 0.232729 0.84620398
vt 0.22275 0.80867302
vt 0.195485 0.780878
vt 0.158508 0.77070397
vt 0.120998 0.780878
vt 0.093734 0.80867302
vt 0.083754 0.84620398
vt 0.093734 0.884612024
vt 0.120998 0.912407994
vt 0.158508 0.92258197
vt 0.195485 0.912407994
vt 0.22275 0.884612024
vt 0.597143 0.828767
vt 0.676396 0.87312597
vt 0.688611 0.828767
vt 0.643025 0.90594298
vt 0.597143 0.91795498
vt 0.551853 0.90594298
vt 0.518482 0.87312597
vt 0.506267 0.828767
vt 0.518482 0.783467
vt 0.551853 0.75064898
vt 0.597143 0.73863697
vt 0.643025 0.75064898
vt 0.676396 0.783467
vn 0.499893 0 -0.866054
vn 0 0 -1
vn 0 0 -1
vn 0.499893 0 -0.866054
vn 0.865963 0 -0.500076
vn 0.865963 0 -0.500076
vn 1 0 0
vn 1 0 0
vn 0.865963 0 0.500076
vn 1 0 0
vn 1 0 0
vn 0.865963 0 0.500076
vn 0.499893 0 0.866054
vn 0.499893 0 0.866054
vn 0 0 1
vn 0 0 1
vn -0.499893 0 0.866054
vn -0.499893 0 0.866054
vn -0.865963 0 0.500076
vn -0.865963 0 0.500076
vn -1 0 0
vn -1 0 0
vn -0.865963 0 -0.500076
vn -0.865963 0 -0.500076
vn -0.499893 0 -0.866054
vn -0.499893 0 -0.866054
vn 0 0 -1
vn 0 0 -0.999969
vn 0.499893 0 -0.866054
vn 0.499893 0 -0.866054
vn 0.865963 0 -0.500076
vn 0.865963 0 -0.500076
vn 1 0 0
vn 1 0 0
vn 1 0 0
vn 1 0 0
vn 0.865963 0 0.500076
vn 0.865963 0 0.500076
vn 0.499893 0 0.866054
vn 0.499893 0 0.866054
vn 0 0 0.999969
vn 0 0 0.999969
vn -0.499893 0 0.866054
vn -0.499893 0 0.866054
vn -0.865963 0 0.500076
vn -0.865963 0 0.500076
vn -1 0 0
vn -1 0 0
vn -0.865963 0 -0.500076
vn -0.865963 0 -0.500076
vn -0.499893 0 -0.866054
vn -0.499893 0 -0.866054
vn 0 0 -0.999969
vn 0 0 -0.999969
vn 0.499893 0 -0.866054
vn 0.499893 0 -0.866054
vn 0.865963 0 -0.500076
vn 0.865963 0 -0.500076
vn 1 0 0
vn 1 0 0
vn 1 0 0
vn 1 0 0
vn 0.865963 0 0.500076
vn 0.865963 0 0.500076
vn 0.499893 0 0.866054
vn 0.499893 0 0.866054
vn 0 0 0.999969
vn 0 0 0.999969
vn -0.499893 0 0.866054
vn -0.499893 0 0.866054
vn -0.865963 0 0.500076
vn -0.865963 0 0.500076
vn -1 0 0
vn -1 0 0
vn -0.865963 0 -0.500076
vn -0.865963 0 -0.500076
vn -0.499893 0 -0.866054
vn -0.499893 0 -0.866054
vn 0 1 0
vn 0 1 0
vn 0 1 0
vn 0 1 0
vn 0 1 0
vn 0 1 0
vn 0 1 0
vn 0 1 0
vn 0 1 0
vn 0 1 0
vn 0 1 0
vn 0 1 0
vn 0 1 0
vn -0.865963 0 0.500046
vn -0.865963 0 0.500046
vn -0.865963 0 -0.500046
vn -0.865963 0 -0.500046
vn 0 0 -1
vn 0 0 -1
vn 0.865963 0 -0.500046
vn 0.865963 0 -0.500046
vn 0.865963 0 -0.500046
vn 0.865963 0 -0.500046
vn 0.865963 0 0.500046
vn 0.865963 0 0.500046
vn 0 0 1
vn 0 0 1
vn 0 1 0
vn 0 1 0
vn 0 1 0
vn 0 1 0
vn 0 1 0
vn 0 1 0
vn 0 1 0
vn 0 1 0
vn 0 1 0
vn 0 1 0
vn 0 1 0
vn 0 1 0
vn 0 1 0
vn 0 1 0
vn 0 1 0
vn 0 1 0
vn 0 1 0
vn 0 1 0
vn 0 1 0
vn 0 1 0
vn 0 1 0
vn 0 1 0
vn 0 1 0
vn 0 1 0
vn 0 1 0
vn 0 1 0
vn 0 -1 0
vn 0 -1 0
vn 0 -1 0
vn 0 -1 0
vn 0 -1 0
vn 0 -1 0
vn 0 -1 0
vn 0 -1 0
vn 0 -1 0
vn 0 -1 0
vn 0 -1 0
vn 0 -1 0
vn 0 -1 0
f 32/32/32 34/34/34 33/33/33
f 33/33/33 31/31/31 32/32/32
f 30/30/30 32/32/32 31/31/31
f 31/31/31 29/29/29 30/30/30
f 27/27/27 30/30/30 29/29/29
f 29/29/29 28/28/28 27/27/27
f 52/52/52 27/27/27 28/28/28
f 28/28/28 51/51/51 52/52/52
f 50/50/50 52/52/52 51/51/51
f 51/51/51 49/49/49 50/50/50
f 48/48/48 50/50/50 49/49/49
f 49/49/49 47/47/47 48/48/48
f 46/46/46 48/48/48 47/47/47
f 47/47/47 45/45/45 46/46/46
f 44/44/44 46/46/46 45/45/45
f 45/45/45 43/43/43 44/44/44
f 42/42/42 44/44/44 43/43/43
f 43/43/43 41/41/41 42/42/42
f 40/40/40 42/42/42 41/41/41
f 41/41/41 39/39/39 40/40/40
f 38/38/38 40/40/40 39/39/39
f 39/39/39 37/37/37 38/38/38
f 35/35/35 38/38/38 37/37/37
f 37/37/37 36/36/36 35/35/35
f 3/3/3 2/2/2 1/1/1
f 25/25/25 2/2/2 3/3/3
f 2/2/2 4/4/4 1/1/1
f 25/25/25 26/26/26 2/2/2
f 1/1/1 4/4/4 5/5/5
f 23/23/23 26/26/26 25/25/25
f 1/1/1 5/5/5 6/6/6
f 24/24/24 23/23/23 25/25/25
f 6/6/6 5/5/5 7/7/7
f 5/5/5 8/8/8 7/7/7
f 21/21/21 23/23/23 24/24/24
f 21/21/21 22/22/22 23/23/23
f 19/19/19 22/22/22 21/21/21
f 20/20/20 19/19/19 21/21/21
f 17/17/17 19/19/19 20/20/20
f 17/17/17 18/18/18 19/19/19
f 15/15/15 18/18/18 17/17/17
f 16/16/16 15/15/15 17/17/17
f 13/13/13 15/15/15 16/16/16
f 13/13/13 14/14/14 15/15/15
f 9/9/9 14/14/14 13/13/13
f 12/12/12 9/9/9 13/13/13
f 11/11/11 9/9/9 12/12/12
f 11/11/11 10/10/10 9/9/9
f 55/55/55 54/54/54 53/53/53
f 53/53/53 56/56/56 55/55/55
f 78/78/78 53/53/53 54/54/54
f 57/57/57 55/55/55 56/56/56
f 54/54/54 77/77/77 78/78/78
f 56/56/56 58/58/58 57/57/57
f 76/76/76 78/78/78 77/77/77
f 59/59/59 57/57/57 58/58/58
f 58/58/58 60/60/60 59/59/59
f 77/77/77 75/75/75 76/76/76
f 74/74/74 76/76/76 75/75/75
f 75/75/75 73/73/73 74/74/74
f 72/72/72 74/74/74 73/73/73
f 73/73/73 71/71/71 72/72/72
f 70/70/70 72/72/72 71/71/71
f 71/71/71 69/69/69 70/70/70
f 68/68/68 70/70/70 69/69/69
f 69/69/69 67/67/67 68/68/68
f 66/66/66 68/68/68 67/67/67
f 67/67/67 65/65/65 66/66/66
f 64/64/64 66/66/66 65/65/65
f 65/65/65 63/63/63 64/64/64
f 61/61/61 64/64/64 63/63/63
f 63/63/63 62/62/62 61/61/61
f 81/81/81 80/80/80 79/79/79
f 80/80/80 91/91/91 79/79/79
f 82/82/82 81/81/81 79/79/79
f 91/91/91 90/90/90 79/79/79
f 83/83/83 82/82/82 79/79/79
f 90/90/90 89/89/89 79/79/79
f 84/84/84 83/83/83 79/79/79
f 89/89/89 88/88/88 79/79/79
f 85/85/85 84/84/84 79/79/79
f 88/88/88 87/87/87 79/79/79
f 86/86/86 85/85/85 79/79/79
f 87/87/87 86/86/86 79/79/79
f 94/94/94 93/93/93 92/92/92
f 92/92/92 95/95/95 94/94/94
f 105/105/105 92/92/92 93/93/93
f 96/96/96 94/94/94 95/95/95
f 93/93/93 104/104/104 105/105/105
f 95/95/95 97/97/97 96/96/96
f 103/103/103 105/105/105 104/104/104
f 98/98/98 96/96/96 97/97/97
f 97/97/97 99/99/99 98/98/98
f 104/104/104 102/102/102 103/103/103
f 100/100/100 103/103/103 102/102/102
f 102/102/102 101/101/101 100/100/100
f 108/108/108 107/107/107 106/106/106
f 107/107/107 118/118/118 106/106/106
f 109/109/109 108/108/108 106/106/106
f 118/118/118 117/117/117 106/106/106
f 110/110/110 109/109/109 106/106/106
f 117/117/117 116/116/116 106/106/106
f 111/111/111 110/110/110 106/106/106
f 116/116/116 115/115/115 106/106/106
f 112/112/112 111/111/111 106/106/106
f 115/115/115 114/114/114 106/106/106
f 113/113/113 112/112/112 106/106/106
f 114/114/114 113/113/113 106/106/106
f 121/121/121 120/120/120 119/119/119
f 120/120/120 131/131/131 119/119/119
f 122/122/122 121/121/121 119/119/119
f 131/131/131 130/130/130 119/119/119
f 123/123/123 122/122/122 119/119/119
f 130/130/130 129/129/129 119/119/119
f 124/124/124 123/123/123 119/119/119
f 129/129/129 128/128/128 119/119/119
f 125/125/125 124/124/124 119/119/119
f 128/128/128 127/127/127 119/119/119
f 126/126/126 125/125/125 119/119/119
f 127/127/127 126/126/126 119/119/119
f 134/134/134 133/133/133 132/132/132
f 144/144/144 134/134/134 132/132/132
f 133/133/133 135/135/135 132/132/132
f 143/143/143 144/144/144 132/132/132
f 135/135/135 136/136/136 132/132/132
f 142/142/142 143/143/143 132/132/132
f 136/136/136 137/137/137 132/132/132
f 141/141/141 142/142/142 132/132/132
f 137/137/137 138/138/138 132/132/132
f 140/140/140 141/141/141 132/132/132
f 138/138/138 139/139/139 132/132/132
f 139/139/139 140/140/140 132/132/132
