# VPXTOOL table OBJ file
# VPXTOOL OBJ file
# numVerts: 181 numFaces: 320
o Primitive6
v 0 0 -1
v 0.273267 0 -0.961938
v 0.084444 0.259892 -0.961938
v 0.525731 0 -0.850651
v 0.361803 0.262866 -0.894427
v 0.16246 0.5 -0.850651
v 0.738175 0 -0.674609
v 0.617865 0.264677 -0.740398
v 0.442653 0.505835 -0.740398
v 0.228109 0.702046 -0.674609
v 0.894427 0 -0.447214
v 0.822619 0.259892 -0.505721
v 0.688191 0.5 -0.525731
v 0.501375 0.702046 -0.505721
v 0.276393 0.850651 -0.447214
v 0 0 -1
v -0.221077 0.160622 -0.961938
v -0.138197 0.425325 -0.894427
v -0.425325 0.309017 -0.850651
v -0.060792 0.669414 -0.740398
v -0.34429 0.5773 -0.740398
v -0.597196 0.433888 -0.674609
v 0.007031 0.862668 -0.505721
v -0.262866 0.809017 -0.525731
v -0.512752 0.69378 -0.505721
v -0.723607 0.525731 -0.447214
v 0 0 -1
v -0.221077 0.160622 -0.961938
v -0.221077 -0.160622 -0.961938
v -0.425325 0.309017 -0.850651
v -0.447214 0 -0.894427
v -0.425325 -0.309017 -0.850651
v -0.655436 0.149044 -0.740398
v -0.655436 0.149044 -0.740398
v -0.655436 -0.149044 -0.740398
v -0.597196 -0.433889 -0.674609
v -0.818274 0.273266 -0.505721
v -0.818274 0.273266 -0.505721
v -0.850651 0 -0.525731
v -0.818274 -0.273267 -0.505721
v -0.723607 -0.525731 -0.447214
v 0 0 -1
v 0.084444 -0.259892 -0.961938
v -0.138197 -0.425325 -0.894427
v 0.16246 -0.5 -0.850651
v -0.34429 -0.5773 -0.740398
v -0.060792 -0.669414 -0.740398
v 0.228109 -0.702046 -0.674609
v -0.512752 -0.69378 -0.505721
v -0.262865 -0.809017 -0.525731
v 0.007032 -0.862668 -0.505721
v 0.276393 -0.850651 -0.447214
v 0 0 -1
v 0.361803 -0.262866 -0.894427
v 0.442653 -0.505835 -0.740398
v 0.617865 -0.264677 -0.740398
v 0.501375 -0.702046 -0.505721
v 0.688191 -0.5 -0.525731
v 0.822619 -0.259892 -0.505721
v 0.959253 -0.160622 -0.232454
v 0.959253 0.160622 -0.232454
v 0.951056 -0.309017 -0
v 1 0 0
v 0.951056 0.309017 0
v 0.870463 -0.433889 0.232454
v 0.955352 -0.149044 0.255124
v 0.955352 0.149044 0.255124
v 0.870463 0.433889 0.232454
v 0.723607 -0.525731 0.447214
v 0.818274 -0.273267 0.505721
v 0.850651 -0 0.525731
v 0.818274 0.273266 0.505721
v 0.723607 0.525731 0.447214
v 0.449186 0.862668 -0.232454
v 0.143665 0.961938 -0.232454
v 0.587785 0.809017 0
v 0.309017 0.951056 0
v 0 1 0
v 0.68164 0.69378 0.232454
v 0.436969 0.862537 0.255124
v 0.153471 0.954651 0.255124
v -0.143665 0.961938 0.232454
v 0.512752 0.69378 0.505721
v 0.262866 0.809017 0.525731
v -0.007031 0.862668 0.505721
v -0.276393 0.850651 0.447214
v -0.68164 0.69378 -0.232454
v -0.870463 0.433888 -0.232454
v -0.587785 0.809017 0
v -0.809017 0.587785 0
v -0.951056 0.309017 0
v -0.449186 0.862668 0.232454
v -0.68529 0.682121 0.255124
v -0.860502 0.440963 0.255124
v -0.959253 0.160622 0.232454
v -0.501375 0.702046 0.505721
v -0.688191 0.5 0.525731
v -0.822619 0.259892 0.505721
v -0.959253 0.160622 0.232454
v -0.822619 0.259892 0.505721
v -0.894427 -0 0.447214
v -0.870463 -0.433889 -0.232454
v -0.68164 -0.693781 -0.232454
v -0.951056 -0.309017 -0
v -0.809017 -0.587785 -0
v -0.587785 -0.809017 -0
v -0.959253 -0.160622 0.232454
v -0.860502 -0.440963 0.255124
v -0.68529 -0.682121 0.255124
v -0.449186 -0.862669 0.232454
v -0.822619 -0.259892 0.505721
v -0.688191 -0.5 0.525731
v -0.501375 -0.702047 0.505721
v -0.276393 -0.850651 0.447214
v 0.143665 -0.961938 -0.232454
v 0.449186 -0.862668 -0.232454
v 0 -1 -0
v 0.309017 -0.951056 -0
v 0.587785 -0.809017 -0
v -0.143664 -0.961938 0.232454
v 0.153471 -0.954651 0.255124
v 0.436969 -0.862537 0.255124
v 0.68164 -0.69378 0.232454
v -0.007031 -0.862668 0.505721
v 0.262866 -0.809017 0.525731
v 0.512752 -0.69378 0.505721
v 0.809017 0.587785 0
v 0.68529 0.682121 -0.255124
v 0.860502 0.440963 -0.255124
v -0.309017 0.951057 0
v -0.436969 0.862537 -0.255124
v -0.153471 0.954651 -0.255124
v -1 0 0
v -0.951056 0.309017 0
v -0.955352 -0.149044 -0.255124
v -0.955352 0.149044 -0.255124
v -0.955352 0.149044 -0.255124
v -0.309017 -0.951057 -0
v -0.153471 -0.954651 -0.255124
v -0.436969 -0.862537 -0.255124
v 0.809017 -0.587785 -0
v 0.860502 -0.440963 -0.255124
v 0.68529 -0.682121 -0.255124
v 0 -0 1
v -0.084444 0.259892 0.961938
v 0.221077 0.160622 0.961938
v -0.16246 0.5 0.850651
v 0.138197 0.425325 0.894427
v 0.425325 0.309017 0.850651
v -0.228109 0.702046 0.674609
v 0.060792 0.669414 0.740398
v 0.34429 0.5773 0.740398
v 0.597196 0.433889 0.674609
v 0 -0 1
v -0.273267 -0 0.961938
v -0.084444 0.259892 0.961938
v -0.525731 -0 0.850651
v -0.361803 0.262866 0.894427
v -0.361803 0.262866 0.894427
v -0.738175 -0 0.674609
v -0.617865 0.264677 0.740398
v -0.617865 0.264677 0.740398
v -0.442653 0.505835 0.740398
v 0 -0 1
v -0.084444 -0.259892 0.961938
v -0.16246 -0.5 0.850651
v -0.361803 -0.262866 0.894427
v -0.228108 -0.702046 0.674609
v -0.442653 -0.505835 0.740398
v -0.617865 -0.264677 0.740398
v 0 -0 1
v 0.221077 -0.160622 0.961938
v 0.425325 -0.309017 0.850651
v 0.138197 -0.425325 0.894427
v 0.597196 -0.433889 0.674609
v 0.34429 -0.5773 0.740398
v 0.060792 -0.669414 0.740398
v 0 -0 1
v 0.447214 -0 0.894427
v 0.655436 0.149044 0.740398
v 0.655436 -0.149044 0.740398
vt 0.6776 0.0794
vt 0.5935 0.15350002
vt 0.7617 0.15350002
vt 0.5935 0.22759998
vt 0.6776 0.20359999
vt 0.7617 0.22759998
vt 0.5935 0.3018
vt 0.6477 0.27680004
vt 0.7075 0.27680004
vt 0.7617 0.3018
vt 0.5935 0.37590003
vt 0.6344 0.35800004
vt 0.6776 0.35179996
vt 0.7207 0.35800004
vt 0.7617 0.37590003
vt 0.8458 0.0794
vt 0.9299 0.15350002
vt 0.8458 0.20359999
vt 0.9299 0.22759998
vt 0.8159 0.27680004
vt 0.8758 0.27680004
vt 0.9299 0.3018
vt 0.8027 0.35800004
vt 0.8458 0.35179996
vt 0.889 0.35800004
vt 0.9299 0.37590003
vt 0.1729 0.0794
vt 0.0888 0.15350002
vt 0.257 0.15350002
vt 0.0888 0.22759998
vt 0.1729 0.20359999
vt 0.257 0.22759998
vt 0.9841 0.27680004
vt 0.143 0.27680004
vt 0.2029 0.27680004
vt 0.257 0.3018
vt 0.9709 0.35800004
vt 0.1298 0.35800004
vt 0.1729 0.35179996
vt 0.2161 0.35800004
vt 0.257 0.37590003
vt 0.3412 0.0794
vt 0.4253 0.15350002
vt 0.3412 0.20359999
vt 0.4253 0.22759998
vt 0.3112 0.27680004
vt 0.3711 0.27680004
vt 0.4253 0.3018
vt 0.298 0.35800004
vt 0.3412 0.35179996
vt 0.3843 0.35800004
vt 0.4253 0.37590003
vt 0.5094 0.0794
vt 0.5094 0.20359999
vt 0.4794 0.27680004
vt 0.5393 0.27680004
vt 0.4662 0.35800004
vt 0.5094 0.35179996
vt 0.5525 0.35800004
vt 0.5713 0.4372
vt 0.6157 0.4372
vt 0.5514 0.5
vt 0.5935 0.5
vt 0.6355 0.5
vt 0.5316 0.5628
vt 0.5728 0.56910002
vt 0.6142 0.56910002
vt 0.6554 0.5628
vt 0.5094 0.62410003
vt 0.5503 0.64200002
vt 0.5935 0.64819998
vt 0.6366 0.64200002
vt 0.6776 0.62410003
vt 0.7395 0.4372
vt 0.7839 0.4372
vt 0.7197 0.5
vt 0.7617 0.5
vt 0.8038 0.5
vt 0.6998 0.5628
vt 0.741 0.56910002
vt 0.7824 0.56910002
vt 0.8236 0.5628
vt 0.7186 0.64200002
vt 0.7617 0.64819998
vt 0.8049 0.64200002
vt 0.8458 0.62410003
vt 0.9077 0.4372
vt 0.9521 0.4372
vt 0.8879 0.5
vt 0.9299 0.5
vt 0.972 0.5
vt 0.868 0.5628
vt 0.9092 0.56910002
vt 0.9506 0.56910002
vt 0.9918 0.5628
vt 0.8868 0.64200002
vt 0.9299 0.64819998
vt 0.9731 0.64200002
vt 0.1507 0.5628
vt 0.132 0.64200002
vt 0.1729 0.62410003
vt 0.2348 0.4372
vt 0.2792 0.4372
vt 0.215 0.5
vt 0.257 0.5
vt 0.2991 0.5
vt 0.1951 0.5628
vt 0.2364 0.56910002
vt 0.2777 0.56910002
vt 0.3189 0.5628
vt 0.2139 0.64200002
vt 0.257 0.64819998
vt 0.3002 0.64200002
vt 0.3412 0.62410003
vt 0.4031 0.4372
vt 0.4475 0.4372
vt 0.3832 0.5
vt 0.4253 0.5
vt 0.4673 0.5
vt 0.3634 0.5628
vt 0.4046 0.56910002
vt 0.446 0.56910002
vt 0.4872 0.5628
vt 0.3821 0.64200002
vt 0.4253 0.64819998
vt 0.4684 0.64200002
vt 0.6776 0.5
vt 0.6983 0.43089998
vt 0.6569 0.43089998
vt 0.8458 0.5
vt 0.8665 0.43089998
vt 0.8251 0.43089998
vt 0.1729 0.5
vt 0.1309 0.5
vt 0.1936 0.43089998
vt 0.1522 0.43089998
vt 0.9933 0.43089998
vt 0.3412 0.5
vt 0.3618 0.43089998
vt 0.3205 0.43089998
vt 0.5094 0.5
vt 0.5301 0.43089998
vt 0.4887 0.43089998
vt 0.7617 0.9206
vt 0.8458 0.84649998
vt 0.6776 0.84649998
vt 0.8458 0.77240002
vt 0.7617 0.79640001
vt 0.6776 0.77240002
vt 0.8458 0.6982
vt 0.7916 0.72320002
vt 0.7318 0.72320002
vt 0.6776 0.6982
vt 0.0888 0.9206
vt 0.1729 0.84649998
vt 0.0047 0.84649998
vt 0.1729 0.77240002
vt 0.0888 0.79640001
vt 0.9299 0.79640001
vt 0.1729 0.6982
vt 0.1188 0.72320002
vt 0.9599 0.72320002
vt 0.9 0.72320002
vt 0.257 0.9206
vt 0.3412 0.84649998
vt 0.3412 0.77240002
vt 0.257 0.79640001
vt 0.3412 0.6982
vt 0.287 0.72320002
vt 0.2271 0.72320002
vt 0.4253 0.9206
vt 0.5094 0.84649998
vt 0.5094 0.77240002
vt 0.4253 0.79640001
vt 0.5094 0.6982
vt 0.4552 0.72320002
vt 0.3953 0.72320002
vt 0.5935 0.9206
vt 0.5935 0.79640001
vt 0.6234 0.72320002
vt 0.5635 0.72320002
vn -0 -0 -1
vn 0.2713 0 -0.9625
vn 0.0838 0.258 -0.9625
vn 0.525 0 -0.8511
vn 0.3638 0.2643 -0.8932
vn 0.1622 0.4993 -0.8511
vn 0.7394 0 -0.6732
vn 0.6197 0.268 -0.7376
vn 0.4464 0.5066 -0.7376
vn 0.2285 0.7032 -0.6732
vn 0.8944 0 -0.4472
vn 0.8219 0.2615 -0.506
vn 0.6882 0.5 -0.5257
vn 0.5027 0.7009 -0.506
vn 0.2764 0.8507 -0.4472
vn -0 -0 -1
vn -0.2195 0.1595 -0.9625
vn -0.139 0.4277 -0.8932
vn -0.4248 0.3086 -0.8511
vn -0.0634 0.6722 -0.7376
vn -0.3438 0.5811 -0.7376
vn -0.5982 0.4346 -0.6732
vn 0.0053 0.8625 -0.506
vn -0.2629 0.809 -0.5257
vn -0.5112 0.6947 -0.506
vn -0.7236 0.5257 -0.4472
vn -0 -0 -1
vn -0.2195 0.1595 -0.9625
vn -0.2195 -0.1595 -0.9625
vn -0.4248 0.3086 -0.8511
vn -0.4497 0 -0.8932
vn -0.4248 -0.3086 -0.8511
vn -0.6589 0.1474 -0.7376
vn -0.6589 0.1474 -0.7376
vn -0.6589 -0.1474 -0.7376
vn -0.5982 -0.4346 -0.6732
vn -0.8187 0.2715 -0.506
vn -0.8187 0.2716 -0.506
vn -0.8507 0 -0.5257
vn -0.8187 -0.2715 -0.506
vn -0.7236 -0.5257 -0.4472
vn -0 -0 -1
vn 0.0838 -0.258 -0.9625
vn -0.139 -0.4277 -0.8932
vn 0.1622 -0.4993 -0.8511
vn -0.3438 -0.5811 -0.7376
vn -0.0634 -0.6722 -0.7376
vn 0.2285 -0.7032 -0.6732
vn -0.5112 -0.6947 -0.506
vn -0.2629 -0.809 -0.5257
vn 0.0053 -0.8625 -0.506
vn 0.2764 -0.8507 -0.4472
vn -0 -0 -1
vn 0.3638 -0.2643 -0.8932
vn 0.4464 -0.5066 -0.7376
vn 0.6197 -0.268 -0.7376
vn 0.5027 -0.7009 -0.506
vn 0.6882 -0.5 -0.5257
vn 0.8219 -0.2615 -0.506
vn 0.9584 -0.1615 -0.2353
vn 0.9584 0.1615 -0.2353
vn 0.9511 -0.309 0
vn 1 0 0.0028
vn 0.9511 0.309 0
vn 0.8703 -0.4327 0.2353
vn 0.9544 -0.1474 0.2595
vn 0.9544 0.1474 0.2595
vn 0.8703 0.4327 0.2353
vn 0.7236 -0.5257 0.4472
vn 0.8187 -0.2715 0.506
vn 0.8507 0 0.5257
vn 0.8187 0.2715 0.506
vn 0.7236 0.5257 0.4472
vn 0.4497 0.8616 -0.2353
vn 0.1426 0.9614 -0.2353
vn 0.5878 0.809 0
vn 0.309 0.9511 0.0027
vn 0 1 0
vn 0.6805 0.694 0.2353
vn 0.4351 0.8622 0.2595
vn 0.1547 0.9533 0.2595
vn -0.1426 0.9614 0.2353
vn 0.5112 0.6947 0.506
vn 0.2629 0.809 0.5257
vn -0.0053 0.8625 0.506
vn -0.2764 0.8507 0.4472
vn -0.6805 0.694 -0.2353
vn -0.8703 0.4327 -0.2353
vn -0.5878 0.809 0
vn -0.809 0.5878 0.0027
vn -0.9511 0.309 -0
vn -0.4497 0.8616 0.2353
vn -0.6855 0.6803 0.2595
vn -0.8588 0.4417 0.2595
vn -0.9584 0.1615 0.2353
vn -0.5027 0.7009 0.506
vn -0.6882 0.5 0.5257
vn -0.8219 0.2615 0.506
vn -0.9584 0.1615 0.2353
vn -0.8219 0.2615 0.506
vn -0.8944 -0 0.4472
vn -0.8703 -0.4327 -0.2353
vn -0.6805 -0.694 -0.2353
vn -0.9511 -0.309 -0
vn -0.809 -0.5878 0.0028
vn -0.5878 -0.809 -0
vn -0.9584 -0.1615 0.2353
vn -0.8588 -0.4417 0.2595
vn -0.6855 -0.6803 0.2595
vn -0.4497 -0.8616 0.2353
vn -0.8219 -0.2615 0.506
vn -0.6882 -0.5 0.5257
vn -0.5027 -0.7009 0.506
vn -0.2764 -0.8507 0.4472
vn 0.1426 -0.9614 -0.2353
vn 0.4497 -0.8616 -0.2353
vn 0 -1 -0
vn 0.309 -0.9511 0.0027
vn 0.5878 -0.809 -0
vn -0.1426 -0.9614 0.2353
vn 0.1547 -0.9533 0.2595
vn 0.4351 -0.8622 0.2595
vn 0.6805 -0.694 0.2353
vn -0.0053 -0.8625 0.506
vn 0.2629 -0.809 0.5257
vn 0.5112 -0.6947 0.506
vn 0.809 0.5878 -0.0027
vn 0.6855 0.6803 -0.2595
vn 0.8588 0.4417 -0.2595
vn -0.309 0.9511 -0.0027
vn -0.4351 0.8622 -0.2595
vn -0.1547 0.9533 -0.2595
vn -1 -0 -0.0028
vn -0.9511 0.309 -0
vn -0.9544 -0.1474 -0.2595
vn -0.9544 0.1474 -0.2595
vn -0.9544 0.1474 -0.2595
vn -0.309 -0.9511 -0.0027
vn -0.1547 -0.9533 -0.2595
vn -0.4351 -0.8622 -0.2595
vn 0.809 -0.5878 -0.0027
vn 0.8588 -0.4417 -0.2595
vn 0.6855 -0.6803 -0.2595
vn -0 -0 1
vn -0.0838 0.258 0.9625
vn 0.2195 0.1595 0.9625
vn -0.1622 0.4993 0.8511
vn 0.139 0.4277 0.8932
vn 0.4248 0.3086 0.8511
vn -0.2285 0.7032 0.6732
vn 0.0634 0.6722 0.7376
vn 0.3438 0.5811 0.7376
vn 0.5982 0.4346 0.6732
vn -0 -0 1
vn -0.2713 -0 0.9625
vn -0.0838 0.258 0.9625
vn -0.525 -0 0.8511
vn -0.3638 0.2643 0.8932
vn -0.3638 0.2643 0.8932
vn -0.7394 -0 0.6732
vn -0.6197 0.268 0.7376
vn -0.6197 0.2681 0.7376
vn -0.4464 0.5066 0.7376
vn -0 -0 1
vn -0.0838 -0.258 0.9625
vn -0.1622 -0.4993 0.8511
vn -0.3638 -0.2643 0.8932
vn -0.2285 -0.7032 0.6732
vn -0.4464 -0.5066 0.7376
vn -0.6197 -0.268 0.7376
vn -0 -0 1
vn 0.2195 -0.1595 0.9625
vn 0.4248 -0.3086 0.8511
vn 0.139 -0.4277 0.8932
vn 0.5982 -0.4346 0.6732
vn 0.3438 -0.5811 0.7376
vn 0.0634 -0.6722 0.7376
vn -0 -0 1
vn 0.4497 -0 0.8932
vn 0.6589 0.1474 0.7376
vn 0.6589 -0.1474 0.7376
f 156/156/156 155/155/155 154/154/154
f 156/156/156 158/158/158 155/155/155
f 158/158/158 157/157/157 155/155/155
f 158/158/158 161/161/161 157/157/157
f 155/155/155 165/165/165 164/164/164
f 161/161/161 160/160/160 157/157/157
f 161/161/161 100/100/100 160/160/160
f 157/157/157 167/167/167 155/155/155
f 155/155/155 167/167/167 165/165/165
f 100/100/100 101/101/101 160/160/160
f 101/101/101 100/100/100 99/99/99
f 160/160/160 170/170/170 157/157/157
f 157/157/157 170/170/170 167/167/167
f 101/101/101 111/111/111 160/160/160
f 160/160/160 111/111/111 170/170/170
f 99/99/99 107/107/107 101/101/101
f 111/111/111 101/101/101 107/107/107
f 170/170/170 169/169/169 167/167/167
f 99/99/99 133/133/133 107/107/107
f 134/134/134 133/133/133 99/99/99
f 134/134/134 136/136/136 133/133/133
f 111/111/111 112/112/112 170/170/170
f 170/170/170 112/112/112 169/169/169
f 108/108/108 111/111/111 107/107/107
f 112/112/112 111/111/111 108/108/108
f 133/133/133 104/104/104 107/107/107
f 108/108/108 107/107/107 104/104/104
f 136/136/136 135/135/135 133/133/133
f 133/133/133 135/135/135 104/104/104
f 136/136/136 39/39/39 135/135/135
f 38/38/38 39/39/39 136/136/136
f 39/39/39 38/38/38 34/34/34
f 135/135/135 102/102/102 104/104/104
f 39/39/39 40/40/40 135/135/135
f 135/135/135 40/40/40 102/102/102
f 35/35/35 39/39/39 34/34/34
f 40/40/40 39/39/39 35/35/35
f 105/105/105 104/104/104 102/102/102
f 105/105/105 108/108/108 104/104/104
f 40/40/40 41/41/41 102/102/102
f 109/109/109 108/108/108 105/105/105
f 109/109/109 112/112/112 108/108/108
f 103/103/103 105/105/105 102/102/102
f 103/103/103 102/102/102 41/41/41
f 106/106/106 109/109/109 105/105/105
f 106/106/106 105/105/105 103/103/103
f 113/113/113 112/112/112 109/109/109
f 112/112/112 113/113/113 169/169/169
f 110/110/110 109/109/109 106/106/106
f 110/110/110 113/113/113 109/109/109
f 41/41/41 40/40/40 36/36/36
f 36/36/36 40/40/40 35/35/35
f 41/41/41 49/49/49 103/103/103
f 49/49/49 41/41/41 36/36/36
f 103/103/103 140/140/140 106/106/106
f 103/103/103 49/49/49 140/140/140
f 106/106/106 138/138/138 110/110/110
f 106/106/106 140/140/140 138/138/138
f 46/46/46 49/49/49 36/36/36
f 49/49/49 50/50/50 140/140/140
f 50/50/50 49/49/49 46/46/46
f 36/36/36 35/35/35 32/32/32
f 46/46/46 36/36/36 32/32/32
f 35/35/35 34/34/34 31/31/31
f 32/32/32 35/35/35 31/31/31
f 31/31/31 34/34/34 30/30/30
f 31/31/31 30/30/30 28/28/28
f 29/29/29 31/31/31 28/28/28
f 32/32/32 31/31/31 29/29/29
f 29/29/29 28/28/28 27/27/27
f 44/44/44 46/46/46 32/32/32
f 44/44/44 32/32/32 29/29/29
f 47/47/47 50/50/50 46/46/46
f 47/47/47 46/46/46 44/44/44
f 43/43/43 29/29/29 42/42/42
f 43/43/43 44/44/44 29/29/29
f 140/140/140 50/50/50 139/139/139
f 140/140/140 139/139/139 138/138/138
f 45/45/45 44/44/44 43/43/43
f 45/45/45 47/47/47 44/44/44
f 50/50/50 51/51/51 139/139/139
f 51/51/51 50/50/50 47/47/47
f 138/138/138 139/139/139 117/117/117
f 48/48/48 51/51/51 47/47/47
f 48/48/48 47/47/47 45/45/45
f 139/139/139 51/51/51 115/115/115
f 139/139/139 115/115/115 117/117/117
f 52/52/52 51/51/51 48/48/48
f 51/51/51 52/52/52 115/115/115
f 138/138/138 117/117/117 120/120/120
f 110/110/110 138/138/138 120/120/120
f 118/118/118 117/117/117 115/115/115
f 110/110/110 120/120/120 114/114/114
f 114/114/114 113/113/113 110/110/110
f 121/121/121 120/120/120 117/117/117
f 118/118/118 121/121/121 117/117/117
f 124/124/124 114/114/114 120/120/120
f 121/121/121 124/124/124 120/120/120
f 113/113/113 114/114/114 168/168/168
f 114/114/114 124/124/124 168/168/168
f 169/169/169 113/113/113 168/168/168
f 125/125/125 124/124/124 121/121/121
f 169/169/169 168/168/168 166/166/166
f 167/167/167 169/169/169 166/166/166
f 168/168/168 124/124/124 177/177/177
f 168/168/168 177/177/177 166/166/166
f 124/124/124 125/125/125 177/177/177
f 167/167/167 166/166/166 165/165/165
f 166/166/166 177/177/177 174/174/174
f 166/166/166 174/174/174 165/165/165
f 177/177/177 125/125/125 176/176/176
f 177/177/177 176/176/176 174/174/174
f 122/122/122 125/125/125 121/121/121
f 122/122/122 121/121/121 118/118/118
f 165/165/165 174/174/174 172/172/172
f 165/165/165 172/172/172 171/171/171
f 174/174/174 176/176/176 173/173/173
f 174/174/174 173/173/173 172/172/172
f 125/125/125 126/126/126 176/176/176
f 126/126/126 125/125/125 122/122/122
f 176/176/176 175/175/175 173/173/173
f 176/176/176 126/126/126 175/175/175
f 173/173/173 179/179/179 172/172/172
f 123/123/123 126/126/126 122/122/122
f 172/172/172 146/146/146 178/178/178
f 172/172/172 179/179/179 146/146/146
f 126/126/126 69/69/69 175/175/175
f 69/69/69 126/126/126 123/123/123
f 175/175/175 181/181/181 173/173/173
f 173/173/173 181/181/181 179/179/179
f 69/69/69 70/70/70 175/175/175
f 175/175/175 70/70/70 181/181/181
f 123/123/123 65/65/65 69/69/69
f 70/70/70 69/69/69 65/65/65
f 123/123/123 122/122/122 119/119/119
f 119/119/119 122/122/122 118/118/118
f 123/123/123 141/141/141 65/65/65
f 119/119/119 141/141/141 123/123/123
f 119/119/119 118/118/118 116/116/116
f 116/116/116 118/118/118 115/115/115
f 116/116/116 115/115/115 52/52/52
f 119/119/119 143/143/143 141/141/141
f 116/116/116 143/143/143 119/119/119
f 52/52/52 57/57/57 116/116/116
f 116/116/116 57/57/57 143/143/143
f 57/57/57 52/52/52 48/48/48
f 143/143/143 142/142/142 141/141/141
f 55/55/55 57/57/57 48/48/48
f 55/55/55 48/48/48 45/45/45
f 57/57/57 58/58/58 143/143/143
f 58/58/58 57/57/57 55/55/55
f 143/143/143 58/58/58 142/142/142
f 54/54/54 55/55/55 45/45/45
f 54/54/54 45/45/45 43/43/43
f 56/56/56 58/58/58 55/55/55
f 56/56/56 55/55/55 54/54/54
f 2/2/2 43/43/43 53/53/53
f 2/2/2 54/54/54 43/43/43
f 59/59/59 58/58/58 56/56/56
f 58/58/58 59/59/59 142/142/142
f 4/4/4 56/56/56 54/54/54
f 4/4/4 54/54/54 2/2/2
f 7/7/7 59/59/59 56/56/56
f 7/7/7 56/56/56 4/4/4
f 142/142/142 59/59/59 60/60/60
f 141/141/141 142/142/142 62/62/62
f 142/142/142 60/60/60 62/62/62
f 141/141/141 62/62/62 65/65/65
f 59/59/59 11/11/11 60/60/60
f 11/11/11 59/59/59 7/7/7
f 66/66/66 65/65/65 62/62/62
f 66/66/66 70/70/70 65/65/65
f 63/63/63 62/62/62 60/60/60
f 63/63/63 66/66/66 62/62/62
f 61/61/61 60/60/60 11/11/11
f 61/61/61 63/63/63 60/60/60
f 12/12/12 11/11/11 7/7/7
f 11/11/11 12/12/12 61/61/61
f 8/8/8 7/7/7 4/4/4
f 8/8/8 12/12/12 7/7/7
f 5/5/5 4/4/4 2/2/2
f 5/5/5 8/8/8 4/4/4
f 3/3/3 2/2/2 1/1/1
f 3/3/3 5/5/5 2/2/2
f 13/13/13 12/12/12 8/8/8
f 9/9/9 8/8/8 5/5/5
f 9/9/9 13/13/13 8/8/8
f 61/61/61 12/12/12 129/129/129
f 12/12/12 13/13/13 129/129/129
f 64/64/64 63/63/63 61/61/61
f 61/61/61 129/129/129 64/64/64
f 67/67/67 66/66/66 63/63/63
f 64/64/64 67/67/67 63/63/63
f 71/71/71 70/70/70 66/66/66
f 67/67/67 71/71/71 66/66/66
f 70/70/70 71/71/71 181/181/181
f 68/68/68 67/67/67 64/64/64
f 181/181/181 71/71/71 180/180/180
f 181/181/181 180/180/180 179/179/179
f 72/72/72 71/71/71 67/67/67
f 71/71/71 72/72/72 180/180/180
f 68/68/68 72/72/72 67/67/67
f 179/179/179 180/180/180 149/149/149
f 179/179/179 149/149/149 146/146/146
f 180/180/180 72/72/72 153/153/153
f 180/180/180 153/153/153 149/149/149
f 73/73/73 72/72/72 68/68/68
f 72/72/72 73/73/73 153/153/153
f 64/64/64 127/127/127 68/68/68
f 64/64/64 129/129/129 127/127/127
f 68/68/68 79/79/79 73/73/73
f 68/68/68 127/127/127 79/79/79
f 73/73/73 83/83/83 153/153/153
f 83/83/83 73/73/73 79/79/79
f 129/129/129 128/128/128 127/127/127
f 129/129/129 13/13/13 128/128/128
f 127/127/127 76/76/76 79/79/79
f 127/127/127 128/128/128 76/76/76
f 80/80/80 83/83/83 79/79/79
f 80/80/80 79/79/79 76/76/76
f 13/13/13 14/14/14 128/128/128
f 14/14/14 13/13/13 9/9/9
f 128/128/128 74/74/74 76/76/76
f 128/128/128 14/14/14 74/74/74
f 77/77/77 80/80/80 76/76/76
f 77/77/77 76/76/76 74/74/74
f 10/10/10 14/14/14 9/9/9
f 14/14/14 15/15/15 74/74/74
f 15/15/15 14/14/14 10/10/10
f 75/75/75 77/77/77 74/74/74
f 75/75/75 74/74/74 15/15/15
f 10/10/10 9/9/9 6/6/6
f 6/6/6 9/9/9 5/5/5
f 6/6/6 5/5/5 3/3/3
f 23/23/23 15/15/15 10/10/10
f 15/15/15 23/23/23 75/75/75
f 20/20/20 10/10/10 6/6/6
f 20/20/20 23/23/23 10/10/10
f 18/18/18 6/6/6 3/3/3
f 18/18/18 20/20/20 6/6/6
f 17/17/17 3/3/3 16/16/16
f 17/17/17 18/18/18 3/3/3
f 19/19/19 18/18/18 17/17/17
f 21/21/21 20/20/20 18/18/18
f 19/19/19 21/21/21 18/18/18
f 24/24/24 23/23/23 20/20/20
f 21/21/21 24/24/24 20/20/20
f 75/75/75 23/23/23 132/132/132
f 23/23/23 24/24/24 132/132/132
f 22/22/22 21/21/21 19/19/19
f 33/33/33 22/22/22 19/19/19
f 33/33/33 37/37/37 22/22/22
f 25/25/25 24/24/24 21/21/21
f 22/22/22 25/25/25 21/21/21
f 37/37/37 26/26/26 22/22/22
f 26/26/26 25/25/25 22/22/22
f 26/26/26 37/37/37 88/88/88
f 88/88/88 37/37/37 137/137/137
f 88/88/88 137/137/137 91/91/91
f 25/25/25 26/26/26 87/87/87
f 88/88/88 87/87/87 26/26/26
f 24/24/24 25/25/25 131/131/131
f 131/131/131 25/25/25 87/87/87
f 132/132/132 24/24/24 131/131/131
f 88/88/88 90/90/90 87/87/87
f 91/91/91 90/90/90 88/88/88
f 131/131/131 87/87/87 89/89/89
f 90/90/90 89/89/89 87/87/87
f 132/132/132 131/131/131 130/130/130
f 130/130/130 131/131/131 89/89/89
f 75/75/75 132/132/132 78/78/78
f 78/78/78 132/132/132 130/130/130
f 78/78/78 77/77/77 75/75/75
f 91/91/91 94/94/94 90/90/90
f 95/95/95 94/94/94 91/91/91
f 95/95/95 98/98/98 94/94/94
f 78/78/78 81/81/81 77/77/77
f 81/81/81 80/80/80 77/77/77
f 98/98/98 97/97/97 94/94/94
f 97/97/97 98/98/98 162/162/162
f 94/94/94 93/93/93 90/90/90
f 94/94/94 97/97/97 93/93/93
f 90/90/90 93/93/93 89/89/89
f 163/163/163 97/97/97 162/162/162
f 163/163/163 162/162/162 159/159/159
f 97/97/97 96/96/96 93/93/93
f 96/96/96 97/97/97 163/163/163
f 93/93/93 92/92/92 89/89/89
f 93/93/93 96/96/96 92/92/92
f 130/130/130 89/89/89 92/92/92
f 147/147/147 163/163/163 159/159/159
f 147/147/147 159/159/159 145/145/145
f 150/150/150 96/96/96 163/163/163
f 150/150/150 163/163/163 147/147/147
f 96/96/96 86/86/86 92/92/92
f 86/86/86 96/96/96 150/150/150
f 82/82/82 130/130/130 92/92/92
f 82/82/82 92/92/92 86/86/86
f 78/78/78 130/130/130 82/82/82
f 82/82/82 81/81/81 78/78/78
f 86/86/86 85/85/85 82/82/82
f 82/82/82 85/85/85 81/81/81
f 85/85/85 86/86/86 150/150/150
f 81/81/81 84/84/84 80/80/80
f 85/85/85 84/84/84 81/81/81
f 84/84/84 83/83/83 80/80/80
f 151/151/151 85/85/85 150/150/150
f 84/84/84 85/85/85 151/151/151
f 151/151/151 150/150/150 147/147/147
f 83/83/83 84/84/84 152/152/152
f 152/152/152 84/84/84 151/151/151
f 153/153/153 83/83/83 152/152/152
f 153/153/153 152/152/152 149/149/149
f 148/148/148 151/151/151 147/147/147
f 152/152/152 151/151/151 148/148/148
f 149/149/149 152/152/152 148/148/148
f 148/148/148 147/147/147 145/145/145
f 149/149/149 148/148/148 146/146/146
f 146/146/146 148/148/148 145/145/145
f 146/146/146 145/145/145 144/144/144
