# VPXTOOL table OBJ file
# VPXTOOL OBJ file
# numVerts: 242 numFaces: 416
o VRRightFlip
v 10.079779 21.158073 -15.761265
v 10.074655 21.15468 -15.754454
v 10.079779 21.201427 -15.744724
v 10.079779 21.280222 -16.2093
v 10.074655 21.280752 -16.216877
v 10.079779 21.233824 -16.207985
v 10.074655 21.021313 -15.942293
v 10.065061 21.01522 -15.941057
v 10.074655 21.031984 -15.895601
v 10.074655 21.114119 -15.779925
v 10.065061 21.110678 -15.774752
v 10.065061 21.01374 -15.990154
v 9.897986 21.01416 -15.941391
v 10.065061 21.29577 -15.72465
v 10.074655 21.294535 -15.730739
v 10.065061 21.246674 -15.723166
v 10.065061 21.501154 -16.053062
v 10.065061 21.512178 -16.0052
v 9.897986 21.502249 -16.052946
v 10.065061 21.280725 -16.223091
v 10.065061 21.329319 -16.21382
v 9.897986 21.281252 -16.22407
v 10.074655 21.507452 -15.956089
v 10.065061 21.513662 -15.956112
v 10.074655 21.506092 -16.003963
v 10.079779 21.29358 -15.738281
v 10.079779 21.24719 -15.736966
v 10.079779 21.108389 -16.151808
v 10.074655 21.103394 -16.157541
v 10.079779 21.076513 -16.118073
v 10.074655 21.495424 -16.050665
v 10.079779 21.035297 -16.0354
v 10.079779 21.051826 -16.07877
v 10.074655 21.027966 -16.037397
v 10.079779 21.039188 -15.898013
v 10.079779 21.028856 -15.943249
v 10.065061 21.231628 -16.221605
v 10.074655 21.232866 -16.215519
v 9.897986 21.513239 -16.004875
v 10.065061 21.416727 -16.171505
v 10.074655 21.413296 -16.16633
v 10.065061 21.452494 -16.137838
v 9.897986 21.417704 -16.172024
v 10.065061 21.065325 -16.126152
v 10.065061 21.09899 -16.16192
v 9.897986 21.064804 -16.127132
v 10.065061 21.488123 -15.861743
v 10.074655 21.482376 -15.864106
v 10.065061 21.462078 -15.820106
v 10.079779 21.338825 -15.748625
v 10.074655 21.341228 -15.741409
v 10.074655 21.142458 -16.185268
v 10.079779 21.475573 -15.867497
v 10.079779 21.4509 -15.828194
v 10.079779 21.085035 -15.817814
v 10.079779 21.058165 -15.855657
v 10.074655 21.079288 -15.81283
v 10.065061 21.375086 -16.19755
v 10.074655 21.372723 -16.191803
v 10.074655 21.051561 -15.851877
v 10.065061 21.046412 -15.848415
v 10.065061 21.505539 -15.907666
v 9.897986 21.514643 -15.955585
v 10.065061 21.138987 -16.190418
v 9.897986 21.098675 -16.162977
v 10.065061 21.480993 -16.09785
v 9.897986 21.482094 -16.097954
v 10.065061 21.184542 -16.209719
v 9.897986 21.183884 -16.211676
v 10.065061 21.388426 -15.755837
v 10.065061 21.342857 -15.736547
v 9.897986 21.388523 -15.754735
v 10.074655 21.327969 -16.208866
v 10.079779 21.369345 -16.185001
v 10.079779 21.325975 -16.20154
v 10.079779 21.02754 -15.989647
v 10.074655 21.070503 -16.122725
v 10.074655 21.045029 -16.08216
v 10.074655 21.384954 -15.760986
v 10.065061 21.074919 -15.808417
v 9.897986 21.073864 -15.808104
v 10.065061 21.19808 -15.732437
v 10.065061 21.152313 -15.748716
v 9.897986 21.197533 -15.730445
v 9.897986 21.24616 -15.722197
v 10.065061 21.428411 -15.784346
v 9.897986 21.4626 -15.819134
v 9.897986 21.138876 -16.19152
v 10.065061 21.021864 -16.03859
v 9.897986 21.01277 -15.990681
v 10.065061 21.039278 -16.084515
v 9.897986 21.021008 -16.039297
v 10.074655 21.456905 -15.823533
v 10.079779 21.118769 -15.785942
v 10.079779 21.498556 -16.003006
v 10.079779 21.499872 -15.956617
v 10.074655 21.49944 -15.90886
v 10.079779 21.492115 -15.910855
v 10.079779 21.442373 -16.128452
v 10.079779 21.469248 -16.090609
v 10.074655 21.44811 -16.133436
v 9.897986 21.15146 -15.74801
v 10.074655 21.199432 -15.737389
v 10.074655 21.186176 -16.204847
v 10.079779 21.408648 -16.160324
v 10.074655 21.24666 -15.729379
v 10.079779 21.188587 -16.197641
v 9.897986 21.488821 -15.860888
v 9.897986 21.295448 -15.723598
v 10.074655 21.424007 -15.788725
v 9.897986 21.428738 -15.783288
v 10.065061 21.02625 -15.893205
v 9.897986 21.045311 -15.848312
v 9.897986 21.453548 -16.138163
v 10.074655 21.475843 -16.09438
v 10.079779 21.488214 -16.048252
v 10.079779 21.381182 -15.767591
v 9.897986 21.109695 -15.774233
v 10.074655 21.01995 -15.990177
v 9.897986 21.025156 -15.893311
v 10.079779 21.14623 -16.178675
v 9.897986 21.231955 -16.222668
v 10.079779 21.419016 -15.794459
v 9.897986 21.375938 -16.198246
v 9.897986 21.038584 -16.08537
v 9.897986 21.506397 -15.90697
v 9.897986 21.329872 -16.215822
v 9.897986 21.343517 -15.734581
v 10.079779 21.164585 -15.774325
v 10.079779 21.127705 -15.797482
v 10.079779 21.096046 -15.827388
v 10.079779 21.291739 -15.75276
v 10.079779 21.478033 -15.914695
v 10.079779 21.153471 -16.166004
v 10.079779 21.04938 -16.03156
v 10.079779 21.064892 -16.072256
v 10.079779 21.431356 -16.118877
v 10.079779 21.042099 -15.98863
v 10.079779 21.439356 -15.837129
v 10.079779 21.193216 -16.1838
v 10.079779 21.36283 -16.17194
v 10.079779 21.399708 -16.148785
v 10.079779 21.373941 -15.780262
v 10.079779 21.334196 -15.762465
v 10.079779 21.24821 -15.751525
v 10.079779 21.205267 -15.758805
v 10.079779 21.053028 -15.902644
v 10.079779 21.279202 -16.19474
v 10.079779 21.322132 -16.187462
v 10.079779 21.409443 -15.805474
v 10.079779 21.043331 -15.945091
v 10.079779 21.088057 -16.109137
v 10.079779 21.484081 -16.001163
v 10.079779 21.456575 -16.083368
v 10.079779 21.474371 -16.043623
v 10.079779 21.235666 -16.193506
v 10.079779 21.070833 -15.862898
v 10.067932 21.427248 -15.993937
v 10.079779 21.485313 -15.957636
v 10.067932 21.116163 -16.046694
v 10.067932 21.162777 -15.84278
v 10.067932 21.139282 -15.864974
v 10.067932 21.422762 -15.929765
v 10.067932 21.107359 -15.920822
v 10.079779 21.462511 -15.87401
v 10.067932 21.120575 -15.891326
v 10.067932 21.100164 -15.952324
v 10.067932 21.394058 -15.872203
v 10.067932 21.345512 -15.830001
v 10.067932 21.099249 -15.984632
v 10.067932 21.104652 -16.016493
v 10.067932 21.364635 -16.103485
v 10.067932 21.371857 -15.848711
v 10.067932 21.337267 -16.12067
v 10.067932 21.307066 -16.132187
v 10.079779 21.117966 -16.140793
v 10.067932 21.1819 -16.116264
v 10.067932 21.211393 -16.129473
v 10.067932 21.242893 -16.136675
v 10.067932 21.155546 -16.097555
v 10.067932 21.275204 -16.13759
v 10.067932 21.316015 -15.816793
v 10.067932 21.252209 -15.808675
v 10.067932 21.220339 -15.814078
v 10.067932 21.406837 -16.05494
v 10.067932 21.190147 -15.825596
v 10.067932 21.411242 -15.899573
v 10.059711 21.360027 -15.898552
v 10.059711 21.324152 -15.867369
v 10.059711 21.142185 -15.98163
v 10.059711 21.146173 -16.005173
v 10.059711 21.338287 -16.069454
v 10.067932 21.38812 -16.081291
v 10.059711 21.343622 -15.881194
v 10.059711 21.31806 -16.082153
v 10.059711 21.295744 -16.090664
v 10.059711 21.203257 -16.078897
v 10.059711 21.225052 -16.088655
v 10.059711 21.248325 -16.093979
v 10.067932 21.13335 -16.074062
v 10.059711 21.18378 -16.065073
v 10.059711 21.272205 -16.094656
v 10.067932 21.284508 -15.809591
v 10.059711 21.279074 -15.852287
v 10.059711 21.255207 -15.85161
v 10.067932 21.420044 -16.025444
v 10.059711 21.384552 -15.988504
v 10.059711 21.231659 -15.855603
v 10.059711 21.369473 -16.033583
v 10.059711 21.15468 -16.027489
v 10.059711 21.209349 -15.864113
v 10.067932 21.42816 -15.961632
v 10.059711 21.189127 -15.876811
v 10.059711 21.171766 -15.893211
v 10.059711 21.381235 -15.941088
v 10.059711 21.148174 -15.934479
v 10.059711 21.15794 -15.912683
v 10.059711 21.14286 -15.957756
v 10.051416 21.263697 -15.973133
v 10.051416 21.263697 -15.973133
v 10.059711 21.167385 -16.047712
v 10.051416 21.263697 -15.973133
v 10.051416 21.263697 -15.973133
v 10.059711 21.302357 -15.85761
v 10.051416 21.263697 -15.973133
v 10.051416 21.263697 -15.973133
v 10.059711 21.379229 -16.011787
v 10.051416 21.263697 -15.973133
v 10.051416 21.263697 -15.973133
v 10.051416 21.263697 -15.973133
v 10.059711 21.355637 -16.053055
v 10.051416 21.263697 -15.973133
v 10.051416 21.263697 -15.973133
v 10.059711 21.385223 -15.964636
v 10.051416 21.263697 -15.973133
v 10.051416 21.263697 -15.973133
v 10.051416 21.263697 -15.973133
v 10.051416 21.263697 -15.973133
v 10.051416 21.263697 -15.973133
v 10.051416 21.263697 -15.973133
v 10.059711 21.372723 -15.918777
v 10.051416 21.263697 -15.973133
vt 0.989771 0.065245986
vt 0.961884 0.05128801
vt 0.989771 0.038468003
vt 0.989772 0.970574021
vt 0.961884 0.985682011
vt 0.989772 0.961531997
vt 0.961884 0.405248
vt 0.907427 0.403068
vt 0.961884 0.31413698
vt 0.961884 0.09617001
vt 0.907434 0.086881995
vt 0.907428 0.5
vt 0 0.40245497
vt 0.907419 0.012692988
vt 0.961884 0.02364999
vt 0.90742 0.0031459928
vt 0.90743 0.69013798
vt 0.907428 0.59693098
vt 0.000001 0.691342
vt 0.907421 0.9968540072
vt 0.920534 0.98635298
vt 0.000001 1
vt 0.961884 0.5
vt 0.907429 0.5
vt 0.961884 0.594752
vt 0.989771 0.038468003
vt 0.989771 0.029425979
vt 0.989772 0.83274603
vt 0.961884 0.84342903
vt 0.989771 0.761437
vt 0.961884 0.68586302
vt 0.989771 0.59180403
vt 0.989771 0.680081
vt 0.961884 0.594752
vt 0.989771 0.319919
vt 0.989771 0.40819597
vt 0.90742 0.987307012
vt 0.961884 0.97635001
vt 0 0.59754503
vt 0.907435 0.913118005
vt 0.961884 0.90382999
vt 0.907426 0.85132903
vt 0.000001 0.91573501
vt 0.907426 0.77603698
vt 0.907425 0.85132903
vt 0 0.777785
vt 0.907429 0.30986297
vt 0.961884 0.31413698
vt 0.907432 0.22396302
vt 0.989771 0.065245986
vt 0.961884 0.05128801
vt 0.961884 0.90382999
vt 0.989771 0.319919
vt 0.989771 0.238563
vt 0.989771 0.16725397
vt 0.989771 0.238563
vt 0.961884 0.15657103
vt 0.907421 0.959033012
vt 0.961884 0.94871199
vt 0.961884 0.230169
vt 0.907425 0.22396302
vt 0.907428 0.403068
vt 0 0.5
vt 0.907436 0.913118005
vt 0.000001 0.853553
vt 0.907427 0.77603698
vt 0.000001 0.777785
vt 0.920534 0.958133996
vt 0.000001 0.96193999
vt 0.907435 0.086881995
vt 0.920533 0.04186499
vt 0 0.08426499
vt 0.961884 0.97635001
vt 0.989772 0.934754014
vt 0.989772 0.961531997
vt 0.989771 0.5
vt 0.961884 0.769831
vt 0.961884 0.68586302
vt 0.961884 0.09617001
vt 0.907424 0.14867103
vt 0 0.146447
vt 0.920533 0.01364702
vt 0.90742 0.040965974
vt -0 0.009607017
vt -0 0
vt 0.907426 0.14867198
vt 0 0.222215
vt 0.000001 0.91573501
vt 0.907428 0.59693098
vt 0 0.5
vt 0.90743 0.69013703
vt 0 0.59754503
vt 0.961884 0.230169
vt 0.989771 0.108731985
vt 0.989772 0.59180403
vt 0.989771 0.5
vt 0.961884 0.405248
vt 0.989771 0.40819502
vt 0.989772 0.83274603
vt 0.989772 0.761437
vt 0.961884 0.84342903
vt 0 0.03806001
vt 0.961884 0.02364999
vt 0.961884 0.94871199
vt 0.989772 0.891268015
vt 0.961884 0.014317989
vt 0.989772 0.934754014
vt 0 0.308658
vt -0 0.009607017
vt 0.961884 0.15657103
vt 0 0.146447
vt 0.907429 0.30986202
vt 0 0.222215
vt 0.000001 0.85355401
vt 0.961884 0.769831
vt 0.989772 0.680081
vt 0.989771 0.108731985
vt 0 0.08426499
vt 0.961884 0.5
vt 0 0.308658
vt 0.989772 0.891268015
vt 0.000001 0.990392983
vt 0.989771 0.16725397
vt 0.000001 0.96193999
vt 0 0.691342
vt 0 0.40245497
vt 0.000001 0.990392983
vt 0 0.03806001
vt 0.989771 0.065245986
vt 0.989771 0.108731985
vt 0.989771 0.16725397
vt 0.989771 0.038468003
vt 0.989771 0.40819502
vt 0.989772 0.891268015
vt 0.989771 0.59180403
vt 0.989771 0.680081
vt 0.989772 0.83274603
vt 0.989771 0.5
vt 0.989771 0.238563
vt 0.989772 0.934754014
vt 0.989772 0.934754014
vt 0.989772 0.891268015
vt 0.989771 0.108731985
vt 0.989771 0.065245986
vt 0.989771 0.029425979
vt 0.989771 0.038468003
vt 0.989771 0.319919
vt 0.989772 0.970574021
vt 0.989772 0.961531997
vt 0.989771 0.16725397
vt 0.989771 0.40819597
vt 0.989771 0.761437
vt 0.989772 0.59180403
vt 0.989772 0.761437
vt 0.989772 0.680081
vt 0.989772 0.961531997
vt 0.989771 0.238563
vt 0.989772 0.59180403
vt 0.989771 0.5
vt 0.989771 0.680081
vt 0.989771 0.108731985
vt 0.989771 0.16725397
vt 0.989771 0.40819502
vt 0.989771 0.319919
vt 0.989771 0.319919
vt 0.989771 0.238563
vt 0.989771 0.40819597
vt 0.989771 0.238563
vt 0.989771 0.108731985
vt 0.989771 0.5
vt 0.989771 0.59180403
vt 0.989772 0.891268015
vt 0.989771 0.16725397
vt 0.989772 0.934754014
vt 0.989772 0.961531997
vt 0.989772 0.83274603
vt 0.989772 0.891268015
vt 0.989772 0.934754014
vt 0.989772 0.961531997
vt 0.989772 0.83274603
vt 0.989772 0.970574021
vt 0.989771 0.065245986
vt 0.989771 0.029425979
vt 0.989771 0.038468003
vt 0.989772 0.761437
vt 0.989771 0.065245986
vt 0.989771 0.319919
vt 0.989771 0.238563
vt 0.989771 0.108731985
vt 0.989771 0.5
vt 0.989771 0.59180403
vt 0.989772 0.891268015
vt 0.989772 0.83274603
vt 0.989771 0.16725397
vt 0.989772 0.934754014
vt 0.989772 0.961531997
vt 0.989772 0.891268015
vt 0.989772 0.934754014
vt 0.989772 0.961531997
vt 0.989771 0.761437
vt 0.989772 0.83274603
vt 0.989772 0.970574021
vt 0.989771 0.038468003
vt 0.989771 0.038468003
vt 0.989771 0.029425979
vt 0.989772 0.680081
vt 0.989772 0.59180403
vt 0.989771 0.038468003
vt 0.989772 0.761437
vt 0.989771 0.680081
vt 0.989771 0.065245986
vt 0.989771 0.5
vt 0.989771 0.108731985
vt 0.989771 0.16725397
vt 0.989771 0.40819502
vt 0.989771 0.319919
vt 0.989771 0.238563
vt 0.989771 0.40819597
vt 0.989772 0.934754014
vt 0.989772 0.891268015
vt 0.989771 0.761437
vt 0.989772 0.83274603
vt 0.989772 0.970574021
vt 0.989771 0.065245986
vt 0.989771 0.038468003
vt 0.989771 0.029425979
vt 0.989772 0.680081
vt 0.989772 0.59180403
vt 0.989771 0.065245986
vt 0.989772 0.761437
vt 0.989772 0.83274603
vt 0.989771 0.59180403
vt 0.989771 0.5
vt 0.989771 0.5
vt 0.989771 0.680081
vt 0.989771 0.108731985
vt 0.989771 0.40819502
vt 0.989771 0.16725397
vt 0.989771 0.40819597
vt 0.989771 0.319919
vt 0.989771 0.319919
vt 0.989771 0.238563
vn 0.9512 -0.1377 0.2761
vn 0.6941 -0.3219 0.6439
vn 0.9512 -0.0812 0.2978
vn 0.9511 0.0216 -0.3082
vn 0.6916 0.0558 -0.7201
vn 0.9511 -0.039 -0.3065
vn 0.6942 -0.7141 0.09
vn 0.281 -0.9517 0.1235
vn 0.694 -0.683 0.2277
vn 0.6941 -0.4413 0.5687
vn 0.281 -0.5857 0.7603
vn 0.2809 -0.9576 -0.0645
vn 0.0058 -0.992 0.1262
vn 0.2791 0.1288 0.9516
vn 0.6941 0.09 0.7143
vn 0.2803 -0.075 0.957
vn 0.2809 0.9094 -0.3068
vn 0.2809 0.9518 -0.1235
vn 0.0058 0.9483 -0.3173
vn 0.2803 0.0749 -0.957
vn 0.248 0.2492 -0.9362
vn 0.0086 0.0718 -0.9974
vn 0.6939 0.7182 0.051
vn 0.2809 0.9576 0.0645
vn 0.6939 0.7144 -0.09
vn 0.9511 0.039 0.3063
vn 0.9512 -0.0215 0.3079
vn 0.9512 -0.2025 -0.233
vn 0.6941 -0.4717 -0.5438
vn 0.9511 -0.2441 -0.189
vn 0.694 0.6831 -0.2277
vn 0.9511 -0.298 -0.0812
vn 0.9511 -0.2764 -0.1378
vn 0.6941 -0.6943 -0.1901
vn 0.9511 -0.2929 0.098
vn 0.9512 -0.3062 0.039
vn 0.2791 -0.1287 -0.9516
vn 0.6939 -0.0901 -0.7144
vn 0.0058 0.992 -0.1263
vn 0.2808 0.5856 -0.7604
vn 0.6938 0.4415 -0.5689
vn 0.2809 0.7227 -0.6314
vn 0.0058 0.6122 -0.7907
vn 0.2808 -0.7604 -0.5857
vn 0.2809 -0.6314 -0.7228
vn 0.0058 -0.7907 -0.6122
vn 0.281 0.8599 0.4261
vn 0.6941 0.6439 0.3219
vn 0.2807 0.7604 0.5857
vn 0.9512 0.0979 0.2926
vn 0.665 0.2414 0.7067
vn 0.6917 -0.3537 -0.6297
vn 0.9511 0.2763 0.1378
vn 0.9512 0.2441 0.189
vn 0.9512 -0.2329 0.2025
vn 0.9512 -0.2679 0.1531
vn 0.694 -0.5439 0.4717
vn 0.2792 0.4216 -0.8627
vn 0.6939 0.322 -0.644
vn 0.694 -0.6254 0.3566
vn 0.2807 -0.8321 0.4784
vn 0.2811 0.9265 0.2501
vn 0.0058 0.9975 0.0697
vn 0.2802 -0.4694 -0.8374
vn 0.0058 -0.656 -0.7547
vn 0.2809 0.832 -0.4784
vn 0.0058 0.8682 -0.4962
vn 0.2481 -0.3129 -0.9168
vn 0.0097 -0.3192 -0.9476
vn 0.2803 0.4694 0.8373
vn 0.2477 0.3129 0.9169
vn 0.0085 0.4944 0.8692
vn 0.665 0.1918 -0.7218
vn 0.9511 0.1379 -0.2765
vn 0.951 0.0813 -0.2982
vn 0.9512 -0.3078 -0.0215
vn 0.6939 -0.5689 -0.4415
vn 0.694 -0.644 -0.322
vn 0.6919 0.3536 0.6295
vn 0.2808 -0.7227 0.6315
vn 0.0058 -0.7548 0.656
vn 0.2479 -0.2492 0.9362
vn 0.279 -0.4217 0.8628
vn 0.0097 -0.261 0.9653
vn 0.0085 -0.0718 0.9974
vn 0.2809 0.6315 0.7227
vn 0.0058 0.7907 0.6122
vn 0.0085 -0.4944 -0.8692
vn 0.2811 -0.9265 -0.2501
vn 0.0058 -0.9975 -0.0698
vn 0.281 -0.8599 -0.4261
vn 0.0058 -0.9648 -0.263
vn 0.6939 0.5689 0.4415
vn 0.9512 -0.189 0.2441
vn 0.9511 0.3064 -0.039
vn 0.9511 0.3081 0.0215
vn 0.6939 0.6945 0.1901
vn 0.951 0.2982 0.0813
vn 0.9511 0.233 -0.2026
vn 0.9511 0.2682 -0.1533
vn 0.694 0.5439 -0.4718
vn 0.0058 -0.4461 0.8949
vn 0.6651 -0.1918 0.7216
vn 0.6652 -0.2414 -0.7066
vn 0.9511 0.1891 -0.2442
vn 0.6919 -0.0557 0.7198
vn 0.9511 -0.098 -0.2929
vn 0.0058 0.8949 0.4462
vn 0.0058 0.1262 0.992
vn 0.694 0.4717 0.5439
vn 0.0058 0.6561 0.7547
vn 0.281 -0.9094 0.3068
vn 0.0058 -0.8682 0.4963
vn 0.0058 0.7547 -0.6561
vn 0.6939 0.6255 -0.3567
vn 0.9511 0.2928 -0.0979
vn 0.9512 0.1531 0.2679
vn 0.0058 -0.6123 0.7906
vn 0.6941 -0.718 -0.051
vn 0.0058 -0.9483 0.3174
vn 0.9511 -0.1532 -0.2682
vn 0.0058 -0.1263 -0.992
vn 0.9512 0.2025 0.233
vn 0.0058 0.4463 -0.8949
vn 0.0058 -0.8949 -0.4462
vn 0.0058 0.9648 0.2631
vn 0.0097 0.2611 -0.9653
vn 0.0097 0.3192 0.9476
vn 0.9954 0.0426 -0.0854
vn 0.9954 0.0585 -0.0755
vn 0.9954 0.072 -0.0626
vn 0.9954 -0.012 -0.0947
vn 0.9954 -0.0921 -0.0251
vn 0.9954 0.0474 0.0829
vn 0.9954 0.0921 0.0251
vn 0.9954 0.0854 0.0426
vn 0.9954 -0.0721 0.0626
vn 0.9954 0.0952 0.0067
vn 0.9954 -0.0755 -0.0584
vn 0.9954 0.0303 0.0905
vn 0.9954 -0.0426 0.0854
vn 0.9954 -0.0585 0.0755
vn 0.9954 -0.0474 -0.0829
vn 0.9954 -0.0303 -0.0905
vn 0.9954 0.0067 -0.0952
vn 0.9954 0.0251 -0.0921
vn 0.9954 0.0905 -0.0303
vn 0.9954 -0.0067 0.0952
vn 0.9954 -0.0251 0.0921
vn 0.9954 -0.0626 -0.0721
vn 0.9954 0.0947 -0.012
vn 0.9954 0.0755 0.0585
vn 0.9954 -0.0947 0.0121
vn 0.9954 -0.0829 0.0474
vn 0.9954 -0.0905 0.0303
vn 0.9954 0.0121 0.0947
vn 0.9954 0.0829 -0.0474
vn 0.9807 -0.194 0.0247
vn 0.9954 -0.0952 -0.0067
vn 0.9807 0.175 0.0872
vn 0.9807 0.1197 -0.1546
vn 0.9807 0.1475 -0.1283
vn 0.9807 -0.1886 -0.0514
vn 0.9807 0.1854 -0.062
vn 0.9954 -0.0854 -0.0426
vn 0.9807 0.1697 -0.097
vn 0.9807 0.194 -0.0247
vn 0.9807 -0.1546 -0.1197
vn 0.9807 -0.097 -0.1697
vn 0.9807 0.195 0.0136
vn 0.9807 0.1886 0.0514
vn 0.9807 -0.1197 0.1546
vn 0.9807 -0.1283 -0.1476
vn 0.9807 -0.0872 0.175
vn 0.9807 -0.0514 0.1886
vn 0.9954 0.0626 0.0721
vn 0.9807 0.097 0.1698
vn 0.9807 0.062 0.1854
vn 0.9807 0.0247 0.1939
vn 0.9807 0.1283 0.1476
vn 0.9807 -0.0136 0.195
vn 0.9807 -0.062 -0.1854
vn 0.9807 0.0136 -0.195
vn 0.9807 0.0514 -0.1886
vn 0.9807 -0.1697 0.097
vn 0.9807 0.0872 -0.175
vn 0.9807 -0.175 -0.0872
vn 0.9913 -0.1042 -0.0806
vn 0.9913 -0.0654 -0.1144
vn 0.9913 0.1314 0.0092
vn 0.9913 0.1271 0.0346
vn 0.9913 -0.0806 0.1041
vn 0.9807 -0.1476 0.1283
vn 0.9913 -0.0864 -0.0994
vn 0.9913 -0.0588 0.1179
vn 0.9913 -0.0347 0.1271
vn 0.9913 0.0654 0.1144
vn 0.9913 0.0418 0.1249
vn 0.9913 0.0166 0.1307
vn 0.9807 0.1546 0.1197
vn 0.9913 0.0864 0.0994
vn 0.9913 -0.0092 0.1314
vn 0.9807 -0.0247 -0.194
vn 0.9913 -0.0166 -0.1307
vn 0.9913 0.0092 -0.1314
vn 0.9807 -0.1854 0.062
vn 0.9913 -0.1307 0.0166
vn 0.9913 0.0347 -0.1271
vn 0.9913 -0.1144 0.0654
vn 0.9913 0.1179 0.0588
vn 0.9913 0.0588 -0.1179
vn 0.9807 -0.195 -0.0136
vn 0.9913 0.0806 -0.1041
vn 0.9913 0.0994 -0.0864
vn 0.9913 -0.1271 -0.0346
vn 0.9913 0.1249 -0.0418
vn 0.9913 0.1144 -0.0654
vn 0.9913 0.1307 -0.0166
vn 1 -0 -0
vn 1 -0 -0
vn 0.9913 0.1041 0.0806
vn 1 -0 -0
vn 1 -0 -0
vn 0.9913 -0.0418 -0.1249
vn 1 -0 -0
vn 1 -0 -0
vn 0.9913 -0.1249 0.0418
vn 1 -0 -0
vn 1 -0 -0
vn 1 -0 -0
vn 0.9913 -0.0994 0.0864
vn 1 -0 -0
vn 1 -0 -0
vn 0.9913 -0.1314 -0.0092
vn 1 -0 -0
vn 1 -0 -0
vn 1 -0 -0
vn 1 -0 -0
vn 1 -0 -0
vn 1 -0 -0
vn 0.9913 -0.1179 -0.0588
vn 1 -0 -0
f 204/204/204 225/225/225 224/224/224
f 204/204/204 224/224/224 182/182/182
f 182/182/182 224/224/224 189/189/189
f 189/189/189 224/224/224 236/236/236
f 204/204/204 182/182/182 203/203/203
f 213/213/213 214/214/214 236/236/236
f 183/183/183 204/204/204 203/203/203
f 132/132/132 203/203/203 182/182/182
f 183/183/183 203/203/203 132/132/132
f 183/183/183 205/205/205 204/204/204
f 205/205/205 226/226/226 204/204/204
f 205/205/205 208/208/208 226/226/226
f 184/184/184 205/205/205 183/183/183
f 184/184/184 208/208/208 205/205/205
f 183/183/183 132/132/132 145/145/145
f 145/145/145 184/184/184 183/183/183
f 132/132/132 182/182/182 144/144/144
f 186/186/186 208/208/208 184/184/184
f 144/144/144 182/182/182 169/169/169
f 182/182/182 189/189/189 169/169/169
f 186/186/186 211/211/211 208/208/208
f 211/211/211 229/229/229 208/208/208
f 211/211/211 213/213/213 229/229/229
f 161/161/161 213/213/213 211/211/211
f 161/161/161 211/211/211 186/186/186
f 161/161/161 214/214/214 213/213/213
f 129/129/129 186/186/186 184/184/184
f 129/129/129 161/161/161 186/186/186
f 129/129/129 184/184/184 146/146/146
f 145/145/145 146/146/146 184/184/184
f 129/129/129 130/130/130 161/161/161
f 1/1/1 129/129/129 146/146/146
f 1/1/1 130/130/130 129/129/129
f 161/161/161 162/162/162 214/214/214
f 130/130/130 162/162/162 161/161/161
f 27/27/27 146/146/146 145/145/145
f 130/130/130 131/131/131 162/162/162
f 27/27/27 3/3/3 146/146/146
f 1/1/1 146/146/146 3/3/3
f 94/94/94 131/131/131 130/130/130
f 1/1/1 94/94/94 130/130/130
f 145/145/145 26/26/26 27/27/27
f 145/145/145 132/132/132 26/26/26
f 10/10/10 94/94/94 1/1/1
f 132/132/132 50/50/50 26/26/26
f 132/132/132 144/144/144 50/50/50
f 3/3/3 2/2/2 1/1/1
f 10/10/10 1/1/1 2/2/2
f 103/103/103 3/3/3 27/27/27
f 3/3/3 103/103/103 2/2/2
f 10/10/10 55/55/55 94/94/94
f 94/94/94 55/55/55 131/131/131
f 2/2/2 11/11/11 10/10/10
f 56/56/56 131/131/131 55/55/55
f 10/10/10 57/57/57 55/55/55
f 57/57/57 56/56/56 55/55/55
f 10/10/10 11/11/11 80/80/80
f 10/10/10 80/80/80 57/57/57
f 2/2/2 83/83/83 11/11/11
f 103/103/103 83/83/83 2/2/2
f 118/118/118 80/80/80 11/11/11
f 102/102/102 118/118/118 11/11/11
f 102/102/102 11/11/11 83/83/83
f 118/118/118 81/81/81 80/80/80
f 84/84/84 102/102/102 83/83/83
f 81/81/81 61/61/61 80/80/80
f 57/57/57 80/80/80 61/61/61
f 81/81/81 113/113/113 61/61/61
f 84/84/84 83/83/83 82/82/82
f 103/103/103 82/82/82 83/83/83
f 85/85/85 84/84/84 82/82/82
f 57/57/57 61/61/61 60/60/60
f 57/57/57 60/60/60 56/56/56
f 113/113/113 112/112/112 61/61/61
f 112/112/112 60/60/60 61/61/61
f 113/113/113 120/120/120 112/112/112
f 82/82/82 103/103/103 106/106/106
f 103/103/103 27/27/27 106/106/106
f 85/85/85 82/82/82 16/16/16
f 82/82/82 106/106/106 16/16/16
f 109/109/109 85/85/85 16/16/16
f 15/15/15 106/106/106 27/27/27
f 16/16/16 106/106/106 15/15/15
f 15/15/15 27/27/27 26/26/26
f 109/109/109 16/16/16 14/14/14
f 16/16/16 15/15/15 14/14/14
f 128/128/128 109/109/109 14/14/14
f 51/51/51 15/15/15 26/26/26
f 51/51/51 14/14/14 15/15/15
f 51/51/51 26/26/26 50/50/50
f 128/128/128 14/14/14 71/71/71
f 51/51/51 71/71/71 14/14/14
f 72/72/72 128/128/128 71/71/71
f 79/79/79 51/51/51 50/50/50
f 79/79/79 71/71/71 51/51/51
f 72/72/72 71/71/71 70/70/70
f 79/79/79 70/70/70 71/71/71
f 111/111/111 72/72/72 70/70/70
f 79/79/79 50/50/50 117/117/117
f 117/117/117 50/50/50 144/144/144
f 111/111/111 70/70/70 86/86/86
f 87/87/87 111/111/111 86/86/86
f 110/110/110 70/70/70 79/79/79
f 110/110/110 86/86/86 70/70/70
f 117/117/117 144/144/144 143/143/143
f 144/144/144 169/169/169 143/143/143
f 123/123/123 79/79/79 117/117/117
f 123/123/123 117/117/117 143/143/143
f 123/123/123 110/110/110 79/79/79
f 150/150/150 143/143/143 169/169/169
f 123/123/123 143/143/143 150/150/150
f 86/86/86 110/110/110 93/93/93
f 93/93/93 110/110/110 123/123/123
f 87/87/87 86/86/86 49/49/49
f 86/86/86 93/93/93 49/49/49
f 108/108/108 87/87/87 49/49/49
f 93/93/93 123/123/123 54/54/54
f 108/108/108 49/49/49 47/47/47
f 126/126/126 108/108/108 47/47/47
f 49/49/49 93/93/93 48/48/48
f 49/49/49 48/48/48 47/47/47
f 48/48/48 93/93/93 54/54/54
f 126/126/126 47/47/47 62/62/62
f 63/63/63 126/126/126 62/62/62
f 123/123/123 139/139/139 54/54/54
f 123/123/123 150/150/150 139/139/139
f 63/63/63 62/62/62 24/24/24
f 39/39/39 63/63/63 24/24/24
f 97/97/97 62/62/62 47/47/47
f 97/97/97 47/47/47 48/48/48
f 23/23/23 24/24/24 62/62/62
f 23/23/23 62/62/62 97/97/97
f 39/39/39 24/24/24 18/18/18
f 19/19/19 39/39/39 18/18/18
f 25/25/25 24/24/24 23/23/23
f 25/25/25 18/18/18 24/24/24
f 96/96/96 23/23/23 97/97/97
f 25/25/25 23/23/23 96/96/96
f 48/48/48 98/98/98 97/97/97
f 96/96/96 97/97/97 98/98/98
f 48/48/48 54/54/54 53/53/53
f 48/48/48 53/53/53 98/98/98
f 139/139/139 53/53/53 54/54/54
f 53/53/53 133/133/133 98/98/98
f 133/133/133 96/96/96 98/98/98
f 139/139/139 165/165/165 53/53/53
f 53/53/53 165/165/165 133/133/133
f 150/150/150 168/168/168 139/139/139
f 168/168/168 165/165/165 139/139/139
f 150/150/150 169/169/169 173/173/173
f 150/150/150 173/173/173 168/168/168
f 173/173/173 169/169/169 189/189/189
f 173/173/173 189/189/189 194/194/194
f 194/194/194 189/189/189 238/238/238
f 173/173/173 194/194/194 188/188/188
f 173/173/173 188/188/188 168/168/168
f 188/188/188 194/194/194 242/242/242
f 168/168/168 187/187/187 165/165/165
f 188/188/188 187/187/187 168/168/168
f 188/188/188 242/242/242 241/241/241
f 188/188/188 241/241/241 187/187/187
f 165/165/165 163/163/163 133/133/133
f 165/165/165 187/187/187 163/163/163
f 187/187/187 241/241/241 215/215/215
f 187/187/187 215/215/215 163/163/163
f 241/241/241 240/240/240 215/215/215
f 163/163/163 159/159/159 133/133/133
f 133/133/133 159/159/159 96/96/96
f 215/215/215 212/212/212 163/163/163
f 163/163/163 212/212/212 159/159/159
f 215/215/215 237/237/237 234/234/234
f 215/215/215 234/234/234 212/212/212
f 96/96/96 159/159/159 153/153/153
f 212/212/212 234/234/234 207/207/207
f 234/234/234 233/233/233 207/207/207
f 159/159/159 212/212/212 158/158/158
f 212/212/212 207/207/207 158/158/158
f 159/159/159 158/158/158 153/153/153
f 207/207/207 228/228/228 227/227/227
f 96/96/96 153/153/153 95/95/95
f 25/25/25 96/96/96 95/95/95
f 207/207/207 227/227/227 206/206/206
f 207/207/207 206/206/206 158/158/158
f 31/31/31 25/25/25 95/95/95
f 18/18/18 25/25/25 31/31/31
f 153/153/153 116/116/116 95/95/95
f 31/31/31 95/95/95 116/116/116
f 158/158/158 155/155/155 153/153/153
f 153/153/153 155/155/155 116/116/116
f 158/158/158 206/206/206 155/155/155
f 100/100/100 31/31/31 116/116/116
f 100/100/100 116/116/116 155/155/155
f 18/18/18 31/31/31 17/17/17
f 19/19/19 18/18/18 17/17/17
f 67/67/67 19/19/19 17/17/17
f 115/115/115 17/17/17 31/31/31
f 100/100/100 115/115/115 31/31/31
f 67/67/67 17/17/17 66/66/66
f 115/115/115 66/66/66 17/17/17
f 114/114/114 67/67/67 66/66/66
f 101/101/101 115/115/115 100/100/100
f 66/66/66 115/115/115 101/101/101
f 114/114/114 66/66/66 42/42/42
f 66/66/66 101/101/101 42/42/42
f 43/43/43 114/114/114 42/42/42
f 101/101/101 100/100/100 99/99/99
f 43/43/43 42/42/42 40/40/40
f 124/124/124 43/43/43 40/40/40
f 42/42/42 101/101/101 41/41/41
f 42/42/42 41/41/41 40/40/40
f 41/41/41 101/101/101 99/99/99
f 124/124/124 40/40/40 58/58/58
f 127/127/127 124/124/124 58/58/58
f 40/40/40 41/41/41 59/59/59
f 40/40/40 59/59/59 58/58/58
f 127/127/127 58/58/58 21/21/21
f 22/22/22 127/127/127 21/21/21
f 73/73/73 58/58/58 59/59/59
f 73/73/73 21/21/21 58/58/58
f 22/22/22 21/21/21 20/20/20
f 122/122/122 22/22/22 20/20/20
f 21/21/21 73/73/73 5/5/5
f 21/21/21 5/5/5 20/20/20
f 122/122/122 20/20/20 37/37/37
f 69/69/69 122/122/122 37/37/37
f 20/20/20 5/5/5 38/38/38
f 20/20/20 38/38/38 37/37/37
f 69/69/69 37/37/37 68/68/68
f 68/68/68 88/88/88 69/69/69
f 104/104/104 37/37/37 38/38/38
f 104/104/104 68/68/68 37/37/37
f 68/68/68 64/64/64 88/88/88
f 65/65/65 88/88/88 64/64/64
f 68/68/68 104/104/104 52/52/52
f 68/68/68 52/52/52 64/64/64
f 65/65/65 64/64/64 45/45/45
f 46/46/46 65/65/65 45/45/45
f 29/29/29 64/64/64 52/52/52
f 29/29/29 45/45/45 64/64/64
f 46/46/46 45/45/45 44/44/44
f 125/125/125 46/46/46 44/44/44
f 77/77/77 45/45/45 29/29/29
f 77/77/77 44/44/44 45/45/45
f 125/125/125 44/44/44 91/91/91
f 92/92/92 125/125/125 91/91/91
f 44/44/44 77/77/77 78/78/78
f 44/44/44 78/78/78 91/91/91
f 92/92/92 91/91/91 89/89/89
f 90/90/90 92/92/92 89/89/89
f 91/91/91 78/78/78 34/34/34
f 91/91/91 34/34/34 89/89/89
f 77/77/77 33/33/33 78/78/78
f 34/34/34 78/78/78 33/33/33
f 90/90/90 89/89/89 12/12/12
f 13/13/13 90/90/90 12/12/12
f 119/119/119 89/89/89 34/34/34
f 119/119/119 12/12/12 89/89/89
f 13/13/13 12/12/12 8/8/8
f 120/120/120 13/13/13 8/8/8
f 120/120/120 8/8/8 112/112/112
f 7/7/7 12/12/12 119/119/119
f 7/7/7 8/8/8 12/12/12
f 9/9/9 112/112/112 8/8/8
f 9/9/9 8/8/8 7/7/7
f 112/112/112 9/9/9 60/60/60
f 56/56/56 60/60/60 9/9/9
f 7/7/7 119/119/119 76/76/76
f 34/34/34 76/76/76 119/119/119
f 9/9/9 7/7/7 36/36/36
f 7/7/7 76/76/76 36/36/36
f 56/56/56 9/9/9 35/35/35
f 9/9/9 36/36/36 35/35/35
f 56/56/56 35/35/35 147/147/147
f 36/36/36 147/147/147 35/35/35
f 34/34/34 32/32/32 76/76/76
f 34/34/34 33/33/33 32/32/32
f 76/76/76 151/151/151 36/36/36
f 36/36/36 151/151/151 147/147/147
f 76/76/76 32/32/32 135/135/135
f 56/56/56 147/147/147 157/157/157
f 56/56/56 157/157/157 131/131/131
f 157/157/157 162/162/162 131/131/131
f 32/32/32 33/33/33 136/136/136
f 32/32/32 136/136/136 135/135/135
f 157/157/157 166/166/166 162/162/162
f 166/166/166 214/214/214 162/162/162
f 157/157/157 147/147/147 164/164/164
f 157/157/157 164/164/164 166/166/166
f 151/151/151 164/164/164 147/147/147
f 166/166/166 217/217/217 214/214/214
f 214/214/214 217/217/217 238/238/238
f 166/166/166 216/216/216 217/217/217
f 166/166/166 164/164/164 216/216/216
f 217/217/217 216/216/216 242/242/242
f 151/151/151 167/167/167 164/164/164
f 167/167/167 216/216/216 164/164/164
f 76/76/76 138/138/138 151/151/151
f 138/138/138 167/167/167 151/151/151
f 76/76/76 135/135/135 138/138/138
f 167/167/167 218/218/218 216/216/216
f 218/218/218 239/239/239 216/216/216
f 138/138/138 170/170/170 167/167/167
f 170/170/170 218/218/218 167/167/167
f 138/138/138 135/135/135 171/171/171
f 138/138/138 171/171/171 170/170/170
f 170/170/170 190/190/190 218/218/218
f 190/190/190 233/233/233 218/218/218
f 190/190/190 191/191/191 233/233/233
f 170/170/170 191/191/191 190/190/190
f 170/170/170 171/171/171 191/191/191
f 135/135/135 160/160/160 171/171/171
f 135/135/135 136/136/136 160/160/160
f 171/171/171 210/210/210 191/191/191
f 191/191/191 210/210/210 232/232/232
f 171/171/171 160/160/160 210/210/210
f 210/210/210 221/221/221 235/235/235
f 200/200/200 210/210/210 160/160/160
f 200/200/200 221/221/221 210/210/210
f 152/152/152 160/160/160 136/136/136
f 152/152/152 200/200/200 160/160/160
f 201/201/201 221/221/221 200/200/200
f 201/201/201 222/222/222 221/221/221
f 201/201/201 200/200/200 180/180/180
f 180/180/180 200/200/200 152/152/152
f 197/197/197 201/201/201 180/180/180
f 197/197/197 220/220/220 201/201/201
f 197/197/197 198/198/198 220/220/220
f 30/30/30 152/152/152 136/136/136
f 30/30/30 136/136/136 33/33/33
f 77/77/77 30/30/30 33/33/33
f 30/30/30 77/77/77 29/29/29
f 30/30/30 29/29/29 28/28/28
f 28/28/28 152/152/152 30/30/30
f 52/52/52 28/28/28 29/29/29
f 180/180/180 152/152/152 176/176/176
f 28/28/28 176/176/176 152/152/152
f 197/197/197 180/180/180 177/177/177
f 177/177/177 180/180/180 176/176/176
f 52/52/52 121/121/121 28/28/28
f 104/104/104 121/121/121 52/52/52
f 134/134/134 176/176/176 28/28/28
f 134/134/134 28/28/28 121/121/121
f 177/177/177 176/176/176 134/134/134
f 104/104/104 107/107/107 121/121/121
f 107/107/107 104/104/104 38/38/38
f 121/121/121 140/140/140 134/134/134
f 140/140/140 177/177/177 134/134/134
f 121/121/121 107/107/107 140/140/140
f 178/178/178 197/197/197 177/177/177
f 140/140/140 178/178/178 177/177/177
f 178/178/178 198/198/198 197/197/197
f 107/107/107 38/38/38 6/6/6
f 6/6/6 38/38/38 5/5/5
f 107/107/107 156/156/156 140/140/140
f 107/107/107 6/6/6 156/156/156
f 140/140/140 179/179/179 178/178/178
f 140/140/140 156/156/156 179/179/179
f 178/178/178 199/199/199 198/198/198
f 178/178/178 179/179/179 199/199/199
f 198/198/198 199/199/199 219/219/219
f 148/148/148 179/179/179 156/156/156
f 148/148/148 156/156/156 6/6/6
f 181/181/181 199/199/199 179/179/179
f 148/148/148 181/181/181 179/179/179
f 6/6/6 5/5/5 4/4/4
f 148/148/148 6/6/6 4/4/4
f 73/73/73 4/4/4 5/5/5
f 181/181/181 202/202/202 199/199/199
f 202/202/202 223/223/223 199/199/199
f 202/202/202 196/196/196 223/223/223
f 181/181/181 196/196/196 202/202/202
f 73/73/73 75/75/75 4/4/4
f 75/75/75 73/73/73 59/59/59
f 4/4/4 149/149/149 148/148/148
f 149/149/149 181/181/181 148/148/148
f 4/4/4 75/75/75 149/149/149
f 149/149/149 175/175/175 181/181/181
f 181/181/181 175/175/175 196/196/196
f 141/141/141 149/149/149 75/75/75
f 141/141/141 175/175/175 149/149/149
f 75/75/75 59/59/59 74/74/74
f 141/141/141 75/75/75 74/74/74
f 41/41/41 74/74/74 59/59/59
f 174/174/174 196/196/196 175/175/175
f 141/141/141 174/174/174 175/175/175
f 195/195/195 219/219/219 196/196/196
f 174/174/174 195/195/195 196/196/196
f 195/195/195 192/192/192 219/219/219
f 174/174/174 192/192/192 195/195/195
f 41/41/41 105/105/105 74/74/74
f 41/41/41 99/99/99 105/105/105
f 74/74/74 142/142/142 141/141/141
f 74/74/74 105/105/105 142/142/142
f 141/141/141 172/172/172 174/174/174
f 141/141/141 142/142/142 172/172/172
f 174/174/174 172/172/172 192/192/192
f 137/137/137 142/142/142 105/105/105
f 137/137/137 172/172/172 142/142/142
f 137/137/137 105/105/105 99/99/99
f 193/193/193 192/192/192 172/172/172
f 137/137/137 193/193/193 172/172/172
f 231/231/231 222/222/222 192/192/192
f 193/193/193 231/231/231 192/192/192
f 154/154/154 137/137/137 99/99/99
f 154/154/154 99/99/99 100/100/100
f 100/100/100 155/155/155 154/154/154
f 185/185/185 137/137/137 154/154/154
f 155/155/155 185/185/185 154/154/154
f 185/185/185 193/193/193 137/137/137
f 155/155/155 206/206/206 185/185/185
f 209/209/209 231/231/231 193/193/193
f 209/209/209 193/193/193 185/185/185
f 206/206/206 209/209/209 185/185/185
f 209/209/209 230/230/230 231/231/231
f 206/206/206 227/227/227 209/209/209
f 209/209/209 227/227/227 230/230/230
