# VPXTOOL table OBJ file
# VPXTOOL OBJ file
# numVerts: 257 numFaces: 268
o PegMetalT15
v 0.00101 0.3845 -0.067331
v 0.00101 0.3655 -0.067331
v 0.035781 0.3655 -0.058039
v 0.035781 0.3845 -0.058039
v 0.061235 0.3655 -0.032656
v 0.061235 0.3845 -0.032656
v 0.070552 0.3655 0.002019
v 0.070552 0.3845 0.002019
v 0.070552 0.3845 0.002019
v 0.070552 0.3655 0.002019
v 0.061235 0.3655 0.036694
v 0.061235 0.3845 0.036694
v 0.035781 0.3655 0.062078
v 0.035781 0.3845 0.062078
v 0.00101 0.3655 0.071369
v 0.00101 0.3845 0.071369
v -0.033761 0.3655 0.062078
v -0.033761 0.3845 0.062078
v -0.059216 0.3655 0.036694
v -0.059216 0.3845 0.036694
v -0.068532 0.3655 0.002019
v -0.068532 0.3845 0.002019
v -0.059216 0.3655 -0.032656
v -0.059216 0.3845 -0.032656
v -0.033761 0.3655 -0.058039
v -0.033761 0.3845 -0.058039
v 0.00101 0.546 -0.067331
v 0.00101 0.4795 -0.067331
v 0.035781 0.4795 -0.058039
v 0.035781 0.546 -0.058039
v 0.061235 0.4795 -0.032656
v 0.061235 0.546 -0.032656
v 0.070552 0.4795 0.002019
v 0.070552 0.546 0.002019
v 0.070552 0.546 0.002019
v 0.070552 0.4795 0.002019
v 0.061235 0.4795 0.036694
v 0.061235 0.546 0.036694
v 0.035781 0.4795 0.062078
v 0.035781 0.546 0.062078
v 0.00101 0.4795 0.071369
v 0.00101 0.546 0.071369
v -0.033761 0.4795 0.062078
v -0.033761 0.546 0.062078
v -0.059216 0.4795 0.036694
v -0.059216 0.546 0.036694
v -0.068532 0.4795 0.002019
v -0.068532 0.546 0.002019
v -0.059216 0.4795 -0.032656
v -0.059216 0.546 -0.032656
v -0.033761 0.4795 -0.058039
v -0.033761 0.546 -0.058039
v 0.00101 0.5555 -0.057831
v 0.00101 0.546 -0.067331
v 0.035781 0.546 -0.058039
v 0.031018 0.5555 -0.049812
v 0.061235 0.546 -0.032656
v 0.052985 0.5555 -0.027906
v 0.070552 0.546 0.002019
v 0.061025 0.5555 0.002019
v 0.061025 0.5555 0.002019
v 0.070552 0.546 0.002019
v 0.061235 0.546 0.036694
v 0.052985 0.5555 0.031944
v 0.035781 0.546 0.062078
v 0.031018 0.5555 0.053851
v 0.00101 0.546 0.071369
v 0.00101 0.5555 0.061869
v -0.033761 0.546 0.062078
v -0.028998 0.5555 0.053851
v -0.059216 0.546 0.036694
v -0.050965 0.5555 0.031944
v -0.068532 0.546 0.002019
v -0.059006 0.5555 0.002019
v -0.059216 0.546 -0.032656
v -0.050965 0.5555 -0.027906
v -0.033761 0.546 -0.058039
v -0.028998 0.5555 -0.049812
v 0.00101 0.5555 0.002019
v 0.00101 0.5555 -0.057831
v 0.031018 0.5555 -0.049812
v 0.052985 0.5555 -0.027906
v 0.061025 0.5555 0.002019
v 0.052985 0.5555 0.031944
v 0.031018 0.5555 0.053851
v 0.00101 0.5555 0.061869
v -0.028998 0.5555 0.053851
v -0.050965 0.5555 0.031944
v -0.059006 0.5555 0.002019
v -0.050965 0.5555 -0.027906
v -0.028998 0.5555 -0.049812
v 0.00101 0.0349 -0.088231
v 0.00101 0.0045 -0.088231
v 0.04626 0.0045 -0.076139
v 0.04626 0.0349 -0.076139
v 0.079385 0.0045 -0.043106
v 0.079385 0.0349 -0.043106
v 0.09151 0.0045 0.002019
v 0.09151 0.0349 0.002019
v 0.09151 0.0349 0.002019
v 0.09151 0.0045 0.002019
v 0.079385 0.0045 0.047144
v 0.079385 0.0349 0.047144
v 0.04626 0.0045 0.080178
v 0.04626 0.0349 0.080178
v 0.00101 0.0045 0.092269
v 0.00101 0.0349 0.092269
v -0.04424 0.0045 0.080178
v -0.04424 0.0349 0.080178
v -0.077366 0.0045 0.047144
v -0.077366 0.0349 0.047144
v -0.08949 0.0045 0.002019
v -0.08949 0.0349 0.002019
v -0.077366 0.0045 -0.043106
v -0.077366 0.0349 -0.043106
v -0.04424 0.0045 -0.076139
v -0.04424 0.0349 -0.076139
v 0.00101 0.0349 -0.067331
v 0.00101 0.0349 -0.088231
v 0.04626 0.0349 -0.076139
v 0.035781 0.0349 -0.058039
v 0.079385 0.0349 -0.043106
v 0.061235 0.0349 -0.032656
v 0.09151 0.0349 0.002019
v 0.070552 0.0349 0.002019
v 0.070552 0.0349 0.002019
v 0.09151 0.0349 0.002019
v 0.079385 0.0349 0.047144
v 0.061235 0.0349 0.036694
v 0.04626 0.0349 0.080178
v 0.035781 0.0349 0.062078
v 0.00101 0.0349 0.092269
v 0.00101 0.0349 0.071369
v -0.04424 0.0349 0.080178
v -0.033761 0.0349 0.062078
v -0.077366 0.0349 0.047144
v -0.059216 0.0349 0.036694
v -0.08949 0.0349 0.002019
v -0.068532 0.0349 0.002019
v -0.077366 0.0349 -0.043106
v -0.059216 0.0349 -0.032656
v -0.04424 0.0349 -0.076139
v -0.033761 0.0349 -0.058039
v 0.00101 0.2705 -0.067331
v 0.00101 0.0349 -0.067331
v 0.035781 0.0349 -0.058039
v 0.035781 0.2705 -0.058039
v 0.061235 0.0349 -0.032656
v 0.061235 0.2705 -0.032656
v 0.070552 0.0349 0.002019
v 0.070552 0.2705 0.002019
v 0.070552 0.2705 0.002019
v 0.070552 0.0349 0.002019
v 0.061235 0.0349 0.036694
v 0.061235 0.2705 0.036694
v 0.035781 0.0349 0.062078
v 0.035781 0.2705 0.062078
v 0.00101 0.0349 0.071369
v 0.00101 0.2705 0.071369
v -0.033761 0.0349 0.062078
v -0.033761 0.2705 0.062078
v -0.059216 0.0349 0.036694
v -0.059216 0.2705 0.036694
v -0.068532 0.0349 0.002019
v -0.068532 0.2705 0.002019
v -0.059216 0.0349 -0.032656
v -0.059216 0.2705 -0.032656
v -0.033761 0.0349 -0.058039
v -0.033761 0.2705 -0.058039
v 0.00101 0.299 -0.024961
v 0.00101 0.2705 -0.067331
v 0.02014 0.299 -0.017058
v 0.035781 0.2705 -0.058039
v 0.061235 0.2705 -0.032656
v 0.070552 0.2705 0.002019
v 0.028064 0.299 0.002019
v 0.028064 0.299 0.002019
v 0.070552 0.2705 0.002019
v 0.02014 0.299 0.021097
v 0.061235 0.2705 0.036694
v 0.035781 0.2705 0.062078
v 0.00101 0.2705 0.071369
v 0.00101 0.299 0.028999
v -0.033761 0.2705 0.062078
v -0.01812 0.299 0.021097
v -0.059216 0.2705 0.036694
v -0.068532 0.2705 0.002019
v -0.026045 0.299 0.002019
v -0.059216 0.2705 -0.032656
v -0.01812 0.299 -0.017058
v -0.033761 0.2705 -0.058039
v 0.00101 0.337 -0.024961
v 0.02014 0.337 -0.017058
v 0.028064 0.337 0.002019
v 0.028064 0.337 0.002019
v 0.02014 0.337 0.021097
v 0.00101 0.337 0.028999
v -0.01812 0.337 0.021097
v -0.026045 0.337 0.002019
v -0.01812 0.337 -0.017058
v 0.00101 0.3655 -0.067331
v 0.035781 0.3655 -0.058039
v 0.061235 0.3655 -0.032656
v 0.070552 0.3655 0.002019
v 0.070552 0.3655 0.002019
v 0.061235 0.3655 0.036694
v 0.035781 0.3655 0.062078
v 0.00101 0.3655 0.071369
v -0.033761 0.3655 0.062078
v -0.068532 0.3655 0.002019
v -0.059216 0.3655 0.036694
v -0.059216 0.3655 -0.032656
v -0.033761 0.3655 -0.058039
v 0.00101 0.413 -0.024961
v 0.00101 0.3845 -0.067331
v 0.02014 0.413 -0.017058
v 0.035781 0.3845 -0.058039
v 0.061235 0.3845 -0.032656
v 0.070552 0.3845 0.002019
v 0.028064 0.413 0.002019
v 0.028064 0.413 0.002019
v 0.070552 0.3845 0.002019
v 0.02014 0.413 0.021097
v 0.061235 0.3845 0.036694
v 0.035781 0.3845 0.062078
v 0.00101 0.3845 0.071369
v 0.00101 0.413 0.028999
v -0.033761 0.3845 0.062078
v -0.01812 0.413 0.021097
v -0.059216 0.3845 0.036694
v -0.068532 0.3845 0.002019
v -0.026045 0.413 0.002019
v -0.059216 0.3845 -0.032656
v -0.01812 0.413 -0.017058
v -0.033761 0.3845 -0.058039
v 0.00101 0.451 -0.024961
v 0.02014 0.451 -0.017058
v 0.028064 0.451 0.002019
v 0.028064 0.451 0.002019
v 0.02014 0.451 0.021097
v 0.00101 0.451 0.028999
v -0.01812 0.451 0.021097
v -0.026045 0.451 0.002019
v -0.01812 0.451 -0.017058
v 0.00101 0.4795 -0.067331
v 0.035781 0.4795 -0.058039
v 0.061235 0.4795 -0.032656
v 0.070552 0.4795 0.002019
v 0.070552 0.4795 0.002019
v 0.061235 0.4795 0.036694
v 0.035781 0.4795 0.062078
v 0.00101 0.4795 0.071369
v -0.033761 0.4795 0.062078
v -0.068532 0.4795 0.002019
v -0.059216 0.4795 0.036694
v -0.059216 0.4795 -0.032656
v -0.033761 0.4795 -0.058039
vt 0.25 0.689655
vt 0.25 0.655172
vt 0.166667 0.655172
vt 0.166667 0.689655
vt 0.083333 0.655172
vt 0.083333 0.689655
vt 0 0.655172
vt 0 0.689655
vt 1 0.689655
vt 1 0.655172
vt 0.916667 0.655172
vt 0.916667 0.689655
vt 0.833333 0.655172
vt 0.833333 0.689655
vt 0.75 0.655172
vt 0.75 0.689655
vt 0.666667 0.655172
vt 0.666667 0.689655
vt 0.583333 0.655172
vt 0.583333 0.689655
vt 0.5 0.655172
vt 0.5 0.689655
vt 0.416667 0.655172
vt 0.416667 0.689655
vt 0.333333 0.655172
vt 0.333333 0.689655
vt 0.25 0.982758999
vt 0.25 0.86206901
vt 0.166667 0.86206901
vt 0.166667 0.982758999
vt 0.083333 0.86206901
vt 0.083333 0.982758999
vt 0 0.86206901
vt 0 0.982758999
vt 1 0.982758999
vt 1 0.86206901
vt 0.916667 0.86206901
vt 0.916667 0.982758999
vt 0.833333 0.86206901
vt 0.833333 0.982758999
vt 0.75 0.86206901
vt 0.75 0.982758999
vt 0.666667 0.86206901
vt 0.666667 0.982758999
vt 0.583333 0.86206901
vt 0.583333 0.982758999
vt 0.5 0.86206901
vt 0.5 0.982758999
vt 0.416667 0.86206901
vt 0.416667 0.982758999
vt 0.333333 0.86206901
vt 0.333333 0.982758999
vt 0.25 1
vt 0.25 0.982758999
vt 0.166667 0.982758999
vt 0.166667 1
vt 0.083333 0.982758999
vt 0.083333 1
vt 0 0.982758999
vt 0 1
vt 1 1
vt 1 0.982758999
vt 0.916667 0.982758999
vt 0.916667 1
vt 0.833333 0.982758999
vt 0.833333 1
vt 0.75 0.982758999
vt 0.75 1
vt 0.666667 0.982758999
vt 0.666667 1
vt 0.583333 0.982758999
vt 0.583333 1
vt 0.5 0.982758999
vt 0.5 1
vt 0.416667 0.982758999
vt 0.416667 1
vt 0.333333 0.982758999
vt 0.333333 1
vt 0.5 0.27999997
vt 0.625 0.27999997
vt 0.608253 0.21749997
vt 0.5625 0.17174697
vt 0.5 0.15499997
vt 0.4375 0.17174697
vt 0.391747 0.21749997
vt 0.375 0.27999997
vt 0.391747 0.34249997
vt 0.4375 0.38825297
vt 0.5 0.40499997
vt 0.5625 0.38825297
vt 0.608253 0.34249997
vt 0.25 0.055172026
vt 0.25 0
vt 0.166667 0
vt 0.166667 0.055172026
vt 0.083333 0
vt 0.083333 0.055172026
vt 0 0
vt 0 0.055172026
vt 1 0.055172026
vt 1 0
vt 0.916667 0
vt 0.916667 0.055172026
vt 0.833333 0
vt 0.833333 0.055172026
vt 0.75 0
vt 0.75 0.055172026
vt 0.666667 0
vt 0.666667 0.055172026
vt 0.583333 0
vt 0.583333 0.055172026
vt 0.5 0
vt 0.5 0.055172026
vt 0.416667 0
vt 0.416667 0.055172026
vt 0.333333 0
vt 0.333333 0.055172026
vt 0.25 0.069655
vt 0.25 0.055172026
vt 0.166667 0.055172026
vt 0.166667 0.069655
vt 0.083333 0.055172026
vt 0.083333 0.069655
vt 0 0.055172026
vt 0 0.069655
vt 1 0.069655
vt 1 0.055172026
vt 0.916667 0.055172026
vt 0.916667 0.069655
vt 0.833333 0.055172026
vt 0.833333 0.069655
vt 0.75 0.055172026
vt 0.75 0.069655
vt 0.666667 0.055172026
vt 0.666667 0.069655
vt 0.583333 0.055172026
vt 0.583333 0.069655
vt 0.5 0.055172026
vt 0.5 0.069655
vt 0.416667 0.055172026
vt 0.416667 0.069655
vt 0.333333 0.055172026
vt 0.333333 0.069655
vt 0.25 0.482759
vt 0.25 0.069655
vt 0.166667 0.069655
vt 0.166667 0.482759
vt 0.083333 0.069655
vt 0.083333 0.482759
vt 0 0.069655
vt 0 0.482759
vt 1 0.482759
vt 1 0.069655
vt 0.916667 0.069655
vt 0.916667 0.482759
vt 0.833333 0.069655
vt 0.833333 0.482759
vt 0.75 0.069655
vt 0.75 0.482759
vt 0.666667 0.069655
vt 0.666667 0.482759
vt 0.583333 0.069655
vt 0.583333 0.482759
vt 0.5 0.069655
vt 0.5 0.482759
vt 0.416667 0.069655
vt 0.416667 0.482759
vt 0.333333 0.069655
vt 0.333333 0.482759
vt 0.25 0.53448302
vt 0.25 0.482759
vt 0.125 0.53448302
vt 0.166667 0.482759
vt 0.083333 0.482759
vt 0 0.482759
vt 0 0.53448302
vt 1 0.53448302
vt 1 0.482759
vt 0.875 0.53448302
vt 0.916667 0.482759
vt 0.833333 0.482759
vt 0.75 0.482759
vt 0.75 0.53448302
vt 0.666667 0.482759
vt 0.625 0.53448302
vt 0.583333 0.482759
vt 0.5 0.482759
vt 0.5 0.53448302
vt 0.416667 0.482759
vt 0.375 0.53448302
vt 0.333333 0.482759
vt 0.25 0.60344797
vt 0.125 0.60344797
vt 0 0.60344797
vt 1 0.60344797
vt 0.875 0.60344797
vt 0.75 0.60344797
vt 0.625 0.60344797
vt 0.5 0.60344797
vt 0.375 0.60344797
vt 0.25 0.655172
vt 0.166667 0.655172
vt 0.083333 0.655172
vt 0 0.655172
vt 1 0.655172
vt 0.916667 0.655172
vt 0.833333 0.655172
vt 0.75 0.655172
vt 0.666667 0.655172
vt 0.5 0.655172
vt 0.583333 0.655172
vt 0.416667 0.655172
vt 0.333333 0.655172
vt 0.25 0.74137902
vt 0.25 0.689655
vt 0.125 0.74137902
vt 0.166667 0.689655
vt 0.083333 0.689655
vt 0 0.689655
vt 0 0.74137902
vt 1 0.74137902
vt 1 0.689655
vt 0.875 0.74137902
vt 0.916667 0.689655
vt 0.833333 0.689655
vt 0.75 0.689655
vt 0.75 0.74137902
vt 0.666667 0.689655
vt 0.625 0.74137902
vt 0.583333 0.689655
vt 0.5 0.689655
vt 0.5 0.74137902
vt 0.416667 0.689655
vt 0.375 0.74137902
vt 0.333333 0.689655
vt 0.25 0.810345
vt 0.125 0.810345
vt 0 0.810345
vt 1 0.810345
vt 0.875 0.810345
vt 0.75 0.810345
vt 0.625 0.810345
vt 0.5 0.810345
vt 0.375 0.810345
vt 0.25 0.86206901
vt 0.166667 0.86206901
vt 0.083333 0.86206901
vt 0 0.86206901
vt 1 0.86206901
vt 0.916667 0.86206901
vt 0.833333 0.86206901
vt 0.75 0.86206901
vt 0.666667 0.86206901
vt 0.5 0.86206901
vt 0.583333 0.86206901
vt 0.416667 0.86206901
vt 0.333333 0.86206901
vn 0 0 -0.999969
vn 0 0 -0.999969
vn 0.4991 0 -0.866543
vn 0.4991 0 -0.866543
vn 0.865505 0 -0.50087
vn 0.865505 0 -0.50087
vn 1 0 0
vn 1 0 0
vn 1 0 0
vn 1 0 0
vn 0.865505 0 0.50087
vn 0.865505 0 0.50087
vn 0.4991 0 0.866543
vn 0.4991 0 0.866543
vn 0 0 0.999969
vn 0 0 1
vn -0.4991 0 0.866543
vn -0.4991 0 0.866543
vn -0.865505 0 0.50087
vn -0.865505 0 0.50087
vn -1 0 0
vn -1 0 0
vn -0.865505 0 -0.50087
vn -0.865505 0 -0.50087
vn -0.4991 0 -0.866543
vn -0.4991 0 -0.866543
vn 0 0 -0.999969
vn 0 0 -0.999969
vn 0.4991 0 -0.866543
vn 0.4991 0 -0.866543
vn 0.865505 0 -0.50087
vn 0.865505 0 -0.50087
vn 0.999969 0 0
vn 0.999969 0 0
vn 0.999969 0 0
vn 0.999969 0 0
vn 0.865505 0 0.50087
vn 0.865505 0 0.50087
vn 0.4991 0 0.866543
vn 0.4991 0 0.866543
vn 0 0 0.999969
vn 0 0 1
vn -0.4991 0 0.866543
vn -0.4991 0 0.866543
vn -0.865505 0 0.50087
vn -0.865505 0 0.50087
vn -0.999969 0 0
vn -0.999969 0 0
vn -0.865505 0 -0.50087
vn -0.865505 0 -0.50087
vn -0.4991 0 -0.866543
vn -0.4991 0 -0.866543
vn 0 0.707083 -0.707083
vn 0 0.707083 -0.707083
vn 0.352916 0.707327 -0.612445
vn 0.35258 0.707327 -0.612629
vn 0.611438 0.707816 -0.353679
vn 0.611255 0.707816 -0.353984
vn 0.706107 0.70806 0
vn 0.706107 0.70806 0
vn 0.706107 0.70806 0
vn 0.706107 0.70806 0
vn 0.611438 0.707816 0.353679
vn 0.611255 0.707816 0.353984
vn 0.352916 0.707327 0.612445
vn 0.35258 0.707327 0.612629
vn 0 0.707083 0.707083
vn 0 0.707083 0.707083
vn -0.352916 0.707327 0.612445
vn -0.35258 0.707327 0.612629
vn -0.611438 0.707816 0.353679
vn -0.611255 0.707816 0.353984
vn -0.706107 0.70806 0
vn -0.706107 0.70806 0
vn -0.611438 0.707816 -0.353679
vn -0.611255 0.707816 -0.353984
vn -0.352916 0.707327 -0.612445
vn -0.35258 0.707327 -0.612629
vn 0 1 0
vn 0 1 0
vn 0 0.999969 0
vn 0 1 0
vn 0 1 0
vn 0 0.999969 0
vn 0 0.999969 0
vn 0 1 0
vn 0 0.999969 0
vn 0 1 0
vn 0 1 0
vn 0 1 0
vn 0 0.999969 0
vn 0 0 -1
vn 0 0 -1
vn 0.4991 0 -0.866543
vn 0.4991 0 -0.866543
vn 0.865505 0 -0.50087
vn 0.865505 0 -0.50087
vn 1 0 0
vn 1 0 0
vn 1 0 0
vn 1 0 0
vn 0.865505 0 0.50087
vn 0.865505 0 0.50087
vn 0.4991 0 0.866543
vn 0.4991 0 0.866543
vn 0 0 1
vn 0 0 1
vn -0.4991 0 0.866543
vn -0.4991 0 0.866543
vn -0.865505 0 0.50087
vn -0.865505 0 0.50087
vn -1 0 0
vn -1 0 0
vn -0.865505 0 -0.50087
vn -0.865505 0 -0.50087
vn -0.4991 0 -0.866543
vn -0.4991 0 -0.866543
vn 0 1 0
vn 0 1 0
vn 0 1 0
vn 0 0.999969 0
vn 0 0.999969 0
vn 0 0.999969 0
vn 0 0.999969 0
vn 0 1 0
vn 0 1 0
vn 0 0.999969 0
vn 0 1 0
vn 0 1 0
vn 0 1 0
vn 0 0.999969 0
vn 0 1 0
vn 0 0.999969 0
vn 0 0.999969 0
vn 0 1 0
vn 0 1 0
vn 0 0.999969 0
vn 0 0.999969 0
vn 0 1 0
vn 0 1 0
vn 0 1 0
vn 0 1 0
vn 0 1 0
vn 0 0 -1
vn 0 0 -1
vn 0.4991 0 -0.866543
vn 0.4991 0 -0.866543
vn 0.865505 0 -0.50087
vn 0.865505 0 -0.50087
vn 1 0 0
vn 1 0 0
vn 1 0 0
vn 1 0 0
vn 0.865505 0 0.50087
vn 0.865505 0 0.50087
vn 0.4991 0 0.866543
vn 0.4991 0 0.866543
vn 0 0 1
vn 0 0 1
vn -0.4991 0 0.866543
vn -0.4991 0 0.866543
vn -0.865505 0 0.50087
vn -0.865505 0 0.50087
vn -1 0 0
vn -1 0 0
vn -0.865505 0 -0.50087
vn -0.865505 0 -0.50087
vn -0.4991 0 -0.866543
vn -0.4991 0 -0.866543
vn 0 0.52501 -0.85107
vn 0 0.841914 -0.539567
vn 0.59624 0.535844 -0.597766
vn 0.265114 0.836085 -0.480239
vn 0.479293 0.836482 -0.265572
vn 0.538499 0.842616 0
vn 0.850459 0.525986 0
vn 0.850459 0.525986 0
vn 0.538499 0.842616 0
vn 0.59624 0.535844 0.597766
vn 0.479293 0.836482 0.265572
vn 0.265114 0.836085 0.480239
vn 0 0.841914 0.539567
vn 0 0.52501 0.85107
vn -0.265114 0.836085 0.480239
vn -0.59624 0.535844 0.597766
vn -0.479293 0.836482 0.265572
vn -0.538499 0.842616 0
vn -0.850459 0.525986 0
vn -0.479293 0.836482 -0.265572
vn -0.59624 0.535844 -0.597766
vn -0.265114 0.836085 -0.480239
vn 0 -0.52501 -0.85107
vn 0.59624 -0.535844 -0.597766
vn 0.850459 -0.525986 0
vn 0.850459 -0.525986 0
vn 0.59624 -0.535844 0.597766
vn 0 -0.52501 0.85107
vn -0.59624 -0.535844 0.597766
vn -0.850459 -0.525986 0
vn -0.59624 -0.535844 -0.597766
vn 0 -0.841914 -0.539567
vn 0.265114 -0.836085 -0.480239
vn 0.479293 -0.836482 -0.265572
vn 0.538499 -0.842616 0
vn 0.538499 -0.842616 0
vn 0.479293 -0.836482 0.265572
vn 0.265114 -0.836085 0.480239
vn 0 -0.841914 0.539567
vn -0.265114 -0.836085 0.480239
vn -0.538499 -0.842616 0
vn -0.479293 -0.836482 0.265572
vn -0.479293 -0.836482 -0.265572
vn -0.265114 -0.836085 -0.480239
vn 0 0.52501 -0.85107
vn 0 0.841914 -0.539567
vn 0.59624 0.535844 -0.597766
vn 0.265114 0.836085 -0.480239
vn 0.479293 0.836482 -0.265572
vn 0.538499 0.842616 0
vn 0.850459 0.525986 0
vn 0.850459 0.525986 0
vn 0.538499 0.842616 0
vn 0.59624 0.535844 0.597766
vn 0.479293 0.836482 0.265572
vn 0.265114 0.836085 0.480239
vn 0 0.841914 0.539567
vn 0 0.52501 0.85107
vn -0.265114 0.836085 0.480239
vn -0.59624 0.535844 0.597766
vn -0.479293 0.836482 0.265572
vn -0.538499 0.842616 0
vn -0.850459 0.525986 0
vn -0.479293 0.836482 -0.265572
vn -0.59624 0.535844 -0.597766
vn -0.265114 0.836085 -0.480239
vn 0 -0.52501 -0.85107
vn 0.59624 -0.535844 -0.597766
vn 0.850459 -0.525986 0
vn 0.850459 -0.525986 0
vn 0.59624 -0.535844 0.597766
vn 0 -0.52501 0.85107
vn -0.59624 -0.535844 0.597766
vn -0.850459 -0.525986 0
vn -0.59624 -0.535844 -0.597766
vn 0 -0.841914 -0.539567
vn 0.265114 -0.836085 -0.480239
vn 0.479293 -0.836482 -0.265572
vn 0.538499 -0.842616 0
vn 0.538499 -0.842616 0
vn 0.479293 -0.836482 0.265572
vn 0.265114 -0.836085 0.480239
vn 0 -0.841914 0.539567
vn -0.265114 -0.836085 0.480239
vn -0.538499 -0.842616 0
vn -0.479293 -0.836482 0.265572
vn -0.479293 -0.836482 -0.265572
vn -0.265114 -0.836085 -0.480239
f 6/6/6 8/8/8 7/7/7
f 7/7/7 5/5/5 6/6/6
f 4/4/4 6/6/6 5/5/5
f 5/5/5 3/3/3 4/4/4
f 1/1/1 4/4/4 3/3/3
f 3/3/3 2/2/2 1/1/1
f 26/26/26 1/1/1 2/2/2
f 2/2/2 25/25/25 26/26/26
f 24/24/24 26/26/26 25/25/25
f 25/25/25 23/23/23 24/24/24
f 22/22/22 24/24/24 23/23/23
f 23/23/23 21/21/21 22/22/22
f 20/20/20 22/22/22 21/21/21
f 21/21/21 19/19/19 20/20/20
f 18/18/18 20/20/20 19/19/19
f 19/19/19 17/17/17 18/18/18
f 16/16/16 18/18/18 17/17/17
f 17/17/17 15/15/15 16/16/16
f 14/14/14 16/16/16 15/15/15
f 15/15/15 13/13/13 14/14/14
f 12/12/12 14/14/14 13/13/13
f 13/13/13 11/11/11 12/12/12
f 9/9/9 12/12/12 11/11/11
f 11/11/11 10/10/10 9/9/9
f 29/29/29 28/28/28 27/27/27
f 27/27/27 30/30/30 29/29/29
f 52/52/52 27/27/27 28/28/28
f 31/31/31 29/29/29 30/30/30
f 28/28/28 51/51/51 52/52/52
f 30/30/30 32/32/32 31/31/31
f 50/50/50 52/52/52 51/51/51
f 33/33/33 31/31/31 32/32/32
f 32/32/32 34/34/34 33/33/33
f 51/51/51 49/49/49 50/50/50
f 48/48/48 50/50/50 49/49/49
f 49/49/49 47/47/47 48/48/48
f 46/46/46 48/48/48 47/47/47
f 47/47/47 45/45/45 46/46/46
f 44/44/44 46/46/46 45/45/45
f 45/45/45 43/43/43 44/44/44
f 42/42/42 44/44/44 43/43/43
f 43/43/43 41/41/41 42/42/42
f 40/40/40 42/42/42 41/41/41
f 41/41/41 39/39/39 40/40/40
f 38/38/38 40/40/40 39/39/39
f 39/39/39 37/37/37 38/38/38
f 35/35/35 38/38/38 37/37/37
f 37/37/37 36/36/36 35/35/35
f 55/55/55 54/54/54 53/53/53
f 53/53/53 56/56/56 55/55/55
f 78/78/78 53/53/53 54/54/54
f 57/57/57 55/55/55 56/56/56
f 54/54/54 77/77/77 78/78/78
f 56/56/56 58/58/58 57/57/57
f 76/76/76 78/78/78 77/77/77
f 59/59/59 57/57/57 58/58/58
f 58/58/58 60/60/60 59/59/59
f 77/77/77 75/75/75 76/76/76
f 74/74/74 76/76/76 75/75/75
f 75/75/75 73/73/73 74/74/74
f 72/72/72 74/74/74 73/73/73
f 73/73/73 71/71/71 72/72/72
f 70/70/70 72/72/72 71/71/71
f 71/71/71 69/69/69 70/70/70
f 68/68/68 70/70/70 69/69/69
f 69/69/69 67/67/67 68/68/68
f 66/66/66 68/68/68 67/67/67
f 67/67/67 65/65/65 66/66/66
f 64/64/64 66/66/66 65/65/65
f 65/65/65 63/63/63 64/64/64
f 61/61/61 64/64/64 63/63/63
f 63/63/63 62/62/62 61/61/61
f 81/81/81 80/80/80 79/79/79
f 80/80/80 91/91/91 79/79/79
f 82/82/82 81/81/81 79/79/79
f 91/91/91 90/90/90 79/79/79
f 83/83/83 82/82/82 79/79/79
f 90/90/90 89/89/89 79/79/79
f 84/84/84 83/83/83 79/79/79
f 89/89/89 88/88/88 79/79/79
f 85/85/85 84/84/84 79/79/79
f 88/88/88 87/87/87 79/79/79
f 86/86/86 85/85/85 79/79/79
f 87/87/87 86/86/86 79/79/79
f 94/94/94 93/93/93 92/92/92
f 92/92/92 95/95/95 94/94/94
f 117/117/117 92/92/92 93/93/93
f 96/96/96 94/94/94 95/95/95
f 93/93/93 116/116/116 117/117/117
f 95/95/95 97/97/97 96/96/96
f 115/115/115 117/117/117 116/116/116
f 98/98/98 96/96/96 97/97/97
f 97/97/97 99/99/99 98/98/98
f 116/116/116 114/114/114 115/115/115
f 113/113/113 115/115/115 114/114/114
f 114/114/114 112/112/112 113/113/113
f 111/111/111 113/113/113 112/112/112
f 112/112/112 110/110/110 111/111/111
f 109/109/109 111/111/111 110/110/110
f 110/110/110 108/108/108 109/109/109
f 107/107/107 109/109/109 108/108/108
f 108/108/108 106/106/106 107/107/107
f 105/105/105 107/107/107 106/106/106
f 106/106/106 104/104/104 105/105/105
f 103/103/103 105/105/105 104/104/104
f 104/104/104 102/102/102 103/103/103
f 100/100/100 103/103/103 102/102/102
f 102/102/102 101/101/101 100/100/100
f 120/120/120 119/119/119 118/118/118
f 118/118/118 121/121/121 120/120/120
f 143/143/143 118/118/118 119/119/119
f 122/122/122 120/120/120 121/121/121
f 119/119/119 142/142/142 143/143/143
f 121/121/121 123/123/123 122/122/122
f 141/141/141 143/143/143 142/142/142
f 124/124/124 122/122/122 123/123/123
f 123/123/123 125/125/125 124/124/124
f 142/142/142 140/140/140 141/141/141
f 139/139/139 141/141/141 140/140/140
f 140/140/140 138/138/138 139/139/139
f 137/137/137 139/139/139 138/138/138
f 138/138/138 136/136/136 137/137/137
f 135/135/135 137/137/137 136/136/136
f 136/136/136 134/134/134 135/135/135
f 133/133/133 135/135/135 134/134/134
f 134/134/134 132/132/132 133/133/133
f 131/131/131 133/133/133 132/132/132
f 132/132/132 130/130/130 131/131/131
f 129/129/129 131/131/131 130/130/130
f 130/130/130 128/128/128 129/129/129
f 126/126/126 129/129/129 128/128/128
f 128/128/128 127/127/127 126/126/126
f 146/146/146 145/145/145 144/144/144
f 144/144/144 147/147/147 146/146/146
f 169/169/169 144/144/144 145/145/145
f 148/148/148 146/146/146 147/147/147
f 145/145/145 168/168/168 169/169/169
f 147/147/147 149/149/149 148/148/148
f 167/167/167 169/169/169 168/168/168
f 150/150/150 148/148/148 149/149/149
f 149/149/149 151/151/151 150/150/150
f 168/168/168 166/166/166 167/167/167
f 165/165/165 167/167/167 166/166/166
f 166/166/166 164/164/164 165/165/165
f 163/163/163 165/165/165 164/164/164
f 164/164/164 162/162/162 163/163/163
f 161/161/161 163/163/163 162/162/162
f 162/162/162 160/160/160 161/161/161
f 159/159/159 161/161/161 160/160/160
f 160/160/160 158/158/158 159/159/159
f 157/157/157 159/159/159 158/158/158
f 158/158/158 156/156/156 157/157/157
f 155/155/155 157/157/157 156/156/156
f 156/156/156 154/154/154 155/155/155
f 152/152/152 155/155/155 154/154/154
f 154/154/154 153/153/153 152/152/152
f 172/172/172 171/171/171 170/170/170
f 171/171/171 172/172/172 173/173/173
f 174/174/174 173/173/173 172/172/172
f 175/175/175 174/174/174 172/172/172
f 172/172/172 176/176/176 175/175/175
f 190/190/190 170/170/170 171/171/171
f 171/171/171 191/191/191 190/190/190
f 191/191/191 189/189/189 190/190/190
f 190/190/190 189/189/189 187/187/187
f 176/176/176 172/172/172 193/193/193
f 193/193/193 194/194/194 176/176/176
f 204/204/204 194/194/194 193/193/193
f 193/193/193 203/203/203 204/204/204
f 193/193/193 202/202/202 203/203/203
f 202/202/202 193/193/193 201/201/201
f 192/192/192 193/193/193 172/172/172
f 192/192/192 201/201/201 193/193/193
f 172/172/172 170/170/170 192/192/192
f 201/201/201 192/192/192 200/200/200
f 200/200/200 192/192/192 170/170/170
f 170/170/170 190/190/190 200/200/200
f 200/200/200 213/213/213 201/201/201
f 200/200/200 212/212/212 213/213/213
f 210/210/210 212/212/212 200/200/200
f 199/199/199 200/200/200 190/190/190
f 200/200/200 199/199/199 210/210/210
f 190/190/190 188/188/188 199/199/199
f 187/187/187 188/188/188 190/190/190
f 199/199/199 198/198/198 210/210/210
f 198/198/198 199/199/199 188/188/188
f 211/211/211 210/210/210 198/198/198
f 209/209/209 211/211/211 198/198/198
f 208/208/208 209/209/209 198/198/198
f 187/187/187 185/185/185 188/188/188
f 188/188/188 185/185/185 198/198/198
f 185/185/185 187/187/187 186/186/186
f 185/185/185 186/186/186 184/184/184
f 185/185/185 184/184/184 182/182/182
f 198/198/198 197/197/197 208/208/208
f 197/197/197 198/198/198 185/185/185
f 182/182/182 183/183/183 185/185/185
f 185/185/185 183/183/183 197/197/197
f 208/208/208 197/197/197 196/196/196
f 196/196/196 197/197/197 183/183/183
f 196/196/196 207/207/207 208/208/208
f 196/196/196 206/206/206 207/207/207
f 206/206/206 196/196/196 205/205/205
f 195/195/195 205/205/205 196/196/196
f 179/179/179 183/183/183 182/182/182
f 183/183/183 179/179/179 196/196/196
f 195/195/195 196/196/196 179/179/179
f 182/182/182 181/181/181 179/179/179
f 179/179/179 177/177/177 195/195/195
f 181/181/181 180/180/180 179/179/179
f 179/179/179 178/178/178 177/177/177
f 178/178/178 179/179/179 180/180/180
f 216/216/216 215/215/215 214/214/214
f 215/215/215 216/216/216 217/217/217
f 218/218/218 217/217/217 216/216/216
f 219/219/219 218/218/218 216/216/216
f 216/216/216 220/220/220 219/219/219
f 234/234/234 214/214/214 215/215/215
f 215/215/215 235/235/235 234/234/234
f 235/235/235 233/233/233 234/234/234
f 234/234/234 233/233/233 231/231/231
f 220/220/220 216/216/216 237/237/237
f 237/237/237 238/238/238 220/220/220
f 248/248/248 238/238/238 237/237/237
f 237/237/237 247/247/247 248/248/248
f 237/237/237 246/246/246 247/247/247
f 246/246/246 237/237/237 245/245/245
f 236/236/236 237/237/237 216/216/216
f 236/236/236 245/245/245 237/237/237
f 216/216/216 214/214/214 236/236/236
f 245/245/245 236/236/236 244/244/244
f 244/244/244 236/236/236 214/214/214
f 214/214/214 234/234/234 244/244/244
f 244/244/244 257/257/257 245/245/245
f 244/244/244 256/256/256 257/257/257
f 254/254/254 256/256/256 244/244/244
f 243/243/243 244/244/244 234/234/234
f 244/244/244 243/243/243 254/254/254
f 234/234/234 232/232/232 243/243/243
f 231/231/231 232/232/232 234/234/234
f 243/243/243 242/242/242 254/254/254
f 242/242/242 243/243/243 232/232/232
f 255/255/255 254/254/254 242/242/242
f 253/253/253 255/255/255 242/242/242
f 252/252/252 253/253/253 242/242/242
f 231/231/231 229/229/229 232/232/232
f 232/232/232 229/229/229 242/242/242
f 229/229/229 231/231/231 230/230/230
f 229/229/229 230/230/230 228/228/228
f 229/229/229 228/228/228 226/226/226
f 242/242/242 241/241/241 252/252/252
f 241/241/241 242/242/242 229/229/229
f 226/226/226 227/227/227 229/229/229
f 229/229/229 227/227/227 241/241/241
f 252/252/252 241/241/241 240/240/240
f 240/240/240 241/241/241 227/227/227
f 240/240/240 251/251/251 252/252/252
f 240/240/240 250/250/250 251/251/251
f 250/250/250 240/240/240 249/249/249
f 239/239/239 249/249/249 240/240/240
f 223/223/223 227/227/227 226/226/226
f 227/227/227 223/223/223 240/240/240
f 239/239/239 240/240/240 223/223/223
f 226/226/226 225/225/225 223/223/223
f 223/223/223 221/221/221 239/239/239
f 225/225/225 224/224/224 223/223/223
f 223/223/223 222/222/222 221/221/221
f 222/222/222 223/223/223 224/224/224
