# VPXTOOL table OBJ file
# VPXTOOL OBJ file
# numVerts: 16 numFaces: 8
o VRBlades
v -0.141042 21.711357 -9.83817
v -0.141042 21.866148 -16.905832
v -0.141042 -0.088646 -11.714756
v -0.141042 0.256385 -20.992334
v 9.739319 0.256385 -20.992334
v -0.141042 -0.088646 -11.714756
v 9.739319 21.711357 -9.83817
v 9.739319 -0.088646 -11.714756
v 9.739319 21.866148 -16.905832
v 9.739319 21.711357 -9.83817
v 9.739319 21.866148 -16.905832
v -0.141042 21.711357 -9.83817
v -0.141042 0.256385 -20.992334
v 9.739319 -0.088646 -11.714756
v 9.739319 0.256385 -20.992334
v -0.141042 21.866148 -16.905832
vt -0 0.80246401
vt 0.2535 0.78622502
vt -0 0.016238987
vt 0.666403 0
vt 0.666403 0.355026
vt 1 0
vt 0.666403 0.80246401
vt 0.666403 0.016238987
vt 0.412903 0.78622502
vt 0.920423 0.355026
vt 0.666403 0.355026
vt 0.920423 0.710052
vt 0.333202 0
vt 1 0.355026
vt 0.333201 0
vt 0.666403 0.710052
vn 1 -0 -0
vn 1 -0 -0
vn 1 -0 -0
vn -0 0.9993 0.0372
vn -0 0.9993 0.0372
vn -0 0.9993 0.0372
vn -1 -0 -0
vn -1 -0 -0
vn -1 -0 -0
vn -0 -0.9998 -0.0219
vn -0 -0.9998 -0.0219
vn -0 -0.9998 -0.0219
vn 1 -0 -0
vn -0 0.9993 0.0372
vn -1 -0 -0
vn -0 -0.9998 -0.0219
f 3/3/3 2/2/2 1/1/1
f 3/3/3 13/13/13 2/2/2
f 6/6/6 5/5/5 4/4/4
f 6/6/6 14/14/14 5/5/5
f 9/9/9 8/8/8 7/7/7
f 9/9/9 15/15/15 8/8/8
f 12/12/12 11/11/11 10/10/10
f 12/12/12 16/16/16 11/11/11
