# VPXTOOL table OBJ file
# VPXTOOL OBJ file
# numVerts: 833 numFaces: 672
o Bumper Cap - Gottlieb Dots
v 0.596826 0.054 -0.247214
v 0.596826 0.0065 -0.247214
v 0.633587 0.0065 -0.126028
v 0.633587 0.054 -0.126028
v 0.633587 0.054 0.126028
v 0.633587 0.0065 0.126028
v 0.596826 0.0065 0.247213
v 0.596826 0.054 0.247213
v 0.487116 0.14425 -0.20177
v 0.596826 0.054 -0.247214
v 0.633587 0.054 -0.126028
v 0.517119 0.14425 -0.102861
v 0.517119 0.14425 0.102861
v 0.633587 0.054 0.126028
v 0.596826 0.054 0.247213
v 0.487116 0.14425 0.20177
v 0.359851 0.2535 -0.149055
v 0.368628 0.2345 -0.152691
v 0.391333 0.2345 -0.077841
v 0.382016 0.2535 -0.075988
v 0.399 0.2345 0
v 0.3895 0.2535 0
v 0.391333 0.2345 0.077841
v 0.382016 0.2535 0.075988
v 0.368628 0.2345 0.152691
v 0.359851 0.2535 0.149055
v 0 0.2535 0
v 0.359851 0.2535 -0.149055
v 0.382016 0.2535 -0.075988
v 0.3895 0.2535 0
v 0.382016 0.2535 0.075988
v 0.359851 0.2535 0.149055
v 0.635875 0.13475 -0.102861
v 0.63521 0.054 -0.10925
v 0.690498 0.054 -0.094613
v 0.687304 0.13475 -0.089081
v 0.730486 0.054 -0.054625
v 0.724954 0.13475 -0.051431
v 0.745123 0.054 0
v 0.738735 0.13475 0
v 0.635875 0.14425 -0.093361
v 0.635875 0.13475 -0.102861
v 0.687304 0.13475 -0.089081
v 0.682554 0.14425 -0.080853
v 0.724954 0.13475 -0.051431
v 0.716727 0.14425 -0.046681
v 0.738735 0.13475 0
v 0.729235 0.14425 0
v 0.517119 0.14425 -0.102861
v 0.517119 0.14425 -0.102861
v 0.706486 0.0065 -0.109144
v 0.690498 0.054 -0.094613
v 0.63521 0.054 -0.10925
v 0.646 0.0065 -0.126028
v 0.752615 0.0065 -0.063014
v 0.730486 0.054 -0.054625
v 0.7695 0.0065 0
v 0.745123 0.054 0
v 0.487116 0.14425 0.20177
v 0.368628 0.2345 0.152691
v 0.521978 0.2345 0
v 0.521978 0.2345 0
v 0.368628 0.2345 -0.152691
v 0.487116 0.14425 -0.20177
v 0.521978 0.2345 0
v 0.368628 0.2345 0.152691
v 0.391333 0.2345 0.077841
v 0.399 0.2345 0
v 0.391333 0.2345 -0.077841
v 0.368628 0.2345 -0.152691
v 0.635875 0.14425 -0.093361
v 0.52725 0.14425 0
v 0.517119 0.14425 -0.102861
v 0.63521 0.054 -0.10925
v 0.633587 0.0065 -0.126028
v 0.63521 0.054 -0.10925
v 0.690498 0.054 0.094613
v 0.63521 0.054 0.10925
v 0.635875 0.13475 0.102861
v 0.687304 0.13475 0.089081
v 0.730486 0.054 0.054625
v 0.724954 0.13475 0.051431
v 0.687304 0.13475 0.089081
v 0.635875 0.13475 0.102861
v 0.635875 0.14425 0.093361
v 0.682554 0.14425 0.080853
v 0.724954 0.13475 0.051431
v 0.716727 0.14425 0.046681
v 0.517119 0.14425 0.102861
v 0.517119 0.14425 0.102861
v 0.63521 0.054 0.10925
v 0.690498 0.054 0.094613
v 0.706486 0.0065 0.109144
v 0.646 0.0065 0.126028
v 0.730486 0.054 0.054625
v 0.752615 0.0065 0.063014
v 0.517119 0.14425 0.102861
v 0.635875 0.14425 0.093361
v 0.63521 0.054 0.10925
v 0.633587 0.0065 0.126028
v 0.63521 0.054 0.10925
v 0.682554 0.14425 0.080853
v 0.716727 0.14425 0.046681
v 0.729235 0.14425 0
v 0.716727 0.14425 -0.046681
v 0.682554 0.14425 -0.080853
v 0.517119 0.14425 0.102861
v 0.487116 0.14425 0.20177
v 0.521978 0.2345 0
v 0.52725 0.14425 0
v 0.517119 0.14425 -0.102861
v 0.487116 0.14425 -0.20177
v 0.247213 0.054 -0.596826
v 0.247213 0.0065 -0.596826
v 0.358898 0.0065 -0.537129
v 0.358898 0.054 -0.537129
v 0.537129 0.054 -0.358898
v 0.537129 0.0065 -0.358898
v 0.20177 0.14425 -0.487115
v 0.247213 0.054 -0.596826
v 0.358898 0.054 -0.537129
v 0.292924 0.14425 -0.438392
v 0.438392 0.14425 -0.292924
v 0.537129 0.054 -0.358898
v 0.149055 0.2535 -0.359851
v 0.152691 0.2345 -0.368628
v 0.221673 0.2345 -0.331756
v 0.216395 0.2535 -0.323857
v 0.282136 0.2345 -0.282136
v 0.275418 0.2535 -0.275418
v 0.331756 0.2345 -0.221672
v 0.323857 0.2535 -0.216395
v 0.149055 0.2535 -0.359851
v 0.216395 0.2535 -0.323857
v 0.275418 0.2535 -0.275418
v 0.323857 0.2535 -0.216395
v 0.376898 0.13475 -0.522366
v 0.37191 0.054 -0.526413
v 0.421354 0.054 -0.555158
v 0.423008 0.13475 -0.548987
v 0.477906 0.054 -0.555158
v 0.476253 0.13475 -0.548987
v 0.526882 0.054 -0.526882
v 0.522364 0.13475 -0.522364
v 0.383615 0.14425 -0.515648
v 0.376898 0.13475 -0.522366
v 0.423008 0.13475 -0.548987
v 0.425467 0.14425 -0.53981
v 0.476253 0.13475 -0.548987
v 0.473794 0.14425 -0.53981
v 0.522364 0.13475 -0.522364
v 0.515647 0.14425 -0.515647
v 0.292924 0.14425 -0.438392
v 0.292924 0.14425 -0.438392
v 0.422385 0.0065 -0.576737
v 0.421354 0.054 -0.555158
v 0.37191 0.054 -0.526413
v 0.367676 0.0065 -0.545906
v 0.487622 0.0065 -0.576737
v 0.477906 0.054 -0.555158
v 0.544119 0.0065 -0.544119
v 0.526882 0.054 -0.526882
v 0.487116 0.14425 -0.20177
v 0.368628 0.2345 -0.152691
v 0.369094 0.2345 -0.369094
v 0.369094 0.2345 -0.369094
v 0.152691 0.2345 -0.368628
v 0.20177 0.14425 -0.487115
v 0.369094 0.2345 -0.369094
v 0.368628 0.2345 -0.152691
v 0.331756 0.2345 -0.221672
v 0.282136 0.2345 -0.282136
v 0.221673 0.2345 -0.331756
v 0.152691 0.2345 -0.368628
v 0.383615 0.14425 -0.515648
v 0.372822 0.14425 -0.372822
v 0.292924 0.14425 -0.438392
v 0.37191 0.054 -0.526413
v 0.358898 0.0065 -0.537129
v 0.37191 0.054 -0.526413
v 0.555158 0.054 -0.421354
v 0.526413 0.054 -0.37191
v 0.522366 0.13475 -0.376898
v 0.548987 0.13475 -0.423008
v 0.555158 0.054 -0.477906
v 0.548987 0.13475 -0.476253
v 0.548987 0.13475 -0.423008
v 0.522366 0.13475 -0.376898
v 0.515648 0.14425 -0.383615
v 0.53981 0.14425 -0.425467
v 0.548987 0.13475 -0.476253
v 0.53981 0.14425 -0.473794
v 0.438392 0.14425 -0.292924
v 0.438392 0.14425 -0.292924
v 0.526413 0.054 -0.37191
v 0.555158 0.054 -0.421354
v 0.576737 0.0065 -0.422385
v 0.545906 0.0065 -0.367675
v 0.555158 0.054 -0.477906
v 0.576737 0.0065 -0.487622
v 0.438392 0.14425 -0.292924
v 0.515648 0.14425 -0.383615
v 0.526413 0.054 -0.37191
v 0.537129 0.0065 -0.358898
v 0.526413 0.054 -0.37191
v 0.53981 0.14425 -0.425467
v 0.53981 0.14425 -0.473794
v 0.515647 0.14425 -0.515647
v 0.473794 0.14425 -0.53981
v 0.425467 0.14425 -0.53981
v 0.438392 0.14425 -0.292924
v 0.487116 0.14425 -0.20177
v 0.369094 0.2345 -0.369094
v 0.372822 0.14425 -0.372822
v 0.292924 0.14425 -0.438392
v 0.20177 0.14425 -0.487115
v -0.247214 0.054 -0.596826
v -0.247214 0.0065 -0.596826
v -0.126028 0.0065 -0.633587
v -0.126028 0.054 -0.633587
v 0.126028 0.054 -0.633587
v 0.126028 0.0065 -0.633587
v -0.20177 0.14425 -0.487115
v -0.247214 0.054 -0.596826
v -0.126028 0.054 -0.633587
v -0.102861 0.14425 -0.517119
v 0.102861 0.14425 -0.517119
v 0.126028 0.054 -0.633587
v -0.149055 0.2535 -0.359851
v -0.152691 0.2345 -0.368628
v -0.077841 0.2345 -0.391333
v -0.075988 0.2535 -0.382016
v 0 0.2345 -0.399
v 0 0.2535 -0.3895
v 0.077841 0.2345 -0.391333
v 0.075988 0.2535 -0.382016
v -0.149055 0.2535 -0.359851
v -0.075988 0.2535 -0.382016
v 0 0.2535 -0.3895
v 0.075988 0.2535 -0.382016
v -0.102861 0.13475 -0.635875
v -0.10925 0.054 -0.63521
v -0.094613 0.054 -0.690498
v -0.089081 0.13475 -0.687304
v -0.054625 0.054 -0.730486
v -0.051431 0.13475 -0.724954
v 0 0.054 -0.745123
v 0 0.13475 -0.738734
v -0.093361 0.14425 -0.635875
v -0.102861 0.13475 -0.635875
v -0.089081 0.13475 -0.687304
v -0.080853 0.14425 -0.682554
v -0.051431 0.13475 -0.724954
v -0.046681 0.14425 -0.716726
v 0 0.13475 -0.738734
v 0 0.14425 -0.729234
v -0.102861 0.14425 -0.517119
v -0.102861 0.14425 -0.517119
v -0.109144 0.0065 -0.706486
v -0.094613 0.054 -0.690498
v -0.10925 0.054 -0.63521
v -0.126028 0.0065 -0.646
v -0.063014 0.0065 -0.752615
v -0.054625 0.054 -0.730486
v 0 0.0065 -0.7695
v 0 0.054 -0.745123
v 0.20177 0.14425 -0.487115
v 0.152691 0.2345 -0.368628
v 0 0.2345 -0.521977
v 0 0.2345 -0.521977
v -0.152691 0.2345 -0.368628
v -0.20177 0.14425 -0.487115
v 0 0.2345 -0.521977
v 0.152691 0.2345 -0.368628
v 0.077841 0.2345 -0.391333
v 0 0.2345 -0.399
v -0.077841 0.2345 -0.391333
v -0.152691 0.2345 -0.368628
v -0.093361 0.14425 -0.635875
v 0 0.14425 -0.52725
v -0.102861 0.14425 -0.517119
v -0.10925 0.054 -0.63521
v -0.126028 0.0065 -0.633587
v -0.10925 0.054 -0.63521
v 0.094613 0.054 -0.690498
v 0.10925 0.054 -0.63521
v 0.102861 0.13475 -0.635875
v 0.089081 0.13475 -0.687304
v 0.054625 0.054 -0.730486
v 0.051431 0.13475 -0.724954
v 0.089081 0.13475 -0.687304
v 0.102861 0.13475 -0.635875
v 0.093361 0.14425 -0.635875
v 0.080853 0.14425 -0.682554
v 0.051431 0.13475 -0.724954
v 0.046681 0.14425 -0.716726
v 0.102861 0.14425 -0.517119
v 0.102861 0.14425 -0.517119
v 0.10925 0.054 -0.63521
v 0.094613 0.054 -0.690498
v 0.109144 0.0065 -0.706486
v 0.126028 0.0065 -0.646
v 0.054625 0.054 -0.730486
v 0.063014 0.0065 -0.752615
v 0.102861 0.14425 -0.517119
v 0.093361 0.14425 -0.635875
v 0.10925 0.054 -0.63521
v 0.126028 0.0065 -0.633587
v 0.10925 0.054 -0.63521
v 0.080853 0.14425 -0.682554
v 0.046681 0.14425 -0.716726
v 0 0.14425 -0.729234
v -0.046681 0.14425 -0.716726
v -0.080853 0.14425 -0.682554
v 0.102861 0.14425 -0.517119
v 0.20177 0.14425 -0.487115
v 0 0.2345 -0.521977
v 0 0.14425 -0.52725
v -0.102861 0.14425 -0.517119
v -0.20177 0.14425 -0.487115
v -0.596826 0.054 -0.247213
v -0.596826 0.0065 -0.247213
v -0.537129 0.0065 -0.358898
v -0.537129 0.054 -0.358898
v -0.358898 0.054 -0.537129
v -0.358898 0.0065 -0.537129
v -0.487116 0.14425 -0.20177
v -0.596826 0.054 -0.247213
v -0.537129 0.054 -0.358898
v -0.438392 0.14425 -0.292924
v -0.292924 0.14425 -0.438392
v -0.358898 0.054 -0.537129
v -0.359851 0.2535 -0.149055
v -0.368628 0.2345 -0.152691
v -0.331756 0.2345 -0.221672
v -0.323857 0.2535 -0.216395
v -0.282136 0.2345 -0.282136
v -0.275418 0.2535 -0.275418
v -0.221673 0.2345 -0.331756
v -0.216395 0.2535 -0.323857
v -0.359851 0.2535 -0.149055
v -0.323857 0.2535 -0.216395
v -0.275418 0.2535 -0.275418
v -0.216395 0.2535 -0.323857
v -0.522366 0.13475 -0.376898
v -0.526413 0.054 -0.37191
v -0.555158 0.054 -0.421354
v -0.548987 0.13475 -0.423008
v -0.555158 0.054 -0.477906
v -0.548987 0.13475 -0.476253
v -0.526882 0.054 -0.526882
v -0.522364 0.13475 -0.522364
v -0.515648 0.14425 -0.383615
v -0.522366 0.13475 -0.376898
v -0.548987 0.13475 -0.423008
v -0.53981 0.14425 -0.425467
v -0.548987 0.13475 -0.476253
v -0.53981 0.14425 -0.473794
v -0.522364 0.13475 -0.522364
v -0.515647 0.14425 -0.515647
v -0.438392 0.14425 -0.292924
v -0.438392 0.14425 -0.292924
v -0.576737 0.0065 -0.422385
v -0.555158 0.054 -0.421354
v -0.526413 0.054 -0.37191
v -0.545906 0.0065 -0.367675
v -0.576737 0.0065 -0.487622
v -0.555158 0.054 -0.477906
v -0.544119 0.0065 -0.544119
v -0.526882 0.054 -0.526882
v -0.20177 0.14425 -0.487115
v -0.152691 0.2345 -0.368628
v -0.369094 0.2345 -0.369094
v -0.369094 0.2345 -0.369094
v -0.368628 0.2345 -0.152691
v -0.487116 0.14425 -0.20177
v -0.369094 0.2345 -0.369094
v -0.152691 0.2345 -0.368628
v -0.221673 0.2345 -0.331756
v -0.282136 0.2345 -0.282136
v -0.331756 0.2345 -0.221672
v -0.368628 0.2345 -0.152691
v -0.515648 0.14425 -0.383615
v -0.372822 0.14425 -0.372822
v -0.438392 0.14425 -0.292924
v -0.526413 0.054 -0.37191
v -0.537129 0.0065 -0.358898
v -0.526413 0.054 -0.37191
v -0.421354 0.054 -0.555158
v -0.37191 0.054 -0.526413
v -0.376898 0.13475 -0.522366
v -0.423008 0.13475 -0.548987
v -0.477906 0.054 -0.555158
v -0.476253 0.13475 -0.548987
v -0.423008 0.13475 -0.548987
v -0.376898 0.13475 -0.522366
v -0.383615 0.14425 -0.515648
v -0.425467 0.14425 -0.53981
v -0.476253 0.13475 -0.548987
v -0.473794 0.14425 -0.53981
v -0.292924 0.14425 -0.438392
v -0.292924 0.14425 -0.438392
v -0.37191 0.054 -0.526413
v -0.421354 0.054 -0.555158
v -0.422385 0.0065 -0.576737
v -0.367676 0.0065 -0.545906
v -0.477906 0.054 -0.555158
v -0.487622 0.0065 -0.576737
v -0.292924 0.14425 -0.438392
v -0.383615 0.14425 -0.515648
v -0.37191 0.054 -0.526413
v -0.358898 0.0065 -0.537129
v -0.37191 0.054 -0.526413
v -0.425467 0.14425 -0.53981
v -0.473794 0.14425 -0.53981
v -0.515647 0.14425 -0.515647
v -0.53981 0.14425 -0.473794
v -0.53981 0.14425 -0.425467
v -0.292924 0.14425 -0.438392
v -0.20177 0.14425 -0.487115
v -0.369094 0.2345 -0.369094
v -0.372822 0.14425 -0.372822
v -0.438392 0.14425 -0.292924
v -0.487116 0.14425 -0.20177
v -0.596826 0.054 0.247213
v -0.596826 0.0065 0.247213
v -0.633587 0.0065 0.126028
v -0.633587 0.054 0.126028
v -0.633587 0.054 -0.126028
v -0.633587 0.0065 -0.126028
v -0.487116 0.14425 0.20177
v -0.596826 0.054 0.247213
v -0.633587 0.054 0.126028
v -0.517119 0.14425 0.102861
v -0.517119 0.14425 -0.102861
v -0.633587 0.054 -0.126028
v -0.359851 0.2535 0.149055
v -0.368628 0.2345 0.152691
v -0.391333 0.2345 0.077841
v -0.382016 0.2535 0.075988
v -0.399 0.2345 0
v -0.3895 0.2535 0
v -0.391333 0.2345 -0.077841
v -0.382016 0.2535 -0.075988
v -0.359851 0.2535 0.149055
v -0.382016 0.2535 0.075988
v -0.3895 0.2535 0
v -0.382016 0.2535 -0.075988
v -0.635875 0.13475 0.102861
v -0.63521 0.054 0.10925
v -0.690498 0.054 0.094613
v -0.687304 0.13475 0.089081
v -0.730486 0.054 0.054625
v -0.724954 0.13475 0.051431
v -0.745123 0.054 0
v -0.738735 0.13475 0
v -0.635875 0.14425 0.093361
v -0.635875 0.13475 0.102861
v -0.687304 0.13475 0.089081
v -0.682554 0.14425 0.080853
v -0.724954 0.13475 0.051431
v -0.716726 0.14425 0.046681
v -0.738735 0.13475 0
v -0.729235 0.14425 0
v -0.517119 0.14425 0.102861
v -0.517119 0.14425 0.102861
v -0.706486 0.0065 0.109144
v -0.690498 0.054 0.094613
v -0.63521 0.054 0.10925
v -0.646 0.0065 0.126028
v -0.752615 0.0065 0.063014
v -0.730486 0.054 0.054625
v -0.7695 0.0065 0
v -0.745123 0.054 0
v -0.487116 0.14425 -0.20177
v -0.368628 0.2345 -0.152691
v -0.521978 0.2345 0
v -0.521978 0.2345 0
v -0.368628 0.2345 0.152691
v -0.487116 0.14425 0.20177
v -0.521978 0.2345 0
v -0.368628 0.2345 -0.152691
v -0.391333 0.2345 -0.077841
v -0.399 0.2345 0
v -0.391333 0.2345 0.077841
v -0.368628 0.2345 0.152691
v -0.635875 0.14425 0.093361
v -0.52725 0.14425 0
v -0.517119 0.14425 0.102861
v -0.63521 0.054 0.10925
v -0.633587 0.0065 0.126028
v -0.63521 0.054 0.10925
v -0.690498 0.054 -0.094613
v -0.63521 0.054 -0.10925
v -0.635875 0.13475 -0.102861
v -0.687304 0.13475 -0.089081
v -0.730486 0.054 -0.054625
v -0.724954 0.13475 -0.051431
v -0.687304 0.13475 -0.089081
v -0.635875 0.13475 -0.102861
v -0.635875 0.14425 -0.093361
v -0.682554 0.14425 -0.080853
v -0.724954 0.13475 -0.051431
v -0.716726 0.14425 -0.046681
v -0.517119 0.14425 -0.102861
v -0.517119 0.14425 -0.102861
v -0.63521 0.054 -0.10925
v -0.690498 0.054 -0.094613
v -0.706486 0.0065 -0.109144
v -0.646 0.0065 -0.126028
v -0.730486 0.054 -0.054625
v -0.752615 0.0065 -0.063014
v -0.517119 0.14425 -0.102861
v -0.635875 0.14425 -0.093361
v -0.63521 0.054 -0.10925
v -0.633587 0.0065 -0.126028
v -0.63521 0.054 -0.10925
v -0.682554 0.14425 -0.080853
v -0.716726 0.14425 -0.046681
v -0.729235 0.14425 0
v -0.716726 0.14425 0.046681
v -0.682554 0.14425 0.080853
v -0.517119 0.14425 -0.102861
v -0.487116 0.14425 -0.20177
v -0.521978 0.2345 0
v -0.52725 0.14425 0
v -0.517119 0.14425 0.102861
v -0.487116 0.14425 0.20177
v -0.247213 0.054 0.596826
v -0.247213 0.0065 0.596826
v -0.358898 0.0065 0.537129
v -0.358898 0.054 0.537129
v -0.537129 0.054 0.358898
v -0.537129 0.0065 0.358898
v -0.20177 0.14425 0.487115
v -0.247213 0.054 0.596826
v -0.358898 0.054 0.537129
v -0.292924 0.14425 0.438392
v -0.438392 0.14425 0.292924
v -0.537129 0.054 0.358898
v -0.149055 0.2535 0.359851
v -0.152691 0.2345 0.368628
v -0.221673 0.2345 0.331756
v -0.216395 0.2535 0.323857
v -0.282136 0.2345 0.282136
v -0.275418 0.2535 0.275418
v -0.331756 0.2345 0.221672
v -0.323857 0.2535 0.216395
v -0.149055 0.2535 0.359851
v -0.216395 0.2535 0.323857
v -0.275418 0.2535 0.275418
v -0.323857 0.2535 0.216395
v -0.376898 0.13475 0.522366
v -0.37191 0.054 0.526413
v -0.421354 0.054 0.555158
v -0.423008 0.13475 0.548987
v -0.477906 0.054 0.555158
v -0.476253 0.13475 0.548987
v -0.526882 0.054 0.526882
v -0.522364 0.13475 0.522364
v -0.383615 0.14425 0.515648
v -0.376898 0.13475 0.522366
v -0.423008 0.13475 0.548987
v -0.425467 0.14425 0.53981
v -0.476253 0.13475 0.548987
v -0.473794 0.14425 0.53981
v -0.522364 0.13475 0.522364
v -0.515647 0.14425 0.515647
v -0.292924 0.14425 0.438392
v -0.292924 0.14425 0.438392
v -0.422385 0.0065 0.576737
v -0.421354 0.054 0.555158
v -0.37191 0.054 0.526413
v -0.367676 0.0065 0.545906
v -0.487622 0.0065 0.576737
v -0.477906 0.054 0.555158
v -0.544119 0.0065 0.544119
v -0.526882 0.054 0.526882
v -0.487116 0.14425 0.20177
v -0.368628 0.2345 0.152691
v -0.369094 0.2345 0.369094
v -0.369094 0.2345 0.369094
v -0.152691 0.2345 0.368628
v -0.20177 0.14425 0.487115
v -0.369094 0.2345 0.369094
v -0.368628 0.2345 0.152691
v -0.331756 0.2345 0.221672
v -0.282136 0.2345 0.282136
v -0.221673 0.2345 0.331756
v -0.152691 0.2345 0.368628
v -0.383615 0.14425 0.515648
v -0.372822 0.14425 0.372822
v -0.292924 0.14425 0.438392
v -0.37191 0.054 0.526413
v -0.358898 0.0065 0.537129
v -0.37191 0.054 0.526413
v -0.555158 0.054 0.421354
v -0.526413 0.054 0.37191
v -0.522366 0.13475 0.376898
v -0.548987 0.13475 0.423008
v -0.555158 0.054 0.477906
v -0.548987 0.13475 0.476253
v -0.548987 0.13475 0.423008
v -0.522366 0.13475 0.376898
v -0.515648 0.14425 0.383615
v -0.53981 0.14425 0.425467
v -0.548987 0.13475 0.476253
v -0.53981 0.14425 0.473794
v -0.438392 0.14425 0.292924
v -0.438392 0.14425 0.292924
v -0.526413 0.054 0.37191
v -0.555158 0.054 0.421354
v -0.576737 0.0065 0.422385
v -0.545906 0.0065 0.367675
v -0.555158 0.054 0.477906
v -0.576737 0.0065 0.487622
v -0.438392 0.14425 0.292924
v -0.515648 0.14425 0.383615
v -0.526413 0.054 0.37191
v -0.537129 0.0065 0.358898
v -0.526413 0.054 0.37191
v -0.53981 0.14425 0.425467
v -0.53981 0.14425 0.473794
v -0.515647 0.14425 0.515647
v -0.473794 0.14425 0.53981
v -0.425467 0.14425 0.53981
v -0.438392 0.14425 0.292924
v -0.487116 0.14425 0.20177
v -0.369094 0.2345 0.369094
v -0.372822 0.14425 0.372822
v -0.292924 0.14425 0.438392
v -0.20177 0.14425 0.487115
v 0.247213 0.054 0.596826
v 0.247213 0.0065 0.596826
v 0.126028 0.0065 0.633587
v 0.126028 0.054 0.633587
v -0.126028 0.054 0.633587
v -0.126028 0.0065 0.633587
v 0.20177 0.14425 0.487115
v 0.247213 0.054 0.596826
v 0.126028 0.054 0.633587
v 0.102861 0.14425 0.517119
v -0.102861 0.14425 0.517119
v -0.126028 0.054 0.633587
v 0.149055 0.2535 0.359851
v 0.152691 0.2345 0.368628
v 0.077841 0.2345 0.391333
v 0.075988 0.2535 0.382016
v 0 0.2345 0.399
v 0 0.2535 0.3895
v -0.077841 0.2345 0.391333
v -0.075988 0.2535 0.382016
v 0.149055 0.2535 0.359851
v 0.075988 0.2535 0.382016
v 0 0.2535 0.3895
v -0.075988 0.2535 0.382016
v 0.102861 0.13475 0.635875
v 0.10925 0.054 0.63521
v 0.094613 0.054 0.690498
v 0.089081 0.13475 0.687304
v 0.054625 0.054 0.730486
v 0.051431 0.13475 0.724954
v 0 0.054 0.745123
v 0 0.13475 0.738734
v 0.093361 0.14425 0.635875
v 0.102861 0.13475 0.635875
v 0.089081 0.13475 0.687304
v 0.080853 0.14425 0.682554
v 0.051431 0.13475 0.724954
v 0.046681 0.14425 0.716726
v 0 0.13475 0.738734
v 0 0.14425 0.729234
v 0.102861 0.14425 0.517119
v 0.102861 0.14425 0.517119
v 0.109144 0.0065 0.706486
v 0.094613 0.054 0.690498
v 0.10925 0.054 0.63521
v 0.126028 0.0065 0.646
v 0.063014 0.0065 0.752615
v 0.054625 0.054 0.730486
v 0 0.0065 0.7695
v 0 0.054 0.745123
v -0.20177 0.14425 0.487115
v -0.152691 0.2345 0.368628
v 0 0.2345 0.521977
v 0 0.2345 0.521977
v 0.152691 0.2345 0.368628
v 0.20177 0.14425 0.487115
v 0 0.2345 0.521977
v -0.152691 0.2345 0.368628
v -0.077841 0.2345 0.391333
v 0 0.2345 0.399
v 0.077841 0.2345 0.391333
v 0.152691 0.2345 0.368628
v 0.093361 0.14425 0.635875
v 0 0.14425 0.52725
v 0.102861 0.14425 0.517119
v 0.10925 0.054 0.63521
v 0.126028 0.0065 0.633587
v 0.10925 0.054 0.63521
v -0.094613 0.054 0.690498
v -0.10925 0.054 0.63521
v -0.102861 0.13475 0.635875
v -0.089081 0.13475 0.687304
v -0.054625 0.054 0.730486
v -0.051431 0.13475 0.724954
v -0.089081 0.13475 0.687304
v -0.102861 0.13475 0.635875
v -0.093361 0.14425 0.635875
v -0.080853 0.14425 0.682554
v -0.051431 0.13475 0.724954
v -0.046681 0.14425 0.716726
v -0.102861 0.14425 0.517119
v -0.102861 0.14425 0.517119
v -0.10925 0.054 0.63521
v -0.094613 0.054 0.690498
v -0.109144 0.0065 0.706486
v -0.126028 0.0065 0.646
v -0.054625 0.054 0.730486
v -0.063014 0.0065 0.752615
v -0.102861 0.14425 0.517119
v -0.093361 0.14425 0.635875
v -0.10925 0.054 0.63521
v -0.126028 0.0065 0.633587
v -0.10925 0.054 0.63521
v -0.080853 0.14425 0.682554
v -0.046681 0.14425 0.716726
v 0 0.14425 0.729234
v 0.046681 0.14425 0.716726
v 0.080853 0.14425 0.682554
v -0.102861 0.14425 0.517119
v -0.20177 0.14425 0.487115
v 0 0.2345 0.521977
v 0 0.14425 0.52725
v 0.102861 0.14425 0.517119
v 0.20177 0.14425 0.487115
v 0.537129 0.0065 0.358898
v 0.537129 0.054 0.358898
v 0.358898 0.054 0.537129
v 0.358898 0.0065 0.537129
v 0.537129 0.054 0.358898
v 0.438392 0.14425 0.292924
v 0.292924 0.14425 0.438392
v 0.358898 0.054 0.537129
v 0.331756 0.2345 0.221672
v 0.323857 0.2535 0.216395
v 0.282136 0.2345 0.282136
v 0.275418 0.2535 0.275418
v 0.221673 0.2345 0.331756
v 0.216395 0.2535 0.323857
v 0.323857 0.2535 0.216395
v 0.275418 0.2535 0.275418
v 0.216395 0.2535 0.323857
v 0.522366 0.13475 0.376898
v 0.526413 0.054 0.37191
v 0.555158 0.054 0.421354
v 0.548987 0.13475 0.423008
v 0.555158 0.054 0.477906
v 0.548987 0.13475 0.476253
v 0.526882 0.054 0.526882
v 0.522364 0.13475 0.522364
v 0.515648 0.14425 0.383615
v 0.522366 0.13475 0.376898
v 0.548987 0.13475 0.423008
v 0.53981 0.14425 0.425467
v 0.548987 0.13475 0.476253
v 0.53981 0.14425 0.473794
v 0.522364 0.13475 0.522364
v 0.515647 0.14425 0.515647
v 0.438392 0.14425 0.292924
v 0.438392 0.14425 0.292924
v 0.576737 0.0065 0.422385
v 0.555158 0.054 0.421354
v 0.526413 0.054 0.37191
v 0.545906 0.0065 0.367675
v 0.576737 0.0065 0.487622
v 0.555158 0.054 0.477906
v 0.544119 0.0065 0.544119
v 0.526882 0.054 0.526882
v 0.20177 0.14425 0.487115
v 0.152691 0.2345 0.368628
v 0.369094 0.2345 0.369094
v 0.369094 0.2345 0.369094
v 0.368628 0.2345 0.152691
v 0.487116 0.14425 0.20177
v 0.369094 0.2345 0.369094
v 0.152691 0.2345 0.368628
v 0.221673 0.2345 0.331756
v 0.282136 0.2345 0.282136
v 0.331756 0.2345 0.221672
v 0.368628 0.2345 0.152691
v 0.515648 0.14425 0.383615
v 0.372822 0.14425 0.372822
v 0.438392 0.14425 0.292924
v 0.526413 0.054 0.37191
v 0.537129 0.0065 0.358898
v 0.526413 0.054 0.37191
v 0.421354 0.054 0.555158
v 0.37191 0.054 0.526413
v 0.376898 0.13475 0.522366
v 0.423008 0.13475 0.548987
v 0.477906 0.054 0.555158
v 0.476253 0.13475 0.548987
v 0.423008 0.13475 0.548987
v 0.376898 0.13475 0.522366
v 0.383615 0.14425 0.515648
v 0.425467 0.14425 0.53981
v 0.476253 0.13475 0.548987
v 0.473794 0.14425 0.53981
v 0.292924 0.14425 0.438392
v 0.292924 0.14425 0.438392
v 0.37191 0.054 0.526413
v 0.421354 0.054 0.555158
v 0.422385 0.0065 0.576737
v 0.367676 0.0065 0.545906
v 0.477906 0.054 0.555158
v 0.487622 0.0065 0.576737
v 0.292924 0.14425 0.438392
v 0.383615 0.14425 0.515648
v 0.37191 0.054 0.526413
v 0.358898 0.0065 0.537129
v 0.37191 0.054 0.526413
v 0.425467 0.14425 0.53981
v 0.473794 0.14425 0.53981
v 0.515647 0.14425 0.515647
v 0.53981 0.14425 0.473794
v 0.53981 0.14425 0.425467
v 0.292924 0.14425 0.438392
v 0.20177 0.14425 0.487115
v 0.369094 0.2345 0.369094
v 0.372822 0.14425 0.372822
v 0.438392 0.14425 0.292924
v 0.487116 0.14425 0.20177
vt 0.660633 0.11219901
vt 0.662239 0.10832101
vt 0.582709 0.08419502
vt 0.58189 0.08831203
vt 0.41811 0.08831203
vt 0.417291 0.08419502
vt 0.337761 0.10832101
vt 0.339367 0.11219901
vt 0.631105 0.18348598
vt 0.660633 0.11219901
vt 0.58189 0.08831203
vt 0.566836 0.16399002
vt 0.433164 0.16399002
vt 0.41811 0.08831203
vt 0.339367 0.11219901
vt 0.368896 0.18348598
vt 0.596852 0.26617897
vt 0.600206 0.25808
vt 0.551085 0.24318004
vt 0.549375 0.251777
vt 0.5 0.23814797
vt 0.5 0.24691403
vt 0.448915 0.24318004
vt 0.450625 0.251777
vt 0.399794 0.25808
vt 0.403148 0.26617897
vt 0.5 0.5
vt 0.596852 0.26617897
vt 0.549375 0.251777
vt 0.5 0.24691403
vt 0.450625 0.251777
vt 0.403148 0.26617897
vt 0.566836 0.08682597
vt 0.574609 0.087279975
vt 0.564613 0.049522996
vt 0.557882 0.05340898
vt 0.537304 0.022213995
vt 0.533418 0.028945029
vt 0.5 0.0122179985
vt 0.5 0.01999098
vt 0.560664 0.08682597
vt 0.566836 0.08682597
vt 0.557882 0.05340898
vt 0.552536 0.05649501
vt 0.533418 0.028945029
vt 0.530332 0.03429103
vt 0.5 0.01999098
vt 0.5 0.026162982
vt 0.566836 0.16399002
vt 0.566836 0.16399002
vt 0.570919 0.040944993
vt 0.564613 0.049522996
vt 0.574609 0.087279975
vt 0.58189 0.080246985
vt 0.540945 0.01097101
vt 0.537304 0.022213995
vt 0.5 0
vt 0.5 0.0122179985
vt 0.368896 0.18348598
vt 0.399794 0.25808
vt 0.5 0.16422498
vt 0.5 0.16422498
vt 0.600206 0.25808
vt 0.631105 0.18348598
vt 0.5 0.16422498
vt 0.399794 0.25808
vt 0.448915 0.24318004
vt 0.5 0.23814797
vt 0.551085 0.24318004
vt 0.600206 0.25808
vt 0.560664 0.08682597
vt 0.5 0.15398198
vt 0.566836 0.16399002
vt 0.574609 0.087279975
vt 0.582709 0.08419502
vt 0.574609 0.087279975
vt 0.435387 0.049522996
vt 0.425391 0.087279975
vt 0.433164 0.08682597
vt 0.442118 0.05340898
vt 0.462696 0.022213995
vt 0.466582 0.028945029
vt 0.442118 0.05340898
vt 0.433164 0.08682597
vt 0.439336 0.08682597
vt 0.447464 0.05649501
vt 0.466582 0.028945029
vt 0.469668 0.03429103
vt 0.433164 0.16399002
vt 0.433164 0.16399002
vt 0.425391 0.087279975
vt 0.435387 0.049522996
vt 0.429081 0.040944993
vt 0.41811 0.080246985
vt 0.462696 0.022213995
vt 0.459055 0.01097101
vt 0.433164 0.16399002
vt 0.439336 0.08682597
vt 0.425391 0.087279975
vt 0.417291 0.08419502
vt 0.425391 0.087279975
vt 0.447464 0.05649501
vt 0.469668 0.03429103
vt 0.5 0.026162982
vt 0.530332 0.03429103
vt 0.552536 0.05649501
vt 0.433164 0.16399002
vt 0.368896 0.18348598
vt 0.5 0.16422498
vt 0.5 0.15398198
vt 0.566836 0.16399002
vt 0.631105 0.18348598
vt 0.887801 0.33936703
vt 0.891679 0.33776104
vt 0.852502 0.264466
vt 0.849012 0.26679802
vt 0.733202 0.15098798
vt 0.735534 0.14749801
vt 0.816514 0.368895
vt 0.887801 0.33936703
vt 0.849012 0.26679802
vt 0.784855 0.30966604
vt 0.690334 0.21514499
vt 0.733202 0.15098798
vt 0.733821 0.403148
vt 0.74192 0.39979398
vt 0.717722 0.354523
vt 0.710434 0.359393
vt 0.685157 0.314843
vt 0.678959 0.321041
vt 0.645477 0.282278
vt 0.640607 0.28956604
vt 0.733821 0.403148
vt 0.710434 0.359393
vt 0.678959 0.321041
vt 0.640607 0.28956604
vt 0.839419 0.25510204
vt 0.844594 0.26091897
vt 0.864224 0.227153
vt 0.856717 0.22514099
vt 0.864224 0.18853301
vt 0.856717 0.19054401
vt 0.844914 0.15508598
vt 0.839418 0.160582
vt 0.835054 0.250737
vt 0.839419 0.25510204
vt 0.856717 0.22514099
vt 0.850754 0.223544
vt 0.856717 0.19054401
vt 0.850754 0.19214201
vt 0.839418 0.160582
vt 0.835053 0.16494703
vt 0.784855 0.30966604
vt 0.784855 0.30966604
vt 0.874748 0.225546
vt 0.864224 0.227153
vt 0.844594 0.26091897
vt 0.854715 0.261095
vt 0.874748 0.18315697
vt 0.864224 0.18853301
vt 0.853553 0.146447
vt 0.844914 0.15508598
vt 0.631105 0.18348598
vt 0.600206 0.25808
vt 0.737429 0.26257098
vt 0.737429 0.26257098
vt 0.74192 0.39979398
vt 0.816514 0.368895
vt 0.737429 0.26257098
vt 0.600206 0.25808
vt 0.645477 0.282278
vt 0.685157 0.314843
vt 0.717722 0.354523
vt 0.74192 0.39979398
vt 0.835054 0.250737
vt 0.744672 0.255328
vt 0.784855 0.30966604
vt 0.844594 0.26091897
vt 0.852502 0.264466
vt 0.844594 0.26091897
vt 0.772847 0.13577598
vt 0.739081 0.155406
vt 0.744898 0.160581
vt 0.774859 0.14328301
vt 0.811467 0.13577598
vt 0.809456 0.14328301
vt 0.774859 0.14328301
vt 0.744898 0.160581
vt 0.749263 0.16494602
vt 0.776456 0.14924598
vt 0.809456 0.14328301
vt 0.807858 0.14924598
vt 0.690334 0.21514499
vt 0.690334 0.21514499
vt 0.739081 0.155406
vt 0.772847 0.13577598
vt 0.774454 0.12525201
vt 0.738905 0.14528501
vt 0.811467 0.13577598
vt 0.816843 0.12525201
vt 0.690334 0.21514499
vt 0.749263 0.16494602
vt 0.739081 0.155406
vt 0.735534 0.14749801
vt 0.739081 0.155406
vt 0.776456 0.14924598
vt 0.807858 0.14924598
vt 0.835053 0.16494703
vt 0.850754 0.19214201
vt 0.850754 0.223544
vt 0.690334 0.21514499
vt 0.631105 0.18348598
vt 0.737429 0.26257098
vt 0.744672 0.255328
vt 0.784855 0.30966604
vt 0.816514 0.368895
vt 0.887801 0.66063303
vt 0.891679 0.66223902
vt 0.915805 0.582709
vt 0.911688 0.58189
vt 0.911688 0.41811
vt 0.915805 0.417291
vt 0.816514 0.631105
vt 0.887801 0.66063303
vt 0.911688 0.58189
vt 0.83601 0.566836
vt 0.83601 0.433164
vt 0.911688 0.41811
vt 0.733821 0.596852
vt 0.74192 0.60020602
vt 0.75682 0.551085
vt 0.748223 0.549375
vt 0.761852 0.5
vt 0.753086 0.5
vt 0.75682 0.448915
vt 0.748223 0.450625
vt 0.733821 0.596852
vt 0.748223 0.549375
vt 0.753086 0.5
vt 0.748223 0.450625
vt 0.913174 0.566836
vt 0.91272 0.57460898
vt 0.950477 0.56461298
vt 0.946591 0.557882
vt 0.977786 0.53730398
vt 0.971055 0.533418
vt 0.987782 0.5
vt 0.980009 0.5
vt 0.913174 0.560664
vt 0.913174 0.566836
vt 0.946591 0.557882
vt 0.943505 0.552536
vt 0.971055 0.533418
vt 0.965709 0.53033203
vt 0.980009 0.5
vt 0.973837 0.5
vt 0.83601 0.566836
vt 0.83601 0.566836
vt 0.959055 0.57091898
vt 0.950477 0.56461298
vt 0.91272 0.57460898
vt 0.919753 0.58189
vt 0.989029 0.540945
vt 0.977786 0.53730398
vt 1 0.5
vt 0.987782 0.5
vt 0.816514 0.368895
vt 0.74192 0.39979398
vt 0.835775 0.5
vt 0.835775 0.5
vt 0.74192 0.60020602
vt 0.816514 0.631105
vt 0.835775 0.5
vt 0.74192 0.39979398
vt 0.75682 0.448915
vt 0.761852 0.5
vt 0.75682 0.551085
vt 0.74192 0.60020602
vt 0.913174 0.560664
vt 0.846018 0.5
vt 0.83601 0.566836
vt 0.91272 0.57460898
vt 0.915805 0.582709
vt 0.91272 0.57460898
vt 0.950477 0.43538702
vt 0.91272 0.42539096
vt 0.913174 0.433164
vt 0.946591 0.442118
vt 0.977786 0.46269596
vt 0.971055 0.466582
vt 0.946591 0.442118
vt 0.913174 0.433164
vt 0.913174 0.439336
vt 0.943505 0.447464
vt 0.971055 0.466582
vt 0.965709 0.46966803
vt 0.83601 0.433164
vt 0.83601 0.433164
vt 0.91272 0.42539096
vt 0.950477 0.43538702
vt 0.959055 0.42908096
vt 0.919753 0.41811
vt 0.977786 0.46269596
vt 0.989029 0.459055
vt 0.83601 0.433164
vt 0.913174 0.439336
vt 0.91272 0.42539096
vt 0.915805 0.417291
vt 0.91272 0.42539096
vt 0.943505 0.447464
vt 0.965709 0.46966803
vt 0.973837 0.5
vt 0.965709 0.53033203
vt 0.943505 0.552536
vt 0.83601 0.433164
vt 0.816514 0.368895
vt 0.835775 0.5
vt 0.846018 0.5
vt 0.83601 0.566836
vt 0.816514 0.631105
vt 0.660633 0.88780099
vt 0.662239 0.89167899
vt 0.735534 0.85250199
vt 0.733202 0.84901202
vt 0.849012 0.73320198
vt 0.852502 0.735534
vt 0.631105 0.81651402
vt 0.660633 0.88780099
vt 0.733202 0.84901202
vt 0.690334 0.78485501
vt 0.784855 0.69033402
vt 0.849012 0.73320198
vt 0.596852 0.73382097
vt 0.600206 0.74192
vt 0.645477 0.717722
vt 0.640607 0.71043402
vt 0.685157 0.685157
vt 0.678959 0.678959
vt 0.717722 0.645477
vt 0.710434 0.640607
vt 0.596852 0.73382097
vt 0.640607 0.71043402
vt 0.678959 0.678959
vt 0.710434 0.640607
vt 0.744898 0.839419
vt 0.739081 0.844594
vt 0.772847 0.86422402
vt 0.774859 0.85671699
vt 0.811467 0.86422402
vt 0.809456 0.85671699
vt 0.844914 0.84491402
vt 0.839418 0.839418
vt 0.749263 0.83505398
vt 0.744898 0.839419
vt 0.774859 0.85671699
vt 0.776456 0.85075402
vt 0.809456 0.85671699
vt 0.807858 0.85075402
vt 0.839418 0.839418
vt 0.835053 0.83505303
vt 0.690334 0.78485501
vt 0.690334 0.78485501
vt 0.774454 0.87474799
vt 0.772847 0.86422402
vt 0.739081 0.844594
vt 0.738905 0.85471499
vt 0.816843 0.87474799
vt 0.811467 0.86422402
vt 0.853553 0.853553
vt 0.844914 0.84491402
vt 0.816514 0.631105
vt 0.74192 0.60020602
vt 0.737429 0.73742902
vt 0.737429 0.73742902
vt 0.600206 0.74192
vt 0.631105 0.81651402
vt 0.737429 0.73742902
vt 0.74192 0.60020602
vt 0.717722 0.645477
vt 0.685157 0.685157
vt 0.645477 0.717722
vt 0.600206 0.74192
vt 0.749263 0.83505398
vt 0.744672 0.744672
vt 0.690334 0.78485501
vt 0.739081 0.844594
vt 0.735534 0.85250199
vt 0.739081 0.844594
vt 0.864224 0.772847
vt 0.844594 0.73908103
vt 0.839419 0.74489802
vt 0.856717 0.77485901
vt 0.864224 0.81146699
vt 0.856717 0.80945599
vt 0.856717 0.77485901
vt 0.839419 0.74489802
vt 0.835054 0.749263
vt 0.850754 0.776456
vt 0.856717 0.80945599
vt 0.850754 0.80785799
vt 0.784855 0.69033402
vt 0.784855 0.69033402
vt 0.844594 0.73908103
vt 0.864224 0.772847
vt 0.874748 0.774454
vt 0.854715 0.738905
vt 0.864224 0.81146699
vt 0.874748 0.81684297
vt 0.784855 0.69033402
vt 0.835054 0.749263
vt 0.844594 0.73908103
vt 0.852502 0.735534
vt 0.844594 0.73908103
vt 0.850754 0.776456
vt 0.850754 0.80785799
vt 0.835053 0.83505303
vt 0.807858 0.85075402
vt 0.776456 0.85075402
vt 0.784855 0.69033402
vt 0.816514 0.631105
vt 0.737429 0.73742902
vt 0.744672 0.744672
vt 0.690334 0.78485501
vt 0.631105 0.81651402
vt 0.339367 0.88780099
vt 0.337761 0.89167899
vt 0.417291 0.91580498
vt 0.41811 0.91168803
vt 0.58189 0.91168803
vt 0.582709 0.91580498
vt 0.368895 0.81651402
vt 0.339367 0.88780099
vt 0.41811 0.91168803
vt 0.433164 0.83600998
vt 0.566836 0.83600998
vt 0.58189 0.91168803
vt 0.403148 0.73382097
vt 0.399794 0.74192
vt 0.448915 0.75682002
vt 0.450625 0.748223
vt 0.5 0.76185203
vt 0.5 0.75308597
vt 0.551085 0.75682002
vt 0.549375 0.748223
vt 0.403148 0.73382097
vt 0.450625 0.748223
vt 0.5 0.75308597
vt 0.549375 0.748223
vt 0.433164 0.91317397
vt 0.425391 0.912720025
vt 0.435387 0.950477004
vt 0.442118 0.94659102
vt 0.462696 0.977786005
vt 0.466582 0.971054971
vt 0.5 0.9877820015
vt 0.5 0.98000902
vt 0.439336 0.91317397
vt 0.433164 0.91317397
vt 0.442118 0.94659102
vt 0.447464 0.94350499
vt 0.466582 0.971054971
vt 0.469668 0.96570897
vt 0.5 0.98000902
vt 0.5 0.973837018
vt 0.433164 0.83600998
vt 0.433164 0.83600998
vt 0.429081 0.959055007
vt 0.435387 0.950477004
vt 0.425391 0.912720025
vt 0.41811 0.919753015
vt 0.459055 0.98902899
vt 0.462696 0.977786005
vt 0.5 1
vt 0.5 0.9877820015
vt 0.631105 0.81651402
vt 0.600206 0.74192
vt 0.5 0.83577502
vt 0.5 0.83577502
vt 0.399794 0.74192
vt 0.368895 0.81651402
vt 0.5 0.83577502
vt 0.600206 0.74192
vt 0.551085 0.75682002
vt 0.5 0.76185203
vt 0.448915 0.75682002
vt 0.399794 0.74192
vt 0.439336 0.91317397
vt 0.5 0.84601903
vt 0.433164 0.83600998
vt 0.425391 0.912720025
vt 0.417291 0.91580498
vt 0.425391 0.912720025
vt 0.564613 0.950477004
vt 0.574609 0.912720025
vt 0.566836 0.91317397
vt 0.557882 0.94659102
vt 0.537304 0.977786005
vt 0.533418 0.971054971
vt 0.557882 0.94659102
vt 0.566836 0.91317397
vt 0.560664 0.91317397
vt 0.552536 0.94350499
vt 0.533418 0.971054971
vt 0.530332 0.96570897
vt 0.566836 0.83600998
vt 0.566836 0.83600998
vt 0.574609 0.912720025
vt 0.564613 0.950477004
vt 0.570919 0.959055007
vt 0.58189 0.919753015
vt 0.537304 0.977786005
vt 0.540945 0.98902899
vt 0.566836 0.83600998
vt 0.560664 0.91317397
vt 0.574609 0.912720025
vt 0.582709 0.91580498
vt 0.574609 0.912720025
vt 0.552536 0.94350499
vt 0.530332 0.96570897
vt 0.5 0.973837018
vt 0.469668 0.96570897
vt 0.447464 0.94350499
vt 0.566836 0.83600998
vt 0.631105 0.81651402
vt 0.5 0.83577502
vt 0.5 0.84601903
vt 0.433164 0.83600998
vt 0.368895 0.81651402
vt 0.112199 0.660632
vt 0.108321 0.66223902
vt 0.147498 0.735534
vt 0.150988 0.73320198
vt 0.266798 0.84901202
vt 0.264466 0.85250199
vt 0.183486 0.631104
vt 0.112199 0.660632
vt 0.150988 0.73320198
vt 0.215145 0.69033402
vt 0.309666 0.78485501
vt 0.266798 0.84901202
vt 0.266179 0.596852
vt 0.25808 0.60020602
vt 0.282278 0.645477
vt 0.289566 0.640607
vt 0.314843 0.685157
vt 0.321041 0.678959
vt 0.354523 0.717722
vt 0.359393 0.71043402
vt 0.266179 0.596852
vt 0.289566 0.640607
vt 0.321041 0.678959
vt 0.359393 0.71043402
vt 0.160581 0.74489802
vt 0.155406 0.73908103
vt 0.135776 0.772847
vt 0.143283 0.77485901
vt 0.135776 0.81146699
vt 0.143283 0.80945599
vt 0.155086 0.84491402
vt 0.160582 0.839418
vt 0.164946 0.749263
vt 0.160581 0.74489802
vt 0.143283 0.77485901
vt 0.149246 0.776456
vt 0.143283 0.80945599
vt 0.149246 0.80785799
vt 0.160582 0.839418
vt 0.164947 0.83505303
vt 0.215145 0.69033402
vt 0.215145 0.69033402
vt 0.125252 0.774454
vt 0.135776 0.772847
vt 0.155406 0.73908103
vt 0.145285 0.738905
vt 0.125252 0.81684297
vt 0.135776 0.81146699
vt 0.146447 0.853553
vt 0.155086 0.84491402
vt 0.368895 0.81651402
vt 0.399794 0.74192
vt 0.262571 0.73742902
vt 0.262571 0.73742902
vt 0.25808 0.60020602
vt 0.183486 0.631104
vt 0.262571 0.73742902
vt 0.399794 0.74192
vt 0.354523 0.717722
vt 0.314843 0.685157
vt 0.282278 0.645477
vt 0.25808 0.60020602
vt 0.164946 0.749263
vt 0.255328 0.744672
vt 0.215145 0.69033402
vt 0.155406 0.73908103
vt 0.147498 0.735534
vt 0.155406 0.73908103
vt 0.227153 0.86422402
vt 0.260919 0.844594
vt 0.255102 0.839419
vt 0.225141 0.85671699
vt 0.188533 0.86422402
vt 0.190544 0.85671699
vt 0.225141 0.85671699
vt 0.255102 0.839419
vt 0.250737 0.83505398
vt 0.223544 0.85075402
vt 0.190544 0.85671699
vt 0.192142 0.85075402
vt 0.309666 0.78485501
vt 0.309666 0.78485501
vt 0.260919 0.844594
vt 0.227153 0.86422402
vt 0.225546 0.87474799
vt 0.261095 0.85471499
vt 0.188533 0.86422402
vt 0.183157 0.87474799
vt 0.309666 0.78485501
vt 0.250737 0.83505398
vt 0.260919 0.844594
vt 0.264466 0.85250199
vt 0.260919 0.844594
vt 0.223544 0.85075402
vt 0.192142 0.85075402
vt 0.164947 0.83505303
vt 0.149246 0.80785799
vt 0.149246 0.776456
vt 0.309666 0.78485501
vt 0.368895 0.81651402
vt 0.262571 0.73742902
vt 0.255328 0.744672
vt 0.215145 0.69033402
vt 0.183486 0.631104
vt 0.112199 0.33936703
vt 0.108321 0.33776104
vt 0.084195 0.417291
vt 0.088312 0.41811
vt 0.088312 0.58189
vt 0.084195 0.582709
vt 0.183486 0.368895
vt 0.112199 0.33936703
vt 0.088312 0.41811
vt 0.16399 0.433164
vt 0.16399 0.566836
vt 0.088312 0.58189
vt 0.266179 0.403148
vt 0.25808 0.39979398
vt 0.24318 0.448915
vt 0.251777 0.450625
vt 0.238148 0.5
vt 0.246914 0.5
vt 0.24318 0.551085
vt 0.251777 0.549375
vt 0.266179 0.403148
vt 0.251777 0.450625
vt 0.246914 0.5
vt 0.251777 0.549375
vt 0.086826 0.433164
vt 0.08728 0.42539096
vt 0.049523 0.43538702
vt 0.053409 0.442118
vt 0.022214 0.46269596
vt 0.028945 0.466582
vt 0.012218 0.5
vt 0.019991 0.5
vt 0.086826 0.439336
vt 0.086826 0.433164
vt 0.053409 0.442118
vt 0.056495 0.447464
vt 0.028945 0.466582
vt 0.034291 0.46966803
vt 0.019991 0.5
vt 0.026163 0.5
vt 0.16399 0.433164
vt 0.16399 0.433164
vt 0.040945 0.42908096
vt 0.049523 0.43538702
vt 0.08728 0.42539096
vt 0.080247 0.41811
vt 0.010971 0.459055
vt 0.022214 0.46269596
vt 0 0.5
vt 0.012218 0.5
vt 0.183486 0.631104
vt 0.25808 0.60020602
vt 0.164225 0.5
vt 0.164225 0.5
vt 0.25808 0.39979398
vt 0.183486 0.368895
vt 0.164225 0.5
vt 0.25808 0.60020602
vt 0.24318 0.551085
vt 0.238148 0.5
vt 0.24318 0.448915
vt 0.25808 0.39979398
vt 0.086826 0.439336
vt 0.153981 0.5
vt 0.16399 0.433164
vt 0.08728 0.42539096
vt 0.084195 0.417291
vt 0.08728 0.42539096
vt 0.049523 0.56461298
vt 0.08728 0.57460898
vt 0.086826 0.566836
vt 0.053409 0.557882
vt 0.022214 0.53730398
vt 0.028945 0.533418
vt 0.053409 0.557882
vt 0.086826 0.566836
vt 0.086826 0.560664
vt 0.056495 0.552536
vt 0.028945 0.533418
vt 0.034291 0.53033203
vt 0.16399 0.566836
vt 0.16399 0.566836
vt 0.08728 0.57460898
vt 0.049523 0.56461298
vt 0.040945 0.57091898
vt 0.080247 0.58189
vt 0.022214 0.53730398
vt 0.010971 0.540945
vt 0.16399 0.566836
vt 0.086826 0.560664
vt 0.08728 0.57460898
vt 0.084195 0.582709
vt 0.08728 0.57460898
vt 0.056495 0.552536
vt 0.034291 0.53033203
vt 0.026163 0.5
vt 0.034291 0.46966803
vt 0.056495 0.447464
vt 0.16399 0.566836
vt 0.183486 0.631104
vt 0.164225 0.5
vt 0.153981 0.5
vt 0.16399 0.433164
vt 0.183486 0.368895
vt 0.264466 0.14749801
vt 0.266798 0.15098798
vt 0.150988 0.26679802
vt 0.147498 0.264466
vt 0.266798 0.15098798
vt 0.309666 0.21514499
vt 0.215145 0.30966604
vt 0.150988 0.26679802
vt 0.354523 0.282278
vt 0.359393 0.28956604
vt 0.314843 0.314843
vt 0.321041 0.321041
vt 0.282278 0.354523
vt 0.289566 0.359393
vt 0.359393 0.28956604
vt 0.321041 0.321041
vt 0.289566 0.359393
vt 0.255102 0.160581
vt 0.260919 0.155406
vt 0.227153 0.13577598
vt 0.225141 0.14328301
vt 0.188533 0.13577598
vt 0.190544 0.14328301
vt 0.155086 0.15508598
vt 0.160582 0.160582
vt 0.250737 0.16494602
vt 0.255102 0.160581
vt 0.225141 0.14328301
vt 0.223544 0.14924598
vt 0.190544 0.14328301
vt 0.192142 0.14924598
vt 0.160582 0.160582
vt 0.164947 0.16494703
vt 0.309666 0.21514499
vt 0.309666 0.21514499
vt 0.225546 0.12525201
vt 0.227153 0.13577598
vt 0.260919 0.155406
vt 0.261095 0.14528501
vt 0.183157 0.12525201
vt 0.188533 0.13577598
vt 0.146447 0.146447
vt 0.155086 0.15508598
vt 0.183486 0.368895
vt 0.25808 0.39979398
vt 0.262571 0.26257098
vt 0.262571 0.26257098
vt 0.399794 0.25808
vt 0.368896 0.18348598
vt 0.262571 0.26257098
vt 0.25808 0.39979398
vt 0.282278 0.354523
vt 0.314843 0.314843
vt 0.354523 0.282278
vt 0.399794 0.25808
vt 0.250737 0.16494602
vt 0.255328 0.255328
vt 0.309666 0.21514499
vt 0.260919 0.155406
vt 0.264466 0.14749801
vt 0.260919 0.155406
vt 0.135776 0.227153
vt 0.155406 0.26091897
vt 0.160581 0.25510204
vt 0.143283 0.22514099
vt 0.135776 0.18853301
vt 0.143283 0.19054401
vt 0.143283 0.22514099
vt 0.160581 0.25510204
vt 0.164946 0.250737
vt 0.149246 0.223544
vt 0.143283 0.19054401
vt 0.149246 0.19214201
vt 0.215145 0.30966604
vt 0.215145 0.30966604
vt 0.155406 0.26091897
vt 0.135776 0.227153
vt 0.125252 0.225546
vt 0.145285 0.261095
vt 0.135776 0.18853301
vt 0.125252 0.18315697
vt 0.215145 0.30966604
vt 0.164946 0.250737
vt 0.155406 0.26091897
vt 0.147498 0.264466
vt 0.155406 0.26091897
vt 0.149246 0.223544
vt 0.149246 0.19214201
vt 0.164947 0.16494703
vt 0.192142 0.14924598
vt 0.223544 0.14924598
vt 0.215145 0.30966604
vt 0.183486 0.368895
vt 0.262571 0.26257098
vt 0.255328 0.255328
vt 0.309666 0.21514499
vt 0.368896 0.18348598
vn 0.923856 0 -0.382672
vn 0.923856 0 -0.382672
vn 0.966552 0 -0.256386
vn 0.980926 0 -0.19422
vn 0.980926 0 0.19422
vn 0.966552 0 0.256386
vn 0.923856 0 0.382672
vn 0.923856 0 0.382672
vn 0.559008 0.796136 -0.231544
vn 0.559008 0.796136 -0.231544
vn 0.593554 0.796136 -0.117527
vn 0.582537 0.795068 -0.168676
vn 0.582537 0.795068 0.168676
vn 0.593554 0.796136 0.117527
vn 0.559008 0.796136 0.231544
vn 0.559008 0.796136 0.231544
vn 0.826319 0.447188 -0.342265
vn 0.826319 0.447188 -0.342265
vn 0.877224 0.447188 -0.174474
vn 0.877224 0.447188 -0.174474
vn 0.894406 0.447188 0
vn 0.894406 0.447188 0
vn 0.877224 0.447188 0.174474
vn 0.877224 0.447188 0.174474
vn 0.826319 0.447188 0.342265
vn 0.826319 0.447188 0.342265
vn 0 0.999969 0
vn 0 1 0
vn 0 1 0
vn 0 1 0
vn 0 1 0
vn 0 1 0
vn 0.131016 0.077731 -0.988311
vn 0.163091 0.076449 -0.983612
vn 0.497635 0.078219 -0.863826
vn 0.498428 0.07886 -0.863308
vn 0.863308 0.07886 -0.498428
vn 0.863308 0.07886 -0.498428
vn 0.996857 0.07886 0
vn 0.996857 0.07886 0
vn 0.126347 0.701437 -0.701437
vn 0.118717 0.702078 -0.702078
vn 0.353526 0.707083 -0.612354
vn 0.353557 0.707083 -0.612354
vn 0.612354 0.707083 -0.353526
vn 0.612354 0.707083 -0.353526
vn 0.707083 0.707083 0
vn 0.707083 0.707083 0
vn 0.006287 0.078799 -0.996857
vn 0.056459 0.705954 -0.705954
vn 0.473922 0.402448 -0.783197
vn 0.439497 0.394726 -0.806818
vn 0.210608 0.362316 -0.907926
vn 0.139225 0.357768 -0.923338
vn 0.78161 0.441877 -0.440199
vn 0.771447 0.440474 -0.45909
vn 0.889676 0.456557 0
vn 0.889676 0.456557 0
vn 0.427747 0.795251 0.429609
vn 0.427747 0.795251 0.429609
vn 0.427747 0.795251 0.429609
vn 0.427747 0.795251 -0.429609
vn 0.427747 0.795251 -0.429609
vn 0.427747 0.795251 -0.429609
vn 0 1 0
vn 0 1 0
vn 0 1 0
vn 0 1 0
vn 0 0.999969 0
vn 0 1 0
vn 0 1 0
vn 0 1 0
vn 0 1 0
vn 0.604175 0.794671 -0.058443
vn 0 0.333048 -0.9429
vn 0.995331 0 -0.096255
vn 0.497635 0.078219 0.863826
vn 0.163091 0.076449 0.983612
vn 0.131016 0.077731 0.988311
vn 0.498428 0.07886 0.863308
vn 0.863308 0.07886 0.498428
vn 0.863308 0.07886 0.498428
vn 0.353526 0.707083 0.612354
vn 0.118717 0.702078 0.702078
vn 0.126347 0.701437 0.701437
vn 0.353557 0.707083 0.612354
vn 0.612354 0.707083 0.353526
vn 0.612354 0.707083 0.353526
vn 0.006287 0.078799 0.996857
vn 0.056459 0.705954 0.705954
vn 0.210608 0.362316 0.907926
vn 0.439497 0.394726 0.806818
vn 0.473922 0.402448 0.783197
vn 0.139225 0.357768 0.923338
vn 0.771447 0.440474 0.45909
vn 0.78161 0.441877 0.440199
vn 0 1 0
vn 0 1 0
vn 0.604175 0.794671 0.058443
vn 0 0.333048 0.9429
vn 0.995331 0 0.096255
vn 0 1 0
vn 0 1 0
vn 0 1 0
vn 0 1 0
vn 0 1 0
vn 0.945311 0.221717 0.239174
vn 0.921628 0.269021 0.27958
vn 0.993011 0.117954 0
vn 0.998291 0.058321 0
vn 0.945311 0.221717 -0.239174
vn 0.921628 0.269021 -0.27958
vn 0.382672 0 -0.923856
vn 0.382672 0 -0.923856
vn 0.502152 0 -0.864772
vn 0.556291 0 -0.830958
vn 0.830958 0 -0.556291
vn 0.864772 0 -0.502152
vn 0.231544 0.796136 -0.559008
vn 0.231544 0.796136 -0.559008
vn 0.336558 0.796136 -0.502823
vn 0.292642 0.795068 -0.531205
vn 0.531205 0.795068 -0.292642
vn 0.502823 0.796136 -0.336558
vn 0.342265 0.447188 -0.826319
vn 0.342265 0.447188 -0.826319
vn 0.496902 0.447188 -0.743675
vn 0.496902 0.447188 -0.743675
vn 0.632435 0.447188 -0.632435
vn 0.632435 0.447188 -0.632435
vn 0.743675 0.447188 -0.496902
vn 0.743675 0.447188 -0.496902
vn 0 1 0
vn 0 1 0
vn 0 1 0
vn 0 1 0
vn -0.606189 0.077731 -0.791467
vn -0.580187 0.076449 -0.810846
vn -0.258919 0.078219 -0.962706
vn -0.258003 0.07886 -0.962889
vn 0.258003 0.07886 -0.962889
vn 0.258003 0.07886 -0.962889
vn 0.704886 0.07886 -0.704886
vn 0.704886 0.07886 -0.704886
vn -0.406629 0.701437 -0.585315
vn -0.412488 0.702078 -0.580401
vn -0.182989 0.707083 -0.683004
vn -0.182989 0.707083 -0.683004
vn 0.182989 0.707083 -0.683004
vn 0.182989 0.707083 -0.683004
vn 0.499985 0.707083 -0.499985
vn 0.499985 0.707083 -0.499985
vn -0.70043 0.078799 -0.709342
vn -0.459243 0.705954 -0.539109
vn -0.218696 0.402448 -0.888913
vn -0.259713 0.394726 -0.881283
vn -0.493057 0.362285 -0.790948
vn -0.55443 0.357768 -0.751366
vn 0.241401 0.441877 -0.863948
vn 0.220862 0.440474 -0.870144
vn 0.629078 0.456557 -0.629078
vn 0.629078 0.456557 -0.629078
vn 0.60625 0.795251 0.001282
vn 0.60625 0.795251 0.001282
vn 0.60625 0.795251 0.001282
vn -0.001282 0.795251 -0.60625
vn -0.001282 0.795251 -0.60625
vn -0.001282 0.795251 -0.60625
vn 0 1 0
vn 0 0.999969 0
vn 0 0.999969 0
vn 0 0.999969 0
vn 0 0.999969 0
vn 0 0.999969 0
vn 0 0.999969 0
vn 0 1 0
vn 0 1 0
vn 0.385876 0.794671 -0.46852
vn -0.666707 0.333048 -0.666707
vn 0.635731 0 -0.771905
vn 0.962706 0.078219 0.258919
vn 0.810846 0.076449 0.580187
vn 0.791467 0.077731 0.606189
vn 0.962889 0.07886 0.258003
vn 0.962889 0.07886 -0.258003
vn 0.962889 0.07886 -0.258003
vn 0.683004 0.707083 0.182989
vn 0.580401 0.702078 0.412488
vn 0.585315 0.701437 0.406629
vn 0.683004 0.707083 0.182989
vn 0.683004 0.707083 -0.182989
vn 0.683004 0.707083 -0.182989
vn 0.709342 0.078799 0.70043
vn 0.539109 0.705954 0.459243
vn 0.790948 0.362285 0.493057
vn 0.881283 0.394726 0.259713
vn 0.888913 0.402448 0.218696
vn 0.751366 0.357768 0.55443
vn 0.870144 0.440474 -0.220862
vn 0.863948 0.441877 -0.241401
vn 0 0.999969 0
vn 0 1 0
vn 0.46852 0.794671 -0.385876
vn 0.666707 0.333048 0.666707
vn 0.771905 0 -0.635731
vn 0 1 0
vn 0 0.999969 0
vn 0 1 0
vn 0 0.999969 0
vn 0 1 0
vn 0.83755 0.221717 -0.499283
vn 0.849391 0.269021 -0.453993
vn 0.702139 0.117954 -0.702139
vn 0.705893 0.058321 -0.705893
vn 0.499283 0.221717 -0.83755
vn 0.453993 0.269021 -0.849391
vn -0.382672 0 -0.923856
vn -0.382672 0 -0.923856
vn -0.256417 0 -0.966552
vn -0.19422 0 -0.980926
vn 0.19422 0 -0.980926
vn 0.256417 0 -0.966552
vn -0.231544 0.796136 -0.559008
vn -0.231544 0.796136 -0.559008
vn -0.117527 0.796136 -0.593554
vn -0.168676 0.795068 -0.582537
vn 0.168676 0.795068 -0.582537
vn 0.117527 0.796136 -0.593524
vn -0.342265 0.447188 -0.826319
vn -0.342265 0.447188 -0.826319
vn -0.174474 0.447188 -0.877224
vn -0.174474 0.447188 -0.877224
vn 0 0.447188 -0.894406
vn 0 0.447188 -0.894406
vn 0.174474 0.447188 -0.877224
vn 0.174474 0.447188 -0.877224
vn 0 1 0
vn 0 1 0
vn 0 1 0
vn 0 1 0
vn -0.988311 0.077731 -0.131016
vn -0.983612 0.076449 -0.163091
vn -0.863826 0.078219 -0.497635
vn -0.863308 0.07886 -0.498428
vn -0.498428 0.07886 -0.863308
vn -0.498428 0.07886 -0.863308
vn 0 0.07886 -0.996857
vn 0 0.07886 -0.996857
vn -0.701437 0.701437 -0.126347
vn -0.702078 0.702078 -0.118717
vn -0.612354 0.707083 -0.353526
vn -0.612354 0.707083 -0.353557
vn -0.353526 0.707083 -0.612354
vn -0.353526 0.707083 -0.612354
vn 0 0.707083 -0.707083
vn 0 0.707083 -0.707083
vn -0.996857 0.078799 -0.006287
vn -0.705954 0.705954 -0.056459
vn -0.783197 0.402448 -0.473922
vn -0.806818 0.394726 -0.439497
vn -0.907926 0.362285 -0.210608
vn -0.923338 0.357768 -0.139225
vn -0.440199 0.441877 -0.78161
vn -0.45909 0.440474 -0.771447
vn 0 0.456557 -0.889676
vn 0 0.456557 -0.889676
vn 0.429609 0.795251 -0.427747
vn 0.429609 0.795251 -0.427747
vn 0.429609 0.795251 -0.427747
vn -0.429609 0.795251 -0.427747
vn -0.429609 0.795251 -0.427747
vn -0.429609 0.795251 -0.427747
vn 0 1 0
vn 0 1 0
vn 0 1 0
vn 0 1 0
vn 0 1 0
vn 0 1 0
vn 0 1 0
vn 0 1 0
vn 0 0.999969 0
vn -0.058443 0.794671 -0.604175
vn -0.9429 0.333048 0
vn -0.096286 0 -0.995331
vn 0.863826 0.078219 -0.497635
vn 0.983612 0.076449 -0.163091
vn 0.988311 0.077731 -0.131016
vn 0.863308 0.07886 -0.498428
vn 0.498428 0.07886 -0.863308
vn 0.498428 0.07886 -0.863308
vn 0.612354 0.707083 -0.353526
vn 0.702078 0.702078 -0.118717
vn 0.701437 0.701437 -0.126347
vn 0.612354 0.707083 -0.353557
vn 0.353526 0.707083 -0.612354
vn 0.353526 0.707083 -0.612354
vn 0.996857 0.078799 -0.006287
vn 0.705954 0.705954 -0.056459
vn 0.907926 0.362285 -0.210608
vn 0.806818 0.394726 -0.439497
vn 0.783197 0.402448 -0.473922
vn 0.923338 0.357768 -0.139225
vn 0.45909 0.440474 -0.771447
vn 0.440199 0.441877 -0.78161
vn 0 0.999969 0
vn 0 1 0
vn 0.058443 0.794671 -0.604175
vn 0.9429 0.333048 0
vn 0.096286 0 -0.995331
vn 0 1 0
vn 0 1 0
vn 0 1 0
vn 0 1 0
vn 0 1 0
vn 0.239174 0.221717 -0.945311
vn 0.27958 0.269021 -0.921659
vn 0 0.117954 -0.993011
vn 0 0.058321 -0.998291
vn -0.239174 0.221717 -0.945311
vn -0.27958 0.269021 -0.921659
vn -0.923856 0 -0.382672
vn -0.923856 0 -0.382672
vn -0.864772 0 -0.502152
vn -0.830958 0 -0.556291
vn -0.556291 0 -0.830958
vn -0.502152 0 -0.864772
vn -0.559008 0.796136 -0.231544
vn -0.559008 0.796136 -0.231544
vn -0.502823 0.796136 -0.336558
vn -0.531205 0.795068 -0.292642
vn -0.292642 0.795068 -0.531205
vn -0.336558 0.796136 -0.502823
vn -0.826319 0.447188 -0.342265
vn -0.826319 0.447188 -0.342265
vn -0.743675 0.447188 -0.496902
vn -0.743675 0.447188 -0.496902
vn -0.632435 0.447188 -0.632435
vn -0.632435 0.447188 -0.632435
vn -0.496902 0.447188 -0.743675
vn -0.496902 0.447188 -0.743675
vn 0 1 0
vn 0 0.999969 0
vn 0 1 0
vn 0 0.999969 0
vn -0.791467 0.077731 0.606189
vn -0.810846 0.076449 0.580187
vn -0.962706 0.078219 0.258919
vn -0.962889 0.07886 0.258003
vn -0.962889 0.07886 -0.258003
vn -0.962889 0.07886 -0.258003
vn -0.704886 0.07886 -0.704886
vn -0.704886 0.07886 -0.704886
vn -0.585315 0.701437 0.406629
vn -0.580401 0.702078 0.412488
vn -0.683004 0.707083 0.182989
vn -0.683004 0.707083 0.182989
vn -0.683004 0.707083 -0.182989
vn -0.683004 0.707083 -0.182989
vn -0.499985 0.707083 -0.499985
vn -0.499985 0.707083 -0.499985
vn -0.709342 0.078799 0.70043
vn -0.539109 0.705954 0.459243
vn -0.888913 0.402448 0.218696
vn -0.881283 0.394726 0.259713
vn -0.790948 0.362285 0.493057
vn -0.751366 0.357768 0.55443
vn -0.863948 0.441877 -0.241401
vn -0.870144 0.440474 -0.220862
vn -0.629078 0.456557 -0.629078
vn -0.629078 0.456557 -0.629078
vn 0.001282 0.795251 -0.60625
vn 0.001282 0.795251 -0.60625
vn 0.001282 0.795251 -0.60625
vn -0.60625 0.795251 0.001282
vn -0.60625 0.795251 0.001282
vn -0.60625 0.795251 0.001282
vn 0 1 0
vn 0 0.999969 0
vn 0 0.999969 0
vn 0 0.999969 0
vn 0 0.999969 0
vn 0 0.999969 0
vn 0 1 0
vn 0 0.999969 0
vn 0 0.999969 0
vn -0.46852 0.794671 -0.385876
vn -0.666707 0.333048 0.666707
vn -0.771905 0 -0.635731
vn 0.258919 0.078219 -0.962706
vn 0.580187 0.076449 -0.810846
vn 0.606189 0.077731 -0.791467
vn 0.258003 0.07886 -0.962889
vn -0.258003 0.07886 -0.962889
vn -0.258003 0.07886 -0.962889
vn 0.182989 0.707083 -0.683004
vn 0.412488 0.702078 -0.580401
vn 0.406629 0.701437 -0.585315
vn 0.182989 0.707083 -0.683004
vn -0.182989 0.707083 -0.683004
vn -0.182989 0.707083 -0.683004
vn 0.70043 0.078799 -0.709342
vn 0.459243 0.705954 -0.539109
vn 0.493057 0.362285 -0.790948
vn 0.259713 0.394726 -0.881283
vn 0.218696 0.402448 -0.888913
vn 0.55443 0.357768 -0.751366
vn -0.220862 0.440474 -0.870144
vn -0.241401 0.441877 -0.863948
vn 0 1 0
vn 0 1 0
vn -0.385876 0.794671 -0.46852
vn 0.666707 0.333048 -0.666707
vn -0.635731 0 -0.771905
vn 0 0.999969 0
vn 0 1 0
vn 0 1 0
vn 0 1 0
vn 0 0.999969 0
vn -0.499283 0.221717 -0.83755
vn -0.453993 0.269021 -0.849391
vn -0.702139 0.117954 -0.702139
vn -0.705893 0.058321 -0.705893
vn -0.83755 0.221717 -0.499283
vn -0.849391 0.269021 -0.453993
vn -0.923856 0 0.382672
vn -0.923856 0 0.382672
vn -0.966552 0 0.256417
vn -0.980926 0 0.19422
vn -0.980926 0 -0.19422
vn -0.966552 0 -0.256417
vn -0.559008 0.796136 0.231544
vn -0.559008 0.796136 0.231544
vn -0.593524 0.796136 0.117527
vn -0.582537 0.795068 0.168676
vn -0.582537 0.795068 -0.168676
vn -0.593524 0.796136 -0.117527
vn -0.826319 0.447188 0.342265
vn -0.826319 0.447188 0.342265
vn -0.877224 0.447188 0.174474
vn -0.877224 0.447188 0.174474
vn -0.894406 0.447188 0
vn -0.894406 0.447188 0
vn -0.877224 0.447188 -0.174474
vn -0.877224 0.447188 -0.174474
vn 0 1 0
vn 0 1 0
vn 0 1 0
vn 0 1 0
vn -0.131016 0.077731 0.988311
vn -0.163091 0.076449 0.983612
vn -0.497635 0.078219 0.863826
vn -0.498428 0.07886 0.863308
vn -0.863308 0.07886 0.498428
vn -0.863308 0.07886 0.498428
vn -0.996857 0.07886 0
vn -0.996857 0.07886 0
vn -0.126347 0.701437 0.701437
vn -0.118717 0.702078 0.702078
vn -0.353526 0.707083 0.612354
vn -0.353557 0.707083 0.612354
vn -0.612354 0.707083 0.353526
vn -0.612354 0.707083 0.353526
vn -0.707083 0.707083 0
vn -0.707083 0.707083 0
vn -0.006287 0.078799 0.996857
vn -0.056459 0.705954 0.705954
vn -0.473922 0.402448 0.783197
vn -0.439497 0.394726 0.806818
vn -0.210608 0.362285 0.907926
vn -0.139225 0.357768 0.923338
vn -0.78161 0.441877 0.440199
vn -0.771447 0.440474 0.45909
vn -0.889676 0.456557 0
vn -0.889676 0.456557 0
vn -0.427747 0.795251 -0.429609
vn -0.427747 0.795251 -0.429609
vn -0.427747 0.795251 -0.429609
vn -0.427747 0.795251 0.429609
vn -0.427747 0.795251 0.429609
vn -0.427747 0.795251 0.429609
vn 0 1 0
vn 0 1 0
vn 0 0.999969 0
vn 0 1 0
vn 0 0.999969 0
vn 0 1 0
vn 0 1 0
vn 0 0.999969 0
vn 0 1 0
vn -0.604175 0.794671 0.058443
vn 0 0.333048 0.9429
vn -0.995331 0 0.096286
vn -0.497635 0.078219 -0.863826
vn -0.163091 0.076449 -0.983612
vn -0.131016 0.077731 -0.988311
vn -0.498428 0.07886 -0.863308
vn -0.863308 0.07886 -0.498428
vn -0.863308 0.07886 -0.498428
vn -0.353526 0.707083 -0.612354
vn -0.118717 0.702078 -0.702078
vn -0.126347 0.701437 -0.701437
vn -0.353557 0.707083 -0.612354
vn -0.612354 0.707083 -0.353526
vn -0.612354 0.707083 -0.353526
vn -0.006287 0.078799 -0.996857
vn -0.056459 0.705954 -0.705954
vn -0.210608 0.362285 -0.907926
vn -0.439497 0.394726 -0.806818
vn -0.473922 0.402448 -0.783197
vn -0.139225 0.357768 -0.923338
vn -0.771447 0.440474 -0.45909
vn -0.78161 0.441877 -0.440199
vn 0 1 0
vn 0 1 0
vn -0.604175 0.794671 -0.058443
vn 0 0.333048 -0.9429
vn -0.995331 0 -0.096286
vn 0 0.999969 0
vn 0 0.999969 0
vn 0 1 0
vn 0 0.999969 0
vn 0 0.999969 0
vn -0.945311 0.221717 -0.239174
vn -0.921659 0.269021 -0.27958
vn -0.993011 0.117954 0
vn -0.998291 0.058321 0
vn -0.945311 0.221717 0.239174
vn -0.921659 0.269021 0.27958
vn -0.382672 0 0.923856
vn -0.382672 0 0.923856
vn -0.502121 0 0.864772
vn -0.556291 0 0.830958
vn -0.830958 0 0.556291
vn -0.864772 0 0.502121
vn -0.231544 0.796136 0.559008
vn -0.231544 0.796136 0.559008
vn -0.336558 0.796136 0.502823
vn -0.292642 0.795068 0.531205
vn -0.531205 0.795068 0.292642
vn -0.502823 0.796136 0.336558
vn -0.342265 0.447188 0.826319
vn -0.342265 0.447188 0.826319
vn -0.496902 0.447188 0.743675
vn -0.496902 0.447188 0.743675
vn -0.632435 0.447188 0.632435
vn -0.632435 0.447188 0.632435
vn -0.743675 0.447188 0.496902
vn -0.743675 0.447188 0.496902
vn 0 1 0
vn 0 0.999969 0
vn 0 1 0
vn 0 0.999969 0
vn 0.606189 0.077731 0.791467
vn 0.580187 0.076449 0.810846
vn 0.258919 0.078219 0.962706
vn 0.258003 0.07886 0.962889
vn -0.258003 0.07886 0.962889
vn -0.258003 0.07886 0.962889
vn -0.704886 0.07886 0.704886
vn -0.704886 0.07886 0.704886
vn 0.406629 0.701437 0.585315
vn 0.412488 0.702078 0.580401
vn 0.182989 0.707083 0.683004
vn 0.182989 0.707083 0.683004
vn -0.182989 0.707083 0.683004
vn -0.182989 0.707083 0.683004
vn -0.499985 0.707083 0.499985
vn -0.499985 0.707083 0.499985
vn 0.70043 0.078799 0.709342
vn 0.459243 0.705954 0.539109
vn 0.218696 0.402448 0.888913
vn 0.259713 0.394726 0.881283
vn 0.493057 0.362285 0.790948
vn 0.55443 0.357768 0.751366
vn -0.241401 0.441877 0.863948
vn -0.220862 0.440474 0.870144
vn -0.629078 0.456557 0.629078
vn -0.629078 0.456557 0.629078
vn -0.60625 0.795251 -0.001282
vn -0.60625 0.795251 -0.001282
vn -0.60625 0.795251 -0.001282
vn 0.001282 0.795251 0.60625
vn 0.001282 0.795251 0.60625
vn 0.001282 0.795251 0.60625
vn 0 1 0
vn 0 0.999969 0
vn 0 0.999969 0
vn 0 0.999969 0
vn 0 0.999969 0
vn 0 0.999969 0
vn 0 1 0
vn 0 1 0
vn 0 0.999969 0
vn -0.385876 0.794671 0.46852
vn 0.666707 0.333048 0.666707
vn -0.635731 0 0.771905
vn -0.962706 0.078219 -0.258919
vn -0.810846 0.076449 -0.580187
vn -0.791467 0.077731 -0.606189
vn -0.962889 0.07886 -0.258003
vn -0.962889 0.07886 0.258003
vn -0.962889 0.07886 0.258003
vn -0.683004 0.707083 -0.182989
vn -0.580401 0.702078 -0.412488
vn -0.585315 0.701437 -0.406629
vn -0.683004 0.707083 -0.182989
vn -0.683004 0.707083 0.182989
vn -0.683004 0.707083 0.182989
vn -0.709342 0.078799 -0.70043
vn -0.539109 0.705954 -0.459243
vn -0.790948 0.362285 -0.493057
vn -0.881283 0.394726 -0.259713
vn -0.888913 0.402448 -0.218696
vn -0.751366 0.357768 -0.55443
vn -0.870144 0.440474 0.220862
vn -0.863948 0.441877 0.241401
vn 0 0.999969 0
vn 0 1 0
vn -0.46852 0.794671 0.385876
vn -0.666707 0.333048 -0.666707
vn -0.771905 0 0.635731
vn 0 0.999969 0
vn 0 1 0
vn 0 1 0
vn 0 1 0
vn 0 0.999969 0
vn -0.83755 0.221717 0.499283
vn -0.849391 0.269021 0.453993
vn -0.702139 0.117954 0.702139
vn -0.705893 0.058321 0.705893
vn -0.499283 0.221717 0.83755
vn -0.453993 0.269021 0.849391
vn 0.382672 0 0.923856
vn 0.382672 0 0.923856
vn 0.256417 0 0.966552
vn 0.19422 0 0.980926
vn -0.19422 0 0.980926
vn -0.256417 0 0.966552
vn 0.231544 0.796136 0.559008
vn 0.231544 0.796136 0.559008
vn 0.117527 0.796136 0.593524
vn 0.168676 0.795068 0.582537
vn -0.168676 0.795068 0.582537
vn -0.117527 0.796136 0.593524
vn 0.342265 0.447188 0.826319
vn 0.342265 0.447188 0.826319
vn 0.174474 0.447188 0.877224
vn 0.174474 0.447188 0.877224
vn 0 0.447188 0.894406
vn 0 0.447188 0.894406
vn -0.174474 0.447188 0.877224
vn -0.174474 0.447188 0.877224
vn 0 1 0
vn 0 1 0
vn 0 1 0
vn 0 1 0
vn 0.988311 0.077731 0.131016
vn 0.983612 0.076449 0.163091
vn 0.863826 0.078219 0.497635
vn 0.863308 0.07886 0.498428
vn 0.498428 0.07886 0.863308
vn 0.498428 0.07886 0.863308
vn 0 0.07886 0.996857
vn 0 0.07886 0.996857
vn 0.701437 0.701437 0.126347
vn 0.702078 0.702078 0.118717
vn 0.612354 0.707083 0.353526
vn 0.612354 0.707083 0.353557
vn 0.353526 0.707083 0.612354
vn 0.353526 0.707083 0.612354
vn 0 0.707083 0.707083
vn 0 0.707083 0.707083
vn 0.996857 0.078799 0.006287
vn 0.705954 0.705954 0.056459
vn 0.783197 0.402448 0.473922
vn 0.806818 0.394726 0.439497
vn 0.907926 0.362285 0.210608
vn 0.923338 0.357768 0.139225
vn 0.440199 0.441877 0.78161
vn 0.45909 0.440474 0.771447
vn 0 0.456557 0.889676
vn 0 0.456557 0.889676
vn -0.429609 0.795251 0.427747
vn -0.429609 0.795251 0.427747
vn -0.429609 0.795251 0.427747
vn 0.429609 0.795251 0.427747
vn 0.429609 0.795251 0.427747
vn 0.429609 0.795251 0.427747
vn 0 1 0
vn 0 1 0
vn 0 1 0
vn 0 1 0
vn 0 1 0
vn 0 1 0
vn 0 1 0
vn 0 1 0
vn 0 1 0
vn 0.058443 0.794671 0.604175
vn 0.9429 0.333048 0
vn 0.096286 0 0.995331
vn -0.863826 0.078219 0.497635
vn -0.983612 0.076449 0.163091
vn -0.988311 0.077731 0.131016
vn -0.863308 0.07886 0.498428
vn -0.498428 0.07886 0.863308
vn -0.498428 0.07886 0.863308
vn -0.612354 0.707083 0.353526
vn -0.702078 0.702078 0.118717
vn -0.701437 0.701437 0.126347
vn -0.612354 0.707083 0.353557
vn -0.353526 0.707083 0.612354
vn -0.353526 0.707083 0.612354
vn -0.996857 0.078799 0.006287
vn -0.705954 0.705954 0.056459
vn -0.907926 0.362285 0.210608
vn -0.806818 0.394726 0.439497
vn -0.783197 0.402448 0.473922
vn -0.923338 0.357768 0.139225
vn -0.45909 0.440474 0.771447
vn -0.440199 0.441877 0.78161
vn 0 1 0
vn 0 1 0
vn -0.058443 0.794671 0.604175
vn -0.9429 0.333048 0
vn -0.096286 0 0.995331
vn 0 1 0
vn 0 1 0
vn 0 1 0
vn 0 1 0
vn 0 1 0
vn -0.239174 0.221717 0.945311
vn -0.27958 0.269021 0.921659
vn 0 0.117954 0.993011
vn 0 0.058321 0.998291
vn 0.239174 0.221717 0.945311
vn 0.27958 0.269021 0.921659
vn 0.864772 0 0.502152
vn 0.830958 0 0.556291
vn 0.556291 0 0.830958
vn 0.502121 0 0.864772
vn 0.502823 0.796136 0.336558
vn 0.531205 0.795068 0.292642
vn 0.292642 0.795068 0.531205
vn 0.336558 0.796136 0.502823
vn 0.743675 0.447188 0.496902
vn 0.743675 0.447188 0.496902
vn 0.632435 0.447188 0.632435
vn 0.632435 0.447188 0.632435
vn 0.496902 0.447188 0.743675
vn 0.496902 0.447188 0.743675
vn 0 0.999969 0
vn 0 1 0
vn 0 0.999969 0
vn 0.791467 0.077731 -0.606189
vn 0.810846 0.076449 -0.580187
vn 0.962706 0.078219 -0.258919
vn 0.962889 0.07886 -0.258003
vn 0.962889 0.07886 0.258003
vn 0.962889 0.07886 0.258003
vn 0.704886 0.07886 0.704886
vn 0.704886 0.07886 0.704886
vn 0.585315 0.701437 -0.406629
vn 0.580401 0.702078 -0.412488
vn 0.683004 0.707083 -0.182989
vn 0.683004 0.707083 -0.182989
vn 0.683004 0.707083 0.182989
vn 0.683004 0.707083 0.182989
vn 0.499985 0.707083 0.499985
vn 0.499985 0.707083 0.499985
vn 0.709342 0.078799 -0.70043
vn 0.539109 0.705954 -0.459243
vn 0.888913 0.402448 -0.218696
vn 0.881283 0.394726 -0.259713
vn 0.790948 0.362285 -0.493057
vn 0.751366 0.357768 -0.55443
vn 0.863948 0.441877 0.241401
vn 0.870144 0.440474 0.220862
vn 0.629078 0.456557 0.629078
vn 0.629078 0.456557 0.629078
vn -0.001282 0.795251 0.60625
vn -0.001282 0.795251 0.60625
vn -0.001282 0.795251 0.60625
vn 0.60625 0.795251 -0.001282
vn 0.60625 0.795251 -0.001282
vn 0.60625 0.795251 -0.001282
vn 0 0.999969 0
vn 0 0.999969 0
vn 0 0.999969 0
vn 0 0.999969 0
vn 0 0.999969 0
vn 0 0.999969 0
vn 0 1 0
vn 0 1 0
vn 0 1 0
vn 0.46852 0.794671 0.385876
vn 0.666707 0.333048 -0.666707
vn 0.771905 0 0.635731
vn -0.258919 0.078219 0.962706
vn -0.580187 0.076449 0.810846
vn -0.606189 0.077731 0.791467
vn -0.258003 0.07886 0.962889
vn 0.258003 0.07886 0.962889
vn 0.258003 0.07886 0.962889
vn -0.182989 0.707083 0.683004
vn -0.412488 0.702078 0.580401
vn -0.406629 0.701437 0.585315
vn -0.182989 0.707083 0.683004
vn 0.182989 0.707083 0.683004
vn 0.182989 0.707083 0.683004
vn -0.70043 0.078799 0.709342
vn -0.459243 0.705954 0.539109
vn -0.493057 0.362285 0.790948
vn -0.259713 0.394726 0.881283
vn -0.218696 0.402448 0.888913
vn -0.55443 0.357768 0.751366
vn 0.220862 0.440474 0.870144
vn 0.241401 0.441877 0.863948
vn 0 1 0
vn 0 1 0
vn 0.385876 0.794671 0.46852
vn -0.666707 0.333048 0.666707
vn 0.635731 0 0.771905
vn 0 0.999969 0
vn 0 1 0
vn 0 1 0
vn 0 1 0
vn 0 0.999969 0
vn 0.499283 0.221717 0.83755
vn 0.453993 0.269021 0.849391
vn 0.702139 0.117954 0.702139
vn 0.705893 0.058321 0.705893
vn 0.83755 0.221717 0.499283
vn 0.849391 0.269021 0.453993
f 61/61/61 60/60/60 59/59/59
f 3/3/3 2/2/2 1/1/1
f 1/1/1 4/4/4 3/3/3
f 3/3/3 4/4/4 76/76/76
f 117/117/117 1/1/1 2/2/2
f 2/2/2 118/118/118 117/117/117
f 205/205/205 117/117/117 118/118/118
f 7/7/7 6/6/6 5/5/5
f 101/101/101 5/5/5 6/6/6
f 5/5/5 8/8/8 7/7/7
f 737/737/737 7/7/7 8/8/8
f 8/8/8 738/738/738 737/737/737
f 737/737/737 738/738/738 797/797/797
f 11/11/11 10/10/10 9/9/9
f 9/9/9 12/12/12 11/11/11
f 11/11/11 12/12/12 74/74/74
f 123/123/123 9/9/9 10/10/10
f 10/10/10 124/124/124 123/123/123
f 203/203/203 123/123/123 124/124/124
f 15/15/15 14/14/14 13/13/13
f 99/99/99 13/13/13 14/14/14
f 13/13/13 16/16/16 15/15/15
f 741/741/741 15/15/15 16/16/16
f 16/16/16 742/742/742 741/741/741
f 741/741/741 742/742/742 795/795/795
f 19/19/19 18/18/18 17/17/17
f 17/17/17 20/20/20 19/19/19
f 132/132/132 17/17/17 18/18/18
f 21/21/21 19/19/19 20/20/20
f 18/18/18 131/131/131 132/132/132
f 20/20/20 22/22/22 21/21/21
f 130/130/130 132/132/132 131/131/131
f 23/23/23 21/21/21 22/22/22
f 131/131/131 129/129/129 130/130/130
f 22/22/22 24/24/24 23/23/23
f 128/128/128 130/130/130 129/129/129
f 25/25/25 23/23/23 24/24/24
f 129/129/129 127/127/127 128/128/128
f 24/24/24 26/26/26 25/25/25
f 125/125/125 128/128/128 127/127/127
f 745/745/745 25/25/25 26/26/26
f 127/127/127 126/126/126 125/125/125
f 26/26/26 746/746/746 745/745/745
f 236/236/236 125/125/125 126/126/126
f 747/747/747 745/745/745 746/746/746
f 126/126/126 235/235/235 236/236/236
f 746/746/746 748/748/748 747/747/747
f 234/234/234 236/236/236 235/235/235
f 749/749/749 747/747/747 748/748/748
f 235/235/235 233/233/233 234/234/234
f 748/748/748 750/750/750 749/749/749
f 232/232/232 234/234/234 233/233/233
f 646/646/646 749/749/749 750/750/750
f 233/233/233 231/231/231 232/232/232
f 750/750/750 645/645/645 646/646/646
f 229/229/229 232/232/232 231/231/231
f 647/647/647 646/646/646 645/645/645
f 231/231/231 230/230/230 229/229/229
f 645/645/645 648/648/648 647/647/647
f 340/340/340 229/229/229 230/230/230
f 649/649/649 647/647/647 648/648/648
f 230/230/230 339/339/339 340/340/340
f 648/648/648 650/650/650 649/649/649
f 338/338/338 340/340/340 339/339/339
f 651/651/651 649/649/649 650/650/650
f 339/339/339 337/337/337 338/338/338
f 650/650/650 652/652/652 651/651/651
f 336/336/336 338/338/338 337/337/337
f 542/542/542 651/651/651 652/652/652
f 337/337/337 335/335/335 336/336/336
f 652/652/652 541/541/541 542/542/542
f 333/333/333 336/336/336 335/335/335
f 543/543/543 542/542/542 541/541/541
f 335/335/335 334/334/334 333/333/333
f 541/541/541 544/544/544 543/543/543
f 444/444/444 333/333/333 334/334/334
f 545/545/545 543/543/543 544/544/544
f 334/334/334 443/443/443 444/444/444
f 544/544/544 546/546/546 545/545/545
f 442/442/442 444/444/444 443/443/443
f 547/547/547 545/545/545 546/546/546
f 443/443/443 441/441/441 442/442/442
f 546/546/546 548/548/548 547/547/547
f 440/440/440 442/442/442 441/441/441
f 438/438/438 547/547/547 548/548/548
f 441/441/441 439/439/439 440/440/440
f 548/548/548 437/437/437 438/438/438
f 437/437/437 440/440/440 439/439/439
f 439/439/439 438/438/438 437/437/437
f 29/29/29 28/28/28 27/27/27
f 30/30/30 29/29/29 27/27/27
f 28/28/28 136/136/136 27/27/27
f 31/31/31 30/30/30 27/27/27
f 136/136/136 135/135/135 27/27/27
f 32/32/32 31/31/31 27/27/27
f 135/135/135 134/134/134 27/27/27
f 751/751/751 32/32/32 27/27/27
f 134/134/134 133/133/133 27/27/27
f 752/752/752 751/751/751 27/27/27
f 133/133/133 240/240/240 27/27/27
f 753/753/753 752/752/752 27/27/27
f 240/240/240 239/239/239 27/27/27
f 653/653/653 753/753/753 27/27/27
f 239/239/239 238/238/238 27/27/27
f 654/654/654 653/653/653 27/27/27
f 238/238/238 237/237/237 27/27/27
f 655/655/655 654/654/654 27/27/27
f 237/237/237 344/344/344 27/27/27
f 656/656/656 655/655/655 27/27/27
f 344/344/344 343/343/343 27/27/27
f 549/549/549 656/656/656 27/27/27
f 343/343/343 342/342/342 27/27/27
f 550/550/550 549/549/549 27/27/27
f 342/342/342 341/341/341 27/27/27
f 551/551/551 550/550/550 27/27/27
f 341/341/341 448/448/448 27/27/27
f 552/552/552 551/551/551 27/27/27
f 448/448/448 447/447/447 27/27/27
f 445/445/445 552/552/552 27/27/27
f 447/447/447 446/446/446 27/27/27
f 446/446/446 445/445/445 27/27/27
f 35/35/35 34/34/34 33/33/33
f 34/34/34 49/49/49 33/33/33
f 33/33/33 36/36/36 35/35/35
f 37/37/37 35/35/35 36/36/36
f 36/36/36 38/38/38 37/37/37
f 39/39/39 37/37/37 38/38/38
f 38/38/38 40/40/40 39/39/39
f 39/39/39 40/40/40 82/82/82
f 82/82/82 81/81/81 39/39/39
f 81/81/81 82/82/82 80/80/80
f 80/80/80 77/77/77 81/81/81
f 77/77/77 80/80/80 79/79/79
f 79/79/79 78/78/78 77/77/77
f 79/79/79 89/89/89 78/78/78
f 43/43/43 42/42/42 41/41/41
f 41/41/41 42/42/42 50/50/50
f 41/41/41 44/44/44 43/43/43
f 45/45/45 43/43/43 44/44/44
f 44/44/44 46/46/46 45/45/45
f 47/47/47 45/45/45 46/46/46
f 46/46/46 48/48/48 47/47/47
f 47/47/47 48/48/48 88/88/88
f 88/88/88 87/87/87 47/47/47
f 87/87/87 88/88/88 86/86/86
f 86/86/86 83/83/83 87/87/87
f 83/83/83 86/86/86 85/85/85
f 85/85/85 84/84/84 83/83/83
f 90/90/90 84/84/84 85/85/85
f 53/53/53 52/52/52 51/51/51
f 51/51/51 54/54/54 53/53/53
f 75/75/75 53/53/53 54/54/54
f 55/55/55 51/51/51 52/52/52
f 52/52/52 56/56/56 55/55/55
f 57/57/57 55/55/55 56/56/56
f 56/56/56 58/58/58 57/57/57
f 57/57/57 58/58/58 95/95/95
f 95/95/95 96/96/96 57/57/57
f 96/96/96 95/95/95 92/92/92
f 92/92/92 93/93/93 96/96/96
f 93/93/93 92/92/92 91/91/91
f 91/91/91 94/94/94 93/93/93
f 94/94/94 91/91/91 100/100/100
f 64/64/64 63/63/63 62/62/62
f 67/67/67 66/66/66 65/65/65
f 68/68/68 67/67/67 65/65/65
f 69/69/69 68/68/68 65/65/65
f 70/70/70 69/69/69 65/65/65
f 73/73/73 72/72/72 71/71/71
f 106/106/106 71/71/71 72/72/72
f 105/105/105 106/106/106 72/72/72
f 104/104/104 105/105/105 72/72/72
f 103/103/103 104/104/104 72/72/72
f 72/72/72 102/102/102 103/103/103
f 72/72/72 98/98/98 102/102/102
f 98/98/98 72/72/72 97/97/97
f 109/109/109 108/108/108 107/107/107
f 109/109/109 107/107/107 110/110/110
f 109/109/109 110/110/110 111/111/111
f 109/109/109 111/111/111 112/112/112
f 115/115/115 114/114/114 113/113/113
f 113/113/113 116/116/116 115/115/115
f 115/115/115 116/116/116 180/180/180
f 221/221/221 113/113/113 114/114/114
f 114/114/114 222/222/222 221/221/221
f 309/309/309 221/221/221 222/222/222
f 121/121/121 120/120/120 119/119/119
f 119/119/119 122/122/122 121/121/121
f 121/121/121 122/122/122 178/178/178
f 227/227/227 119/119/119 120/120/120
f 120/120/120 228/228/228 227/227/227
f 307/307/307 227/227/227 228/228/228
f 139/139/139 138/138/138 137/137/137
f 138/138/138 153/153/153 137/137/137
f 137/137/137 140/140/140 139/139/139
f 141/141/141 139/139/139 140/140/140
f 140/140/140 142/142/142 141/141/141
f 143/143/143 141/141/141 142/142/142
f 142/142/142 144/144/144 143/143/143
f 143/143/143 144/144/144 186/186/186
f 186/186/186 185/185/185 143/143/143
f 185/185/185 186/186/186 184/184/184
f 184/184/184 181/181/181 185/185/185
f 181/181/181 184/184/184 183/183/183
f 183/183/183 182/182/182 181/181/181
f 183/183/183 193/193/193 182/182/182
f 147/147/147 146/146/146 145/145/145
f 145/145/145 146/146/146 154/154/154
f 145/145/145 148/148/148 147/147/147
f 149/149/149 147/147/147 148/148/148
f 148/148/148 150/150/150 149/149/149
f 151/151/151 149/149/149 150/150/150
f 150/150/150 152/152/152 151/151/151
f 151/151/151 152/152/152 192/192/192
f 192/192/192 191/191/191 151/151/151
f 191/191/191 192/192/192 190/190/190
f 190/190/190 187/187/187 191/191/191
f 187/187/187 190/190/190 189/189/189
f 189/189/189 188/188/188 187/187/187
f 194/194/194 188/188/188 189/189/189
f 157/157/157 156/156/156 155/155/155
f 155/155/155 158/158/158 157/157/157
f 179/179/179 157/157/157 158/158/158
f 159/159/159 155/155/155 156/156/156
f 156/156/156 160/160/160 159/159/159
f 161/161/161 159/159/159 160/160/160
f 160/160/160 162/162/162 161/161/161
f 161/161/161 162/162/162 199/199/199
f 199/199/199 200/200/200 161/161/161
f 200/200/200 199/199/199 196/196/196
f 196/196/196 197/197/197 200/200/200
f 197/197/197 196/196/196 195/195/195
f 195/195/195 198/198/198 197/197/197
f 198/198/198 195/195/195 204/204/204
f 165/165/165 164/164/164 163/163/163
f 168/168/168 167/167/167 166/166/166
f 171/171/171 170/170/170 169/169/169
f 172/172/172 171/171/171 169/169/169
f 173/173/173 172/172/172 169/169/169
f 174/174/174 173/173/173 169/169/169
f 177/177/177 176/176/176 175/175/175
f 210/210/210 175/175/175 176/176/176
f 209/209/209 210/210/210 176/176/176
f 208/208/208 209/209/209 176/176/176
f 207/207/207 208/208/208 176/176/176
f 176/176/176 206/206/206 207/207/207
f 176/176/176 202/202/202 206/206/206
f 202/202/202 176/176/176 201/201/201
f 213/213/213 212/212/212 211/211/211
f 213/213/213 211/211/211 214/214/214
f 213/213/213 214/214/214 215/215/215
f 213/213/213 215/215/215 216/216/216
f 219/219/219 218/218/218 217/217/217
f 217/217/217 220/220/220 219/219/219
f 219/219/219 220/220/220 284/284/284
f 325/325/325 217/217/217 218/218/218
f 218/218/218 326/326/326 325/325/325
f 413/413/413 325/325/325 326/326/326
f 225/225/225 224/224/224 223/223/223
f 223/223/223 226/226/226 225/225/225
f 225/225/225 226/226/226 282/282/282
f 331/331/331 223/223/223 224/224/224
f 224/224/224 332/332/332 331/331/331
f 411/411/411 331/331/331 332/332/332
f 243/243/243 242/242/242 241/241/241
f 242/242/242 257/257/257 241/241/241
f 241/241/241 244/244/244 243/243/243
f 245/245/245 243/243/243 244/244/244
f 244/244/244 246/246/246 245/245/245
f 247/247/247 245/245/245 246/246/246
f 246/246/246 248/248/248 247/247/247
f 247/247/247 248/248/248 290/290/290
f 290/290/290 289/289/289 247/247/247
f 289/289/289 290/290/290 288/288/288
f 288/288/288 285/285/285 289/289/289
f 285/285/285 288/288/288 287/287/287
f 287/287/287 286/286/286 285/285/285
f 287/287/287 297/297/297 286/286/286
f 251/251/251 250/250/250 249/249/249
f 249/249/249 250/250/250 258/258/258
f 249/249/249 252/252/252 251/251/251
f 253/253/253 251/251/251 252/252/252
f 252/252/252 254/254/254 253/253/253
f 255/255/255 253/253/253 254/254/254
f 254/254/254 256/256/256 255/255/255
f 255/255/255 256/256/256 296/296/296
f 296/296/296 295/295/295 255/255/255
f 295/295/295 296/296/296 294/294/294
f 294/294/294 291/291/291 295/295/295
f 291/291/291 294/294/294 293/293/293
f 293/293/293 292/292/292 291/291/291
f 298/298/298 292/292/292 293/293/293
f 261/261/261 260/260/260 259/259/259
f 259/259/259 262/262/262 261/261/261
f 283/283/283 261/261/261 262/262/262
f 263/263/263 259/259/259 260/260/260
f 260/260/260 264/264/264 263/263/263
f 265/265/265 263/263/263 264/264/264
f 264/264/264 266/266/266 265/265/265
f 265/265/265 266/266/266 303/303/303
f 303/303/303 304/304/304 265/265/265
f 304/304/304 303/303/303 300/300/300
f 300/300/300 301/301/301 304/304/304
f 301/301/301 300/300/300 299/299/299
f 299/299/299 302/302/302 301/301/301
f 302/302/302 299/299/299 308/308/308
f 269/269/269 268/268/268 267/267/267
f 272/272/272 271/271/271 270/270/270
f 275/275/275 274/274/274 273/273/273
f 276/276/276 275/275/275 273/273/273
f 277/277/277 276/276/276 273/273/273
f 278/278/278 277/277/277 273/273/273
f 281/281/281 280/280/280 279/279/279
f 314/314/314 279/279/279 280/280/280
f 313/313/313 314/314/314 280/280/280
f 312/312/312 313/313/313 280/280/280
f 311/311/311 312/312/312 280/280/280
f 280/280/280 310/310/310 311/311/311
f 280/280/280 306/306/306 310/310/310
f 306/306/306 280/280/280 305/305/305
f 317/317/317 316/316/316 315/315/315
f 317/317/317 315/315/315 318/318/318
f 317/317/317 318/318/318 319/319/319
f 317/317/317 319/319/319 320/320/320
f 323/323/323 322/322/322 321/321/321
f 321/321/321 324/324/324 323/323/323
f 323/323/323 324/324/324 388/388/388
f 429/429/429 321/321/321 322/322/322
f 322/322/322 430/430/430 429/429/429
f 517/517/517 429/429/429 430/430/430
f 329/329/329 328/328/328 327/327/327
f 327/327/327 330/330/330 329/329/329
f 329/329/329 330/330/330 386/386/386
f 435/435/435 327/327/327 328/328/328
f 328/328/328 436/436/436 435/435/435
f 515/515/515 435/435/435 436/436/436
f 347/347/347 346/346/346 345/345/345
f 346/346/346 361/361/361 345/345/345
f 345/345/345 348/348/348 347/347/347
f 349/349/349 347/347/347 348/348/348
f 348/348/348 350/350/350 349/349/349
f 351/351/351 349/349/349 350/350/350
f 350/350/350 352/352/352 351/351/351
f 351/351/351 352/352/352 394/394/394
f 394/394/394 393/393/393 351/351/351
f 393/393/393 394/394/394 392/392/392
f 392/392/392 389/389/389 393/393/393
f 389/389/389 392/392/392 391/391/391
f 391/391/391 390/390/390 389/389/389
f 391/391/391 401/401/401 390/390/390
f 355/355/355 354/354/354 353/353/353
f 353/353/353 354/354/354 362/362/362
f 353/353/353 356/356/356 355/355/355
f 357/357/357 355/355/355 356/356/356
f 356/356/356 358/358/358 357/357/357
f 359/359/359 357/357/357 358/358/358
f 358/358/358 360/360/360 359/359/359
f 359/359/359 360/360/360 400/400/400
f 400/400/400 399/399/399 359/359/359
f 399/399/399 400/400/400 398/398/398
f 398/398/398 395/395/395 399/399/399
f 395/395/395 398/398/398 397/397/397
f 397/397/397 396/396/396 395/395/395
f 402/402/402 396/396/396 397/397/397
f 365/365/365 364/364/364 363/363/363
f 363/363/363 366/366/366 365/365/365
f 387/387/387 365/365/365 366/366/366
f 367/367/367 363/363/363 364/364/364
f 364/364/364 368/368/368 367/367/367
f 369/369/369 367/367/367 368/368/368
f 368/368/368 370/370/370 369/369/369
f 369/369/369 370/370/370 407/407/407
f 407/407/407 408/408/408 369/369/369
f 408/408/408 407/407/407 404/404/404
f 404/404/404 405/405/405 408/408/408
f 405/405/405 404/404/404 403/403/403
f 403/403/403 406/406/406 405/405/405
f 406/406/406 403/403/403 412/412/412
f 373/373/373 372/372/372 371/371/371
f 376/376/376 375/375/375 374/374/374
f 379/379/379 378/378/378 377/377/377
f 380/380/380 379/379/379 377/377/377
f 381/381/381 380/380/380 377/377/377
f 382/382/382 381/381/381 377/377/377
f 385/385/385 384/384/384 383/383/383
f 418/418/418 383/383/383 384/384/384
f 417/417/417 418/418/418 384/384/384
f 416/416/416 417/417/417 384/384/384
f 415/415/415 416/416/416 384/384/384
f 384/384/384 414/414/414 415/415/415
f 384/384/384 410/410/410 414/414/414
f 410/410/410 384/384/384 409/409/409
f 421/421/421 420/420/420 419/419/419
f 421/421/421 419/419/419 422/422/422
f 421/421/421 422/422/422 423/423/423
f 421/421/421 423/423/423 424/424/424
f 427/427/427 426/426/426 425/425/425
f 425/425/425 428/428/428 427/427/427
f 427/427/427 428/428/428 492/492/492
f 533/533/533 425/425/425 426/426/426
f 426/426/426 534/534/534 533/533/533
f 621/621/621 533/533/533 534/534/534
f 433/433/433 432/432/432 431/431/431
f 431/431/431 434/434/434 433/433/433
f 433/433/433 434/434/434 490/490/490
f 539/539/539 431/431/431 432/432/432
f 432/432/432 540/540/540 539/539/539
f 619/619/619 539/539/539 540/540/540
f 451/451/451 450/450/450 449/449/449
f 450/450/450 465/465/465 449/449/449
f 449/449/449 452/452/452 451/451/451
f 453/453/453 451/451/451 452/452/452
f 452/452/452 454/454/454 453/453/453
f 455/455/455 453/453/453 454/454/454
f 454/454/454 456/456/456 455/455/455
f 455/455/455 456/456/456 498/498/498
f 498/498/498 497/497/497 455/455/455
f 497/497/497 498/498/498 496/496/496
f 496/496/496 493/493/493 497/497/497
f 493/493/493 496/496/496 495/495/495
f 495/495/495 494/494/494 493/493/493
f 495/495/495 505/505/505 494/494/494
f 459/459/459 458/458/458 457/457/457
f 457/457/457 458/458/458 466/466/466
f 457/457/457 460/460/460 459/459/459
f 461/461/461 459/459/459 460/460/460
f 460/460/460 462/462/462 461/461/461
f 463/463/463 461/461/461 462/462/462
f 462/462/462 464/464/464 463/463/463
f 463/463/463 464/464/464 504/504/504
f 504/504/504 503/503/503 463/463/463
f 503/503/503 504/504/504 502/502/502
f 502/502/502 499/499/499 503/503/503
f 499/499/499 502/502/502 501/501/501
f 501/501/501 500/500/500 499/499/499
f 506/506/506 500/500/500 501/501/501
f 469/469/469 468/468/468 467/467/467
f 467/467/467 470/470/470 469/469/469
f 491/491/491 469/469/469 470/470/470
f 471/471/471 467/467/467 468/468/468
f 468/468/468 472/472/472 471/471/471
f 473/473/473 471/471/471 472/472/472
f 472/472/472 474/474/474 473/473/473
f 473/473/473 474/474/474 511/511/511
f 511/511/511 512/512/512 473/473/473
f 512/512/512 511/511/511 508/508/508
f 508/508/508 509/509/509 512/512/512
f 509/509/509 508/508/508 507/507/507
f 507/507/507 510/510/510 509/509/509
f 510/510/510 507/507/507 516/516/516
f 477/477/477 476/476/476 475/475/475
f 480/480/480 479/479/479 478/478/478
f 483/483/483 482/482/482 481/481/481
f 484/484/484 483/483/483 481/481/481
f 485/485/485 484/484/484 481/481/481
f 486/486/486 485/485/485 481/481/481
f 489/489/489 488/488/488 487/487/487
f 522/522/522 487/487/487 488/488/488
f 521/521/521 522/522/522 488/488/488
f 520/520/520 521/521/521 488/488/488
f 519/519/519 520/520/520 488/488/488
f 488/488/488 518/518/518 519/519/519
f 488/488/488 514/514/514 518/518/518
f 514/514/514 488/488/488 513/513/513
f 525/525/525 524/524/524 523/523/523
f 525/525/525 523/523/523 526/526/526
f 525/525/525 526/526/526 527/527/527
f 525/525/525 527/527/527 528/528/528
f 531/531/531 530/530/530 529/529/529
f 529/529/529 532/532/532 531/531/531
f 531/531/531 532/532/532 596/596/596
f 637/637/637 529/529/529 530/530/530
f 530/530/530 638/638/638 637/637/637
f 725/725/725 637/637/637 638/638/638
f 537/537/537 536/536/536 535/535/535
f 535/535/535 538/538/538 537/537/537
f 537/537/537 538/538/538 594/594/594
f 643/643/643 535/535/535 536/536/536
f 536/536/536 644/644/644 643/643/643
f 723/723/723 643/643/643 644/644/644
f 555/555/555 554/554/554 553/553/553
f 554/554/554 569/569/569 553/553/553
f 553/553/553 556/556/556 555/555/555
f 557/557/557 555/555/555 556/556/556
f 556/556/556 558/558/558 557/557/557
f 559/559/559 557/557/557 558/558/558
f 558/558/558 560/560/560 559/559/559
f 559/559/559 560/560/560 602/602/602
f 602/602/602 601/601/601 559/559/559
f 601/601/601 602/602/602 600/600/600
f 600/600/600 597/597/597 601/601/601
f 597/597/597 600/600/600 599/599/599
f 599/599/599 598/598/598 597/597/597
f 599/599/599 609/609/609 598/598/598
f 563/563/563 562/562/562 561/561/561
f 561/561/561 562/562/562 570/570/570
f 561/561/561 564/564/564 563/563/563
f 565/565/565 563/563/563 564/564/564
f 564/564/564 566/566/566 565/565/565
f 567/567/567 565/565/565 566/566/566
f 566/566/566 568/568/568 567/567/567
f 567/567/567 568/568/568 608/608/608
f 608/608/608 607/607/607 567/567/567
f 607/607/607 608/608/608 606/606/606
f 606/606/606 603/603/603 607/607/607
f 603/603/603 606/606/606 605/605/605
f 605/605/605 604/604/604 603/603/603
f 610/610/610 604/604/604 605/605/605
f 573/573/573 572/572/572 571/571/571
f 571/571/571 574/574/574 573/573/573
f 595/595/595 573/573/573 574/574/574
f 575/575/575 571/571/571 572/572/572
f 572/572/572 576/576/576 575/575/575
f 577/577/577 575/575/575 576/576/576
f 576/576/576 578/578/578 577/577/577
f 577/577/577 578/578/578 615/615/615
f 615/615/615 616/616/616 577/577/577
f 616/616/616 615/615/615 612/612/612
f 612/612/612 613/613/613 616/616/616
f 613/613/613 612/612/612 611/611/611
f 611/611/611 614/614/614 613/613/613
f 614/614/614 611/611/611 620/620/620
f 581/581/581 580/580/580 579/579/579
f 584/584/584 583/583/583 582/582/582
f 587/587/587 586/586/586 585/585/585
f 588/588/588 587/587/587 585/585/585
f 589/589/589 588/588/588 585/585/585
f 590/590/590 589/589/589 585/585/585
f 593/593/593 592/592/592 591/591/591
f 626/626/626 591/591/591 592/592/592
f 625/625/625 626/626/626 592/592/592
f 624/624/624 625/625/625 592/592/592
f 623/623/623 624/624/624 592/592/592
f 592/592/592 622/622/622 623/623/623
f 592/592/592 618/618/618 622/622/622
f 618/618/618 592/592/592 617/617/617
f 629/629/629 628/628/628 627/627/627
f 629/629/629 627/627/627 630/630/630
f 629/629/629 630/630/630 631/631/631
f 629/629/629 631/631/631 632/632/632
f 635/635/635 634/634/634 633/633/633
f 633/633/633 636/636/636 635/635/635
f 635/635/635 636/636/636 700/700/700
f 739/739/739 633/633/633 634/634/634
f 634/634/634 740/740/740 739/739/739
f 822/822/822 739/739/739 740/740/740
f 641/641/641 640/640/640 639/639/639
f 639/639/639 642/642/642 641/641/641
f 641/641/641 642/642/642 698/698/698
f 743/743/743 639/639/639 640/640/640
f 640/640/640 744/744/744 743/743/743
f 820/820/820 743/743/743 744/744/744
f 659/659/659 658/658/658 657/657/657
f 658/658/658 673/673/673 657/657/657
f 657/657/657 660/660/660 659/659/659
f 661/661/661 659/659/659 660/660/660
f 660/660/660 662/662/662 661/661/661
f 663/663/663 661/661/661 662/662/662
f 662/662/662 664/664/664 663/663/663
f 663/663/663 664/664/664 706/706/706
f 706/706/706 705/705/705 663/663/663
f 705/705/705 706/706/706 704/704/704
f 704/704/704 701/701/701 705/705/705
f 701/701/701 704/704/704 703/703/703
f 703/703/703 702/702/702 701/701/701
f 703/703/703 713/713/713 702/702/702
f 667/667/667 666/666/666 665/665/665
f 665/665/665 666/666/666 674/674/674
f 665/665/665 668/668/668 667/667/667
f 669/669/669 667/667/667 668/668/668
f 668/668/668 670/670/670 669/669/669
f 671/671/671 669/669/669 670/670/670
f 670/670/670 672/672/672 671/671/671
f 671/671/671 672/672/672 712/712/712
f 712/712/712 711/711/711 671/671/671
f 711/711/711 712/712/712 710/710/710
f 710/710/710 707/707/707 711/711/711
f 707/707/707 710/710/710 709/709/709
f 709/709/709 708/708/708 707/707/707
f 714/714/714 708/708/708 709/709/709
f 677/677/677 676/676/676 675/675/675
f 675/675/675 678/678/678 677/677/677
f 699/699/699 677/677/677 678/678/678
f 679/679/679 675/675/675 676/676/676
f 676/676/676 680/680/680 679/679/679
f 681/681/681 679/679/679 680/680/680
f 680/680/680 682/682/682 681/681/681
f 681/681/681 682/682/682 719/719/719
f 719/719/719 720/720/720 681/681/681
f 720/720/720 719/719/719 716/716/716
f 716/716/716 717/717/717 720/720/720
f 717/717/717 716/716/716 715/715/715
f 715/715/715 718/718/718 717/717/717
f 718/718/718 715/715/715 724/724/724
f 685/685/685 684/684/684 683/683/683
f 688/688/688 687/687/687 686/686/686
f 691/691/691 690/690/690 689/689/689
f 692/692/692 691/691/691 689/689/689
f 693/693/693 692/692/692 689/689/689
f 694/694/694 693/693/693 689/689/689
f 697/697/697 696/696/696 695/695/695
f 730/730/730 695/695/695 696/696/696
f 729/729/729 730/730/730 696/696/696
f 728/728/728 729/729/729 696/696/696
f 727/727/727 728/728/728 696/696/696
f 696/696/696 726/726/726 727/727/727
f 696/696/696 722/722/722 726/726/726
f 722/722/722 696/696/696 721/721/721
f 733/733/733 732/732/732 731/731/731
f 733/733/733 731/731/731 734/734/734
f 733/733/733 734/734/734 735/735/735
f 733/733/733 735/735/735 736/736/736
f 756/756/756 755/755/755 754/754/754
f 755/755/755 770/770/770 754/754/754
f 754/754/754 757/757/757 756/756/756
f 758/758/758 756/756/756 757/757/757
f 757/757/757 759/759/759 758/758/758
f 760/760/760 758/758/758 759/759/759
f 759/759/759 761/761/761 760/760/760
f 760/760/760 761/761/761 803/803/803
f 803/803/803 802/802/802 760/760/760
f 802/802/802 803/803/803 801/801/801
f 801/801/801 798/798/798 802/802/802
f 798/798/798 801/801/801 800/800/800
f 800/800/800 799/799/799 798/798/798
f 800/800/800 810/810/810 799/799/799
f 764/764/764 763/763/763 762/762/762
f 762/762/762 763/763/763 771/771/771
f 762/762/762 765/765/765 764/764/764
f 766/766/766 764/764/764 765/765/765
f 765/765/765 767/767/767 766/766/766
f 768/768/768 766/766/766 767/767/767
f 767/767/767 769/769/769 768/768/768
f 768/768/768 769/769/769 809/809/809
f 809/809/809 808/808/808 768/768/768
f 808/808/808 809/809/809 807/807/807
f 807/807/807 804/804/804 808/808/808
f 804/804/804 807/807/807 806/806/806
f 806/806/806 805/805/805 804/804/804
f 811/811/811 805/805/805 806/806/806
f 774/774/774 773/773/773 772/772/772
f 772/772/772 775/775/775 774/774/774
f 796/796/796 774/774/774 775/775/775
f 776/776/776 772/772/772 773/773/773
f 773/773/773 777/777/777 776/776/776
f 778/778/778 776/776/776 777/777/777
f 777/777/777 779/779/779 778/778/778
f 778/778/778 779/779/779 816/816/816
f 816/816/816 817/817/817 778/778/778
f 817/817/817 816/816/816 813/813/813
f 813/813/813 814/814/814 817/817/817
f 814/814/814 813/813/813 812/812/812
f 812/812/812 815/815/815 814/814/814
f 815/815/815 812/812/812 821/821/821
f 782/782/782 781/781/781 780/780/780
f 785/785/785 784/784/784 783/783/783
f 788/788/788 787/787/787 786/786/786
f 789/789/789 788/788/788 786/786/786
f 790/790/790 789/789/789 786/786/786
f 791/791/791 790/790/790 786/786/786
f 794/794/794 793/793/793 792/792/792
f 827/827/827 792/792/792 793/793/793
f 826/826/826 827/827/827 793/793/793
f 825/825/825 826/826/826 793/793/793
f 824/824/824 825/825/825 793/793/793
f 793/793/793 823/823/823 824/824/824
f 793/793/793 819/819/819 823/823/823
f 819/819/819 793/793/793 818/818/818
f 830/830/830 829/829/829 828/828/828
f 830/830/830 828/828/828 831/831/831
f 830/830/830 831/831/831 832/832/832
f 830/830/830 832/832/832 833/833/833
