# VPXTOOL table OBJ file
# VPXTOOL OBJ file
# numVerts: 305 numFaces: 328
o VRPlungerHousing
v 8.326548 22.97152 -16.101845
v 9.50659 22.971521 -16.101845
v 8.326548 23.134138 -14.792416
v 9.565316 23.005405 -16.166933
v 9.558584 23.005018 -16.169836
v 9.565316 22.784985 -16.169178
v 8.290012 23.005016 -16.169834
v 8.290012 22.78501 -16.172075
v 9.558447 23.006927 -16.168427
v 8.290152 23.00693 -16.168427
v 9.558584 23.005018 -16.169836
v 9.564315 23.007265 -16.165915
v 9.565316 23.005405 -16.166933
v 9.558447 23.006927 -16.168427
v 9.55811 23.008097 -16.165068
v 8.290152 23.00693 -16.168427
v 9.564315 23.007265 -16.165915
v 9.561905 23.008308 -16.163492
v 9.494348 23.017458 -16.09586
v 8.290486 23.008097 -16.165068
v 8.284284 23.007265 -16.165915
v 8.286694 23.008307 -16.163492
v 8.354237 23.017462 -16.095839
v 8.357585 23.017166 -16.092495
v 8.28512 23.008823 -16.159693
v 8.28512 23.202799 -14.725684
v 8.354252 23.19416 -14.789517
v 8.357597 23.192358 -14.792883
v 8.357597 23.192358 -14.792883
v 8.357585 23.017166 -16.092495
v 8.358986 23.18891 -14.794307
v 9.491001 23.017162 -16.092516
v 9.489614 23.015535 -16.091145
v 8.357585 23.017166 -16.092495
v 9.491014 23.192354 -14.792904
v 9.489626 23.188906 -14.794327
v 9.491001 23.017162 -16.092516
v 9.494362 23.194157 -14.789538
v 9.491014 23.192354 -14.792904
v 9.489626 22.773191 -14.798559
v 9.489614 23.015535 -16.091145
v 8.358986 23.18891 -14.794307
v 8.358986 22.773191 -14.79854
v 9.489626 23.188906 -14.794327
v 8.358974 22.784334 -16.093477
v 8.358986 22.773191 -14.79854
v 8.358974 23.015537 -16.091124
v 9.491014 23.192354 -14.792904
v 8.357597 23.192358 -14.792883
v 8.357597 23.192358 -14.792883
v 9.491014 23.192354 -14.792904
v 8.290486 23.203522 -14.720309
v 9.55811 23.203522 -14.720309
v 9.563478 23.202799 -14.725683
v 9.563478 23.008823 -16.159693
v 9.561905 23.20331 -14.721885
v 9.566824 23.008059 -16.160036
v 9.566824 23.201458 -14.725363
v 9.564315 23.202253 -14.719483
v 9.568213 23.006306 -16.160192
v 9.568213 23.198141 -14.725257
v 9.566824 23.008059 -16.160036
v 9.564315 23.202253 -14.719483
v 9.566824 23.201458 -14.725363
v 9.565313 23.199043 -14.718517
v 9.564315 23.202253 -14.719483
v 9.558447 23.202589 -14.716971
v 9.565313 23.199043 -14.718517
v 9.558584 23.19943 -14.715616
v 9.564315 23.202253 -14.719483
v 9.565313 22.772543 -14.72286
v 9.558584 22.772516 -14.719963
v 9.568213 22.7726 -14.72959
v 9.565313 22.772543 -14.72286
v 8.290012 22.772516 -14.719963
v 8.290012 23.19943 -14.715615
v 8.290152 23.202589 -14.716971
v 8.283282 23.199043 -14.718517
v 8.283282 23.199043 -14.718517
v 8.283282 22.772543 -14.72286
v 8.280386 23.198141 -14.725257
v 8.284284 23.202253 -14.719484
v 8.281773 23.201458 -14.725363
v 8.284284 23.202253 -14.719484
v 8.286694 23.20331 -14.721885
v 8.284284 23.202253 -14.719484
v 8.290152 23.202589 -14.716971
v 8.281773 23.201458 -14.725363
v 8.281773 23.008059 -16.160034
v 8.280386 23.006306 -16.160192
v 8.284284 23.007265 -16.165915
v 8.281773 23.008059 -16.160034
v 8.284284 23.007265 -16.165915
v 8.283282 23.005405 -16.166933
v 8.280386 22.78493 -16.162449
v 8.283282 23.005405 -16.166933
v 8.283282 23.005405 -16.166933
v 8.283282 22.784985 -16.169178
v 8.280386 22.7726 -14.729591
v 9.568213 22.784927 -16.162447
v 9.565316 23.005405 -16.166933
v 9.564315 23.007265 -16.165915
v 8.867244 23.291386 -15.980914
v 8.953062 23.291386 -15.980915
v 8.869111 23.293783 -15.97407
v 8.951197 23.293783 -15.974068
v 8.941783 23.291441 -15.94056
v 8.793918 23.288275 -15.936433
v 8.798974 23.290808 -15.931522
v 8.878523 23.29144 -15.940559
v 8.879549 23.290417 -15.936956
v 8.827252 23.288198 -15.905231
v 8.940757 23.290417 -15.936956
v 9.021332 23.290808 -15.931521
v 8.995835 23.289146 -15.907769
v 8.993053 23.288198 -15.905231
v 9.059095 23.285725 -15.858817
v 9.02494 23.285229 -15.851736
v 9.021214 23.284409 -15.851018
v 9.021214 23.284409 -15.851018
v 9.018167 23.282269 -15.850533
v 8.993053 23.288198 -15.905231
v 8.939919 23.288113 -15.934114
v 8.990779 23.285955 -15.903258
v 9.014106 23.278126 -15.791287
v 9.017036 23.280148 -15.790102
v 9.020622 23.280827 -15.788776
v 9.017036 23.280148 -15.790102
v 8.981737 23.27666 -15.740219
v 8.979777 23.274733 -15.742771
v 8.981737 23.27666 -15.740219
v 8.984142 23.277222 -15.737219
v 8.926117 23.275463 -15.712076
v 8.925601 23.27496 -15.715893
v 8.925177 23.273079 -15.719114
v 8.924889 23.270124 -15.721404
v 8.978454 23.271746 -15.744612
v 9.012128 23.275074 -15.792206
v 8.89513 23.273079 -15.719114
v 8.894708 23.27496 -15.715893
v 8.895417 23.270124 -15.721404
v 8.895522 23.266375 -15.72243
v 8.924889 23.270124 -15.721404
v 8.924784 23.266375 -15.72243
v 8.895417 23.270124 -15.721404
v 8.841855 23.271746 -15.744613
v 8.842339 23.267986 -15.745474
v 8.840531 23.274733 -15.742772
v 8.808178 23.275074 -15.792206
v 8.808902 23.271292 -15.792728
v 8.842339 23.267986 -15.745474
v 8.808902 22.919605 -15.817321
v 8.895522 22.914688 -15.747023
v 8.842339 22.9163 -15.770066
v 8.804193 23.279139 -15.850324
v 8.808902 23.271292 -15.792728
v 8.804947 23.275326 -15.850433
v 8.808902 22.919605 -15.817321
v 8.831622 23.278917 -15.901789
v 8.804947 23.275326 -15.850433
v 8.83106 23.282755 -15.902047
v 8.804947 22.92364 -15.875027
v 8.831622 22.92723 -15.926381
v 8.831622 23.278917 -15.901789
v 8.881162 22.929333 -15.956434
v 8.881162 23.28102 -15.931842
v 8.939144 23.28102 -15.931842
v 8.881162 22.929333 -15.956434
v 8.988684 22.92723 -15.926381
v 8.939144 22.929333 -15.956433
v 8.988684 23.278917 -15.901789
v 8.988684 22.92723 -15.926381
v 8.988684 23.278917 -15.901789
v 9.015359 22.92364 -15.875027
v 9.015359 23.275326 -15.850433
v 9.016113 23.279139 -15.850325
v 8.939351 23.284872 -15.932316
v 8.989245 23.282755 -15.902048
v 8.939144 23.28102 -15.931842
v 8.939919 23.288113 -15.934114
v 8.880955 23.284872 -15.932316
v 8.939351 23.284872 -15.932316
v 8.880387 23.288113 -15.934114
v 8.939919 23.288113 -15.934114
v 8.880387 23.288113 -15.934114
v 8.829525 23.285955 -15.903259
v 8.829525 23.285955 -15.903259
v 8.880387 23.288113 -15.934114
v 8.80214 23.282269 -15.850533
v 8.799094 23.284409 -15.851018
v 8.799094 23.284409 -15.851018
v 8.824469 23.289146 -15.907769
v 8.8062 23.278126 -15.791287
v 8.803268 23.280148 -15.790102
v 8.803268 23.280148 -15.790102
v 8.795363 23.285229 -15.851738
v 8.761209 23.285725 -15.858816
v 8.766813 23.280012 -15.777122
v 8.799681 23.280827 -15.788776
v 8.838566 23.27666 -15.740219
v 8.836164 23.277222 -15.737219
v 8.894189 23.275463 -15.712076
v 8.88944 23.273052 -15.677602
v 8.814148 23.275333 -15.710225
v 8.809783 23.272097 -15.70507
v 8.809783 23.272097 -15.70507
v 8.760294 23.276987 -15.775011
v 8.930866 23.273052 -15.677602
v 8.93181 23.26971 -15.670965
v 8.888497 23.26971 -15.670964
v 9.006155 23.275333 -15.710224
v 9.053493 23.280012 -15.777122
v 9.060012 23.276987 -15.775011
v 9.010522 23.272097 -15.705072
v 9.012333 23.26504 -15.703335
v 9.010522 23.272097 -15.705072
v 9.062714 23.27002 -15.774536
v 8.932199 23.262611 -15.668613
v 8.93181 23.26971 -15.670965
v 9.060012 23.276987 -15.775011
v 9.06587 23.282959 -15.86042
v 9.06587 23.282959 -15.86042
v 9.062714 22.918333 -15.799128
v 9.068677 22.924412 -15.886079
v 9.062714 22.918333 -15.799128
v 9.068677 23.276098 -15.861485
v 9.028482 23.28151 -15.938868
v 9.028482 22.929823 -15.963461
v 9.068677 22.924412 -15.886079
v 8.953062 23.291386 -15.980915
v 8.953836 23.284678 -15.984151
v 9.026386 23.288275 -15.936433
v 9.028482 22.929823 -15.963461
v 8.866469 22.932991 -16.008743
v 8.953836 22.932991 -16.008743
v 8.866469 23.284678 -15.984151
v 8.791823 22.929823 -15.963459
v 8.866469 22.932991 -16.008743
v 8.791823 23.28151 -15.938868
v 8.75163 22.924412 -15.886079
v 8.791823 22.929823 -15.963459
v 8.75163 23.276098 -15.861486
v 8.793918 23.288275 -15.936433
v 8.867244 23.291386 -15.980914
v 8.754438 23.282959 -15.860422
v 8.757592 23.27002 -15.774536
v 8.757592 22.918333 -15.799129
v 8.754438 23.282959 -15.860422
v 8.809783 23.272097 -15.70507
v 8.807974 23.26504 -15.703335
v 8.760294 23.276987 -15.775011
v 8.757592 22.918333 -15.799129
v 8.807974 22.913353 -15.727926
v 8.888106 22.910925 -15.693206
v 8.932199 22.910925 -15.693205
v 8.888106 23.262611 -15.668612
v 8.888497 23.26971 -15.670964
v 8.953836 23.284678 -15.984151
v 8.867244 23.291386 -15.980914
v 9.026386 23.288275 -15.936433
v 9.026386 23.288275 -15.936433
v 8.838566 23.27666 -15.740219
v 8.881162 23.28102 -15.931842
v 8.880955 23.284872 -15.932316
v 9.015359 23.275326 -15.850433
v 9.011401 23.271292 -15.792728
v 8.977966 23.267986 -15.745475
v 9.011401 22.919605 -15.817321
v 9.015359 22.92364 -15.875027
v 9.011401 22.919605 -15.817321
v 8.977966 23.267986 -15.745475
v 8.977966 22.9163 -15.770066
v 8.924784 22.914688 -15.747024
v 9.506593 23.134138 -14.792416
v 9.558547 22.784056 -16.171713
v 8.290012 23.005016 -16.169834
v 9.491001 23.017162 -16.092516
v 8.358974 23.015537 -16.091124
v 9.489614 22.784332 -16.093498
v 9.489626 22.773191 -14.798559
v 9.558447 23.202589 -14.716971
v 8.283282 22.772543 -14.72286
v 8.284284 23.202253 -14.719484
v 8.283282 23.005405 -16.166933
v 8.283282 22.784985 -16.169178
v 9.565316 22.784985 -16.169178
v 9.565316 23.005405 -16.166933
v 8.979777 23.274733 -15.742771
v 8.842339 22.9163 -15.770066
v 8.804947 22.92364 -15.875027
v 8.831622 22.92723 -15.926381
v 8.939144 22.929333 -15.956433
v 8.827252 23.288198 -15.905231
v 9.010522 23.272097 -15.705072
v 9.012333 22.913353 -15.727928
v 8.953836 22.932991 -16.008743
v 8.866469 23.284678 -15.984151
v 8.75163 22.924412 -15.886079
v 8.793918 23.288275 -15.936433
v 8.807974 22.913353 -15.727926
v 9.012333 22.913353 -15.727928
v 8.953062 23.291386 -15.980915
v 8.840531 23.274733 -15.742772
v 9.011401 23.271292 -15.792728
v 8.977966 22.9163 -15.770066
vt 0.491126 0.84495902
vt 0.490312 0.94714898
vt 0.454043 0.84221601
vt 0.949851 0.492105
vt 0.050163 0.95179999
vt 0.941502 0.49221802
vt 0.050073 0.84194398
vt 0.058405 0.84191698
vt 0.492152 0.951785028
vt 0.493027 0.841954
vt 0.050163 0.95179999
vt 0.949921 0.49207604
vt 0.949851 0.492105
vt 0.492152 0.951785028
vt 0.492057 0.951749027
vt 0.493027 0.841954
vt 0.492076 0.952287972
vt 0.492009 0.95207399
vt 0.49014 0.946081996
vt 0.492931 0.84197599
vt 0.49296 0.84144002
vt 0.492889 0.84164399
vt 0.490927 0.84735101
vt 0.49083 0.84763402
vt 0.492783 0.84149998
vt 0.452169 0.83849698
vt 0.453929 0.84461701
vt 0.95661 0.454022
vt 0.95661 0.454022
vt 0.95036 0.49083
vt 0.95648 0.45406199
vt 0.490048 0.945784986
vt 0.950217 0.94566202
vt 0.49083 0.84763402
vt 0.043471 0.453241
vt 0.043601 0.453283
vt 0.049721 0.490048
vt 0.453143 0.943349004
vt 0.043471 0.453241
vt 0.059346 0.45349503
vt 0.049783 0.49001098
vt 0.04352 0.84503698
vt 0.059266 0.84498501
vt 0.043601 0.942947984
vt 0.941541 0.49090898
vt 0.940734 0.454275
vt 0.950298 0.49079
vt 0.043471 0.943066
vt 0.04339 0.84491402
vt 0.454022 0.84491402
vt 0.453241 0.943066
vt 0.452013 0.83895099
vt 0.451138 0.94872397
vt 0.451287 0.949199975
vt 0.491901 0.952202022
vt 0.45118 0.94905603
vt 0.491908 0.952493012
vt 0.956849 0.451276
vt 0.956877 0.45111096
vt 0.949883 0.491912
vt 0.956723 0.451272
vt 0.949949 0.491908
vt 0.956877 0.45111096
vt 0.956849 0.451276
vt 0.956755 0.451083
vt 0.451111 0.949259996
vt 0.451044 0.948746026
vt 0.956755 0.451083
vt 0.95677 0.948755026
vt 0.956877 0.45111096
vt 0.940601 0.45130098
vt 0.9406 0.948701978
vt 0.940605 0.45149004
vt 0.940601 0.45130098
vt 0.94069 0.83884603
vt 0.95686 0.83889902
vt 0.95698 0.83891499
vt 0.043154 0.451968
vt 0.043154 0.451968
vt 0.059307 0.452186
vt 0.043186 0.452161
vt 0.043032 0.451994
vt 0.04306 0.45216203
vt 0.043032 0.451994
vt 0.45206 0.83862603
vt 0.043032 0.451994
vt 0.451919 0.83891499
vt 0.04306 0.45216203
vt 0.04996 0.492795
vt 0.050026 0.492801
vt 0.049988 0.49295998
vt 0.492795 0.84121001
vt 0.49296 0.84144002
vt 0.050058 0.49299002
vt 0.058411 0.49291396
vt 0.050058 0.49299002
vt 0.050058 0.49299002
vt 0.058407 0.493102
vt 0.059303 0.452379
vt 0.941498 0.49202502
vt 0.949851 0.492105
vt 0.949921 0.49207604
vt 0.48726 0.891574025
vt 0.487201 0.899004996
vt 0.487065 0.89172101
vt 0.487008 0.89882898
vt 0.486067 0.89794302
vt 0.486053 0.885128975
vt 0.48591 0.885556996
vt 0.486111 0.892464995
vt 0.486008 0.892546
vt 0.485147 0.88795
vt 0.485966 0.897847
vt 0.485756 0.90481299
vt 0.485102 0.90255499
vt 0.485033 0.90230799
vt 0.483675 0.907929
vt 0.483498 0.90495598
vt 0.48348 0.90463102
vt 0.039636 0.48347998
vt 0.039717 0.483469
vt 0.039475 0.48503304
vt 0.485887 0.89776802
vt 0.03956 0.48497903
vt 0.039891 0.48179698
vt 0.039816 0.48176098
vt 0.481721 0.90444797
vt 0.481761 0.904139996
vt 0.03996 0.480375
vt 0.040032 0.48044896
vt 0.480375 0.90097803
vt 0.480288 0.90118003
vt 0.479617 0.896101
vt 0.479726 0.896065
vt 0.479817 0.896034
vt 0.479883 0.896013975
vt 0.040145 0.480502
vt 0.040007 0.481825
vt 0.479838 0.893432975
vt 0.479747 0.89338899
vt 0.040207 0.893462
vt 0.040349 0.893472016
vt 0.040209 0.896013975
vt 0.040351 0.896007
vt 0.479903 0.893462
vt 0.959865 0.48059702
vt 0.959723 0.48062098
vt 0.959978 0.48054504
vt 0.960008 0.48196602
vt 0.959865 0.48198104
vt 0.959723 0.48062098
vt 0.946551 0.482755
vt 0.053663 0.89347303
vt 0.946409 0.48139596
vt 0.960179 0.483612
vt 0.959865 0.48198104
vt 0.960035 0.48361504
vt 0.946551 0.482755
vt 0.960184 0.485049
vt 0.960035 0.48361504
vt 0.96033 0.48505604
vt 0.946721 0.484389
vt 0.94687 0.48582304
vt 0.960184 0.485049
vt 0.946955 0.48663902
vt 0.960269 0.89267403
vt 0.960265 0.897695005
vt 0.946955 0.89267403
vt 0.053141 0.48571503
vt 0.053049 0.48659897
vt 0.039827 0.48494
vt 0.053141 0.48571503
vt 0.039827 0.48494
vt 0.053294 0.484244
vt 0.03998 0.48346996
vt 0.039836 0.48346496
vt 0.039589 0.48583698
vt 0.039682 0.48494697
vt 0.039735 0.485824
vt 0.039466 0.485887
vt 0.960415 0.89265698
vt 0.960411 0.89771402
vt 0.960539 0.89261198
vt 0.960534 0.89776802
vt 0.485928 0.89261198
vt 0.48509 0.88814199
vt 0.960451 0.48509002
vt 0.960539 0.485928
vt 0.960298 0.48361802
vt 0.960379 0.483634
vt 0.483634 0.885396
vt 0.485221 0.88771498
vt 0.960123 0.48194003
vt 0.9602 0.48190796
vt 0.481908 0.885629
vt 0.483656 0.88507497
vt 0.48388 0.882131994
vt 0.481566 0.882444024
vt 0.481873 0.885315
vt 0.480473 0.88857901
vt 0.48039 0.88836497
vt 0.479639 0.893336
vt 0.478668 0.89285201
vt 0.479642 0.886401
vt 0.4795 0.88601202
vt 0.040131 0.4795
vt 0.039921 0.481512
vt 0.478639 0.89644003
vt 0.478451 0.896507025
vt 0.478481 0.892755985
vt 0.47951 0.903029025
vt 0.481368 0.907270014
vt 0.960057 0.481305
vt 0.959855 0.479361
vt 0.959587 0.47931302
vt 0.959855 0.479361
vt 0.959793 0.481291
vt 0.95949 0.896534026
vt 0.95976 0.896507025
vt 0.960057 0.481305
vt 0.960308 0.483716
vt 0.960308 0.483716
vt 0.946479 0.48206496
vt 0.946735 0.48451996
vt 0.946479 0.48206496
vt 0.960049 0.483746
vt 0.96028 0.48596096
vt 0.946965 0.486736
vt 0.946735 0.48451996
vt 0.960671 0.48720098
vt 0.960418 0.487293
vt 0.960535 0.485892
vt 0.946965 0.486736
vt 0.05289 0.89151299
vt 0.052896 0.899079025
vt 0.039576 0.89151198
vt 0.053018 0.48689902
vt 0.05289 0.488128
vt 0.039704 0.486125
vt 0.053243 0.484739
vt 0.053018 0.48689902
vt 0.039929 0.48396397
vt 0.039448 0.486053
vt 0.039322 0.48725998
vt 0.039669 0.483931
vt 0.040185 0.481502
vt 0.053499 0.48227596
vt 0.039669 0.483931
vt 0.040131 0.4795
vt 0.040399 0.47945404
vt 0.039921 0.481512
vt 0.053499 0.48227596
vt 0.053713 0.480228
vt 0.946179 0.892717004
vt 0.946176 0.89653498
vt 0.959493 0.89271599
vt 0.959763 0.892755985
vt 0.039582 0.89907801
vt 0.48726 0.891574025
vt 0.485892 0.90526098
vt 0.960535 0.485892
vt 0.96005 0.48047304
vt 0.960269 0.48586404
vt 0.960415 0.48587704
vt 0.03998 0.48346996
vt 0.04015 0.48184097
vt 0.040287 0.480528
vt 0.053464 0.482615
vt 0.053294 0.484244
vt 0.053464 0.482615
vt 0.040287 0.480528
vt 0.053601 0.48130202
vt 0.053665 0.896007
vt 0.453229 0.94440502
vt 0.058496 0.951771975
vt 0.050073 0.84194398
vt 0.490048 0.945784986
vt 0.950298 0.84775102
vt 0.05854 0.490129
vt 0.059346 0.94289601
vt 0.95689 0.948746026
vt 0.059307 0.452186
vt 0.451994 0.83841199
vt 0.050058 0.49299002
vt 0.058407 0.493102
vt 0.941502 0.49221802
vt 0.949851 0.492105
vt 0.480449 0.90081298
vt 0.946409 0.48139596
vt 0.946721 0.484389
vt 0.94687 0.48582304
vt 0.946951 0.897695005
vt 0.960537 0.485147
vt 0.479361 0.903395
vt 0.946273 0.48008704
vt 0.947104 0.48806798
vt 0.039576 0.48735404
vt 0.053243 0.484739
vt 0.039448 0.486053
vt 0.053713 0.480228
vt 0.946273 0.48008704
vt 0.487201 0.899004996
vt 0.480545 0.88875401
vt 0.04015 0.48184097
vt 0.053601 0.48130202
vn -0 0.9924 -0.1232
vn -0 0.9924 -0.1232
vn -0 0.9924 -0.1232
vn 0.3954 0.0093 -0.9185
vn 0.0157 0.0094 -0.9998
vn 0.3507 0.0079 -0.9365
vn -0.0061 0.0102 -0.9999
vn -0.0003 0.0096 -1
vn 0.0007 0.5943 -0.8043
vn 0.0004 0.5938 -0.8046
vn 0.001 0.5948 -0.8038
vn 0.293 0.575 -0.7639
vn 0.2933 0.5768 -0.7624
vn 0.0002 0.9446 -0.3283
vn -0.0004 0.9895 -0.1443
vn -0.0001 0.9445 -0.3284
vn 0.1401 0.9528 -0.2692
vn 0.0121 0.9892 -0.1461
vn 0.0027 0.9916 -0.1295
vn -0.0054 0.9897 -0.1427
vn -0.1401 0.9526 -0.27
vn 0.0161 0.9797 -0.1998
vn 0.0314 0.9972 -0.0681
vn 0.1234 0.9919 -0.0309
vn 0.0094 0.9909 -0.1343
vn -0.1195 0.9632 -0.2407
vn -0.0014 0.9849 -0.1732
vn 0.1967 0.9322 -0.3037
vn 0.9188 0.3912 -0.0528
vn 0.7916 0.6057 -0.0809
vn 0.9988 -0.0479 0.0069
vn -0 0.6455 0.7637
vn -0 0.6455 0.7637
vn -0 0.6432 0.7657
vn -0.9185 0.3919 -0.0528
vn -0.9988 -0.0479 0.0069
vn -0.7908 0.6066 -0.0811
vn -0.017 0.9897 -0.1424
vn -0.1965 0.9324 -0.3033
vn -1 -0 -0
vn -0.9958 0.0908 -0.0132
vn -0 0.0136 -0.9999
vn -0 0.0102 -0.9999
vn -0 0.0176 -0.9998
vn 1 -0 -0
vn 1 -0 -0
vn 0.9958 0.0904 -0.0131
vn -0 0.3813 -0.9245
vn -0 0.3817 -0.9243
vn 0.1967 0.9322 -0.3037
vn -0.1965 0.9324 -0.3033
vn 0.001 0.9934 -0.1146
vn -0.1266 0.9917 -0.0239
vn 0.0368 0.9903 -0.1339
vn 0.0424 0.9975 -0.0557
vn 0.0241 0.9936 -0.1107
vn 0.2499 0.9595 -0.1303
vn 0.3413 0.9315 -0.1262
vn 0.2742 0.9511 0.142
vn 0.999 0.0419 -0.0128
vn 0.9997 -0.025 0.0046
vn 0.8276 0.5567 -0.0717
vn 0.872 0.3683 0.3226
vn 0.898 0.4364 -0.0562
vn 0.9187 -0.0007 0.3949
vn 0.2742 0.9511 0.142
vn 0.0002 0.9633 0.2684
vn 0.3957 -0.0089 0.9183
vn 0.0003 -0.0085 1
vn 0.3845 0.3751 0.8435
vn 0.3954 -0.0094 0.9185
vn 0.0062 -0.0102 0.9999
vn 1 -0.0003 0.0007
vn 0.9184 -0.004 0.3956
vn -0.0041 -0.0102 0.9999
vn 0.0019 0.3941 0.9191
vn 0.0006 0.3956 0.9184
vn -0.396 -0.0088 0.9182
vn -0.9188 -0.0006 0.3947
vn -0.9186 -0.004 0.3953
vn -0.9996 -0.027 0.0072
vn -0.8717 0.3689 0.3226
vn -0.8983 0.4357 -0.0561
vn -0.3847 0.3755 0.8432
vn -0.0248 0.9935 -0.1111
vn -0.2742 0.9511 0.142
vn -0 0.9628 0.27
vn -0.3411 0.9315 -0.1262
vn -0.8282 0.5559 -0.0718
vn -0.999 0.0417 -0.0128
vn -0.7091 0.5918 -0.3834
vn -0.2497 0.9595 -0.1304
vn -0.2939 0.5762 -0.7627
vn -0.2939 0.5773 -0.7618
vn -1 0.0004 -0.0052
vn -0.9186 0.004 -0.3952
vn -0.3955 0.0094 -0.9184
vn -0.3954 0.0093 -0.9185
vn -1 -0 0.0008
vn 1 0.0001 -0.0052
vn 0.9186 0.004 -0.3952
vn 0.7088 0.5921 -0.3834
vn -0.1034 0.9472 -0.3034
vn 0.1033 0.9472 -0.3035
vn -0.0087 0.9999 -0.0089
vn 0.2116 0.9662 -0.1474
vn -0.0048 0.9962 0.0868
vn -0.28 0.9397 -0.1965
vn -0.0485 0.9988 0.0068
vn -0.0331 0.9828 0.1815
vn 0.1025 0.8972 0.4297
vn 0.2775 0.9048 0.3229
vn -0.1024 0.8976 0.4288
vn 0.0567 0.9982 0.0167
vn -0.013 0.9966 0.0819
vn -0.2774 0.9048 0.323
vn 0.0755 0.9957 0.0539
vn -0.0177 0.9971 0.0733
vn -0.3724 0.9172 0.1416
vn -0.3724 0.9172 0.1416
vn -0.6899 0.6979 0.1925
vn -0.2774 0.9048 0.323
vn -0.1902 0.6605 0.7263
vn -0.4985 0.7036 0.5064
vn -0.6644 0.7239 -0.1858
vn -0.3579 0.9318 -0.061
vn -0.0163 0.9978 0.0639
vn -0.3579 0.9318 -0.061
vn -0.2398 0.9433 -0.2294
vn -0.445 0.7454 -0.4964
vn -0.2398 0.9433 -0.2294
vn -0.0085 0.9985 0.0534
vn -0.0048 0.9986 0.0527
vn -0.103 0.9472 -0.3036
vn -0.1892 0.7517 -0.6317
vn -0.2474 0.4429 -0.8618
vn -0.5822 0.4344 -0.6872
vn -0.8697 0.4057 -0.2812
vn 0.1893 0.7521 -0.6313
vn 0.1009 0.9464 -0.3069
vn 0.1771 0.4033 -0.8978
vn 0.2705 0.0683 -0.9603
vn -0.2474 0.4429 -0.8618
vn -0.296 0.2325 -0.9265
vn 0.1771 0.4033 -0.8978
vn 0.5827 0.4334 -0.6875
vn 0.3984 0.0669 -0.9148
vn 0.421 0.7577 -0.4986
vn 0.8696 0.4056 -0.2817
vn 0.8168 0.0423 -0.5753
vn 0.8171 0.0426 -0.5749
vn 0.817 0.0402 -0.5753
vn 0.2698 0.0672 -0.9606
vn 0.3984 0.064 -0.915
vn 0.9039 0.3704 0.2141
vn 0.9977 0.0076 -0.0679
vn 0.9977 0.0066 -0.0679
vn 0.9977 0.0048 -0.0681
vn 0.8878 -0.0303 0.4592
vn 0.8879 -0.0293 0.459
vn 0.6743 0.3405 0.6552
vn 0.8879 -0.0321 0.459
vn 0.5196 -0.0596 0.8523
vn 0.5196 -0.0572 0.8525
vn 0.5196 -0.0596 0.8523
vn -0 -0.0667 0.9978
vn -0 -0.0682 0.9977
vn -0 -0.0698 0.9976
vn -0.5196 -0.0596 0.8523
vn -0.5196 -0.0596 0.8523
vn -0.5194 -0.058 0.8525
vn -0.8879 -0.0321 0.4589
vn -0.888 -0.0297 0.4589
vn -0.8879 -0.0321 0.4589
vn -0.8878 -0.03 0.4593
vn -0.9036 0.371 0.2143
vn -0.2491 0.3216 0.9135
vn -0.6746 0.3396 0.6554
vn -0.5197 -0.0566 0.8524
vn -0.1902 0.6605 0.7263
vn 0.249 0.322 0.9134
vn -0.2491 0.3216 0.9135
vn 0.1901 0.6602 0.7266
vn -0.1902 0.6605 0.7263
vn 0.1901 0.6602 0.7266
vn 0.5153 0.674 0.5293
vn 0.5153 0.674 0.5293
vn 0.1901 0.6602 0.7266
vn 0.6832 0.7098 0.1714
vn 0.3715 0.9176 0.1417
vn 0.3715 0.9176 0.1417
vn 0.1239 0.9832 0.1344
vn 0.6337 0.7518 -0.1822
vn 0.3578 0.9317 -0.0624
vn 0.3578 0.9317 -0.0624
vn 0.0723 0.9971 0.0224
vn -0.076 0.9957 0.0538
vn -0.0723 0.9928 0.0951
vn 0.1084 0.9892 0.0983
vn 0.2393 0.9436 -0.2288
vn 0.0894 0.9943 0.0585
vn 0.0771 0.9969 0.0181
vn -0.021 0.9893 0.1441
vn -0.0043 0.9527 0.3038
vn -0.2418 0.9006 0.3611
vn -0.2418 0.9006 0.3611
vn -0.3609 0.9125 0.1924
vn 0.0211 0.9892 0.1451
vn 0.1043 0.8942 0.4353
vn -0.1043 0.8943 0.4351
vn 0.049 0.9904 0.1295
vn 0.0844 0.9714 0.2217
vn 0.361 0.9125 0.1925
vn 0.2418 0.9008 0.3607
vn 0.6311 -0.0475 0.7743
vn 0.5829 0.3322 0.7415
vn 0.9422 -0.0172 0.3345
vn 0.2701 -0.0602 0.961
vn 0.25 0.3168 0.9149
vn 0.8705 0.3604 0.3353
vn 0.9045 0.3951 -0.1608
vn 0.3751 0.9269 -0.0134
vn 0.817 -0.0402 0.5753
vn 0.9977 -0.0048 0.0681
vn 0.9977 -0.0048 0.0681
vn 0.9791 0.0216 -0.2025
vn 0.7308 0.0544 -0.6804
vn 0.8879 0.0321 -0.4589
vn 0.8879 0.0321 -0.4589
vn 0.2493 0.444 -0.8607
vn 0.2698 0.0733 -0.9601
vn 0.6751 0.4261 -0.6022
vn 0.5196 0.0596 -0.8523
vn -0 0.0698 -0.9976
vn -0 0.0698 -0.9976
vn -0.2697 0.0747 -0.96
vn -0.5196 0.0596 -0.8523
vn -0.5196 0.0596 -0.8523
vn -0.7308 0.0543 -0.6804
vn -0.8879 0.0321 -0.4589
vn -0.8879 0.0321 -0.4589
vn -0.9791 0.0208 -0.2025
vn -0.6751 0.426 -0.6023
vn -0.2491 0.444 -0.8607
vn -0.9044 0.3953 -0.1607
vn -0.9422 -0.0165 0.3346
vn -0.9977 -0.0048 0.0681
vn -0.3752 0.9269 -0.0133
vn -0.583 0.332 0.7416
vn -0.6311 -0.0476 0.7743
vn -0.8704 0.3604 0.3354
vn -0.817 -0.0402 0.5753
vn -0.3984 -0.064 0.915
vn -0.2682 -0.0672 0.961
vn 0.2689 -0.0672 0.9608
vn -0.2848 -0.0528 0.9571
vn -0.2501 0.3169 0.9149
vn 0.2698 0.0733 -0.9601
vn -0.2491 0.444 -0.8607
vn 0.28 0.9397 -0.1965
vn 0.28 0.9397 -0.1965
vn 0.2393 0.9436 -0.2288
vn 0.5195 -0.0575 0.8525
vn 0.249 0.322 0.9134
vn -0.9977 0.007 -0.0679
vn -0.8171 0.0432 -0.5749
vn -0.8169 0.0419 -0.5752
vn -0.817 0.0402 -0.5752
vn -0.9977 0.0048 -0.0681
vn -0.9977 0.0048 -0.0681
vn -0.3984 0.0662 -0.9148
vn -0.3984 0.064 -0.915
vn -0.2712 0.0671 -0.9602
vn -0 0.9924 -0.1232
vn -0.0094 0.0086 -0.9999
vn -0.0016 0.5942 -0.8043
vn -0.1241 0.9918 -0.0321
vn -0 0.6432 0.7657
vn -1 -0 -0
vn -0 0.0102 -0.9999
vn 0.0014 0.3958 0.9183
vn -0.3954 -0.0094 0.9184
vn -0.2742 0.9511 0.142
vn -0.7094 0.5914 -0.3835
vn -0.9185 0.004 -0.3953
vn 0.9186 0.004 -0.3953
vn 0.7092 0.5915 -0.3837
vn -0.445 0.7454 -0.4964
vn 0.817 0.0402 -0.5753
vn 0.9977 0.0048 -0.0681
vn 0.8879 -0.0321 0.459
vn -0 -0.0698 0.9976
vn 0.2775 0.9048 0.3229
vn 0.2418 0.9008 0.3607
vn 0.817 -0.0402 0.5753
vn 0.5196 0.0596 -0.8523
vn -0.2697 0.0747 -0.96
vn -0.9977 -0.0048 0.0681
vn -0.28 0.9397 -0.1965
vn -0.817 -0.0402 0.5753
vn 0.3984 -0.064 0.915
vn 0.2493 0.444 -0.8607
vn 0.421 0.7577 -0.4986
vn -0.9977 0.0071 -0.068
vn -0.817 0.0402 -0.5752
f 3/3/3 2/2/2 1/1/1
f 3/3/3 274/274/274 2/2/2
f 6/6/6 5/5/5 4/4/4
f 6/6/6 275/275/275 5/5/5
f 5/5/5 275/275/275 8/8/8
f 5/5/5 8/8/8 7/7/7
f 7/7/7 8/8/8 98/98/98
f 7/7/7 98/98/98 97/97/97
f 11/11/11 10/10/10 9/9/9
f 13/13/13 11/11/11 9/9/9
f 13/13/13 9/9/9 12/12/12
f 11/11/11 276/276/276 10/10/10
f 10/10/10 276/276/276 94/94/94
f 10/10/10 94/94/94 93/93/93
f 16/16/16 15/15/15 14/14/14
f 14/14/14 15/15/15 18/18/18
f 14/14/14 18/18/18 17/17/17
f 57/57/57 17/17/17 18/18/18
f 16/16/16 20/20/20 15/15/15
f 57/57/57 18/18/18 55/55/55
f 55/55/55 58/58/58 57/57/57
f 18/18/18 15/15/15 19/19/19
f 55/55/55 18/18/18 19/19/19
f 20/20/20 19/19/19 15/15/15
f 55/55/55 54/54/54 58/58/58
f 54/54/54 59/59/59 58/58/58
f 54/54/54 56/56/56 59/59/59
f 55/55/55 38/38/38 54/54/54
f 38/38/38 56/56/56 54/54/54
f 55/55/55 19/19/19 38/38/38
f 56/56/56 67/67/67 66/66/66
f 19/19/19 39/39/39 38/38/38
f 19/19/19 277/277/277 39/39/39
f 24/24/24 277/277/277 19/19/19
f 56/56/56 53/53/53 67/67/67
f 53/53/53 56/56/56 38/38/38
f 87/87/87 67/67/67 53/53/53
f 24/24/24 19/19/19 23/23/23
f 20/20/20 23/23/23 19/19/19
f 28/28/28 24/24/24 23/23/23
f 22/22/22 20/20/20 16/16/16
f 22/22/22 23/23/23 20/20/20
f 22/22/22 16/16/16 21/21/21
f 92/92/92 22/22/22 21/21/21
f 28/28/28 23/23/23 27/27/27
f 53/53/53 38/38/38 27/27/27
f 27/27/27 38/38/38 51/51/51
f 27/27/27 51/51/51 50/50/50
f 92/92/92 25/25/25 22/22/22
f 22/22/22 25/25/25 23/23/23
f 25/25/25 92/92/92 88/88/88
f 26/26/26 23/23/23 25/25/25
f 25/25/25 88/88/88 26/26/26
f 26/26/26 27/27/27 23/23/23
f 26/26/26 88/88/88 86/86/86
f 26/26/26 86/86/86 85/85/85
f 26/26/26 85/85/85 27/27/27
f 85/85/85 283/283/283 87/87/87
f 85/85/85 52/52/52 27/27/27
f 85/85/85 87/87/87 52/52/52
f 53/53/53 27/27/27 52/52/52
f 87/87/87 53/53/53 52/52/52
f 31/31/31 30/30/30 29/29/29
f 31/31/31 47/47/47 30/30/30
f 47/47/47 31/31/31 46/46/46
f 47/47/47 46/46/46 45/45/45
f 34/34/34 33/33/33 32/32/32
f 34/34/34 278/278/278 33/33/33
f 37/37/37 36/36/36 35/35/35
f 37/37/37 41/41/41 36/36/36
f 41/41/41 40/40/40 36/36/36
f 41/41/41 279/279/279 40/40/40
f 44/44/44 43/43/43 42/42/42
f 44/44/44 280/280/280 43/43/43
f 44/44/44 42/42/42 49/49/49
f 44/44/44 49/49/49 48/48/48
f 62/62/62 61/61/61 60/60/60
f 60/60/60 102/102/102 62/62/62
f 60/60/60 287/287/287 102/102/102
f 62/62/62 64/64/64 61/61/61
f 65/65/65 64/64/64 63/63/63
f 65/65/65 61/61/61 64/64/64
f 61/61/61 65/65/65 74/74/74
f 61/61/61 74/74/74 73/73/73
f 60/60/60 61/61/61 73/73/73
f 60/60/60 73/73/73 100/100/100
f 100/100/100 101/101/101 60/60/60
f 100/100/100 286/286/286 101/101/101
f 70/70/70 69/69/69 68/68/68
f 70/70/70 281/281/281 69/69/69
f 68/68/68 72/72/72 71/71/71
f 68/68/68 69/69/69 72/72/72
f 69/69/69 281/281/281 77/77/77
f 69/69/69 75/75/75 72/72/72
f 69/69/69 77/77/77 76/76/76
f 69/69/69 76/76/76 75/75/75
f 84/84/84 76/76/76 77/77/77
f 84/84/84 78/78/78 76/76/76
f 78/78/78 75/75/75 76/76/76
f 78/78/78 282/282/282 75/75/75
f 81/81/81 80/80/80 79/79/79
f 81/81/81 99/99/99 80/80/80
f 83/83/83 79/79/79 82/82/82
f 83/83/83 81/81/81 79/79/79
f 89/89/89 81/81/81 83/83/83
f 90/90/90 99/99/99 81/81/81
f 89/89/89 90/90/90 81/81/81
f 91/91/91 90/90/90 89/89/89
f 91/91/91 284/284/284 90/90/90
f 90/90/90 95/95/95 99/99/99
f 96/96/96 95/95/95 90/90/90
f 96/96/96 285/285/285 95/95/95
f 105/105/105 104/104/104 103/103/103
f 109/109/109 103/103/103 108/108/108
f 109/109/109 105/105/105 103/103/103
f 105/105/105 106/106/106 104/104/104
f 260/260/260 104/104/104 106/106/106
f 260/260/260 106/106/106 114/114/114
f 109/109/109 299/299/299 248/248/248
f 105/105/105 107/107/107 106/106/106
f 109/109/109 248/248/248 197/197/197
f 197/197/197 248/248/248 207/207/207
f 109/109/109 110/110/110 105/105/105
f 105/105/105 110/110/110 107/107/107
f 197/197/197 207/207/207 198/198/198
f 106/106/106 107/107/107 115/115/115
f 106/106/106 115/115/115 114/114/114
f 204/204/204 207/207/207 206/206/206
f 204/204/204 198/198/198 207/207/207
f 114/114/114 222/222/222 261/261/261
f 198/198/198 204/204/204 201/201/201
f 114/114/114 117/117/117 222/222/222
f 198/198/198 201/201/201 199/199/199
f 199/199/199 197/197/197 198/198/198
f 212/212/212 222/222/222 117/117/117
f 212/212/212 213/213/213 222/222/222
f 212/212/212 214/214/214 213/213/213
f 114/114/114 118/118/118 117/117/117
f 212/212/212 117/117/117 118/118/118
f 114/114/114 115/115/115 118/118/118
f 212/212/212 211/211/211 214/214/214
f 118/118/118 115/115/115 116/116/116
f 118/118/118 116/116/116 119/119/119
f 115/115/115 113/113/113 116/116/116
f 118/118/118 119/119/119 128/128/128
f 115/115/115 107/107/107 113/113/113
f 118/118/118 128/128/128 127/127/127
f 212/212/212 118/118/118 127/127/127
f 132/132/132 127/127/127 128/128/128
f 212/212/212 127/127/127 132/132/132
f 212/212/212 132/132/132 211/211/211
f 132/132/132 128/128/128 131/131/131
f 209/209/209 294/294/294 211/211/211
f 132/132/132 131/131/131 134/134/134
f 209/209/209 211/211/211 208/208/208
f 208/208/208 210/210/210 209/209/209
f 211/211/211 132/132/132 133/133/133
f 211/211/211 133/133/133 208/208/208
f 132/132/132 134/134/134 133/133/133
f 208/208/208 203/203/203 210/210/210
f 133/133/133 203/203/203 208/208/208
f 205/205/205 210/210/210 203/203/203
f 205/205/205 203/203/203 204/204/204
f 202/202/202 204/204/204 203/203/203
f 133/133/133 202/202/202 203/203/203
f 202/202/202 201/201/201 204/204/204
f 133/133/133 134/134/134 140/140/140
f 133/133/133 140/140/140 202/202/202
f 131/131/131 135/135/135 134/134/134
f 131/131/131 288/288/288 135/135/135
f 140/140/140 134/134/134 135/135/135
f 202/202/202 200/200/200 201/201/201
f 202/202/202 140/140/140 200/200/200
f 199/199/199 201/201/201 200/200/200
f 140/140/140 135/135/135 139/139/139
f 139/139/139 200/200/200 140/140/140
f 139/139/139 303/303/303 200/200/200
f 199/199/199 200/200/200 195/195/195
f 136/136/136 139/139/139 135/135/135
f 196/196/196 199/199/199 195/195/195
f 199/199/199 196/196/196 197/197/197
f 196/196/196 195/195/195 191/191/191
f 196/196/196 109/109/109 197/197/197
f 136/136/136 145/145/145 139/139/139
f 146/146/146 139/139/139 145/145/145
f 135/135/135 137/137/137 136/136/136
f 146/146/146 148/148/148 139/139/139
f 135/135/135 130/130/130 137/137/137
f 196/196/196 192/192/192 109/109/109
f 192/192/192 196/196/196 191/191/191
f 109/109/109 192/192/192 110/110/110
f 192/192/192 191/191/191 112/112/112
f 110/110/110 192/192/192 112/112/112
f 126/126/126 130/130/130 129/129/129
f 110/110/110 112/112/112 111/111/111
f 107/107/107 110/110/110 111/111/111
f 107/107/107 111/111/111 113/113/113
f 185/185/185 111/111/111 112/112/112
f 185/185/185 112/112/112 186/186/186
f 185/185/185 113/113/113 111/111/111
f 185/185/185 123/123/123 113/113/113
f 124/124/124 113/113/113 123/123/123
f 124/124/124 122/122/122 113/113/113
f 126/126/126 125/125/125 130/130/130
f 137/137/137 130/130/130 125/125/125
f 126/126/126 121/121/121 125/125/125
f 122/122/122 124/124/124 121/121/121
f 126/126/126 120/120/120 121/121/121
f 122/122/122 121/121/121 120/120/120
f 138/138/138 125/125/125 121/121/121
f 137/137/137 125/125/125 138/138/138
f 124/124/124 176/176/176 121/121/121
f 138/138/138 121/121/121 176/176/176
f 266/266/266 137/137/137 138/138/138
f 266/266/266 267/267/267 137/137/137
f 268/268/268 267/267/267 266/266/266
f 268/268/268 305/305/305 267/267/267
f 265/265/265 138/138/138 176/176/176
f 265/265/265 304/304/304 138/138/138
f 270/270/270 304/304/304 265/265/265
f 270/270/270 265/265/265 269/269/269
f 124/124/124 178/178/178 176/176/176
f 180/180/180 178/178/178 124/124/124
f 180/180/180 177/177/177 178/178/178
f 179/179/179 178/178/178 177/177/177
f 176/176/176 178/178/178 173/173/173
f 179/179/179 171/171/171 178/178/178
f 176/176/176 173/173/173 175/175/175
f 171/171/171 179/179/179 170/170/170
f 171/171/171 170/170/170 169/169/169
f 174/174/174 175/175/175 173/173/173
f 174/174/174 173/173/173 172/172/172
f 137/137/137 271/271/271 144/144/144
f 272/272/272 144/144/144 271/271/271
f 137/137/137 144/144/144 143/143/143
f 272/272/272 273/273/273 144/144/144
f 143/143/143 144/144/144 142/142/142
f 273/273/273 142/142/142 144/144/144
f 273/273/273 153/153/153 142/142/142
f 154/154/154 142/142/142 153/153/153
f 143/143/143 142/142/142 141/141/141
f 154/154/154 147/147/147 142/142/142
f 141/141/141 142/142/142 147/147/147
f 141/141/141 147/147/147 146/146/146
f 149/149/149 148/148/148 146/146/146
f 149/149/149 146/146/146 151/151/151
f 151/151/151 289/289/289 152/152/152
f 151/151/151 152/152/152 150/150/150
f 149/149/149 151/151/151 150/150/150
f 149/149/149 193/193/193 148/148/148
f 193/193/193 262/262/262 148/148/148
f 193/193/193 194/194/194 262/262/262
f 189/189/189 194/194/194 193/193/193
f 149/149/149 189/189/189 193/193/193
f 189/189/189 190/190/190 194/194/194
f 187/187/187 293/293/293 190/190/190
f 187/187/187 190/190/190 189/189/189
f 149/149/149 155/155/155 189/189/189
f 156/156/156 155/155/155 149/149/149
f 189/189/189 161/161/161 187/187/187
f 189/189/189 155/155/155 161/161/161
f 161/161/161 188/188/188 187/187/187
f 156/156/156 157/157/157 155/155/155
f 158/158/158 157/157/157 156/156/156
f 158/158/158 290/290/290 157/157/157
f 161/161/161 155/155/155 160/160/160
f 161/161/161 264/264/264 188/188/188
f 161/161/161 160/160/160 159/159/159
f 162/162/162 159/159/159 160/160/160
f 162/162/162 291/291/291 159/159/159
f 264/264/264 161/161/161 164/164/164
f 264/264/264 164/164/164 263/263/263
f 165/165/165 263/263/263 164/164/164
f 165/165/165 164/164/164 163/163/163
f 168/168/168 167/167/167 166/166/166
f 168/168/168 292/292/292 167/167/167
f 166/166/166 167/167/167 182/182/182
f 166/166/166 182/182/182 181/181/181
f 181/181/181 182/182/182 184/184/184
f 181/181/181 184/184/184 183/183/183
f 217/217/217 216/216/216 215/215/215
f 217/217/217 220/220/220 216/216/216
f 215/215/215 216/216/216 219/219/219
f 217/217/217 221/221/221 220/220/220
f 215/215/215 295/295/295 223/223/223
f 215/215/215 223/223/223 217/217/217
f 217/217/217 226/226/226 221/221/221
f 226/226/226 217/217/217 225/225/225
f 226/226/226 225/225/225 224/224/224
f 227/227/227 221/221/221 226/226/226
f 227/227/227 226/226/226 229/229/229
f 227/227/227 229/229/229 228/228/228
f 227/227/227 232/232/232 221/221/221
f 232/232/232 227/227/227 231/231/231
f 232/232/232 231/231/231 230/230/230
f 233/233/233 231/231/231 227/227/227
f 233/233/233 296/296/296 231/231/231
f 255/255/255 301/301/301 215/215/215
f 255/255/255 215/215/215 218/218/218
f 215/215/215 219/219/219 218/218/218
f 218/218/218 254/254/254 255/255/255
f 218/218/218 219/219/219 257/257/257
f 218/218/218 257/257/257 256/256/256
f 218/218/218 256/256/256 254/254/254
f 256/256/256 257/257/257 249/249/249
f 254/254/254 256/256/256 250/250/250
f 256/256/256 249/249/249 250/250/250
f 254/254/254 250/250/250 253/253/253
f 251/251/251 250/250/250 249/249/249
f 252/252/252 300/300/300 250/250/250
f 252/252/252 250/250/250 246/246/246
f 251/251/251 246/246/246 250/250/250
f 246/246/246 251/251/251 245/245/245
f 246/246/246 245/245/245 242/242/242
f 242/242/242 247/247/247 246/246/246
f 242/242/242 298/298/298 247/247/247
f 242/242/242 245/245/245 243/243/243
f 242/242/242 241/241/241 240/240/240
f 242/242/242 239/239/239 241/241/241
f 242/242/242 243/243/243 239/239/239
f 244/244/244 239/239/239 243/243/243
f 244/244/244 297/297/297 239/239/239
f 239/239/239 297/297/297 238/238/238
f 239/239/239 238/238/238 237/237/237
f 236/236/236 235/235/235 234/234/234
f 236/236/236 258/258/258 235/235/235
f 259/259/259 258/258/258 236/236/236
f 259/259/259 302/302/302 258/258/258
