# VPXTOOL table OBJ file
# VPXTOOL OBJ file
# numVerts: 727 numFaces: 624
o PegPlasticT45
v 0.044223 -0.001 -0.16522
v 0.0173 0.0085 -0.131777
v 0 -0.001 -0.171047
v 0.044223 -0.001 -0.16522
v 0.085476 -0.001 -0.148137
v 0.050812 0.0085 -0.1228
v 0.085476 -0.001 -0.148137
v 0.120901 -0.001 -0.120962
v 0.080859 0.0085 -0.105458
v 0.120901 -0.001 -0.120962
v 0.148084 -0.001 -0.085547
v 0.105392 0.0085 -0.080931
v 0.148084 -0.001 -0.085547
v 0.165172 -0.001 -0.044305
v 0.12274 0.0085 -0.050893
v 0.165172 -0.001 -0.044305
v 0.171 -0.001 -0.000047
v 0.131719 0.0085 -0.01739
v 0.171 -0.001 -0.000047
v 0.165172 -0.001 0.044211
v 0.131719 0.0085 0.017296
v 0.165172 -0.001 0.044211
v 0.148084 -0.001 0.085453
v 0.12274 0.0085 0.050799
v 0.148084 -0.001 0.085453
v 0.120901 -0.001 0.120868
v 0.105392 0.0085 0.080837
v 0.120901 -0.001 0.120868
v 0.085476 -0.001 0.148043
v 0.080859 0.0085 0.105363
v 0.085476 -0.001 0.148043
v 0.044223 -0.001 0.165126
v 0.050812 0.0085 0.122706
v 0.044223 -0.001 0.165126
v 0 -0.001 0.170953
v 0.0173 0.0085 0.131683
v 0.0173 0.0085 -0.131777
v 0.03435 0.265 -0.128387
v 0 0.265 -0.132914
v 0.050812 0.0085 -0.1228
v 0.066404 0.265 -0.115113
v 0.03435 0.265 -0.128387
v 0.080859 0.0085 -0.105458
v 0.09393 0.265 -0.093998
v 0.066404 0.265 -0.115113
v 0.105392 0.0085 -0.080931
v 0.115051 0.265 -0.066481
v 0.09393 0.265 -0.093998
v 0.12274 0.0085 -0.050893
v 0.128328 0.265 -0.034436
v 0.115051 0.265 -0.066481
v 0.131719 0.0085 -0.01739
v 0.132856 0.265 -0.000047
v 0.128328 0.265 -0.034436
v 0.131719 0.0085 0.017296
v 0.128328 0.265 0.034341
v 0.132856 0.265 -0.000047
v 0.12274 0.0085 0.050799
v 0.115051 0.265 0.066386
v 0.128328 0.265 0.034341
v 0.105392 0.0085 0.080837
v 0.09393 0.265 0.093904
v 0.115051 0.265 0.066386
v 0.080859 0.0085 0.105363
v 0.066404 0.265 0.115019
v 0.09393 0.265 0.093904
v 0.050812 0.0085 0.122706
v 0.03435 0.265 0.128293
v 0.066404 0.265 0.115019
v 0.0173 0.0085 0.131683
v 0 0.265 0.13282
v 0.03435 0.265 0.128293
v 0.171 -0.001 -0.000047
v 0.131719 0.0085 0.017296
v 0.132856 0.265 -0.000047
v 0.132856 0.265 -0.000047
v 0.131719 0.0085 -0.01739
v 0.171 -0.001 -0.000047
v 0.165172 -0.001 0.044211
v 0.12274 0.0085 0.050799
v 0.128328 0.265 0.034341
v 0.128328 0.265 0.034341
v 0.131719 0.0085 0.017296
v 0.165172 -0.001 0.044211
v 0.148084 -0.001 0.085453
v 0.105392 0.0085 0.080837
v 0.115051 0.265 0.066386
v 0.115051 0.265 0.066386
v 0.12274 0.0085 0.050799
v 0.148084 -0.001 0.085453
v 0.120901 -0.001 0.120868
v 0.080859 0.0085 0.105363
v 0.09393 0.265 0.093904
v 0.09393 0.265 0.093904
v 0.105392 0.0085 0.080837
v 0.120901 -0.001 0.120868
v 0.066404 0.265 0.115019
v 0.080859 0.0085 0.105363
v 0.085476 -0.001 0.148043
v 0.085476 -0.001 0.148043
v 0.050812 0.0085 0.122706
v 0.066404 0.265 0.115019
v 0.03435 0.265 0.128293
v 0.050812 0.0085 0.122706
v 0.044223 -0.001 0.165126
v 0.044223 -0.001 0.165126
v 0.0173 0.0085 0.131683
v 0.03435 0.265 0.128293
v 0 0.265 0.13282
v 0.0173 0.0085 0.131683
v 0 -0.001 0.170953
v 0.165172 -0.001 -0.044305
v 0.131719 0.0085 -0.01739
v 0.128328 0.265 -0.034436
v 0.128328 0.265 -0.034436
v 0.12274 0.0085 -0.050893
v 0.165172 -0.001 -0.044305
v 0.148084 -0.001 -0.085547
v 0.12274 0.0085 -0.050893
v 0.115051 0.265 -0.066481
v 0.115051 0.265 -0.066481
v 0.105392 0.0085 -0.080931
v 0.148084 -0.001 -0.085547
v 0.120901 -0.001 -0.120962
v 0.105392 0.0085 -0.080931
v 0.09393 0.265 -0.093998
v 0.09393 0.265 -0.093998
v 0.080859 0.0085 -0.105458
v 0.120901 -0.001 -0.120962
v 0.085476 -0.001 -0.148137
v 0.080859 0.0085 -0.105458
v 0.066404 0.265 -0.115113
v 0.066404 0.265 -0.115113
v 0.050812 0.0085 -0.1228
v 0.085476 -0.001 -0.148137
v 0.044223 -0.001 -0.16522
v 0.050812 0.0085 -0.1228
v 0.03435 0.265 -0.128387
v 0.044223 -0.001 -0.16522
v 0.03435 0.265 -0.128387
v 0.0173 0.0085 -0.131777
v 0 -0.001 -0.171047
v 0.0173 0.0085 -0.131777
v 0 0.265 -0.132914
v 0 -0.001 -0.171047
v -0.0173 0.0085 -0.131777
v -0.044223 -0.001 -0.16522
v -0.050812 0.0085 -0.1228
v -0.085476 -0.001 -0.148137
v -0.044223 -0.001 -0.16522
v -0.080859 0.0085 -0.105458
v -0.120901 -0.001 -0.120962
v -0.085476 -0.001 -0.148137
v -0.105392 0.0085 -0.080931
v -0.148084 -0.001 -0.085547
v -0.120901 -0.001 -0.120962
v -0.12274 0.0085 -0.050893
v -0.165172 -0.001 -0.044305
v -0.148084 -0.001 -0.085547
v -0.131719 0.0085 -0.01739
v -0.171 -0.001 -0.000047
v -0.165172 -0.001 -0.044305
v -0.131719 0.0085 0.017296
v -0.165172 -0.001 0.044211
v -0.171 -0.001 -0.000047
v -0.12274 0.0085 0.050799
v -0.148084 -0.001 0.085453
v -0.165172 -0.001 0.044211
v -0.105392 0.0085 0.080837
v -0.120901 -0.001 0.120868
v -0.148084 -0.001 0.085453
v -0.080859 0.0085 0.105363
v -0.085476 -0.001 0.148043
v -0.120901 -0.001 0.120868
v -0.050812 0.0085 0.122706
v -0.044223 -0.001 0.165126
v -0.085476 -0.001 0.148043
v -0.0173 0.0085 0.131683
v 0 -0.001 0.170953
v -0.044223 -0.001 0.165126
v 0 0.265 -0.132914
v -0.03435 0.265 -0.128387
v -0.0173 0.0085 -0.131777
v -0.03435 0.265 -0.128387
v -0.066404 0.265 -0.115113
v -0.050812 0.0085 -0.1228
v -0.066404 0.265 -0.115113
v -0.09393 0.265 -0.093998
v -0.080859 0.0085 -0.105458
v -0.09393 0.265 -0.093998
v -0.115051 0.265 -0.066481
v -0.105392 0.0085 -0.080931
v -0.115051 0.265 -0.066481
v -0.128328 0.265 -0.034436
v -0.12274 0.0085 -0.050893
v -0.128328 0.265 -0.034436
v -0.132856 0.265 -0.000047
v -0.131719 0.0085 -0.01739
v -0.132856 0.265 -0.000047
v -0.128328 0.265 0.034341
v -0.131719 0.0085 0.017296
v -0.128328 0.265 0.034341
v -0.115051 0.265 0.066386
v -0.12274 0.0085 0.050799
v -0.115051 0.265 0.066386
v -0.09393 0.265 0.093904
v -0.105392 0.0085 0.080837
v -0.09393 0.265 0.093904
v -0.066404 0.265 0.115019
v -0.080859 0.0085 0.105363
v -0.066404 0.265 0.115019
v -0.03435 0.265 0.128293
v -0.050812 0.0085 0.122706
v -0.03435 0.265 0.128293
v 0 0.265 0.13282
v -0.0173 0.0085 0.131683
v -0.132856 0.265 -0.000047
v -0.131719 0.0085 0.017296
v -0.171 -0.001 -0.000047
v -0.171 -0.001 -0.000047
v -0.131719 0.0085 -0.01739
v -0.132856 0.265 -0.000047
v -0.128328 0.265 0.034341
v -0.12274 0.0085 0.050799
v -0.165172 -0.001 0.044211
v -0.165172 -0.001 0.044211
v -0.131719 0.0085 0.017296
v -0.128328 0.265 0.034341
v -0.115051 0.265 0.066386
v -0.105392 0.0085 0.080837
v -0.148084 -0.001 0.085453
v -0.148084 -0.001 0.085453
v -0.12274 0.0085 0.050799
v -0.115051 0.265 0.066386
v -0.09393 0.265 0.093904
v -0.080859 0.0085 0.105363
v -0.120901 -0.001 0.120868
v -0.120901 -0.001 0.120868
v -0.105392 0.0085 0.080837
v -0.09393 0.265 0.093904
v -0.085476 -0.001 0.148043
v -0.080859 0.0085 0.105363
v -0.066404 0.265 0.115019
v -0.066404 0.265 0.115019
v -0.050812 0.0085 0.122706
v -0.085476 -0.001 0.148043
v -0.044223 -0.001 0.165126
v -0.050812 0.0085 0.122706
v -0.03435 0.265 0.128293
v -0.03435 0.265 0.128293
v -0.0173 0.0085 0.131683
v -0.044223 -0.001 0.165126
v 0 -0.001 0.170953
v -0.0173 0.0085 0.131683
v 0 0.265 0.13282
v -0.128328 0.265 -0.034436
v -0.131719 0.0085 -0.01739
v -0.165172 -0.001 -0.044305
v -0.165172 -0.001 -0.044305
v -0.12274 0.0085 -0.050893
v -0.128328 0.265 -0.034436
v -0.115051 0.265 -0.066481
v -0.12274 0.0085 -0.050893
v -0.148084 -0.001 -0.085547
v -0.148084 -0.001 -0.085547
v -0.105392 0.0085 -0.080931
v -0.115051 0.265 -0.066481
v -0.09393 0.265 -0.093998
v -0.105392 0.0085 -0.080931
v -0.120901 -0.001 -0.120962
v -0.120901 -0.001 -0.120962
v -0.080859 0.0085 -0.105458
v -0.09393 0.265 -0.093998
v -0.066404 0.265 -0.115113
v -0.080859 0.0085 -0.105458
v -0.085476 -0.001 -0.148137
v -0.085476 -0.001 -0.148137
v -0.050812 0.0085 -0.1228
v -0.066404 0.265 -0.115113
v -0.03435 0.265 -0.128387
v -0.050812 0.0085 -0.1228
v -0.044223 -0.001 -0.16522
v -0.0173 0.0085 -0.131777
v -0.03435 0.265 -0.128387
v -0.044223 -0.001 -0.16522
v 0 0.265 -0.132914
v -0.0173 0.0085 -0.131777
v 0 -0.001 -0.171047
v 0 0.379 -0.132914
v 0 0.3562 -0.132914
v 0.03435 0.3562 -0.128387
v 0.03435 0.379 -0.128387
v 0.066404 0.3562 -0.115113
v 0.066404 0.379 -0.115113
v 0.09393 0.3562 -0.093998
v 0.09393 0.379 -0.093998
v 0.115051 0.3562 -0.066481
v 0.115051 0.379 -0.066481
v 0.128328 0.3562 -0.034436
v 0.128328 0.379 -0.034436
v 0.128328 0.379 -0.034436
v 0.128328 0.3562 -0.034436
v 0.132856 0.3562 -0.000047
v 0.132856 0.379 -0.000047
v 0.128328 0.3562 0.034341
v 0.128328 0.379 0.034341
v 0.115051 0.3562 0.066386
v 0.115051 0.379 0.066386
v 0.09393 0.3562 0.093904
v 0.09393 0.379 0.093904
v 0.066404 0.3562 0.115019
v 0.066404 0.379 0.115019
v 0.03435 0.3562 0.128293
v 0.03435 0.379 0.128293
v 0 0.3562 0.13282
v 0 0.379 0.13282
v -0.03435 0.379 -0.128387
v -0.03435 0.3562 -0.128387
v -0.066404 0.379 -0.115113
v -0.066404 0.3562 -0.115113
v -0.09393 0.379 -0.093998
v -0.09393 0.3562 -0.093998
v -0.115051 0.379 -0.066481
v -0.115051 0.3562 -0.066481
v -0.128328 0.379 -0.034436
v -0.128328 0.3562 -0.034436
v -0.132856 0.379 -0.000047
v -0.132856 0.3562 -0.000047
v -0.128328 0.379 0.034341
v -0.128328 0.3562 0.034341
v -0.115051 0.379 0.066386
v -0.115051 0.3562 0.066386
v -0.09393 0.379 0.093904
v -0.09393 0.3562 0.093904
v -0.066404 0.379 0.115019
v -0.066404 0.3562 0.115019
v -0.03435 0.379 0.128293
v -0.03435 0.3562 0.128293
v -0.094741 0.33435 -0.000047
v -0.088675 0.3106 0.023715
v -0.088675 0.3106 -0.02381
v -0.094741 0.28685 -0.000047
v -0.082043 0.33435 -0.047421
v -0.064905 0.3106 -0.064967
v -0.082043 0.28685 -0.047421
v -0.047353 0.33435 -0.082102
v -0.023736 0.3106 -0.08873
v -0.047353 0.28685 -0.082102
v -0.082043 0.33435 0.047327
v -0.064906 0.3106 0.064873
v -0.082043 0.28685 0.047327
v -0.047353 0.33435 0.082008
v -0.023736 0.3106 0.088636
v -0.047353 0.28685 0.082008
v 0.023736 0.3106 0.088636
v 0 0.33435 0.094701
v 0 0.28685 0.094701
v 0.064906 0.3106 0.064873
v 0.047353 0.33435 0.082008
v 0.047353 0.28685 0.082008
v 0.088675 0.3106 0.023715
v 0.082043 0.33435 0.047327
v 0.082043 0.28685 0.047327
v 0.023736 0.3106 -0.08873
v 0.064905 0.3106 -0.064967
v 0.047353 0.33435 -0.082102
v 0.047353 0.28685 -0.082102
v 0.088675 0.3106 -0.02381
v 0.082043 0.33435 -0.047421
v 0.082043 0.28685 -0.047421
v 0 0.33435 -0.094796
v 0 0.28685 -0.094796
v 0.088675 0.3106 -0.02381
v 0.094741 0.33435 -0.000047
v 0.094741 0.28685 -0.000047
v -0.109079 0.265 -0.029277
v -0.109079 0.265 0.029183
v -0.07984 0.265 0.079811
v -0.029198 0.265 0.109042
v -0.07984 0.265 -0.079906
v -0.029198 0.265 -0.109136
v 0.029198 0.265 0.109042
v 0.07984 0.265 0.079811
v 0.109079 0.265 0.029183
v 0.082043 0.28685 -0.047421
v 0.109079 0.265 -0.029277
v 0.07984 0.265 -0.079906
v 0.029198 0.265 -0.109136
v 0.109079 0.3562 0.029183
v 0.07984 0.3562 0.079811
v 0.029198 0.3562 0.109042
v 0.082043 0.33435 -0.047421
v 0.109079 0.3562 -0.029277
v 0.07984 0.3562 -0.079906
v 0.029198 0.3562 -0.109136
v -0.029198 0.3562 -0.109136
v -0.07984 0.3562 -0.079906
v -0.109079 0.3562 -0.029277
v -0.109079 0.3562 0.029183
v -0.07984 0.3562 0.079811
v -0.029198 0.3562 0.109042
v 0.109079 0.265 -0.029277
v 0.132856 0.265 -0.000047
v 0.115051 0.265 -0.066481
v 0.066404 0.265 -0.115113
v 0 0.265 -0.132914
v -0.066404 0.265 -0.115113
v -0.115051 0.265 -0.066481
v -0.132856 0.265 -0.000047
v -0.115051 0.265 0.066386
v -0.066404 0.265 0.115019
v 0 0.265 0.13282
v 0.066404 0.265 0.115019
v 0.115051 0.265 0.066386
v 0.128328 0.265 0.034341
v 0.128328 0.265 -0.034436
v 0.128328 0.265 -0.034436
v 0.09393 0.265 -0.093998
v 0.03435 0.265 -0.128387
v -0.03435 0.265 -0.128387
v -0.09393 0.265 -0.093998
v -0.128328 0.265 -0.034436
v -0.128328 0.265 0.034341
v -0.09393 0.265 0.093904
v -0.03435 0.265 0.128293
v 0.03435 0.265 0.128293
v 0.09393 0.265 0.093904
v 0.109079 0.3562 -0.029277
v 0.132856 0.3562 -0.000047
v 0.115051 0.3562 -0.066481
v 0.066404 0.3562 -0.115113
v 0 0.3562 -0.132914
v -0.066404 0.3562 -0.115113
v -0.115051 0.3562 -0.066481
v -0.132856 0.3562 -0.000047
v -0.115051 0.3562 0.066386
v -0.066404 0.3562 0.115019
v 0 0.3562 0.13282
v 0.066404 0.3562 0.115019
v 0.115051 0.3562 0.066386
v 0.128328 0.3562 0.034341
v 0.128328 0.3562 -0.034436
v 0.128328 0.3562 -0.034436
v 0.09393 0.3562 -0.093998
v 0.03435 0.3562 -0.128387
v -0.03435 0.3562 -0.128387
v -0.09393 0.3562 -0.093998
v -0.128328 0.3562 -0.034436
v -0.128328 0.3562 0.034341
v -0.09393 0.3562 0.093904
v -0.03435 0.3562 0.128293
v 0.03435 0.3562 0.128293
v 0.09393 0.3562 0.093904
v 0 0.721 -0.12361
v 0 0.4702 -0.132914
v 0.03435 0.4702 -0.128387
v 0.031946 0.721 -0.1194
v 0.066404 0.4702 -0.115113
v 0.061756 0.721 -0.107055
v 0.09393 0.4702 -0.093998
v 0.087355 0.721 -0.087418
v 0.115051 0.4702 -0.066481
v 0.106997 0.721 -0.061827
v 0.128328 0.4702 -0.034436
v 0.119345 0.721 -0.032025
v 0.119345 0.721 -0.032025
v 0.128328 0.4702 -0.034436
v 0.132856 0.4702 -0.000047
v 0.123556 0.721 -0.000044
v 0.128328 0.4702 0.034341
v 0.119345 0.721 0.031938
v 0.115051 0.4702 0.066386
v 0.106997 0.721 0.061739
v 0.09393 0.4702 0.093904
v 0.087355 0.721 0.087331
v 0.066404 0.4702 0.115019
v 0.061756 0.721 0.106968
v 0.03435 0.4702 0.128293
v 0.031946 0.721 0.119312
v 0 0.4702 0.13282
v 0 0.721 0.123523
v -0.031946 0.721 -0.1194
v -0.03435 0.4702 -0.128387
v -0.061756 0.721 -0.107055
v -0.066404 0.4702 -0.115113
v -0.087355 0.721 -0.087418
v -0.09393 0.4702 -0.093998
v -0.106997 0.721 -0.061827
v -0.115051 0.4702 -0.066481
v -0.119345 0.721 -0.032025
v -0.128328 0.4702 -0.034436
v -0.123556 0.721 -0.000044
v -0.132856 0.4702 -0.000047
v -0.119345 0.721 0.031938
v -0.128328 0.4702 0.034341
v -0.106997 0.721 0.061739
v -0.115051 0.4702 0.066386
v -0.087355 0.721 0.087331
v -0.09393 0.4702 0.093904
v -0.061756 0.721 0.106968
v -0.066404 0.4702 0.115019
v -0.031946 0.721 0.119312
v -0.03435 0.4702 0.128293
v -0.094741 0.44835 -0.000047
v -0.088675 0.4246 0.023715
v -0.088675 0.4246 -0.02381
v -0.094741 0.40085 -0.000047
v -0.082043 0.44835 -0.047421
v -0.064905 0.4246 -0.064967
v -0.082043 0.40085 -0.047421
v -0.047353 0.44835 -0.082102
v -0.023736 0.4246 -0.08873
v -0.047353 0.40085 -0.082102
v -0.082043 0.44835 0.047327
v -0.064906 0.4246 0.064873
v -0.082043 0.40085 0.047327
v -0.047353 0.44835 0.082008
v -0.023736 0.4246 0.088636
v -0.047353 0.40085 0.082008
v 0.023736 0.4246 0.088636
v 0 0.44835 0.094701
v 0 0.40085 0.094701
v 0.064906 0.4246 0.064873
v 0.047353 0.44835 0.082008
v 0.047353 0.40085 0.082008
v 0.088675 0.4246 0.023715
v 0.082043 0.44835 0.047327
v 0.082043 0.40085 0.047327
v 0.023736 0.4246 -0.08873
v 0.064905 0.4246 -0.064967
v 0.047353 0.44835 -0.082102
v 0.047353 0.40085 -0.082102
v 0.088675 0.4246 -0.02381
v 0.082043 0.44835 -0.047421
v 0.082043 0.40085 -0.047421
v 0 0.44835 -0.094796
v 0 0.40085 -0.094796
v 0.088675 0.4246 -0.02381
v 0.094741 0.44835 -0.000047
v 0.094741 0.40085 -0.000047
v -0.109079 0.379 -0.029277
v -0.109079 0.379 0.029183
v -0.07984 0.379 0.079811
v -0.029198 0.379 0.109042
v -0.07984 0.379 -0.079906
v -0.029198 0.379 -0.109136
v 0.029198 0.379 0.109042
v 0.07984 0.379 0.079811
v 0.109079 0.379 0.029183
v 0.082043 0.40085 -0.047421
v 0.109079 0.379 -0.029277
v 0.07984 0.379 -0.079906
v 0.029198 0.379 -0.109136
v 0.109079 0.4702 0.029183
v 0.07984 0.4702 0.079811
v 0.029198 0.4702 0.109042
v 0.082043 0.44835 -0.047421
v 0.109079 0.4702 -0.029277
v 0.07984 0.4702 -0.079906
v 0.029198 0.4702 -0.109136
v -0.029198 0.4702 -0.109136
v -0.07984 0.4702 -0.079906
v -0.109079 0.4702 -0.029277
v -0.109079 0.4702 0.029183
v -0.07984 0.4702 0.079811
v -0.029198 0.4702 0.109042
v 0.109079 0.379 -0.029277
v 0.132856 0.379 -0.000047
v 0.115051 0.379 -0.066481
v 0.066404 0.379 -0.115113
v 0 0.379 -0.132914
v -0.066404 0.379 -0.115113
v -0.115051 0.379 -0.066481
v -0.132856 0.379 -0.000047
v -0.115051 0.379 0.066386
v -0.066404 0.379 0.115019
v 0 0.379 0.13282
v 0.066404 0.379 0.115019
v 0.115051 0.379 0.066386
v 0.128328 0.379 0.034341
v 0.128328 0.379 -0.034436
v 0.128328 0.379 -0.034436
v 0.09393 0.379 -0.093998
v 0.03435 0.379 -0.128387
v -0.03435 0.379 -0.128387
v -0.09393 0.379 -0.093998
v -0.128328 0.379 -0.034436
v -0.128328 0.379 0.034341
v -0.09393 0.379 0.093904
v -0.03435 0.379 0.128293
v 0.03435 0.379 0.128293
v 0.09393 0.379 0.093904
v 0.109079 0.4702 -0.029277
v 0.132856 0.4702 -0.000047
v 0.115051 0.4702 -0.066481
v 0.066404 0.4702 -0.115113
v 0 0.4702 -0.132914
v -0.066404 0.4702 -0.115113
v -0.115051 0.4702 -0.066481
v -0.132856 0.4702 -0.000047
v -0.115051 0.4702 0.066386
v -0.066404 0.4702 0.115019
v 0 0.4702 0.13282
v 0.066404 0.4702 0.115019
v 0.115051 0.4702 0.066386
v 0.128328 0.4702 0.034341
v 0.128328 0.4702 -0.034436
v 0.128328 0.4702 -0.034436
v 0.09393 0.4702 -0.093998
v 0.03435 0.4702 -0.128387
v -0.03435 0.4702 -0.128387
v -0.09393 0.4702 -0.093998
v -0.128328 0.4702 -0.034436
v -0.128328 0.4702 0.034341
v -0.09393 0.4702 0.093904
v -0.03435 0.4702 0.128293
v 0.03435 0.4702 0.128293
v 0.09393 0.4702 0.093904
v 0 0.721 -0.096416
v 0 0.721 -0.12361
v 0.031946 0.721 -0.1194
v 0.024918 0.721 -0.093132
v 0.061756 0.721 -0.107055
v 0.04817 0.721 -0.083503
v 0.087355 0.721 -0.087418
v 0.068137 0.721 -0.068186
v 0.106997 0.721 -0.061827
v 0.083458 0.721 -0.048225
v 0.119345 0.721 -0.032025
v 0.093089 0.721 -0.02498
v 0.119345 0.721 -0.032025
v 0.123556 0.721 -0.000044
v 0.096374 0.721 -0.000034
v 0.119345 0.721 0.031938
v 0.093089 0.721 0.024911
v 0.106997 0.721 0.061739
v 0.083458 0.721 0.048157
v 0.087355 0.721 0.087331
v 0.068137 0.721 0.068118
v 0.061756 0.721 0.106968
v 0.04817 0.721 0.083435
v 0.031946 0.721 0.119312
v 0.024918 0.721 0.093063
v 0 0.721 0.123523
v 0 0.721 0.096348
v -0.024918 0.721 -0.093132
v -0.031946 0.721 -0.1194
v -0.04817 0.721 -0.083503
v -0.061756 0.721 -0.107055
v -0.068137 0.721 -0.068186
v -0.087355 0.721 -0.087418
v -0.083458 0.721 -0.048225
v -0.106997 0.721 -0.061827
v -0.093089 0.721 -0.02498
v -0.119345 0.721 -0.032025
v -0.096374 0.721 -0.000034
v -0.123556 0.721 -0.000044
v -0.093089 0.721 0.024911
v -0.119345 0.721 0.031938
v -0.083458 0.721 0.048157
v -0.106997 0.721 0.061739
v -0.068137 0.721 0.068118
v -0.087355 0.721 0.087331
v -0.04817 0.721 0.083435
v -0.061756 0.721 0.106968
v -0.024918 0.721 0.093063
v -0.031946 0.721 0.119312
v 0.024918 0.721 -0.093132
v 0.024918 0.4892 -0.093132
v 0 0.721 -0.096416
v 0.04817 0.721 -0.083503
v 0.068137 0.721 -0.068186
v 0.068137 0.4892 -0.068186
v 0.083458 0.721 -0.048225
v 0.093089 0.721 -0.02498
v 0.093089 0.4892 -0.02498
v 0.096374 0.721 -0.000034
v 0.093089 0.721 0.024911
v 0.093089 0.4892 0.024911
v 0.083458 0.721 0.048157
v 0.068137 0.721 0.068118
v 0.068137 0.4892 0.068118
v 0.04817 0.721 0.083435
v 0.024918 0.721 0.093063
v 0.024918 0.4892 0.093063
v 0 0.721 0.096348
v -0.024918 0.4892 -0.093132
v -0.024918 0.721 -0.093132
v -0.04817 0.721 -0.083503
v -0.068137 0.4892 -0.068186
v -0.068137 0.721 -0.068186
v -0.083458 0.721 -0.048225
v -0.093089 0.4892 -0.02498
v -0.093089 0.721 -0.02498
v -0.096374 0.721 -0.000034
v -0.093089 0.4892 0.024911
v -0.093089 0.721 0.024911
v -0.083458 0.721 0.048157
v -0.068137 0.4892 0.068118
v -0.068137 0.721 0.068118
v -0.04817 0.721 0.083435
v -0.024918 0.4892 0.093063
v -0.024918 0.721 0.093063
v 0 0.4892 -0.000034
v 0.068137 0.4892 0.068118
v 0.024918 0.4892 0.093063
v 0 0.4892 -0.000034
v -0.024918 0.4892 0.093063
v 0 0.4892 -0.000034
v -0.068137 0.4892 0.068118
v 0 0.4892 -0.000034
v 0.093089 0.4892 0.024911
v 0 0.4892 -0.000034
v 0.024918 0.4892 -0.093132
v 0.068137 0.4892 -0.068186
v 0 0.4892 -0.000034
v -0.024918 0.4892 -0.093132
v 0 0.4892 -0.000034
v -0.068137 0.4892 -0.068186
v 0 0.4892 -0.000034
v -0.093089 0.4892 -0.02498
v 0 0.4892 -0.000034
v 0.093089 0.4892 -0.02498
v 0 0.4892 -0.000034
v -0.093089 0.4892 0.024911
v 0 0.4892 -0.000034
v 0 0.4892 -0.000034
vt 0.162086 0.007790029
vt 0.181243 0.024883986
vt 0.200519 0.007790029
vt 0.162086 0.007790029
vt 0.123124 0.007790029
vt 0.142779 0.024883986
vt 0.123124 0.007790029
vt 0.08498 0.007790029
vt 0.104312 0.024883986
vt 0.08498 0.007790029
vt 0.04614 0.007790029
vt 0.065842 0.024883986
vt 0.04614 0.007790029
vt 0.008059 0.007790029
vt 0.027369 0.024883986
vt 0.930757 0.007790029
vt 0.892578 0.007790029
vt 0.911895 0.024883986
vt 0.892578 0.007790029
vt 0.854093 0.007790029
vt 0.873474 0.024883986
vt 0.854093 0.007790029
vt 0.815431 0.007790029
vt 0.835 0.024883986
vt 0.815431 0.007790029
vt 0.777279 0.007790029
vt 0.796527 0.024883986
vt 0.777279 0.007790029
vt 0.738783 0.007790029
vt 0.758057 0.024883986
vt 0.738783 0.007790029
vt 0.699938 0.007790029
vt 0.71959 0.024883986
vt 0.699938 0.007790029
vt 0.661723 0.007790029
vt 0.681126 0.024883986
vt 0.181243 0.024883986
vt 0.162086 0.28228104
vt 0.200519 0.28228104
vt 0.142779 0.024883986
vt 0.123124 0.28228104
vt 0.162086 0.28228104
vt 0.104312 0.024883986
vt 0.08498 0.28228104
vt 0.123124 0.28228104
vt 0.065842 0.024883986
vt 0.04614 0.28228104
vt 0.08498 0.28228104
vt 0.027369 0.024883986
vt 0.008059 0.28228104
vt 0.04614 0.28228104
vt 0.911895 0.024883986
vt 0.892578 0.28228104
vt 0.930757 0.28228104
vt 0.873474 0.024883986
vt 0.854093 0.28228104
vt 0.892578 0.28228104
vt 0.835 0.024883986
vt 0.815431 0.28228104
vt 0.854093 0.28228104
vt 0.796527 0.024883986
vt 0.777279 0.28228104
vt 0.815431 0.28228104
vt 0.758057 0.024883986
vt 0.738783 0.28228104
vt 0.777279 0.28228104
vt 0.71959 0.024883986
vt 0.699938 0.28228104
vt 0.738783 0.28228104
vt 0.681126 0.024883986
vt 0.661723 0.28228104
vt 0.699938 0.28228104
vt 0.892578 0.007790029
vt 0.873474 0.024883986
vt 0.892578 0.28228104
vt 0.892578 0.28228104
vt 0.911895 0.024883986
vt 0.892578 0.007790029
vt 0.854093 0.007790029
vt 0.835 0.024883986
vt 0.854093 0.28228104
vt 0.854093 0.28228104
vt 0.873474 0.024883986
vt 0.854093 0.007790029
vt 0.815431 0.007790029
vt 0.796527 0.024883986
vt 0.815431 0.28228104
vt 0.815431 0.28228104
vt 0.835 0.024883986
vt 0.815431 0.007790029
vt 0.777279 0.007790029
vt 0.758057 0.024883986
vt 0.777279 0.28228104
vt 0.777279 0.28228104
vt 0.796527 0.024883986
vt 0.777279 0.007790029
vt 0.738783 0.28228104
vt 0.758057 0.024883986
vt 0.738783 0.007790029
vt 0.738783 0.007790029
vt 0.71959 0.024883986
vt 0.738783 0.28228104
vt 0.699938 0.28228104
vt 0.71959 0.024883986
vt 0.699938 0.007790029
vt 0.699938 0.007790029
vt 0.681126 0.024883986
vt 0.699938 0.28228104
vt 0.661723 0.28228104
vt 0.681126 0.024883986
vt 0.661723 0.007790029
vt 0.930757 0.007790029
vt 0.911895 0.024883986
vt 0.930757 0.28228104
vt 0.008059 0.28228104
vt 0.027369 0.024883986
vt 0.008059 0.007790029
vt 0.04614 0.007790029
vt 0.027369 0.024883986
vt 0.04614 0.28228104
vt 0.04614 0.28228104
vt 0.065842 0.024883986
vt 0.04614 0.007790029
vt 0.08498 0.007790029
vt 0.065842 0.024883986
vt 0.08498 0.28228104
vt 0.08498 0.28228104
vt 0.104312 0.024883986
vt 0.08498 0.007790029
vt 0.123124 0.007790029
vt 0.104312 0.024883986
vt 0.123124 0.28228104
vt 0.123124 0.28228104
vt 0.142779 0.024883986
vt 0.123124 0.007790029
vt 0.162086 0.007790029
vt 0.142779 0.024883986
vt 0.162086 0.28228104
vt 0.162086 0.007790029
vt 0.162086 0.28228104
vt 0.181243 0.024883986
vt 0.200519 0.007790029
vt 0.181243 0.024883986
vt 0.200519 0.28228104
vt 0.200519 0.007790029
vt 0.219599 0.024883986
vt 0.238901 0.007790029
vt 0.258063 0.024883986
vt 0.277105 0.007790029
vt 0.238901 0.007790029
vt 0.296531 0.024883986
vt 0.315674 0.007790029
vt 0.277105 0.007790029
vt 0.335001 0.024883986
vt 0.354118 0.007790029
vt 0.315674 0.007790029
vt 0.373473 0.024883986
vt 0.392626 0.007790029
vt 0.354118 0.007790029
vt 0.411947 0.024883986
vt 0.431119 0.007790029
vt 0.392626 0.007790029
vt 0.450422 0.024883986
vt 0.469712 0.007790029
vt 0.431119 0.007790029
vt 0.488895 0.024883986
vt 0.508132 0.007790029
vt 0.469712 0.007790029
vt 0.527368 0.024883986
vt 0.546655 0.007790029
vt 0.508132 0.007790029
vt 0.565838 0.024883986
vt 0.585072 0.007790029
vt 0.546655 0.007790029
vt 0.604306 0.024883986
vt 0.623448 0.007790029
vt 0.585072 0.007790029
vt 0.64277 0.024883986
vt 0.661723 0.007790029
vt 0.623448 0.007790029
vt 0.200519 0.28228104
vt 0.238901 0.28228104
vt 0.219599 0.024883986
vt 0.238901 0.28228104
vt 0.277105 0.28228104
vt 0.258063 0.024883986
vt 0.277105 0.28228104
vt 0.315674 0.28228104
vt 0.296531 0.024883986
vt 0.315674 0.28228104
vt 0.354118 0.28228104
vt 0.335001 0.024883986
vt 0.354118 0.28228104
vt 0.392626 0.28228104
vt 0.373473 0.024883986
vt 0.392626 0.28228104
vt 0.431119 0.28228104
vt 0.411947 0.024883986
vt 0.431119 0.28228104
vt 0.469712 0.28228104
vt 0.450422 0.024883986
vt 0.469712 0.28228104
vt 0.508132 0.28228104
vt 0.488895 0.024883986
vt 0.508132 0.28228104
vt 0.546655 0.28228104
vt 0.527368 0.024883986
vt 0.546655 0.28228104
vt 0.585072 0.28228104
vt 0.565838 0.024883986
vt 0.585072 0.28228104
vt 0.623448 0.28228104
vt 0.604306 0.024883986
vt 0.623448 0.28228104
vt 0.661723 0.28228104
vt 0.64277 0.024883986
vt 0.431119 0.28228104
vt 0.450422 0.024883986
vt 0.431119 0.007790029
vt 0.431119 0.007790029
vt 0.411947 0.024883986
vt 0.431119 0.28228104
vt 0.469712 0.28228104
vt 0.488895 0.024883986
vt 0.469712 0.007790029
vt 0.469712 0.007790029
vt 0.450422 0.024883986
vt 0.469712 0.28228104
vt 0.508132 0.28228104
vt 0.527368 0.024883986
vt 0.508132 0.007790029
vt 0.508132 0.007790029
vt 0.488895 0.024883986
vt 0.508132 0.28228104
vt 0.546655 0.28228104
vt 0.565838 0.024883986
vt 0.546655 0.007790029
vt 0.546655 0.007790029
vt 0.527368 0.024883986
vt 0.546655 0.28228104
vt 0.585072 0.007790029
vt 0.565838 0.024883986
vt 0.585072 0.28228104
vt 0.585072 0.28228104
vt 0.604306 0.024883986
vt 0.585072 0.007790029
vt 0.623448 0.007790029
vt 0.604306 0.024883986
vt 0.623448 0.28228104
vt 0.623448 0.28228104
vt 0.64277 0.024883986
vt 0.623448 0.007790029
vt 0.661723 0.007790029
vt 0.64277 0.024883986
vt 0.661723 0.28228104
vt 0.392626 0.28228104
vt 0.411947 0.024883986
vt 0.392626 0.007790029
vt 0.392626 0.007790029
vt 0.373473 0.024883986
vt 0.392626 0.28228104
vt 0.354118 0.28228104
vt 0.373473 0.024883986
vt 0.354118 0.007790029
vt 0.354118 0.007790029
vt 0.335001 0.024883986
vt 0.354118 0.28228104
vt 0.315674 0.28228104
vt 0.335001 0.024883986
vt 0.315674 0.007790029
vt 0.315674 0.007790029
vt 0.296531 0.024883986
vt 0.315674 0.28228104
vt 0.277105 0.28228104
vt 0.296531 0.024883986
vt 0.277105 0.007790029
vt 0.277105 0.007790029
vt 0.258063 0.024883986
vt 0.277105 0.28228104
vt 0.238901 0.28228104
vt 0.258063 0.024883986
vt 0.238901 0.007790029
vt 0.219599 0.024883986
vt 0.238901 0.28228104
vt 0.238901 0.007790029
vt 0.200519 0.28228104
vt 0.219599 0.024883986
vt 0.200519 0.007790029
vt 0.200519 0.491961
vt 0.200519 0.466191
vt 0.162086 0.466191
vt 0.162086 0.491961
vt 0.123124 0.466191
vt 0.123124 0.491961
vt 0.08498 0.466191
vt 0.08498 0.491961
vt 0.04614 0.466191
vt 0.04614 0.491961
vt 0.008059 0.466191
vt 0.008059 0.491961
vt 0.930757 0.491961
vt 0.930757 0.466191
vt 0.892578 0.466191
vt 0.892578 0.491961
vt 0.854093 0.466191
vt 0.854093 0.491961
vt 0.815431 0.466191
vt 0.815431 0.491961
vt 0.777279 0.466191
vt 0.777279 0.491961
vt 0.738783 0.466191
vt 0.738783 0.491961
vt 0.699938 0.466191
vt 0.699938 0.491961
vt 0.661723 0.466191
vt 0.661723 0.491961
vt 0.238901 0.491961
vt 0.238901 0.466191
vt 0.277105 0.491961
vt 0.277105 0.466191
vt 0.315674 0.491961
vt 0.315674 0.466191
vt 0.354118 0.491961
vt 0.354118 0.466191
vt 0.392626 0.491961
vt 0.392626 0.466191
vt 0.431119 0.491961
vt 0.431119 0.466191
vt 0.469712 0.491961
vt 0.469712 0.466191
vt 0.508132 0.491961
vt 0.508132 0.466191
vt 0.546655 0.491961
vt 0.546655 0.466191
vt 0.585072 0.491961
vt 0.585072 0.466191
vt 0.623448 0.491961
vt 0.623448 0.466191
vt 0.431119 0.40700603
vt 0.469712 0.374272
vt 0.392626 0.374272
vt 0.431119 0.341538
vt 0.354118 0.40700603
vt 0.315674 0.374272
vt 0.354118 0.341538
vt 0.277105 0.40700603
vt 0.238901 0.374272
vt 0.277105 0.341538
vt 0.508132 0.40700603
vt 0.546655 0.374272
vt 0.508132 0.341538
vt 0.585072 0.40700603
vt 0.623448 0.374272
vt 0.585072 0.341538
vt 0.699938 0.374272
vt 0.661723 0.40700603
vt 0.661723 0.341538
vt 0.777279 0.374272
vt 0.738783 0.40700603
vt 0.738783 0.341538
vt 0.854093 0.374272
vt 0.815431 0.40700603
vt 0.815431 0.341538
vt 0.162086 0.374272
vt 0.08498 0.374272
vt 0.123124 0.40700603
vt 0.123124 0.341538
vt 0.008059 0.374272
vt 0.04614 0.40700603
vt 0.04614 0.341538
vt 0.200519 0.40700603
vt 0.200519 0.341538
vt 0.930757 0.374272
vt 0.892578 0.40700603
vt 0.892578 0.341538
vt 0.392626 0.312191
vt 0.469712 0.312191
vt 0.546655 0.312191
vt 0.623448 0.312191
vt 0.315674 0.312191
vt 0.238901 0.312191
vt 0.699938 0.312191
vt 0.777279 0.312191
vt 0.854093 0.312191
vt 0.969658 0.341538
vt 0.930757 0.312191
vt 0.08498 0.312191
vt 0.162086 0.312191
vt 0.854093 0.43628204
vt 0.777279 0.43628204
vt 0.699938 0.43628204
vt 0.969658 0.40700603
vt 0.930757 0.43628204
vt 0.08498 0.43628204
vt 0.162086 0.43628204
vt 0.238901 0.43628204
vt 0.315674 0.43628097
vt 0.392626 0.43628204
vt 0.469712 0.43628097
vt 0.546655 0.43628204
vt 0.623448 0.43628204
vt 0.008059 0.312191
vt 0.892578 0.28228104
vt 0.04614 0.28228104
vt 0.123124 0.28228104
vt 0.200519 0.28228104
vt 0.277105 0.28228104
vt 0.354118 0.28228104
vt 0.431119 0.28228104
vt 0.508132 0.28228104
vt 0.585072 0.28228104
vt 0.661723 0.28228104
vt 0.738783 0.28228104
vt 0.815431 0.28228104
vt 0.854093 0.28228104
vt 0.930757 0.28228104
vt 0.008059 0.28228104
vt 0.08498 0.28228104
vt 0.162086 0.28228104
vt 0.238901 0.28228104
vt 0.315674 0.28228104
vt 0.392626 0.28228104
vt 0.469712 0.28228104
vt 0.546655 0.28228104
vt 0.623448 0.28228104
vt 0.699938 0.28228104
vt 0.777279 0.28228104
vt 0.008059 0.43628204
vt 0.892578 0.466191
vt 0.04614 0.466191
vt 0.123124 0.466191
vt 0.200519 0.466191
vt 0.277105 0.466191
vt 0.354118 0.466191
vt 0.431119 0.466191
vt 0.508132 0.466191
vt 0.585072 0.466191
vt 0.661723 0.466191
vt 0.738783 0.466191
vt 0.815431 0.466191
vt 0.854093 0.466191
vt 0.930757 0.466191
vt 0.008059 0.466191
vt 0.08498 0.466191
vt 0.162086 0.466191
vt 0.238901 0.466191
vt 0.315674 0.466191
vt 0.392626 0.466191
vt 0.469712 0.466191
vt 0.546655 0.466191
vt 0.623448 0.466191
vt 0.699938 0.466191
vt 0.777279 0.466191
vt 0.200519 0.491961
vt 0.200519 0.466191
vt 0.162086 0.466191
vt 0.162086 0.491961
vt 0.123124 0.466191
vt 0.123124 0.491961
vt 0.08498 0.466191
vt 0.08498 0.491961
vt 0.04614 0.466191
vt 0.04614 0.491961
vt 0.008059 0.466191
vt 0.008059 0.491961
vt 0.930757 0.491961
vt 0.930757 0.466191
vt 0.892578 0.466191
vt 0.892578 0.491961
vt 0.854093 0.466191
vt 0.854093 0.491961
vt 0.815431 0.466191
vt 0.815431 0.491961
vt 0.777279 0.466191
vt 0.777279 0.491961
vt 0.738783 0.466191
vt 0.738783 0.491961
vt 0.699938 0.466191
vt 0.699938 0.491961
vt 0.661723 0.466191
vt 0.661723 0.491961
vt 0.238901 0.491961
vt 0.238901 0.466191
vt 0.277105 0.491961
vt 0.277105 0.466191
vt 0.315674 0.491961
vt 0.315674 0.466191
vt 0.354118 0.491961
vt 0.354118 0.466191
vt 0.392626 0.491961
vt 0.392626 0.466191
vt 0.431119 0.491961
vt 0.431119 0.466191
vt 0.469712 0.491961
vt 0.469712 0.466191
vt 0.508132 0.491961
vt 0.508132 0.466191
vt 0.546655 0.491961
vt 0.546655 0.466191
vt 0.585072 0.491961
vt 0.585072 0.466191
vt 0.623448 0.491961
vt 0.623448 0.466191
vt 0.431119 0.40700603
vt 0.469712 0.374272
vt 0.392626 0.374272
vt 0.431119 0.341538
vt 0.354118 0.40700603
vt 0.315674 0.374272
vt 0.354118 0.341538
vt 0.277105 0.40700603
vt 0.238901 0.374272
vt 0.277105 0.341538
vt 0.508132 0.40700603
vt 0.546655 0.374272
vt 0.508132 0.341538
vt 0.585072 0.40700603
vt 0.623448 0.374272
vt 0.585072 0.341538
vt 0.699938 0.374272
vt 0.661723 0.40700603
vt 0.661723 0.341538
vt 0.777279 0.374272
vt 0.738783 0.40700603
vt 0.738783 0.341538
vt 0.854093 0.374272
vt 0.815431 0.40700603
vt 0.815431 0.341538
vt 0.162086 0.374272
vt 0.08498 0.374272
vt 0.123124 0.40700603
vt 0.123124 0.341538
vt 0.008059 0.374272
vt 0.04614 0.40700603
vt 0.04614 0.341538
vt 0.200519 0.40700603
vt 0.200519 0.341538
vt 0.930757 0.374272
vt 0.892578 0.40700603
vt 0.892578 0.341538
vt 0.392626 0.312191
vt 0.469712 0.312191
vt 0.546655 0.312191
vt 0.623448 0.312191
vt 0.315674 0.312191
vt 0.238901 0.312191
vt 0.699938 0.312191
vt 0.777279 0.312191
vt 0.854093 0.312191
vt 0.969658 0.341538
vt 0.930757 0.312191
vt 0.08498 0.312191
vt 0.162086 0.312191
vt 0.854093 0.43628204
vt 0.777279 0.43628204
vt 0.699938 0.43628204
vt 0.969658 0.40700603
vt 0.930757 0.43628204
vt 0.08498 0.43628204
vt 0.162086 0.43628204
vt 0.238901 0.43628204
vt 0.315674 0.43628097
vt 0.392626 0.43628204
vt 0.469712 0.43628097
vt 0.546655 0.43628204
vt 0.623448 0.43628204
vt 0.008059 0.312191
vt 0.892578 0.28228104
vt 0.04614 0.28228104
vt 0.123124 0.28228104
vt 0.200519 0.28228104
vt 0.277105 0.28228104
vt 0.354118 0.28228104
vt 0.431119 0.28228104
vt 0.508132 0.28228104
vt 0.585072 0.28228104
vt 0.661723 0.28228104
vt 0.738783 0.28228104
vt 0.815431 0.28228104
vt 0.854093 0.28228104
vt 0.930757 0.28228104
vt 0.008059 0.28228104
vt 0.08498 0.28228104
vt 0.162086 0.28228104
vt 0.238901 0.28228104
vt 0.315674 0.28228104
vt 0.392626 0.28228104
vt 0.469712 0.28228104
vt 0.546655 0.28228104
vt 0.623448 0.28228104
vt 0.699938 0.28228104
vt 0.777279 0.28228104
vt 0.008059 0.43628204
vt 0.892578 0.466191
vt 0.04614 0.466191
vt 0.123124 0.466191
vt 0.200519 0.466191
vt 0.277105 0.466191
vt 0.354118 0.466191
vt 0.431119 0.466191
vt 0.508132 0.466191
vt 0.585072 0.466191
vt 0.661723 0.466191
vt 0.738783 0.466191
vt 0.815431 0.466191
vt 0.854093 0.466191
vt 0.930757 0.466191
vt 0.008059 0.466191
vt 0.08498 0.466191
vt 0.162086 0.466191
vt 0.238901 0.466191
vt 0.315674 0.466191
vt 0.392626 0.466191
vt 0.469712 0.466191
vt 0.546655 0.466191
vt 0.623448 0.466191
vt 0.699938 0.466191
vt 0.777279 0.466191
vt 0.200519 0.491961
vt 0.200519 0.491961
vt 0.162086 0.491961
vt 0.162086 0.491961
vt 0.123124 0.491961
vt 0.123124 0.491961
vt 0.08498 0.491961
vt 0.08498 0.491961
vt 0.04614 0.491961
vt 0.04614 0.491961
vt 0.008059 0.491961
vt 0.008059 0.491961
vt 0.930757 0.491961
vt 0.892578 0.491961
vt 0.892578 0.491961
vt 0.854093 0.491961
vt 0.854093 0.491961
vt 0.815431 0.491961
vt 0.815431 0.491961
vt 0.777279 0.491961
vt 0.777279 0.491961
vt 0.738783 0.491961
vt 0.738783 0.491961
vt 0.699938 0.491961
vt 0.699938 0.491961
vt 0.661723 0.491961
vt 0.661723 0.491961
vt 0.238901 0.491961
vt 0.238901 0.491961
vt 0.277105 0.491961
vt 0.277105 0.491961
vt 0.315674 0.491961
vt 0.315674 0.491961
vt 0.354118 0.491961
vt 0.354118 0.491961
vt 0.392626 0.491961
vt 0.392626 0.491961
vt 0.431119 0.491961
vt 0.431119 0.491961
vt 0.469712 0.491961
vt 0.469712 0.491961
vt 0.508132 0.491961
vt 0.508132 0.491961
vt 0.546655 0.491961
vt 0.546655 0.491961
vt 0.585072 0.491961
vt 0.585072 0.491961
vt 0.623448 0.491961
vt 0.623448 0.491961
vt 0.162086 0.491961
vt 0.162086 0.491961
vt 0.200519 0.491961
vt 0.123124 0.491961
vt 0.08498 0.491961
vt 0.08498 0.491961
vt 0.04614 0.491961
vt 0.008059 0.491961
vt 0.008059 0.491961
vt 0.892578 0.491961
vt 0.854093 0.491961
vt 0.854093 0.491961
vt 0.815431 0.491961
vt 0.777279 0.491961
vt 0.777279 0.491961
vt 0.738783 0.491961
vt 0.699938 0.491961
vt 0.699938 0.491961
vt 0.661723 0.491961
vt 0.238901 0.491961
vt 0.238901 0.491961
vt 0.277105 0.491961
vt 0.315674 0.491961
vt 0.315674 0.491961
vt 0.354118 0.491961
vt 0.392626 0.491961
vt 0.392626 0.491961
vt 0.431119 0.491961
vt 0.469712 0.491961
vt 0.469712 0.491961
vt 0.508132 0.491961
vt 0.546655 0.491961
vt 0.546655 0.491961
vt 0.585072 0.491961
vt 0.623448 0.491961
vt 0.623448 0.491961
vt 0.777279 0.491961
vt 0.777279 0.491961
vt 0.699938 0.491961
vt 0.699938 0.491961
vt 0.623448 0.491961
vt 0.623448 0.491961
vt 0.546655 0.491961
vt 0.854093 0.491961
vt 0.854093 0.491961
vt 0.162086 0.491961
vt 0.162086 0.491961
vt 0.08498 0.491961
vt 0.238901 0.491961
vt 0.238901 0.491961
vt 0.315674 0.491961
vt 0.315674 0.491961
vt 0.392626 0.491961
vt 0.392626 0.491961
vt 0.08498 0.491961
vt 0.008059 0.491961
vt 0.546655 0.491961
vt 0.469712 0.491961
vt 0.469712 0.491961
vt 0.008059 0.491961
vn 0.032746 0.968047 -0.248604
vn 0.032746 0.968047 -0.248604
vn 0.032746 0.968047 -0.248604
vn 0.09592 0.968017 -0.231697
vn 0.09592 0.968017 -0.231697
vn 0.09592 0.968017 -0.231697
vn 0.152623 0.968047 -0.19895
vn 0.152623 0.968047 -0.19895
vn 0.152623 0.968047 -0.19895
vn 0.198889 0.968047 -0.152654
vn 0.198889 0.968047 -0.152654
vn 0.198889 0.968047 -0.152654
vn 0.231635 0.968047 -0.09595
vn 0.231635 0.968047 -0.09595
vn 0.231635 0.968047 -0.09595
vn 0.248573 0.968047 -0.032716
vn 0.248573 0.968047 -0.032716
vn 0.248573 0.968047 -0.032716
vn 0.248573 0.968047 0.032716
vn 0.248573 0.968047 0.032716
vn 0.248573 0.968047 0.032716
vn 0.231635 0.968047 0.09595
vn 0.231635 0.968047 0.09595
vn 0.231635 0.968047 0.09595
vn 0.198889 0.968047 0.152654
vn 0.198889 0.968047 0.152654
vn 0.198889 0.968047 0.152654
vn 0.152623 0.968047 0.19895
vn 0.152623 0.968047 0.19895
vn 0.152623 0.968047 0.19895
vn 0.09592 0.968017 0.231697
vn 0.09592 0.968017 0.231697
vn 0.09592 0.968017 0.231697
vn 0.032746 0.968047 0.248604
vn 0.032746 0.968047 0.248604
vn 0.032746 0.968047 0.248604
vn 0.13065 0.004395 -0.991394
vn 0.13065 0.004395 -0.991394
vn 0.13065 0.004395 -0.991394
vn 0.38258 0.004425 -0.923887
vn 0.38258 0.004425 -0.923887
vn 0.38258 0.004425 -0.923887
vn 0.608631 0.004425 -0.79342
vn 0.608631 0.004425 -0.79342
vn 0.608631 0.004425 -0.79342
vn 0.793237 0.004425 -0.608844
vn 0.793237 0.004425 -0.608844
vn 0.793237 0.004425 -0.608844
vn 0.923826 0.004425 -0.382763
vn 0.923826 0.004425 -0.382763
vn 0.923826 0.004425 -0.382763
vn 0.991424 0.004425 -0.130558
vn 0.991424 0.004425 -0.130558
vn 0.991424 0.004425 -0.130558
vn 0.991424 0.004425 0.130558
vn 0.991424 0.004425 0.130558
vn 0.991424 0.004425 0.130558
vn 0.923826 0.004425 0.382763
vn 0.923826 0.004425 0.382763
vn 0.923826 0.004425 0.382763
vn 0.793237 0.004425 0.608844
vn 0.793237 0.004425 0.608844
vn 0.793237 0.004425 0.608844
vn 0.608631 0.004425 0.79342
vn 0.608631 0.004425 0.79342
vn 0.608631 0.004425 0.79342
vn 0.38258 0.004425 0.923887
vn 0.38258 0.004425 0.923887
vn 0.38258 0.004425 0.923887
vn 0.13065 0.004395 0.991394
vn 0.13065 0.004395 0.991394
vn 0.13065 0.004395 0.991394
vn 0.415174 0.059511 0.907773
vn 0.415174 0.059511 0.907773
vn 0.415174 0.059511 0.907773
vn 0.415174 0.059511 -0.907773
vn 0.415174 0.059511 -0.907773
vn 0.415174 0.059511 -0.907773
vn 0.166143 0.059511 0.984283
vn 0.166143 0.059511 0.984283
vn 0.166143 0.059511 0.984283
vn 0.635945 0.059511 -0.769402
vn 0.635945 0.059511 -0.769402
vn 0.635945 0.059511 -0.769402
vn -0.09418 0.059511 0.993744
vn -0.09418 0.059511 0.993744
vn -0.09418 0.059511 0.993744
vn 0.81344 0.059542 -0.57857
vn 0.81344 0.059542 -0.57857
vn 0.81344 0.059542 -0.57857
vn -0.348125 0.059511 0.935545
vn -0.348125 0.059511 0.935545
vn -0.348125 0.059511 0.935545
vn 0.935484 0.059542 -0.348277
vn 0.935484 0.059542 -0.348277
vn 0.935484 0.059542 -0.348277
vn 0.993744 0.059542 -0.094241
vn 0.993744 0.059542 -0.094241
vn 0.993744 0.059542 -0.094241
vn -0.578356 0.059511 0.813593
vn -0.578356 0.059511 0.813593
vn -0.578356 0.059511 0.813593
vn 0.984283 0.059542 0.166234
vn 0.984283 0.059542 0.166234
vn 0.984283 0.059542 0.166234
vn -0.769219 0.059542 0.636158
vn -0.769219 0.059542 0.636158
vn -0.769219 0.059542 0.636158
vn 0.908109 0.059389 0.414411
vn 0.908109 0.059389 0.414411
vn 0.908109 0.059389 0.414411
vn 0.635945 0.059511 0.769402
vn 0.635945 0.059511 0.769402
vn 0.635945 0.059511 0.769402
vn 0.166143 0.059511 -0.984283
vn 0.166143 0.059511 -0.984283
vn 0.166143 0.059511 -0.984283
vn 0.81344 0.059542 0.57857
vn 0.81344 0.059542 0.57857
vn 0.81344 0.059542 0.57857
vn -0.09418 0.059511 -0.993744
vn -0.09418 0.059511 -0.993744
vn -0.09418 0.059511 -0.993744
vn 0.935484 0.059542 0.348277
vn 0.935484 0.059542 0.348277
vn 0.935484 0.059542 0.348277
vn -0.348125 0.059511 -0.935545
vn -0.348125 0.059511 -0.935545
vn -0.348125 0.059511 -0.935545
vn 0.993744 0.059542 0.094241
vn 0.993744 0.059542 0.094241
vn 0.993744 0.059542 0.094241
vn -0.578356 0.059511 -0.813593
vn -0.578356 0.059511 -0.813593
vn -0.578356 0.059511 -0.813593
vn 0.984283 0.059542 -0.166234
vn 0.984283 0.059542 -0.166234
vn 0.984283 0.059542 -0.166234
vn -0.769219 0.059542 -0.636158
vn -0.769219 0.059542 -0.636158
vn -0.769219 0.059542 -0.636158
vn 0.908109 0.059389 -0.414411
vn 0.908109 0.059389 -0.414411
vn 0.908109 0.059389 -0.414411
vn -0.032746 0.968047 -0.248604
vn -0.032746 0.968047 -0.248604
vn -0.032746 0.968047 -0.248604
vn -0.09592 0.968017 -0.231697
vn -0.09592 0.968017 -0.231697
vn -0.09592 0.968017 -0.231697
vn -0.152623 0.968047 -0.19895
vn -0.152623 0.968047 -0.19895
vn -0.152623 0.968047 -0.19895
vn -0.198889 0.968047 -0.152654
vn -0.198889 0.968047 -0.152654
vn -0.198889 0.968047 -0.152654
vn -0.231635 0.968047 -0.09595
vn -0.231635 0.968047 -0.09595
vn -0.231635 0.968047 -0.09595
vn -0.248573 0.968047 -0.032716
vn -0.248573 0.968047 -0.032716
vn -0.248573 0.968047 -0.032716
vn -0.248573 0.968047 0.032716
vn -0.248573 0.968047 0.032716
vn -0.248573 0.968047 0.032716
vn -0.231635 0.968047 0.09595
vn -0.231635 0.968047 0.09595
vn -0.231635 0.968047 0.09595
vn -0.198889 0.968047 0.152654
vn -0.198889 0.968047 0.152654
vn -0.198889 0.968047 0.152654
vn -0.152623 0.968047 0.19895
vn -0.152623 0.968047 0.19895
vn -0.152623 0.968047 0.19895
vn -0.09592 0.968017 0.231697
vn -0.09592 0.968017 0.231697
vn -0.09592 0.968017 0.231697
vn -0.032746 0.968047 0.248604
vn -0.032746 0.968047 0.248604
vn -0.032746 0.968047 0.248604
vn -0.13065 0.004395 -0.991394
vn -0.13065 0.004395 -0.991394
vn -0.13065 0.004395 -0.991394
vn -0.38258 0.004425 -0.923887
vn -0.38258 0.004425 -0.923887
vn -0.38258 0.004425 -0.923887
vn -0.608631 0.004425 -0.79342
vn -0.608631 0.004425 -0.79342
vn -0.608631 0.004425 -0.79342
vn -0.793237 0.004425 -0.608844
vn -0.793237 0.004425 -0.608844
vn -0.793237 0.004425 -0.608844
vn -0.923826 0.004425 -0.382763
vn -0.923826 0.004425 -0.382763
vn -0.923826 0.004425 -0.382763
vn -0.991424 0.004425 -0.130558
vn -0.991424 0.004425 -0.130558
vn -0.991424 0.004425 -0.130558
vn -0.991424 0.004425 0.130558
vn -0.991424 0.004425 0.130558
vn -0.991424 0.004425 0.130558
vn -0.923826 0.004425 0.382763
vn -0.923826 0.004425 0.382763
vn -0.923826 0.004425 0.382763
vn -0.793237 0.004425 0.608844
vn -0.793237 0.004425 0.608844
vn -0.793237 0.004425 0.608844
vn -0.608631 0.004425 0.79342
vn -0.608631 0.004425 0.79342
vn -0.608631 0.004425 0.79342
vn -0.38258 0.004425 0.923887
vn -0.38258 0.004425 0.923887
vn -0.38258 0.004425 0.923887
vn -0.13065 0.004395 0.991394
vn -0.13065 0.004395 0.991394
vn -0.13065 0.004395 0.991394
vn -0.415174 0.059511 0.907773
vn -0.415174 0.059511 0.907773
vn -0.415174 0.059511 0.907773
vn -0.415174 0.059511 -0.907773
vn -0.415174 0.059511 -0.907773
vn -0.415174 0.059511 -0.907773
vn -0.166143 0.059511 0.984283
vn -0.166143 0.059511 0.984283
vn -0.166143 0.059511 0.984283
vn -0.635945 0.059511 -0.769402
vn -0.635945 0.059511 -0.769402
vn -0.635945 0.059511 -0.769402
vn 0.09418 0.059511 0.993744
vn 0.09418 0.059511 0.993744
vn 0.09418 0.059511 0.993744
vn -0.81344 0.059542 -0.57857
vn -0.81344 0.059542 -0.57857
vn -0.81344 0.059542 -0.57857
vn 0.348125 0.059511 0.935545
vn 0.348125 0.059511 0.935545
vn 0.348125 0.059511 0.935545
vn -0.935484 0.059542 -0.348277
vn -0.935484 0.059542 -0.348277
vn -0.935484 0.059542 -0.348277
vn -0.993744 0.059542 -0.094241
vn -0.993744 0.059542 -0.094241
vn -0.993744 0.059542 -0.094241
vn 0.578356 0.059511 0.813593
vn 0.578356 0.059511 0.813593
vn 0.578356 0.059511 0.813593
vn -0.984283 0.059542 0.166234
vn -0.984283 0.059542 0.166234
vn -0.984283 0.059542 0.166234
vn 0.769219 0.059542 0.636158
vn 0.769219 0.059542 0.636158
vn 0.769219 0.059542 0.636158
vn -0.908109 0.059389 0.414411
vn -0.908109 0.059389 0.414411
vn -0.908109 0.059389 0.414411
vn -0.635945 0.059511 0.769402
vn -0.635945 0.059511 0.769402
vn -0.635945 0.059511 0.769402
vn -0.166143 0.059511 -0.984283
vn -0.166143 0.059511 -0.984283
vn -0.166143 0.059511 -0.984283
vn -0.81344 0.059542 0.57857
vn -0.81344 0.059542 0.57857
vn -0.81344 0.059542 0.57857
vn 0.09418 0.059511 -0.993744
vn 0.09418 0.059511 -0.993744
vn 0.09418 0.059511 -0.993744
vn -0.935484 0.059542 0.348277
vn -0.935484 0.059542 0.348277
vn -0.935484 0.059542 0.348277
vn 0.348125 0.059511 -0.935545
vn 0.348125 0.059511 -0.935545
vn 0.348125 0.059511 -0.935545
vn -0.993744 0.059542 0.094241
vn -0.993744 0.059542 0.094241
vn -0.993744 0.059542 0.094241
vn 0.578356 0.059511 -0.813593
vn 0.578356 0.059511 -0.813593
vn 0.578356 0.059511 -0.813593
vn -0.984283 0.059542 -0.166234
vn -0.984283 0.059542 -0.166234
vn -0.984283 0.059542 -0.166234
vn 0.769219 0.059542 -0.636158
vn 0.769219 0.059542 -0.636158
vn 0.769219 0.059542 -0.636158
vn -0.908109 0.059389 -0.414411
vn -0.908109 0.059389 -0.414411
vn -0.908109 0.059389 -0.414411
vn 0 0 -1
vn 0 0 -1
vn 0.258827 0 -0.965911
vn 0.258827 0 -0.965911
vn 0.499893 0 -0.866054
vn 0.499893 0 -0.866054
vn 0.706992 0 -0.707175
vn 0.706992 0 -0.707175
vn 0.865963 0 -0.500076
vn 0.865963 0 -0.500076
vn 0.96588 0 -0.258858
vn 0.96588 0 -0.258858
vn 0.96588 0 -0.258858
vn 0.96588 0 -0.258858
vn 1 0 0
vn 1 0 0
vn 0.96588 0 0.258858
vn 0.96588 0 0.258858
vn 0.865963 0 0.500076
vn 0.865963 0 0.500076
vn 0.706992 0 0.707175
vn 0.706992 0 0.707175
vn 0.499893 0 0.866054
vn 0.499893 0 0.866054
vn 0.258827 0 0.965911
vn 0.258827 0 0.965911
vn 0 0 1
vn 0 0 1
vn -0.258827 0 -0.965911
vn -0.258827 0 -0.965911
vn -0.499893 0 -0.866054
vn -0.499893 0 -0.866054
vn -0.706992 0 -0.707175
vn -0.706992 0 -0.707175
vn -0.865963 0 -0.500076
vn -0.865963 0 -0.500076
vn -0.96588 0 -0.258858
vn -0.96588 0 -0.258858
vn -1 0 0
vn -1 0 0
vn -0.96588 0 0.258858
vn -0.96588 0 0.258858
vn -0.865963 0 0.500076
vn -0.865963 0 0.500076
vn -0.706992 0 0.707175
vn -0.706992 0 0.707175
vn -0.499893 0 0.866054
vn -0.499893 0 0.866054
vn -0.258827 0 0.965911
vn -0.258827 0 0.965911
vn -0.911344 -0.411634 0
vn -0.96588 0 0.258858
vn -0.96588 0 -0.258858
vn -0.911344 0.411634 0
vn -0.789178 -0.411603 -0.455763
vn -0.706992 0 -0.707175
vn -0.789178 0.411603 -0.455763
vn -0.455611 -0.411603 -0.78927
vn -0.258766 0 -0.965911
vn -0.455611 0.411603 -0.78927
vn -0.789178 -0.411603 0.455763
vn -0.706992 0 0.707175
vn -0.789178 0.411603 0.455763
vn -0.455611 -0.411603 0.78927
vn -0.258766 0 0.965911
vn -0.455611 0.411603 0.78927
vn 0.258766 0 0.965911
vn 0 -0.411664 0.911313
vn 0 0.411664 0.911313
vn 0.706992 0 0.707175
vn 0.455611 -0.411603 0.78927
vn 0.455611 0.411603 0.78927
vn 0.96588 0 0.258858
vn 0.789178 -0.411603 0.455763
vn 0.789178 0.411603 0.455763
vn 0.258766 0 -0.965911
vn 0.706992 0 -0.707175
vn 0.455611 -0.411603 -0.78927
vn 0.455611 0.411603 -0.78927
vn 0.96588 0 -0.258858
vn 0.789178 -0.411603 -0.455763
vn 0.789178 0.411603 -0.455763
vn 0 -0.411664 -0.911313
vn 0 0.411664 -0.911313
vn 0.96588 0 -0.258858
vn 0.911344 -0.411634 0
vn 0.911344 0.411634 0
vn -0.355663 0.929716 -0.095309
vn -0.355663 0.929716 0.095309
vn -0.260353 0.929716 0.260414
vn -0.095279 0.929685 0.355724
vn -0.260353 0.929716 -0.260414
vn -0.095279 0.929685 -0.355724
vn 0.095279 0.929685 0.355724
vn 0.260353 0.929716 0.260414
vn 0.355663 0.929716 0.095309
vn 0.789178 0.411603 -0.455763
vn 0.355663 0.929716 -0.095309
vn 0.260353 0.929716 -0.260414
vn 0.095279 0.929685 -0.355724
vn 0.355663 -0.929716 0.095309
vn 0.260353 -0.929716 0.260414
vn 0.095279 -0.929685 0.355724
vn 0.789178 -0.411603 -0.455763
vn 0.355663 -0.929716 -0.095309
vn 0.260353 -0.929716 -0.260414
vn 0.095279 -0.929685 -0.355724
vn -0.095279 -0.929685 -0.355724
vn -0.260353 -0.929716 -0.260414
vn -0.355663 -0.929716 -0.095309
vn -0.355663 -0.929716 0.095309
vn -0.260353 -0.929716 0.260414
vn -0.095279 -0.929685 0.355724
vn 0.355663 0.929716 -0.095309
vn 0 1 0
vn 0 1 0
vn 0 1 0
vn 0 1 0
vn 0 1 0
vn 0 1 0
vn 0 1 0
vn 0 1 0
vn 0 1 0
vn 0 1 0
vn 0 1 0
vn 0 1 0
vn 0 1 0
vn 0 1 0
vn 0 1 0
vn 0 0.999969 0
vn 0 1 0
vn 0 1 0
vn 0 0.999969 0
vn 0 1 0
vn 0 1 0
vn 0 1 0
vn 0 1 0
vn 0 1 0
vn 0 1 0
vn 0.355663 -0.929716 -0.095309
vn 0 -1 0
vn 0 -1 0
vn 0 -1 0
vn 0 -1 0
vn 0 -1 0
vn 0 -1 0
vn 0 -1 0
vn 0 -1 0
vn 0 -1 0
vn 0 -1 0
vn 0 -1 0
vn 0 -1 0
vn 0 -1 0
vn 0 -1 0
vn 0 -1 0
vn 0 -0.999969 0
vn 0 -1 0
vn 0 -1 0
vn 0 -0.999969 0
vn 0 -1 0
vn 0 -1 0
vn 0 -1 0
vn 0 -1 0
vn 0 -1 0
vn 0 -1 0
vn 0 0.037049 -0.999298
vn 0 0.037049 -0.999298
vn 0.258644 0.037049 -0.965239
vn 0.258644 0.037049 -0.965239
vn 0.499527 0.037049 -0.865474
vn 0.499527 0.037049 -0.865474
vn 0.706504 0.037049 -0.706687
vn 0.706504 0.037049 -0.706687
vn 0.865352 0.037049 -0.499741
vn 0.865352 0.037049 -0.499741
vn 0.965239 0.037049 -0.258705
vn 0.965239 0.037049 -0.258705
vn 0.965239 0.037049 -0.258705
vn 0.965239 0.037049 -0.258705
vn 0.999298 0.037049 0
vn 0.999298 0.037049 0
vn 0.965239 0.037049 0.258675
vn 0.965239 0.037049 0.258705
vn 0.865352 0.037019 0.499741
vn 0.865352 0.037019 0.499741
vn 0.706504 0.037019 0.706687
vn 0.706504 0.037019 0.706717
vn 0.499527 0.037019 0.865474
vn 0.499527 0.037019 0.865474
vn 0.258644 0.037019 0.965239
vn 0.258644 0.037019 0.965239
vn 0 0.037019 0.999298
vn 0 0.037019 0.999298
vn -0.258644 0.037049 -0.965239
vn -0.258644 0.037049 -0.965239
vn -0.499527 0.037049 -0.865474
vn -0.499527 0.037049 -0.865474
vn -0.706504 0.037049 -0.706687
vn -0.706504 0.037049 -0.706687
vn -0.865352 0.037049 -0.499741
vn -0.865352 0.037049 -0.499741
vn -0.965239 0.037049 -0.258705
vn -0.965239 0.037049 -0.258705
vn -0.999298 0.037049 0
vn -0.999298 0.037049 0
vn -0.965239 0.037049 0.258705
vn -0.965239 0.037049 0.258675
vn -0.865352 0.037019 0.499741
vn -0.865352 0.037019 0.499741
vn -0.706504 0.037019 0.706717
vn -0.706504 0.037019 0.706687
vn -0.499527 0.037019 0.865474
vn -0.499527 0.037019 0.865474
vn -0.258644 0.037019 0.965239
vn -0.258644 0.037019 0.965239
vn -0.911344 -0.411634 0
vn -0.96588 0 0.258858
vn -0.96588 0 -0.258858
vn -0.911344 0.411634 0
vn -0.789178 -0.411603 -0.455763
vn -0.706992 0 -0.707175
vn -0.789178 0.411603 -0.455763
vn -0.455611 -0.411603 -0.78927
vn -0.258766 0 -0.965911
vn -0.455611 0.411603 -0.78927
vn -0.789178 -0.411603 0.455763
vn -0.706992 0 0.707175
vn -0.789178 0.411603 0.455763
vn -0.455611 -0.411603 0.78927
vn -0.258766 0 0.965911
vn -0.455611 0.411603 0.78927
vn 0.258766 0 0.965911
vn 0 -0.411664 0.911313
vn 0 0.411664 0.911313
vn 0.706992 0 0.707175
vn 0.455611 -0.411603 0.78927
vn 0.455611 0.411603 0.78927
vn 0.96588 0 0.258858
vn 0.789178 -0.411603 0.455763
vn 0.789178 0.411603 0.455763
vn 0.258766 0 -0.965911
vn 0.706992 0 -0.707175
vn 0.455611 -0.411603 -0.78927
vn 0.455611 0.411603 -0.78927
vn 0.96588 0 -0.258858
vn 0.789178 -0.411603 -0.455763
vn 0.789178 0.411603 -0.455763
vn 0 -0.411664 -0.911313
vn 0 0.411664 -0.911313
vn 0.96588 0 -0.258858
vn 0.911344 -0.411634 0
vn 0.911344 0.411634 0
vn -0.355663 0.929716 -0.095309
vn -0.355663 0.929716 0.095309
vn -0.260353 0.929716 0.260414
vn -0.095279 0.929685 0.355724
vn -0.260353 0.929716 -0.260414
vn -0.095279 0.929685 -0.355724
vn 0.095279 0.929685 0.355724
vn 0.260353 0.929716 0.260414
vn 0.355663 0.929716 0.095309
vn 0.789178 0.411603 -0.455763
vn 0.355663 0.929716 -0.095309
vn 0.260353 0.929716 -0.260414
vn 0.095279 0.929685 -0.355724
vn 0.355663 -0.929716 0.095309
vn 0.260353 -0.929716 0.260414
vn 0.095279 -0.929685 0.355724
vn 0.789178 -0.411603 -0.455763
vn 0.355663 -0.929716 -0.095309
vn 0.260353 -0.929716 -0.260414
vn 0.095279 -0.929685 -0.355724
vn -0.095279 -0.929685 -0.355724
vn -0.260353 -0.929716 -0.260414
vn -0.355663 -0.929716 -0.095309
vn -0.355663 -0.929716 0.095309
vn -0.260353 -0.929716 0.260414
vn -0.095279 -0.929685 0.355724
vn 0.355663 0.929716 -0.095309
vn 0 1 0
vn 0 1 0
vn 0 1 0
vn 0 1 0
vn 0 1 0
vn 0 1 0
vn 0 1 0
vn 0 1 0
vn 0 1 0
vn 0 1 0
vn 0 1 0
vn 0 1 0
vn 0 1 0
vn 0 1 0
vn 0 1 0
vn 0 0.999969 0
vn 0 1 0
vn 0 1 0
vn 0 0.999969 0
vn 0 1 0
vn 0 1 0
vn 0 1 0
vn 0 1 0
vn 0 1 0
vn 0 1 0
vn 0.355663 -0.929716 -0.095309
vn 0 -1 0
vn 0 -1 0
vn 0 -1 0
vn 0 -1 0
vn 0 -1 0
vn 0 -1 0
vn 0 -1 0
vn 0 -1 0
vn 0 -1 0
vn 0 -1 0
vn 0 -1 0
vn 0 -1 0
vn 0 -1 0
vn 0 -1 0
vn 0 -1 0
vn 0 -0.999969 0
vn 0 -1 0
vn 0 -1 0
vn 0 -0.999969 0
vn 0 -1 0
vn 0 -1 0
vn 0 -1 0
vn 0 -1 0
vn 0 -1 0
vn 0 -1 0
vn 0 1 0
vn 0 1 0
vn 0 1 0
vn 0 1 0
vn 0 1 0
vn 0 0.999969 0
vn 0 0.999969 0
vn 0 1 0
vn 0 1 0
vn 0 0.999969 0
vn 0 1 0
vn 0 1 0
vn 0 1 0
vn 0 0.999969 0
vn 0 1 0
vn 0 1 0
vn 0 1 0
vn 0 1 0
vn 0 1 0
vn 0 1 0
vn 0 1 0
vn 0 1 0
vn 0 0.999969 0
vn 0 1 0
vn 0 1 0
vn 0 1 0
vn 0 1 0
vn 0 1 0
vn 0 1 0
vn 0 0.999969 0
vn 0 1 0
vn 0 1 0
vn 0 0.999969 0
vn 0 0.999969 0
vn 0 1 0
vn 0 1 0
vn 0 1 0
vn 0 1 0
vn 0 0.999969 0
vn 0 1 0
vn 0 1 0
vn 0 1 0
vn 0 1 0
vn 0 1 0
vn 0 1 0
vn 0 1 0
vn 0 1 0
vn 0 1 0
vn 0 1 0
vn -0.258827 0 0.965911
vn -0.258736 0.013611 0.96585
vn 0 0.000946 0.999969
vn -0.499893 0.000946 0.866054
vn -0.706992 0 0.707175
vn -0.706931 0.013611 0.707114
vn -0.865963 0.000946 0.500076
vn -0.96588 0 0.258858
vn -0.965819 0.013611 0.258827
vn -0.999969 0.000946 0
vn -0.96588 0 -0.258858
vn -0.965819 0.013611 -0.258827
vn -0.865963 0.000946 -0.500076
vn -0.706992 0 -0.707175
vn -0.706931 0.013611 -0.707114
vn -0.499893 0.000946 -0.866054
vn -0.258827 0 -0.965911
vn -0.258736 0.013611 -0.96585
vn 0 0.000946 -0.999969
vn 0.258736 0.013611 0.96585
vn 0.258827 0 0.965911
vn 0.499893 0.000946 0.866054
vn 0.706931 0.013611 0.707114
vn 0.706992 0 0.707175
vn 0.865963 0.000946 0.500076
vn 0.965819 0.013611 0.258827
vn 0.96588 0 0.258858
vn 0.999969 0.000946 0
vn 0.965819 0.013611 -0.258827
vn 0.96588 0 -0.258858
vn 0.865963 0.000946 -0.500076
vn 0.706931 0.013611 -0.707114
vn 0.706992 0 -0.707175
vn 0.499893 0.000946 -0.866054
vn 0.258736 0.013611 -0.96585
vn 0.258827 0 -0.965911
vn 0 1 0
vn 0 1 0
vn 0 1 0
vn 0 1 0
vn 0 1 0
vn 0 1 0
vn 0 1 0
vn 0 1 0
vn 0 1 0
vn 0 1 0
vn 0 1 0
vn 0 1 0
vn 0 1 0
vn 0 1 0
vn 0 1 0
vn 0 1 0
vn 0 1 0
vn 0 1 0
vn 0 1 0
vn 0 1 0
vn 0 1 0
vn 0 1 0
vn 0 1 0
vn 0 1 0
f 3/3/3 2/2/2 1/1/1
f 6/6/6 5/5/5 4/4/4
f 9/9/9 8/8/8 7/7/7
f 12/12/12 11/11/11 10/10/10
f 15/15/15 14/14/14 13/13/13
f 18/18/18 17/17/17 16/16/16
f 21/21/21 20/20/20 19/19/19
f 24/24/24 23/23/23 22/22/22
f 27/27/27 26/26/26 25/25/25
f 30/30/30 29/29/29 28/28/28
f 33/33/33 32/32/32 31/31/31
f 36/36/36 35/35/35 34/34/34
f 39/39/39 38/38/38 37/37/37
f 42/42/42 41/41/41 40/40/40
f 45/45/45 44/44/44 43/43/43
f 48/48/48 47/47/47 46/46/46
f 51/51/51 50/50/50 49/49/49
f 54/54/54 53/53/53 52/52/52
f 57/57/57 56/56/56 55/55/55
f 60/60/60 59/59/59 58/58/58
f 63/63/63 62/62/62 61/61/61
f 66/66/66 65/65/65 64/64/64
f 69/69/69 68/68/68 67/67/67
f 72/72/72 71/71/71 70/70/70
f 75/75/75 74/74/74 73/73/73
f 78/78/78 77/77/77 76/76/76
f 81/81/81 80/80/80 79/79/79
f 84/84/84 83/83/83 82/82/82
f 87/87/87 86/86/86 85/85/85
f 90/90/90 89/89/89 88/88/88
f 93/93/93 92/92/92 91/91/91
f 96/96/96 95/95/95 94/94/94
f 99/99/99 98/98/98 97/97/97
f 102/102/102 101/101/101 100/100/100
f 105/105/105 104/104/104 103/103/103
f 108/108/108 107/107/107 106/106/106
f 111/111/111 110/110/110 109/109/109
f 114/114/114 113/113/113 112/112/112
f 117/117/117 116/116/116 115/115/115
f 120/120/120 119/119/119 118/118/118
f 123/123/123 122/122/122 121/121/121
f 126/126/126 125/125/125 124/124/124
f 129/129/129 128/128/128 127/127/127
f 132/132/132 131/131/131 130/130/130
f 135/135/135 134/134/134 133/133/133
f 138/138/138 137/137/137 136/136/136
f 141/141/141 140/140/140 139/139/139
f 144/144/144 143/143/143 142/142/142
f 147/147/147 146/146/146 145/145/145
f 150/150/150 149/149/149 148/148/148
f 153/153/153 152/152/152 151/151/151
f 156/156/156 155/155/155 154/154/154
f 159/159/159 158/158/158 157/157/157
f 162/162/162 161/161/161 160/160/160
f 165/165/165 164/164/164 163/163/163
f 168/168/168 167/167/167 166/166/166
f 171/171/171 170/170/170 169/169/169
f 174/174/174 173/173/173 172/172/172
f 177/177/177 176/176/176 175/175/175
f 180/180/180 179/179/179 178/178/178
f 183/183/183 182/182/182 181/181/181
f 186/186/186 185/185/185 184/184/184
f 189/189/189 188/188/188 187/187/187
f 192/192/192 191/191/191 190/190/190
f 195/195/195 194/194/194 193/193/193
f 198/198/198 197/197/197 196/196/196
f 201/201/201 200/200/200 199/199/199
f 204/204/204 203/203/203 202/202/202
f 207/207/207 206/206/206 205/205/205
f 210/210/210 209/209/209 208/208/208
f 213/213/213 212/212/212 211/211/211
f 216/216/216 215/215/215 214/214/214
f 219/219/219 218/218/218 217/217/217
f 222/222/222 221/221/221 220/220/220
f 225/225/225 224/224/224 223/223/223
f 228/228/228 227/227/227 226/226/226
f 231/231/231 230/230/230 229/229/229
f 234/234/234 233/233/233 232/232/232
f 237/237/237 236/236/236 235/235/235
f 240/240/240 239/239/239 238/238/238
f 243/243/243 242/242/242 241/241/241
f 246/246/246 245/245/245 244/244/244
f 249/249/249 248/248/248 247/247/247
f 252/252/252 251/251/251 250/250/250
f 255/255/255 254/254/254 253/253/253
f 258/258/258 257/257/257 256/256/256
f 261/261/261 260/260/260 259/259/259
f 264/264/264 263/263/263 262/262/262
f 267/267/267 266/266/266 265/265/265
f 270/270/270 269/269/269 268/268/268
f 273/273/273 272/272/272 271/271/271
f 276/276/276 275/275/275 274/274/274
f 279/279/279 278/278/278 277/277/277
f 282/282/282 281/281/281 280/280/280
f 285/285/285 284/284/284 283/283/283
f 288/288/288 287/287/287 286/286/286
f 291/291/291 290/290/290 289/289/289
f 289/289/289 292/292/292 291/291/291
f 317/317/317 289/289/289 290/290/290
f 293/293/293 291/291/291 292/292/292
f 290/290/290 318/318/318 317/317/317
f 292/292/292 294/294/294 293/293/293
f 319/319/319 317/317/317 318/318/318
f 295/295/295 293/293/293 294/294/294
f 318/318/318 320/320/320 319/319/319
f 294/294/294 296/296/296 295/295/295
f 321/321/321 319/319/319 320/320/320
f 297/297/297 295/295/295 296/296/296
f 320/320/320 322/322/322 321/321/321
f 296/296/296 298/298/298 297/297/297
f 323/323/323 321/321/321 322/322/322
f 299/299/299 297/297/297 298/298/298
f 298/298/298 300/300/300 299/299/299
f 322/322/322 324/324/324 323/323/323
f 325/325/325 323/323/323 324/324/324
f 324/324/324 326/326/326 325/325/325
f 327/327/327 325/325/325 326/326/326
f 326/326/326 328/328/328 327/327/327
f 329/329/329 327/327/327 328/328/328
f 328/328/328 330/330/330 329/329/329
f 331/331/331 329/329/329 330/330/330
f 330/330/330 332/332/332 331/331/331
f 333/333/333 331/331/331 332/332/332
f 332/332/332 334/334/334 333/333/333
f 335/335/335 333/333/333 334/334/334
f 334/334/334 336/336/336 335/335/335
f 337/337/337 335/335/335 336/336/336
f 336/336/336 338/338/338 337/337/337
f 316/316/316 337/337/337 338/338/338
f 338/338/338 315/315/315 316/316/316
f 314/314/314 316/316/316 315/315/315
f 315/315/315 313/313/313 314/314/314
f 312/312/312 314/314/314 313/313/313
f 313/313/313 311/311/311 312/312/312
f 310/310/310 312/312/312 311/311/311
f 311/311/311 309/309/309 310/310/310
f 308/308/308 310/310/310 309/309/309
f 309/309/309 307/307/307 308/308/308
f 306/306/306 308/308/308 307/307/307
f 307/307/307 305/305/305 306/306/306
f 304/304/304 306/306/306 305/305/305
f 305/305/305 303/303/303 304/304/304
f 301/301/301 304/304/304 303/303/303
f 303/303/303 302/302/302 301/301/301
f 341/341/341 340/340/340 339/339/339
f 341/341/341 339/339/339 343/343/343
f 340/340/340 349/349/349 339/339/339
f 344/344/344 341/341/341 343/343/343
f 349/349/349 399/399/399 339/339/339
f 339/339/339 398/398/398 343/343/343
f 399/399/399 398/398/398 339/339/339
f 340/340/340 341/341/341 342/342/342
f 435/435/435 398/398/398 399/399/399
f 399/399/399 449/449/449 435/435/435
f 398/398/398 435/435/435 448/448/448
f 399/399/399 436/436/436 449/449/449
f 398/398/398 448/448/448 434/434/434
f 436/436/436 399/399/399 400/400/400
f 400/400/400 399/399/399 349/349/349
f 400/400/400 450/450/450 436/436/436
f 400/400/400 437/437/437 450/450/450
f 397/397/397 398/398/398 434/434/434
f 398/398/398 397/397/397 343/343/343
f 397/397/397 434/434/434 447/447/447
f 397/397/397 447/447/447 433/433/433
f 343/343/343 397/397/397 346/346/346
f 344/344/344 343/343/343 346/346/346
f 396/396/396 397/397/397 433/433/433
f 397/397/397 396/396/396 346/346/346
f 396/396/396 433/433/433 446/446/446
f 396/396/396 446/446/446 432/432/432
f 437/437/437 400/400/400 401/401/401
f 401/401/401 451/451/451 437/437/437
f 438/438/438 451/451/451 401/401/401
f 395/395/395 396/396/396 432/432/432
f 395/395/395 432/432/432 445/445/445
f 445/445/445 431/431/431 395/395/395
f 346/346/346 396/396/396 371/371/371
f 396/396/396 395/395/395 371/371/371
f 431/431/431 394/394/394 395/395/395
f 431/431/431 444/444/444 394/394/394
f 444/444/444 430/430/430 394/394/394
f 430/430/430 443/443/443 428/428/428
f 430/430/430 428/428/428 394/394/394
f 394/394/394 428/428/428 369/369/369
f 395/395/395 394/394/394 366/366/366
f 366/366/366 394/394/394 369/369/369
f 371/371/371 395/395/395 366/366/366
f 366/366/366 369/369/369 365/365/365
f 369/369/369 368/368/368 365/365/365
f 370/370/370 365/365/365 368/368/368
f 371/371/371 366/366/366 364/364/364
f 366/366/366 365/365/365 364/364/364
f 347/347/347 346/346/346 371/371/371
f 364/364/364 347/347/347 371/371/371
f 347/347/347 344/344/344 346/346/346
f 367/367/367 364/364/364 365/365/365
f 365/365/365 370/370/370 367/367/367
f 347/347/347 364/364/364 372/372/372
f 364/364/364 367/367/367 372/372/372
f 344/344/344 347/347/347 348/348/348
f 372/372/372 348/348/348 347/347/347
f 370/370/370 387/387/387 367/367/367
f 370/370/370 402/402/402 387/387/387
f 402/402/402 417/417/417 404/404/404
f 387/387/387 402/402/402 404/404/404
f 387/387/387 404/404/404 418/418/418
f 387/387/387 418/418/418 405/405/405
f 367/367/367 387/387/387 388/388/388
f 388/388/388 387/387/387 405/405/405
f 372/372/372 367/367/367 388/388/388
f 388/388/388 405/405/405 419/419/419
f 419/419/419 406/406/406 388/388/388
f 388/388/388 381/381/381 372/372/372
f 406/406/406 381/381/381 388/388/388
f 372/372/372 381/381/381 348/348/348
f 406/406/406 420/420/420 381/381/381
f 420/420/420 407/407/407 381/381/381
f 407/407/407 380/380/380 381/381/381
f 381/381/381 380/380/380 348/348/348
f 407/407/407 421/421/421 380/380/380
f 421/421/421 408/408/408 380/380/380
f 348/348/348 345/345/345 344/344/344
f 348/348/348 380/380/380 345/345/345
f 341/341/341 344/344/344 345/345/345
f 345/345/345 342/342/342 341/341/341
f 408/408/408 376/376/376 380/380/380
f 380/380/380 376/376/376 345/345/345
f 345/345/345 376/376/376 342/342/342
f 408/408/408 422/422/422 376/376/376
f 422/422/422 409/409/409 376/376/376
f 377/377/377 376/376/376 409/409/409
f 342/342/342 376/376/376 377/377/377
f 409/409/409 423/423/423 377/377/377
f 423/423/423 410/410/410 377/377/377
f 342/342/342 377/377/377 351/351/351
f 342/342/342 351/351/351 340/340/340
f 378/378/378 377/377/377 410/410/410
f 351/351/351 377/377/377 378/378/378
f 410/410/410 424/424/424 378/378/378
f 424/424/424 411/411/411 378/378/378
f 350/350/350 340/340/340 351/351/351
f 340/340/340 350/350/350 349/349/349
f 351/351/351 378/378/378 354/354/354
f 351/351/351 354/354/354 350/350/350
f 379/379/379 378/378/378 411/411/411
f 354/354/354 378/378/378 379/379/379
f 411/411/411 425/425/425 379/379/379
f 379/379/379 425/425/425 412/412/412
f 350/350/350 352/352/352 349/349/349
f 352/352/352 400/400/400 349/349/349
f 401/401/401 400/400/400 352/352/352
f 353/353/353 350/350/350 354/354/354
f 350/350/350 353/353/353 352/352/352
f 357/357/357 354/354/354 379/379/379
f 353/353/353 354/354/354 357/357/357
f 382/382/382 379/379/379 412/412/412
f 357/357/357 379/379/379 382/382/382
f 382/382/382 412/412/412 426/426/426
f 382/382/382 426/426/426 413/413/413
f 356/356/356 352/352/352 353/353/353
f 401/401/401 352/352/352 356/356/356
f 357/357/357 355/355/355 353/353/353
f 356/356/356 353/353/353 355/355/355
f 357/357/357 382/382/382 360/360/360
f 355/355/355 357/357/357 360/360/360
f 383/383/383 382/382/382 413/413/413
f 360/360/360 382/382/382 383/383/383
f 383/383/383 413/413/413 427/427/427
f 383/383/383 427/427/427 414/414/414
f 356/356/356 391/391/391 401/401/401
f 438/438/438 401/401/401 391/391/391
f 452/452/452 438/438/438 391/391/391
f 439/439/439 452/452/452 391/391/391
f 384/384/384 383/383/383 414/414/414
f 384/384/384 414/414/414 415/415/415
f 384/384/384 415/415/415 403/403/403
f 439/439/439 391/391/391 390/390/390
f 453/453/453 439/439/439 390/390/390
f 440/440/440 453/453/453 390/390/390
f 359/359/359 391/391/391 356/356/356
f 359/359/359 390/390/390 391/391/391
f 359/359/359 356/356/356 355/355/355
f 386/386/386 403/403/403 416/416/416
f 386/386/386 384/384/384 403/403/403
f 359/359/359 355/355/355 358/358/358
f 360/360/360 358/358/358 355/355/355
f 375/375/375 384/384/384 386/386/386
f 375/375/375 386/386/386 385/385/385
f 373/373/373 375/375/375 385/385/385
f 363/363/363 383/383/383 384/384/384
f 360/360/360 383/383/383 363/363/363
f 363/363/363 384/384/384 375/375/375
f 358/358/358 360/360/360 363/363/363
f 361/361/361 363/363/363 375/375/375
f 363/363/363 361/361/361 358/358/358
f 375/375/375 373/373/373 361/361/361
f 362/362/362 359/359/359 358/358/358
f 362/362/362 358/358/358 361/361/361
f 362/362/362 390/390/390 359/359/359
f 374/374/374 361/361/361 373/373/373
f 374/374/374 362/362/362 361/361/361
f 392/392/392 374/374/374 373/373/373
f 392/392/392 393/393/393 374/374/374
f 362/362/362 389/389/389 390/390/390
f 374/374/374 389/389/389 362/362/362
f 440/440/440 390/390/390 389/389/389
f 393/393/393 389/389/389 374/374/374
f 441/441/441 440/440/440 389/389/389
f 429/429/429 441/441/441 389/389/389
f 429/429/429 389/389/389 393/393/393
f 442/442/442 429/429/429 393/393/393
f 456/456/456 455/455/455 454/454/454
f 454/454/454 457/457/457 456/456/456
f 482/482/482 454/454/454 455/455/455
f 458/458/458 456/456/456 457/457/457
f 455/455/455 483/483/483 482/482/482
f 457/457/457 459/459/459 458/458/458
f 484/484/484 482/482/482 483/483/483
f 460/460/460 458/458/458 459/459/459
f 483/483/483 485/485/485 484/484/484
f 459/459/459 461/461/461 460/460/460
f 486/486/486 484/484/484 485/485/485
f 462/462/462 460/460/460 461/461/461
f 485/485/485 487/487/487 486/486/486
f 461/461/461 463/463/463 462/462/462
f 488/488/488 486/486/486 487/487/487
f 464/464/464 462/462/462 463/463/463
f 463/463/463 465/465/465 464/464/464
f 487/487/487 489/489/489 488/488/488
f 490/490/490 488/488/488 489/489/489
f 489/489/489 491/491/491 490/490/490
f 492/492/492 490/490/490 491/491/491
f 491/491/491 493/493/493 492/492/492
f 494/494/494 492/492/492 493/493/493
f 493/493/493 495/495/495 494/494/494
f 496/496/496 494/494/494 495/495/495
f 495/495/495 497/497/497 496/496/496
f 498/498/498 496/496/496 497/497/497
f 497/497/497 499/499/499 498/498/498
f 500/500/500 498/498/498 499/499/499
f 499/499/499 501/501/501 500/500/500
f 502/502/502 500/500/500 501/501/501
f 501/501/501 503/503/503 502/502/502
f 481/481/481 502/502/502 503/503/503
f 503/503/503 480/480/480 481/481/481
f 479/479/479 481/481/481 480/480/480
f 480/480/480 478/478/478 479/479/479
f 477/477/477 479/479/479 478/478/478
f 478/478/478 476/476/476 477/477/477
f 475/475/475 477/477/477 476/476/476
f 476/476/476 474/474/474 475/475/475
f 473/473/473 475/475/475 474/474/474
f 474/474/474 472/472/472 473/473/473
f 471/471/471 473/473/473 472/472/472
f 472/472/472 470/470/470 471/471/471
f 469/469/469 471/471/471 470/470/470
f 470/470/470 468/468/468 469/469/469
f 466/466/466 469/469/469 468/468/468
f 468/468/468 467/467/467 466/466/466
f 506/506/506 505/505/505 504/504/504
f 506/506/506 504/504/504 508/508/508
f 505/505/505 514/514/514 504/504/504
f 509/509/509 506/506/506 508/508/508
f 514/514/514 564/564/564 504/504/504
f 504/504/504 563/563/563 508/508/508
f 564/564/564 563/563/563 504/504/504
f 505/505/505 506/506/506 507/507/507
f 600/600/600 563/563/563 564/564/564
f 564/564/564 614/614/614 600/600/600
f 563/563/563 600/600/600 613/613/613
f 564/564/564 601/601/601 614/614/614
f 563/563/563 613/613/613 599/599/599
f 601/601/601 564/564/564 565/565/565
f 565/565/565 564/564/564 514/514/514
f 565/565/565 615/615/615 601/601/601
f 565/565/565 602/602/602 615/615/615
f 562/562/562 563/563/563 599/599/599
f 563/563/563 562/562/562 508/508/508
f 562/562/562 599/599/599 612/612/612
f 562/562/562 612/612/612 598/598/598
f 508/508/508 562/562/562 511/511/511
f 509/509/509 508/508/508 511/511/511
f 561/561/561 562/562/562 598/598/598
f 562/562/562 561/561/561 511/511/511
f 561/561/561 598/598/598 611/611/611
f 561/561/561 611/611/611 597/597/597
f 602/602/602 565/565/565 566/566/566
f 566/566/566 616/616/616 602/602/602
f 603/603/603 616/616/616 566/566/566
f 560/560/560 561/561/561 597/597/597
f 560/560/560 597/597/597 610/610/610
f 610/610/610 596/596/596 560/560/560
f 511/511/511 561/561/561 536/536/536
f 561/561/561 560/560/560 536/536/536
f 596/596/596 559/559/559 560/560/560
f 596/596/596 609/609/609 559/559/559
f 609/609/609 595/595/595 559/559/559
f 595/595/595 608/608/608 593/593/593
f 595/595/595 593/593/593 559/559/559
f 559/559/559 593/593/593 534/534/534
f 560/560/560 559/559/559 531/531/531
f 531/531/531 559/559/559 534/534/534
f 536/536/536 560/560/560 531/531/531
f 531/531/531 534/534/534 530/530/530
f 534/534/534 533/533/533 530/530/530
f 535/535/535 530/530/530 533/533/533
f 536/536/536 531/531/531 529/529/529
f 531/531/531 530/530/530 529/529/529
f 512/512/512 511/511/511 536/536/536
f 529/529/529 512/512/512 536/536/536
f 512/512/512 509/509/509 511/511/511
f 532/532/532 529/529/529 530/530/530
f 530/530/530 535/535/535 532/532/532
f 512/512/512 529/529/529 537/537/537
f 529/529/529 532/532/532 537/537/537
f 509/509/509 512/512/512 513/513/513
f 537/537/537 513/513/513 512/512/512
f 535/535/535 552/552/552 532/532/532
f 535/535/535 567/567/567 552/552/552
f 567/567/567 582/582/582 569/569/569
f 552/552/552 567/567/567 569/569/569
f 552/552/552 569/569/569 583/583/583
f 552/552/552 583/583/583 570/570/570
f 532/532/532 552/552/552 553/553/553
f 553/553/553 552/552/552 570/570/570
f 537/537/537 532/532/532 553/553/553
f 553/553/553 570/570/570 584/584/584
f 584/584/584 571/571/571 553/553/553
f 553/553/553 546/546/546 537/537/537
f 571/571/571 546/546/546 553/553/553
f 537/537/537 546/546/546 513/513/513
f 571/571/571 585/585/585 546/546/546
f 585/585/585 572/572/572 546/546/546
f 572/572/572 545/545/545 546/546/546
f 546/546/546 545/545/545 513/513/513
f 572/572/572 586/586/586 545/545/545
f 586/586/586 573/573/573 545/545/545
f 513/513/513 510/510/510 509/509/509
f 513/513/513 545/545/545 510/510/510
f 506/506/506 509/509/509 510/510/510
f 510/510/510 507/507/507 506/506/506
f 573/573/573 541/541/541 545/545/545
f 545/545/545 541/541/541 510/510/510
f 510/510/510 541/541/541 507/507/507
f 573/573/573 587/587/587 541/541/541
f 587/587/587 574/574/574 541/541/541
f 542/542/542 541/541/541 574/574/574
f 507/507/507 541/541/541 542/542/542
f 574/574/574 588/588/588 542/542/542
f 588/588/588 575/575/575 542/542/542
f 507/507/507 542/542/542 516/516/516
f 507/507/507 516/516/516 505/505/505
f 543/543/543 542/542/542 575/575/575
f 516/516/516 542/542/542 543/543/543
f 575/575/575 589/589/589 543/543/543
f 589/589/589 576/576/576 543/543/543
f 515/515/515 505/505/505 516/516/516
f 505/505/505 515/515/515 514/514/514
f 516/516/516 543/543/543 519/519/519
f 516/516/516 519/519/519 515/515/515
f 544/544/544 543/543/543 576/576/576
f 519/519/519 543/543/543 544/544/544
f 576/576/576 590/590/590 544/544/544
f 544/544/544 590/590/590 577/577/577
f 515/515/515 517/517/517 514/514/514
f 517/517/517 565/565/565 514/514/514
f 566/566/566 565/565/565 517/517/517
f 518/518/518 515/515/515 519/519/519
f 515/515/515 518/518/518 517/517/517
f 522/522/522 519/519/519 544/544/544
f 518/518/518 519/519/519 522/522/522
f 547/547/547 544/544/544 577/577/577
f 522/522/522 544/544/544 547/547/547
f 547/547/547 577/577/577 591/591/591
f 547/547/547 591/591/591 578/578/578
f 521/521/521 517/517/517 518/518/518
f 566/566/566 517/517/517 521/521/521
f 522/522/522 520/520/520 518/518/518
f 521/521/521 518/518/518 520/520/520
f 522/522/522 547/547/547 525/525/525
f 520/520/520 522/522/522 525/525/525
f 548/548/548 547/547/547 578/578/578
f 525/525/525 547/547/547 548/548/548
f 548/548/548 578/578/578 592/592/592
f 548/548/548 592/592/592 579/579/579
f 521/521/521 556/556/556 566/566/566
f 603/603/603 566/566/566 556/556/556
f 617/617/617 603/603/603 556/556/556
f 604/604/604 617/617/617 556/556/556
f 549/549/549 548/548/548 579/579/579
f 549/549/549 579/579/579 580/580/580
f 549/549/549 580/580/580 568/568/568
f 604/604/604 556/556/556 555/555/555
f 618/618/618 604/604/604 555/555/555
f 605/605/605 618/618/618 555/555/555
f 524/524/524 556/556/556 521/521/521
f 524/524/524 555/555/555 556/556/556
f 524/524/524 521/521/521 520/520/520
f 551/551/551 568/568/568 581/581/581
f 551/551/551 549/549/549 568/568/568
f 524/524/524 520/520/520 523/523/523
f 525/525/525 523/523/523 520/520/520
f 540/540/540 549/549/549 551/551/551
f 540/540/540 551/551/551 550/550/550
f 538/538/538 540/540/540 550/550/550
f 528/528/528 548/548/548 549/549/549
f 525/525/525 548/548/548 528/528/528
f 528/528/528 549/549/549 540/540/540
f 523/523/523 525/525/525 528/528/528
f 526/526/526 528/528/528 540/540/540
f 528/528/528 526/526/526 523/523/523
f 540/540/540 538/538/538 526/526/526
f 527/527/527 524/524/524 523/523/523
f 527/527/527 523/523/523 526/526/526
f 527/527/527 555/555/555 524/524/524
f 539/539/539 526/526/526 538/538/538
f 539/539/539 527/527/527 526/526/526
f 557/557/557 539/539/539 538/538/538
f 557/557/557 558/558/558 539/539/539
f 527/527/527 554/554/554 555/555/555
f 539/539/539 554/554/554 527/527/527
f 605/605/605 555/555/555 554/554/554
f 558/558/558 554/554/554 539/539/539
f 606/606/606 605/605/605 554/554/554
f 594/594/594 606/606/606 554/554/554
f 594/594/594 554/554/554 558/558/558
f 607/607/607 594/594/594 558/558/558
f 621/621/621 620/620/620 619/619/619
f 619/619/619 622/622/622 621/621/621
f 646/646/646 619/619/619 620/620/620
f 623/623/623 621/621/621 622/622/622
f 620/620/620 647/647/647 646/646/646
f 622/622/622 624/624/624 623/623/623
f 648/648/648 646/646/646 647/647/647
f 625/625/625 623/623/623 624/624/624
f 647/647/647 649/649/649 648/648/648
f 624/624/624 626/626/626 625/625/625
f 650/650/650 648/648/648 649/649/649
f 627/627/627 625/625/625 626/626/626
f 649/649/649 651/651/651 650/650/650
f 626/626/626 628/628/628 627/627/627
f 652/652/652 650/650/650 651/651/651
f 629/629/629 627/627/627 628/628/628
f 628/628/628 630/630/630 629/629/629
f 651/651/651 653/653/653 652/652/652
f 654/654/654 652/652/652 653/653/653
f 653/653/653 655/655/655 654/654/654
f 656/656/656 654/654/654 655/655/655
f 655/655/655 657/657/657 656/656/656
f 658/658/658 656/656/656 657/657/657
f 657/657/657 659/659/659 658/658/658
f 660/660/660 658/658/658 659/659/659
f 659/659/659 661/661/661 660/660/660
f 662/662/662 660/660/660 661/661/661
f 661/661/661 663/663/663 662/662/662
f 664/664/664 662/662/662 663/663/663
f 663/663/663 665/665/665 664/664/664
f 666/666/666 664/664/664 665/665/665
f 665/665/665 667/667/667 666/666/666
f 645/645/645 666/666/666 667/667/667
f 667/667/667 644/644/644 645/645/645
f 643/643/643 645/645/645 644/644/644
f 644/644/644 642/642/642 643/643/643
f 641/641/641 643/643/643 642/642/642
f 642/642/642 640/640/640 641/641/641
f 639/639/639 641/641/641 640/640/640
f 640/640/640 638/638/638 639/639/639
f 637/637/637 639/639/639 638/638/638
f 638/638/638 636/636/636 637/637/637
f 635/635/635 637/637/637 636/636/636
f 636/636/636 634/634/634 635/635/635
f 633/633/633 635/635/635 634/634/634
f 634/634/634 632/632/632 633/633/633
f 630/630/630 633/633/633 632/632/632
f 632/632/632 631/631/631 630/630/630
f 670/670/670 669/669/669 668/668/668
f 671/671/671 668/668/668 669/669/669
f 687/687/687 669/669/669 670/670/670
f 671/671/671 669/669/669 673/673/673
f 670/670/670 688/688/688 687/687/687
f 671/671/671 673/673/673 672/672/672
f 689/689/689 687/687/687 688/688/688
f 674/674/674 672/672/672 673/673/673
f 690/690/690 687/687/687 689/689/689
f 674/674/674 673/673/673 676/676/676
f 689/689/689 691/691/691 690/690/690
f 674/674/674 676/676/676 675/675/675
f 692/692/692 690/690/690 691/691/691
f 677/677/677 675/675/675 676/676/676
f 693/693/693 690/690/690 692/692/692
f 677/677/677 676/676/676 679/679/679
f 692/692/692 694/694/694 693/693/693
f 677/677/677 679/679/679 678/678/678
f 695/695/695 693/693/693 694/694/694
f 680/680/680 678/678/678 679/679/679
f 696/696/696 693/693/693 695/695/695
f 680/680/680 679/679/679 682/682/682
f 695/695/695 697/697/697 696/696/696
f 680/680/680 682/682/682 681/681/681
f 698/698/698 696/696/696 697/697/697
f 683/683/683 681/681/681 682/682/682
f 699/699/699 696/696/696 698/698/698
f 683/683/683 682/682/682 685/685/685
f 698/698/698 700/700/700 699/699/699
f 683/683/683 685/685/685 684/684/684
f 701/701/701 699/699/699 700/700/700
f 686/686/686 684/684/684 685/685/685
f 702/702/702 699/699/699 701/701/701
f 686/686/686 685/685/685 702/702/702
f 701/701/701 703/703/703 702/702/702
f 686/686/686 702/702/702 703/703/703
f 706/706/706 705/705/705 704/704/704
f 705/705/705 712/712/712 711/711/711
f 708/708/708 706/706/706 707/707/707
f 712/712/712 723/723/723 727/727/727
f 710/710/710 708/708/708 709/709/709
f 723/723/723 715/715/715 722/722/722
f 725/725/725 710/710/710 724/724/724
f 715/715/715 714/714/714 713/713/713
f 721/721/721 725/725/725 726/726/726
f 714/714/714 717/717/717 716/716/716
f 719/719/719 721/721/721 720/720/720
f 717/717/717 719/719/719 718/718/718
