# VPXTOOL table OBJ file
# VPXTOOL OBJ file
# numVerts: 293 numFaces: 380
o VRCoinDoorKeyHole
v 6.763152 22.881264 -13.4999
v 6.773859 22.880623 -13.435736
v 6.744314 22.785217 -13.500854
v 6.756043 22.774172 -13.430676
v 6.744314 22.77487 -13.500957
v 6.756043 22.784517 -13.430574
v 6.756043 22.785917 -13.571136
v 6.789956 22.776192 -13.633905
v 6.789956 22.78654 -13.633802
v 6.756043 22.775568 -13.571239
v 6.842383 22.787022 -13.682061
v 6.842383 22.776672 -13.682163
v 6.852685 22.882904 -13.665337
v 6.773859 22.8819 -13.564066
v 6.804821 22.88247 -13.621278
v 6.807176 22.8849 -13.619421
v 6.854316 22.885334 -13.662814
v 6.77668 22.88434 -13.563072
v 6.766133 22.883709 -13.499876
v 6.777255 22.88368 -13.499876
v 6.81595 22.884804 -13.612593
v 6.787198 22.884274 -13.559463
v 6.789537 22.88176 -13.558684
v 6.8179 22.88228 -13.611098
v 6.779727 22.881174 -13.499901
v 6.78891 22.823753 -13.559476
v 6.779065 22.823162 -13.500479
v 6.86139 22.824678 -13.652593
v 6.81738 22.824276 -13.612082
v 6.861752 22.88268 -13.651462
v 6.860398 22.88521 -13.653508
v 6.79517 22.88196 -13.556749
v 6.822602 22.882462 -13.607438
v 6.865007 22.88285 -13.646474
v 6.917791 22.88308 -13.669626
v 6.916168 22.824917 -13.67662
v 6.975234 22.883127 -13.674386
v 6.91633 22.88292 -13.675402
v 6.975726 22.882965 -13.680324
v 7.033504 22.882824 -13.665693
v 6.975781 22.824966 -13.681559
v 7.031111 22.88299 -13.660237
v 7.033771 22.824821 -13.666876
v 6.975005 22.885588 -13.671587
v 7.029993 22.885447 -13.657662
v 6.918478 22.88554 -13.666903
v 6.968622 22.884943 -13.606806
v 6.952297 22.884943 -13.60681
v 6.975005 22.885588 -13.671587
v 6.980813 22.884823 -13.594616
v 6.968622 22.884943 -13.606806
v 7.029993 22.885447 -13.657662
v 6.866531 22.885313 -13.644119
v 6.952297 22.884943 -13.60681
v 6.940109 22.884823 -13.594628
v 6.918478 22.88554 -13.666903
v 6.940109 22.775812 -13.595713
v 6.940109 22.884823 -13.594628
v 6.952297 22.775932 -13.607894
v 6.968622 22.775932 -13.60789
v 6.968622 22.884943 -13.606806
v 6.940044 22.882944 -13.405749
v 6.797802 22.884438 -13.55582
v 6.940044 22.773935 -13.406833
v 6.844073 22.88514 -13.62664
v 6.866531 22.885313 -13.644119
v 6.940109 22.884823 -13.594628
v 6.844073 22.88514 -13.62664
v 6.940109 22.884823 -13.594628
v 6.8248 22.884932 -13.605703
v 6.8248 22.884932 -13.605703
v 6.844073 22.88514 -13.62664
v 6.788466 22.88388 -13.499874
v 6.797802 22.884438 -13.55582
v 6.940044 22.882944 -13.405749
v 6.797802 22.884438 -13.55582
v 6.785684 22.881395 -13.499899
v 6.79517 22.880827 -13.443048
v 6.797802 22.883322 -13.443929
v 6.78891 22.822577 -13.44148
v 6.789537 22.880587 -13.441117
v 6.81738 22.822054 -13.388874
v 6.787198 22.883087 -13.440289
v 6.81595 22.882563 -13.387159
v 6.860398 22.882153 -13.346244
v 6.86175 22.879667 -13.348339
v 6.817903 22.880068 -13.388702
v 6.86139 22.821651 -13.348363
v 6.77668 22.883081 -13.43668
v 6.807176 22.882519 -13.380331
v 6.854316 22.882088 -13.336937
v 6.912995 22.881838 -13.311199
v 6.91633 22.879429 -13.3244
v 6.915724 22.881914 -13.321978
v 6.975931 22.881866 -13.316988
v 6.975726 22.879381 -13.319478
v 6.975781 22.821363 -13.319396
v 6.916168 22.821415 -13.324335
v 7.033504 22.879524 -13.334108
v 7.034497 22.88201 -13.33182
v 7.033768 22.821508 -13.33408
v 6.917791 22.879704 -13.330171
v 6.975234 22.879658 -13.325411
v 6.975005 22.88217 -13.328162
v 7.031111 22.879799 -13.339561
v 6.918478 22.882217 -13.332846
v 6.918478 22.882217 -13.332846
v 6.952778 22.882816 -13.393009
v 6.975005 22.88217 -13.328162
v 6.980807 22.882944 -13.405748
v 7.029993 22.882309 -13.342085
v 6.968068 22.882816 -13.393009
v 6.968068 22.77381 -13.394093
v 6.980807 22.773935 -13.406833
v 6.968068 22.882816 -13.393009
v 6.952778 22.77381 -13.394094
v 6.952778 22.882816 -13.393009
v 6.940044 22.882944 -13.405749
v 6.866531 22.882444 -13.355629
v 6.980807 22.77436 -13.449673
v 6.980807 22.883368 -13.448588
v 6.980823 22.7755 -13.564033
v 6.962789 22.77446 -13.459855
v 6.962789 22.88347 -13.458771
v 6.980762 22.774765 -13.490404
v 6.980762 22.775177 -13.531877
v 6.980762 22.883774 -13.489319
v 6.962791 22.774693 -13.483354
v 6.962791 22.883707 -13.482269
v 6.980807 22.883368 -13.448588
v 6.962789 22.88347 -13.458771
v 6.980762 22.883774 -13.489319
v 6.967476 22.775438 -13.55809
v 6.967493 22.775263 -13.540535
v 6.967493 22.884272 -13.53945
v 6.967476 22.884445 -13.557007
v 7.112318 22.884695 -13.581881
v 6.980762 22.884186 -13.530792
v 6.967476 22.884445 -13.557007
v 6.980813 22.775814 -13.595701
v 6.980823 22.884506 -13.562948
v 6.980823 22.884506 -13.562948
v 7.077477 22.88514 -13.626639
v 7.077477 22.88514 -13.626639
v 7.079363 22.882675 -13.628714
v 7.112318 22.884695 -13.581881
v 7.114767 22.88222 -13.583231
v 7.133482 22.881681 -13.528717
v 7.130735 22.883596 -13.471514
v 6.980762 22.883774 -13.489319
v 7.130735 22.884163 -13.528233
v 7.133482 22.881105 -13.471081
v 7.130735 22.884163 -13.528233
v 7.140009 22.823463 -13.530384
v 7.114767 22.880562 -13.416567
v 7.120585 22.822304 -13.413998
v 7.130735 22.883596 -13.471514
v 7.112318 22.883062 -13.417868
v 7.079363 22.880112 -13.371084
v 7.112318 22.883062 -13.417868
v 7.077477 22.88262 -13.373109
v 6.980807 22.883368 -13.448588
v 7.077477 22.88262 -13.373109
v 7.029993 22.882309 -13.342085
v 7.029993 22.882309 -13.342085
v 6.980807 22.882944 -13.405748
v 7.077477 22.88262 -13.373109
v 7.139355 22.880877 -13.470102
v 7.120003 22.880318 -13.413734
v 7.140009 22.82287 -13.470572
v 7.083845 22.821835 -13.366795
v 7.083397 22.87985 -13.366705
v 7.085073 22.88234 -13.364861
v 7.038961 22.88194 -13.321637
v 7.092601 22.882284 -13.356681
v 7.131956 22.88279 -13.407242
v 7.04016 22.879463 -13.31893
v 7.134581 22.880327 -13.405846
v 7.094625 22.879814 -13.35451
v 7.047729 22.783249 -13.302635
v 7.151148 22.784195 -13.397837
v 7.107381 22.783634 -13.341606
v 7.152761 22.88339 -13.46784
v 7.174285 22.784864 -13.465229
v 7.155705 22.880936 -13.467374
v 7.174285 22.774517 -13.465331
v 7.107381 22.773287 -13.34171
v 7.151148 22.773846 -13.397938
v 7.047729 22.772898 -13.302738
v 6.97865 22.783075 -13.285143
v 6.97865 22.772724 -13.285246
v 6.907639 22.783133 -13.291027
v 6.977097 22.879301 -13.302959
v 6.912261 22.879358 -13.308332
v 6.907639 22.772787 -13.29113
v 6.842383 22.77307 -13.319752
v 6.852685 22.879616 -13.334463
v 6.842383 22.783417 -13.319649
v 6.804821 22.880054 -13.378523
v 6.789956 22.77355 -13.368011
v 6.789956 22.783897 -13.367908
v 6.976849 22.88178 -13.305908
v 7.174285 22.775227 -13.536585
v 7.151148 22.775894 -13.603977
v 7.151148 22.786243 -13.603874
v 7.174285 22.785574 -13.536482
v 7.134581 22.882195 -13.593954
v 7.107381 22.776457 -13.660206
v 7.107384 22.786802 -13.660103
v 7.094625 22.882708 -13.64529
v 7.131956 22.884632 -13.59251
v 7.152761 22.884026 -13.531912
v 7.092601 22.885134 -13.643071
v 7.085073 22.885025 -13.634892
v 7.141795 22.883984 -13.530081
v 7.122178 22.884552 -13.587219
v 7.139355 22.88147 -13.529699
v 7.120003 22.88203 -13.586066
v 7.120585 22.824024 -13.586959
v 7.141795 22.883379 -13.469671
v 7.083397 22.882498 -13.633097
v 7.083845 22.824497 -13.634159
v 7.034497 22.885353 -13.667933
v 7.038961 22.885485 -13.678114
v 6.975931 22.885502 -13.682762
v 6.915724 22.885454 -13.677774
v 6.912995 22.885584 -13.688551
v 6.976849 22.88564 -13.693842
v 6.977097 22.883223 -13.696839
v 6.912261 22.883165 -13.691467
v 6.97865 22.787365 -13.716567
v 6.907639 22.787306 -13.710684
v 6.97865 22.777018 -13.71667
v 6.907639 22.776957 -13.710785
v 7.047729 22.78719 -13.699076
v 7.047729 22.77684 -13.699179
v 7.04016 22.883062 -13.68087
v 7.122178 22.882812 -13.412533
v 6.980813 22.884823 -13.594616
v 7.029993 22.885447 -13.657662
v 7.077477 22.88514 -13.626639
v 6.866531 22.882444 -13.355629
v 6.822602 22.880323 -13.39236
v 6.8248 22.88283 -13.394045
v 6.865007 22.879936 -13.353323
v 6.866531 22.882444 -13.355629
v 6.8248 22.88283 -13.394045
v 6.940044 22.882944 -13.405749
v 6.8248 22.88283 -13.394045
v 6.797802 22.883322 -13.443929
v 6.797802 22.883322 -13.443929
v 6.788466 22.88388 -13.499874
v 6.975005 22.885588 -13.671587
v 6.968622 22.884943 -13.606806
v 6.975005 22.885588 -13.671587
v 7.029993 22.885447 -13.657662
v 6.940109 22.884823 -13.594628
v 6.866531 22.885313 -13.644119
v 6.918478 22.88554 -13.666903
v 6.952297 22.884943 -13.60681
v 6.8248 22.884932 -13.605703
v 6.788466 22.88388 -13.499874
v 6.968068 22.882816 -13.393009
v 7.029993 22.882309 -13.342085
v 6.975005 22.88217 -13.328162
v 6.968068 22.882816 -13.393009
v 6.980807 22.882944 -13.405748
v 6.940044 22.882944 -13.405749
v 6.952778 22.882816 -13.393009
v 6.918478 22.882217 -13.332846
v 6.980762 22.884186 -13.530792
v 6.962789 22.88347 -13.458771
v 6.962791 22.883707 -13.482269
v 6.980762 22.883774 -13.489319
v 6.967476 22.884445 -13.557007
v 6.980823 22.884506 -13.562948
v 7.112318 22.884695 -13.581881
v 6.980762 22.884186 -13.530792
v 6.967493 22.884272 -13.53945
v 6.967476 22.884445 -13.557007
v 7.130735 22.884163 -13.528233
v 6.980813 22.884823 -13.594616
v 6.980823 22.884506 -13.562948
v 6.980813 22.884823 -13.594616
v 7.077477 22.88514 -13.626639
v 6.980762 22.884186 -13.530792
v 7.130735 22.883596 -13.471514
v 7.112318 22.883062 -13.417868
v 6.980807 22.883368 -13.448588
v 6.980807 22.882944 -13.405748
v 6.980807 22.883368 -13.448588
v 7.077477 22.88262 -13.373109
v 7.155705 22.881586 -13.532426
vt 0.740669 0.62055802
vt 0.738206 0.62523198
vt 0.749794 0.62392002
vt 0.746628 0.632024
vt 0.75102 0.624366
vt 0.745642 0.63124102
vt 0.751373 0.615525
vt 0.751168 0.60677302
vt 0.749964 0.60716897
vt 0.752663 0.61553198
vt 0.746129 0.599586
vt 0.747169 0.59881502
vt 0.738219 0.605559
vt 0.741451 0.61541402
vt 0.740721 0.61023003
vt 0.740415 0.61033
vt 0.737962 0.60575402
vt 0.741135 0.615412
vt 0.740369 0.620458
vt 0.739514 0.62017298
vt 0.73956 0.61061603
vt 0.740251 0.61541098
vt 0.739975 0.61540902
vt 0.739295 0.610703
vt 0.739255 0.620086
vt 0.736142 0.615395
vt 0.735451 0.61872202
vt 0.733805 0.60899597
vt 0.735467 0.612042
vt 0.737023 0.60647
vt 0.737249 0.60629898
vt 0.73315 0.61540502
vt 0.732723 0.61304402
vt 0.731436 0.610965
vt 0.729506 0.609218
vt 0.731148 0.606654
vt 0.727161 0.608167
vt 0.733523 0.603105
vt 0.729024 0.601214
vt 0.724152 0.600613
vt 0.727955 0.60516298
vt 0.724548 0.60791302
vt 0.724386 0.604747
vt 0.727118 0.60833502
vt 0.724554 0.608083
vt 0.729412 0.609361
vt 0.726333 0.611449
vt 0.727069 0.61167002
vt 0.727118 0.60833502
vt 0.72556 0.61176902
vt 0.726333 0.611449
vt 0.724554 0.608083
vt 0.731305 0.61106998
vt 0.727069 0.61167002
vt 0.727616 0.612226
vt 0.729412 0.609361
vt 0.72631 0.614524
vt 0.727616 0.612226
vt 0.726191 0.61440003
vt 0.726023 0.614352
vt 0.726333 0.611449
vt 0.725103 0.61909997
vt 0.732994 0.61540502
vt 0.725665 0.616538
vt 0.731945 0.61206597
vt 0.731305 0.61106998
vt 0.727616 0.612226
vt 0.731945 0.61206597
vt 0.727616 0.612226
vt 0.732571 0.61310297
vt 0.732571 0.61310297
vt 0.731945 0.61206597
vt 0.7326 0.61767298
vt 0.732994 0.61540502
vt 0.725103 0.61909997
vt 0.732994 0.61540502
vt 0.732748 0.617729
vt 0.731497 0.619803
vt 0.731373 0.619699
vt 0.733784 0.621683
vt 0.737033 0.62429303
vt 0.731217 0.62396902
vt 0.737252 0.62446898
vt 0.733551 0.627644
vt 0.729026 0.62956798
vt 0.728955 0.62929398
vt 0.733405 0.62741
vt 0.728004 0.62544602
vt 0.737954 0.62502998
vt 0.734023 0.628402
vt 0.729248 0.63045
vt 0.724002 0.630966
vt 0.724091 0.62977397
vt 0.72407 0.630059
vt 0.719239 0.62884402
vt 0.71935 0.628583
vt 0.721055 0.62470502
vt 0.724433 0.625634
vt 0.715231 0.62597603
vt 0.715043 0.62618703
vt 0.718081 0.62281197
vt 0.724731 0.622567
vt 0.722292 0.62193298
vt 0.72236 0.621778
vt 0.720105 0.620521
vt 0.724745 0.62239802
vt 0.724745 0.62239802
vt 0.724316 0.619192
vt 0.72236 0.621778
vt 0.72328 0.618213
vt 0.720216 0.62039
vt 0.723689 0.61894
vt 0.725283 0.616511
vt 0.725172 0.61630398
vt 0.723689 0.61894
vt 0.72543 0.61659998
vt 0.724316 0.619192
vt 0.725103 0.61909997
vt 0.727261 0.62221497
vt 0.725265 0.61602598
vt 0.723218 0.616338
vt 0.725765 0.61464798
vt 0.725168 0.61584997
vt 0.72373 0.61579603
vt 0.72545 0.615488
vt 0.725562 0.61517203
vt 0.723504 0.614816
vt 0.725182 0.615627
vt 0.723875 0.61537403
vt 0.723218 0.616338
vt 0.72373 0.61579603
vt 0.723504 0.614816
vt 0.725588 0.61468798
vt 0.725527 0.61484402
vt 0.724301 0.61367
vt 0.724607 0.61341202
vt 0.719985 0.60970902
vt 0.723925 0.613765
vt 0.724607 0.61341202
vt 0.725866 0.61438698
vt 0.72456 0.61283302
vt 0.72456 0.61283302
vt 0.722109 0.608505
vt 0.722109 0.608505
vt 0.722053 0.60834903
vt 0.719985 0.60970902
vt 0.719876 0.609582
vt 0.718342 0.611517
vt 0.717664 0.61381698
vt 0.723504 0.614816
vt 0.718483 0.611596
vt 0.717505 0.61378902
vt 0.718483 0.611596
vt 0.715701 0.610044
vt 0.717514 0.61624902
vt 0.714613 0.61684102
vt 0.717664 0.61381698
vt 0.717676 0.61621797
vt 0.7184 0.618613
vt 0.717676 0.61621797
vt 0.718545 0.61852503
vt 0.723218 0.616338
vt 0.718545 0.61852503
vt 0.720216 0.62039
vt 0.720216 0.62039
vt 0.72328 0.618213
vt 0.718545 0.61852503
vt 0.710585 0.612683
vt 0.710617 0.617548
vt 0.714512 0.613343
vt 0.715856 0.620089
vt 0.712186 0.62216198
vt 0.711935 0.62230003
vt 0.714439 0.626859
vt 0.711126 0.622742
vt 0.709447 0.61774498
vt 0.714221 0.627101
vt 0.709126 0.61779898
vt 0.710837 0.6229
vt 0.707547 0.63455898
vt 0.699186 0.61955702
vt 0.702198 0.627716
vt 0.709405 0.61248899
vt 0.699204 0.610808
vt 0.709078 0.61243498
vt 0.697885 0.6106
vt 0.701063 0.628349
vt 0.697885 0.61979502
vt 0.706666 0.63554198
vt 0.714986 0.639076
vt 0.71449 0.640298
vt 0.723242 0.64091402
vt 0.718744 0.629991
vt 0.723978 0.631294
vt 0.723154 0.642168
vt 0.731916 0.64152497
vt 0.729329 0.630767
vt 0.731609 0.64026397
vt 0.734192 0.62867302
vt 0.740159 0.638054
vt 0.739459 0.63697702
vt 0.718872 0.62969398
vt 0.700758 0.60175103
vt 0.706734 0.594567
vt 0.707598 0.595578
vt 0.701956 0.602413
vt 0.714101 0.603083
vt 0.714541 0.58994597
vt 0.715027 0.59115398
vt 0.71873 0.60017598
vt 0.714323 0.60332602
vt 0.711121 0.607517
vt 0.718855 0.60048598
vt 0.719205 0.60135
vt 0.711918 0.60794598
vt 0.714939 0.60400403
vt 0.712164 0.60807902
vt 0.715131 0.60421503
vt 0.717974 0.607418
vt 0.710304 0.61263603
vt 0.719312 0.60162002
vt 0.720905 0.605541
vt 0.72414 0.60032701
vt 0.724098 0.599406
vt 0.729098 0.60094
vt 0.733678 0.60287
vt 0.734177 0.60211498
vt 0.729337 0.600047
vt 0.729421 0.59973598
vt 0.73436 0.60184002
vt 0.732017 0.58995402
vt 0.739865 0.5937
vt 0.732371 0.58866298
vt 0.740608 0.59262103
vt 0.723361 0.58915198
vt 0.72327 0.58786702
vt 0.724084 0.599077
vt 0.710339 0.61759502
vt 0.72556 0.61176902
vt 0.724554 0.608083
vt 0.722109 0.608505
vt 0.727261 0.62221497
vt 0.729656 0.62146002
vt 0.729569 0.62131602
vt 0.727297 0.62238002
vt 0.727261 0.62221497
vt 0.729569 0.62131602
vt 0.725103 0.61909997
vt 0.729569 0.62131602
vt 0.731373 0.619699
vt 0.731373 0.619699
vt 0.7326 0.61767298
vt 0.727118 0.60833502
vt 0.726333 0.611449
vt 0.727118 0.60833502
vt 0.724554 0.608083
vt 0.727616 0.612226
vt 0.731305 0.61106998
vt 0.729412 0.609361
vt 0.727069 0.61167002
vt 0.732571 0.61310297
vt 0.7326 0.61767298
vt 0.723689 0.61894
vt 0.720216 0.62039
vt 0.72236 0.621778
vt 0.723689 0.61894
vt 0.72328 0.618213
vt 0.725103 0.61909997
vt 0.724316 0.619192
vt 0.724745 0.62239802
vt 0.723925 0.613765
vt 0.72373 0.61579603
vt 0.723875 0.61537403
vt 0.723504 0.614816
vt 0.724607 0.61341202
vt 0.72456 0.61283302
vt 0.719985 0.60970902
vt 0.723925 0.613765
vt 0.724301 0.61367
vt 0.724607 0.61341202
vt 0.718483 0.611596
vt 0.72556 0.61176902
vt 0.72456 0.61283302
vt 0.72556 0.61176902
vt 0.722109 0.608505
vt 0.723925 0.613765
vt 0.717664 0.61381698
vt 0.717676 0.61621797
vt 0.723218 0.616338
vt 0.72328 0.618213
vt 0.723218 0.616338
vt 0.718545 0.61852503
vt 0.710835 0.607363
vn -0.8673 0.4978 0.005
vn -0.8203 0.4951 0.2865
vn -0.9954 0.0957 0.001
vn -0.9458 -0.0032 0.3247
vn -1 0.0001 -0
vn -0.9415 0.0925 0.3241
vn -0.9415 0.0989 -0.3222
vn -0.7891 0.0061 -0.6142
vn -0.7855 0.1018 -0.6104
vn -0.9458 0.0032 -0.3246
vn -0.5444 0.104 -0.8323
vn -0.547 0.0083 -0.8371
vn -0.4743 0.5047 -0.7213
vn -0.8202 0.5007 -0.2766
vn -0.6844 0.5033 -0.5276
vn -0.2892 0.9326 -0.2158
vn -0.2005 0.9333 -0.2979
vn -0.3465 0.9316 -0.1097
vn -0.3667 0.9303 0.0093
vn 0.3517 0.9361 0.0094
vn 0.2775 0.9339 0.2253
vn 0.3325 0.935 0.1235
vn 0.8712 0.3862 0.303
vn 0.727 0.3832 0.5697
vn 0.9213 0.3889 0.0039
vn 0.1557 0.9858 0.0633
vn 0.1645 0.9863 0.0098
vn 0.0897 0.985 0.1475
vn 0.1297 0.9853 0.1111
vn 0.5038 0.3812 0.7752
vn 0.1923 0.9331 0.3039
vn -0.847 0.4478 -0.2863
vn -0.7067 0.4503 -0.5457
vn -0.482 0.445 -0.7547
vn -0.2199 0.4535 -0.8637
vn 0.0407 0.9847 0.1695
vn 0.0739 0.4538 -0.8881
vn 0.2263 0.3798 0.8969
vn -0.0761 0.3796 0.922
vn -0.3701 0.3807 0.8474
vn -0.0137 0.9846 0.174
vn 0.3596 0.4532 -0.8156
vn -0.066 0.9849 0.1603
vn 0.055 0.7524 -0.6565
vn 0.2673 0.7521 -0.6024
vn -0.1634 0.7522 -0.6383
vn -0 1 0.0099
vn -0 1 0.0099
vn -0 1 0.0099
vn -0.0001 1 0.0099
vn -0.0001 1 0.0099
vn -0.0001 1 0.0099
vn -0.3396 0.7514 -0.5657
vn -0 1 0.01
vn -0 1 0.01
vn -0 1 0.01
vn 0.9238 -0.0038 0.3829
vn 0.9238 -0.0038 0.3829
vn 0.3824 -0.0092 0.9239
vn -0.3828 -0.0092 0.9238
vn -0.3828 -0.0092 0.9238
vn -0 1 0.01
vn -0 1 0.01
vn 0.924 0.0038 -0.3824
vn -0 0.9999 0.01
vn -0 0.9999 0.01
vn -0 0.9999 0.01
vn -0 1 0.0098
vn -0 1 0.0098
vn -0 1 0.0098
vn -0.5361 0.7386 -0.4087
vn -0.5903 -0.584 -0.5573
vn -0 1 0.0099
vn -0 1 0.0099
vn -0 1 0.0099
vn -0.63 0.748 -0.2087
vn -0.8956 0.4448 0.0045
vn -0.8471 0.442 0.2951
vn -0.6301 0.7436 0.2235
vn 0.1556 0.9869 -0.0436
vn 0.8714 0.3919 -0.2953
vn 0.1297 0.9873 -0.0914
vn 0.3326 0.9372 -0.1048
vn 0.2775 0.9382 -0.2067
vn 0.1922 0.939 -0.2852
vn 0.5039 0.3966 -0.7674
vn 0.7271 0.3944 -0.562
vn 0.0898 0.9877 -0.1278
vn -0.3467 0.9292 0.1282
vn -0.289 0.9282 0.2343
vn -0.2004 0.9273 0.3161
vn -0.09 0.9268 0.3647
vn 0.2262 0.398 -0.889
vn 0.0863 0.9395 -0.3314
vn -0.0291 0.9397 -0.3409
vn -0.0761 0.3981 -0.9142
vn -0.0136 0.9879 -0.1547
vn 0.0405 0.9879 -0.1497
vn -0.3701 0.3973 -0.8398
vn -0.1413 0.9393 -0.3128
vn -0.0659 0.9878 -0.1408
vn -0.2199 0.4365 0.8724
vn 0.0739 0.4362 0.8968
vn 0.0549 0.7395 0.6709
vn 0.3598 0.4371 0.8243
vn -0.1634 0.7398 0.6527
vn -0 1 0.0099
vn -0 1 0.0099
vn -0 1 0.0099
vn -0.0001 1 0.0099
vn -0.0001 1 0.0099
vn -0.0001 1 0.0099
vn -0.3827 0.0092 -0.9238
vn -0.9239 0.0037 -0.3827
vn -0.3827 0.0092 -0.9238
vn 0.3828 0.0092 -0.9238
vn 0.3828 0.0092 -0.9238
vn 0.924 0.0038 -0.3824
vn -0 1 0.0099
vn -0.369 -0.8831 0.2897
vn -0.8637 -0.005 0.5039
vn -0.7685 -0.3955 -0.503
vn -0.6849 -0.6133 0.3935
vn -0.8638 -0.005 0.5039
vn -0.4076 -0.8622 -0.3008
vn -0.4782 -0.8396 0.2577
vn -0.8262 0.0056 -0.5634
vn -0.6611 -0.5952 -0.4569
vn -0.8262 0.0056 -0.5634
vn -0 0.9999 0.0101
vn -0 0.9999 0.0101
vn -0 0.9999 0.0101
vn -0.6694 -0.5982 -0.4404
vn -0.6938 -0.6179 0.37
vn -0.8791 -0.0047 0.4766
vn -0.8389 0.0054 -0.5442
vn -0 1 0.01
vn -0 1 0.01
vn -0 1 0.01
vn -0.9238 -0.0038 0.3829
vn -0.8388 0.0054 -0.5445
vn -0 1 0.01
vn -0 1 0.01
vn 0.4511 0.7509 -0.4823
vn 0.6065 0.4516 -0.6543
vn 0.586 0.7487 -0.3099
vn 0.7876 0.449 -0.422
vn 0.8833 0.4466 -0.1429
vn -0 1 0.0099
vn -0 1 0.0099
vn -0 1 0.0099
vn 0.8833 0.4435 0.1517
vn 0.6567 0.7472 -0.1021
vn -0.1621 0.9861 0.037
vn 0.7875 0.4407 0.4308
vn -0.1443 0.9872 -0.0681
vn 0.657 0.7448 0.1168
vn 0.5856 0.7427 0.3248
vn 0.6065 0.4383 0.6633
vn -0 1 0.0099
vn -0 1 0.0099
vn -0 1 0.0099
vn 0.4512 0.7409 0.4975
vn 0.2676 0.7404 0.6167
vn -0 0.9999 0.0101
vn -0 0.9999 0.0101
vn -0 0.9999 0.0101
vn -0.9086 0.3906 -0.1478
vn -0.8102 0.3933 -0.4346
vn -0.1628 0.9865 -0.0173
vn -0.1117 0.9875 -0.1114
vn -0.624 0.3959 -0.6737
vn -0.2381 0.9387 -0.2492
vn 0.1473 0.927 0.3449
vn 0.2482 0.9278 0.2787
vn 0.3224 0.9286 0.1835
vn 0.3484 0.4899 0.7991
vn 0.7628 0.4938 0.4175
vn 0.5874 0.4917 0.6428
vn 0.3999 0.0867 0.9125
vn 0.8754 0.0911 0.4747
vn 0.6742 0.0884 0.7333
vn 0.3616 0.9297 0.0697
vn 0.9818 0.0941 0.1648
vn 0.8554 0.4964 0.1478
vn 0.9863 -0.0016 0.1647
vn 0.6773 -0.0074 0.7357
vn 0.8795 -0.0046 0.4759
vn 0.4017 -0.0091 0.9157
vn 0.0822 0.0858 0.9929
vn 0.0825 -0.01 0.9965
vn -0.2443 0.0861 0.9659
vn 0.0717 0.4894 0.8691
vn -0.2129 0.4894 0.8457
vn -0.2454 -0.0097 0.9694
vn -0.5469 -0.0083 0.8372
vn -0.4742 0.4906 0.731
vn -0.5444 0.0874 0.8343
vn -0.6842 0.4928 0.5376
vn -0.7891 -0.0062 0.6142
vn -0.7855 0.0896 0.6123
vn 0.0303 0.9267 0.3745
vn 0.9864 0.0017 -0.1646
vn 0.8795 0.0048 -0.4759
vn 0.8754 0.1005 -0.4728
vn 0.9818 0.0974 -0.1629
vn 0.7628 0.5019 -0.4077
vn 0.6773 0.0071 -0.7357
vn 0.6742 0.1029 -0.7313
vn 0.5874 0.5043 -0.633
vn 0.3225 0.9321 -0.1651
vn 0.3613 0.9311 -0.051
vn 0.2482 0.9331 -0.2603
vn -0.2382 0.9335 0.268
vn -0.3467 0.9356 0.067
vn -0.3093 0.9344 0.1767
vn -0.9087 0.3875 0.1553
vn -0.8103 0.3845 0.4422
vn -0.1447 0.9856 0.088
vn -0.3467 0.9367 -0.0486
vn -0.624 0.3821 0.6816
vn -0.1115 0.9851 0.1308
vn -0.1412 0.933 0.3311
vn 0.1473 0.9337 -0.3265
vn -0.0291 0.9325 0.3599
vn 0.0864 0.9328 0.35
vn -0.09 0.9339 -0.3461
vn 0.0302 0.9342 -0.3555
vn 0.0716 0.5068 -0.8591
vn -0.2129 0.5064 -0.8356
vn 0.0822 0.1056 -0.991
vn -0.2444 0.1053 -0.964
vn 0.0826 0.0099 -0.9965
vn -0.2455 0.0095 -0.9693
vn 0.3998 0.1048 -0.9106
vn 0.4017 0.0091 -0.9157
vn 0.3484 0.5057 -0.7892
vn -0.3093 0.9377 -0.158
vn -0 1 0.0099
vn -0 1 0.0099
vn -0 1 0.0099
vn -0.3641 0.7404 0.565
vn -0.7067 0.4391 0.5548
vn -0.5257 0.7413 0.4173
vn -0.4898 0.4376 0.7541
vn -0 0.9999 0.01
vn -0 0.9999 0.01
vn -0 0.9999 0.01
vn -0 1 0.0099
vn -0 1 0.0099
vn -0 1 0.01
vn -0 1 0.01
vn -0 1 0.01
vn -0 0.9999 0.01
vn -0 0.9999 0.01
vn -0 0.9999 0.01
vn -0 1 0.0099
vn -0 1 0.0099
vn -0 1 0.0099
vn 0.3825 -0.0092 0.9239
vn -0 1 0.0099
vn -0.6663 0.7456 0.0075
vn -0 1 0.0099
vn -0 1 0.01
vn -0 1 0.01
vn -0 1 0.01
vn -0.9239 0.0038 -0.3827
vn 0.0001 0.9999 0.0101
vn 0.0001 0.9999 0.0101
vn 0.0001 0.9999 0.0101
vn -0.8793 -0.0047 0.4762
vn 0.0001 0.9999 0.0101
vn 0.0001 0.9999 0.0101
vn 0.0001 0.9999 0.0101
vn -0 1 0.0097
vn -0 1 0.0097
vn -0 1 0.0097
vn -0 0.9999 0.01
vn -0 0.9999 0.01
vn -0 0.9999 0.01
vn -0 1 0.01
vn -0.9238 -0.0038 0.3828
vn -0 0.9999 0.0101
vn -0 0.9999 0.0101
vn -0 0.9999 0.0101
vn -0 1 0.0099
vn -0 0.9999 0.01
vn -0 0.9999 0.01
vn -0 0.9999 0.01
vn -0 1 0.0098
vn -0 1 0.0098
vn -0 1 0.0098
vn 0.8553 0.4996 -0.1377
f 49/49/49 48/48/48 47/47/47
f 3/3/3 2/2/2 1/1/1
f 1/1/1 7/7/7 3/3/3
f 3/3/3 6/6/6 2/2/2
f 7/7/7 5/5/5 3/3/3
f 6/6/6 3/3/3 5/5/5
f 6/6/6 5/5/5 4/4/4
f 7/7/7 10/10/10 5/5/5
f 200/200/200 6/6/6 4/4/4
f 10/10/10 7/7/7 9/9/9
f 10/10/10 9/9/9 8/8/8
f 12/12/12 8/8/8 9/9/9
f 200/200/200 201/201/201 6/6/6
f 196/196/196 201/201/201 200/200/200
f 12/12/12 9/9/9 11/11/11
f 234/234/234 12/12/12 11/11/11
f 6/6/6 201/201/201 199/199/199
f 6/6/6 199/199/199 2/2/2
f 196/196/196 198/198/198 201/201/201
f 199/199/199 201/201/201 198/198/198
f 234/234/234 11/11/11 232/232/232
f 233/233/233 234/234/234 232/232/232
f 192/192/192 198/198/198 196/196/196
f 192/192/192 196/196/196 195/195/195
f 192/192/192 195/195/195 191/191/191
f 233/233/233 232/232/232 231/231/231
f 236/236/236 233/233/233 231/231/231
f 192/192/192 191/191/191 190/190/190
f 190/190/190 191/191/191 189/189/189
f 198/198/198 192/192/192 194/194/194
f 194/194/194 192/192/192 190/190/190
f 199/199/199 198/198/198 197/197/197
f 198/198/198 194/194/194 197/197/197
f 190/190/190 189/189/189 180/180/180
f 91/91/91 199/199/199 197/197/197
f 182/182/182 180/180/180 189/189/189
f 182/182/182 189/189/189 187/187/187
f 188/188/188 182/182/182 187/187/187
f 190/190/190 180/180/180 177/177/177
f 188/188/188 181/181/181 182/182/182
f 181/181/181 188/188/188 186/186/186
f 180/180/180 182/182/182 179/179/179
f 180/180/180 179/179/179 177/177/177
f 181/181/181 186/186/186 184/184/184
f 203/203/203 184/184/184 186/186/186
f 178/178/178 182/182/182 181/181/181
f 178/178/178 179/179/179 182/182/182
f 185/185/185 181/181/181 184/184/184
f 185/185/185 178/178/178 181/181/181
f 203/203/203 206/206/206 184/184/184
f 206/206/206 185/185/185 184/184/184
f 205/205/205 206/206/206 203/203/203
f 205/205/205 203/203/203 204/204/204
f 206/206/206 293/293/293 185/185/185
f 209/209/209 205/205/205 204/204/204
f 209/209/209 204/204/204 208/208/208
f 207/207/207 206/206/206 205/205/205
f 207/207/207 293/293/293 206/206/206
f 208/208/208 235/235/235 209/209/209
f 208/208/208 236/236/236 235/235/235
f 236/236/236 231/231/231 235/235/235
f 210/210/210 205/205/205 209/209/209
f 210/210/210 209/209/209 235/235/235
f 210/210/210 207/207/207 205/205/205
f 231/231/231 237/237/237 235/235/235
f 210/210/210 235/235/235 237/237/237
f 212/212/212 293/293/293 207/207/207
f 185/185/185 293/293/293 212/212/212
f 211/211/211 207/207/207 210/210/210
f 212/212/212 207/207/207 211/211/211
f 237/237/237 213/213/213 210/210/210
f 211/211/211 210/210/210 213/213/213
f 185/185/185 212/212/212 183/183/183
f 178/178/178 185/185/185 183/183/183
f 212/212/212 211/211/211 216/216/216
f 178/178/178 183/183/183 176/176/176
f 176/176/176 179/179/179 178/178/178
f 215/215/215 183/183/183 212/212/212
f 212/212/212 216/216/216 215/215/215
f 176/176/176 175/175/175 179/179/179
f 177/177/177 179/179/179 175/175/175
f 183/183/183 238/238/238 176/176/176
f 176/176/176 173/173/173 175/175/175
f 176/176/176 238/238/238 173/173/173
f 183/183/183 220/220/220 238/238/238
f 215/215/215 220/220/220 183/183/183
f 173/173/173 238/238/238 169/169/169
f 169/169/169 238/238/238 220/220/220
f 168/168/168 220/220/220 215/215/215
f 169/169/169 220/220/220 168/168/168
f 168/168/168 215/215/215 217/217/217
f 170/170/170 169/169/169 168/168/168
f 170/170/170 168/168/168 217/217/217
f 215/215/215 218/218/218 217/217/217
f 215/215/215 216/216/216 218/218/218
f 170/170/170 217/217/217 154/154/154
f 154/154/154 217/217/217 218/218/218
f 214/214/214 216/216/216 211/211/211
f 214/214/214 211/211/211 213/213/213
f 216/216/216 221/221/221 218/218/218
f 216/216/216 214/214/214 221/221/221
f 154/154/154 218/218/218 219/219/219
f 223/223/223 214/214/214 213/213/213
f 218/218/218 222/222/222 219/219/219
f 218/218/218 221/221/221 222/222/222
f 154/154/154 219/219/219 147/147/147
f 222/222/222 147/147/147 219/219/219
f 40/40/40 221/221/221 214/214/214
f 40/40/40 214/214/214 223/223/223
f 43/43/43 222/222/222 221/221/221
f 43/43/43 221/221/221 40/40/40
f 223/223/223 213/213/213 224/224/224
f 237/237/237 224/224/224 213/213/213
f 40/40/40 223/223/223 225/225/225
f 224/224/224 225/225/225 223/223/223
f 224/224/224 237/237/237 229/229/229
f 231/231/231 229/229/229 237/237/237
f 224/224/224 228/228/228 225/225/225
f 224/224/224 229/229/229 228/228/228
f 231/231/231 230/230/230 229/229/229
f 231/231/231 232/232/232 230/230/230
f 230/230/230 232/232/232 11/11/11
f 229/229/229 227/227/227 228/228/228
f 229/229/229 230/230/230 227/227/227
f 225/225/225 228/228/228 227/227/227
f 230/230/230 11/11/11 13/13/13
f 227/227/227 230/230/230 13/13/13
f 9/9/9 13/13/13 11/11/11
f 9/9/9 15/15/15 13/13/13
f 15/15/15 9/9/9 7/7/7
f 227/227/227 13/13/13 17/17/17
f 17/17/17 13/13/13 15/15/15
f 15/15/15 7/7/7 14/14/14
f 1/1/1 14/14/14 7/7/7
f 17/17/17 15/15/15 16/16/16
f 16/16/16 15/15/15 14/14/14
f 31/31/31 227/227/227 17/17/17
f 14/14/14 1/1/1 19/19/19
f 17/17/17 21/21/21 31/31/31
f 17/17/17 16/16/16 21/21/21
f 31/31/31 226/226/226 227/227/227
f 225/225/225 227/227/227 226/226/226
f 16/16/16 14/14/14 18/18/18
f 14/14/14 19/19/19 18/18/18
f 16/16/16 18/18/18 22/22/22
f 16/16/16 22/22/22 21/21/21
f 20/20/20 18/18/18 19/19/19
f 20/20/20 22/22/22 18/18/18
f 89/89/89 19/19/19 1/1/1
f 89/89/89 20/20/20 19/19/19
f 89/89/89 1/1/1 2/2/2
f 24/24/24 21/21/21 22/22/22
f 90/90/90 89/89/89 2/2/2
f 90/90/90 2/2/2 199/199/199
f 91/91/91 90/90/90 199/199/199
f 90/90/90 83/83/83 89/89/89
f 89/89/89 83/83/83 20/20/20
f 91/91/91 84/84/84 90/90/90
f 90/90/90 84/84/84 83/83/83
f 23/23/23 22/22/22 20/20/20
f 24/24/24 22/22/22 23/23/23
f 20/20/20 83/83/83 81/81/81
f 84/84/84 81/81/81 83/83/83
f 23/23/23 20/20/20 25/25/25
f 20/20/20 81/81/81 25/25/25
f 26/26/26 23/23/23 25/25/25
f 26/26/26 24/24/24 23/23/23
f 81/81/81 27/27/27 25/25/25
f 26/26/26 25/25/25 27/27/27
f 21/21/21 24/24/24 30/30/30
f 21/21/21 30/30/30 31/31/31
f 226/226/226 31/31/31 30/30/30
f 26/26/26 29/29/29 24/24/24
f 30/30/30 24/24/24 29/29/29
f 226/226/226 30/30/30 38/38/38
f 39/39/39 226/226/226 38/38/38
f 39/39/39 225/225/225 226/226/226
f 40/40/40 225/225/225 39/39/39
f 36/36/36 38/38/38 30/30/30
f 36/36/36 39/39/39 38/38/38
f 41/41/41 40/40/40 39/39/39
f 36/36/36 41/41/41 39/39/39
f 41/41/41 43/43/43 40/40/40
f 36/36/36 30/30/30 28/28/28
f 30/30/30 29/29/29 28/28/28
f 37/37/37 41/41/41 36/36/36
f 43/43/43 41/41/41 37/37/37
f 35/35/35 36/36/36 28/28/28
f 37/37/37 36/36/36 35/35/35
f 29/29/29 34/34/34 28/28/28
f 35/35/35 28/28/28 34/34/34
f 33/33/33 29/29/29 26/26/26
f 29/29/29 33/33/33 34/34/34
f 46/46/46 37/37/37 35/35/35
f 53/53/53 46/46/46 35/35/35
f 53/53/53 35/35/35 34/34/34
f 46/46/46 44/44/44 37/37/37
f 72/72/72 53/53/53 34/34/34
f 45/45/45 37/37/37 44/44/44
f 72/72/72 34/34/34 71/71/71
f 34/34/34 33/33/33 71/71/71
f 45/45/45 42/42/42 37/37/37
f 43/43/43 37/37/37 42/42/42
f 32/32/32 71/71/71 33/33/33
f 33/33/33 26/26/26 32/32/32
f 32/32/32 76/76/76 71/71/71
f 43/43/43 42/42/42 145/145/145
f 145/145/145 42/42/42 45/45/45
f 43/43/43 145/145/145 222/222/222
f 145/145/145 45/45/45 144/144/144
f 222/222/222 145/145/145 147/147/147
f 146/146/146 145/145/145 144/144/144
f 146/146/146 147/147/147 145/145/145
f 77/77/77 76/76/76 32/32/32
f 26/26/26 77/77/77 32/32/32
f 77/77/77 262/262/262 76/76/76
f 26/26/26 27/27/27 77/77/77
f 79/79/79 262/262/262 77/77/77
f 146/146/146 148/148/148 147/147/147
f 154/154/154 147/147/147 148/148/148
f 146/146/146 153/153/153 148/148/148
f 79/79/79 77/77/77 78/78/78
f 78/78/78 77/77/77 27/27/27
f 244/244/244 79/79/79 78/78/78
f 153/153/153 152/152/152 148/148/148
f 152/152/152 154/154/154 148/148/148
f 153/153/153 157/157/157 152/152/152
f 152/152/152 170/170/170 154/154/154
f 158/158/158 152/152/152 157/157/157
f 78/78/78 27/27/27 80/80/80
f 81/81/81 80/80/80 27/27/27
f 156/156/156 170/170/170 152/152/152
f 170/170/170 156/156/156 169/169/169
f 158/158/158 155/155/155 152/152/152
f 156/156/156 152/152/152 155/155/155
f 158/158/158 159/159/159 155/155/155
f 159/159/159 156/156/156 155/155/155
f 158/158/158 163/163/163 159/159/159
f 164/164/164 159/159/159 163/163/163
f 171/171/171 169/169/169 156/156/156
f 159/159/159 171/171/171 156/156/156
f 164/164/164 105/105/105 159/159/159
f 105/105/105 171/171/171 159/159/159
f 105/105/105 164/164/164 104/104/104
f 171/171/171 172/172/172 169/169/169
f 173/173/173 169/169/169 172/172/172
f 105/105/105 104/104/104 103/103/103
f 106/106/106 103/103/103 104/104/104
f 105/105/105 101/101/101 171/171/171
f 101/101/101 105/105/105 103/103/103
f 171/171/171 99/99/99 172/172/172
f 171/171/171 101/101/101 99/99/99
f 100/100/100 173/173/173 172/172/172
f 100/100/100 172/172/172 99/99/99
f 175/175/175 173/173/173 100/100/100
f 97/97/97 99/99/99 101/101/101
f 101/101/101 103/103/103 97/97/97
f 96/96/96 100/100/100 99/99/99
f 97/97/97 96/96/96 99/99/99
f 175/175/175 100/100/100 174/174/174
f 177/177/177 175/175/175 174/174/174
f 96/96/96 95/95/95 100/100/100
f 95/95/95 174/174/174 100/100/100
f 174/174/174 193/193/193 177/177/177
f 190/190/190 177/177/177 193/193/193
f 194/194/194 190/190/190 193/193/193
f 174/174/174 202/202/202 193/193/193
f 202/202/202 194/194/194 193/193/193
f 95/95/95 202/202/202 174/174/174
f 202/202/202 92/92/92 194/194/194
f 92/92/92 202/202/202 95/95/95
f 197/197/197 194/194/194 92/92/92
f 197/197/197 92/92/92 91/91/91
f 94/94/94 95/95/95 96/96/96
f 92/92/92 95/95/95 94/94/94
f 92/92/92 85/85/85 91/91/91
f 92/92/92 94/94/94 85/85/85
f 91/91/91 85/85/85 84/84/84
f 94/94/94 96/96/96 93/93/93
f 85/85/85 94/94/94 93/93/93
f 97/97/97 93/93/93 96/96/96
f 86/86/86 84/84/84 85/85/85
f 85/85/85 93/93/93 86/86/86
f 97/97/97 98/98/98 93/93/93
f 86/86/86 93/93/93 98/98/98
f 98/98/98 97/97/97 103/103/103
f 86/86/86 87/87/87 84/84/84
f 84/84/84 87/87/87 81/81/81
f 98/98/98 103/103/103 102/102/102
f 106/106/106 102/102/102 103/103/103
f 242/242/242 102/102/102 106/106/106
f 86/86/86 98/98/98 88/88/88
f 102/102/102 88/88/88 98/98/98
f 88/88/88 87/87/87 86/86/86
f 242/242/242 245/245/245 102/102/102
f 102/102/102 245/245/245 88/88/88
f 245/245/245 242/242/242 244/244/244
f 81/81/81 87/87/87 82/82/82
f 88/88/88 82/82/82 87/87/87
f 81/81/81 82/82/82 80/80/80
f 82/82/82 78/78/78 80/80/80
f 243/243/243 88/88/88 245/245/245
f 243/243/243 82/82/82 88/88/88
f 245/245/245 244/244/244 243/243/243
f 82/82/82 243/243/243 78/78/78
f 244/244/244 78/78/78 243/243/243
f 52/52/52 51/51/51 50/50/50
f 56/56/56 55/55/55 54/54/54
f 253/253/253 56/56/56 54/54/54
f 55/55/55 63/63/63 62/62/62
f 62/62/62 252/252/252 251/251/251
f 59/59/59 58/58/58 57/57/57
f 58/58/58 64/64/64 57/57/57
f 59/59/59 260/260/260 58/58/58
f 58/58/58 118/118/118 64/64/64
f 61/61/61 260/260/260 59/59/59
f 117/117/117 64/64/64 118/118/118
f 61/61/61 59/59/59 60/60/60
f 117/117/117 116/116/116 64/64/64
f 140/140/140 61/61/61 60/60/60
f 117/117/117 113/113/113 116/116/116
f 140/140/140 282/282/282 61/61/61
f 117/117/117 115/115/115 113/113/113
f 141/141/141 282/282/282 140/140/140
f 115/115/115 114/114/114 113/113/113
f 141/141/141 140/140/140 122/122/122
f 115/115/115 267/267/267 114/114/114
f 136/136/136 141/141/141 122/122/122
f 114/114/114 267/267/267 121/121/121
f 136/136/136 122/122/122 133/133/133
f 135/135/135 136/136/136 133/133/133
f 114/114/114 121/121/121 120/120/120
f 122/122/122 114/114/114 120/120/120
f 120/120/120 121/121/121 124/124/124
f 135/135/135 133/133/133 134/134/134
f 122/122/122 134/134/134 133/133/133
f 126/126/126 135/135/135 134/134/134
f 122/122/122 126/126/126 134/134/134
f 126/126/126 271/271/271 135/135/135
f 127/127/127 271/271/271 126/126/126
f 122/122/122 125/125/125 126/126/126
f 127/127/127 126/126/126 125/125/125
f 122/122/122 120/120/120 125/125/125
f 129/129/129 127/127/127 125/125/125
f 120/120/120 124/124/124 123/123/123
f 123/123/123 125/125/125 120/120/120
f 123/123/123 124/124/124 129/129/129
f 129/129/129 125/125/125 128/128/128
f 123/123/123 128/128/128 125/125/125
f 123/123/123 129/129/129 128/128/128
f 67/67/67 66/66/66 65/65/65
f 70/70/70 69/69/69 68/68/68
f 75/75/75 74/74/74 73/73/73
f 257/257/257 261/261/261 74/74/74
f 259/259/259 258/258/258 257/257/257
f 75/75/75 250/250/250 249/249/249
f 107/107/107 75/75/75 119/119/119
f 109/109/109 108/108/108 107/107/107
f 109/109/109 263/263/263 108/108/108
f 112/112/112 111/111/111 110/110/110
f 132/132/132 131/131/131 130/130/130
f 139/139/139 138/138/138 137/137/137
f 138/138/138 281/281/281 137/137/137
f 143/143/143 142/142/142 137/137/137
f 151/151/151 150/150/150 149/149/149
f 151/151/151 286/286/286 150/150/150
f 162/162/162 149/149/149 150/150/150
f 162/162/162 161/161/161 160/160/160
f 167/167/167 166/166/166 165/165/165
f 241/241/241 240/240/240 239/239/239
f 248/248/248 247/247/247 246/246/246
f 256/256/256 255/255/255 254/254/254
f 266/266/266 265/265/265 264/264/264
f 270/270/270 269/269/269 268/268/268
f 274/274/274 273/273/273 272/272/272
f 277/277/277 276/276/276 275/275/275
f 280/280/280 279/279/279 278/278/278
f 285/285/285 284/284/284 283/283/283
f 289/289/289 288/288/288 287/287/287
f 292/292/292 291/291/291 290/290/290
