# VPXTOOL table OBJ file
# VPXTOOL OBJ file
# numVerts: 211 numFaces: 430
o GottliebEMSlingArm
v -0.097569 0.007439 -0.776173
v -0.097569 0.007439 -0.411504
v -0.09004 0.004945 -0.411504
v -0.09004 0.028359 -0.411504
v -0.083807 0.00288 -0.792313
v -0.076252 0.033804 -0.791337
v -0.087621 0.004144 -0.79118
v -0.077981 0.034377 -0.790754
v -0.089402 0.004733 -0.790256
v -0.081201 0.035443 -0.789048
v -0.091062 0.005283 -0.789109
v -0.082549 0.035889 -0.787739
v -0.092576 0.005785 -0.787758
v -0.093971 0.006247 -0.786159
v -0.083631 0.036247 -0.786407
v -0.095163 0.006642 -0.784388
v -0.084564 0.036555 -0.784954
v -0.096132 0.006963 -0.782472
v -0.085336 0.036811 -0.7834
v -0.096863 0.007205 -0.780442
v -0.085937 0.037009 -0.781764
v -0.097345 0.007365 -0.778332
v -0.086598 0.037226 -0.778332
v -0.088068 0.033838 -0.411504
v -0.09004 0.033838 -0.411504
v -0.08682 0.037306 -0.411504
v -0.076354 0.033838 -0.411504
v 0.088194 0.033591 -0.411451
v 0.075293 0.033838 -0.411504
v 0.086854 0.037306 -0.411504
v 0.078505 0.034802 -0.791429
v 0.085828 0.003915 -0.791939
v 0.080091 0.035278 -0.790613
v 0.087795 0.004504 -0.791242
v 0.089659 0.005062 -0.790283
v 0.081562 0.035719 -0.789586
v 0.091387 0.005579 -0.789077
v 0.082892 0.036118 -0.788369
v 0.092949 0.006046 -0.787647
v 0.094319 0.006457 -0.786017
v 0.095474 0.006802 -0.784213
v 0.085042 0.036763 -0.785444
v 0.084059 0.036468 -0.78698
v -0.081831 0.002225 -0.792504
v -0.081831 0.002225 -0.411504
v -0.08132 0.002088 -0.411504
v -0.049528 -0.005428 -0.411504
v -0.033092 -0.007836 -0.411504
v -0.049528 -0.005428 -0.792504
v -0.033092 -0.007836 -0.792504
v -0.059776 0.029163 -0.411504
v -0.072794 0.032659 -0.411504
v -0.059776 0.029163 -0.792504
v -0.072794 0.032659 -0.792504
v -0.065796 -0.00207 -0.792504
v -0.058507 0.028831 -0.792504
v -0.058507 0.028831 -0.411504
v -0.044014 0.025839 -0.792504
v -0.044014 0.025839 -0.411504
v -0.029373 0.023694 -0.792504
v -0.029373 0.023694 -0.411504
v -0.014638 0.022404 -0.792504
v -0.014638 0.022404 -0.411504
v -0.028067 0.023572 -0.792504
v -0.028067 0.023572 -0.411504
v -0.065796 -0.00207 -0.411504
v -0.016555 -0.009285 -0.411504
v -0.004179 0.0221 -0.792504
v -0.016555 -0.009285 -0.792504
v 0.000017 -0.009768 -0.792504
v 0.033126 -0.007836 -0.792504
v 0.033126 -0.007836 -0.411504
v 0.065829 -0.00207 -0.411504
v 0.001492 0.002088 -0.411504
v 0.079723 0.002088 -0.411504
v -0.001544 0.002088 -0.411504
v 0.000016 0.002088 -0.411504
v 0.000017 -0.009768 -0.411504
v 0.028096 0.023601 -0.792504
v 0.028096 0.023601 -0.411504
v 0.003991 0.022165 -0.411504
v 0.003991 0.022165 -0.792504
v 0.000014 0.021967 -0.411504
v 0.000014 0.021967 -0.792504
v -0.004179 0.0221 -0.411504
v 0.090074 0.002088 -0.411504
v 0.090074 0.005186 -0.411504
v 0.090074 0.028359 -0.411504
v 0.097602 0.007439 -0.411504
v 0.097602 0.007439 -0.775922
v 0.096538 0.007121 -0.780068
v 0.065829 -0.00207 -0.792504
v 0.081716 0.002685 -0.792504
v 0.075094 0.033779 -0.792383
v 0.073329 0.033249 -0.792504
v 0.076829 0.034299 -0.792023
v 0.059804 0.029192 -0.792504
v 0.05854 0.028831 -0.792504
v 0.029406 0.023694 -0.792504
v 0.029406 0.023694 -0.411504
v 0.05854 0.028831 -0.411504
v 0.059804 0.029192 -0.411504
v 0.086854 0.037306 -0.778384
v 0.085948 0.037035 -0.781914
v 0.083789 0.003305 -0.792363
v -0.09004 0.002088 -0.411504
v -0.09649 0.009414 -0.400921
v 0.090074 0.033838 -0.411504
v 0.096524 0.0028 -0.400921
v -0.092346 -0.022065 -0.400921
v -0.096096 -0.003211 -0.390338
v 0.09238 0.034279 -0.400921
v 0.09613 0.015425 -0.390338
v -0.087879 -0.03388 -0.390338
v -0.094058 -0.015677 -0.379754
v 0.087912 0.046094 -0.390338
v 0.094091 0.027891 -0.379754
v -0.081908 -0.04501 -0.379754
v -0.09041 -0.02777 -0.369171
v 0.081941 0.057224 -0.379754
v 0.090443 0.039984 -0.369171
v -0.074535 -0.055266 -0.369171
v -0.085214 -0.039283 -0.358588
v 0.074568 0.06748 -0.369171
v 0.085248 0.051497 -0.358588
v -0.065886 -0.064472 -0.358588
v -0.07856 -0.05002 -0.348004
v 0.06592 0.076686 -0.358588
v 0.078594 0.062234 -0.348004
v -0.05611 -0.07247 -0.348004
v -0.070562 -0.059796 -0.337421
v 0.056143 0.084684 -0.348004
v 0.070596 0.07201 -0.337421
v -0.045373 -0.079124 -0.337421
v -0.061356 -0.068444 -0.326838
v 0.045407 0.091338 -0.337421
v 0.06139 0.080658 -0.326838
v -0.03386 -0.084319 -0.326838
v -0.0511 -0.075817 -0.316254
v 0.033894 0.096533 -0.326838
v 0.051134 0.088031 -0.316254
v -0.021767 -0.087968 -0.316254
v -0.03997 -0.081789 -0.305671
v 0.021801 0.100182 -0.316254
v 0.009335 0.10222 -0.305671
v 0.040003 0.094003 -0.305671
v 0.028189 0.09847 -0.295088
v -0.009302 -0.090006 -0.305671
v 0.003323 -0.0904 -0.295088
v 0.015892 0.101357 -0.284504
v -0.028155 -0.086256 -0.295088
v -0.015858 0.101357 0.096496
v -0.015858 0.101357 -0.284504
v -0.015858 0.008728 -0.030396
v -0.015858 0.006107 -0.284504
v 0.015892 0.006107 -0.284504
v 0.015892 0.008728 -0.030396
v -0.015858 0.016829 -0.028639
v -0.015858 0.024198 -0.024846
v 0.015892 0.030335 -0.019275
v 0.015892 0.024198 -0.024846
v -0.015858 0.030335 -0.019275
v 0.015892 0.03482 -0.012305
v -0.015858 0.03482 -0.012305
v 0.015892 0.037349 -0.004412
v -0.015858 0.037349 -0.004412
v 0.015892 0.037749 0.003867
v 0.015892 0.016829 -0.028639
v -0.015858 0.037749 0.003867
v -0.015858 0.035992 0.011967
v 0.015892 0.035992 0.011967
v -0.015858 -0.004614 0.031131
v -0.015858 -0.011984 0.027337
v 0.015892 -0.004614 0.031131
v 0.015892 0.003486 0.032887
v -0.015858 0.003486 0.032887
v 0.015892 0.006107 0.032761
v -0.015858 0.006107 0.032761
v 0.015892 0.011764 0.032488
v -0.015858 0.011764 0.032488
v 0.015892 0.019658 0.029959
v -0.015858 0.019658 0.029959
v 0.015892 0.026627 0.025473
v -0.015858 0.026627 0.025473
v -0.015858 0.032199 0.019337
v 0.015892 0.032199 0.019337
v 0.015892 0.101357 0.096496
v 0.015892 -0.089143 0.096496
v 0.015892 -0.011984 0.027337
v 0.015892 -0.089143 -0.284504
v -0.015858 -0.089143 -0.284504
v -0.015858 -0.089143 0.096496
v -0.015858 -0.025535 -0.001376
v -0.015858 -0.019985 -0.016845
v 0.015892 -0.014413 -0.022982
v 0.015892 -0.019985 -0.016845
v -0.015858 -0.023778 -0.009476
v 0.015892 -0.023778 -0.009476
v -0.015858 -0.007444 -0.027467
v -0.015858 -0.014413 -0.022982
v 0.015892 -0.007444 -0.027467
v -0.015858 0.00045 -0.029996
v 0.015892 0.00045 -0.029996
v 0.015892 -0.025535 -0.001376
v 0.015892 -0.018121 0.021766
v -0.015858 -0.018121 0.021766
v 0.015892 -0.022606 0.014796
v -0.015858 -0.022606 0.014796
v 0.015892 -0.025135 0.006903
v -0.015858 -0.025135 0.006903
v -0.00329 0.102614 -0.295088
vt 0 0
vt 0 0
vt 0 0
vt 0 0
vt 0 0
vt 0 0
vt 0 0
vt 0 0
vt 0 0
vt 0 0
vt 0 0
vt 0 0
vt 0 0
vt 0 0
vt 0 0
vt 0 0
vt 0 0
vt 0 0
vt 0 0
vt 0 0
vt 0 0
vt 0 0
vt 0 0
vt 0 0
vt 0 0
vt 0 0
vt 0 0
vt 0 0
vt 0 0
vt 0 0
vt 0 0
vt 0 0
vt 0 0
vt 0 0
vt 0 0
vt 0 0
vt 0 0
vt 0 0
vt 0 0
vt 0 0
vt 0 0
vt 0 0
vt 0 0
vt 0 0
vt 0 0
vt 0 0
vt 0 0
vt 0 0
vt 0 0
vt 0 0
vt 0 0
vt 0 0
vt 0 0
vt 0 0
vt 0 0
vt 0 0
vt 0 0
vt 0 0
vt 0 0
vt 0 0
vt 0 0
vt 0 0
vt 0 0
vt 0 0
vt 0 0
vt 0 0
vt 0 0
vt 0 0
vt 0 0
vt 0 0
vt 0 0
vt 0 0
vt 0 0
vt 0 0
vt 0 0
vt 0 0
vt 0 0
vt 0 0
vt 0 0
vt 0 0
vt 0 0
vt 0 0
vt 0 0
vt 0 0
vt 0 0
vt 0 0
vt 0 0
vt 0 0
vt 0 0
vt 0 0
vt 0 0
vt 0 0
vt 0 0
vt 0 0
vt 0 0
vt 0 0
vt 0 0
vt 0 0
vt 0 0
vt 0 0
vt 0 0
vt 0 0
vt 0 0
vt 0 0
vt 0 0
vt 0 0
vt 0 0
vt 0 0
vt 0 0
vt 0 0
vt 0 0
vt 0 0
vt 0 0
vt 0 0
vt 0 0
vt 0 0
vt 0 0
vt 0 0
vt 0 0
vt 0 0
vt 0 0
vt 0 0
vt 0 0
vt 0 0
vt 0 0
vt 0 0
vt 0 0
vt 0 0
vt 0 0
vt 0 0
vt 0 0
vt 0 0
vt 0 0
vt 0 0
vt 0 0
vt 0 0
vt 0 0
vt 0 0
vt 0 0
vt 0 0
vt 0 0
vt 0 0
vt 0 0
vt 0 0
vt 0 0
vt 0 0
vt 0 0
vt 0 0
vt 0 0
vt 0 0
vt 0 0
vt 0 0
vt 0 0
vt 0 0
vt 0 0
vt 0 0
vt 0 0
vt 0 0
vt 0 0
vt 0 0
vt 0 0
vt 0 0
vt 0 0
vt 0 0
vt 0 0
vt 0 0
vt 0 0
vt 0 0
vt 0 0
vt 0 0
vt 0 0
vt 0 0
vt 0 0
vt 0 0
vt 0 0
vt 0 0
vt 0 0
vt 0 0
vt 0 0
vt 0 0
vt 0 0
vt 0 0
vt 0 0
vt 0 0
vt 0 0
vt 0 0
vt 0 0
vt 0 0
vt 0 0
vt 0 0
vt 0 0
vt 0 0
vt 0 0
vt 0 0
vt 0 0
vt 0 0
vt 0 0
vt 0 0
vt 0 0
vt 0 0
vt 0 0
vt 0 0
vt 0 0
vt 0 0
vt 0 0
vt 0 0
vt 0 0
vt 0 0
vt 0 0
vt 0 0
vt 0 0
vn -0.9063 -0.4208 -0.0381
vn -0.7351 -0.3576 0.576
vn -0.7335 -0.5959 -0.3267
vn -0.945 0.1784 -0.2742
vn -0.3439 -0.6089 -0.7148
vn -0.3674 -0.6383 -0.6764
vn -0.463 -0.5676 -0.6808
vn -0.0412 0.7438 -0.6671
vn -0.5562 -0.5451 -0.6273
vn -0.1853 0.776 -0.6029
vn -0.6277 -0.5226 -0.5769
vn -0.2726 0.8221 -0.4999
vn -0.6919 -0.5006 -0.5202
vn -0.751 -0.48 -0.4533
vn -0.3222 0.8407 -0.4352
vn -0.802 -0.4616 -0.3792
vn -0.364 0.8557 -0.3677
vn -0.8438 -0.4458 -0.2987
vn -0.398 0.8684 -0.2958
vn -0.8758 -0.4331 -0.213
vn -0.4351 0.877 -0.2038
vn -0.8971 -0.424 -0.1239
vn -0.4595 0.8851 -0.0736
vn -0.6248 0.4888 0.6088
vn -0.4785 0.8581 -0.1859
vn -0.3569 0.7334 0.5785
vn 0.1895 0.8115 0.5528
vn 0.5075 0.8616 -0.0081
vn -0.1725 0.8094 0.5614
vn 0.3659 0.731 0.5759
vn 0.0687 0.7409 -0.6681
vn 0.379 -0.6095 -0.6962
vn 0.1457 0.7648 -0.6275
vn 0.4617 -0.5845 -0.6672
vn 0.5445 -0.5604 -0.624
vn 0.2203 0.7899 -0.5723
vn 0.6201 -0.5367 -0.5722
vn 0.3081 0.8111 -0.4971
vn 0.6888 -0.5144 -0.5108
vn 0.7512 -0.492 -0.44
vn 0.8448 -0.4381 -0.3072
vn 0.4392 0.835 -0.3313
vn -0.9564 -0.2912 0.0214
vn -0.2322 -0.6648 -0.71
vn -0.204 -0.7902 -0.5778
vn -0.1518 -0.798 -0.5832
vn -0.1239 -0.7027 0.7006
vn -0.0829 -0.7087 0.7006
vn -0.1239 -0.7027 -0.7006
vn -0.0829 -0.7087 -0.7006
vn 0.1813 0.6842 -0.7064
vn 0.2047 0.6834 -0.7007
vn 0.1809 0.6828 -0.7078
vn 0.0834 0.674 -0.734
vn -0.1645 -0.6943 -0.7006
vn 0.1596 0.6827 -0.713
vn 0.1596 0.6827 0.713
vn 0.1216 0.6898 -0.7137
vn 0.1239 0.7027 -0.7006
vn 0.0836 0.6961 -0.713
vn 0.0849 0.7078 -0.7013
vn 0.0405 0.6993 -0.7136
vn 0.0413 0.7123 -0.7007
vn 0.0636 0.7035 -0.7078
vn 0.0637 0.705 -0.7064
vn -0.1645 -0.6943 0.7006
vn -0.0566 -0.97 0.2364
vn 0.0215 0.7071 -0.7068
vn -0.0415 -0.7123 -0.7006
vn 0.0104 -0.7166 -0.6974
vn 0.0836 -0.7148 -0.6942
vn 0.0836 -0.7148 0.6942
vn 0.1659 -0.7003 0.6942
vn 0 0 1
vn -0.5972 -0.8021 0
vn 0 0 1
vn 0 0 1
vn 0.0104 -0.7166 0.6974
vn -0.0461 0.7043 -0.7084
vn -0.0462 0.7069 -0.7058
vn -0.0387 0.7071 -0.706
vn -0.0386 0.7049 -0.7082
vn -0.0065 0.716 -0.698
vn -0.0063 0.6976 -0.7164
vn 0.0172 0.5643 -0.8253
vn 0.3888 -0.6356 -0.6669
vn 0.7229 -0.6071 -0.3298
vn 0.6762 0.2368 0.6976
vn 0.7307 -0.3687 0.5745
vn 0.9021 -0.4215 -0.0926
vn 0.8643 -0.4672 -0.186
vn 0.1665 -0.6999 -0.6945
vn 0.2218 -0.6636 -0.7144
vn -0.1133 0.6844 -0.7202
vn -0.1687 0.6711 -0.7219
vn -0.0194 0.716 -0.6978
vn -0.1982 0.6772 -0.7086
vn -0.1559 0.6773 -0.7189
vn -0.0851 0.6898 -0.7189
vn -0.088 0.7129 -0.6956
vn -0.1611 0.7001 -0.6956
vn -0.199 0.6801 -0.7056
vn 0.4832 0.8699 -0.0989
vn 0.4372 0.8811 -0.18
vn 0.2886 -0.6375 -0.7143
vn -0.4677 -0.1713 -0.8671
vn -0.8779 0.3909 0.2765
vn 0.4231 0.6363 -0.645
vn 0.7469 -0.6516 0.1323
vn -0.6192 -0.5322 -0.5774
vn -0.8148 0.3326 0.4747
vn 0.7258 0.6397 -0.2528
vn 0.8148 -0.3326 0.4747
vn -0.5394 -0.6955 -0.4747
vn -0.8513 0.2234 0.4747
vn 0.5394 0.6955 -0.4747
vn 0.8513 -0.2234 0.4747
vn -0.444 -0.7599 -0.4747
vn -0.8732 0.1104 0.4747
vn 0.444 0.7599 -0.4747
vn 0.8732 -0.1104 0.4747
vn -0.341 -0.8114 -0.4747
vn -0.8801 -0.0045 0.4747
vn 0.341 0.8114 -0.4747
vn 0.8801 0.0045 0.4747
vn -0.2322 -0.8489 -0.4747
vn -0.872 -0.1193 0.4747
vn 0.2321 0.8489 -0.4747
vn 0.872 0.1193 0.4747
vn -0.1193 -0.872 -0.4747
vn -0.8489 -0.2321 0.4747
vn 0.1193 0.872 -0.4747
vn 0.8489 0.2321 0.4747
vn -0.0045 -0.8801 -0.4747
vn -0.8114 -0.341 0.4747
vn 0.0045 0.8801 -0.4747
vn 0.8114 0.341 0.4747
vn 0.1104 -0.8732 -0.4747
vn -0.7599 -0.444 0.4747
vn -0.1104 0.8732 -0.4747
vn 0.7599 0.444 0.4747
vn 0.2234 -0.8513 -0.4747
vn -0.6955 -0.5394 0.4747
vn -0.2234 0.8513 -0.4747
vn -0.3326 0.8148 -0.4747
vn 0.6955 0.5394 0.4747
vn 0.6191 0.6255 0.4747
vn 0.3326 -0.8148 -0.4747
vn 0.8354 -0.2994 -0.461
vn 0.4049 0.7008 0.5873
vn -0.6191 -0.6255 0.4747
vn -0.583 0.5797 0.5692
vn -0.8053 0.5772 0.1356
vn -0.7188 0.0153 0.6951
vn -0.47 0.6926 -0.5472
vn 0.8661 0.3375 -0.3687
vn 0.7188 0.0153 0.6951
vn -0.7377 -0.228 0.6355
vn -0.7377 -0.3847 0.5548
vn 0.7377 -0.5152 0.4363
vn 0.7377 -0.3847 0.5548
vn -0.7377 -0.5152 0.4363
vn 0.7377 -0.6105 0.2881
vn -0.7377 -0.6105 0.2881
vn 0.7377 -0.6643 0.1203
vn -0.7377 -0.6643 0.1203
vn 0.7377 -0.6728 -0.0557
vn 0.7377 -0.228 0.6355
vn -0.7377 -0.6728 -0.0557
vn -0.7377 -0.6355 -0.228
vn 0.7377 -0.6355 -0.228
vn -0.7377 0.228 -0.6355
vn -0.7377 0.3847 -0.5548
vn 0.7377 0.228 -0.6355
vn 0.7377 0.0557 -0.6728
vn -0.7377 0.0557 -0.6728
vn 0.7071 -0.0341 -0.7063
vn -0.7071 -0.0341 -0.7063
vn 0.7377 -0.1203 -0.6643
vn -0.7377 -0.1203 -0.6643
vn 0.7377 -0.2881 -0.6105
vn -0.7377 -0.2881 -0.6105
vn 0.7377 -0.4363 -0.5152
vn -0.7377 -0.4363 -0.5152
vn -0.7377 -0.5548 -0.3847
vn 0.7377 -0.5548 -0.3847
vn 0.5773 0.5773 0.5773
vn 0.5773 -0.5773 0.5773
vn 0.7377 0.3847 -0.5548
vn 0.9304 -0.3658 0.0247
vn 0.2002 -0.7837 0.5879
vn -0.4352 -0.6329 0.6403
vn -0.7377 0.6728 0.0557
vn -0.7377 0.5548 0.3847
vn 0.7377 0.4363 0.5152
vn 0.7377 0.5548 0.3847
vn -0.7377 0.6355 0.228
vn 0.7377 0.6355 0.228
vn -0.7377 0.2881 0.6105
vn -0.7377 0.4363 0.5152
vn 0.7377 0.2881 0.6105
vn -0.7377 0.1203 0.6643
vn 0.7377 0.1203 0.6643
vn 0.7377 0.6728 0.0557
vn 0.7377 0.5152 -0.4363
vn -0.7377 0.5152 -0.4363
vn 0.7377 0.6105 -0.2881
vn -0.7377 0.6105 -0.2881
vn 0.7377 0.6643 -0.1203
vn -0.7377 0.6643 -0.1203
vn -0.4361 0.7645 -0.4747
f 7/7/7 6/6/6 5/5/5
f 8/8/8 6/6/6 7/7/7
f 5/5/5 6/6/6 54/54/54
f 6/6/6 8/8/8 54/54/54
f 7/7/7 5/5/5 44/44/44
f 44/44/44 5/5/5 54/54/54
f 8/8/8 7/7/7 9/9/9
f 9/9/9 7/7/7 44/44/44
f 9/9/9 10/10/10 8/8/8
f 8/8/8 10/10/10 54/54/54
f 11/11/11 10/10/10 9/9/9
f 11/11/11 9/9/9 44/44/44
f 12/12/12 10/10/10 11/11/11
f 10/10/10 12/12/12 54/54/54
f 12/12/12 11/11/11 13/13/13
f 13/13/13 11/11/11 44/44/44
f 12/12/12 13/13/13 14/14/14
f 14/14/14 13/13/13 44/44/44
f 15/15/15 12/12/12 14/14/14
f 12/12/12 15/15/15 54/54/54
f 16/16/16 15/15/15 14/14/14
f 16/16/16 14/14/14 44/44/44
f 17/17/17 15/15/15 16/16/16
f 15/15/15 17/17/17 54/54/54
f 18/18/18 17/17/17 16/16/16
f 18/18/18 16/16/16 44/44/44
f 18/18/18 19/19/19 17/17/17
f 17/17/17 19/19/19 54/54/54
f 20/20/20 19/19/19 18/18/18
f 20/20/20 18/18/18 44/44/44
f 21/21/21 19/19/19 20/20/20
f 19/19/19 21/21/21 54/54/54
f 21/21/21 20/20/20 22/22/22
f 22/22/22 20/20/20 44/44/44
f 23/23/23 21/21/21 22/22/22
f 21/21/21 23/23/23 54/54/54
f 1/1/1 22/22/22 44/44/44
f 23/23/23 22/22/22 1/1/1
f 23/23/23 26/26/26 54/54/54
f 26/26/26 23/23/23 24/24/24
f 4/4/4 23/23/23 1/1/1
f 23/23/23 4/4/4 24/24/24
f 1/1/1 2/2/2 4/4/4
f 4/4/4 25/25/25 24/24/24
f 3/3/3 2/2/2 1/1/1
f 4/4/4 2/2/2 3/3/3
f 25/25/25 4/4/4 107/107/107
f 24/24/24 25/25/25 107/107/107
f 4/4/4 3/3/3 107/107/107
f 27/27/27 26/26/26 24/24/24
f 26/26/26 27/27/27 54/54/54
f 27/27/27 24/24/24 107/107/107
f 3/3/3 1/1/1 45/45/45
f 45/45/45 1/1/1 44/44/44
f 3/3/3 45/45/45 106/106/106
f 3/3/3 106/106/106 107/107/107
f 106/106/106 45/45/45 110/110/110
f 107/107/107 106/106/106 110/110/110
f 46/46/46 45/45/45 44/44/44
f 45/45/45 46/46/46 110/110/110
f 54/54/54 55/55/55 44/44/44
f 46/46/46 44/44/44 66/66/66
f 44/44/44 55/55/55 66/66/66
f 66/66/66 55/55/55 47/47/47
f 47/47/47 46/46/46 66/66/66
f 53/53/53 55/55/55 54/54/54
f 54/54/54 52/52/52 53/53/53
f 54/54/54 27/27/27 52/52/52
f 53/53/53 52/52/52 51/51/51
f 52/52/52 27/27/27 51/51/51
f 53/53/53 56/56/56 55/55/55
f 51/51/51 56/56/56 53/53/53
f 47/47/47 55/55/55 49/49/49
f 55/55/55 56/56/56 49/49/49
f 57/57/57 56/56/56 51/51/51
f 51/51/51 27/27/27 57/57/57
f 49/49/49 48/48/48 47/47/47
f 48/48/48 46/46/46 47/47/47
f 56/56/56 58/58/58 49/49/49
f 57/57/57 58/58/58 56/56/56
f 49/49/49 50/50/50 48/48/48
f 49/49/49 58/58/58 50/50/50
f 27/27/27 46/46/46 57/57/57
f 50/50/50 67/67/67 48/48/48
f 48/48/48 67/67/67 46/46/46
f 59/59/59 58/58/58 57/57/57
f 57/57/57 46/46/46 59/59/59
f 58/58/58 60/60/60 50/50/50
f 59/59/59 60/60/60 58/58/58
f 59/59/59 46/46/46 27/27/27
f 60/60/60 59/59/59 61/61/61
f 59/59/59 27/27/27 61/61/61
f 50/50/50 60/60/60 64/64/64
f 60/60/60 61/61/61 64/64/64
f 50/50/50 69/69/69 67/67/67
f 64/64/64 69/69/69 50/50/50
f 61/61/61 65/65/65 64/64/64
f 61/61/61 27/27/27 65/65/65
f 64/64/64 65/65/65 63/63/63
f 65/65/65 27/27/27 63/63/63
f 62/62/62 69/69/69 64/64/64
f 64/64/64 63/63/63 62/62/62
f 67/67/67 69/69/69 78/78/78
f 63/63/63 68/68/68 62/62/62
f 68/68/68 69/69/69 62/62/62
f 78/78/78 76/76/76 67/67/67
f 85/85/85 68/68/68 63/63/63
f 63/63/63 27/27/27 85/85/85
f 46/46/46 85/85/85 76/76/76
f 70/70/70 69/69/69 68/68/68
f 69/69/69 70/70/70 78/78/78
f 84/84/84 68/68/68 85/85/85
f 70/70/70 68/68/68 84/84/84
f 83/83/83 84/84/84 85/85/85
f 85/85/85 27/27/27 83/83/83
f 83/83/83 82/82/82 84/84/84
f 82/82/82 70/70/70 84/84/84
f 83/83/83 81/81/81 82/82/82
f 83/83/83 27/27/27 81/81/81
f 81/81/81 79/79/79 82/82/82
f 79/79/79 70/70/70 82/82/82
f 81/81/81 80/80/80 79/79/79
f 81/81/81 27/27/27 80/80/80
f 99/99/99 70/70/70 79/79/79
f 80/80/80 99/99/99 79/79/79
f 78/78/78 70/70/70 72/72/72
f 100/100/100 99/99/99 80/80/80
f 80/80/80 27/27/27 100/100/100
f 71/71/71 70/70/70 99/99/99
f 72/72/72 70/70/70 71/71/71
f 98/98/98 99/99/99 100/100/100
f 71/71/71 99/99/99 98/98/98
f 100/100/100 27/27/27 101/101/101
f 101/101/101 98/98/98 100/100/100
f 74/74/74 78/78/78 72/72/72
f 78/78/78 74/74/74 76/76/76
f 73/73/73 72/72/72 71/71/71
f 72/72/72 73/73/73 74/74/74
f 74/74/74 77/77/77 76/76/76
f 77/77/77 86/86/86 76/76/76
f 74/74/74 86/86/86 77/77/77
f 86/86/86 46/46/46 76/76/76
f 73/73/73 75/75/75 74/74/74
f 75/75/75 86/86/86 74/74/74
f 46/46/46 86/86/86 109/109/109
f 46/46/46 109/109/109 110/110/110
f 87/87/87 86/86/86 75/75/75
f 86/86/86 87/87/87 109/109/109
f 73/73/73 92/92/92 75/75/75
f 71/71/71 92/92/92 73/73/73
f 75/75/75 92/92/92 87/87/87
f 71/71/71 98/98/98 97/97/97
f 97/97/97 98/98/98 101/101/101
f 71/71/71 97/97/97 92/92/92
f 101/101/101 27/27/27 102/102/102
f 102/102/102 97/97/97 101/101/101
f 102/102/102 27/27/27 29/29/29
f 29/29/29 27/27/27 107/107/107
f 102/102/102 29/29/29 103/103/103
f 97/97/97 102/102/102 103/103/103
f 29/29/29 30/30/30 103/103/103
f 30/30/30 29/29/29 28/28/28
f 30/30/30 28/28/28 103/103/103
f 28/28/28 29/29/29 107/107/107
f 28/28/28 88/88/88 103/103/103
f 87/87/87 88/88/88 28/28/28
f 108/108/108 28/28/28 107/107/107
f 87/87/87 28/28/28 108/108/108
f 87/87/87 108/108/108 109/109/109
f 88/88/88 87/87/87 89/89/89
f 87/87/87 92/92/92 89/89/89
f 90/90/90 88/88/88 89/89/89
f 88/88/88 90/90/90 103/103/103
f 89/89/89 92/92/92 90/90/90
f 109/109/109 108/108/108 112/112/112
f 108/108/108 107/107/107 112/112/112
f 103/103/103 90/90/90 104/104/104
f 97/97/97 103/103/103 104/104/104
f 90/90/90 91/91/91 104/104/104
f 90/90/90 92/92/92 91/91/91
f 104/104/104 91/91/91 42/42/42
f 42/42/42 97/97/97 104/104/104
f 42/42/42 91/91/91 41/41/41
f 91/91/91 92/92/92 41/41/41
f 112/112/112 107/107/107 111/111/111
f 107/107/107 110/110/110 111/111/111
f 109/109/109 112/112/112 113/113/113
f 110/110/110 109/109/109 113/113/113
f 112/112/112 111/111/111 116/116/116
f 113/113/113 112/112/112 116/116/116
f 111/111/111 110/110/110 114/114/114
f 110/110/110 113/113/113 114/114/114
f 116/116/116 111/111/111 115/115/115
f 111/111/111 114/114/114 115/115/115
f 113/113/113 116/116/116 117/117/117
f 114/114/114 113/113/113 117/117/117
f 116/116/116 115/115/115 120/120/120
f 117/117/117 116/116/116 120/120/120
f 115/115/115 114/114/114 118/118/118
f 114/114/114 117/117/117 118/118/118
f 120/120/120 115/115/115 119/119/119
f 115/115/115 118/118/118 119/119/119
f 117/117/117 120/120/120 121/121/121
f 118/118/118 117/117/117 121/121/121
f 120/120/120 119/119/119 124/124/124
f 121/121/121 120/120/120 124/124/124
f 119/119/119 118/118/118 122/122/122
f 118/118/118 121/121/121 122/122/122
f 124/124/124 119/119/119 123/123/123
f 119/119/119 122/122/122 123/123/123
f 121/121/121 124/124/124 125/125/125
f 122/122/122 121/121/121 125/125/125
f 124/124/124 123/123/123 128/128/128
f 125/125/125 124/124/124 128/128/128
f 123/123/123 122/122/122 126/126/126
f 122/122/122 125/125/125 126/126/126
f 128/128/128 123/123/123 127/127/127
f 123/123/123 126/126/126 127/127/127
f 125/125/125 128/128/128 129/129/129
f 126/126/126 125/125/125 129/129/129
f 128/128/128 127/127/127 132/132/132
f 129/129/129 128/128/128 132/132/132
f 127/127/127 126/126/126 130/130/130
f 126/126/126 129/129/129 130/130/130
f 132/132/132 127/127/127 131/131/131
f 127/127/127 130/130/130 131/131/131
f 129/129/129 132/132/132 133/133/133
f 130/130/130 129/129/129 133/133/133
f 132/132/132 131/131/131 136/136/136
f 133/133/133 132/132/132 136/136/136
f 131/131/131 130/130/130 134/134/134
f 130/130/130 133/133/133 134/134/134
f 136/136/136 131/131/131 135/135/135
f 131/131/131 134/134/134 135/135/135
f 133/133/133 136/136/136 137/137/137
f 134/134/134 133/133/133 137/137/137
f 136/136/136 135/135/135 140/140/140
f 137/137/137 136/136/136 140/140/140
f 135/135/135 134/134/134 138/138/138
f 134/134/134 137/137/137 138/138/138
f 140/140/140 135/135/135 139/139/139
f 135/135/135 138/138/138 139/139/139
f 137/137/137 140/140/140 141/141/141
f 138/138/138 137/137/137 141/141/141
f 140/140/140 139/139/139 144/144/144
f 140/140/140 144/144/144 141/141/141
f 139/139/139 138/138/138 142/142/142
f 138/138/138 141/141/141 142/142/142
f 144/144/144 139/139/139 143/143/143
f 139/139/139 142/142/142 143/143/143
f 144/144/144 146/146/146 141/141/141
f 141/141/141 146/146/146 142/142/142
f 144/144/144 143/143/143 145/145/145
f 146/146/146 144/144/144 145/145/145
f 142/142/142 148/148/148 143/143/143
f 146/146/146 148/148/148 142/142/142
f 143/143/143 151/151/151 145/145/145
f 148/148/148 151/151/151 143/143/143
f 146/146/146 145/145/145 147/147/147
f 148/148/148 146/146/146 147/147/147
f 151/151/151 211/211/211 145/145/145
f 145/145/145 211/211/211 147/147/147
f 151/151/151 148/148/148 149/149/149
f 148/148/148 147/147/147 149/149/149
f 191/191/191 211/211/211 151/151/151
f 151/151/151 149/149/149 191/191/191
f 147/147/147 211/211/211 150/150/150
f 147/147/147 150/150/150 149/149/149
f 211/211/211 191/191/191 155/155/155
f 191/191/191 149/149/149 155/155/155
f 211/211/211 153/153/153 150/150/150
f 155/155/155 153/153/153 211/211/211
f 149/149/149 190/190/190 155/155/155
f 191/191/191 190/190/190 155/155/155
f 149/149/149 156/156/156 190/190/190
f 150/150/150 156/156/156 149/149/149
f 188/188/188 191/191/191 190/190/190
f 156/156/156 188/188/188 190/190/190
f 192/192/192 191/191/191 155/155/155
f 191/191/191 188/188/188 192/192/192
f 156/156/156 153/153/153 155/155/155
f 153/153/153 156/156/156 150/150/150
f 155/155/155 192/192/192 193/193/193
f 192/192/192 210/210/210 193/193/193
f 155/155/155 193/193/193 197/197/197
f 208/208/208 210/210/210 192/192/192
f 197/197/197 193/193/193 198/198/198
f 193/193/193 210/210/210 204/204/204
f 193/193/193 204/204/204 198/198/198
f 209/209/209 210/210/210 208/208/208
f 210/210/210 209/209/209 204/204/204
f 198/198/198 204/204/204 156/156/156
f 204/204/204 209/209/209 188/188/188
f 156/156/156 204/204/204 188/188/188
f 209/209/209 208/208/208 207/207/207
f 209/209/209 207/207/207 188/188/188
f 197/197/197 198/198/198 196/196/196
f 198/198/198 156/156/156 196/196/196
f 207/207/207 208/208/208 206/206/206
f 206/206/206 208/208/208 192/192/192
f 196/196/196 194/194/194 197/197/197
f 194/194/194 155/155/155 197/197/197
f 207/207/207 206/206/206 205/205/205
f 207/207/207 205/205/205 188/188/188
f 196/196/196 195/195/195 194/194/194
f 196/196/196 156/156/156 195/195/195
f 205/205/205 206/206/206 189/189/189
f 188/188/188 205/205/205 189/189/189
f 195/195/195 200/200/200 194/194/194
f 194/194/194 200/200/200 155/155/155
f 199/199/199 200/200/200 195/195/195
f 200/200/200 199/199/199 155/155/155
f 199/199/199 195/195/195 201/201/201
f 195/195/195 156/156/156 201/201/201
f 202/202/202 155/155/155 199/199/199
f 201/201/201 202/202/202 199/199/199
f 201/201/201 156/156/156 203/203/203
f 203/203/203 202/202/202 201/201/201
f 155/155/155 202/202/202 154/154/154
f 202/202/202 203/203/203 154/154/154
f 157/157/157 203/203/203 156/156/156
f 203/203/203 157/157/157 154/154/154
f 156/156/156 155/155/155 152/152/152
f 155/155/155 154/154/154 152/152/152
f 157/157/157 156/156/156 152/152/152
f 188/188/188 152/152/152 192/192/192
f 173/173/173 206/206/206 192/192/192
f 189/189/189 206/206/206 173/173/173
f 192/192/192 152/152/152 173/173/173
f 187/187/187 188/188/188 189/189/189
f 188/188/188 187/187/187 152/152/152
f 173/173/173 174/174/174 189/189/189
f 174/174/174 187/187/187 189/189/189
f 174/174/174 173/173/173 172/172/172
f 173/173/173 152/152/152 172/172/172
f 175/175/175 174/174/174 172/172/172
f 174/174/174 175/175/175 187/187/187
f 175/175/175 172/172/172 176/176/176
f 172/172/172 152/152/152 176/176/176
f 177/177/177 175/175/175 176/176/176
f 175/175/175 177/177/177 187/187/187
f 177/177/177 176/176/176 178/178/178
f 176/176/176 152/152/152 178/178/178
f 179/179/179 177/177/177 178/178/178
f 177/177/177 179/179/179 187/187/187
f 179/179/179 178/178/178 180/180/180
f 178/178/178 152/152/152 180/180/180
f 180/180/180 181/181/181 179/179/179
f 179/179/179 181/181/181 187/187/187
f 181/181/181 180/180/180 182/182/182
f 180/180/180 152/152/152 182/182/182
f 182/182/182 183/183/183 181/181/181
f 181/181/181 183/183/183 187/187/187
f 183/183/183 182/182/182 184/184/184
f 182/182/182 152/152/152 184/184/184
f 185/185/185 183/183/183 184/184/184
f 184/184/184 152/152/152 185/185/185
f 185/185/185 186/186/186 183/183/183
f 183/183/183 186/186/186 187/187/187
f 186/186/186 185/185/185 170/170/170
f 185/185/185 152/152/152 170/170/170
f 186/186/186 171/171/171 187/187/187
f 171/171/171 186/186/186 170/170/170
f 171/171/171 170/170/170 169/169/169
f 170/170/170 152/152/152 169/169/169
f 171/171/171 167/167/167 187/187/187
f 169/169/169 167/167/167 171/171/171
f 187/187/187 150/150/150 152/152/152
f 167/167/167 150/150/150 187/187/187
f 150/150/150 157/157/157 152/152/152
f 166/166/166 167/167/167 169/169/169
f 169/169/169 152/152/152 153/153/153
f 153/153/153 166/166/166 169/169/169
f 154/154/154 153/153/153 152/152/152
f 165/165/165 167/167/167 166/166/166
f 165/165/165 150/150/150 167/167/167
f 154/154/154 157/157/157 158/158/158
f 153/153/153 154/154/154 158/158/158
f 165/165/165 166/166/166 164/164/164
f 164/164/164 166/166/166 153/153/153
f 157/157/157 168/168/168 158/158/158
f 150/150/150 168/168/168 157/157/157
f 159/159/159 153/153/153 158/158/158
f 158/158/158 168/168/168 159/159/159
f 162/162/162 164/164/164 153/153/153
f 159/159/159 162/162/162 153/153/153
f 164/164/164 163/163/163 165/165/165
f 164/164/164 162/162/162 163/163/163
f 163/163/163 150/150/150 165/165/165
f 168/168/168 161/161/161 159/159/159
f 168/168/168 150/150/150 161/161/161
f 161/161/161 162/162/162 159/159/159
f 160/160/160 150/150/150 163/163/163
f 162/162/162 160/160/160 163/163/163
f 161/161/161 150/150/150 160/160/160
f 162/162/162 161/161/161 160/160/160
f 33/33/33 32/32/32 31/31/31
f 32/32/32 96/96/96 31/31/31
f 31/31/31 97/97/97 33/33/33
f 96/96/96 97/97/97 31/31/31
f 33/33/33 34/34/34 32/32/32
f 96/96/96 32/32/32 105/105/105
f 35/35/35 34/34/34 33/33/33
f 94/94/94 96/96/96 105/105/105
f 94/94/94 97/97/97 96/96/96
f 34/34/34 92/92/92 32/32/32
f 32/32/32 92/92/92 105/105/105
f 35/35/35 92/92/92 34/34/34
f 93/93/93 94/94/94 105/105/105
f 92/92/92 93/93/93 105/105/105
f 92/92/92 94/94/94 93/93/93
f 35/35/35 33/33/33 36/36/36
f 33/33/33 97/97/97 36/36/36
f 95/95/95 94/94/94 92/92/92
f 95/95/95 97/97/97 94/94/94
f 92/92/92 97/97/97 95/95/95
f 36/36/36 37/37/37 35/35/35
f 37/37/37 92/92/92 35/35/35
f 36/36/36 97/97/97 38/38/38
f 37/37/37 36/36/36 38/38/38
f 39/39/39 92/92/92 37/37/37
f 38/38/38 39/39/39 37/37/37
f 40/40/40 92/92/92 39/39/39
f 40/40/40 39/39/39 38/38/38
f 41/41/41 92/92/92 40/40/40
f 41/41/41 40/40/40 38/38/38
f 42/42/42 41/41/41 38/38/38
f 38/38/38 97/97/97 43/43/43
f 43/43/43 97/97/97 42/42/42
f 42/42/42 38/38/38 43/43/43
