# VPXTOOL table OBJ file
# VPXTOOL OBJ file
# numVerts: 521 numFaces: 416
o Bumper Cap - Gottlieb Star
v 0.670857 0.0065 0.133442
v 0.684 0.047825 -0
v 0.684 0.0065 -0
v 0.670857 0.021225 0.133442
v 0.631934 0.047825 0.261755
v 0.631934 0.0065 0.261755
v 0.568725 0.0065 0.38001
v 0.568725 0.021225 0.38001
v 0.483661 0.047825 0.483661
v 0.483661 0.0065 0.483661
v 0.38001 0.0065 0.568725
v 0.38001 0.021225 0.568725
v 0.261755 0.047825 0.631934
v 0.261755 0.0065 0.631934
v 0.133442 0.0065 0.670857
v 0.133442 0.021225 0.670857
v 0 0.047825 0.684
v 0 0.0065 0.684
v 0.684 0.047825 -0
v 0.670857 0.021225 0.133442
v 0.391333 0.144725 0.077841
v 0.391333 0.144725 0.077841
v 0.670857 0.021225 0.133442
v 0.631934 0.047825 0.261755
v 0.368628 0.144725 0.152691
v 0.631934 0.047825 0.261755
v 0.331756 0.144725 0.221672
v 0.568725 0.021225 0.38001
v 0.331756 0.144725 0.221672
v 0.631934 0.047825 0.261755
v 0.331756 0.144725 0.221672
v 0.568725 0.021225 0.38001
v 0.483661 0.047825 0.483661
v 0.282136 0.144725 0.282136
v 0.483661 0.047825 0.483661
v 0.221673 0.144725 0.331756
v 0.38001 0.021225 0.568725
v 0.221673 0.144725 0.331756
v 0.483661 0.047825 0.483661
v 0.221673 0.144725 0.331756
v 0.38001 0.021225 0.568725
v 0.261755 0.047825 0.631934
v 0.152691 0.144725 0.368628
v 0.261755 0.047825 0.631934
v 0.077841 0.144725 0.391333
v 0.133442 0.021225 0.670857
v 0.077841 0.144725 0.391333
v 0.261755 0.047825 0.631934
v 0.077841 0.144725 0.391333
v 0.133442 0.021225 0.670857
v 0 0.047825 0.684
v 0.391333 0.144725 0.077841
v 0.331756 0.144725 0.221672
v 0.221673 0.144725 0.331756
v 0 0.047825 0.684
v 0 0.144725 0.399
v 0.077841 0.144725 0.391333
v 0.481356 0.115444 0.028352
v 0.48925 0.11404 0
v 0.684 0.047825 -0
v 0.393747 0.144725 0.053366
v 0.43225 0.131242 0.053363
v 0.391333 0.144725 0.077841
v 0.459896 0.122114 0.047885
v -0.684 0.0065 0
v -0.684 0.047825 0
v -0.670857 0.0065 0.133442
v -0.670857 0.021225 0.133442
v -0.631934 0.047825 0.261755
v -0.631934 0.0065 0.261755
v -0.568725 0.0065 0.38001
v -0.568725 0.021225 0.38001
v -0.483661 0.047825 0.483661
v -0.483661 0.0065 0.483661
v -0.38001 0.0065 0.568725
v -0.38001 0.021225 0.568725
v -0.261755 0.047825 0.631934
v -0.261755 0.0065 0.631934
v -0.133442 0.0065 0.670857
v -0.133442 0.021225 0.670857
v -0.391333 0.144725 0.077841
v -0.670857 0.021225 0.133442
v -0.684 0.047825 0
v -0.631934 0.047825 0.261755
v -0.670857 0.021225 0.133442
v -0.391333 0.144725 0.077841
v -0.331756 0.144725 0.221673
v -0.631934 0.047825 0.261755
v -0.368628 0.144725 0.152691
v -0.631934 0.047825 0.261755
v -0.331756 0.144725 0.221673
v -0.568725 0.021225 0.38001
v -0.483661 0.047825 0.483661
v -0.568725 0.021225 0.38001
v -0.331756 0.144725 0.221673
v -0.221672 0.144725 0.331756
v -0.483661 0.047825 0.483661
v -0.282136 0.144725 0.282136
v -0.483661 0.047825 0.483661
v -0.221672 0.144725 0.331756
v -0.38001 0.021225 0.568725
v -0.261755 0.047825 0.631934
v -0.38001 0.021225 0.568725
v -0.221672 0.144725 0.331756
v -0.077841 0.144725 0.391333
v -0.261755 0.047825 0.631934
v -0.152691 0.144725 0.368628
v -0.261755 0.047825 0.631934
v -0.077841 0.144725 0.391333
v -0.133442 0.021225 0.670857
v 0 0.047825 0.684
v -0.133442 0.021225 0.670857
v -0.077841 0.144725 0.391333
v -0.391333 0.144725 0.077841
v -0.331756 0.144725 0.221673
v -0.221672 0.144725 0.331756
v -0.077841 0.144725 0.391333
v -0.684 0.047825 0
v -0.48925 0.11404 0
v -0.481356 0.115444 0.028352
v -0.391333 0.144725 0.077841
v -0.43225 0.131242 0.053363
v -0.393747 0.144725 0.053366
v -0.459896 0.122114 0.047885
v 0.394661 0.15375 0.044056
v 0.393747 0.144725 0.053366
v 0.391333 0.144725 0.077841
v 0.391333 0.15375 0.077841
v 0.393747 0.144725 0.053366
v 0.394661 0.15375 0.044056
v 0.429836 0.15375 0.044052
v 0.43225 0.131242 0.053363
v 0.451862 0.15375 0.03815
v 0.459896 0.122114 0.047885
v 0.467986 0.15375 0.022026
v 0.481356 0.115444 0.028352
v 0.473888 0.15375 0
v 0.48925 0.11404 0
v 0.368628 0.144725 0.152691
v 0.368628 0.15375 0.152691
v 0.331756 0.15375 0.221673
v 0.331756 0.144725 0.221672
v 0.282136 0.15375 0.282136
v 0.282136 0.144725 0.282136
v 0.221673 0.15375 0.331756
v 0.221673 0.144725 0.331756
v 0.152691 0.15375 0.368628
v 0.152691 0.144725 0.368628
v 0.077841 0.15375 0.391333
v 0.077841 0.144725 0.391333
v 0 0.15375 0.399
v 0 0.144725 0.399
v -0.077841 0.15375 0.391333
v -0.077841 0.144725 0.391333
v -0.152691 0.144725 0.368628
v -0.152691 0.15375 0.368628
v -0.221672 0.144725 0.331756
v -0.221673 0.15375 0.331756
v -0.282136 0.144725 0.282136
v -0.282136 0.15375 0.282136
v -0.331756 0.144725 0.221673
v -0.331756 0.15375 0.221673
v -0.368628 0.144725 0.152691
v -0.368628 0.15375 0.152691
v -0.391333 0.15375 0.077841
v -0.391333 0.144725 0.077841
v -0.394661 0.15375 0.044056
v -0.393747 0.144725 0.053366
v -0.429836 0.15375 0.044052
v -0.394661 0.15375 0.044056
v -0.43225 0.131242 0.053363
v -0.393747 0.144725 0.053366
v -0.451862 0.15375 0.03815
v -0.459896 0.122114 0.047885
v -0.467986 0.15375 0.022026
v -0.481356 0.115444 0.028352
v -0.48925 0.11404 0
v -0.473888 0.15375 -0
v -0.670857 0.0065 -0.133442
v -0.670857 0.021225 -0.133442
v -0.631934 0.047825 -0.261755
v -0.631934 0.0065 -0.261755
v -0.568725 0.0065 -0.38001
v -0.568725 0.021225 -0.38001
v -0.483661 0.047825 -0.483661
v -0.483661 0.0065 -0.483661
v -0.38001 0.0065 -0.568725
v -0.38001 0.021225 -0.568725
v -0.261755 0.047825 -0.631934
v -0.261755 0.0065 -0.631934
v -0.133442 0.0065 -0.670857
v -0.133442 0.021225 -0.670857
v 0 0.047825 -0.684
v 0 0.0065 -0.684
v -0.684 0.047825 0
v -0.670857 0.021225 -0.133442
v -0.391333 0.144725 -0.077841
v -0.391333 0.144725 -0.077841
v -0.670857 0.021225 -0.133442
v -0.631934 0.047825 -0.261755
v -0.368628 0.144725 -0.152691
v -0.631934 0.047825 -0.261755
v -0.331756 0.144725 -0.221672
v -0.568725 0.021225 -0.38001
v -0.331756 0.144725 -0.221672
v -0.631934 0.047825 -0.261755
v -0.331756 0.144725 -0.221672
v -0.568725 0.021225 -0.38001
v -0.483661 0.047825 -0.483661
v -0.282136 0.144725 -0.282136
v -0.483661 0.047825 -0.483661
v -0.221673 0.144725 -0.331756
v -0.38001 0.021225 -0.568725
v -0.221673 0.144725 -0.331756
v -0.483661 0.047825 -0.483661
v -0.221673 0.144725 -0.331756
v -0.38001 0.021225 -0.568725
v -0.261755 0.047825 -0.631934
v -0.152691 0.144725 -0.368628
v -0.261755 0.047825 -0.631934
v -0.077841 0.144725 -0.391333
v -0.133442 0.021225 -0.670857
v -0.077841 0.144725 -0.391333
v -0.261755 0.047825 -0.631934
v -0.077841 0.144725 -0.391333
v -0.133442 0.021225 -0.670857
v 0 0.047825 -0.684
v -0.391333 0.144725 -0.077841
v -0.331756 0.144725 -0.221672
v -0.221673 0.144725 -0.331756
v 0 0.047825 -0.684
v 0 0.144725 -0.399
v -0.077841 0.144725 -0.391333
v -0.481356 0.115444 -0.028352
v -0.393747 0.144725 -0.053366
v -0.43225 0.131242 -0.053363
v -0.391333 0.144725 -0.077841
v -0.459896 0.122114 -0.047885
v 0.670857 0.0065 -0.133442
v 0.670857 0.021225 -0.133442
v 0.631934 0.047825 -0.261755
v 0.631934 0.0065 -0.261755
v 0.568725 0.0065 -0.38001
v 0.568725 0.021225 -0.38001
v 0.483661 0.047825 -0.483661
v 0.483661 0.0065 -0.483661
v 0.38001 0.0065 -0.568725
v 0.38001 0.021225 -0.568725
v 0.261755 0.047825 -0.631934
v 0.261755 0.0065 -0.631934
v 0.133442 0.0065 -0.670857
v 0.133442 0.021225 -0.670857
v 0.391333 0.144725 -0.077841
v 0.670857 0.021225 -0.133442
v 0.684 0.047825 -0
v 0.631934 0.047825 -0.261755
v 0.670857 0.021225 -0.133442
v 0.391333 0.144725 -0.077841
v 0.331756 0.144725 -0.221673
v 0.631934 0.047825 -0.261755
v 0.368628 0.144725 -0.152691
v 0.631934 0.047825 -0.261755
v 0.331756 0.144725 -0.221673
v 0.568725 0.021225 -0.38001
v 0.483661 0.047825 -0.483661
v 0.568725 0.021225 -0.38001
v 0.331756 0.144725 -0.221673
v 0.221672 0.144725 -0.331756
v 0.483661 0.047825 -0.483661
v 0.282136 0.144725 -0.282136
v 0.483661 0.047825 -0.483661
v 0.221672 0.144725 -0.331756
v 0.38001 0.021225 -0.568725
v 0.261755 0.047825 -0.631934
v 0.38001 0.021225 -0.568725
v 0.221672 0.144725 -0.331756
v 0.077841 0.144725 -0.391333
v 0.261755 0.047825 -0.631934
v 0.152691 0.144725 -0.368628
v 0.261755 0.047825 -0.631934
v 0.077841 0.144725 -0.391333
v 0.133442 0.021225 -0.670857
v 0 0.047825 -0.684
v 0.133442 0.021225 -0.670857
v 0.077841 0.144725 -0.391333
v 0.391333 0.144725 -0.077841
v 0.331756 0.144725 -0.221673
v 0.221672 0.144725 -0.331756
v 0.077841 0.144725 -0.391333
v 0.481356 0.115444 -0.028352
v 0.391333 0.144725 -0.077841
v 0.43225 0.131242 -0.053363
v 0.393747 0.144725 -0.053366
v 0.459896 0.122114 -0.047885
v -0.394661 0.15375 -0.044056
v -0.393747 0.144725 -0.053366
v -0.391333 0.144725 -0.077841
v -0.391333 0.15375 -0.077841
v -0.393747 0.144725 -0.053366
v -0.394661 0.15375 -0.044056
v -0.429836 0.15375 -0.044052
v -0.43225 0.131242 -0.053363
v -0.451862 0.15375 -0.03815
v -0.459896 0.122114 -0.047885
v -0.467986 0.15375 -0.022026
v -0.481356 0.115444 -0.028352
v -0.368628 0.144725 -0.152691
v -0.368628 0.15375 -0.152691
v -0.331756 0.15375 -0.221673
v -0.331756 0.144725 -0.221672
v -0.282136 0.15375 -0.282136
v -0.282136 0.144725 -0.282136
v -0.221673 0.15375 -0.331756
v -0.221673 0.144725 -0.331756
v -0.152691 0.15375 -0.368628
v -0.152691 0.144725 -0.368628
v -0.077841 0.15375 -0.391333
v -0.077841 0.144725 -0.391333
v 0 0.15375 -0.399
v 0 0.144725 -0.399
v 0.077841 0.15375 -0.391333
v 0.077841 0.144725 -0.391333
v 0.152691 0.144725 -0.368628
v 0.152691 0.15375 -0.368628
v 0.221672 0.144725 -0.331756
v 0.221673 0.15375 -0.331756
v 0.282136 0.144725 -0.282136
v 0.282136 0.15375 -0.282136
v 0.331756 0.144725 -0.221673
v 0.331756 0.15375 -0.221673
v 0.368628 0.144725 -0.152691
v 0.368628 0.15375 -0.152691
v 0.391333 0.15375 -0.077841
v 0.391333 0.144725 -0.077841
v 0.394661 0.15375 -0.044056
v 0.393747 0.144725 -0.053366
v 0.429836 0.15375 -0.044052
v 0.394661 0.15375 -0.044056
v 0.43225 0.131242 -0.053363
v 0.393747 0.144725 -0.053366
v 0.451862 0.15375 -0.03815
v 0.459896 0.122114 -0.047885
v 0.467986 0.15375 -0.022026
v 0.481356 0.115444 -0.028352
v 0.340422 0.178992 0.141784
v 0.342297 0.15375 0.141784
v 0.30806 0.15375 0.205839
v 0.306372 0.182571 0.205839
v 0.260548 0.187387 0.261983
v 0.261983 0.15375 0.261983
v 0.205839 0.15375 0.30806
v 0.204711 0.193256 0.30806
v 0.141008 0.199952 0.342297
v 0.141784 0.15375 0.342297
v 0.072281 0.15375 0.363381
v 0.071885 0.207217 0.363381
v 0.36139 0.176789 0.072281
v 0.363381 0.15375 0.072281
v 0 0.15375 0.3705
v -0 0.214772 0.3705
v 0.36847 0.176044 -0
v 0.3705 0.15375 -0
v -0.306372 0.246973 0.205839
v -0.30806 0.15375 0.205839
v -0.342297 0.15375 0.141784
v -0.340422 0.250552 0.141784
v -0.204711 0.236288 0.30806
v -0.205839 0.15375 0.30806
v -0.261983 0.15375 0.261983
v -0.260548 0.242157 0.261983
v -0.071885 0.222328 0.363381
v -0.072281 0.15375 0.363381
v -0.141784 0.15375 0.342297
v -0.141008 0.229593 0.342297
v -0.363381 0.15375 0.072281
v -0.36139 0.252756 0.072281
v -0.3705 0.15375 -0
v -0.36847 0.2535 -0
v -0.340422 0.250552 -0.141784
v -0.342297 0.15375 -0.141784
v -0.30806 0.15375 -0.205839
v -0.306372 0.246973 -0.205839
v -0.260548 0.242157 -0.261983
v -0.261983 0.15375 -0.261983
v -0.205839 0.15375 -0.30806
v -0.204711 0.236288 -0.30806
v -0.141008 0.229593 -0.342297
v -0.141784 0.15375 -0.342297
v -0.072281 0.15375 -0.363381
v -0.071885 0.222328 -0.363381
v -0.36139 0.252756 -0.072281
v -0.363381 0.15375 -0.072281
v 0 0.15375 -0.3705
v -0 0.214772 -0.3705
v 0.306372 0.182571 -0.205839
v 0.30806 0.15375 -0.205839
v 0.342297 0.15375 -0.141784
v 0.340422 0.178992 -0.141784
v 0.204711 0.193256 -0.30806
v 0.205839 0.15375 -0.30806
v 0.261983 0.15375 -0.261983
v 0.260548 0.187387 -0.261983
v 0.071885 0.207217 -0.363381
v 0.072281 0.15375 -0.363381
v 0.141784 0.15375 -0.342297
v 0.141008 0.199952 -0.342297
v 0.363381 0.15375 -0.072281
v 0.36139 0.176789 -0.072281
v -0 0.214772 0
v 0.340422 0.178992 0.141784
v 0.306372 0.182571 0.205839
v 0.260548 0.187387 0.261983
v 0.204711 0.193256 0.30806
v 0.141008 0.199952 0.342297
v 0.071885 0.207217 0.363381
v 0.36139 0.176789 0.072281
v -0 0.214772 0.3705
v 0.36847 0.176044 -0
v -0.306372 0.246973 0.205839
v -0.340422 0.250552 0.141784
v -0.204711 0.236288 0.30806
v -0.260548 0.242157 0.261983
v -0.071885 0.222328 0.363381
v -0.141008 0.229593 0.342297
v -0.36139 0.252756 0.072281
v -0.36847 0.2535 -0
v -0.340422 0.250552 -0.141784
v -0.306372 0.246973 -0.205839
v -0.260548 0.242157 -0.261983
v -0.204711 0.236288 -0.30806
v -0.141008 0.229593 -0.342297
v -0.071885 0.222328 -0.363381
v -0.36139 0.252756 -0.072281
v -0 0.214772 -0.3705
v 0.306372 0.182571 -0.205839
v 0.340422 0.178992 -0.141784
v 0.204711 0.193256 -0.30806
v 0.260548 0.187387 -0.261983
v 0.071885 0.207217 -0.363381
v 0.141008 0.199952 -0.342297
v 0.36139 0.176789 -0.072281
v 0.342297 0.15375 0.141784
v 0.368628 0.15375 0.152691
v 0.30806 0.15375 0.205839
v 0.331756 0.15375 0.221673
v 0.261983 0.15375 0.261983
v 0.282136 0.15375 0.282136
v 0.205839 0.15375 0.30806
v 0.221673 0.15375 0.331756
v 0.141784 0.15375 0.342297
v 0.152691 0.15375 0.368628
v 0.072281 0.15375 0.363381
v 0.077841 0.15375 0.391333
v 0.363381 0.15375 0.072281
v 0.391333 0.15375 0.077841
v 0 0.15375 0.399
v 0 0.15375 0.3705
v 0.3705 0.15375 -0
v 0.394661 0.15375 0.044056
v 0.30806 0.15375 -0.205839
v 0.368628 0.15375 -0.152691
v 0.342297 0.15375 -0.141784
v 0.331756 0.15375 -0.221673
v 0.205839 0.15375 -0.30806
v 0.282136 0.15375 -0.282136
v 0.261983 0.15375 -0.261983
v 0.221673 0.15375 -0.331756
v 0.072281 0.15375 -0.363381
v 0.152691 0.15375 -0.368628
v 0.141784 0.15375 -0.342297
v 0.077841 0.15375 -0.391333
v 0.391333 0.15375 -0.077841
v 0.363381 0.15375 -0.072281
v 0 0.15375 -0.399
v 0 0.15375 -0.3705
v 0.394661 0.15375 -0.044056
v -0.342297 0.15375 -0.141784
v -0.368628 0.15375 -0.152691
v -0.30806 0.15375 -0.205839
v -0.331756 0.15375 -0.221673
v -0.261983 0.15375 -0.261983
v -0.282136 0.15375 -0.282136
v -0.205839 0.15375 -0.30806
v -0.221673 0.15375 -0.331756
v -0.141784 0.15375 -0.342297
v -0.152691 0.15375 -0.368628
v -0.072281 0.15375 -0.363381
v -0.077841 0.15375 -0.391333
v -0.363381 0.15375 -0.072281
v -0.391333 0.15375 -0.077841
v -0.3705 0.15375 -0
v -0.394661 0.15375 -0.044056
v -0.30806 0.15375 0.205839
v -0.368628 0.15375 0.152691
v -0.342297 0.15375 0.141784
v -0.331756 0.15375 0.221673
v -0.205839 0.15375 0.30806
v -0.282136 0.15375 0.282136
v -0.261983 0.15375 0.261983
v -0.221673 0.15375 0.331756
v -0.072281 0.15375 0.363381
v -0.152691 0.15375 0.368628
v -0.141784 0.15375 0.342297
v -0.077841 0.15375 0.391333
v -0.391333 0.15375 0.077841
v -0.363381 0.15375 0.072281
v -0.394661 0.15375 0.044056
v 0.429836 0.15375 0.044052
v 0.429836 0.15375 -0.044052
v 0.451862 0.15375 0.03815
v 0.467986 0.15375 0.022026
v 0.473888 0.15375 0
v 0.467986 0.15375 -0.022026
v 0.451862 0.15375 -0.03815
v -0.429836 0.15375 0.044052
v -0.451862 0.15375 0.03815
v -0.467986 0.15375 0.022026
v -0.473888 0.15375 -0
v -0.467986 0.15375 -0.022026
v -0.451862 0.15375 -0.03815
v -0.429836 0.15375 -0.044052
vt 0.402455 0.009607017
vt 0.5 0
vt 0.5 0
vt 0.402455 0.009607017
vt 0.308658 0.03806001
vt 0.308658 0.03806001
vt 0.222215 0.08426499
vt 0.222215 0.08426499
vt 0.146447 0.146447
vt 0.146447 0.146447
vt 0.084265 0.222215
vt 0.084265 0.222215
vt 0.03806 0.308658
vt 0.03806 0.308658
vt 0.009607 0.40245497
vt 0.009607 0.40245497
vt 0 0.5
vt 0 0.5
vt 0.5 0
vt 0.402455 0.009607017
vt 0.443099 0.213938
vt 0.443099 0.213938
vt 0.402455 0.009607017
vt 0.308658 0.03806001
vt 0.388384 0.23053503
vt 0.308658 0.03806001
vt 0.337959 0.257488
vt 0.222215 0.08426499
vt 0.337959 0.257488
vt 0.308658 0.03806001
vt 0.337959 0.257488
vt 0.222215 0.08426499
vt 0.146447 0.146447
vt 0.293761 0.29376101
vt 0.146447 0.146447
vt 0.257488 0.337959
vt 0.084265 0.222215
vt 0.257488 0.337959
vt 0.146447 0.146447
vt 0.257488 0.337959
vt 0.084265 0.222215
vt 0.03806 0.308658
vt 0.230535 0.38838398
vt 0.03806 0.308658
vt 0.213938 0.44309902
vt 0.009607 0.40245497
vt 0.213938 0.44309902
vt 0.03806 0.308658
vt 0.213938 0.44309902
vt 0.009607 0.40245497
vt 0 0.5
vt 0.443099 0.213938
vt 0.337959 0.257488
vt 0.257488 0.337959
vt 0 0.5
vt 0.208333 0.5
vt 0.213938 0.44309902
vt 0.479275 0.14813101
vt 0.5 0.14236099
vt 0.5 0
vt 0.460989 0.21217299
vt 0.460992 0.18402803
vt 0.443099 0.213938
vt 0.464996 0.163818
vt 0.5 1
vt 0.5 1
vt 0.402455 0.990392983
vt 0.402455 0.990392983
vt 0.308658 0.96193999
vt 0.308658 0.96193999
vt 0.222215 0.91573501
vt 0.222215 0.91573501
vt 0.146447 0.853553
vt 0.146447 0.853553
vt 0.084265 0.777785
vt 0.084265 0.777785
vt 0.03806 0.691342
vt 0.03806 0.691342
vt 0.009607 0.59754503
vt 0.009607 0.59754503
vt 0.443099 0.786062
vt 0.402455 0.990392983
vt 0.5 1
vt 0.308658 0.96193999
vt 0.402455 0.990392983
vt 0.443099 0.786062
vt 0.337959 0.742512
vt 0.308658 0.96193999
vt 0.388384 0.76946503
vt 0.308658 0.96193999
vt 0.337959 0.742512
vt 0.222215 0.91573501
vt 0.146447 0.853553
vt 0.222215 0.91573501
vt 0.337959 0.742512
vt 0.257488 0.662041
vt 0.146447 0.853553
vt 0.293761 0.70623899
vt 0.146447 0.853553
vt 0.257488 0.662041
vt 0.084265 0.777785
vt 0.03806 0.691342
vt 0.084265 0.777785
vt 0.257488 0.662041
vt 0.213938 0.55690098
vt 0.03806 0.691342
vt 0.230535 0.61161602
vt 0.03806 0.691342
vt 0.213938 0.55690098
vt 0.009607 0.59754503
vt 0 0.5
vt 0.009607 0.59754503
vt 0.213938 0.55690098
vt 0.443099 0.786062
vt 0.337959 0.742512
vt 0.257488 0.662041
vt 0.213938 0.55690098
vt 0.5 1
vt 0.5 0.85763901
vt 0.479275 0.85186899
vt 0.443099 0.786062
vt 0.460992 0.81597197
vt 0.460989 0.78782701
vt 0.464996 0.836182
vt 0.467795 0.211505
vt 0.460989 0.21217299
vt 0.443099 0.213938
vt 0.443099 0.213938
vt 0.460989 0.21217299
vt 0.467795 0.211505
vt 0.467798 0.18579197
vt 0.460992 0.18402803
vt 0.472113 0.16969097
vt 0.464996 0.163818
vt 0.483899 0.15790498
vt 0.479275 0.14813101
vt 0.5 0.15359104
vt 0.5 0.14236099
vt 0.388384 0.23053503
vt 0.388384 0.23053503
vt 0.337959 0.257488
vt 0.337959 0.257488
vt 0.293761 0.29376101
vt 0.293761 0.29376101
vt 0.257488 0.337959
vt 0.257488 0.337959
vt 0.230535 0.38838398
vt 0.230535 0.38838398
vt 0.213938 0.44309902
vt 0.213938 0.44309902
vt 0.208333 0.5
vt 0.208333 0.5
vt 0.213938 0.55690098
vt 0.213938 0.55690098
vt 0.230535 0.61161602
vt 0.230535 0.61161602
vt 0.257488 0.662041
vt 0.257488 0.662041
vt 0.293761 0.70623899
vt 0.293761 0.70623899
vt 0.337959 0.742512
vt 0.337959 0.742512
vt 0.388384 0.76946503
vt 0.388384 0.76946503
vt 0.443099 0.786062
vt 0.443099 0.786062
vt 0.467795 0.788495
vt 0.460989 0.78782701
vt 0.467798 0.81420797
vt 0.467795 0.788495
vt 0.460992 0.81597197
vt 0.460989 0.78782701
vt 0.472113 0.83030897
vt 0.464996 0.836182
vt 0.483899 0.84209502
vt 0.479275 0.85186899
vt 0.5 0.85763901
vt 0.5 0.84640902
vt 0.597545 0.990392983
vt 0.597545 0.990392983
vt 0.691342 0.96193999
vt 0.691342 0.96193999
vt 0.777785 0.91573501
vt 0.777785 0.91573501
vt 0.853553 0.853553
vt 0.853553 0.853553
vt 0.915735 0.777785
vt 0.915735 0.777785
vt 0.96194 0.691342
vt 0.96194 0.691342
vt 0.990393 0.59754503
vt 0.990393 0.59754503
vt 1 0.5
vt 1 0.5
vt 0.5 1
vt 0.597545 0.990392983
vt 0.556901 0.786062
vt 0.556901 0.786062
vt 0.597545 0.990392983
vt 0.691342 0.96193999
vt 0.611616 0.76946503
vt 0.691342 0.96193999
vt 0.662041 0.742512
vt 0.777785 0.91573501
vt 0.662041 0.742512
vt 0.691342 0.96193999
vt 0.662041 0.742512
vt 0.777785 0.91573501
vt 0.853553 0.853553
vt 0.706239 0.70623899
vt 0.853553 0.853553
vt 0.742512 0.662041
vt 0.915735 0.777785
vt 0.742512 0.662041
vt 0.853553 0.853553
vt 0.742512 0.662041
vt 0.915735 0.777785
vt 0.96194 0.691342
vt 0.769465 0.61161602
vt 0.96194 0.691342
vt 0.786062 0.55690098
vt 0.990393 0.59754503
vt 0.786062 0.55690098
vt 0.96194 0.691342
vt 0.786062 0.55690098
vt 0.990393 0.59754503
vt 1 0.5
vt 0.556901 0.786062
vt 0.662041 0.742512
vt 0.742512 0.662041
vt 1 0.5
vt 0.791667 0.5
vt 0.786062 0.55690098
vt 0.520725 0.85186899
vt 0.539011 0.78782701
vt 0.539008 0.81597197
vt 0.556901 0.786062
vt 0.535004 0.836182
vt 0.597545 0.009607017
vt 0.597545 0.009607017
vt 0.691342 0.03806001
vt 0.691342 0.03806001
vt 0.777785 0.08426499
vt 0.777785 0.08426499
vt 0.853553 0.146447
vt 0.853553 0.146447
vt 0.915735 0.222215
vt 0.915735 0.222215
vt 0.96194 0.308658
vt 0.96194 0.308658
vt 0.990393 0.40245497
vt 0.990393 0.40245497
vt 0.556901 0.213938
vt 0.597545 0.009607017
vt 0.5 0
vt 0.691342 0.03806001
vt 0.597545 0.009607017
vt 0.556901 0.213938
vt 0.662041 0.257488
vt 0.691342 0.03806001
vt 0.611616 0.23053503
vt 0.691342 0.03806001
vt 0.662041 0.257488
vt 0.777785 0.08426499
vt 0.853553 0.146447
vt 0.777785 0.08426499
vt 0.662041 0.257488
vt 0.742512 0.337959
vt 0.853553 0.146447
vt 0.706239 0.29376101
vt 0.853553 0.146447
vt 0.742512 0.337959
vt 0.915735 0.222215
vt 0.96194 0.308658
vt 0.915735 0.222215
vt 0.742512 0.337959
vt 0.786062 0.44309902
vt 0.96194 0.308658
vt 0.769465 0.38838398
vt 0.96194 0.308658
vt 0.786062 0.44309902
vt 0.990393 0.40245497
vt 1 0.5
vt 0.990393 0.40245497
vt 0.786062 0.44309902
vt 0.556901 0.213938
vt 0.662041 0.257488
vt 0.742512 0.337959
vt 0.786062 0.44309902
vt 0.520725 0.14813101
vt 0.556901 0.213938
vt 0.539008 0.18402803
vt 0.539011 0.21217299
vt 0.535004 0.163818
vt 0.532205 0.788495
vt 0.539011 0.78782701
vt 0.556901 0.786062
vt 0.556901 0.786062
vt 0.539011 0.78782701
vt 0.532205 0.788495
vt 0.532202 0.81420797
vt 0.539008 0.81597197
vt 0.527887 0.83030897
vt 0.535004 0.836182
vt 0.516101 0.84209502
vt 0.520725 0.85186899
vt 0.611616 0.76946503
vt 0.611616 0.76946503
vt 0.662041 0.742512
vt 0.662041 0.742512
vt 0.706239 0.70623899
vt 0.706239 0.70623899
vt 0.742512 0.662041
vt 0.742512 0.662041
vt 0.769465 0.61161602
vt 0.769465 0.61161602
vt 0.786062 0.55690098
vt 0.786062 0.55690098
vt 0.791667 0.5
vt 0.791667 0.5
vt 0.786062 0.44309902
vt 0.786062 0.44309902
vt 0.769465 0.38838398
vt 0.769465 0.38838398
vt 0.742512 0.337959
vt 0.742512 0.337959
vt 0.706239 0.29376101
vt 0.706239 0.29376101
vt 0.662041 0.257488
vt 0.662041 0.257488
vt 0.611616 0.23053503
vt 0.611616 0.23053503
vt 0.556901 0.213938
vt 0.556901 0.213938
vt 0.532205 0.211505
vt 0.539011 0.21217299
vt 0.532202 0.18579197
vt 0.532205 0.211505
vt 0.539008 0.18402803
vt 0.539011 0.21217299
vt 0.527887 0.16969097
vt 0.535004 0.163818
vt 0.516101 0.15790498
vt 0.520725 0.14813101
vt 0.396357 0.251153
vt 0.396357 0.24978298
vt 0.349533 0.27480996
vt 0.349533 0.276044
vt 0.308492 0.309541
vt 0.308492 0.308492
vt 0.27481 0.34953296
vt 0.27481 0.350357
vt 0.249783 0.39692402
vt 0.249783 0.396357
vt 0.234371 0.447163
vt 0.234371 0.447452
vt 0.447163 0.23582602
vt 0.447163 0.234371
vt 0.229167 0.5
vt 0.229167 0.5
vt 0.5 0.23065001
vt 0.5 0.22916698
vt 0.349533 0.723956
vt 0.349533 0.72518998
vt 0.396357 0.75021702
vt 0.396357 0.748847
vt 0.27481 0.649643
vt 0.27481 0.65046698
vt 0.308492 0.691508
vt 0.308492 0.690459
vt 0.234371 0.552548
vt 0.234371 0.552837
vt 0.249783 0.603643
vt 0.249783 0.60307598
vt 0.447163 0.765629
vt 0.447163 0.76417398
vt 0.5 0.77083302
vt 0.5 0.76934999
vt 0.603643 0.748847
vt 0.603643 0.75021702
vt 0.650467 0.72518998
vt 0.650467 0.723956
vt 0.691508 0.690459
vt 0.691508 0.691508
vt 0.72519 0.65046698
vt 0.72519 0.649643
vt 0.750217 0.60307598
vt 0.750217 0.603643
vt 0.765629 0.552837
vt 0.765629 0.552548
vt 0.552837 0.76417398
vt 0.552837 0.765629
vt 0.770833 0.5
vt 0.770833 0.5
vt 0.650467 0.276044
vt 0.650467 0.27480996
vt 0.603643 0.24978298
vt 0.603643 0.251153
vt 0.72519 0.350357
vt 0.72519 0.34953296
vt 0.691508 0.308492
vt 0.691508 0.309541
vt 0.765629 0.447452
vt 0.765629 0.447163
vt 0.750217 0.396357
vt 0.750217 0.39692402
vt 0.552837 0.234371
vt 0.552837 0.23582602
vt 0.5 0.5
vt 0.396357 0.251153
vt 0.349533 0.276044
vt 0.308492 0.309541
vt 0.27481 0.350357
vt 0.249783 0.39692402
vt 0.234371 0.447452
vt 0.447163 0.23582602
vt 0.229167 0.5
vt 0.5 0.23065001
vt 0.349533 0.723956
vt 0.396357 0.748847
vt 0.27481 0.649643
vt 0.308492 0.690459
vt 0.234371 0.552548
vt 0.249783 0.60307598
vt 0.447163 0.76417398
vt 0.5 0.76934999
vt 0.603643 0.748847
vt 0.650467 0.723956
vt 0.691508 0.690459
vt 0.72519 0.649643
vt 0.750217 0.60307598
vt 0.765629 0.552548
vt 0.552837 0.76417398
vt 0.770833 0.5
vt 0.650467 0.276044
vt 0.603643 0.251153
vt 0.72519 0.350357
vt 0.691508 0.309541
vt 0.765629 0.447452
vt 0.750217 0.39692402
vt 0.552837 0.23582602
vt 0.396357 0.24978298
vt 0.388384 0.23053503
vt 0.349533 0.27480996
vt 0.337959 0.257488
vt 0.308492 0.308492
vt 0.293761 0.29376101
vt 0.27481 0.34953296
vt 0.257488 0.337959
vt 0.249783 0.396357
vt 0.230535 0.38838398
vt 0.234371 0.447163
vt 0.213938 0.44309902
vt 0.447163 0.234371
vt 0.443099 0.213938
vt 0.208333 0.5
vt 0.229167 0.5
vt 0.5 0.22916698
vt 0.467795 0.211505
vt 0.650467 0.27480996
vt 0.611616 0.23053503
vt 0.603643 0.24978298
vt 0.662041 0.257488
vt 0.72519 0.34953296
vt 0.706239 0.29376101
vt 0.691508 0.308492
vt 0.742512 0.337959
vt 0.765629 0.447163
vt 0.769465 0.38838398
vt 0.750217 0.396357
vt 0.786062 0.44309902
vt 0.556901 0.213938
vt 0.552837 0.234371
vt 0.791667 0.5
vt 0.770833 0.5
vt 0.532205 0.211505
vt 0.603643 0.75021702
vt 0.611616 0.76946503
vt 0.650467 0.72518998
vt 0.662041 0.742512
vt 0.691508 0.691508
vt 0.706239 0.70623899
vt 0.72519 0.65046698
vt 0.742512 0.662041
vt 0.750217 0.603643
vt 0.769465 0.61161602
vt 0.765629 0.552837
vt 0.786062 0.55690098
vt 0.552837 0.765629
vt 0.556901 0.786062
vt 0.5 0.77083302
vt 0.532205 0.788495
vt 0.349533 0.72518998
vt 0.388384 0.76946503
vt 0.396357 0.75021702
vt 0.337959 0.742512
vt 0.27481 0.65046698
vt 0.293761 0.70623899
vt 0.308492 0.691508
vt 0.257488 0.662041
vt 0.234371 0.552837
vt 0.230535 0.61161602
vt 0.249783 0.603643
vt 0.213938 0.55690098
vt 0.443099 0.786062
vt 0.447163 0.765629
vt 0.467795 0.788495
vt 0.467798 0.18579197
vt 0.532202 0.18579197
vt 0.472113 0.16969097
vt 0.483899 0.15790498
vt 0.5 0.15359104
vt 0.516101 0.15790498
vt 0.527887 0.16969097
vt 0.467798 0.81420797
vt 0.472113 0.83030897
vt 0.483899 0.84209502
vt 0.5 0.84640902
vt 0.516101 0.84209502
vt 0.527887 0.83030897
vt 0.532202 0.81420797
vn 0.980773 0 0.195074
vn 1 0 0
vn 1 0 0
vn 0.980773 0 0.195074
vn 0.923856 0 0.382672
vn 0.923856 0 0.382672
vn 0.831446 0 0.555559
vn 0.831446 0 0.555559
vn 0.707083 0 0.707083
vn 0.707083 0 0.707083
vn 0.555559 0 0.831446
vn 0.555559 0 0.831446
vn 0.382672 0 0.923856
vn 0.382672 0 0.923856
vn 0.195074 0 0.980773
vn 0.195074 0 0.980773
vn 0 0 1
vn 0 0 1
vn 0.358226 0.9082 0.216315
vn 0.358226 0.9082 0.216315
vn 0.358226 0.9082 0.216315
vn 0.413739 0.9082 -0.062746
vn 0.413739 0.9082 -0.062746
vn 0.413739 0.9082 -0.062746
vn 0.297372 0.946745 0.123173
vn 0.297372 0.946745 0.123173
vn 0.285104 0.946287 0.152379
vn 0.248177 0.9082 0.336924
vn 0.248177 0.9082 0.336924
vn 0.248177 0.9082 0.336924
vn 0.406262 0.9082 0.100345
vn 0.406262 0.9082 0.100345
vn 0.406262 0.9082 0.100345
vn 0.227607 0.946745 0.227607
vn 0.227607 0.946745 0.227607
vn 0.205084 0.946287 0.249886
vn 0.100345 0.9082 0.406262
vn 0.100345 0.9082 0.406262
vn 0.100345 0.9082 0.406262
vn 0.336924 0.9082 0.248177
vn 0.336924 0.9082 0.248177
vn 0.336924 0.9082 0.248177
vn 0.123173 0.946745 0.297372
vn 0.123173 0.946745 0.297372
vn 0.093844 0.946287 0.309366
vn -0.062746 0.9082 0.413739
vn -0.062746 0.9082 0.413739
vn -0.062746 0.9082 0.413739
vn 0.216315 0.9082 0.358226
vn 0.216315 0.9082 0.358226
vn 0.216315 0.9082 0.358226
vn 0.309366 0.946287 0.093844
vn 0.249886 0.946287 0.205084
vn 0.152379 0.946287 0.285104
vn 0 0.946745 0.321879
vn 0 0.946745 0.321879
vn 0.031678 0.946287 0.321726
vn 0.320444 0.946684 0.032655
vn 0.321879 0.946745 0
vn 0.320261 0.947295 0
vn 0.330332 0.943297 0.032563
vn 0.316355 0.948607 0.006287
vn 0.327006 0.944639 0.026429
vn 0.316477 0.948546 0.009888
vn -1 0 0
vn -1 0 0
vn -0.980773 0 0.195074
vn -0.980773 0 0.195074
vn -0.923856 0 0.382672
vn -0.923856 0 0.382672
vn -0.831446 0 0.555559
vn -0.831446 0 0.555559
vn -0.707083 0 0.707083
vn -0.707083 0 0.707083
vn -0.555559 0 0.831446
vn -0.555559 0 0.831446
vn -0.382672 0 0.923856
vn -0.382672 0 0.923856
vn -0.195074 0 0.980773
vn -0.195074 0 0.980773
vn -0.358226 0.9082 0.216315
vn -0.358226 0.9082 0.216315
vn -0.358226 0.9082 0.216315
vn -0.413739 0.9082 -0.062746
vn -0.413739 0.9082 -0.062746
vn -0.413739 0.9082 -0.062746
vn -0.285104 0.946287 0.152379
vn -0.297372 0.946745 0.123173
vn -0.297372 0.946745 0.123173
vn -0.248177 0.9082 0.336924
vn -0.248177 0.9082 0.336924
vn -0.248177 0.9082 0.336924
vn -0.406262 0.9082 0.100345
vn -0.406262 0.9082 0.100345
vn -0.406262 0.9082 0.100345
vn -0.205084 0.946287 0.249886
vn -0.227607 0.946745 0.227607
vn -0.227607 0.946745 0.227607
vn -0.100345 0.9082 0.406262
vn -0.100345 0.9082 0.406262
vn -0.100345 0.9082 0.406262
vn -0.336924 0.9082 0.248177
vn -0.336924 0.9082 0.248177
vn -0.336924 0.9082 0.248177
vn -0.093844 0.946287 0.309366
vn -0.123173 0.946745 0.297372
vn -0.123173 0.946745 0.297372
vn 0.062746 0.9082 0.413739
vn 0.062746 0.9082 0.413739
vn 0.062746 0.9082 0.413739
vn -0.216315 0.9082 0.358226
vn -0.216315 0.9082 0.358226
vn -0.216315 0.9082 0.358226
vn -0.309366 0.946287 0.093844
vn -0.249886 0.946287 0.205084
vn -0.152379 0.946287 0.285104
vn -0.031678 0.946287 0.321726
vn -0.320261 0.947295 0
vn -0.321879 0.946745 0
vn -0.320444 0.946684 0.032655
vn -0.327006 0.944639 0.026429
vn -0.316355 0.948607 0.006287
vn -0.330332 0.943297 0.032563
vn -0.316477 0.948546 0.009888
vn 0.995148 0.000305 0.098086
vn 0.995148 0.000458 0.098117
vn 0.980773 0.000031 0.195074
vn 0.980773 0 0.195074
vn 0.049165 0.615314 0.786737
vn 0.000061 0.718009 0.696005
vn 0.172887 0.430738 0.885739
vn 0.219947 0.376568 0.899869
vn 0.466933 0.379315 0.798761
vn 0.543199 0.360454 0.758263
vn 0.807337 0.36729 0.461806
vn 0.831355 0.358501 0.424574
vn 0.932005 0.362377 -0.001617
vn 0.932096 0.362133 -0.001038
vn 0.923856 0 0.382672
vn 0.923856 0 0.382672
vn 0.831446 0 0.555559
vn 0.831446 0 0.555559
vn 0.707083 0 0.707083
vn 0.707083 0 0.707083
vn 0.555559 0 0.831446
vn 0.555559 0 0.831446
vn 0.382672 0 0.923856
vn 0.382672 0 0.923856
vn 0.195074 0 0.980773
vn 0.195074 0 0.980773
vn 0 0 0.999969
vn 0 0 1
vn -0.195074 0 0.980773
vn -0.195074 0 0.980773
vn -0.382672 0 0.923856
vn -0.382672 0 0.923856
vn -0.555559 0 0.831446
vn -0.555559 0 0.831446
vn -0.707083 0 0.707083
vn -0.707083 0 0.707083
vn -0.831446 0 0.555559
vn -0.831446 0 0.555559
vn -0.923856 0 0.382672
vn -0.923856 0 0.382672
vn -0.980773 0.000031 0.195135
vn -0.980773 0 0.195135
vn -0.995178 0.000336 0.097995
vn -0.995178 0.000275 0.098025
vn -0.132023 0.376904 0.916776
vn -0.162206 0.596088 0.78634
vn -0.210761 0.42317 0.881191
vn -0.239967 0.685141 0.687704
vn -0.465377 0.357768 0.809534
vn -0.542833 0.378246 0.749809
vn -0.807123 0.357463 0.469802
vn -0.827631 0.365856 0.425581
vn -0.932096 0.362133 0.001038
vn -0.932005 0.362377 0.001617
vn -0.980773 0 -0.195074
vn -0.980773 0 -0.195074
vn -0.923856 0 -0.382672
vn -0.923856 0 -0.382672
vn -0.831446 0 -0.555559
vn -0.831446 0 -0.555559
vn -0.707083 0 -0.707083
vn -0.707083 0 -0.707083
vn -0.555559 0 -0.831446
vn -0.555559 0 -0.831446
vn -0.382672 0 -0.923856
vn -0.382672 0 -0.923856
vn -0.195074 0 -0.980773
vn -0.195074 0 -0.980773
vn 0 0 -1
vn 0 0 -1
vn -0.358226 0.9082 -0.216315
vn -0.358226 0.9082 -0.216315
vn -0.358226 0.9082 -0.216315
vn -0.413739 0.9082 0.062746
vn -0.413739 0.9082 0.062746
vn -0.413739 0.9082 0.062746
vn -0.297372 0.946745 -0.123173
vn -0.297372 0.946745 -0.123173
vn -0.285104 0.946287 -0.152379
vn -0.248177 0.9082 -0.336924
vn -0.248177 0.9082 -0.336924
vn -0.248177 0.9082 -0.336924
vn -0.406262 0.9082 -0.100345
vn -0.406262 0.9082 -0.100345
vn -0.406262 0.9082 -0.100345
vn -0.227607 0.946745 -0.227607
vn -0.227607 0.946745 -0.227607
vn -0.205084 0.946287 -0.249886
vn -0.100345 0.9082 -0.406262
vn -0.100345 0.9082 -0.406262
vn -0.100345 0.9082 -0.406262
vn -0.336924 0.9082 -0.248177
vn -0.336924 0.9082 -0.248177
vn -0.336924 0.9082 -0.248177
vn -0.123173 0.946745 -0.297372
vn -0.123173 0.946745 -0.297372
vn -0.093844 0.946287 -0.309366
vn 0.062746 0.9082 -0.413739
vn 0.062746 0.9082 -0.413739
vn 0.062746 0.9082 -0.413739
vn -0.216315 0.9082 -0.358226
vn -0.216315 0.9082 -0.358226
vn -0.216315 0.9082 -0.358226
vn -0.309366 0.946287 -0.093844
vn -0.249886 0.946287 -0.205084
vn -0.152379 0.946287 -0.285104
vn 0 0.946745 -0.321879
vn 0 0.946745 -0.321879
vn -0.031678 0.946287 -0.321726
vn -0.320444 0.946684 -0.032655
vn -0.330332 0.943297 -0.032563
vn -0.316355 0.948607 -0.006287
vn -0.327006 0.944639 -0.026429
vn -0.316477 0.948546 -0.009888
vn 0.980773 0 -0.195074
vn 0.980773 0 -0.195074
vn 0.923856 0 -0.382672
vn 0.923856 0 -0.382672
vn 0.831446 0 -0.555559
vn 0.831446 0 -0.555559
vn 0.707083 0 -0.707083
vn 0.707083 0 -0.707083
vn 0.555559 0 -0.831446
vn 0.555559 0 -0.831446
vn 0.382672 0 -0.923856
vn 0.382672 0 -0.923856
vn 0.195074 0 -0.980773
vn 0.195074 0 -0.980773
vn 0.358226 0.9082 -0.216315
vn 0.358226 0.9082 -0.216315
vn 0.358226 0.9082 -0.216315
vn 0.413739 0.9082 0.062746
vn 0.413739 0.9082 0.062746
vn 0.413739 0.9082 0.062746
vn 0.285104 0.946287 -0.152379
vn 0.297372 0.946745 -0.123173
vn 0.297372 0.946745 -0.123173
vn 0.248177 0.9082 -0.336924
vn 0.248177 0.9082 -0.336924
vn 0.248177 0.9082 -0.336924
vn 0.406262 0.9082 -0.100345
vn 0.406262 0.9082 -0.100345
vn 0.406262 0.9082 -0.100345
vn 0.205084 0.946287 -0.249886
vn 0.227607 0.946745 -0.227607
vn 0.227607 0.946745 -0.227607
vn 0.100345 0.9082 -0.406262
vn 0.100345 0.9082 -0.406262
vn 0.100345 0.9082 -0.406262
vn 0.336924 0.9082 -0.248177
vn 0.336924 0.9082 -0.248177
vn 0.336924 0.9082 -0.248177
vn 0.093844 0.946287 -0.309366
vn 0.123173 0.946745 -0.297372
vn 0.123173 0.946745 -0.297372
vn -0.062746 0.9082 -0.413739
vn -0.062746 0.9082 -0.413739
vn -0.062746 0.9082 -0.413739
vn 0.216315 0.9082 -0.358226
vn 0.216315 0.9082 -0.358226
vn 0.216315 0.9082 -0.358226
vn 0.309366 0.946287 -0.093844
vn 0.249886 0.946287 -0.205084
vn 0.152379 0.946287 -0.285104
vn 0.031678 0.946287 -0.321726
vn 0.320444 0.946684 -0.032655
vn 0.327006 0.944639 -0.026429
vn 0.316355 0.948607 -0.006287
vn 0.330332 0.943297 -0.032563
vn 0.316477 0.948546 -0.009888
vn -0.995148 0.000305 -0.098086
vn -0.995148 0.000458 -0.098117
vn -0.980773 0.000031 -0.195074
vn -0.980773 0 -0.195074
vn -0.049165 0.615314 -0.786737
vn -0.000061 0.718009 -0.696005
vn -0.172887 0.430738 -0.885739
vn -0.219947 0.376568 -0.899869
vn -0.466933 0.379315 -0.798761
vn -0.543199 0.360454 -0.758263
vn -0.807337 0.36729 -0.461806
vn -0.831355 0.358501 -0.424574
vn -0.923856 0 -0.382672
vn -0.923856 0 -0.382672
vn -0.831446 0 -0.555559
vn -0.831446 0 -0.555559
vn -0.707083 0 -0.707083
vn -0.707083 0 -0.707083
vn -0.555559 0 -0.831446
vn -0.555559 0 -0.831446
vn -0.382672 0 -0.923856
vn -0.382672 0 -0.923856
vn -0.195074 0 -0.980773
vn -0.195074 0 -0.980773
vn 0 0 -0.999969
vn 0 0 -1
vn 0.195074 0 -0.980773
vn 0.195074 0 -0.980773
vn 0.382672 0 -0.923856
vn 0.382672 0 -0.923856
vn 0.555559 0 -0.831446
vn 0.555559 0 -0.831446
vn 0.707083 0 -0.707083
vn 0.707083 0 -0.707083
vn 0.831446 0 -0.555559
vn 0.831446 0 -0.555559
vn 0.923856 0 -0.382672
vn 0.923856 0 -0.382672
vn 0.980773 0.000031 -0.195135
vn 0.980773 0 -0.195135
vn 0.995178 0.000336 -0.097995
vn 0.995178 0.000275 -0.098025
vn 0.132023 0.376904 -0.916776
vn 0.162206 0.596088 -0.78634
vn 0.210761 0.42317 -0.881191
vn 0.239967 0.685141 -0.687704
vn 0.465377 0.357768 -0.809534
vn 0.542833 0.378246 -0.749809
vn 0.807123 0.357463 -0.469802
vn 0.827631 0.365856 -0.425581
vn 0.921079 0.066713 0.383557
vn 0.922849 0.069704 0.378735
vn 0.832606 0.050233 0.551561
vn 0.829066 0.046785 0.557146
vn 0.704337 0.028535 0.70925
vn 0.709403 0.03177 0.704062
vn 0.55797 0.017182 0.829646
vn 0.551866 0.014679 0.833796
vn 0.37785 0.005737 0.92584
vn 0.384503 0.007355 0.923063
vn 0.196081 0.001923 0.98056
vn 0.189276 0.001221 0.981903
vn 0.977142 0.083163 0.195593
vn 0.977538 0.084902 0.192785
vn 0.000153 0.000122 1
vn -0.006378 0.000122 0.999969
vn 0.995911 0.090213 0.00058
vn 0.995911 0.090213 0.00058
vn -0.833735 0.015412 0.551897
vn -0.831935 0.014649 0.554643
vn -0.924009 0.017548 0.381909
vn -0.924863 0.018128 0.379803
vn -0.560594 0.008118 0.828028
vn -0.556475 0.007172 0.830805
vn -0.707846 0.011048 0.706229
vn -0.710807 0.011963 0.703269
vn -0.201575 0.001495 0.979461
vn -0.195563 0.000977 0.980682
vn -0.383496 0.003601 0.923521
vn -0.388684 0.004425 0.921354
vn -0.980682 0.019501 0.194617
vn -0.980895 0.019776 0.193457
vn -0.999786 0.020264 -0.000061
vn -0.999786 0.020264 -0.000061
vn -0.924863 0.017579 -0.379864
vn -0.923978 0.018097 -0.382
vn -0.831874 0.015381 -0.554704
vn -0.833735 0.014679 -0.551927
vn -0.710868 0.011109 -0.703207
vn -0.707816 0.011902 -0.706259
vn -0.556475 0.008057 -0.830775
vn -0.560717 0.007263 -0.827967
vn -0.388867 0.003662 -0.921262
vn -0.383587 0.004364 -0.92346
vn -0.195746 0.001465 -0.980621
vn -0.201849 0.001038 -0.9794
vn -0.980865 0.019501 -0.193579
vn -0.980651 0.019776 -0.194739
vn -0.000122 0.000122 -1
vn -0.006684 0.000122 -0.999969
vn 0.829279 0.049989 -0.556536
vn 0.832759 0.04706 -0.551592
vn 0.923246 0.066897 -0.378307
vn 0.921262 0.069521 -0.382641
vn 0.551866 0.016907 -0.833735
vn 0.557634 0.014893 -0.82992
vn 0.709281 0.02884 -0.704306
vn 0.704489 0.031465 -0.709006
vn 0.189001 0.001862 -0.981964
vn 0.195685 0.001282 -0.980651
vn 0.384106 0.00589 -0.923246
vn 0.377697 0.007172 -0.925871
vn 0.977874 0.083254 -0.19187
vn 0.977203 0.084841 -0.194464
vn 0.104526 0.994507 0
vn 0.104526 0.994507 0
vn 0.104526 0.994507 0
vn 0.104526 0.994507 0
vn 0.104526 0.994507 0
vn 0.104526 0.994507 0
vn 0.104526 0.994507 0
vn 0.104526 0.994507 0
vn 0.104526 0.994507 0
vn 0.104526 0.994507 0
vn 0.104526 0.994507 0
vn 0.104526 0.994507 0
vn 0.104526 0.994507 0
vn 0.104526 0.994507 0
vn 0.104526 0.994507 0
vn 0.104526 0.994507 0
vn 0.104526 0.994507 0
vn 0.104526 0.994507 0
vn 0.104526 0.994507 0
vn 0.104526 0.994507 0
vn 0.104526 0.994507 0
vn 0.104526 0.994507 0
vn 0.104526 0.994507 0
vn 0.104526 0.994507 0
vn 0.104526 0.994507 0
vn 0.104526 0.994507 0
vn 0.104526 0.994507 0
vn 0.104526 0.994507 0
vn 0.104526 0.994507 0
vn 0.104526 0.994507 0
vn 0.104526 0.994507 0
vn 0.104526 0.994507 0
vn 0.104526 0.994507 0
vn 0 1 0
vn 0 1 0
vn 0 1 0
vn 0 1 0
vn 0 1 0
vn 0 0.999969 0
vn 0 1 0
vn 0 1 0
vn 0 1 0
vn 0 1 0
vn 0 1 0
vn 0 1 0
vn 0 1 0
vn 0 1 0
vn 0 1 0
vn 0 1 0
vn 0 1 0
vn 0 1 0
vn 0 1 0
vn 0 1 0
vn 0 1 0
vn 0 1 0
vn 0 1 0
vn 0 0.999969 0
vn 0 1 0
vn 0 1 0
vn 0 1 0
vn 0 1 0
vn 0 1 0
vn 0 1 0
vn 0 1 0
vn 0 1 0
vn 0 1 0
vn 0 1 0
vn 0 1 0
vn 0 1 0
vn 0 1 0
vn 0 1 0
vn 0 1 0
vn 0 1 0
vn 0 0.999969 0
vn 0 1 0
vn 0 1 0
vn 0 1 0
vn 0 1 0
vn 0 1 0
vn 0 1 0
vn 0 1 0
vn 0 1 0
vn 0 1 0
vn 0 1 0
vn 0 1 0
vn 0 1 0
vn 0 1 0
vn 0 1 0
vn 0 1 0
vn 0 0.999969 0
vn 0 1 0
vn 0 1 0
vn 0 1 0
vn 0 1 0
vn 0 1 0
vn 0 1 0
vn 0 1 0
vn 0 1 0
vn 0 1 0
vn 0 1 0
vn 0 1 0
vn 0 1 0
vn 0 0.999969 0
vn 0 1 0
vn 0 0.999969 0
vn 0 1 0
vn 0 1 0
vn 0 1 0
vn 0 0.999969 0
vn 0 1 0
vn 0 0.999969 0
vn 0 1 0
vn 0 1 0
f 21/21/21 20/20/20 19/19/19
f 3/3/3 2/2/2 1/1/1
f 239/239/239 2/2/2 3/3/3
f 2/2/2 4/4/4 1/1/1
f 239/239/239 240/240/240 2/2/2
f 1/1/1 4/4/4 5/5/5
f 241/241/241 240/240/240 239/239/239
f 1/1/1 5/5/5 6/6/6
f 242/242/242 241/241/241 239/239/239
f 6/6/6 5/5/5 7/7/7
f 243/243/243 241/241/241 242/242/242
f 5/5/5 8/8/8 7/7/7
f 243/243/243 244/244/244 241/241/241
f 7/7/7 8/8/8 9/9/9
f 245/245/245 244/244/244 243/243/243
f 7/7/7 9/9/9 10/10/10
f 246/246/246 245/245/245 243/243/243
f 10/10/10 9/9/9 11/11/11
f 247/247/247 245/245/245 246/246/246
f 9/9/9 12/12/12 11/11/11
f 247/247/247 248/248/248 245/245/245
f 11/11/11 12/12/12 13/13/13
f 249/249/249 248/248/248 247/247/247
f 11/11/11 13/13/13 14/14/14
f 250/250/250 249/249/249 247/247/247
f 14/14/14 13/13/13 15/15/15
f 251/251/251 249/249/249 250/250/250
f 13/13/13 16/16/16 15/15/15
f 251/251/251 252/252/252 249/249/249
f 15/15/15 16/16/16 17/17/17
f 193/193/193 252/252/252 251/251/251
f 15/15/15 17/17/17 18/18/18
f 194/194/194 193/193/193 251/251/251
f 18/18/18 17/17/17 79/79/79
f 191/191/191 193/193/193 194/194/194
f 17/17/17 80/80/80 79/79/79
f 191/191/191 192/192/192 193/193/193
f 79/79/79 80/80/80 77/77/77
f 189/189/189 192/192/192 191/191/191
f 79/79/79 77/77/77 78/78/78
f 190/190/190 189/189/189 191/191/191
f 78/78/78 77/77/77 75/75/75
f 187/187/187 189/189/189 190/190/190
f 77/77/77 76/76/76 75/75/75
f 187/187/187 188/188/188 189/189/189
f 75/75/75 76/76/76 73/73/73
f 185/185/185 188/188/188 187/187/187
f 75/75/75 73/73/73 74/74/74
f 186/186/186 185/185/185 187/187/187
f 74/74/74 73/73/73 71/71/71
f 183/183/183 185/185/185 186/186/186
f 73/73/73 72/72/72 71/71/71
f 183/183/183 184/184/184 185/185/185
f 71/71/71 72/72/72 69/69/69
f 181/181/181 184/184/184 183/183/183
f 71/71/71 69/69/69 70/70/70
f 182/182/182 181/181/181 183/183/183
f 70/70/70 69/69/69 67/67/67
f 179/179/179 181/181/181 182/182/182
f 69/69/69 68/68/68 67/67/67
f 179/179/179 180/180/180 181/181/181
f 67/67/67 68/68/68 66/66/66
f 66/66/66 180/180/180 179/179/179
f 67/67/67 66/66/66 65/65/65
f 65/65/65 66/66/66 179/179/179
f 24/24/24 23/23/23 22/22/22
f 27/27/27 26/26/26 25/25/25
f 52/52/52 25/25/25 26/26/26
f 30/30/30 29/29/29 28/28/28
f 33/33/33 32/32/32 31/31/31
f 36/36/36 35/35/35 34/34/34
f 53/53/53 34/34/34 35/35/35
f 39/39/39 38/38/38 37/37/37
f 42/42/42 41/41/41 40/40/40
f 45/45/45 44/44/44 43/43/43
f 54/54/54 43/43/43 44/44/44
f 48/48/48 47/47/47 46/46/46
f 51/51/51 50/50/50 49/49/49
f 57/57/57 56/56/56 55/55/55
f 55/55/55 56/56/56 117/117/117
f 60/60/60 59/59/59 58/58/58
f 290/290/290 59/59/59 60/60/60
f 60/60/60 58/58/58 64/64/64
f 294/294/294 290/290/290 60/60/60
f 64/64/64 63/63/63 60/60/60
f 64/64/64 62/62/62 63/63/63
f 63/63/63 62/62/62 61/61/61
f 60/60/60 291/291/291 294/294/294
f 291/291/291 292/292/292 294/294/294
f 293/293/293 292/292/292 291/291/291
f 83/83/83 82/82/82 81/81/81
f 86/86/86 85/85/85 84/84/84
f 89/89/89 88/88/88 87/87/87
f 88/88/88 89/89/89 114/114/114
f 92/92/92 91/91/91 90/90/90
f 95/95/95 94/94/94 93/93/93
f 98/98/98 97/97/97 96/96/96
f 97/97/97 98/98/98 115/115/115
f 101/101/101 100/100/100 99/99/99
f 104/104/104 103/103/103 102/102/102
f 107/107/107 106/106/106 105/105/105
f 106/106/106 107/107/107 116/116/116
f 110/110/110 109/109/109 108/108/108
f 113/113/113 112/112/112 111/111/111
f 120/120/120 119/119/119 118/118/118
f 118/118/118 119/119/119 234/234/234
f 124/124/124 120/120/120 118/118/118
f 118/118/118 234/234/234 238/238/238
f 118/118/118 121/121/121 124/124/124
f 121/121/121 122/122/122 124/124/124
f 123/123/123 122/122/122 121/121/121
f 238/238/238 237/237/237 118/118/118
f 238/238/238 236/236/236 237/237/237
f 237/237/237 236/236/236 235/235/235
f 127/127/127 126/126/126 125/125/125
f 125/125/125 128/128/128 127/127/127
f 128/128/128 139/139/139 127/127/127
f 128/128/128 140/140/140 139/139/139
f 142/142/142 139/139/139 140/140/140
f 142/142/142 140/140/140 141/141/141
f 141/141/141 144/144/144 142/142/142
f 144/144/144 141/141/141 143/143/143
f 146/146/146 144/144/144 143/143/143
f 146/146/146 143/143/143 145/145/145
f 145/145/145 148/148/148 146/146/146
f 148/148/148 145/145/145 147/147/147
f 150/150/150 148/148/148 147/147/147
f 150/150/150 147/147/147 149/149/149
f 149/149/149 152/152/152 150/150/150
f 152/152/152 149/149/149 151/151/151
f 151/151/151 154/154/154 152/152/152
f 154/154/154 151/151/151 153/153/153
f 155/155/155 154/154/154 153/153/153
f 153/153/153 156/156/156 155/155/155
f 157/157/157 155/155/155 156/156/156
f 156/156/156 158/158/158 157/157/157
f 159/159/159 157/157/157 158/158/158
f 158/158/158 160/160/160 159/159/159
f 161/161/161 159/159/159 160/160/160
f 160/160/160 162/162/162 161/161/161
f 163/163/163 161/161/161 162/162/162
f 162/162/162 164/164/164 163/163/163
f 166/166/166 163/163/163 164/164/164
f 166/166/166 164/164/164 165/165/165
f 165/165/165 168/168/168 166/166/166
f 168/168/168 165/165/165 167/167/167
f 131/131/131 130/130/130 129/129/129
f 131/131/131 129/129/129 132/132/132
f 133/133/133 131/131/131 132/132/132
f 132/132/132 134/134/134 133/133/133
f 135/135/135 133/133/133 134/134/134
f 135/135/135 134/134/134 136/136/136
f 137/137/137 135/135/135 136/136/136
f 137/137/137 136/136/136 138/138/138
f 138/138/138 343/343/343 137/137/137
f 138/138/138 344/344/344 343/343/343
f 344/344/344 341/341/341 343/343/343
f 344/344/344 342/342/342 341/341/341
f 342/342/342 337/337/337 341/341/341
f 337/337/337 342/342/342 339/339/339
f 339/339/339 338/338/338 337/337/337
f 338/338/338 339/339/339 340/340/340
f 171/171/171 170/170/170 169/169/169
f 170/170/170 171/171/171 172/172/172
f 169/169/169 174/174/174 171/171/171
f 174/174/174 169/169/169 173/173/173
f 176/176/176 174/174/174 173/173/173
f 176/176/176 173/173/173 175/175/175
f 177/177/177 176/176/176 175/175/175
f 177/177/177 175/175/175 178/178/178
f 178/178/178 306/306/306 177/177/177
f 178/178/178 305/305/305 306/306/306
f 305/305/305 304/304/304 306/306/306
f 305/305/305 303/303/303 304/304/304
f 302/302/302 304/304/304 303/303/303
f 303/303/303 301/301/301 302/302/302
f 301/301/301 299/299/299 302/302/302
f 301/301/301 300/300/300 299/299/299
f 197/197/197 196/196/196 195/195/195
f 200/200/200 199/199/199 198/198/198
f 203/203/203 202/202/202 201/201/201
f 228/228/228 201/201/201 202/202/202
f 206/206/206 205/205/205 204/204/204
f 209/209/209 208/208/208 207/207/207
f 212/212/212 211/211/211 210/210/210
f 229/229/229 210/210/210 211/211/211
f 215/215/215 214/214/214 213/213/213
f 218/218/218 217/217/217 216/216/216
f 221/221/221 220/220/220 219/219/219
f 230/230/230 219/219/219 220/220/220
f 224/224/224 223/223/223 222/222/222
f 227/227/227 226/226/226 225/225/225
f 233/233/233 232/232/232 231/231/231
f 231/231/231 232/232/232 289/289/289
f 255/255/255 254/254/254 253/253/253
f 258/258/258 257/257/257 256/256/256
f 261/261/261 260/260/260 259/259/259
f 260/260/260 261/261/261 286/286/286
f 264/264/264 263/263/263 262/262/262
f 267/267/267 266/266/266 265/265/265
f 270/270/270 269/269/269 268/268/268
f 269/269/269 270/270/270 287/287/287
f 273/273/273 272/272/272 271/271/271
f 276/276/276 275/275/275 274/274/274
f 279/279/279 278/278/278 277/277/277
f 278/278/278 279/279/279 288/288/288
f 282/282/282 281/281/281 280/280/280
f 285/285/285 284/284/284 283/283/283
f 297/297/297 296/296/296 295/295/295
f 295/295/295 298/298/298 297/297/297
f 298/298/298 307/307/307 297/297/297
f 298/298/298 308/308/308 307/307/307
f 310/310/310 307/307/307 308/308/308
f 310/310/310 308/308/308 309/309/309
f 309/309/309 312/312/312 310/310/310
f 312/312/312 309/309/309 311/311/311
f 314/314/314 312/312/312 311/311/311
f 314/314/314 311/311/311 313/313/313
f 313/313/313 316/316/316 314/314/314
f 316/316/316 313/313/313 315/315/315
f 318/318/318 316/316/316 315/315/315
f 318/318/318 315/315/315 317/317/317
f 317/317/317 320/320/320 318/318/318
f 320/320/320 317/317/317 319/319/319
f 319/319/319 322/322/322 320/320/320
f 322/322/322 319/319/319 321/321/321
f 323/323/323 322/322/322 321/321/321
f 321/321/321 324/324/324 323/323/323
f 325/325/325 323/323/323 324/324/324
f 324/324/324 326/326/326 325/325/325
f 327/327/327 325/325/325 326/326/326
f 326/326/326 328/328/328 327/327/327
f 329/329/329 327/327/327 328/328/328
f 328/328/328 330/330/330 329/329/329
f 331/331/331 329/329/329 330/330/330
f 330/330/330 332/332/332 331/331/331
f 334/334/334 331/331/331 332/332/332
f 334/334/334 332/332/332 333/333/333
f 333/333/333 336/336/336 334/334/334
f 336/336/336 333/333/333 335/335/335
f 347/347/347 346/346/346 345/345/345
f 345/345/345 348/348/348 347/347/347
f 357/357/357 345/345/345 346/346/346
f 350/350/350 347/347/347 348/348/348
f 346/346/346 358/358/358 357/357/357
f 348/348/348 349/349/349 350/350/350
f 361/361/361 357/357/357 358/358/358
f 351/351/351 350/350/350 349/349/349
f 358/358/358 362/362/362 361/361/361
f 349/349/349 352/352/352 351/351/351
f 408/408/408 361/361/361 362/362/362
f 354/354/354 351/351/351 352/352/352
f 362/362/362 407/407/407 408/408/408
f 352/352/352 353/353/353 354/354/354
f 398/398/398 408/408/408 407/407/407
f 355/355/355 354/354/354 353/353/353
f 407/407/407 397/397/397 398/398/398
f 353/353/353 356/356/356 355/355/355
f 395/395/395 398/398/398 397/397/397
f 359/359/359 355/355/355 356/356/356
f 397/397/397 396/396/396 395/395/395
f 356/356/356 360/360/360 359/359/359
f 402/402/402 395/395/395 396/396/396
f 372/372/372 359/359/359 360/360/360
f 396/396/396 401/401/401 402/402/402
f 360/360/360 371/371/371 372/372/372
f 399/399/399 402/402/402 401/401/401
f 373/373/373 372/372/372 371/371/371
f 401/401/401 400/400/400 399/399/399
f 371/371/371 374/374/374 373/373/373
f 406/406/406 399/399/399 400/400/400
f 368/368/368 373/373/373 374/374/374
f 400/400/400 405/405/405 406/406/406
f 374/374/374 367/367/367 368/368/368
f 403/403/403 406/406/406 405/405/405
f 369/369/369 368/368/368 367/367/367
f 405/405/405 404/404/404 403/403/403
f 367/367/367 370/370/370 369/369/369
f 394/394/394 403/403/403 404/404/404
f 364/364/364 369/369/369 370/370/370
f 404/404/404 393/393/393 394/394/394
f 370/370/370 363/363/363 364/364/364
f 390/390/390 394/394/394 393/393/393
f 365/365/365 364/364/364 363/363/363
f 393/393/393 389/389/389 390/390/390
f 363/363/363 366/366/366 365/365/365
f 387/387/387 390/390/390 389/389/389
f 375/375/375 365/365/365 366/366/366
f 389/389/389 388/388/388 387/387/387
f 366/366/366 376/376/376 375/375/375
f 386/386/386 387/387/387 388/388/388
f 377/377/377 375/375/375 376/376/376
f 388/388/388 385/385/385 386/386/386
f 376/376/376 378/378/378 377/377/377
f 383/383/383 386/386/386 385/385/385
f 392/392/392 377/377/377 378/378/378
f 385/385/385 384/384/384 383/383/383
f 378/378/378 391/391/391 392/392/392
f 382/382/382 383/383/383 384/384/384
f 380/380/380 392/392/392 391/391/391
f 384/384/384 381/381/381 382/382/382
f 391/391/391 379/379/379 380/380/380
f 379/379/379 382/382/382 381/381/381
f 381/381/381 380/380/380 379/379/379
f 411/411/411 410/410/410 409/409/409
f 410/410/410 416/416/416 409/409/409
f 412/412/412 411/411/411 409/409/409
f 416/416/416 418/418/418 409/409/409
f 413/413/413 412/412/412 409/409/409
f 418/418/418 441/441/441 409/409/409
f 414/414/414 413/413/413 409/409/409
f 441/441/441 436/436/436 409/409/409
f 415/415/415 414/414/414 409/409/409
f 436/436/436 435/435/435 409/409/409
f 417/417/417 415/415/415 409/409/409
f 435/435/435 438/438/438 409/409/409
f 423/423/423 417/417/417 409/409/409
f 438/438/438 437/437/437 409/409/409
f 424/424/424 423/423/423 409/409/409
f 437/437/437 440/440/440 409/409/409
f 421/421/421 424/424/424 409/409/409
f 440/440/440 439/439/439 409/409/409
f 422/422/422 421/421/421 409/409/409
f 439/439/439 434/434/434 409/409/409
f 419/419/419 422/422/422 409/409/409
f 434/434/434 432/432/432 409/409/409
f 420/420/420 419/419/419 409/409/409
f 432/432/432 431/431/431 409/409/409
f 425/425/425 420/420/420 409/409/409
f 431/431/431 430/430/430 409/409/409
f 426/426/426 425/425/425 409/409/409
f 430/430/430 429/429/429 409/409/409
f 433/433/433 426/426/426 409/409/409
f 429/429/429 428/428/428 409/409/409
f 427/427/427 433/433/433 409/409/409
f 428/428/428 427/427/427 409/409/409
f 444/444/444 443/443/443 442/442/442
f 454/454/454 442/442/442 443/443/443
f 443/443/443 444/444/444 445/445/445
f 443/443/443 455/455/455 454/454/454
f 447/447/447 445/445/445 444/444/444
f 459/459/459 454/454/454 455/455/455
f 444/444/444 446/446/446 447/447/447
f 454/454/454 459/459/459 458/458/458
f 448/448/448 447/447/447 446/446/446
f 447/447/447 448/448/448 449/449/449
f 459/459/459 508/508/508 458/458/458
f 451/451/451 449/449/449 448/448/448
f 458/458/458 508/508/508 510/510/510
f 448/448/448 450/450/450 451/451/451
f 458/458/458 510/510/510 511/511/511
f 452/452/452 451/451/451 450/450/450
f 458/458/458 511/511/511 512/512/512
f 451/451/451 452/452/452 453/453/453
f 458/458/458 512/512/512 513/513/513
f 456/456/456 453/453/453 452/452/452
f 513/513/513 514/514/514 458/458/458
f 452/452/452 457/457/457 456/456/456
f 514/514/514 509/509/509 458/458/458
f 456/456/456 457/457/457 501/501/501
f 509/509/509 476/476/476 458/458/458
f 501/501/501 504/504/504 456/456/456
f 473/473/473 458/458/458 476/476/476
f 504/504/504 501/501/501 502/502/502
f 472/472/472 473/473/473 476/476/476
f 503/503/503 502/502/502 501/501/501
f 473/473/473 472/472/472 461/461/461
f 502/502/502 503/503/503 497/497/497
f 461/461/461 462/462/462 473/473/473
f 497/497/497 500/500/500 502/502/502
f 462/462/462 461/461/461 460/460/460
f 500/500/500 497/497/497 498/498/498
f 463/463/463 460/460/460 461/461/461
f 499/499/499 498/498/498 497/497/497
f 460/460/460 463/463/463 465/465/465
f 498/498/498 499/499/499 493/493/493
f 465/465/465 466/466/466 460/460/460
f 493/493/493 496/496/496 498/498/498
f 466/466/466 465/465/465 464/464/464
f 496/496/496 493/493/493 494/494/494
f 467/467/467 464/464/464 465/465/465
f 495/495/495 494/494/494 493/493/493
f 464/464/464 467/467/467 469/469/469
f 494/494/494 495/495/495 506/506/506
f 469/469/469 470/470/470 464/464/464
f 506/506/506 505/505/505 494/494/494
f 470/470/470 469/469/469 468/468/468
f 505/505/505 506/506/506 507/507/507
f 471/471/471 468/468/468 469/469/469
f 506/506/506 491/491/491 507/507/507
f 468/468/468 471/471/471 474/474/474
f 474/474/474 475/475/475 468/468/468
f 515/515/515 507/507/507 491/491/491
f 487/487/487 475/475/475 474/474/474
f 516/516/516 515/515/515 491/491/491
f 474/474/474 488/488/488 487/487/487
f 517/517/517 516/516/516 491/491/491
f 486/486/486 487/487/487 488/488/488
f 517/517/517 491/491/491 518/518/518
f 487/487/487 486/486/486 485/485/485
f 519/519/519 518/518/518 491/491/491
f 483/483/483 485/485/485 486/486/486
f 520/520/520 519/519/519 491/491/491
f 486/486/486 484/484/484 483/483/483
f 521/521/521 520/520/520 491/491/491
f 482/482/482 483/483/483 484/484/484
f 491/491/491 492/492/492 521/521/521
f 483/483/483 482/482/482 481/481/481
f 489/489/489 492/492/492 491/491/491
f 479/479/479 481/481/481 482/482/482
f 492/492/492 489/489/489 490/490/490
f 482/482/482 480/480/480 479/479/479
f 478/478/478 490/490/490 489/489/489
f 478/478/478 479/479/479 480/480/480
f 489/489/489 477/477/477 478/478/478
f 479/479/479 478/478/478 477/477/477
