# VPXTOOL table OBJ file
# VPXTOOL OBJ file
# numVerts: 512 numFaces: 896
o VRButtonRings
v -0.40083 21.33202 -16.222599
v -0.40083 21.281734 -16.231121
v -0.480129 21.33029 -16.223303
v -0.40083 21.523119 -15.953449
v -0.40083 21.52167 -16.004425
v -0.480129 21.52346 -15.955246
v -0.480129 21.247042 -15.71173
v -0.480129 21.197058 -15.719836
v -0.40083 21.245441 -15.712074
v -0.40083 21.514587 -15.903172
v -0.480129 21.514275 -15.903243
v -0.40083 21.379675 -16.204426
v -0.480129 21.378222 -16.205385
v -0.40083 21.392693 -15.745724
v -0.40083 21.434273 -15.775255
v -0.480129 21.39466 -15.746584
v -0.40083 21.23076 -16.22968
v -0.480129 21.279285 -16.231554
v -0.480129 21.038527 -15.840622
v -0.480129 21.017178 -15.889161
v -0.40083 21.037722 -15.842502
v -0.40083 21.510305 -16.054153
v -0.40083 21.48946 -16.100693
v -0.480129 21.51001 -16.054035
v -0.40083 21.296423 -15.713515
v -0.40083 21.34614 -15.72488
v -0.480129 21.298761 -15.713569
v -0.480129 21.029743 -16.08613
v -0.480129 21.058146 -16.130684
v -0.40083 21.03077 -16.087677
v -0.40083 21.42287 -16.177305
v -0.480129 21.422672 -16.17704
v -0.40083 21.459938 -16.142284
v -0.480129 21.488674 -16.10254
v -0.40083 21.104313 -15.765888
v -0.40083 21.147507 -15.73877
v -0.480129 21.104502 -15.766155
v -0.40083 21.496416 -15.855519
v -0.480129 21.49759 -15.857329
v -0.480129 21.091423 -16.166933
v -0.40083 21.057886 -16.13087
v -0.480129 21.005539 -15.936691
v -0.480129 21.004189 -15.989037
v -0.40083 21.005514 -15.938768
v -0.480129 21.011858 -16.038185
v -0.40083 21.004063 -15.989746
v -0.480129 21.521605 -16.007023
v -0.480129 21.13257 -16.196634
v -0.40083 21.09291 -16.16794
v -0.40083 21.01688 -15.889051
v -0.40083 21.469296 -15.812325
v -0.480129 21.470604 -15.813641
v -0.480129 21.458778 -16.143972
v -0.480129 21.18115 -16.21801
v -0.40083 21.134495 -16.197472
v -0.480129 21.434052 -15.775491
v -0.480129 21.14907 -15.737736
v -0.40083 21.19516 -15.720597
v -0.40083 21.067245 -15.80092
v -0.480129 21.345789 -15.725013
v -0.480129 21.068384 -15.799254
v -0.40083 21.012594 -16.040022
v -0.40083 21.18104 -16.218313
v -0.480129 21.228827 -16.22966
v -0.489822 21.349186 -15.714827
v -0.489822 21.177746 -16.228186
v -0.489822 21.520187 -16.05744
v -0.489822 21.007 -15.885755
v -0.489822 21.001461 -16.040936
v -0.489822 21.246363 -15.700996
v -0.489822 21.194313 -15.709438
v -0.489822 21.534193 -15.954569
v -0.489822 21.08431 -16.175
v -0.489822 21.382957 -16.215044
v -0.489822 21.524632 -15.90042
v -0.489822 21.479155 -15.807117
v -0.489822 21.441092 -15.767389
v -0.489822 21.09793 -15.757669
v -0.489822 21.22739 -16.240318
v -0.489822 21.429245 -16.185528
v -0.489822 21.333044 -16.2337
v -0.489822 21.144344 -15.728075
v -0.489822 21.04966 -16.137255
v -0.489822 21.49797 -16.107946
v -0.489822 21.060324 -15.792134
v -0.489822 21.02923 -15.835213
v -0.489822 21.507256 -15.85261
v -0.489822 20.993475 -15.989758
v -0.488711 20.978983 -15.876378
v -0.488711 21.026299 -16.155344
v -0.488711 21.55314 -15.892645
v -0.489822 20.99488 -15.935251
v -0.488711 21.548214 -16.066814
v -0.489822 21.532267 -16.008484
v -0.489822 21.300217 -15.70291
v -0.488711 21.24448 -15.671445
v -0.488711 21.447338 -16.208889
v -0.489822 21.466843 -16.151093
v -0.489822 21.020086 -16.09086
v -0.488711 20.96398 -15.991737
v -0.488711 21.358538 -15.686786
v -0.489822 21.127161 -16.205929
v -0.488711 21.168375 -16.256207
v -0.488711 21.533869 -15.839614
v -0.488711 21.5027 -15.789153
v -0.488711 21.064735 -16.19721
v -0.488711 21.395998 -16.241629
v -0.488711 21.079842 -15.734304
v -0.488711 21.563751 -15.952709
v -0.488711 21.18675 -15.680805
v -0.488711 21.131325 -15.701479
v -0.488711 21.223442 -16.269665
v -0.489822 21.279932 -16.24229
v -0.488711 21.46048 -15.745087
v -0.489822 21.400076 -15.737291
v -0.488711 21.038124 -15.772535
v -0.488711 21.003641 -15.820316
v -0.488711 20.972836 -16.048506
v -0.488711 20.993494 -16.103884
v -0.488711 21.340633 -16.262321
v -0.488711 21.523573 -16.122835
v -0.475949 21.369532 -15.653809
v -0.488711 21.30422 -15.673567
v -0.488711 21.112265 -16.23152
v -0.475949 21.157356 -16.289158
v -0.475949 21.565165 -15.824331
v -0.475949 21.530388 -15.768029
v -0.475949 21.586668 -15.883503
v -0.475949 21.041718 -16.223331
v -0.475949 21.581171 -16.077837
v -0.475949 21.41133 -16.27289
v -0.475949 21.058573 -15.706831
v -0.488711 21.56161 -16.012512
v -0.475949 21.598507 -15.950521
v -0.475949 20.929295 -15.99407
v -0.475949 21.177856 -15.647138
v -0.475949 21.116014 -15.670204
v -0.475949 21.218796 -16.304173
v -0.488711 21.281725 -16.271852
v -0.475949 21.468616 -16.23636
v -0.475949 21.483282 -15.718862
v -0.488711 21.414984 -15.7117
v -0.475949 21.012028 -15.749488
v -0.475949 20.973547 -15.8028
v -0.475949 21.242273 -15.636691
v -0.475949 20.939177 -16.057407
v -0.475949 20.962227 -16.119198
v -0.475949 21.349558 -16.29598
v -0.488711 21.48904 -16.170692
v -0.475949 21.553677 -16.140345
v -0.475949 20.946033 -15.865353
v -0.475949 20.99883 -16.176617
v -0.488711 20.965538 -15.931279
v -0.475949 21.596117 -16.017248
v -0.450019 21.622782 -15.948994
v -0.450019 20.90507 -15.995697
v -0.450019 21.171646 -15.62362
v -0.450019 21.105324 -15.64836
v -0.450019 21.149656 -16.312172
v -0.450019 21.043715 -15.687641
v -0.450019 21.215551 -16.328276
v -0.475949 21.283827 -16.306612
v -0.450019 21.48348 -16.255548
v -0.450019 21.549725 -15.753274
v -0.450019 21.499205 -15.700542
v -0.475949 21.432516 -15.681611
v -0.450019 20.993795 -15.733389
v -0.450019 20.95253 -15.790566
v -0.450019 21.240732 -15.612418
v -0.450019 20.915668 -16.063627
v -0.450019 21.37721 -15.630775
v -0.450019 21.35579 -16.31949
v -0.475949 21.515146 -16.193743
v -0.450019 21.574701 -16.152575
v -0.450019 20.923021 -15.857653
v -0.450019 20.979645 -16.191477
v -0.450019 21.610088 -15.877118
v -0.475949 20.931036 -15.926611
v -0.450019 21.604189 -16.085535
v -0.475949 21.308928 -15.63906
v -0.475949 21.094748 -16.26161
v -0.450019 21.587027 -15.813658
v -0.450019 21.025639 -16.241575
v -0.450019 21.42204 -16.294725
v -0.42497 21.489582 -16.26343
v -0.42497 21.557667 -15.747215
v -0.42497 21.505745 -15.69302
v -0.450019 21.444763 -15.660591
v -0.42497 20.986311 -15.726776
v -0.42497 20.943897 -15.785542
v -0.42497 21.240097 -15.602448
v -0.42497 20.906012 -16.06618
v -0.42497 20.931417 -16.134289
v -0.42497 21.380367 -15.621316
v -0.450019 21.285294 -16.330893
v -0.42497 21.358349 -16.329144
v -0.450019 21.533382 -16.209843
v -0.42497 21.583338 -16.157597
v -0.42497 20.91357 -15.854489
v -0.42497 20.971764 -16.197578
v -0.42497 21.619705 -15.874496
v -0.450019 20.906935 -15.923349
v -0.42497 21.613644 -16.088697
v -0.450019 21.620218 -16.020557
v -0.450019 21.312216 -15.614957
v -0.450019 20.94039 -16.129894
v -0.42497 20.895119 -15.996365
v -0.450019 21.082516 -16.282629
v -0.42497 21.146496 -16.321623
v -0.42497 21.596 -15.809275
v -0.42497 21.019035 -16.24907
v -0.42497 21.426435 -16.303694
v -0.42497 21.037615 -15.67976
v -0.42497 21.63275 -15.948364
v -0.42497 21.169094 -15.613963
v -0.42497 21.10093 -15.639389
v -0.42497 21.21422 -16.338175
v -0.42497 21.449793 -15.65196
v -0.402966 21.380884 -15.61977
v -0.42497 21.285896 -16.340864
v -0.402966 21.358768 -16.330723
v -0.42497 21.54087 -16.216454
v -0.402966 21.58475 -16.158417
v -0.402966 20.912024 -15.853973
v -0.402966 20.970476 -16.198576
v -0.402966 21.621277 -15.874067
v -0.42497 20.897036 -15.92201
v -0.402966 21.615189 -16.089214
v -0.42497 21.630117 -16.021915
v -0.42497 21.313566 -15.605061
v -0.402966 21.239994 -15.600819
v -0.402966 21.490582 -16.264717
v -0.402966 20.893492 -15.996475
v -0.42497 21.077488 -16.291262
v -0.402966 21.145977 -16.323168
v -0.402966 21.597467 -15.808558
v -0.402966 21.017956 -16.250294
v -0.402966 21.036617 -15.67847
v -0.402966 21.63438 -15.948263
v -0.402966 21.168676 -15.612384
v -0.402966 21.214005 -16.339792
v -0.402966 21.558966 -15.746223
v -0.402966 21.506813 -15.691792
v -0.402966 20.985085 -15.725696
v -0.402966 20.942486 -15.78472
v -0.402966 20.904432 -16.066599
v 9.919027 21.307331 -15.604297
v 9.919027 21.235415 -15.602777
v 9.897023 21.307524 -15.602675
v 9.919027 21.428196 -16.301926
v 9.919027 21.492306 -16.262255
v 9.897023 21.428923 -16.303385
v 9.944077 21.621912 -15.94557
v 9.919027 21.631859 -15.944849
v 9.944077 21.620872 -16.014315
v 9.919027 21.619612 -15.871483
v 9.897023 21.633484 -15.944729
v 9.919027 20.984959 -15.729438
v 9.897023 20.983728 -15.728369
v 9.919027 21.034653 -15.680989
v 9.919027 21.593842 -15.806921
v 9.919027 21.554214 -15.742864
v 9.897023 21.595299 -15.806193
v 9.897023 21.63241 -16.015692
v 9.897023 21.61666 -16.086987
v 9.919027 21.630787 -16.015501
v 9.944077 20.942099 -16.131832
v 9.919027 20.933178 -16.13628
v 9.944077 20.917183 -16.069717
v 9.919027 20.972778 -16.20029
v 9.897023 20.931719 -16.137007
v 9.944077 21.360737 -16.318125
v 9.919027 21.363436 -16.32774
v 9.944077 21.292038 -16.330423
v 9.944077 20.992481 -15.735977
v 9.944077 21.040834 -15.688837
v 9.919027 21.446688 -15.651154
v 9.897023 21.447498 -15.649739
v 9.919027 21.504036 -15.690575
v 9.944077 21.441742 -15.659807
v 9.944077 21.497541 -15.698163
v 9.919027 21.583963 -16.15477
v 9.919027 21.615107 -16.086481
v 9.897023 21.585379 -16.155579
v 9.944077 21.085295 -16.283392
v 9.944077 21.15159 -16.313637
v 9.919027 21.080349 -16.292046
v 9.944077 21.584923 -15.811368
v 9.944077 21.546366 -15.749042
v 9.944077 21.103579 -15.649909
v 9.919027 21.099138 -15.640981
v 9.919027 20.897366 -15.925006
v 9.919027 20.894726 -15.999973
v 9.897023 20.895748 -15.924801
v 9.944077 21.42375 -16.293005
v 9.944077 21.486128 -16.254406
v 9.944077 21.609997 -15.874187
v 9.919027 20.90757 -16.072441
v 9.919027 20.911758 -15.857121
v 9.919027 20.941082 -15.79033
v 9.944077 20.92126 -15.860212
v 9.944077 20.904684 -15.999208
v 9.944077 21.029518 -16.245077
v 9.919027 21.023024 -16.252666
v 9.897023 20.971495 -16.2013
v 9.944077 21.536737 -16.205837
v 9.919027 21.544317 -16.212337
v 9.944077 21.236174 -15.612737
v 9.944077 21.306149 -15.614215
v 9.897023 21.5051 -15.689333
v 9.944077 21.375269 -15.629484
v 9.897023 20.939661 -15.78953
v 9.897023 20.910206 -15.856616
v 9.944077 21.57531 -16.149822
v 9.944077 21.605616 -16.083378
v 9.944077 21.165741 -15.625199
v 9.919027 21.378368 -15.619988
v 9.944077 20.907253 -15.926265
v 9.897023 21.098412 -15.639522
v 9.919027 21.163025 -15.615586
v 9.897023 21.07954 -16.293459
v 9.897023 21.545557 -16.2134
v 9.919027 21.148483 -16.32313
v 9.897023 20.893097 -16.000097
v 9.897023 21.363874 -16.329313
v 9.919027 21.29283 -16.340382
v 9.897023 21.378876 -15.618436
v 9.944077 21.22064 -16.328941
v 9.944077 20.949791 -15.795225
v 9.919027 21.21945 -16.338858
v 9.897023 21.147976 -16.324682
v 9.897023 21.219254 -16.340479
v 9.897023 21.23529 -15.601148
v 9.944077 20.980629 -16.194115
v 9.970007 21.097343 -16.262323
v 9.970007 21.159159 -16.290524
v 9.970007 20.928938 -15.997343
v 9.970007 20.94059 -16.063087
v 9.970007 21.238026 -15.636988
v 9.970007 21.172352 -15.64861
v 9.970007 21.354168 -16.294706
v 9.970007 21.290112 -16.306175
v 9.970007 21.597696 -15.94733
v 9.970007 21.586586 -15.88077
v 9.970007 20.99975 -16.17908
v 9.970007 21.045334 -16.226595
v 9.970007 20.944391 -15.867741
v 9.970007 21.596725 -16.011427
v 9.970007 21.4297 -15.680879
v 9.970007 21.36772 -15.652604
v 9.970007 21.563206 -15.822197
v 9.970007 21.527256 -15.764082
v 9.970007 21.303268 -15.638368
v 9.970007 20.963825 -16.121006
v 9.970007 21.481731 -15.716641
v 9.970007 21.11439 -15.67165
v 9.970007 21.518276 -16.190008
v 9.970007 21.471085 -16.235294
v 9.970007 21.010801 -15.751901
v 9.970007 21.055885 -15.707947
v 9.970007 21.554241 -16.13778
v 9.970007 21.582497 -16.075825
v 9.970007 21.412924 -16.271286
v 9.970007 21.223541 -16.304792
v 9.970007 20.931332 -15.92933
v 9.970007 20.970993 -15.807145
v 9.98277 21.001352 -15.82421
v 9.98277 21.29915 -15.672946
v 9.98277 21.562155 -16.007296
v 9.98277 21.227695 -16.27022
v 9.98277 21.28736 -16.271458
v 9.98277 21.563025 -15.949848
v 9.98277 21.52408 -16.120537
v 9.98277 21.491844 -16.167345
v 9.98277 21.240675 -15.671711
v 9.98277 21.181814 -15.682125
v 9.98277 20.96366 -15.994671
v 9.98277 20.974104 -16.053595
v 9.98277 21.027122 -16.15755
v 9.98277 21.067978 -16.200138
v 9.98277 20.965805 -15.933716
v 9.98277 21.344769 -16.261179
v 9.98277 21.553068 -15.890197
v 9.98277 21.412462 -15.711044
v 9.98277 21.35691 -15.685705
v 9.98277 21.549402 -16.06501
v 9.98277 20.994925 -16.105503
v 9.98277 21.459093 -15.743097
v 9.98277 21.397427 -16.24019
v 9.98277 20.977509 -15.878517
v 9.98277 21.03703 -15.774697
v 9.98277 21.077433 -15.735305
v 9.98277 21.11459 -16.232157
v 9.98277 21.16999 -16.257431
v 9.98277 21.129868 -15.702775
v 9.98277 21.532114 -15.837699
v 9.98277 21.499891 -15.785615
v 9.98277 21.449554 -16.207933
v 9.983879 21.336773 -16.232672
v 9.983879 21.285015 -16.241936
v 9.983879 21.505672 -15.850883
v 9.983879 21.524565 -15.898211
v 9.983879 21.469366 -16.148073
v 9.983879 21.43124 -16.184666
v 9.983879 21.050402 -16.139242
v 9.983879 21.087234 -16.177637
v 9.983879 20.995121 -15.937447
v 9.983879 20.993185 -15.992401
v 9.983879 21.231224 -16.24082
v 9.983879 21.242928 -15.701237
v 9.983879 21.295647 -15.702351
v 9.983879 21.53354 -15.951992
v 9.983879 21.532757 -16.003782
v 9.983879 21.002602 -16.045523
v 9.983879 21.49843 -16.105875
v 9.983879 21.521261 -16.055815
v 9.983879 21.005672 -15.887683
v 9.983879 21.397799 -15.7367
v 9.983879 21.43984 -15.765596
v 9.983879 21.14303 -15.729243
v 9.983879 21.09576 -15.758571
v 9.983879 21.059334 -15.794086
v 9.983879 21.129257 -16.206503
v 9.983879 21.476624 -15.803927
v 9.983879 21.384245 -16.213747
v 9.983879 21.189861 -15.710628
v 9.983879 21.179203 -16.22929
v 9.983879 21.021374 -16.09232
v 9.983879 21.34772 -15.713854
v 9.983879 21.02717 -15.838723
v 9.974187 21.522831 -15.95277
v 9.974187 21.522078 -16.002506
v 9.974187 21.232508 -16.23014
v 9.974187 21.284164 -16.231213
v 9.974187 21.134583 -16.197187
v 9.974187 21.094229 -16.169466
v 9.974187 21.243746 -15.711961
v 9.974187 21.294373 -15.713031
v 9.974187 21.005768 -15.938801
v 9.974187 21.00391 -15.991575
v 9.974187 21.03098 -16.087532
v 9.974187 21.012953 -16.04259
v 9.974187 21.33387 -16.222315
v 9.974187 21.496069 -15.855673
v 9.974187 21.468172 -15.810578
v 9.974187 21.015902 -15.891012
v 9.974187 21.192785 -15.720979
v 9.974187 21.14781 -15.738856
v 9.974187 21.379457 -16.204142
v 9.974187 21.42459 -16.176214
v 9.974187 21.067432 -15.801126
v 9.974187 21.102415 -15.767022
v 9.974187 21.392477 -15.746017
v 9.974187 21.432848 -15.773767
v 9.974187 21.489115 -16.100548
v 9.974187 21.51104 -16.052475
v 9.974187 21.182547 -16.219069
v 9.974187 21.461205 -16.141073
v 9.974187 21.058857 -16.132593
v 9.974187 21.514208 -15.901122
v 9.974187 21.036547 -15.843993
v 9.974187 21.344381 -15.724077
v 9.894888 21.514523 -15.903176
v 9.894888 21.434208 -15.77526
v 9.894888 21.392624 -15.745728
v 9.894888 21.067179 -15.800925
v 9.894888 21.037657 -15.842506
v 9.894888 21.281677 -16.231127
v 9.894888 21.331955 -16.222603
v 9.894888 21.230694 -16.229685
v 9.894888 21.459871 -16.142279
v 9.894888 21.104246 -15.765893
v 9.894888 21.092844 -16.167953
v 9.894888 21.134426 -16.197477
v 9.894888 21.016811 -15.889056
v 9.894888 21.005447 -15.938774
v 9.894888 21.296358 -15.71352
v 9.894888 21.003998 -15.98975
v 9.894888 21.01253 -16.040028
v 9.894888 21.180975 -16.218319
v 9.894888 21.489395 -16.100697
v 9.894888 21.510237 -16.054148
v 9.894888 21.245384 -15.712078
v 9.894888 21.195093 -15.720601
v 9.894888 21.496347 -15.855524
v 9.894888 21.147442 -15.738774
v 9.894888 21.422804 -16.17731
v 9.894888 21.0307 -16.08769
v 9.894888 21.057823 -16.130877
v 9.894888 21.346077 -15.724885
v 9.894888 21.37961 -16.20443
v 9.894888 21.521603 -16.004429
v 9.894888 21.46923 -15.812329
v 9.894888 21.523054 -15.953455
v -0.402966 21.450613 -15.650549
v -0.402966 21.285995 -16.342495
v -0.402966 21.542093 -16.217535
v -0.402966 20.895418 -15.92179
v -0.402966 21.631735 -16.022137
v -0.402966 21.31379 -15.60344
v -0.402966 20.929953 -16.135006
v -0.402966 21.076666 -16.292673
v -0.402966 21.427156 -16.30516
v -0.402966 21.10021 -15.637922
v 9.897023 21.493317 -16.263538
v 9.897023 21.621183 -15.87104
v 9.897023 21.033644 -15.679706
v 9.897023 21.555498 -15.741855
v 9.897023 20.905996 -16.072887
v 9.897023 21.02196 -16.253908
v 9.897023 21.16258 -15.614016
v 9.897023 21.29296 -16.342009
vt 0.008517 0.84379703
vt 0.008517 0.85053301
vt 0.000829 0.84520501
vt 0.008517 0.500001
vt 0.008517 0.56838602
vt 0.00083 0.502486
vt 0.000824 0.148538
vt 0.000825 0.15473801
vt 0.008517 0.14946902
vt 0.008517 0.431616
vt 0.001336 0.431566
vt 0.008517 0.82384998
vt 0.000834 0.82560003
vt 0.008517 0.20854497
vt 0.008517 0.25213802
vt 0.000824 0.20937699
vt 0.008517 0.84379703
vt 0.000816 0.85150403
vt 0.000826 0.302424
vt 0.001336 0.36575997
vt 0.008517 0.305256
vt 0.008517 0.634144
vt 0.008517 0.69474602
vt 0.001336 0.634242
vt 0.008517 0.156205
vt 0.008517 0.17615199
vt 0.000822 0.155882
vt 0.000829 0.632165
vt 0.001336 0.694888
vt 0.008517 0.634144
vt 0.008517 0.791457
vt 0.001336 0.79167002
vt 0.008517 0.747864
vt 0.000826 0.697533
vt 0.008517 0.20854497
vt 0.008517 0.17615199
vt 0.001336 0.208332
vt 0.008517 0.36585796
vt 0.000823 0.3682
vt 0.000831 0.74678499
vt 0.008517 0.69474602
vt 0.000825 0.428671
vt 0.001012 0.499039
vt 0.008517 0.431616
vt 0.000826 0.565925
vt 0.008517 0.500001
vt 0.000816 0.57202
vt 0.000826 0.79066199
vt 0.008517 0.747864
vt 0.008517 0.36585796
vt 0.008517 0.305256
vt 0.000829 0.306835
vt 0.000825 0.75049901
vt 0.001336 0.82408702
vt 0.008517 0.791457
vt 0.001336 0.251956
vt 0.000828 0.17431498
vt 0.008517 0.156205
vt 0.008517 0.25213802
vt 0.001059 0.17564297
vt 0.000826 0.249542
vt 0.008517 0.56838602
vt 0.008517 0.82384998
vt 0.000827 0.84420198
vt 0.001059 0.17564297
vt 0.001336 0.82408702
vt 0.001336 0.634242
vt 0.001336 0.36575997
vt 0.000826 0.565925
vt 0.000824 0.148538
vt 0.000825 0.15473801
vt 0.00083 0.502486
vt 0.000831 0.74678499
vt 0.000834 0.82560003
vt 0.001336 0.431566
vt 0.000829 0.306835
vt 0.001336 0.251956
vt 0.001336 0.208332
vt 0.000827 0.84420198
vt 0.001336 0.79167002
vt 0.000829 0.84520501
vt 0.000828 0.17431498
vt 0.001336 0.694888
vt 0.000826 0.697533
vt 0.000826 0.249542
vt 0.000826 0.302424
vt 0.000823 0.3682
vt 0.001012 0.499039
vt 0.001336 0.36575997
vt 0.001336 0.694888
vt 0.001336 0.431566
vt 0.000825 0.428671
vt 0.001336 0.634242
vt 0.000816 0.57202
vt 0.000822 0.155882
vt 0.000824 0.148538
vt 0.001336 0.79167002
vt 0.000825 0.75049901
vt 0.000829 0.632165
vt 0.001012 0.499039
vt 0.001059 0.17564297
vt 0.000826 0.79066199
vt 0.001336 0.82408702
vt 0.000823 0.3682
vt 0.000829 0.306835
vt 0.000831 0.74678499
vt 0.000834 0.82560003
vt 0.001336 0.208332
vt 0.00083 0.502486
vt 0.000825 0.15473801
vt 0.000828 0.17431498
vt 0.000827 0.84420198
vt 0.000816 0.85150403
vt 0.001336 0.251956
vt 0.000824 0.20937699
vt 0.000826 0.249542
vt 0.000826 0.302424
vt 0.000826 0.565925
vt 0.000829 0.632165
vt 0.000829 0.84520501
vt 0.000826 0.697533
vt 0.001059 0.17564297
vt 0.000822 0.155882
vt 0.000826 0.79066199
vt 0.001336 0.82408702
vt 0.000823 0.3682
vt 0.000829 0.306835
vt 0.001336 0.431566
vt 0.000831 0.74678499
vt 0.001336 0.634242
vt 0.000834 0.82560003
vt 0.001336 0.208332
vt 0.000816 0.57202
vt 0.00083 0.502486
vt 0.001012 0.499039
vt 0.000825 0.15473801
vt 0.000828 0.17431498
vt 0.000827 0.84420198
vt 0.000816 0.85150403
vt 0.001336 0.79167002
vt 0.001336 0.251956
vt 0.000824 0.20937699
vt 0.000826 0.249542
vt 0.000826 0.302424
vt 0.000824 0.148538
vt 0.000826 0.565925
vt 0.000829 0.632165
vt 0.000829 0.84520501
vt 0.000825 0.75049901
vt 0.000826 0.697533
vt 0.001336 0.36575997
vt 0.001336 0.694888
vt 0.000825 0.428671
vt 0.000816 0.57202
vt 0.00083 0.502486
vt 0.001012 0.499039
vt 0.000825 0.15473801
vt 0.000828 0.17431498
vt 0.001336 0.82408702
vt 0.001336 0.208332
vt 0.000827 0.84420198
vt 0.000816 0.85150403
vt 0.001336 0.79167002
vt 0.000829 0.306835
vt 0.001336 0.251956
vt 0.000824 0.20937699
vt 0.000826 0.249542
vt 0.000826 0.302424
vt 0.000824 0.148538
vt 0.000826 0.565925
vt 0.001059 0.17564297
vt 0.000829 0.84520501
vt 0.000825 0.75049901
vt 0.000826 0.697533
vt 0.001336 0.36575997
vt 0.001336 0.694888
vt 0.001336 0.431566
vt 0.000825 0.428671
vt 0.001336 0.634242
vt 0.000822 0.155882
vt 0.000826 0.79066199
vt 0.000823 0.3682
vt 0.000831 0.74678499
vt 0.000834 0.82560003
vt 0.001336 0.79167002
vt 0.000829 0.306835
vt 0.001336 0.251956
vt 0.000824 0.20937699
vt 0.000826 0.249542
vt 0.000826 0.302424
vt 0.000824 0.148538
vt 0.000826 0.565925
vt 0.000829 0.632165
vt 0.001059 0.17564297
vt 0.000816 0.85150403
vt 0.000829 0.84520501
vt 0.000825 0.75049901
vt 0.000826 0.697533
vt 0.001336 0.36575997
vt 0.001336 0.694888
vt 0.001336 0.431566
vt 0.000825 0.428671
vt 0.001336 0.634242
vt 0.000816 0.57202
vt 0.000822 0.155882
vt 0.000829 0.632165
vt 0.001012 0.499039
vt 0.000826 0.79066199
vt 0.001336 0.82408702
vt 0.000823 0.3682
vt 0.000831 0.74678499
vt 0.000834 0.82560003
vt 0.001336 0.208332
vt 0.00083 0.502486
vt 0.000825 0.15473801
vt 0.000828 0.17431498
vt 0.000827 0.84420198
vt 0.000824 0.20937699
vt 0.001059 0.17564297
vt 0.000816 0.85150403
vt 0.000829 0.84520501
vt 0.000825 0.75049901
vt 0.000826 0.697533
vt 0.001336 0.36575997
vt 0.001336 0.694888
vt 0.001336 0.431566
vt 0.000825 0.428671
vt 0.001336 0.634242
vt 0.000816 0.57202
vt 0.000822 0.155882
vt 0.000824 0.148538
vt 0.001336 0.79167002
vt 0.001012 0.499039
vt 0.000826 0.79066199
vt 0.001336 0.82408702
vt 0.000823 0.3682
vt 0.000831 0.74678499
vt 0.001336 0.208332
vt 0.00083 0.502486
vt 0.000825 0.15473801
vt 0.000827 0.84420198
vt 0.000829 0.306835
vt 0.001336 0.251956
vt 0.000826 0.249542
vt 0.000826 0.302424
vt 0.000826 0.565925
vt 0.000825 0.15473801
vt 0.000824 0.148538
vt 0.000825 0.15473801
vt 0.001336 0.82408702
vt 0.000826 0.79066199
vt 0.001336 0.82408702
vt 0.001012 0.499039
vt 0.001012 0.499039
vt 0.000826 0.565925
vt 0.000825 0.428671
vt 0.001012 0.499039
vt 0.001336 0.251956
vt 0.001336 0.251956
vt 0.000824 0.20937699
vt 0.001336 0.36575997
vt 0.000826 0.302424
vt 0.001336 0.36575997
vt 0.000826 0.565925
vt 0.000829 0.632165
vt 0.000826 0.565925
vt 0.001336 0.634242
vt 0.001336 0.634242
vt 0.000816 0.57202
vt 0.000826 0.697533
vt 0.001336 0.634242
vt 0.000827 0.84420198
vt 0.000827 0.84420198
vt 0.000816 0.85150403
vt 0.001336 0.251956
vt 0.000824 0.20937699
vt 0.001336 0.208332
vt 0.001336 0.208332
vt 0.000826 0.249542
vt 0.001336 0.208332
vt 0.000826 0.249542
vt 0.001336 0.694888
vt 0.000829 0.632165
vt 0.001336 0.694888
vt 0.001336 0.79167002
vt 0.000834 0.82560003
vt 0.001336 0.79167002
vt 0.001336 0.36575997
vt 0.000826 0.302424
vt 0.001059 0.17564297
vt 0.001059 0.17564297
vt 0.001336 0.431566
vt 0.00083 0.502486
vt 0.001336 0.431566
vt 0.001336 0.82408702
vt 0.000826 0.79066199
vt 0.000825 0.428671
vt 0.000816 0.57202
vt 0.000823 0.3682
vt 0.000829 0.306835
vt 0.000823 0.3682
vt 0.00083 0.502486
vt 0.000825 0.75049901
vt 0.000825 0.75049901
vt 0.000826 0.697533
vt 0.000831 0.74678499
vt 0.000831 0.74678499
vt 0.000824 0.148538
vt 0.000825 0.15473801
vt 0.000826 0.249542
vt 0.000828 0.17431498
vt 0.000829 0.306835
vt 0.000823 0.3682
vt 0.001336 0.694888
vt 0.000829 0.632165
vt 0.000822 0.155882
vt 0.000828 0.17431498
vt 0.001336 0.431566
vt 0.001059 0.17564297
vt 0.000822 0.155882
vt 0.001336 0.79167002
vt 0.000831 0.74678499
vt 0.000834 0.82560003
vt 0.00083 0.502486
vt 0.000827 0.84420198
vt 0.000816 0.85150403
vt 0.000828 0.17431498
vt 0.000829 0.84520501
vt 0.000829 0.306835
vt 0.000829 0.84520501
vt 0.000834 0.82560003
vt 0.000829 0.84520501
vt 0.000824 0.148538
vt 0.000826 0.697533
vt 0.001336 0.79167002
vt 0.000834 0.82560003
vt 0.00083 0.502486
vt 0.000816 0.57202
vt 0.000824 0.148538
vt 0.000822 0.155882
vt 0.000827 0.84420198
vt 0.000816 0.85150403
vt 0.001012 0.499039
vt 0.000825 0.428671
vt 0.000826 0.697533
vt 0.000825 0.75049901
vt 0.000823 0.3682
vt 0.000826 0.565925
vt 0.001336 0.208332
vt 0.000828 0.17431498
vt 0.001336 0.36575997
vt 0.000826 0.302424
vt 0.000825 0.15473801
vt 0.001336 0.634242
vt 0.000826 0.249542
vt 0.001059 0.17564297
vt 0.000831 0.74678499
vt 0.000826 0.79066199
vt 0.001336 0.251956
vt 0.000824 0.20937699
vt 0.001336 0.694888
vt 0.000829 0.632165
vt 0.001336 0.82408702
vt 0.000829 0.84520501
vt 0.001336 0.431566
vt 0.000829 0.306835
vt 0.000829 0.306835
vt 0.000825 0.15473801
vt 0.000826 0.565925
vt 0.000829 0.84520501
vt 0.000816 0.85150403
vt 0.001012 0.499039
vt 0.001336 0.694888
vt 0.000831 0.74678499
vt 0.000824 0.148538
vt 0.000822 0.155882
vt 0.00083 0.502486
vt 0.000816 0.57202
vt 0.000826 0.697533
vt 0.000825 0.75049901
vt 0.001336 0.431566
vt 0.000827 0.84420198
vt 0.000825 0.428671
vt 0.001336 0.208332
vt 0.000828 0.17431498
vt 0.000829 0.632165
vt 0.001336 0.634242
vt 0.000826 0.249542
vt 0.001336 0.82408702
vt 0.000823 0.3682
vt 0.001336 0.251956
vt 0.000824 0.20937699
vt 0.001336 0.79167002
vt 0.000834 0.82560003
vt 0.001059 0.17564297
vt 0.001336 0.36575997
vt 0.000826 0.302424
vt 0.000826 0.79066199
vt 0.000827 0.84420198
vt 0.000816 0.85150403
vt 0.001336 0.36575997
vt 0.000825 0.428671
vt 0.000831 0.74678499
vt 0.000826 0.79066199
vt 0.000826 0.697533
vt 0.000825 0.75049901
vt 0.001336 0.431566
vt 0.00083 0.502486
vt 0.000829 0.84520501
vt 0.000824 0.148538
vt 0.000825 0.15473801
vt 0.001012 0.499039
vt 0.000826 0.565925
vt 0.000816 0.57202
vt 0.001336 0.694888
vt 0.000829 0.632165
vt 0.000823 0.3682
vt 0.001336 0.208332
vt 0.000826 0.249542
vt 0.001059 0.17564297
vt 0.000824 0.20937699
vt 0.001336 0.251956
vt 0.001336 0.79167002
vt 0.000826 0.302424
vt 0.001336 0.82408702
vt 0.000822 0.155882
vt 0.000834 0.82560003
vt 0.001336 0.634242
vt 0.000828 0.17431498
vt 0.000829 0.306835
vt 0.001012 0.499039
vt 0.000826 0.565925
vt 0.000829 0.84520501
vt 0.000816 0.85150403
vt 0.001336 0.79167002
vt 0.000825 0.75049901
vt 0.000824 0.148538
vt 0.000825 0.15473801
vt 0.001336 0.431566
vt 0.00083 0.502486
vt 0.001336 0.634242
vt 0.000816 0.57202
vt 0.000827 0.84420198
vt 0.001336 0.36575997
vt 0.000826 0.302424
vt 0.000823 0.3682
vt 0.000822 0.155882
vt 0.001059 0.17564297
vt 0.001336 0.82408702
vt 0.000826 0.79066199
vt 0.001336 0.251956
vt 0.000824 0.20937699
vt 0.001336 0.208332
vt 0.000826 0.249542
vt 0.001336 0.694888
vt 0.000829 0.632165
vt 0.000834 0.82560003
vt 0.000831 0.74678499
vt 0.000826 0.697533
vt 0.000825 0.428671
vt 0.000829 0.306835
vt 0.000828 0.17431498
vt 0.008517 0.431616
vt 0.008517 0.25213802
vt 0.008517 0.20854497
vt 0.008517 0.25213802
vt 0.008517 0.305256
vt 0.008517 0.85053301
vt 0.008517 0.84379703
vt 0.008517 0.84379703
vt 0.008517 0.747864
vt 0.008517 0.20854497
vt 0.008517 0.747864
vt 0.008517 0.791457
vt 0.008517 0.36585796
vt 0.008517 0.431616
vt 0.008517 0.156205
vt 0.008517 0.500001
vt 0.008517 0.56838602
vt 0.008517 0.82384998
vt 0.008517 0.69474602
vt 0.008517 0.634144
vt 0.008517 0.14946902
vt 0.008517 0.156205
vt 0.008517 0.36585796
vt 0.008517 0.17615199
vt 0.008517 0.791457
vt 0.008517 0.634144
vt 0.008517 0.69474602
vt 0.008517 0.17615199
vt 0.008517 0.82384998
vt 0.008517 0.56838602
vt 0.008517 0.305256
vt 0.008517 0.500001
vt 0.000824 0.20937699
vt 0.000816 0.85150403
vt 0.000825 0.75049901
vt 0.000825 0.428671
vt 0.000816 0.57202
vt 0.000822 0.155882
vt 0.000829 0.632165
vt 0.000826 0.79066199
vt 0.000834 0.82560003
vt 0.000828 0.17431498
vt 0.000826 0.79066199
vt 0.000825 0.428671
vt 0.000824 0.20937699
vt 0.000826 0.302424
vt 0.000816 0.57202
vt 0.000825 0.75049901
vt 0.000822 0.155882
vt 0.000816 0.85150403
vn -0.0042 -0.2615 0.9652
vn -0.0049 -0.069 0.9976
vn -0.2364 -0.0062 0.9716
vn -0.0012 -0.9974 -0.0714
vn -0.0049 -0.9921 0.1256
vn -0.2366 -0.9553 0.1773
vn -0.1241 0.0633 -0.9902
vn -0.124 0.2563 -0.9586
vn -0.0044 0.0679 -0.9977
vn 0.0009 -0.966 -0.2587
vn -0.2288 -0.9735 -0.0051
vn -0.0011 -0.4481 0.894
vn -0.2362 -0.2022 0.9504
vn -0.0017 -0.4935 -0.8698
vn 0.001 -0.6595 -0.7517
vn -0.2353 -0.679 -0.6954
vn -0.0048 0.127 0.9919
vn -0.1784 -0.2324 0.9561
vn -0.1242 0.8622 -0.4911
vn -0.1156 0.94 -0.3209
vn -0.0015 0.8693 -0.4943
vn 0.0006 -0.9467 0.3221
vn -0.0014 -0.8692 0.4944
vn -0.2289 -0.8117 0.5373
vn -0.0046 -0.1261 -0.992
vn 0.0003 -0.3217 -0.9468
vn -0.2357 -0.3665 -0.9001
vn -0.1279 0.8869 0.4438
vn -0.1156 0.7887 0.6038
vn -0.0014 0.8939 0.4482
vn 0.0011 -0.6086 0.7934
vn -0.2288 -0.3774 0.8974
vn -0.0045 -0.7545 0.6563
vn -0.1744 -0.9276 0.3303
vn 0.001 0.6087 -0.7934
vn -0.0013 0.448 -0.894
vn -0.2288 0.3775 -0.8973
vn -0.0046 -0.895 -0.446
vn -0.2352 -0.9522 -0.1947
vn -0.1216 0.6562 0.7447
vn 0.0011 0.7933 0.6088
vn -0.1255 0.9839 -0.1271
vn -0.1164 0.9912 0.0635
vn -0.0024 0.9923 -0.1242
vn -0.1224 0.9591 0.2551
vn -0.0005 0.9978 0.0662
vn -0.1778 -0.9832 -0.0413
vn -0.1278 0.4909 0.8618
vn -0.0043 0.6566 0.7543
vn 0.0009 0.9469 -0.3216
vn -0.0013 -0.7893 -0.614
vn -0.2364 -0.8928 -0.3834
vn -0.1766 -0.8402 0.5127
vn -0.1155 0.3208 0.9401
vn -0.0014 0.4942 0.8694
vn -0.1642 -0.511 -0.8437
vn -0.3946 0.657 -0.6424
vn -0.0045 0.262 -0.9651
vn -0.0046 0.7544 -0.6564
vn -0.1653 -0.1483 -0.975
vn -0.1765 0.8402 -0.5127
vn -0.0044 0.965 0.2624
vn 0.0011 0.3214 0.9469
vn -0.1731 -0.0416 0.984
vn -0.9801 -0.0645 -0.1875
vn -0.9801 0.0644 0.1877
vn -0.9801 -0.1875 0.0646
vn -0.9801 0.1877 -0.0644
vn -0.9803 0.191 0.0502
vn -0.9792 0.0431 -0.1983
vn -0.979 0.0819 -0.1865
vn -0.9791 -0.1984 -0.0443
vn -0.9804 0.1308 0.1476
vn -0.9791 -0.1174 0.1661
vn -0.979 -0.1871 -0.0812
vn -0.9803 -0.1559 -0.121
vn -0.9801 -0.1313 -0.1487
vn -0.9801 0.1203 -0.1578
vn -0.944 -0.0823 0.3195
vn -0.9801 -0.1203 0.1578
vn -0.9533 0.0444 0.2989
vn -0.9803 0.0883 -0.1764
vn -0.9801 0.1577 0.1204
vn -0.954 -0.1809 0.2392
vn -0.944 0.3117 -0.1085
vn -0.9803 0.1715 -0.0977
vn -0.9805 -0.1766 -0.0861
vn -0.9801 0.198 0.0123
vn -0.9762 -0.2026 0.0778
vn -0.9757 -0.1741 -0.1329
vn -0.9757 0.2118 0.0559
vn -0.9762 0.2 -0.0839
vn -0.9757 0.207 -0.0714
vn -0.9761 -0.1996 0.0861
vn -0.9003 -0.036 -0.4338
vn -0.9762 -0.0059 0.2168
vn -0.9757 0.1328 -0.1742
vn -0.9761 -0.1184 0.1822
vn -0.9009 0.3769 0.2151
vn -0.9762 -0.217 -0.0057
vn -0.9757 0.0713 0.207
vn -0.9445 0.0425 0.3258
vn -0.9762 -0.0778 -0.2027
vn -0.9786 0.1915 0.0751
vn -0.9758 0.1726 0.134
vn -0.9787 -0.1481 -0.1425
vn -0.9761 0.0906 -0.1973
vn -0.9757 -0.1328 0.1742
vn -0.9773 0.2099 0.028
vn -0.9758 -0.0561 0.2113
vn -0.9758 -0.0978 0.1955
vn -0.9787 -0.0442 -0.2006
vn -0.9763 0.0434 0.212
vn -0.9757 0.145 0.1642
vn -0.9265 -0.2802 -0.2511
vn -0.9786 -0.1425 0.1482
vn -0.9788 -0.1852 0.0878
vn -0.9787 -0.2021 -0.0363
vn -0.9788 -0.1759 -0.1053
vn -0.9773 0.0674 -0.2008
vn -0.9773 0.19 -0.0932
vn -0.8306 0.1813 0.5266
vn -0.9807 0.0128 0.1953
vn -0.9786 -0.1154 -0.1705
vn -0.8306 -0.1782 -0.5276
vn -0.8311 0.4999 0.2437
vn -0.831 0.4394 0.3411
vn -0.8307 0.5376 0.1448
vn -0.831 -0.3689 -0.4163
vn -0.8307 0.5271 -0.179
vn -0.8302 0.2527 -0.4968
vn -0.8304 -0.3378 0.443
vn -0.9822 0.1854 -0.0299
vn -0.8295 0.5575 0.0332
vn -0.8306 -0.5558 -0.0346
vn -0.831 -0.1427 0.5376
vn -0.831 -0.2489 0.4975
vn -0.8271 -0.071 -0.5576
vn -0.9763 0.0218 -0.2153
vn -0.8306 0.3397 -0.4412
vn -0.8305 0.3687 0.4175
vn -0.9764 0.1002 0.1913
vn -0.8269 -0.4247 0.3687
vn -0.831 -0.4834 0.2753
vn -0.831 -0.0342 0.5552
vn -0.8271 -0.5421 -0.1488
vn -0.831 -0.4975 -0.249
vn -0.8293 0.1379 -0.5415
vn -0.9822 0.1377 -0.1275
vn -0.8298 0.4818 -0.2818
vn -0.8306 -0.5275 0.1783
vn -0.8304 -0.4428 -0.338
vn -0.9764 -0.2152 0.0199
vn -0.8264 0.5586 -0.0709
vn -0.5518 0.8309 0.0714
vn -0.5541 -0.8309 -0.0517
vn -0.5546 -0.2135 0.8042
vn -0.5547 -0.3724 0.7441
vn -0.5539 -0.2702 -0.7875
vn -0.5525 -0.5151 0.6553
vn -0.5314 -0.0893 -0.8424
vn -0.8308 0.0318 -0.5557
vn -0.5525 0.5151 -0.6553
vn -0.5547 0.6572 0.5102
vn -0.5539 0.5511 0.6241
vn -0.8313 0.2794 0.4806
vn -0.5547 -0.6228 0.5518
vn -0.5547 -0.723 0.4118
vn -0.5548 -0.0512 0.8304
vn -0.5313 -0.8121 -0.2413
vn -0.553 0.2595 0.7917
vn -0.5523 0.2254 -0.8026
vn -0.8268 0.4248 -0.3687
vn -0.5514 0.7311 -0.4018
vn -0.5526 -0.7922 0.259
vn -0.5539 -0.6618 -0.5052
vn -0.5539 0.8049 0.2126
vn -0.831 -0.5511 0.0755
vn -0.5539 0.7871 -0.2714
vn -0.8233 0.0783 0.5622
vn -0.8266 -0.2732 -0.492
vn -0.5306 0.7502 0.3945
vn -0.5313 -0.5417 -0.6514
vn -0.5438 0.3533 -0.7612
vn -0.2383 0.5933 -0.7689
vn -0.2387 0.7671 0.5955
vn -0.2382 0.6429 0.728
vn -0.5543 0.4224 0.7172
vn -0.2386 -0.7269 0.644
vn -0.2386 -0.8438 0.4806
vn -0.2386 -0.0597 0.9693
vn -0.2387 -0.9391 -0.2472
vn -0.2387 -0.8684 -0.4346
vn -0.2388 0.3107 0.92
vn -0.5078 0.0548 -0.8597
vn -0.2378 0.2539 -0.9375
vn -0.5308 0.6514 -0.5422
vn -0.237 0.847 -0.4759
vn -0.2384 -0.9204 0.31
vn -0.2382 -0.772 -0.5893
vn -0.2382 0.939 0.2481
vn -0.5539 -0.8242 0.1177
vn -0.2382 0.9182 -0.3166
vn -0.526 0.8381 -0.1449
vn -0.5299 0.0881 0.8435
vn -0.5071 -0.7707 -0.3859
vn -0.2381 -0.969 -0.066
vn -0.5306 -0.3964 -0.7492
vn -0.2384 -0.3098 -0.9204
vn -0.2206 0.8705 0.4399
vn -0.2216 -0.6355 -0.7397
vn -0.23 0.4211 -0.8774
vn -0.2382 -0.5888 0.7724
vn -0.2295 0.9719 0.0526
vn -0.2225 -0.2653 0.9381
vn -0.2387 -0.4346 0.8684
vn -0.2217 -0.1184 -0.9679
vn -0.2062 0.4934 0.845
vn -0.0739 0.3246 0.9429
vn -0.222 0.0762 -0.9721
vn -0.0741 0.255 -0.9641
vn -0.221 0.7395 -0.6359
vn -0.074 0.8665 -0.4936
vn -0.0739 -0.9432 0.3239
vn -0.0739 -0.7927 -0.6051
vn -0.0739 0.9642 0.2547
vn -0.239 -0.9622 0.1303
vn -0.0738 0.9428 -0.3251
vn -0.2389 0.9615 -0.1361
vn -0.2198 0.117 0.9685
vn -0.074 -0.0613 0.9954
vn -0.0739 0.6046 -0.7931
vn -0.074 -0.9953 -0.062
vn -0.2207 -0.4701 -0.8545
vn -0.0739 -0.3237 -0.9433
vn -0.074 0.8964 0.437
vn -0.074 -0.6614 -0.7464
vn -0.0739 -0.6046 0.7931
vn -0.074 0.9948 0.0702
vn -0.074 -0.2558 0.9639
vn -0.074 -0.1364 -0.9879
vn -0.0741 0.7878 0.6115
vn -0.0739 0.6601 0.7475
vn -0.0741 -0.7464 0.6614
vn -0.074 -0.8666 0.4936
vn -0.0741 -0.9644 -0.2538
vn 0.2386 0.1161 0.9642
vn 0.2387 -0.0757 0.9681
vn 0.074 0.1194 0.9901
vn 0.2381 0.44 -0.8659
vn 0.2387 0.5932 -0.7689
vn 0.0738 0.4518 -0.8891
vn 0.5541 0.83 0.0644
vn 0.2382 0.9683 0.0751
vn 0.5373 0.8342 -0.1245
vn 0.2386 0.9362 0.258
vn 0.0739 0.9943 0.0772
vn 0.2382 -0.7379 0.6315
vn 0.0739 -0.7577 0.6484
vn 0.2226 -0.5872 0.7782
vn 0.2381 0.8658 0.4402
vn 0.2386 0.7688 0.5934
vn 0.0739 0.889 0.452
vn 0.0741 0.9903 -0.1171
vn 0.074 0.9453 -0.3178
vn 0.2075 0.9722 -0.1082
vn 0.5539 -0.7417 -0.3783
vn 0.2382 -0.8652 -0.4413
vn 0.5362 -0.8187 -0.2054
vn 0.2387 -0.7687 -0.5934
vn 0.0739 -0.8884 -0.4532
vn 0.5547 0.2274 -0.8004
vn 0.2386 0.2654 -0.9341
vn 0.5376 0.0392 -0.8423
vn 0.5539 -0.6326 0.5413
vn 0.5349 -0.4982 0.6824
vn 0.2381 0.4756 0.8468
vn 0.0739 0.4884 0.8695
vn 0.2253 0.643 0.7319
vn 0.5539 0.4077 0.7259
vn 0.537 0.5664 0.6252
vn 0.2382 0.8465 -0.4761
vn 0.2238 0.9295 -0.2933
vn 0.0739 0.8692 -0.4889
vn 0.5539 -0.4077 -0.726
vn 0.5547 -0.2654 -0.7886
vn 0.2382 -0.4805 -0.844
vn 0.5538 0.7422 0.3774
vn 0.5546 0.6587 0.5084
vn 0.554 -0.3779 0.7418
vn 0.2388 -0.4358 0.8678
vn 0.2382 -0.9644 0.115
vn 0.2387 -0.9688 -0.0671
vn 0.0739 -0.9903 0.1181
vn 0.5539 0.3772 -0.7423
vn 0.5546 0.5083 -0.6588
vn 0.5357 0.8203 0.2005
vn 0.239 -0.9331 -0.2686
vn 0.2387 -0.9236 0.2998
vn 0.2387 -0.8425 0.483
vn 0.5526 -0.7897 0.2664
vn 0.5547 -0.8301 -0.0575
vn 0.537 -0.5665 -0.6251
vn 0.2066 -0.6323 -0.7467
vn 0.074 -0.7894 -0.6094
vn 0.5546 0.6332 -0.5399
vn 0.2386 0.7389 -0.6301
vn 0.5548 -0.0649 0.8295
vn 0.538 0.1266 0.8334
vn 0.0741 0.6472 0.7587
vn 0.5547 0.2652 0.7887
vn 0.074 -0.8652 0.496
vn 0.074 -0.9485 0.3079
vn 0.5539 0.7257 -0.4082
vn 0.5368 0.7911 -0.2932
vn 0.5363 -0.2042 0.819
vn 0.2246 0.2933 0.9293
vn 0.5539 -0.8267 0.0986
vn 0.0739 -0.4527 0.8886
vn 0.2389 -0.2671 0.9336
vn 0.0738 -0.4883 -0.8695
vn 0.074 0.7588 -0.6471
vn 0.2214 -0.3251 -0.9194
vn 0.0741 -0.9949 -0.0688
vn 0.074 0.2725 -0.9593
vn 0.2383 0.0796 -0.9679
vn 0.074 0.3179 0.9452
vn 0.5547 -0.0987 -0.8262
vn 0.5387 -0.7444 0.3946
vn 0.2235 -0.1323 -0.9657
vn 0.074 -0.3181 -0.9452
vn 0.074 -0.1183 -0.9902
vn 0.0741 -0.0777 0.9942
vn 0.5547 -0.6586 -0.5084
vn 0.8305 -0.2728 -0.4857
vn 0.831 -0.1774 -0.5272
vn 0.831 -0.5549 -0.0384
vn 0.8311 -0.5353 -0.151
vn 0.831 -0.0434 0.5545
vn 0.831 -0.1502 0.5356
vn 0.831 0.152 -0.5351
vn 0.8285 0.0375 -0.5587
vn 0.8306 0.5552 0.0431
vn 0.831 0.5363 0.1478
vn 0.831 -0.4403 -0.3399
vn 0.8311 -0.361 -0.4232
vn 0.8303 -0.5292 0.1749
vn 0.8282 0.5558 -0.0715
vn 0.8304 0.2728 0.4857
vn 0.831 0.1773 0.5272
vn 0.8304 0.4966 0.2525
vn 0.831 0.4404 0.3399
vn 0.8287 0.0725 0.555
vn 0.8305 -0.4962 -0.2531
vn 0.8303 0.364 0.4221
vn 0.8306 -0.2528 0.4962
vn 0.831 0.4233 -0.361
vn 0.8278 0.338 -0.4477
vn 0.8305 -0.4232 0.3622
vn 0.8271 -0.34 0.4476
vn 0.8304 0.4856 -0.2731
vn 0.831 0.5273 -0.1773
vn 0.8304 0.2524 -0.4967
vn 0.831 -0.066 -0.5523
vn 0.8305 -0.5531 0.0659
vn 0.8288 -0.489 0.2719
vn 0.9762 -0.1918 0.101
vn 0.9763 0.0176 0.2159
vn 0.9762 0.2161 -0.0173
vn 0.9758 -0.026 -0.217
vn 0.9758 0.0168 -0.2179
vn 0.9757 0.2183 0.0169
vn 0.9757 0.1909 -0.1074
vn 0.9776 0.1693 -0.125
vn 0.9758 -0.017 0.2179
vn 0.9758 -0.059 0.2104
vn 0.9758 -0.218 -0.0151
vn 0.9758 -0.2103 -0.0593
vn 0.9758 -0.173 -0.1335
vn 0.9758 -0.1418 -0.1663
vn 0.9757 -0.2175 0.0259
vn 0.9758 0.0597 -0.2103
vn 0.9758 0.2107 0.0581
vn 0.9757 0.1073 0.191
vn 0.9794 0.0787 0.1859
vn 0.9794 0.1859 -0.0787
vn 0.9757 -0.1951 -0.0995
vn 0.9762 0.1344 0.1702
vn 0.9757 0.0992 -0.1953
vn 0.9762 -0.2086 0.0592
vn 0.9794 -0.1409 0.1445
vn 0.9774 -0.1405 0.1579
vn 0.9757 -0.1073 -0.191
vn 0.9758 -0.0697 -0.2072
vn 0.9757 -0.0994 0.1951
vn 0.9757 0.1953 0.0993
vn 0.9794 0.1686 0.1108
vn 0.9758 0.1335 -0.1731
vn 0.9804 -0.0539 0.1898
vn 0.9544 0.0971 0.2825
vn 0.9801 -0.1769 -0.0899
vn 0.9551 -0.2935 0.0392
vn 0.9804 -0.1501 0.128
vn 0.9545 -0.075 0.2888
vn 0.9805 0.1556 0.1196
vn 0.9803 0.1281 0.1502
vn 0.9801 0.197 -0.0236
vn 0.9803 0.1969 0.0136
vn 0.9803 0.0235 0.1959
vn 0.9802 0.0154 -0.1974
vn 0.9543 -0.1508 -0.258
vn 0.9801 -0.1978 -0.0154
vn 0.9547 -0.2581 0.1483
vn 0.9805 0.189 0.0534
vn 0.9801 -0.1729 0.0974
vn 0.9805 -0.1861 0.0625
vn 0.9764 0.1817 -0.1171
vn 0.9801 -0.0972 -0.173
vn 0.955 -0.2657 -0.1321
vn 0.9801 0.0899 -0.1769
vn 0.9805 0.1204 -0.1554
vn 0.9801 0.1508 -0.129
vn 0.9801 0.0972 0.1731
vn 0.9806 -0.1554 -0.1199
vn 0.9801 -0.0899 0.1769
vn 0.9805 0.053 -0.1892
vn 0.9803 0.0629 0.187
vn 0.9801 0.1768 0.09
vn 0.9365 0.0142 -0.3503
vn 0.9539 0.298 -0.0346
vn 0.1164 -0.9904 -0.0751
vn 0.3365 -0.9226 -0.1887
vn 0.1244 0.1201 0.9849
vn 0.1278 -0.0745 0.989
vn 0.1153 0.4877 0.8653
vn 0.3349 0.3548 0.8729
vn 0.1192 0.075 -0.99
vn 0.3396 0.1822 -0.9228
vn 0.1154 0.9861 -0.1195
vn 0.1244 0.9899 0.0682
vn 0.1153 0.8858 0.4496
vn 0.3344 0.782 0.526
vn 0.1214 -0.2683 0.9556
vn 0.1155 -0.8863 -0.4485
vn 0.1279 -0.785 -0.6061
vn 0.1328 0.9622 -0.2379
vn 0.1257 0.2662 -0.9557
vn 0.116 0.449 -0.886
vn 0.1156 -0.4483 0.8864
vn 0.1278 -0.606 0.7851
vn 0.1154 0.7537 -0.647
vn 0.3357 0.7813 -0.5261
vn 0.1154 -0.4878 -0.8653
vn 0.3349 -0.3549 -0.8729
vn 0.1156 -0.865 0.4883
vn 0.1279 -0.9401 0.316
vn 0.1241 0.3162 0.9405
vn 0.3356 -0.8726 0.3549
vn 0.3407 0.5283 0.7777
vn 0.3363 -0.784 -0.5217
vn 0.3474 0.6255 -0.6986
vn 0.4132 -0.5581 -0.7196
vn 0.0024 -0.9653 -0.261
vn 0.0046 -0.6558 -0.7549
vn -0.001 -0.4924 -0.8704
vn -0.001 0.7577 -0.6526
vn 0.0013 0.8672 -0.4979
vn 0.0048 -0.0705 0.9975
vn 0.0048 -0.264 0.9645
vn 0.0042 0.1247 0.9922
vn 0.0043 -0.7552 0.6555
vn 0.0017 0.6095 -0.7927
vn 0.0045 0.6559 0.7549
vn -0.0011 0.4923 0.8704
vn 0.0046 0.9482 -0.3176
vn -0.0009 0.9926 -0.1217
vn 0.0045 -0.1251 -0.9921
vn 0.0012 0.9977 0.068
vn 0.0049 0.9648 0.2628
vn 0.0012 0.3192 0.9477
vn -0.0011 -0.8703 0.4925
vn 0.0014 -0.9476 0.3194
vn 0.0044 0.0716 -0.9974
vn 0.0046 0.2625 -0.9649
vn -0.0009 -0.8929 -0.4502
vn -0.0002 0.4504 -0.8928
vn 0.0014 -0.6104 0.7921
vn -0.0006 0.8927 0.4507
vn 0.0015 0.792 0.6105
vn 0.0014 -0.3192 -0.9477
vn -0.0011 -0.4502 0.8929
vn 0.0044 -0.992 0.1258
vn 0.0015 -0.7922 -0.6103
vn 0.0005 -0.9973 -0.0734
vn -0.074 0.4951 0.8657
vn -0.074 0.0624 -0.9953
vn -0.0741 0.7465 -0.6613
vn -0.074 -0.9889 0.1286
vn -0.074 0.9881 -0.1345
vn -0.0742 0.1329 0.9884
vn -0.074 -0.8918 -0.4463
vn -0.074 -0.4934 -0.8667
vn -0.0741 0.4465 -0.8917
vn -0.074 -0.4463 0.8918
vn 0.0741 0.6092 -0.7896
vn 0.074 0.9614 0.265
vn 0.074 -0.6108 0.7883
vn 0.0739 0.7894 0.6094
vn 0.0741 -0.9598 -0.2708
vn 0.0741 -0.6472 -0.7587
vn 0.0739 -0.2692 0.9602
vn 0.074 0.0768 -0.9943
f 189/189/189 245/245/245 244/244/244
f 189/189/189 244/244/244 238/238/238
f 189/189/189 190/190/190 245/245/245
f 224/224/224 245/245/245 190/190/190
f 189/189/189 238/238/238 213/213/213
f 167/167/167 190/190/190 189/189/189
f 167/167/167 189/189/189 213/213/213
f 224/224/224 190/190/190 199/199/199
f 238/238/238 216/216/216 213/213/213
f 238/238/238 504/504/504 216/216/216
f 216/216/216 504/504/504 240/240/240
f 167/167/167 168/168/168 190/190/190
f 199/199/199 190/190/190 168/168/168
f 216/216/216 240/240/240 215/215/215
f 215/215/215 240/240/240 231/231/231
f 227/227/227 224/224/224 199/199/199
f 227/227/227 498/498/498 224/224/224
f 233/233/233 498/498/498 227/227/227
f 215/215/215 231/231/231 191/191/191
f 233/233/233 227/227/227 207/207/207
f 157/157/157 216/216/216 215/215/215
f 157/157/157 215/215/215 191/191/191
f 202/202/202 227/227/227 199/199/199
f 207/207/207 227/227/227 202/202/202
f 231/231/231 230/230/230 191/191/191
f 231/231/231 500/500/500 230/230/230
f 230/230/230 500/500/500 219/219/219
f 202/202/202 199/199/199 175/175/175
f 199/199/199 168/168/168 175/175/175
f 230/230/230 219/219/219 194/194/194
f 191/191/191 230/230/230 205/205/205
f 205/205/205 230/230/230 194/194/194
f 191/191/191 205/205/205 169/169/169
f 157/157/157 191/191/191 169/169/169
f 219/219/219 218/218/218 194/194/194
f 219/219/219 495/495/495 218/218/218
f 218/218/218 495/495/495 243/243/243
f 205/205/205 194/194/194 171/171/171
f 194/194/194 218/218/218 188/188/188
f 194/194/194 188/188/188 171/171/171
f 218/218/218 243/243/243 187/187/187
f 188/188/188 218/218/218 187/187/187
f 180/180/180 205/205/205 171/171/171
f 169/169/169 205/205/205 180/180/180
f 171/171/171 188/188/188 166/166/166
f 180/180/180 171/171/171 122/122/122
f 171/171/171 166/166/166 122/122/122
f 188/188/188 187/187/187 165/165/165
f 166/166/166 188/188/188 165/165/165
f 186/186/186 187/187/187 243/243/243
f 186/186/186 243/243/243 242/242/242
f 186/186/186 242/242/242 236/236/236
f 164/164/164 165/165/165 187/187/187
f 164/164/164 187/187/187 186/186/186
f 186/186/186 236/236/236 210/210/210
f 210/210/210 236/236/236 226/226/226
f 182/182/182 164/164/164 186/186/186
f 182/182/182 186/186/186 210/210/210
f 210/210/210 226/226/226 201/201/201
f 182/182/182 210/210/210 201/201/201
f 226/226/226 214/214/214 201/201/201
f 226/226/226 239/239/239 214/214/214
f 182/182/182 201/201/201 177/177/177
f 239/239/239 229/229/229 214/214/214
f 239/239/239 499/499/499 229/229/229
f 229/229/229 499/499/499 228/228/228
f 201/201/201 214/214/214 155/155/155
f 201/201/201 155/155/155 177/177/177
f 214/214/214 229/229/229 204/204/204
f 214/214/214 204/204/204 155/155/155
f 229/229/229 228/228/228 203/203/203
f 204/204/204 229/229/229 203/203/203
f 126/126/126 182/182/182 177/177/177
f 126/126/126 164/164/164 182/182/182
f 228/228/228 198/198/198 203/203/203
f 228/228/228 223/223/223 198/198/198
f 126/126/126 127/127/127 164/164/164
f 127/127/127 165/165/165 164/164/164
f 223/223/223 222/222/222 198/198/198
f 223/223/223 497/497/497 222/222/222
f 222/222/222 497/497/497 232/232/232
f 127/127/127 141/141/141 165/165/165
f 166/166/166 165/165/165 141/141/141
f 222/222/222 232/232/232 185/185/185
f 142/142/142 166/166/166 141/141/141
f 122/122/122 166/166/166 142/142/142
f 198/198/198 222/222/222 197/197/197
f 197/197/197 222/222/222 185/185/185
f 203/203/203 198/198/198 174/174/174
f 198/198/198 197/197/197 174/174/174
f 203/203/203 174/174/174 179/179/179
f 204/204/204 203/203/203 179/179/179
f 174/174/174 197/197/197 173/173/173
f 154/154/154 204/204/204 179/179/179
f 155/155/155 204/204/204 154/154/154
f 179/179/179 174/174/174 150/150/150
f 174/174/174 173/173/173 150/150/150
f 154/154/154 179/179/179 130/130/130
f 179/179/179 150/150/150 130/130/130
f 155/155/155 154/154/154 134/134/134
f 177/177/177 155/155/155 134/134/134
f 133/133/133 154/154/154 130/130/130
f 134/134/134 154/154/154 133/133/133
f 177/177/177 134/134/134 128/128/128
f 126/126/126 177/177/177 128/128/128
f 134/134/134 133/133/133 109/109/109
f 128/128/128 134/134/134 109/109/109
f 104/104/104 126/126/126 128/128/128
f 104/104/104 127/127/127 126/126/126
f 128/128/128 109/109/109 91/91/91
f 104/104/104 128/128/128 91/91/91
f 104/104/104 105/105/105 127/127/127
f 105/105/105 141/141/141 127/127/127
f 87/87/87 104/104/104 91/91/91
f 87/87/87 105/105/105 104/104/104
f 105/105/105 114/114/114 141/141/141
f 142/142/142 141/141/141 114/114/114
f 87/87/87 76/76/76 105/105/105
f 76/76/76 114/114/114 105/105/105
f 87/87/87 91/91/91 75/75/75
f 115/115/115 142/142/142 114/114/114
f 91/91/91 109/109/109 72/72/72
f 91/91/91 72/72/72 75/75/75
f 109/109/109 133/133/133 94/94/94
f 109/109/109 94/94/94 72/72/72
f 39/39/39 87/87/87 75/75/75
f 39/39/39 76/76/76 87/87/87
f 75/75/75 72/72/72 6/6/6
f 76/76/76 77/77/77 114/114/114
f 115/115/115 114/114/114 77/77/77
f 75/75/75 6/6/6 11/11/11
f 39/39/39 75/75/75 11/11/11
f 52/52/52 77/77/77 76/76/76
f 39/39/39 52/52/52 76/76/76
f 11/11/11 6/6/6 4/4/4
f 11/11/11 4/4/4 10/10/10
f 39/39/39 11/11/11 10/10/10
f 6/6/6 5/5/5 4/4/4
f 39/39/39 10/10/10 38/38/38
f 52/52/52 39/39/39 38/38/38
f 52/52/52 38/38/38 51/51/51
f 6/6/6 47/47/47 5/5/5
f 72/72/72 47/47/47 6/6/6
f 72/72/72 94/94/94 47/47/47
f 47/47/47 22/22/22 5/5/5
f 56/56/56 52/52/52 51/51/51
f 52/52/52 56/56/56 77/77/77
f 56/56/56 51/51/51 15/15/15
f 16/16/16 77/77/77 56/56/56
f 16/16/16 56/56/56 15/15/15
f 16/16/16 115/115/115 77/77/77
f 16/16/16 15/15/15 14/14/14
f 47/47/47 24/24/24 22/22/22
f 24/24/24 23/23/23 22/22/22
f 60/60/60 16/16/16 14/14/14
f 60/60/60 14/14/14 26/26/26
f 24/24/24 34/34/34 23/23/23
f 34/34/34 33/33/33 23/23/23
f 47/47/47 67/67/67 24/24/24
f 67/67/67 34/34/34 24/24/24
f 47/47/47 94/94/94 67/67/67
f 34/34/34 53/53/53 33/33/33
f 53/53/53 31/31/31 33/33/33
f 67/67/67 84/84/84 34/34/34
f 84/84/84 53/53/53 34/34/34
f 94/94/94 93/93/93 67/67/67
f 93/93/93 84/84/84 67/67/67
f 94/94/94 133/133/133 93/93/93
f 133/133/133 130/130/130 93/93/93
f 130/130/130 121/121/121 93/93/93
f 93/93/93 121/121/121 84/84/84
f 130/130/130 150/150/150 121/121/121
f 121/121/121 98/98/98 84/84/84
f 84/84/84 98/98/98 53/53/53
f 150/150/150 149/149/149 121/121/121
f 121/121/121 149/149/149 98/98/98
f 150/150/150 173/173/173 149/149/149
f 53/53/53 32/32/32 31/31/31
f 32/32/32 12/12/12 31/31/31
f 53/53/53 98/98/98 80/80/80
f 53/53/53 80/80/80 32/32/32
f 32/32/32 13/13/13 12/12/12
f 80/80/80 13/13/13 32/32/32
f 13/13/13 1/1/1 12/12/12
f 98/98/98 97/97/97 80/80/80
f 98/98/98 149/149/149 97/97/97
f 80/80/80 74/74/74 13/13/13
f 97/97/97 74/74/74 80/80/80
f 13/13/13 3/3/3 1/1/1
f 74/74/74 3/3/3 13/13/13
f 3/3/3 2/2/2 1/1/1
f 149/149/149 140/140/140 97/97/97
f 149/149/149 173/173/173 140/140/140
f 97/97/97 107/107/107 74/74/74
f 140/140/140 107/107/107 97/97/97
f 74/74/74 81/81/81 3/3/3
f 107/107/107 81/81/81 74/74/74
f 3/3/3 18/18/18 2/2/2
f 81/81/81 18/18/18 3/3/3
f 18/18/18 17/17/17 2/2/2
f 173/173/173 163/163/163 140/140/140
f 173/173/173 197/197/197 163/163/163
f 197/197/197 185/185/185 163/163/163
f 140/140/140 131/131/131 107/107/107
f 163/163/163 131/131/131 140/140/140
f 107/107/107 120/120/120 81/81/81
f 131/131/131 120/120/120 107/107/107
f 185/185/185 184/184/184 163/163/163
f 163/163/163 184/184/184 131/131/131
f 120/120/120 113/113/113 81/81/81
f 81/81/81 113/113/113 18/18/18
f 131/131/131 148/148/148 120/120/120
f 184/184/184 148/148/148 131/131/131
f 120/120/120 139/139/139 113/113/113
f 148/148/148 139/139/139 120/120/120
f 185/185/185 212/212/212 184/184/184
f 232/232/232 212/212/212 185/185/185
f 232/232/232 503/503/503 212/212/212
f 212/212/212 503/503/503 221/221/221
f 184/184/184 172/172/172 148/148/148
f 212/212/212 172/172/172 184/184/184
f 212/212/212 221/221/221 196/196/196
f 212/212/212 196/196/196 172/172/172
f 221/221/221 220/220/220 196/196/196
f 221/221/221 496/496/496 220/220/220
f 220/220/220 496/496/496 241/241/241
f 196/196/196 195/195/195 172/172/172
f 196/196/196 220/220/220 195/195/195
f 172/172/172 162/162/162 148/148/148
f 172/172/172 195/195/195 162/162/162
f 148/148/148 162/162/162 139/139/139
f 220/220/220 241/241/241 217/217/217
f 195/195/195 220/220/220 217/217/217
f 217/217/217 241/241/241 235/235/235
f 162/162/162 195/195/195 161/161/161
f 195/195/195 217/217/217 161/161/161
f 139/139/139 162/162/162 138/138/138
f 162/162/162 161/161/161 138/138/138
f 217/217/217 235/235/235 209/209/209
f 161/161/161 217/217/217 209/209/209
f 139/139/139 138/138/138 112/112/112
f 113/113/113 139/139/139 112/112/112
f 138/138/138 161/161/161 159/159/159
f 161/161/161 209/209/209 159/159/159
f 112/112/112 138/138/138 125/125/125
f 138/138/138 159/159/159 125/125/125
f 113/113/113 112/112/112 79/79/79
f 18/18/18 113/113/113 79/79/79
f 112/112/112 125/125/125 103/103/103
f 79/79/79 112/112/112 103/103/103
f 18/18/18 79/79/79 64/64/64
f 18/18/18 64/64/64 17/17/17
f 64/64/64 63/63/63 17/17/17
f 79/79/79 103/103/103 66/66/66
f 64/64/64 79/79/79 66/66/66
f 64/64/64 54/54/54 63/63/63
f 64/64/64 66/66/66 54/54/54
f 55/55/55 63/63/63 54/54/54
f 55/55/55 54/54/54 48/48/48
f 66/66/66 48/48/48 54/54/54
f 49/49/49 55/55/55 48/48/48
f 103/103/103 102/102/102 66/66/66
f 66/66/66 102/102/102 48/48/48
f 125/125/125 124/124/124 103/103/103
f 103/103/103 124/124/124 102/102/102
f 49/49/49 48/48/48 40/40/40
f 41/41/41 49/49/49 40/40/40
f 48/48/48 102/102/102 73/73/73
f 48/48/48 73/73/73 40/40/40
f 41/41/41 40/40/40 29/29/29
f 30/30/30 41/41/41 29/29/29
f 40/40/40 73/73/73 83/83/83
f 40/40/40 83/83/83 29/29/29
f 102/102/102 106/106/106 73/73/73
f 102/102/102 124/124/124 106/106/106
f 30/30/30 29/29/29 28/28/28
f 83/83/83 28/28/28 29/29/29
f 62/62/62 30/30/30 28/28/28
f 73/73/73 90/90/90 83/83/83
f 73/73/73 106/106/106 90/90/90
f 83/83/83 99/99/99 28/28/28
f 90/90/90 99/99/99 83/83/83
f 62/62/62 28/28/28 45/45/45
f 46/46/46 62/62/62 45/45/45
f 28/28/28 99/99/99 69/69/69
f 28/28/28 69/69/69 45/45/45
f 90/90/90 119/119/119 99/99/99
f 69/69/69 99/99/99 119/119/119
f 46/46/46 45/45/45 43/43/43
f 44/44/44 46/46/46 43/43/43
f 45/45/45 69/69/69 88/88/88
f 45/45/45 88/88/88 43/43/43
f 44/44/44 43/43/43 42/42/42
f 88/88/88 42/42/42 43/43/43
f 42/42/42 50/50/50 44/44/44
f 69/69/69 100/100/100 88/88/88
f 42/42/42 20/20/20 50/50/50
f 21/21/21 50/50/50 20/20/20
f 88/88/88 92/92/92 42/42/42
f 100/100/100 92/92/92 88/88/88
f 42/42/42 68/68/68 20/20/20
f 42/42/42 92/92/92 68/68/68
f 21/21/21 20/20/20 19/19/19
f 68/68/68 19/19/19 20/20/20
f 19/19/19 59/59/59 21/21/21
f 92/92/92 89/89/89 68/68/68
f 19/19/19 61/61/61 59/59/59
f 61/61/61 35/35/35 59/59/59
f 68/68/68 86/86/86 19/19/19
f 61/61/61 19/19/19 86/86/86
f 89/89/89 86/86/86 68/68/68
f 61/61/61 37/37/37 35/35/35
f 37/37/37 36/36/36 35/35/35
f 61/61/61 86/86/86 85/85/85
f 37/37/37 57/57/57 36/36/36
f 58/58/58 36/36/36 57/57/57
f 61/61/61 78/78/78 37/37/37
f 78/78/78 57/57/57 37/37/37
f 61/61/61 85/85/85 78/78/78
f 58/58/58 57/57/57 8/8/8
f 9/9/9 58/58/58 8/8/8
f 78/78/78 82/82/82 57/57/57
f 8/8/8 57/57/57 82/82/82
f 85/85/85 108/108/108 78/78/78
f 108/108/108 82/82/82 78/78/78
f 9/9/9 8/8/8 7/7/7
f 7/7/7 25/25/25 9/9/9
f 8/8/8 82/82/82 71/71/71
f 71/71/71 7/7/7 8/8/8
f 108/108/108 111/111/111 82/82/82
f 71/71/71 82/82/82 111/111/111
f 7/7/7 27/27/27 25/25/25
f 27/27/27 26/26/26 25/25/25
f 27/27/27 60/60/60 26/26/26
f 71/71/71 70/70/70 7/7/7
f 70/70/70 27/27/27 7/7/7
f 27/27/27 65/65/65 60/60/60
f 65/65/65 16/16/16 60/60/60
f 65/65/65 115/115/115 16/16/16
f 70/70/70 95/95/95 27/27/27
f 27/27/27 95/95/95 65/65/65
f 101/101/101 115/115/115 65/65/65
f 95/95/95 101/101/101 65/65/65
f 101/101/101 142/142/142 115/115/115
f 122/122/122 142/142/142 101/101/101
f 96/96/96 95/95/95 70/70/70
f 71/71/71 96/96/96 70/70/70
f 95/95/95 123/123/123 101/101/101
f 123/123/123 122/122/122 101/101/101
f 96/96/96 123/123/123 95/95/95
f 123/123/123 180/180/180 122/122/122
f 71/71/71 110/110/110 96/96/96
f 71/71/71 111/111/111 110/110/110
f 145/145/145 123/123/123 96/96/96
f 145/145/145 180/180/180 123/123/123
f 110/110/110 145/145/145 96/96/96
f 169/169/169 180/180/180 145/145/145
f 136/136/136 169/169/169 145/145/145
f 110/110/110 136/136/136 145/145/145
f 136/136/136 157/157/157 169/169/169
f 110/110/110 111/111/111 137/137/137
f 110/110/110 137/137/137 136/136/136
f 136/136/136 158/158/158 157/157/157
f 136/136/136 137/137/137 158/158/158
f 157/157/157 158/158/158 216/216/216
f 213/213/213 216/216/216 158/158/158
f 132/132/132 137/137/137 111/111/111
f 132/132/132 111/111/111 108/108/108
f 160/160/160 158/158/158 137/137/137
f 213/213/213 158/158/158 160/160/160
f 160/160/160 137/137/137 132/132/132
f 167/167/167 213/213/213 160/160/160
f 116/116/116 132/132/132 108/108/108
f 85/85/85 116/116/116 108/108/108
f 143/143/143 160/160/160 132/132/132
f 143/143/143 167/167/167 160/160/160
f 116/116/116 143/143/143 132/132/132
f 143/143/143 168/168/168 167/167/167
f 85/85/85 117/117/117 116/116/116
f 85/85/85 86/86/86 117/117/117
f 89/89/89 117/117/117 86/86/86
f 116/116/116 144/144/144 143/143/143
f 143/143/143 144/144/144 168/168/168
f 116/116/116 117/117/117 144/144/144
f 175/175/175 168/168/168 144/144/144
f 151/151/151 144/144/144 117/117/117
f 175/175/175 144/144/144 151/151/151
f 151/151/151 117/117/117 89/89/89
f 178/178/178 175/175/175 151/151/151
f 178/178/178 202/202/202 175/175/175
f 153/153/153 151/151/151 89/89/89
f 153/153/153 178/178/178 151/151/151
f 92/92/92 153/153/153 89/89/89
f 100/100/100 153/153/153 92/92/92
f 156/156/156 202/202/202 178/178/178
f 207/207/207 202/202/202 156/156/156
f 135/135/135 178/178/178 153/153/153
f 135/135/135 153/153/153 100/100/100
f 156/156/156 178/178/178 135/135/135
f 118/118/118 135/135/135 100/100/100
f 69/69/69 118/118/118 100/100/100
f 69/69/69 119/119/119 118/118/118
f 146/146/146 156/156/156 135/135/135
f 118/118/118 146/146/146 135/135/135
f 170/170/170 207/207/207 156/156/156
f 146/146/146 170/170/170 156/156/156
f 118/118/118 147/147/147 146/146/146
f 118/118/118 119/119/119 147/147/147
f 147/147/147 170/170/170 146/146/146
f 170/170/170 192/192/192 207/207/207
f 192/192/192 233/233/233 207/207/207
f 192/192/192 246/246/246 233/233/233
f 193/193/193 246/246/246 192/192/192
f 170/170/170 193/193/193 192/192/192
f 193/193/193 501/501/501 246/246/246
f 225/225/225 501/501/501 193/193/193
f 170/170/170 206/206/206 193/193/193
f 147/147/147 206/206/206 170/170/170
f 225/225/225 193/193/193 200/200/200
f 200/200/200 193/193/193 206/206/206
f 152/152/152 147/147/147 119/119/119
f 152/152/152 119/119/119 90/90/90
f 106/106/106 152/152/152 90/90/90
f 176/176/176 206/206/206 147/147/147
f 176/176/176 147/147/147 152/152/152
f 200/200/200 206/206/206 176/176/176
f 106/106/106 129/129/129 152/152/152
f 129/129/129 176/176/176 152/152/152
f 124/124/124 129/129/129 106/106/106
f 183/183/183 200/200/200 176/176/176
f 129/129/129 183/183/183 176/176/176
f 211/211/211 225/225/225 200/200/200
f 183/183/183 211/211/211 200/200/200
f 211/211/211 237/237/237 225/225/225
f 124/124/124 181/181/181 129/129/129
f 181/181/181 183/183/183 129/129/129
f 125/125/125 181/181/181 124/124/124
f 159/159/159 181/181/181 125/125/125
f 181/181/181 208/208/208 183/183/183
f 159/159/159 208/208/208 181/181/181
f 208/208/208 211/211/211 183/183/183
f 209/209/209 208/208/208 159/159/159
f 234/234/234 237/237/237 211/211/211
f 208/208/208 234/234/234 211/211/211
f 209/209/209 234/234/234 208/208/208
f 234/234/234 502/502/502 237/237/237
f 235/235/235 234/234/234 209/209/209
f 235/235/235 502/502/502 234/234/234
f 249/249/249 248/248/248 247/247/247
f 247/247/247 327/327/327 249/249/249
f 249/249/249 333/333/333 248/248/248
f 247/247/247 317/317/317 327/327/327
f 278/278/278 327/327/327 317/317/317
f 309/309/309 247/247/247 248/248/248
f 309/309/309 317/317/317 247/247/247
f 333/333/333 320/320/320 248/248/248
f 333/333/333 511/511/511 320/320/320
f 320/320/320 511/511/511 319/319/319
f 278/278/278 317/317/317 277/277/277
f 320/320/320 319/319/319 291/291/291
f 279/279/279 278/278/278 277/277/277
f 279/279/279 310/310/310 278/278/278
f 248/248/248 320/320/320 316/316/316
f 316/316/316 320/320/320 291/291/291
f 262/262/262 310/310/310 279/279/279
f 262/262/262 508/508/508 310/310/310
f 263/263/263 508/508/508 262/262/262
f 281/281/281 279/279/279 277/277/277
f 281/281/281 262/262/262 279/279/279
f 277/277/277 317/317/317 311/311/311
f 309/309/309 311/311/311 317/317/317
f 281/281/281 277/277/277 280/280/280
f 277/277/277 311/311/311 280/280/280
f 309/309/309 248/248/248 308/308/308
f 248/248/248 316/316/316 308/308/308
f 353/353/353 311/311/311 309/309/309
f 353/353/353 309/309/309 308/308/308
f 280/280/280 311/311/311 350/350/350
f 353/353/353 350/350/350 311/311/311
f 308/308/308 316/316/316 340/340/340
f 353/353/353 308/308/308 339/339/339
f 308/308/308 340/340/340 339/339/339
f 368/368/368 350/350/350 353/353/353
f 368/368/368 353/353/353 339/339/339
f 340/340/340 316/316/316 290/290/290
f 316/316/316 291/291/291 290/290/290
f 339/339/339 340/340/340 376/376/376
f 340/340/340 290/290/290 356/356/356
f 376/376/376 340/340/340 356/356/356
f 368/368/368 339/339/339 375/375/375
f 339/339/339 376/376/376 375/375/375
f 368/368/368 385/385/385 350/350/350
f 411/411/411 368/368/368 375/375/375
f 411/411/411 385/385/385 368/368/368
f 280/280/280 350/350/350 349/349/349
f 349/349/349 350/350/350 385/385/385
f 355/355/355 281/281/281 280/280/280
f 355/355/355 280/280/280 349/349/349
f 355/355/355 289/289/289 281/281/281
f 281/281/281 289/289/289 262/262/262
f 388/388/388 355/355/355 349/349/349
f 261/261/261 262/262/262 289/289/289
f 263/263/263 262/262/262 261/261/261
f 355/355/355 352/352/352 289/289/289
f 388/388/388 352/352/352 355/355/355
f 261/261/261 289/289/289 288/288/288
f 288/288/288 289/289/289 352/352/352
f 256/256/256 263/263/263 261/261/261
f 256/256/256 506/506/506 263/263/263
f 257/257/257 506/506/506 256/256/256
f 297/297/297 256/256/256 261/261/261
f 297/297/297 261/261/261 288/288/288
f 257/257/257 256/256/256 254/254/254
f 254/254/254 256/256/256 297/297/297
f 288/288/288 352/352/352 351/351/351
f 344/344/344 297/297/297 288/288/288
f 344/344/344 288/288/288 351/351/351
f 254/254/254 297/297/297 253/253/253
f 253/253/253 297/297/297 344/344/344
f 266/266/266 257/257/257 254/254/254
f 266/266/266 264/264/264 257/257/257
f 266/266/266 265/265/265 264/264/264
f 255/255/255 254/254/254 253/253/253
f 255/255/255 266/266/266 254/254/254
f 266/266/266 283/283/283 265/265/265
f 284/284/284 265/265/265 283/283/283
f 315/315/315 266/266/266 255/255/255
f 315/315/315 283/283/283 266/266/266
f 348/348/348 255/255/255 253/253/253
f 348/348/348 315/315/315 255/255/255
f 284/284/284 283/283/283 282/282/282
f 282/282/282 283/283/283 315/315/315
f 348/348/348 253/253/253 343/343/343
f 253/253/253 344/344/344 343/343/343
f 348/348/348 362/362/362 315/315/315
f 343/343/343 344/344/344 383/383/383
f 383/383/383 344/344/344 351/351/351
f 369/369/369 348/348/348 343/343/343
f 369/369/369 362/362/362 348/348/348
f 343/343/343 383/383/383 372/372/372
f 369/369/369 343/343/343 372/372/372
f 314/314/314 315/315/315 362/362/362
f 282/282/282 315/315/315 314/314/314
f 369/369/369 386/386/386 362/362/362
f 307/307/307 284/284/284 282/282/282
f 307/307/307 322/322/322 284/284/284
f 306/306/306 282/282/282 314/314/314
f 306/306/306 307/307/307 282/282/282
f 314/314/314 362/362/362 361/361/361
f 361/361/361 362/362/362 386/386/386
f 251/251/251 322/322/322 307/307/307
f 251/251/251 505/505/505 322/322/322
f 252/252/252 505/505/505 251/251/251
f 296/296/296 251/251/251 307/307/307
f 296/296/296 307/307/307 306/306/306
f 252/252/252 251/251/251 250/250/250
f 250/250/250 251/251/251 296/296/296
f 357/357/357 306/306/306 314/314/314
f 357/357/357 314/314/314 361/361/361
f 358/358/358 296/296/296 306/306/306
f 358/358/358 306/306/306 357/357/357
f 250/250/250 296/296/296 295/295/295
f 295/295/295 296/296/296 358/358/358
f 273/273/273 252/252/252 250/250/250
f 273/273/273 325/325/325 252/252/252
f 272/272/272 250/250/250 295/295/295
f 272/272/272 273/273/273 250/250/250
f 326/326/326 325/325/325 273/273/273
f 326/326/326 512/512/512 325/325/325
f 332/332/332 512/512/512 326/326/326
f 274/274/274 273/273/273 272/272/272
f 274/274/274 326/326/326 273/273/273
f 332/332/332 326/326/326 330/330/330
f 330/330/330 326/326/326 274/274/274
f 331/331/331 332/332/332 330/330/330
f 342/342/342 274/274/274 272/272/272
f 331/331/331 330/330/330 323/323/323
f 321/321/321 331/331/331 323/323/323
f 330/330/330 274/274/274 328/328/328
f 323/323/323 330/330/330 328/328/328
f 328/328/328 274/274/274 342/342/342
f 341/341/341 272/272/272 295/295/295
f 342/342/342 272/272/272 341/341/341
f 295/295/295 358/358/358 363/363/363
f 341/341/341 295/295/295 363/363/363
f 398/398/398 358/358/358 357/357/357
f 363/363/363 358/358/358 398/398/398
f 398/398/398 357/357/357 374/374/374
f 374/374/374 357/357/357 361/361/361
f 363/363/363 398/398/398 389/389/389
f 374/374/374 361/361/361 373/373/373
f 361/361/361 386/386/386 373/373/373
f 404/404/404 398/398/398 374/374/374
f 389/389/389 398/398/398 404/404/404
f 403/403/403 374/374/374 373/373/373
f 404/404/404 374/374/374 403/403/403
f 373/373/373 386/386/386 416/416/416
f 382/382/382 341/341/341 363/363/363
f 382/382/382 363/363/363 389/389/389
f 373/373/373 416/416/416 415/415/415
f 403/403/403 373/373/373 415/415/415
f 413/413/413 416/416/416 386/386/386
f 413/413/413 386/386/386 369/369/369
f 413/413/413 369/369/369 372/372/372
f 415/415/415 416/416/416 456/456/456
f 456/456/456 416/416/416 413/413/413
f 458/458/458 403/403/403 415/415/415
f 413/413/413 372/372/372 412/412/412
f 458/458/458 415/415/415 455/455/455
f 415/415/415 456/456/456 455/455/455
f 450/450/450 403/403/403 458/458/458
f 450/450/450 404/404/404 403/403/403
f 481/481/481 458/458/458 455/455/455
f 482/482/482 481/481/481 455/455/455
f 482/482/482 455/455/455 456/456/456
f 481/481/481 471/471/471 458/458/458
f 471/471/471 450/450/450 458/458/458
f 492/492/492 482/482/482 456/456/456
f 471/471/471 487/487/487 450/450/450
f 492/492/492 456/456/456 432/432/432
f 456/456/456 413/413/413 432/432/432
f 432/432/432 413/413/413 412/412/412
f 494/494/494 492/492/492 432/432/432
f 487/487/487 449/449/449 450/450/450
f 494/494/494 432/432/432 431/431/431
f 432/432/432 412/412/412 431/431/431
f 463/463/463 494/494/494 431/431/431
f 487/487/487 491/491/491 449/449/449
f 463/463/463 431/431/431 460/460/460
f 412/412/412 460/460/460 431/431/431
f 460/460/460 485/485/485 463/463/463
f 443/443/443 449/449/449 491/491/491
f 443/443/443 491/491/491 469/469/469
f 425/425/425 450/450/450 449/449/449
f 425/425/425 404/404/404 450/450/450
f 443/443/443 425/425/425 449/449/449
f 389/389/389 404/404/404 425/425/425
f 434/434/434 443/443/443 469/469/469
f 399/399/399 389/389/389 425/425/425
f 443/443/443 399/399/399 425/425/425
f 434/434/434 399/399/399 443/443/443
f 399/399/399 382/382/382 389/389/389
f 434/434/434 469/469/469 468/468/468
f 400/400/400 382/382/382 399/399/399
f 434/434/434 400/400/400 399/399/399
f 433/433/433 434/434/434 468/468/468
f 433/433/433 468/468/468 470/470/470
f 409/409/409 400/400/400 434/434/434
f 409/409/409 434/434/434 433/433/433
f 400/400/400 371/371/371 382/382/382
f 371/371/371 341/341/341 382/382/382
f 371/371/371 342/342/342 341/341/341
f 457/457/457 433/433/433 470/470/470
f 457/457/457 470/470/470 480/480/480
f 364/364/364 342/342/342 371/371/371
f 328/328/328 342/342/342 364/364/364
f 370/370/370 371/371/371 400/400/400
f 364/364/364 371/371/371 370/370/370
f 370/370/370 400/400/400 409/409/409
f 286/286/286 328/328/328 364/364/364
f 323/323/323 328/328/328 286/286/286
f 336/336/336 364/364/364 370/370/370
f 286/286/286 364/364/364 336/336/336
f 394/394/394 370/370/370 409/409/409
f 336/336/336 370/370/370 394/394/394
f 427/427/427 409/409/409 433/433/433
f 394/394/394 409/409/409 427/427/427
f 427/427/427 433/433/433 457/457/457
f 287/287/287 323/323/323 286/286/286
f 321/321/321 323/323/323 287/287/287
f 285/285/285 286/286/286 336/336/336
f 287/287/287 286/286/286 285/285/285
f 335/335/335 336/336/336 394/394/394
f 285/285/285 336/336/336 335/335/335
f 304/304/304 321/321/321 287/287/287
f 304/304/304 510/510/510 321/321/321
f 305/305/305 510/510/510 304/304/304
f 303/303/303 287/287/287 285/285/285
f 303/303/303 304/304/304 287/287/287
f 305/305/305 304/304/304 270/270/270
f 270/270/270 304/304/304 303/303/303
f 271/271/271 305/305/305 270/270/270
f 346/346/346 303/303/303 285/285/285
f 346/346/346 285/285/285 335/335/335
f 270/270/270 303/303/303 334/334/334
f 334/334/334 303/303/303 346/346/346
f 271/271/271 270/270/270 268/268/268
f 268/268/268 270/270/270 334/334/334
f 335/335/335 394/394/394 393/393/393
f 393/393/393 394/394/394 427/427/427
f 380/380/380 346/346/346 335/335/335
f 380/380/380 335/335/335 393/393/393
f 334/334/334 346/346/346 345/345/345
f 345/345/345 346/346/346 380/380/380
f 393/393/393 427/427/427 423/423/423
f 423/423/423 427/427/427 457/457/457
f 406/406/406 380/380/380 393/393/393
f 406/406/406 393/393/393 423/423/423
f 423/423/423 457/457/457 435/435/435
f 435/435/435 457/457/457 480/480/480
f 435/435/435 480/480/480 474/474/474
f 436/436/436 423/423/423 435/435/435
f 436/436/436 435/435/435 474/474/474
f 436/436/436 406/406/406 423/423/423
f 436/436/436 474/474/474 473/473/473
f 459/459/459 436/436/436 473/473/473
f 459/459/459 406/406/406 436/436/436
f 459/459/459 473/473/473 489/489/489
f 379/379/379 380/380/380 406/406/406
f 345/345/345 380/380/380 379/379/379
f 459/459/459 405/405/405 406/406/406
f 379/379/379 406/406/406 405/405/405
f 441/441/441 459/459/459 489/489/489
f 441/441/441 489/489/489 488/488/488
f 428/428/428 405/405/405 459/459/459
f 428/428/428 459/459/459 441/441/441
f 442/442/442 441/441/441 488/488/488
f 442/442/442 428/428/428 441/441/441
f 442/442/442 488/488/488 479/479/479
f 387/387/387 405/405/405 428/428/428
f 387/387/387 379/379/379 405/405/405
f 442/442/442 414/414/414 428/428/428
f 414/414/414 387/387/387 428/428/428
f 440/440/440 442/442/442 479/479/479
f 440/440/440 479/479/479 478/478/478
f 354/354/354 379/379/379 387/387/387
f 354/354/354 345/345/345 379/379/379
f 439/439/439 440/440/440 478/478/478
f 439/439/439 478/478/478 476/476/476
f 408/408/408 442/442/442 440/440/440
f 408/408/408 414/414/414 442/442/442
f 407/407/407 440/440/440 439/439/439
f 407/407/407 408/408/408 440/440/440
f 446/446/446 439/439/439 476/476/476
f 446/446/446 407/407/407 439/439/439
f 446/446/446 476/476/476 475/475/475
f 414/414/414 378/378/378 387/387/387
f 378/378/378 354/354/354 387/387/387
f 377/377/377 414/414/414 408/408/408
f 377/377/377 378/378/378 414/414/414
f 381/381/381 408/408/408 407/407/407
f 381/381/381 377/377/377 408/408/408
f 446/446/446 417/417/417 407/407/407
f 417/417/417 381/381/381 407/407/407
f 461/461/461 446/446/446 475/475/475
f 461/461/461 475/475/475 467/467/467
f 446/446/446 430/430/430 417/417/417
f 446/446/446 461/461/461 430/430/430
f 451/451/451 461/461/461 467/467/467
f 451/451/451 467/467/467 466/466/466
f 461/461/461 422/422/422 430/430/430
f 461/461/461 451/451/451 422/422/422
f 452/452/452 451/451/451 466/466/466
f 452/452/452 422/422/422 451/451/451
f 452/452/452 466/466/466 472/472/472
f 430/430/430 422/422/422 391/391/391
f 448/448/448 452/452/452 472/472/472
f 448/448/448 472/472/472 486/486/486
f 452/452/452 421/421/421 422/422/422
f 421/421/421 391/391/391 422/422/422
f 420/420/420 452/452/452 448/448/448
f 420/420/420 421/421/421 452/452/452
f 447/447/447 448/448/448 486/486/486
f 447/447/447 420/420/420 448/448/448
f 447/447/447 486/486/486 484/484/484
f 395/395/395 421/421/421 420/420/420
f 437/437/437 447/447/447 484/484/484
f 437/437/437 484/484/484 483/483/483
f 447/447/447 426/426/426 420/420/420
f 426/426/426 395/395/395 420/420/420
f 410/410/410 447/447/447 437/437/437
f 410/410/410 426/426/426 447/447/447
f 483/483/483 438/438/438 437/437/437
f 438/438/438 410/410/410 437/437/437
f 483/483/483 477/477/477 438/438/438
f 375/375/375 426/426/426 410/410/410
f 375/375/375 376/376/376 426/426/426
f 426/426/426 376/376/376 395/395/395
f 411/411/411 375/375/375 410/410/410
f 438/438/438 411/411/411 410/410/410
f 376/376/376 356/356/356 395/395/395
f 438/438/438 429/429/429 411/411/411
f 411/411/411 429/429/429 385/385/385
f 477/477/477 462/462/462 438/438/438
f 438/438/438 462/462/462 429/429/429
f 477/477/477 490/490/490 462/462/462
f 384/384/384 385/385/385 429/429/429
f 349/349/349 385/385/385 384/384/384
f 388/388/388 349/349/349 384/384/384
f 453/453/453 462/462/462 490/490/490
f 453/453/453 490/490/490 465/465/465
f 418/418/418 429/429/429 462/462/462
f 418/418/418 462/462/462 453/453/453
f 384/384/384 429/429/429 418/418/418
f 454/454/454 453/453/453 465/465/465
f 454/454/454 418/418/418 453/453/453
f 454/454/454 465/465/465 464/464/464
f 419/419/419 384/384/384 418/418/418
f 454/454/454 419/419/419 418/418/418
f 419/419/419 388/388/388 384/384/384
f 445/445/445 454/454/454 464/464/464
f 445/445/445 419/419/419 454/454/454
f 445/445/445 464/464/464 493/493/493
f 419/419/419 397/397/397 388/388/388
f 388/388/388 397/397/397 352/352/352
f 351/351/351 352/352/352 397/397/397
f 419/419/419 424/424/424 397/397/397
f 445/445/445 424/424/424 419/419/419
f 351/351/351 397/397/397 396/396/396
f 396/396/396 397/397/397 424/424/424
f 383/383/383 351/351/351 396/396/396
f 401/401/401 424/424/424 445/445/445
f 396/396/396 424/424/424 401/401/401
f 493/493/493 444/444/444 445/445/445
f 401/401/401 445/445/445 444/444/444
f 493/493/493 485/485/485 444/444/444
f 460/460/460 444/444/444 485/485/485
f 460/460/460 401/401/401 444/444/444
f 402/402/402 383/383/383 396/396/396
f 402/402/402 396/396/396 401/401/401
f 460/460/460 402/402/402 401/401/401
f 372/372/372 383/383/383 402/402/402
f 412/412/412 402/402/402 460/460/460
f 372/372/372 402/402/402 412/412/412
f 395/395/395 392/392/392 421/421/421
f 356/356/356 392/392/392 395/395/395
f 421/421/421 392/392/392 391/391/391
f 356/356/356 360/360/360 392/392/392
f 290/290/290 360/360/360 356/356/356
f 392/392/392 359/359/359 391/391/391
f 392/392/392 360/360/360 359/359/359
f 290/290/290 276/276/276 360/360/360
f 291/291/291 276/276/276 290/290/290
f 360/360/360 275/275/275 359/359/359
f 360/360/360 276/276/276 275/275/275
f 367/367/367 391/391/391 359/359/359
f 430/430/430 391/391/391 367/367/367
f 417/417/417 430/430/430 367/367/367
f 291/291/291 260/260/260 276/276/276
f 319/319/319 260/260/260 291/291/291
f 319/319/319 507/507/507 260/260/260
f 260/260/260 507/507/507 259/259/259
f 276/276/276 260/260/260 258/258/258
f 260/260/260 259/259/259 258/258/258
f 276/276/276 258/258/258 275/275/275
f 300/300/300 258/258/258 259/259/259
f 300/300/300 259/259/259 312/312/312
f 329/329/329 275/275/275 258/258/258
f 329/329/329 258/258/258 300/300/300
f 366/366/366 359/359/359 275/275/275
f 366/366/366 275/275/275 329/329/329
f 367/367/367 359/359/359 366/366/366
f 299/299/299 300/300/300 312/312/312
f 299/299/299 312/312/312 313/313/313
f 299/299/299 313/313/313 294/294/294
f 301/301/301 329/329/329 300/300/300
f 301/301/301 300/300/300 299/299/299
f 347/347/347 366/366/366 329/329/329
f 347/347/347 329/329/329 301/301/301
f 390/390/390 367/367/367 366/366/366
f 417/417/417 367/367/367 390/390/390
f 390/390/390 366/366/366 347/347/347
f 417/417/417 390/390/390 381/381/381
f 301/301/301 299/299/299 292/292/292
f 299/299/299 294/294/294 292/292/292
f 390/390/390 365/365/365 381/381/381
f 390/390/390 347/347/347 365/365/365
f 365/365/365 377/377/377 381/381/381
f 347/347/347 301/301/301 318/318/318
f 347/347/347 318/318/318 365/365/365
f 301/301/301 292/292/292 318/318/318
f 365/365/365 337/337/337 377/377/377
f 318/318/318 337/337/337 365/365/365
f 337/337/337 378/378/378 377/377/377
f 292/292/292 302/302/302 318/318/318
f 318/318/318 302/302/302 337/337/337
f 294/294/294 293/293/293 292/292/292
f 292/292/292 293/293/293 302/302/302
f 294/294/294 324/324/324 293/293/293
f 337/337/337 338/338/338 378/378/378
f 302/302/302 338/338/338 337/337/337
f 378/378/378 338/338/338 354/354/354
f 293/293/293 269/269/269 302/302/302
f 302/302/302 269/269/269 338/338/338
f 324/324/324 298/298/298 293/293/293
f 293/293/293 298/298/298 269/269/269
f 324/324/324 509/509/509 298/298/298
f 298/298/298 509/509/509 271/271/271
f 298/298/298 271/271/271 268/268/268
f 269/269/269 298/298/298 268/268/268
f 338/338/338 267/267/267 354/354/354
f 338/338/338 269/269/269 267/267/267
f 269/269/269 268/268/268 267/267/267
f 267/267/267 345/345/345 354/354/354
f 268/268/268 334/334/334 267/267/267
f 267/267/267 334/334/334 345/345/345
