# VPXTOOL table OBJ file
# VPXTOOL OBJ file
# numVerts: 795 numFaces: 736
o Bumper Cap - Gottlieb flower 1
v 0.331756 0.11575 0.221673
v 0.331756 0.15375 0.221673
v 0.368628 0.15375 0.152691
v 0.368628 0.11575 0.152691
v 0.221673 0.11575 0.331756
v 0.221673 0.15375 0.331756
v 0.282136 0.15375 0.282136
v 0.282136 0.11575 0.282136
v 0.077841 0.11575 0.391333
v 0.077841 0.15375 0.391333
v 0.152691 0.15375 0.368628
v 0.152691 0.11575 0.368628
v 0.391333 0.15375 0.077841
v 0.391333 0.11575 0.077841
v 0 0.11575 0.399
v 0 0.15375 0.399
v 0.368628 0.15375 -0.152691
v 0.331756 0.15375 -0.221673
v 0.368628 0.11575 -0.152691
v 0.331756 0.11575 -0.221673
v 0.282136 0.15375 -0.282136
v 0.221673 0.15375 -0.331756
v 0.282136 0.11575 -0.282136
v 0.221673 0.11575 -0.331756
v 0.152691 0.15375 -0.368628
v 0.077841 0.15375 -0.391333
v 0.152691 0.11575 -0.368628
v 0.077841 0.11575 -0.391333
v 0.391333 0.15375 -0.077841
v 0.391333 0.11575 -0.077841
v 0 0.15375 -0.399
v 0 0.11575 -0.399
v 0.394661 0.11575 0.044056
v 0.394661 0.15375 0.044056
v 0.429836 0.15375 0.044052
v 0.429836 0.11575 0.044052
v 0.451862 0.15375 0.03815
v 0.451862 0.11575 0.03815
v 0.467986 0.15375 0.022026
v 0.467986 0.11575 0.022026
v 0.473888 0.15375 0
v 0.473888 0.11575 0
v 0.394661 0.15375 0.044056
v 0.394661 0.11575 0.044056
v 0.429836 0.11575 -0.044052
v 0.429836 0.15375 -0.044052
v 0.394661 0.15375 -0.044056
v 0.394661 0.11575 -0.044056
v 0.451862 0.11575 -0.03815
v 0.451862 0.15375 -0.03815
v 0.467986 0.11575 -0.022026
v 0.467986 0.15375 -0.022026
v 0.394661 0.11575 -0.044056
v 0.394661 0.15375 -0.044056
v 0 0.10625 -0.51775
v 0 0.09675 -0.52725
v 0.102861 0.09675 -0.517119
v 0.101008 0.10625 -0.507802
v 0.20177 0.09675 -0.487115
v 0.198134 0.10625 -0.478339
v 0.292924 0.09675 -0.438392
v 0.287647 0.10625 -0.430493
v 0.372822 0.09675 -0.372822
v 0.366105 0.10625 -0.366105
v 0.438392 0.09675 -0.292924
v 0.430493 0.10625 -0.287647
v 0.487116 0.09675 -0.20177
v 0.478339 0.10625 -0.198134
v 0.517119 0.09675 -0.102861
v 0.507802 0.10625 -0.101008
v 0.52725 0.09675 0
v 0.51775 0.10625 0
v 0.517119 0.09675 0.102861
v 0.507802 0.10625 0.101008
v 0.487116 0.09675 0.20177
v 0.478339 0.10625 0.198134
v 0.438392 0.09675 0.292924
v 0.430493 0.10625 0.287647
v 0.372822 0.09675 0.372822
v 0.366105 0.10625 0.366105
v 0.292924 0.09675 0.438392
v 0.287647 0.10625 0.430493
v 0.20177 0.09675 0.487115
v 0.198134 0.10625 0.478339
v 0.102861 0.09675 0.517119
v 0.101008 0.10625 0.507802
v 0 0.09675 0.52725
v 0 0.10625 0.51775
v 0 0.11575 -0.399
v 0 0.11575 -0.509983
v 0.077841 0.11575 -0.391333
v 0.101008 0.10625 -0.507802
v 0.079203 0.10625 -0.398182
v 0 0.10625 -0.51775
v 0.198134 0.10625 -0.478339
v 0.195163 0.11575 -0.471163
v 0.152691 0.11575 -0.368628
v 0.221673 0.11575 -0.331756
v 0.287647 0.10625 -0.430493
v 0.225552 0.10625 -0.337562
v 0.198134 0.10625 -0.478339
v 0.366105 0.10625 -0.366105
v 0.360613 0.11575 -0.360613
v 0.282136 0.11575 -0.282136
v 0.331756 0.11575 -0.221673
v 0.430493 0.10625 -0.287647
v 0.337562 0.10625 -0.225552
v 0.478339 0.10625 -0.198134
v 0.471163 0.11575 -0.195163
v 0.368628 0.11575 -0.152691
v 0.368628 0.11575 0.152691
v 0.471163 0.11575 0.195163
v 0.331756 0.11575 0.221673
v 0.430493 0.10625 0.287647
v 0.337562 0.10625 0.225552
v 0.478339 0.10625 0.198134
v 0.366105 0.10625 0.366105
v 0.360613 0.11575 0.360613
v 0.282136 0.11575 0.282136
v 0.221673 0.11575 0.331756
v 0.287647 0.10625 0.430493
v 0.225552 0.10625 0.337562
v 0.198134 0.10625 0.478339
v 0.195163 0.11575 0.471163
v 0.152691 0.11575 0.368628
v 0.077841 0.11575 0.391333
v 0.101008 0.10625 0.507802
v 0.079203 0.10625 0.398182
v 0.198134 0.10625 0.478339
v 0 0.10625 0.51775
v 0 0.11575 0.509984
v 0 0.11575 0.399
v 0.077841 0.11575 0.391333
v 0 0.10625 -0.51775
v 0.079203 0.10625 -0.398182
v 0.077841 0.11575 -0.391333
v 0 0.11575 -0.509983
v 0.198134 0.10625 -0.478339
v 0.195163 0.11575 -0.471163
v 0.225552 0.10625 -0.337562
v 0.221673 0.11575 -0.331756
v 0.366105 0.10625 -0.366105
v 0.360613 0.11575 -0.360613
v 0.337562 0.10625 -0.225552
v 0.331756 0.11575 -0.221673
v 0.478339 0.10625 -0.198134
v 0.471163 0.11575 -0.195163
v 0.478339 0.10625 0.198134
v 0.337562 0.10625 0.225552
v 0.331756 0.11575 0.221673
v 0.471163 0.11575 0.195163
v 0.366105 0.10625 0.366105
v 0.360613 0.11575 0.360613
v 0.225552 0.10625 0.337562
v 0.221673 0.11575 0.331756
v 0.198134 0.10625 0.478339
v 0.195163 0.11575 0.471163
v 0.079203 0.10625 0.398182
v 0.077841 0.11575 0.391333
v 0 0.10625 0.51775
v 0 0.11575 0.509984
v 0.102861 0.0445 -0.517119
v 0.102861 0.09675 -0.517119
v 0 0.09675 -0.52725
v 0 0.0445 -0.52725
v 0.20177 0.0445 -0.487115
v 0.20177 0.09675 -0.487115
v 0.292924 0.0445 -0.438392
v 0.292924 0.09675 -0.438392
v 0.372822 0.0445 -0.372822
v 0.372822 0.09675 -0.372822
v 0.438392 0.0445 -0.292924
v 0.438392 0.09675 -0.292924
v 0.487116 0.0445 -0.20177
v 0.487116 0.09675 -0.20177
v 0.517119 0.0445 -0.102861
v 0.517119 0.09675 -0.102861
v 0.52725 0.0445 0
v 0.52725 0.09675 0
v 0.517119 0.0445 0.102861
v 0.517119 0.09675 0.102861
v 0.487116 0.0445 0.20177
v 0.487116 0.09675 0.20177
v 0.438392 0.0445 0.292924
v 0.438392 0.09675 0.292924
v 0.372822 0.0445 0.372822
v 0.372822 0.09675 0.372822
v 0.292924 0.0445 0.438392
v 0.292924 0.09675 0.438392
v 0.20177 0.0445 0.487115
v 0.20177 0.09675 0.487115
v 0.102861 0.0445 0.517119
v 0.102861 0.09675 0.517119
v 0 0.0445 0.52725
v 0 0.09675 0.52725
v 0.120137 0.0445 -0.603969
v 0.102861 0.0445 -0.517119
v 0 0.0445 -0.52725
v 0 0.035 -0.535279
v 0 0.035 -0.6745
v 0.121719 0.035 -0.611924
v 0.25812 0.035 -0.623157
v 0.204842 0.035 -0.494533
v 0.20177 0.0445 -0.487115
v 0.342121 0.0445 -0.512021
v 0.292924 0.0445 -0.438392
v 0.346627 0.035 -0.518764
v 0.476944 0.035 -0.476944
v 0.3785 0.035 -0.3785
v 0.372822 0.0445 -0.372822
v 0.512021 0.0445 -0.342121
v 0.438392 0.0445 -0.292924
v 0.518764 0.035 -0.346627
v 0.623157 0.035 -0.25812
v 0.494534 0.035 -0.204842
v 0.487116 0.0445 -0.20177
v 0.603969 0.0445 -0.120137
v 0.517119 0.0445 -0.102861
v 0.487116 0.0445 -0.20177
v 0.611924 0.035 -0.121719
v 0.6745 0.035 0
v 0.535279 0.035 0
v 0.52725 0.0445 0
v 0.603969 0.0445 0.120137
v 0.517119 0.0445 0.102861
v 0.611924 0.035 0.121719
v 0.623157 0.035 0.25812
v 0.494534 0.035 0.204842
v 0.487116 0.0445 0.20177
v 0.512021 0.0445 0.342121
v 0.438392 0.0445 0.292924
v 0.487116 0.0445 0.20177
v 0.518764 0.035 0.346627
v 0.476944 0.035 0.476944
v 0.3785 0.035 0.3785
v 0.372822 0.0445 0.372822
v 0.342121 0.0445 0.51202
v 0.292924 0.0445 0.438392
v 0.346627 0.035 0.518764
v 0.25812 0.035 0.623157
v 0.204842 0.035 0.494533
v 0.20177 0.0445 0.487115
v 0.120137 0.0445 0.603969
v 0.102861 0.0445 0.517119
v 0.121719 0.035 0.611924
v 0 0.035 0.6745
v 0 0.035 0.535279
v 0 0.0445 0.52725
v 0 0.035 -0.535279
v 0.121719 0.035 -0.611924
v 0 0.0445 -0.52725
v 0.120137 0.0445 -0.603969
v 0.204842 0.035 -0.494533
v 0.20177 0.0445 -0.487115
v 0.346627 0.035 -0.518764
v 0.342121 0.0445 -0.512021
v 0.3785 0.035 -0.3785
v 0.372822 0.0445 -0.372822
v 0.518764 0.035 -0.346627
v 0.512021 0.0445 -0.342121
v 0.494534 0.035 -0.204842
v 0.487116 0.0445 -0.20177
v 0.611924 0.035 -0.121719
v 0.603969 0.0445 -0.120137
v 0.535279 0.035 0
v 0.52725 0.0445 0
v 0.611924 0.035 0.121719
v 0.603969 0.0445 0.120137
v 0.494534 0.035 0.204842
v 0.487116 0.0445 0.20177
v 0.518764 0.035 0.346627
v 0.512021 0.0445 0.342121
v 0.3785 0.035 0.3785
v 0.372822 0.0445 0.372822
v 0.346627 0.035 0.518764
v 0.342121 0.0445 0.51202
v 0.204842 0.035 0.494533
v 0.20177 0.0445 0.487115
v 0.121719 0.035 0.611924
v 0.120137 0.0445 0.603969
v 0 0.035 0.535279
v 0 0.0445 0.52725
v 0.123434 0.0065 -0.620543
v 0.121719 0.035 -0.611924
v 0 0.0065 -0.684
v 0 0.035 -0.6745
v 0.261755 0.0065 -0.631934
v 0.25812 0.035 -0.623157
v 0.351509 0.0065 -0.526071
v 0.346627 0.035 -0.518764
v 0.483661 0.0065 -0.483661
v 0.476944 0.035 -0.476944
v 0.526071 0.0065 -0.351509
v 0.518764 0.035 -0.346627
v 0.631934 0.0065 -0.261755
v 0.623157 0.035 -0.25812
v 0.620543 0.0065 -0.123434
v 0.611924 0.035 -0.121719
v 0.684 0.0065 0
v 0.6745 0.035 0
v 0.620543 0.0065 0.123434
v 0.611924 0.035 0.121719
v 0.631934 0.0065 0.261755
v 0.623157 0.035 0.25812
v 0.526071 0.0065 0.351509
v 0.518764 0.035 0.346627
v 0.483661 0.0065 0.483661
v 0.476944 0.035 0.476944
v 0.351509 0.0065 0.526071
v 0.346627 0.035 0.518764
v 0.261755 0.0065 0.631934
v 0.25812 0.035 0.623157
v 0.123434 0.0065 0.620543
v 0.121719 0.035 0.611924
v 0 0.0065 0.684
v 0 0.035 0.6745
v 0.507802 0.10625 0.101008
v 0.398182 0.10625 0.079203
v 0.51775 0.10625 0
v 0.478339 0.10625 0.198134
v 0.391333 0.11575 0.077841
v 0.391333 0.11575 -0.077841
v 0.507802 0.10625 -0.101008
v 0.398182 0.10625 -0.079203
v 0.51775 0.10625 0
v 0.51775 0.10625 0
v 0.451862 0.11575 0.03815
v 0.509983 0.11575 -0
v 0.398182 0.10625 0.079203
v 0.391333 0.11575 0.077841
v 0.398182 0.10625 -0.079203
v 0.391333 0.11575 -0.077841
v 0.394661 0.11575 0.044056
v 0.429836 0.11575 0.044052
v 0.451862 0.11575 0.03815
v 0.467986 0.11575 0.022026
v 0.473888 0.11575 0
v 0.509983 0.11575 -0
v 0.451862 0.11575 -0.03815
v 0.429836 0.11575 -0.044052
v 0.394661 0.11575 -0.044056
v 0.451862 0.11575 -0.03815
v 0.467986 0.11575 -0.022026
v -0.331756 0.11575 -0.221673
v -0.331756 0.15375 -0.221673
v -0.368628 0.15375 -0.152691
v -0.368628 0.11575 -0.152691
v -0.221673 0.11575 -0.331756
v -0.221673 0.15375 -0.331756
v -0.282136 0.15375 -0.282136
v -0.282136 0.11575 -0.282136
v -0.077841 0.11575 -0.391333
v -0.077841 0.15375 -0.391333
v -0.152691 0.15375 -0.368628
v -0.152691 0.11575 -0.368628
v -0.391333 0.15375 -0.077841
v -0.391333 0.11575 -0.077841
v -0.368628 0.15375 0.152691
v -0.331756 0.15375 0.221673
v -0.368628 0.11575 0.152691
v -0.331756 0.11575 0.221673
v -0.282136 0.15375 0.282136
v -0.221673 0.15375 0.331756
v -0.282136 0.11575 0.282136
v -0.221673 0.11575 0.331756
v -0.152691 0.15375 0.368628
v -0.077841 0.15375 0.391333
v -0.152691 0.11575 0.368628
v -0.077841 0.11575 0.391333
v -0.391333 0.15375 0.077841
v -0.391333 0.11575 0.077841
v -0.394661 0.11575 -0.044056
v -0.394661 0.15375 -0.044056
v -0.429836 0.15375 -0.044052
v -0.429836 0.11575 -0.044052
v -0.451862 0.15375 -0.03815
v -0.451862 0.11575 -0.03815
v -0.467986 0.15375 -0.022026
v -0.467986 0.11575 -0.022026
v -0.473888 0.15375 -0
v -0.473888 0.11575 -0
v -0.394661 0.15375 -0.044056
v -0.394661 0.11575 -0.044056
v -0.429836 0.11575 0.044052
v -0.429836 0.15375 0.044052
v -0.394661 0.15375 0.044056
v -0.394661 0.11575 0.044056
v -0.451862 0.11575 0.03815
v -0.451862 0.15375 0.03815
v -0.467986 0.11575 0.022026
v -0.467986 0.15375 0.022026
v -0.394661 0.11575 0.044056
v -0.394661 0.15375 0.044056
v -0.102861 0.09675 0.517119
v -0.101008 0.10625 0.507802
v -0.20177 0.09675 0.487115
v -0.198134 0.10625 0.478339
v -0.292924 0.09675 0.438392
v -0.287647 0.10625 0.430493
v -0.372822 0.09675 0.372822
v -0.366105 0.10625 0.366105
v -0.438392 0.09675 0.292924
v -0.430493 0.10625 0.287647
v -0.487116 0.09675 0.20177
v -0.478339 0.10625 0.198134
v -0.517119 0.09675 0.102861
v -0.507802 0.10625 0.101008
v -0.52725 0.09675 -0
v -0.51775 0.10625 -0
v -0.517119 0.09675 -0.102861
v -0.507802 0.10625 -0.101008
v -0.487116 0.09675 -0.20177
v -0.478339 0.10625 -0.198134
v -0.438392 0.09675 -0.292924
v -0.430493 0.10625 -0.287647
v -0.372822 0.09675 -0.372822
v -0.366105 0.10625 -0.366105
v -0.292924 0.09675 -0.438392
v -0.287647 0.10625 -0.430493
v -0.20177 0.09675 -0.487115
v -0.198134 0.10625 -0.478339
v -0.102861 0.09675 -0.517119
v -0.101008 0.10625 -0.507802
v -0.077841 0.11575 0.391333
v -0.101008 0.10625 0.507802
v -0.079203 0.10625 0.398182
v -0.198134 0.10625 0.478339
v -0.195163 0.11575 0.471163
v -0.152691 0.11575 0.368628
v -0.077841 0.11575 0.391333
v -0.221673 0.11575 0.331756
v -0.287647 0.10625 0.430493
v -0.225552 0.10625 0.337562
v -0.198134 0.10625 0.478339
v -0.366105 0.10625 0.366105
v -0.360613 0.11575 0.360613
v -0.282136 0.11575 0.282136
v -0.331756 0.11575 0.221673
v -0.430493 0.10625 0.287647
v -0.337562 0.10625 0.225552
v -0.478339 0.10625 0.198134
v -0.471163 0.11575 0.195163
v -0.368628 0.11575 0.152691
v -0.368628 0.11575 -0.152691
v -0.471163 0.11575 -0.195163
v -0.331756 0.11575 -0.221673
v -0.430493 0.10625 -0.287647
v -0.337562 0.10625 -0.225552
v -0.478339 0.10625 -0.198134
v -0.366105 0.10625 -0.366105
v -0.360613 0.11575 -0.360613
v -0.282136 0.11575 -0.282136
v -0.221673 0.11575 -0.331756
v -0.287647 0.10625 -0.430493
v -0.225552 0.10625 -0.337562
v -0.198134 0.10625 -0.478339
v -0.195163 0.11575 -0.471163
v -0.152691 0.11575 -0.368628
v -0.077841 0.11575 -0.391333
v -0.101008 0.10625 -0.507802
v -0.079203 0.10625 -0.398182
v -0.198134 0.10625 -0.478339
v -0.079203 0.10625 0.398182
v -0.077841 0.11575 0.391333
v -0.198134 0.10625 0.478339
v -0.195163 0.11575 0.471163
v -0.225552 0.10625 0.337562
v -0.221673 0.11575 0.331756
v -0.366105 0.10625 0.366105
v -0.360613 0.11575 0.360613
v -0.337562 0.10625 0.225552
v -0.331756 0.11575 0.221673
v -0.478339 0.10625 0.198134
v -0.471163 0.11575 0.195163
v -0.478339 0.10625 -0.198134
v -0.337562 0.10625 -0.225552
v -0.331756 0.11575 -0.221673
v -0.471163 0.11575 -0.195163
v -0.366105 0.10625 -0.366105
v -0.360613 0.11575 -0.360613
v -0.225552 0.10625 -0.337562
v -0.221673 0.11575 -0.331756
v -0.198134 0.10625 -0.478339
v -0.195163 0.11575 -0.471163
v -0.079203 0.10625 -0.398182
v -0.077841 0.11575 -0.391333
v -0.102861 0.0445 0.517119
v -0.102861 0.09675 0.517119
v -0.20177 0.0445 0.487115
v -0.20177 0.09675 0.487115
v -0.292924 0.0445 0.438392
v -0.292924 0.09675 0.438392
v -0.372822 0.0445 0.372822
v -0.372822 0.09675 0.372822
v -0.438392 0.0445 0.292924
v -0.438392 0.09675 0.292924
v -0.487116 0.0445 0.20177
v -0.487116 0.09675 0.20177
v -0.517119 0.0445 0.102861
v -0.517119 0.09675 0.102861
v -0.52725 0.0445 -0
v -0.52725 0.09675 -0
v -0.517119 0.0445 -0.102861
v -0.517119 0.09675 -0.102861
v -0.487116 0.0445 -0.20177
v -0.487116 0.09675 -0.20177
v -0.438392 0.0445 -0.292924
v -0.438392 0.09675 -0.292924
v -0.372822 0.0445 -0.372822
v -0.372822 0.09675 -0.372822
v -0.292924 0.0445 -0.438392
v -0.292924 0.09675 -0.438392
v -0.20177 0.0445 -0.487115
v -0.20177 0.09675 -0.487115
v -0.102861 0.0445 -0.517119
v -0.102861 0.09675 -0.517119
v -0.120137 0.0445 0.603969
v -0.102861 0.0445 0.517119
v -0.121719 0.035 0.611924
v -0.25812 0.035 0.623157
v -0.204842 0.035 0.494533
v -0.20177 0.0445 0.487115
v -0.342121 0.0445 0.512021
v -0.292924 0.0445 0.438392
v -0.346627 0.035 0.518764
v -0.476944 0.035 0.476944
v -0.3785 0.035 0.3785
v -0.372822 0.0445 0.372822
v -0.512021 0.0445 0.342121
v -0.438392 0.0445 0.292924
v -0.518764 0.035 0.346627
v -0.623157 0.035 0.25812
v -0.494534 0.035 0.204842
v -0.487116 0.0445 0.20177
v -0.603969 0.0445 0.120137
v -0.517119 0.0445 0.102861
v -0.487116 0.0445 0.20177
v -0.611924 0.035 0.121719
v -0.6745 0.035 -0
v -0.535279 0.035 -0
v -0.52725 0.0445 -0
v -0.603969 0.0445 -0.120137
v -0.517119 0.0445 -0.102861
v -0.611924 0.035 -0.121719
v -0.623157 0.035 -0.25812
v -0.494534 0.035 -0.204842
v -0.487116 0.0445 -0.20177
v -0.512021 0.0445 -0.342121
v -0.438392 0.0445 -0.292924
v -0.487116 0.0445 -0.20177
v -0.518764 0.035 -0.346627
v -0.476944 0.035 -0.476944
v -0.3785 0.035 -0.3785
v -0.372822 0.0445 -0.372822
v -0.342121 0.0445 -0.51202
v -0.292924 0.0445 -0.438392
v -0.346627 0.035 -0.518764
v -0.25812 0.035 -0.623157
v -0.204842 0.035 -0.494533
v -0.20177 0.0445 -0.487115
v -0.120137 0.0445 -0.603969
v -0.102861 0.0445 -0.517119
v -0.121719 0.035 -0.611924
v -0.121719 0.035 0.611924
v -0.120137 0.0445 0.603969
v -0.204842 0.035 0.494533
v -0.20177 0.0445 0.487115
v -0.346627 0.035 0.518764
v -0.342121 0.0445 0.512021
v -0.3785 0.035 0.3785
v -0.372822 0.0445 0.372822
v -0.518764 0.035 0.346627
v -0.512021 0.0445 0.342121
v -0.494534 0.035 0.204842
v -0.487116 0.0445 0.20177
v -0.611924 0.035 0.121719
v -0.603969 0.0445 0.120137
v -0.535279 0.035 -0
v -0.52725 0.0445 -0
v -0.611924 0.035 -0.121719
v -0.603969 0.0445 -0.120137
v -0.494534 0.035 -0.204842
v -0.487116 0.0445 -0.20177
v -0.518764 0.035 -0.346627
v -0.512021 0.0445 -0.342121
v -0.3785 0.035 -0.3785
v -0.372822 0.0445 -0.372822
v -0.346627 0.035 -0.518764
v -0.342121 0.0445 -0.51202
v -0.204842 0.035 -0.494533
v -0.20177 0.0445 -0.487115
v -0.121719 0.035 -0.611924
v -0.120137 0.0445 -0.603969
v -0.123434 0.0065 0.620543
v -0.121719 0.035 0.611924
v -0.261755 0.0065 0.631934
v -0.25812 0.035 0.623157
v -0.351509 0.0065 0.526071
v -0.346627 0.035 0.518764
v -0.483661 0.0065 0.483661
v -0.476944 0.035 0.476944
v -0.526071 0.0065 0.351509
v -0.518764 0.035 0.346627
v -0.631934 0.0065 0.261755
v -0.623157 0.035 0.25812
v -0.620543 0.0065 0.123434
v -0.611924 0.035 0.121719
v -0.684 0.0065 0
v -0.6745 0.035 -0
v -0.620543 0.0065 -0.123434
v -0.611924 0.035 -0.121719
v -0.631934 0.0065 -0.261755
v -0.623157 0.035 -0.25812
v -0.526071 0.0065 -0.351509
v -0.518764 0.035 -0.346627
v -0.483661 0.0065 -0.483661
v -0.476944 0.035 -0.476944
v -0.351509 0.0065 -0.526071
v -0.346627 0.035 -0.518764
v -0.261755 0.0065 -0.631934
v -0.25812 0.035 -0.623157
v -0.123434 0.0065 -0.620543
v -0.121719 0.035 -0.611924
v -0.507802 0.10625 -0.101008
v -0.398182 0.10625 -0.079203
v -0.51775 0.10625 -0
v -0.478339 0.10625 -0.198134
v -0.391333 0.11575 -0.077841
v -0.391333 0.11575 0.077841
v -0.507802 0.10625 0.101008
v -0.398182 0.10625 0.079203
v -0.51775 0.10625 -0
v -0.51775 0.10625 -0
v -0.451862 0.11575 -0.03815
v -0.509983 0.11575 -0
v -0.398182 0.10625 -0.079203
v -0.391333 0.11575 -0.077841
v -0.398182 0.10625 0.079203
v -0.391333 0.11575 0.077841
v -0.394661 0.11575 -0.044056
v -0.429836 0.11575 -0.044052
v -0.451862 0.11575 -0.03815
v -0.467986 0.11575 -0.022026
v -0.473888 0.11575 -0
v -0.509983 0.11575 -0
v -0.451862 0.11575 0.03815
v -0.429836 0.11575 0.044052
v -0.394661 0.11575 0.044056
v -0.451862 0.11575 0.03815
v -0.467986 0.11575 0.022026
v 0.072281 0.15375 -0.363381
v 0.055321 0.202281 -0.27812
v 0 0.15375 -0.3705
v 0.141784 0.15375 -0.342297
v 0.205839 0.15375 -0.30806
v 0.157542 0.202281 -0.235778
v 0.261983 0.15375 -0.261983
v 0.30806 0.15375 -0.205839
v 0.235779 0.202281 -0.157542
v 0.342297 0.15375 -0.141784
v 0.363381 0.15375 -0.072281
v 0.27812 0.202281 -0.055321
v 0.3705 0.15375 -0
v 0.363381 0.15375 0.072281
v 0.27812 0.202281 0.055321
v 0.342297 0.15375 0.141784
v 0.30806 0.15375 0.205839
v 0.235779 0.202281 0.157542
v 0.261983 0.15375 0.261983
v 0.205839 0.15375 0.30806
v 0.157542 0.202281 0.235779
v 0.141784 0.15375 0.342297
v 0.072281 0.15375 0.363381
v 0.055321 0.202281 0.27812
v 0 0.15375 0.3705
v 0.141784 0.234487 0.058729
v 0.153466 0.234487 0
v 0.141784 0.234487 -0.058729
v 0.108517 0.234487 -0.108517
v 0.058729 0.234487 -0.141784
v 0 0.234487 -0.153466
v 0 0.234487 0.153466
v 0.058729 0.234487 0.141784
v 0.108517 0.234487 0.108517
v 0 0.2535 0
v -0.072281 0.15375 0.363381
v -0.055321 0.202281 0.27812
v -0.141784 0.15375 0.342297
v -0.205839 0.15375 0.30806
v -0.157542 0.202281 0.235778
v -0.261983 0.15375 0.261983
v -0.30806 0.15375 0.205839
v -0.235779 0.202281 0.157542
v -0.342297 0.15375 0.141784
v -0.363381 0.15375 0.072281
v -0.27812 0.202281 0.055321
v -0.3705 0.15375 -0
v -0.363381 0.15375 -0.072281
v -0.27812 0.202281 -0.055321
v -0.342297 0.15375 -0.141784
v -0.30806 0.15375 -0.205839
v -0.235779 0.202281 -0.157542
v -0.261983 0.15375 -0.261983
v -0.205839 0.15375 -0.30806
v -0.157542 0.202281 -0.235779
v -0.141784 0.15375 -0.342297
v -0.072281 0.15375 -0.363381
v -0.055321 0.202281 -0.27812
v -0.141784 0.234487 -0.058729
v -0.153466 0.234487 -0
v -0.141784 0.234487 0.058729
v -0.108517 0.234487 0.108517
v -0.058729 0.234487 0.141784
v -0.058729 0.234487 -0.141784
v -0.108517 0.234487 -0.108517
v 0.342297 0.15375 0.141784
v 0.368628 0.15375 0.152691
v 0.30806 0.15375 0.205839
v 0.331756 0.15375 0.221673
v 0.261983 0.15375 0.261983
v 0.282136 0.15375 0.282136
v 0.205839 0.15375 0.30806
v 0.221673 0.15375 0.331756
v 0.141784 0.15375 0.342297
v 0.152691 0.15375 0.368628
v 0.072281 0.15375 0.363381
v 0.077841 0.15375 0.391333
v 0.363381 0.15375 0.072281
v 0.391333 0.15375 0.077841
v 0 0.15375 0.399
v 0 0.15375 0.3705
v 0.3705 0.15375 -0
v 0.394661 0.15375 0.044056
v 0.30806 0.15375 -0.205839
v 0.368628 0.15375 -0.152691
v 0.342297 0.15375 -0.141784
v 0.331756 0.15375 -0.221673
v 0.205839 0.15375 -0.30806
v 0.282136 0.15375 -0.282136
v 0.261983 0.15375 -0.261983
v 0.221673 0.15375 -0.331756
v 0.072281 0.15375 -0.363381
v 0.152691 0.15375 -0.368628
v 0.141784 0.15375 -0.342297
v 0.077841 0.15375 -0.391333
v 0.391333 0.15375 -0.077841
v 0.363381 0.15375 -0.072281
v 0 0.15375 -0.399
v 0 0.15375 -0.3705
v 0.394661 0.15375 -0.044056
v -0.342297 0.15375 -0.141784
v -0.368628 0.15375 -0.152691
v -0.30806 0.15375 -0.205839
v -0.331756 0.15375 -0.221673
v -0.261983 0.15375 -0.261983
v -0.282136 0.15375 -0.282136
v -0.205839 0.15375 -0.30806
v -0.221673 0.15375 -0.331756
v -0.141784 0.15375 -0.342297
v -0.152691 0.15375 -0.368628
v -0.072281 0.15375 -0.363381
v -0.077841 0.15375 -0.391333
v -0.363381 0.15375 -0.072281
v -0.391333 0.15375 -0.077841
v -0.3705 0.15375 -0
v -0.394661 0.15375 -0.044056
v -0.30806 0.15375 0.205839
v -0.368628 0.15375 0.152691
v -0.342297 0.15375 0.141784
v -0.331756 0.15375 0.221673
v -0.205839 0.15375 0.30806
v -0.282136 0.15375 0.282136
v -0.261983 0.15375 0.261983
v -0.221673 0.15375 0.331756
v -0.072281 0.15375 0.363381
v -0.152691 0.15375 0.368628
v -0.141784 0.15375 0.342297
v -0.077841 0.15375 0.391333
v -0.391333 0.15375 0.077841
v -0.363381 0.15375 0.072281
v -0.394661 0.15375 0.044056
v 0.429836 0.15375 0.044052
v 0.429836 0.15375 -0.044052
v 0.451862 0.15375 0.03815
v 0.467986 0.15375 0.022026
v 0.473888 0.15375 0
v 0.467986 0.15375 -0.022026
v 0.451862 0.15375 -0.03815
v -0.429836 0.15375 0.044052
v -0.451862 0.15375 0.03815
v -0.467986 0.15375 0.022026
v -0.473888 0.15375 -0
v -0.467986 0.15375 -0.022026
v -0.451862 0.15375 -0.03815
v -0.429836 0.15375 -0.044052
vt 0.337959 0.257488
vt 0.337959 0.257488
vt 0.388384 0.23053503
vt 0.388384 0.23053503
vt 0.257488 0.337959
vt 0.257488 0.337959
vt 0.293761 0.29376101
vt 0.293761 0.29376101
vt 0.213938 0.44309902
vt 0.213938 0.44309902
vt 0.230535 0.38838398
vt 0.230535 0.38838398
vt 0.443099 0.213938
vt 0.443099 0.213938
vt 0.208333 0.5
vt 0.208333 0.5
vt 0.611616 0.23053503
vt 0.662041 0.257488
vt 0.611616 0.23053503
vt 0.662041 0.257488
vt 0.706239 0.29376101
vt 0.742512 0.337959
vt 0.706239 0.29376101
vt 0.742512 0.337959
vt 0.769465 0.38838398
vt 0.786062 0.44309902
vt 0.769465 0.38838398
vt 0.786062 0.44309902
vt 0.556901 0.213938
vt 0.556901 0.213938
vt 0.791667 0.5
vt 0.791667 0.5
vt 0.467795 0.211505
vt 0.467795 0.211505
vt 0.467798 0.18579197
vt 0.467798 0.18579197
vt 0.472113 0.16969097
vt 0.472113 0.16969097
vt 0.483899 0.15790498
vt 0.483899 0.15790498
vt 0.5 0.15359104
vt 0.5 0.15359104
vt 0.467795 0.211505
vt 0.467795 0.211505
vt 0.532202 0.18579197
vt 0.532202 0.18579197
vt 0.532205 0.211505
vt 0.532205 0.211505
vt 0.527887 0.16969097
vt 0.527887 0.16969097
vt 0.516101 0.15790498
vt 0.516101 0.15790498
vt 0.532205 0.211505
vt 0.532205 0.211505
vt 0.878472 0.5
vt 0.885417 0.5
vt 0.878011 0.42480898
vt 0.8712 0.42616403
vt 0.856079 0.352507
vt 0.849663 0.355165
vt 0.820462 0.285874
vt 0.814688 0.28973198
vt 0.772531 0.22746897
vt 0.76762 0.23238003
vt 0.714126 0.17953801
vt 0.710268 0.18531203
vt 0.647493 0.14392102
vt 0.644835 0.15033698
vt 0.575191 0.12198901
vt 0.573836 0.12880003
vt 0.5 0.114583015
vt 0.5 0.12152803
vt 0.424809 0.12198901
vt 0.426164 0.12880003
vt 0.352507 0.14392102
vt 0.355165 0.15033698
vt 0.285874 0.17953801
vt 0.289732 0.18531203
vt 0.227469 0.22746897
vt 0.23238 0.23238003
vt 0.179538 0.285874
vt 0.185312 0.28973198
vt 0.143921 0.352507
vt 0.150337 0.355165
vt 0.121989 0.42480898
vt 0.1288 0.42616403
vt 0.114583 0.5
vt 0.121528 0.5
vt 0.791667 0.5
vt 0.872794 0.5
vt 0.786062 0.44309902
vt 0.8712 0.42616403
vt 0.791068 0.44210303
vt 0.878472 0.5
vt 0.849663 0.355165
vt 0.844418 0.357337
vt 0.769465 0.38838398
vt 0.742512 0.337959
vt 0.814688 0.28973198
vt 0.746756 0.335123
vt 0.849663 0.355165
vt 0.76762 0.23238003
vt 0.763606 0.23639399
vt 0.706239 0.29376101
vt 0.662041 0.257488
vt 0.710268 0.18531203
vt 0.664877 0.25324404
vt 0.644835 0.15033698
vt 0.642663 0.15558201
vt 0.611616 0.23053503
vt 0.388384 0.23053503
vt 0.357337 0.15558201
vt 0.337959 0.257488
vt 0.289732 0.18531203
vt 0.335123 0.25324404
vt 0.355165 0.15033698
vt 0.23238 0.23238003
vt 0.236394 0.23639399
vt 0.293761 0.29376101
vt 0.257488 0.337959
vt 0.185312 0.28973198
vt 0.253244 0.335123
vt 0.150337 0.355165
vt 0.155582 0.357337
vt 0.230535 0.38838398
vt 0.213938 0.44309902
vt 0.1288 0.42616403
vt 0.208932 0.44210303
vt 0.150337 0.355165
vt 0.121528 0.5
vt 0.127205 0.5
vt 0.208333 0.5
vt 0.213938 0.44309902
vt 0.878472 0.5
vt 0.791068 0.44210303
vt 0.786062 0.44309902
vt 0.872794 0.5
vt 0.849663 0.355165
vt 0.844418 0.357337
vt 0.746756 0.335123
vt 0.742512 0.337959
vt 0.76762 0.23238003
vt 0.763606 0.23639399
vt 0.664877 0.25324404
vt 0.662041 0.257488
vt 0.644835 0.15033698
vt 0.642663 0.15558201
vt 0.355165 0.15033698
vt 0.335123 0.25324404
vt 0.337959 0.257488
vt 0.357337 0.15558201
vt 0.23238 0.23238003
vt 0.236394 0.23639399
vt 0.253244 0.335123
vt 0.257488 0.337959
vt 0.150337 0.355165
vt 0.155582 0.357337
vt 0.208932 0.44210303
vt 0.213938 0.44309902
vt 0.121528 0.5
vt 0.127205 0.5
vt 0.878011 0.42480898
vt 0.878011 0.42480898
vt 0.885417 0.5
vt 0.885417 0.5
vt 0.856079 0.352507
vt 0.856079 0.352507
vt 0.820462 0.285874
vt 0.820462 0.285874
vt 0.772531 0.22746897
vt 0.772531 0.22746897
vt 0.714126 0.17953801
vt 0.714126 0.17953801
vt 0.647493 0.14392102
vt 0.647493 0.14392102
vt 0.575191 0.12198901
vt 0.575191 0.12198901
vt 0.5 0.114583015
vt 0.5 0.114583015
vt 0.424809 0.12198901
vt 0.424809 0.12198901
vt 0.352507 0.14392102
vt 0.352507 0.14392102
vt 0.285874 0.17953801
vt 0.285874 0.17953801
vt 0.227469 0.22746897
vt 0.227469 0.22746897
vt 0.179538 0.285874
vt 0.179538 0.285874
vt 0.143921 0.352507
vt 0.143921 0.352507
vt 0.121989 0.42480898
vt 0.121989 0.42480898
vt 0.114583 0.5
vt 0.114583 0.5
vt 0.941498 0.41218
vt 0.878011 0.42480898
vt 0.885417 0.5
vt 0.891286 0.5
vt 0.993056 0.5
vt 0.947313 0.41102397
vt 0.955524 0.311316
vt 0.861501 0.35026097
vt 0.856079 0.352507
vt 0.874285 0.24991202
vt 0.820462 0.285874
vt 0.879214 0.24661803
vt 0.848643 0.151357
vt 0.776681 0.223319
vt 0.772531 0.22746897
vt 0.750088 0.12571502
vt 0.714126 0.17953801
vt 0.753382 0.12078601
vt 0.688684 0.044475973
vt 0.649739 0.13849902
vt 0.647493 0.14392102
vt 0.58782 0.05850202
vt 0.575191 0.12198901
vt 0.647493 0.14392102
vt 0.588976 0.05268699
vt 0.5 0.0069440007
vt 0.5 0.108713984
vt 0.5 0.114583015
vt 0.41218 0.05850202
vt 0.424809 0.12198901
vt 0.411024 0.05268699
vt 0.311316 0.044475973
vt 0.350261 0.13849902
vt 0.352507 0.14392102
vt 0.249912 0.12571502
vt 0.285874 0.17953801
vt 0.352507 0.14392102
vt 0.246618 0.12078601
vt 0.151357 0.151357
vt 0.223319 0.223319
vt 0.227469 0.22746897
vt 0.125716 0.24991202
vt 0.179538 0.285874
vt 0.120786 0.24661803
vt 0.044476 0.311316
vt 0.138499 0.35026097
vt 0.143921 0.352507
vt 0.058502 0.41218
vt 0.121989 0.42480898
vt 0.052687 0.41102397
vt 0.006944 0.5
vt 0.108714 0.5
vt 0.114583 0.5
vt 0.891286 0.5
vt 0.947313 0.41102397
vt 0.885417 0.5
vt 0.941498 0.41218
vt 0.861501 0.35026097
vt 0.856079 0.352507
vt 0.879214 0.24661803
vt 0.874285 0.24991202
vt 0.776681 0.223319
vt 0.772531 0.22746897
vt 0.753382 0.12078601
vt 0.750088 0.12571502
vt 0.649739 0.13849902
vt 0.647493 0.14392102
vt 0.588976 0.05268699
vt 0.58782 0.05850202
vt 0.5 0.108713984
vt 0.5 0.114583015
vt 0.411024 0.05268699
vt 0.41218 0.05850202
vt 0.350261 0.13849902
vt 0.352507 0.14392102
vt 0.246618 0.12078601
vt 0.249912 0.12571502
vt 0.223319 0.223319
vt 0.227469 0.22746897
vt 0.120786 0.24661803
vt 0.125716 0.24991202
vt 0.138499 0.35026097
vt 0.143921 0.352507
vt 0.052687 0.41102397
vt 0.058502 0.41218
vt 0.108714 0.5
vt 0.114583 0.5
vt 0.953613 0.40977097
vt 0.947313 0.41102397
vt 1 0.5
vt 0.993056 0.5
vt 0.96194 0.308658
vt 0.955524 0.311316
vt 0.884555 0.24304903
vt 0.879214 0.24661803
vt 0.853553 0.146447
vt 0.848643 0.151357
vt 0.756951 0.11544502
vt 0.753382 0.12078601
vt 0.691342 0.03806001
vt 0.688684 0.044475973
vt 0.590229 0.046387017
vt 0.588976 0.05268699
vt 0.5 0
vt 0.5 0.0069440007
vt 0.409771 0.046387017
vt 0.411024 0.05268699
vt 0.308658 0.03806001
vt 0.311316 0.044475973
vt 0.243049 0.11544502
vt 0.246618 0.12078601
vt 0.146447 0.146447
vt 0.151357 0.151357
vt 0.115445 0.24304903
vt 0.120786 0.24661803
vt 0.03806 0.308658
vt 0.044476 0.311316
vt 0.046387 0.40977097
vt 0.052687 0.41102397
vt 0 0.5
vt 0.006944 0.5
vt 0.426164 0.12880003
vt 0.442103 0.20893198
vt 0.5 0.12152803
vt 0.355165 0.15033698
vt 0.443099 0.213938
vt 0.556901 0.213938
vt 0.573836 0.12880003
vt 0.557897 0.20893198
vt 0.5 0.12152803
vt 0.5 0.12152803
vt 0.472113 0.16969097
vt 0.5 0.12720597
vt 0.442103 0.20893198
vt 0.443099 0.213938
vt 0.557897 0.20893198
vt 0.556901 0.213938
vt 0.467795 0.211505
vt 0.467798 0.18579197
vt 0.472113 0.16969097
vt 0.483899 0.15790498
vt 0.5 0.15359104
vt 0.5 0.12720597
vt 0.527887 0.16969097
vt 0.532202 0.18579197
vt 0.532205 0.211505
vt 0.527887 0.16969097
vt 0.516101 0.15790498
vt 0.662041 0.742512
vt 0.662041 0.742512
vt 0.611616 0.76946503
vt 0.611616 0.76946503
vt 0.742512 0.662041
vt 0.742512 0.662041
vt 0.706239 0.70623899
vt 0.706239 0.70623899
vt 0.786062 0.55690098
vt 0.786062 0.55690098
vt 0.769465 0.61161602
vt 0.769465 0.61161602
vt 0.556901 0.786062
vt 0.556901 0.786062
vt 0.388384 0.76946503
vt 0.337959 0.742512
vt 0.388384 0.76946503
vt 0.337959 0.742512
vt 0.293761 0.70623899
vt 0.257488 0.662041
vt 0.293761 0.70623899
vt 0.257488 0.662041
vt 0.230535 0.61161602
vt 0.213938 0.55690098
vt 0.230535 0.61161602
vt 0.213938 0.55690098
vt 0.443099 0.786062
vt 0.443099 0.786062
vt 0.532205 0.788495
vt 0.532205 0.788495
vt 0.532202 0.81420797
vt 0.532202 0.81420797
vt 0.527887 0.83030897
vt 0.527887 0.83030897
vt 0.516101 0.84209502
vt 0.516101 0.84209502
vt 0.5 0.84640902
vt 0.5 0.84640902
vt 0.532205 0.788495
vt 0.532205 0.788495
vt 0.467798 0.81420797
vt 0.467798 0.81420797
vt 0.467795 0.788495
vt 0.467795 0.788495
vt 0.472113 0.83030897
vt 0.472113 0.83030897
vt 0.483899 0.84209502
vt 0.483899 0.84209502
vt 0.467795 0.788495
vt 0.467795 0.788495
vt 0.121989 0.57519102
vt 0.1288 0.57383603
vt 0.143921 0.647493
vt 0.150337 0.644835
vt 0.179538 0.714126
vt 0.185312 0.71026802
vt 0.227469 0.77253097
vt 0.23238 0.76762003
vt 0.285874 0.82046199
vt 0.289732 0.81468803
vt 0.352507 0.85607898
vt 0.355165 0.84966302
vt 0.424809 0.87801099
vt 0.426164 0.87120003
vt 0.5 0.885416985
vt 0.5 0.87847197
vt 0.575191 0.87801099
vt 0.573836 0.87120003
vt 0.647493 0.85607898
vt 0.644835 0.84966302
vt 0.714126 0.82046199
vt 0.710268 0.81468803
vt 0.772531 0.77253097
vt 0.76762 0.76762003
vt 0.820462 0.714126
vt 0.814688 0.71026802
vt 0.856079 0.647493
vt 0.849663 0.644835
vt 0.878011 0.57519102
vt 0.8712 0.57383603
vt 0.213938 0.55690098
vt 0.1288 0.57383603
vt 0.208932 0.55789697
vt 0.150337 0.644835
vt 0.155582 0.642663
vt 0.230535 0.61161602
vt 0.213938 0.55690098
vt 0.257488 0.662041
vt 0.185312 0.71026802
vt 0.253244 0.664877
vt 0.150337 0.644835
vt 0.23238 0.76762003
vt 0.236394 0.76360601
vt 0.293761 0.70623899
vt 0.337959 0.742512
vt 0.289732 0.81468803
vt 0.335123 0.74675602
vt 0.355165 0.84966302
vt 0.357337 0.84441799
vt 0.388384 0.76946503
vt 0.611616 0.76946503
vt 0.642663 0.84441799
vt 0.662041 0.742512
vt 0.710268 0.81468803
vt 0.664877 0.74675602
vt 0.644835 0.84966302
vt 0.76762 0.76762003
vt 0.763606 0.76360601
vt 0.706239 0.70623899
vt 0.742512 0.662041
vt 0.814688 0.71026802
vt 0.746756 0.664877
vt 0.849663 0.644835
vt 0.844418 0.642663
vt 0.769465 0.61161602
vt 0.786062 0.55690098
vt 0.8712 0.57383603
vt 0.791068 0.55789697
vt 0.849663 0.644835
vt 0.208932 0.55789697
vt 0.213938 0.55690098
vt 0.150337 0.644835
vt 0.155582 0.642663
vt 0.253244 0.664877
vt 0.257488 0.662041
vt 0.23238 0.76762003
vt 0.236394 0.76360601
vt 0.335123 0.74675602
vt 0.337959 0.742512
vt 0.355165 0.84966302
vt 0.357337 0.84441799
vt 0.644835 0.84966302
vt 0.664877 0.74675602
vt 0.662041 0.742512
vt 0.642663 0.84441799
vt 0.76762 0.76762003
vt 0.763606 0.76360601
vt 0.746756 0.664877
vt 0.742512 0.662041
vt 0.849663 0.644835
vt 0.844418 0.642663
vt 0.791068 0.55789697
vt 0.786062 0.55690098
vt 0.121989 0.57519102
vt 0.121989 0.57519102
vt 0.143921 0.647493
vt 0.143921 0.647493
vt 0.179538 0.714126
vt 0.179538 0.714126
vt 0.227469 0.77253097
vt 0.227469 0.77253097
vt 0.285874 0.82046199
vt 0.285874 0.82046199
vt 0.352507 0.85607898
vt 0.352507 0.85607898
vt 0.424809 0.87801099
vt 0.424809 0.87801099
vt 0.5 0.885416985
vt 0.5 0.885416985
vt 0.575191 0.87801099
vt 0.575191 0.87801099
vt 0.647493 0.85607898
vt 0.647493 0.85607898
vt 0.714126 0.82046199
vt 0.714126 0.82046199
vt 0.772531 0.77253097
vt 0.772531 0.77253097
vt 0.820462 0.714126
vt 0.820462 0.714126
vt 0.856079 0.647493
vt 0.856079 0.647493
vt 0.878011 0.57519102
vt 0.878011 0.57519102
vt 0.058502 0.58782
vt 0.121989 0.57519102
vt 0.052687 0.58897603
vt 0.044476 0.688684
vt 0.138499 0.64973903
vt 0.143921 0.647493
vt 0.125715 0.75008798
vt 0.179538 0.714126
vt 0.120786 0.75338203
vt 0.151357 0.848643
vt 0.223319 0.776681
vt 0.227469 0.77253097
vt 0.249912 0.87428498
vt 0.285874 0.82046199
vt 0.246618 0.87921399
vt 0.311316 0.955524027
vt 0.350261 0.86150098
vt 0.352507 0.85607898
vt 0.41218 0.94149798
vt 0.424809 0.87801099
vt 0.352507 0.85607898
vt 0.411024 0.94731301
vt 0.5 0.9930559993
vt 0.5 0.891286016
vt 0.5 0.885416985
vt 0.58782 0.94149798
vt 0.575191 0.87801099
vt 0.588976 0.94731301
vt 0.688684 0.955524027
vt 0.649739 0.86150098
vt 0.647493 0.85607898
vt 0.750088 0.87428498
vt 0.714126 0.82046199
vt 0.647493 0.85607898
vt 0.753382 0.87921399
vt 0.848643 0.848643
vt 0.776681 0.776681
vt 0.772531 0.77253097
vt 0.874284 0.75008798
vt 0.820462 0.714126
vt 0.879214 0.75338203
vt 0.955524 0.688684
vt 0.861501 0.64973903
vt 0.856079 0.647493
vt 0.941498 0.58782
vt 0.878011 0.57519102
vt 0.947313 0.58897603
vt 0.052687 0.58897603
vt 0.058502 0.58782
vt 0.138499 0.64973903
vt 0.143921 0.647493
vt 0.120786 0.75338203
vt 0.125715 0.75008798
vt 0.223319 0.776681
vt 0.227469 0.77253097
vt 0.246618 0.87921399
vt 0.249912 0.87428498
vt 0.350261 0.86150098
vt 0.352507 0.85607898
vt 0.411024 0.94731301
vt 0.41218 0.94149798
vt 0.5 0.891286016
vt 0.5 0.885416985
vt 0.588976 0.94731301
vt 0.58782 0.94149798
vt 0.649739 0.86150098
vt 0.647493 0.85607898
vt 0.753382 0.87921399
vt 0.750088 0.87428498
vt 0.776681 0.776681
vt 0.772531 0.77253097
vt 0.879214 0.75338203
vt 0.874284 0.75008798
vt 0.861501 0.64973903
vt 0.856079 0.647493
vt 0.947313 0.58897603
vt 0.941498 0.58782
vt 0.046387 0.59022897
vt 0.052687 0.58897603
vt 0.03806 0.691342
vt 0.044476 0.688684
vt 0.115445 0.75695097
vt 0.120786 0.75338203
vt 0.146447 0.853553
vt 0.151357 0.848643
vt 0.243049 0.88455498
vt 0.246618 0.87921399
vt 0.308658 0.96193999
vt 0.311316 0.955524027
vt 0.409771 0.953612983
vt 0.411024 0.94731301
vt 0.5 1
vt 0.5 0.9930559993
vt 0.590229 0.953612983
vt 0.588976 0.94731301
vt 0.691342 0.96193999
vt 0.688684 0.955524027
vt 0.756951 0.88455498
vt 0.753382 0.87921399
vt 0.853553 0.853553
vt 0.848643 0.848643
vt 0.884555 0.75695097
vt 0.879214 0.75338203
vt 0.96194 0.691342
vt 0.955524 0.688684
vt 0.953613 0.59022897
vt 0.947313 0.58897603
vt 0.573836 0.87120003
vt 0.557897 0.79106802
vt 0.5 0.87847197
vt 0.644835 0.84966302
vt 0.556901 0.786062
vt 0.443099 0.786062
vt 0.426164 0.87120003
vt 0.442103 0.79106802
vt 0.5 0.87847197
vt 0.5 0.87847197
vt 0.527887 0.83030897
vt 0.5 0.87279397
vt 0.557897 0.79106802
vt 0.556901 0.786062
vt 0.442103 0.79106802
vt 0.443099 0.786062
vt 0.532205 0.788495
vt 0.532202 0.81420797
vt 0.527887 0.83030897
vt 0.516101 0.84209502
vt 0.5 0.84640902
vt 0.5 0.87279397
vt 0.472113 0.83030897
vt 0.467798 0.81420797
vt 0.467795 0.788495
vt 0.472113 0.83030897
vt 0.483899 0.84209502
vt 0.765629 0.447163
vt 0.703304 0.45956004
vt 0.770833 0.5
vt 0.750217 0.396357
vt 0.72519 0.34953296
vt 0.672353 0.38483799
vt 0.691508 0.308492
vt 0.650467 0.27480996
vt 0.615162 0.32764697
vt 0.603643 0.24978298
vt 0.552837 0.234371
vt 0.54044 0.296696
vt 0.5 0.22916698
vt 0.447163 0.234371
vt 0.45956 0.296696
vt 0.396357 0.24978298
vt 0.349533 0.27480996
vt 0.384838 0.32764697
vt 0.308492 0.308492
vt 0.27481 0.34953296
vt 0.327647 0.38483799
vt 0.249783 0.396357
vt 0.234371 0.447163
vt 0.296696 0.45956004
vt 0.229167 0.5
vt 0.45707 0.396357
vt 0.5 0.38781703
vt 0.54293 0.396357
vt 0.579325 0.42067504
vt 0.603643 0.45706904
vt 0.612183 0.5
vt 0.387817 0.5
vt 0.396357 0.45706904
vt 0.420675 0.42067504
vt 0.5 0.5
vt 0.234371 0.552837
vt 0.296696 0.54044002
vt 0.249783 0.603643
vt 0.27481 0.65046698
vt 0.327647 0.61516201
vt 0.308492 0.691508
vt 0.349533 0.72518998
vt 0.384838 0.67235303
vt 0.396357 0.75021702
vt 0.447163 0.765629
vt 0.45956 0.703304
vt 0.5 0.77083302
vt 0.552837 0.765629
vt 0.54044 0.703304
vt 0.603643 0.75021702
vt 0.650467 0.72518998
vt 0.615162 0.67235303
vt 0.691508 0.691508
vt 0.72519 0.65046698
vt 0.672353 0.61516201
vt 0.750217 0.603643
vt 0.765629 0.552837
vt 0.703304 0.54044002
vt 0.542931 0.603643
vt 0.5 0.61218297
vt 0.45707 0.603643
vt 0.420675 0.57932502
vt 0.396357 0.54293
vt 0.603643 0.54293
vt 0.579325 0.57932502
vt 0.396357 0.24978298
vt 0.388384 0.23053503
vt 0.349533 0.27480996
vt 0.337959 0.257488
vt 0.308492 0.308492
vt 0.293761 0.29376101
vt 0.27481 0.34953296
vt 0.257488 0.337959
vt 0.249783 0.396357
vt 0.230535 0.38838398
vt 0.234371 0.447163
vt 0.213938 0.44309902
vt 0.447163 0.234371
vt 0.443099 0.213938
vt 0.208333 0.5
vt 0.229167 0.5
vt 0.5 0.22916698
vt 0.467795 0.211505
vt 0.650467 0.27480996
vt 0.611616 0.23053503
vt 0.603643 0.24978298
vt 0.662041 0.257488
vt 0.72519 0.34953296
vt 0.706239 0.29376101
vt 0.691508 0.308492
vt 0.742512 0.337959
vt 0.765629 0.447163
vt 0.769465 0.38838398
vt 0.750217 0.396357
vt 0.786062 0.44309902
vt 0.556901 0.213938
vt 0.552837 0.234371
vt 0.791667 0.5
vt 0.770833 0.5
vt 0.532205 0.211505
vt 0.603643 0.75021702
vt 0.611616 0.76946503
vt 0.650467 0.72518998
vt 0.662041 0.742512
vt 0.691508 0.691508
vt 0.706239 0.70623899
vt 0.72519 0.65046698
vt 0.742512 0.662041
vt 0.750217 0.603643
vt 0.769465 0.61161602
vt 0.765629 0.552837
vt 0.786062 0.55690098
vt 0.552837 0.765629
vt 0.556901 0.786062
vt 0.5 0.77083302
vt 0.532205 0.788495
vt 0.349533 0.72518998
vt 0.388384 0.76946503
vt 0.396357 0.75021702
vt 0.337959 0.742512
vt 0.27481 0.65046698
vt 0.293761 0.70623899
vt 0.308492 0.691508
vt 0.257488 0.662041
vt 0.234371 0.552837
vt 0.230535 0.61161602
vt 0.249783 0.603643
vt 0.213938 0.55690098
vt 0.443099 0.786062
vt 0.447163 0.765629
vt 0.467795 0.788495
vt 0.467798 0.18579197
vt 0.532202 0.18579197
vt 0.472113 0.16969097
vt 0.483899 0.15790498
vt 0.5 0.15359104
vt 0.516101 0.15790498
vt 0.527887 0.16969097
vt 0.467798 0.81420797
vt 0.472113 0.83030897
vt 0.483899 0.84209502
vt 0.5 0.84640902
vt 0.516101 0.84209502
vt 0.527887 0.83030897
vt 0.532202 0.81420797
vn 0.831446 0 0.555559
vn 0.831446 0 0.555559
vn 0.923856 0 0.382672
vn 0.923856 0 0.382672
vn 0.555559 0 0.831446
vn 0.555559 0 0.831446
vn 0.707083 0 0.707083
vn 0.707083 0 0.707083
vn 0.195074 0 0.980773
vn 0.195074 0 0.980773
vn 0.382672 0 0.923856
vn 0.382672 0 0.923856
vn 0.980773 0 0.195074
vn 0.980773 0 0.195074
vn 0 0 1
vn 0 0 1
vn 0.923856 0 -0.382672
vn 0.831446 0 -0.555559
vn 0.923856 0 -0.382672
vn 0.831446 0 -0.555559
vn 0.707083 0 -0.707083
vn 0.555559 0 -0.831446
vn 0.707083 0 -0.707083
vn 0.555559 0 -0.831446
vn 0.382672 0 -0.923856
vn 0.195074 0 -0.980773
vn 0.382672 0 -0.923856
vn 0.195074 0 -0.980773
vn 0.980773 0 -0.195074
vn 0.980773 0 -0.195074
vn 0 0 -1
vn 0 0 -1
vn 0.000092 0 1
vn 0.000092 0 1
vn 0.130558 0 0.991424
vn 0.130558 0 0.991424
vn 0.499985 0 0.866024
vn 0.499985 0 0.866024
vn 0.866024 0 0.499985
vn 0.866024 0 0.499985
vn 1 0 0
vn 1 0 0
vn 0.995178 0 0.097995
vn 0.995178 0 0.097995
vn 0.130558 0 -0.991424
vn 0.130558 0 -0.991424
vn 0.000092 0 -1
vn 0.000092 0 -1
vn 0.499985 0 -0.866024
vn 0.499985 0 -0.866024
vn 0.866024 0 -0.499985
vn 0.866024 0 -0.499985
vn 0.995178 0 -0.097995
vn 0.995178 0 -0.097995
vn 0 0.707083 -0.707083
vn 0 0.707083 -0.707083
vn 0.137944 0.707083 -0.693503
vn 0.137944 0.707083 -0.693503
vn 0.270577 0.707083 -0.653279
vn 0.270577 0.707083 -0.653279
vn 0.392834 0.707083 -0.587909
vn 0.392834 0.707083 -0.587909
vn 0.499985 0.707083 -0.499985
vn 0.499985 0.707083 -0.499985
vn 0.587909 0.707083 -0.392834
vn 0.587909 0.707083 -0.392834
vn 0.653279 0.707083 -0.270577
vn 0.653279 0.707083 -0.270577
vn 0.693503 0.707083 -0.137944
vn 0.693503 0.707083 -0.137944
vn 0.707083 0.707083 0
vn 0.707083 0.707083 0
vn 0.693503 0.707083 0.137944
vn 0.693503 0.707083 0.137944
vn 0.653279 0.707083 0.270577
vn 0.653279 0.707083 0.270577
vn 0.587909 0.707083 0.392834
vn 0.587909 0.707083 0.392834
vn 0.499985 0.707083 0.499985
vn 0.499985 0.707083 0.499985
vn 0.392834 0.707083 0.587909
vn 0.392834 0.707083 0.587909
vn 0.270577 0.707083 0.653279
vn 0.270577 0.707083 0.653279
vn 0.137944 0.707083 0.693503
vn 0.137944 0.707083 0.693503
vn 0 0.707083 0.707083
vn 0 0.707083 0.707083
vn 0 1 0
vn 0 1 0
vn 0 1 0
vn 0 1 0
vn 0 1 0
vn 0 1 0
vn 0 0.999969 0
vn 0 1 0
vn 0 1 0
vn 0 1 0
vn 0 1 0
vn 0 1 0
vn 0 1 0
vn 0 1 0
vn 0 1 0
vn 0 1 0
vn 0 1 0
vn 0 1 0
vn 0 1 0
vn 0 0.999969 0
vn 0 1 0
vn 0 1 0
vn 0 1 0
vn 0 1 0
vn 0 1 0
vn 0 1 0
vn 0 1 0
vn 0 0.999969 0
vn 0 1 0
vn 0 1 0
vn 0 1 0
vn 0 1 0
vn 0 1 0
vn 0 1 0
vn 0 1 0
vn 0 1 0
vn 0 1 0
vn 0 1 0
vn 0 1 0
vn 0 1 0
vn 0 0.999969 0
vn 0 1 0
vn 0 1 0
vn 0 1 0
vn 0 0.999969 0
vn 0 0.636799 -0.770989
vn 0.15717 0.592212 -0.790277
vn 0.157628 0.589068 -0.792535
vn 0 0.632954 -0.774163
vn 0.295053 0.636769 -0.712333
vn 0.296304 0.632923 -0.715232
vn 0.447645 0.592212 -0.669942
vn 0.448927 0.589068 -0.671865
vn 0.545213 0.636738 -0.545213
vn 0.547441 0.632893 -0.547441
vn 0.669942 0.592212 -0.447645
vn 0.671865 0.589068 -0.448927
vn 0.712333 0.636769 -0.295053
vn 0.715232 0.632923 -0.296304
vn 0.712333 0.636769 0.295053
vn 0.669942 0.592212 0.447645
vn 0.671865 0.589068 0.448927
vn 0.715232 0.632923 0.296304
vn 0.545213 0.636738 0.545213
vn 0.547441 0.632893 0.547441
vn 0.447645 0.592212 0.669942
vn 0.448927 0.589068 0.671865
vn 0.295053 0.636769 0.712333
vn 0.296304 0.632923 0.715232
vn 0.15717 0.592212 0.790277
vn 0.157628 0.589068 0.792535
vn 0 0.636738 0.77105
vn 0 0.632893 0.774194
vn 0.195074 0 -0.980773
vn 0.195074 0 -0.980773
vn 0 0 -0.999969
vn 0 0 -0.999969
vn 0.382672 0 -0.923856
vn 0.382672 0 -0.923856
vn 0.555559 0 -0.831446
vn 0.555559 0 -0.831446
vn 0.707083 0 -0.707083
vn 0.707083 0 -0.707083
vn 0.831446 0 -0.555559
vn 0.831446 0 -0.555559
vn 0.923856 0 -0.382672
vn 0.923856 0 -0.382672
vn 0.980773 0 -0.195074
vn 0.980773 0 -0.195074
vn 0.999969 0 0
vn 1 0 0
vn 0.980773 0 0.195074
vn 0.980773 0 0.195074
vn 0.923856 0 0.382672
vn 0.923856 0 0.382672
vn 0.831446 0 0.555559
vn 0.831446 0 0.555559
vn 0.707083 0 0.707083
vn 0.707083 0 0.707083
vn 0.555559 0 0.831446
vn 0.555559 0 0.831446
vn 0.382672 0 0.923856
vn 0.382672 0 0.923856
vn 0.195074 0 0.980773
vn 0.195074 0 0.980773
vn 0 0 0.999969
vn 0 0 0.999969
vn 0 1 0
vn 0 1 0
vn 0 1 0
vn 0 1 0
vn 0 1 0
vn 0 1 0
vn 0 1 0
vn 0 1 0
vn 0 1 0
vn 0 0.999969 0
vn 0 0.999969 0
vn 0 1 0
vn 0 1 0
vn 0 1 0
vn 0 1 0
vn 0 1 0
vn 0 1 0
vn 0 1 0
vn 0 1 0
vn 0 1 0
vn 0 0.999969 0
vn 0 1 0
vn 0 1 0
vn 0 1 0
vn 0 1 0
vn 0 1 0
vn 0 1 0
vn 0 1 0
vn 0 1 0
vn 0 1 0
vn 0 1 0
vn 0 1 0
vn 0 1 0
vn 0 1 0
vn 0 1 0
vn 0 1 0
vn 0 0.999969 0
vn 0 1 0
vn 0 1 0
vn 0 1 0
vn 0 1 0
vn 0 1 0
vn 0 0.999969 0
vn 0 1 0
vn 0 1 0
vn 0 1 0
vn 0 1 0
vn 0 1 0
vn 0 1 0
vn 0 1 0
vn 0 1 0
vn 0 1 0
vn 0 1 0
vn 0 0.645497 -0.763726
vn 0.14771 0.653218 -0.742607
vn 0 0.642201 -0.766503
vn 0.148381 0.649281 -0.745903
vn 0.292276 0.645497 -0.705588
vn 0.293313 0.642201 -0.708152
vn 0.420667 0.653188 -0.629536
vn 0.422498 0.649251 -0.632374
vn 0.540056 0.645497 -0.540056
vn 0.542009 0.642201 -0.542009
vn 0.629536 0.653188 -0.420667
vn 0.632374 0.649251 -0.422498
vn 0.705588 0.645497 -0.292276
vn 0.708152 0.642201 -0.293313
vn 0.742607 0.653218 -0.14771
vn 0.745903 0.649281 -0.148381
vn 0.763726 0.645497 0
vn 0.766503 0.642201 0
vn 0.742607 0.653218 0.14771
vn 0.745903 0.649281 0.148381
vn 0.705588 0.645497 0.292276
vn 0.708152 0.642201 0.293313
vn 0.629536 0.653188 0.420667
vn 0.632374 0.649251 0.422498
vn 0.540056 0.645497 0.540056
vn 0.542009 0.642201 0.542009
vn 0.420637 0.653249 0.629536
vn 0.422498 0.649312 0.632313
vn 0.292276 0.645497 0.705588
vn 0.293313 0.642201 0.708152
vn 0.14771 0.653218 0.742607
vn 0.148381 0.649281 0.745903
vn 0 0.645497 0.763726
vn 0 0.642201 0.766503
vn 0.186407 0.294626 -0.937223
vn 0.186407 0.294626 -0.937223
vn 0 0.316202 -0.948668
vn 0 0.316202 -0.948668
vn 0.363018 0.316202 -0.876461
vn 0.363018 0.316202 -0.876461
vn 0.5309 0.294626 -0.794549
vn 0.5309 0.294626 -0.794549
vn 0.670797 0.316202 -0.670797
vn 0.670797 0.316202 -0.670797
vn 0.794549 0.294626 -0.5309
vn 0.794549 0.294626 -0.5309
vn 0.876461 0.316202 -0.363018
vn 0.876461 0.316202 -0.363018
vn 0.937223 0.294626 -0.186407
vn 0.937223 0.294626 -0.186407
vn 0.948668 0.316202 0
vn 0.948668 0.316202 0
vn 0.937223 0.294626 0.186407
vn 0.937223 0.294626 0.186407
vn 0.876461 0.316202 0.363018
vn 0.876461 0.316202 0.363018
vn 0.794549 0.294626 0.5309
vn 0.794549 0.294626 0.5309
vn 0.670797 0.316202 0.670797
vn 0.670797 0.316202 0.670797
vn 0.5309 0.294626 0.794549
vn 0.5309 0.294626 0.794549
vn 0.363018 0.316202 0.876461
vn 0.363018 0.316202 0.876461
vn 0.186407 0.294626 0.937223
vn 0.186407 0.294626 0.937223
vn 0 0.316202 0.948668
vn 0 0.316202 0.948668
vn 0 1 0
vn 0 1 0
vn 0 1 0
vn 0 1 0
vn 0 1 0
vn 0 1 0
vn 0 1 0
vn 0 1 0
vn 0 0.999969 0
vn 0.771325 0.636433 0
vn 0.497085 0.434462 0.751091
vn 0.774163 0.632954 0
vn 0.790521 0.591174 0.159856
vn 0.791131 0.590655 0.158788
vn 0.790521 0.591174 -0.159856
vn 0.791131 0.590655 -0.158788
vn 0 1 0
vn 0 0.999969 0
vn 0 1 0
vn 0 1 0
vn 0 1 0
vn 0 1 0
vn 0.497085 0.434462 -0.751091
vn 0 0.999969 0
vn 0 1 0
vn 0 1 0
vn 0 1 0
vn -0.831446 0 -0.555559
vn -0.831446 0 -0.555559
vn -0.923856 0 -0.382672
vn -0.923856 0 -0.382672
vn -0.555559 0 -0.831446
vn -0.555559 0 -0.831446
vn -0.707083 0 -0.707083
vn -0.707083 0 -0.707083
vn -0.195074 0 -0.980773
vn -0.195074 0 -0.980773
vn -0.382672 0 -0.923856
vn -0.382672 0 -0.923856
vn -0.980773 0 -0.195074
vn -0.980773 0 -0.195074
vn -0.923856 0 0.382672
vn -0.831446 0 0.555559
vn -0.923856 0 0.382672
vn -0.831446 0 0.555559
vn -0.707083 0 0.707083
vn -0.555559 0 0.831446
vn -0.707083 0 0.707083
vn -0.555559 0 0.831446
vn -0.382672 0 0.923856
vn -0.195074 0 0.980773
vn -0.382672 0 0.923856
vn -0.195074 0 0.980773
vn -0.980773 0 0.195074
vn -0.980773 0 0.195074
vn -0.000092 0 -1
vn -0.000092 0 -1
vn -0.130558 0 -0.991424
vn -0.130558 0 -0.991424
vn -0.499985 0 -0.866024
vn -0.499985 0 -0.866024
vn -0.866024 0 -0.499985
vn -0.866024 0 -0.499985
vn -1 0 0
vn -1 0 0
vn -0.995178 0 -0.097995
vn -0.995178 0 -0.097995
vn -0.130558 0 0.991424
vn -0.130558 0 0.991424
vn -0.000092 0 1
vn -0.000092 0 1
vn -0.499985 0 0.866024
vn -0.499985 0 0.866024
vn -0.866024 0 0.499985
vn -0.866024 0 0.499985
vn -0.995178 0 0.097995
vn -0.995178 0 0.097995
vn -0.137944 0.707083 0.693503
vn -0.137944 0.707083 0.693503
vn -0.270577 0.707083 0.653279
vn -0.270577 0.707083 0.653279
vn -0.392834 0.707083 0.587909
vn -0.392834 0.707083 0.587909
vn -0.499985 0.707083 0.499985
vn -0.499985 0.707083 0.499985
vn -0.587909 0.707083 0.392834
vn -0.587909 0.707083 0.392834
vn -0.653279 0.707083 0.270577
vn -0.653279 0.707083 0.270577
vn -0.693503 0.707083 0.137944
vn -0.693503 0.707083 0.137944
vn -0.707083 0.707083 0
vn -0.707083 0.707083 0
vn -0.693503 0.707083 -0.137944
vn -0.693503 0.707083 -0.137944
vn -0.653279 0.707083 -0.270577
vn -0.653279 0.707083 -0.270577
vn -0.587909 0.707083 -0.392834
vn -0.587909 0.707083 -0.392834
vn -0.499985 0.707083 -0.499985
vn -0.499985 0.707083 -0.499985
vn -0.392834 0.707083 -0.587909
vn -0.392834 0.707083 -0.587909
vn -0.270577 0.707083 -0.653279
vn -0.270577 0.707083 -0.653279
vn -0.137944 0.707083 -0.693503
vn -0.137944 0.707083 -0.693503
vn 0 0.999969 0
vn 0 1 0
vn 0 1 0
vn 0 0.999969 0
vn 0 1 0
vn 0 1 0
vn 0 1 0
vn 0 1 0
vn 0 1 0
vn 0 1 0
vn 0 1 0
vn 0 1 0
vn 0 1 0
vn 0 1 0
vn 0 1 0
vn 0 1 0
vn 0 1 0
vn 0 0.999969 0
vn 0 1 0
vn 0 1 0
vn 0 1 0
vn 0 1 0
vn 0 1 0
vn 0 1 0
vn 0 1 0
vn 0 0.999969 0
vn 0 1 0
vn 0 1 0
vn 0 1 0
vn 0 1 0
vn 0 1 0
vn 0 1 0
vn 0 1 0
vn 0 1 0
vn 0 1 0
vn 0 1 0
vn 0 1 0
vn 0 1 0
vn 0 0.999969 0
vn -0.15717 0.592212 0.790277
vn -0.157628 0.589068 0.792535
vn -0.295053 0.636769 0.712333
vn -0.296304 0.632923 0.715232
vn -0.447645 0.592212 0.669942
vn -0.448927 0.589068 0.671865
vn -0.545213 0.636738 0.545213
vn -0.547441 0.632893 0.547441
vn -0.669942 0.592212 0.447645
vn -0.671865 0.589068 0.448927
vn -0.712333 0.636769 0.295053
vn -0.715232 0.632923 0.296304
vn -0.712333 0.636769 -0.295053
vn -0.669942 0.592212 -0.447645
vn -0.671865 0.589068 -0.448927
vn -0.715232 0.632923 -0.296304
vn -0.545213 0.636738 -0.545213
vn -0.547441 0.632893 -0.547441
vn -0.447645 0.592212 -0.669942
vn -0.448927 0.589068 -0.671865
vn -0.295053 0.636769 -0.712333
vn -0.296304 0.632923 -0.715232
vn -0.15717 0.592212 -0.790277
vn -0.157628 0.589068 -0.792535
vn -0.195074 0 0.980773
vn -0.195074 0 0.980773
vn -0.382672 0 0.923856
vn -0.382672 0 0.923856
vn -0.555559 0 0.831446
vn -0.555559 0 0.831446
vn -0.707083 0 0.707083
vn -0.707083 0 0.707083
vn -0.831446 0 0.555559
vn -0.831446 0 0.555559
vn -0.923856 0 0.382672
vn -0.923856 0 0.382672
vn -0.980773 0 0.195074
vn -0.980773 0 0.195074
vn -0.999969 0 0
vn -1 0 0
vn -0.980773 0 -0.195074
vn -0.980773 0 -0.195074
vn -0.923856 0 -0.382672
vn -0.923856 0 -0.382672
vn -0.831446 0 -0.555559
vn -0.831446 0 -0.555559
vn -0.707083 0 -0.707083
vn -0.707083 0 -0.707083
vn -0.555559 0 -0.831446
vn -0.555559 0 -0.831446
vn -0.382672 0 -0.923856
vn -0.382672 0 -0.923856
vn -0.195074 0 -0.980773
vn -0.195074 0 -0.980773
vn 0 1 0
vn 0 1 0
vn 0 1 0
vn 0 1 0
vn 0 1 0
vn 0 1 0
vn 0 0.999969 0
vn 0 0.999969 0
vn 0 1 0
vn 0 1 0
vn 0 1 0
vn 0 1 0
vn 0 1 0
vn 0 1 0
vn 0 1 0
vn 0 1 0
vn 0 1 0
vn 0 0.999969 0
vn 0 1 0
vn 0 1 0
vn 0 1 0
vn 0 1 0
vn 0 1 0
vn 0 1 0
vn 0 1 0
vn 0 1 0
vn 0 1 0
vn 0 1 0
vn 0 1 0
vn 0 1 0
vn 0 1 0
vn 0 1 0
vn 0 1 0
vn 0 0.999969 0
vn 0 1 0
vn 0 1 0
vn 0 1 0
vn 0 1 0
vn 0 1 0
vn 0 0.999969 0
vn 0 1 0
vn 0 1 0
vn 0 1 0
vn 0 1 0
vn 0 1 0
vn 0 1 0
vn 0 1 0
vn -0.14771 0.653218 0.742607
vn -0.148381 0.649281 0.745903
vn -0.292276 0.645497 0.705588
vn -0.293313 0.642201 0.708152
vn -0.420667 0.653188 0.629536
vn -0.422498 0.649251 0.632374
vn -0.540056 0.645497 0.540056
vn -0.542009 0.642201 0.542009
vn -0.629536 0.653188 0.420667
vn -0.632374 0.649251 0.422498
vn -0.705588 0.645497 0.292276
vn -0.708152 0.642201 0.293313
vn -0.742607 0.653218 0.14771
vn -0.745903 0.649281 0.148381
vn -0.763726 0.645497 0
vn -0.766503 0.642201 0
vn -0.742607 0.653218 -0.14771
vn -0.745903 0.649281 -0.148381
vn -0.705588 0.645497 -0.292276
vn -0.708152 0.642201 -0.293313
vn -0.629536 0.653188 -0.420667
vn -0.632374 0.649251 -0.422498
vn -0.540056 0.645497 -0.540056
vn -0.542009 0.642201 -0.542009
vn -0.420637 0.653249 -0.629536
vn -0.422498 0.649312 -0.632313
vn -0.292276 0.645497 -0.705588
vn -0.293313 0.642201 -0.708152
vn -0.14771 0.653218 -0.742607
vn -0.148381 0.649281 -0.745903
vn -0.186407 0.294626 0.937223
vn -0.186407 0.294626 0.937223
vn -0.363018 0.316202 0.876461
vn -0.363018 0.316202 0.876461
vn -0.5309 0.294626 0.794549
vn -0.5309 0.294626 0.794549
vn -0.670797 0.316202 0.670797
vn -0.670797 0.316202 0.670797
vn -0.794549 0.294626 0.5309
vn -0.794549 0.294626 0.5309
vn -0.876461 0.316202 0.363018
vn -0.876461 0.316202 0.363018
vn -0.937223 0.294626 0.186407
vn -0.937223 0.294626 0.186407
vn -0.948668 0.316202 0
vn -0.948668 0.316202 0
vn -0.937223 0.294626 -0.186407
vn -0.937223 0.294626 -0.186407
vn -0.876461 0.316202 -0.363018
vn -0.876461 0.316202 -0.363018
vn -0.794549 0.294626 -0.5309
vn -0.794549 0.294626 -0.5309
vn -0.670797 0.316202 -0.670797
vn -0.670797 0.316202 -0.670797
vn -0.5309 0.294626 -0.794549
vn -0.5309 0.294626 -0.794549
vn -0.363018 0.316202 -0.876461
vn -0.363018 0.316202 -0.876461
vn -0.186407 0.294626 -0.937223
vn -0.186407 0.294626 -0.937223
vn 0 1 0
vn 0 1 0
vn 0 1 0
vn 0 1 0
vn 0 1 0
vn 0 1 0
vn 0 1 0
vn 0 1 0
vn 0 0.999969 0
vn -0.771325 0.636433 0
vn -0.497085 0.434462 -0.751091
vn -0.774163 0.632954 0
vn -0.790521 0.591174 -0.159856
vn -0.791131 0.590655 -0.158788
vn -0.790521 0.591174 0.159856
vn -0.791131 0.590655 0.158788
vn 0 1 0
vn 0 0.999969 0
vn 0 1 0
vn 0 1 0
vn 0 1 0
vn 0 1 0
vn -0.497085 0.434462 0.751091
vn 0 0.999969 0
vn 0 1 0
vn 0 1 0
vn 0 1 0
vn 0.095096 0.873135 -0.478072
vn 0.072604 0.928098 -0.365093
vn 0 0.877194 -0.480117
vn 0.183721 0.877194 -0.443556
vn 0.270791 0.873135 -0.405286
vn 0.206793 0.928098 -0.309519
vn 0.339488 0.877194 -0.339488
vn 0.405286 0.873135 -0.270791
vn 0.309519 0.928098 -0.206793
vn 0.443556 0.877194 -0.183721
vn 0.478072 0.873135 -0.095096
vn 0.365093 0.928098 -0.072604
vn 0.480117 0.877194 0
vn 0.478072 0.873135 0.095096
vn 0.365093 0.928098 0.072604
vn 0.443556 0.877194 0.183721
vn 0.405286 0.873135 0.270791
vn 0.309519 0.928098 0.206793
vn 0.339488 0.877194 0.339488
vn 0.270791 0.873135 0.405286
vn 0.206793 0.928098 0.309519
vn 0.183721 0.877194 0.443556
vn 0.095096 0.873135 0.478072
vn 0.072604 0.928098 0.365093
vn 0 0.877194 0.480117
vn 0.172185 0.982452 0.071322
vn 0.186346 0.982452 0
vn 0.172185 0.982452 -0.071322
vn 0.131779 0.982452 -0.131779
vn 0.071322 0.982452 -0.172185
vn 0 0.982452 -0.186346
vn 0 0.982452 0.186346
vn 0.071322 0.982452 0.172185
vn 0.131779 0.982452 0.131779
vn 0 1 0
vn -0.095096 0.873135 0.478072
vn -0.072604 0.928098 0.365093
vn -0.183721 0.877194 0.443556
vn -0.270791 0.873135 0.405286
vn -0.206793 0.928098 0.309519
vn -0.339488 0.877194 0.339488
vn -0.405286 0.873135 0.270791
vn -0.309519 0.928098 0.206793
vn -0.443556 0.877194 0.183721
vn -0.478072 0.873135 0.095096
vn -0.365093 0.928098 0.072604
vn -0.480117 0.877194 0
vn -0.478072 0.873135 -0.095096
vn -0.365093 0.928098 -0.072604
vn -0.443556 0.877194 -0.183721
vn -0.405286 0.873135 -0.270791
vn -0.309519 0.928098 -0.206793
vn -0.339488 0.877194 -0.339488
vn -0.270791 0.873135 -0.405286
vn -0.206793 0.928098 -0.309519
vn -0.183721 0.877194 -0.443556
vn -0.095096 0.873135 -0.478072
vn -0.072604 0.928098 -0.365093
vn -0.172185 0.982452 -0.071322
vn -0.186346 0.982452 0
vn -0.172185 0.982452 0.071322
vn -0.131779 0.982452 0.131779
vn -0.071322 0.982452 0.172185
vn -0.071322 0.982452 -0.172185
vn -0.131779 0.982452 -0.131779
vn 0 1 0
vn 0 1 0
vn 0 1 0
vn 0 1 0
vn 0 1 0
vn 0 0.999969 0
vn 0 0.999969 0
vn 0 1 0
vn 0 1 0
vn 0 1 0
vn 0 1 0
vn 0 1 0
vn 0 0.999969 0
vn 0 1 0
vn 0 1 0
vn 0 1 0
vn 0 1 0
vn 0 1 0
vn 0 1 0
vn 0 1 0
vn 0 1 0
vn 0 1 0
vn 0 0.999969 0
vn 0 0.999969 0
vn 0 1 0
vn 0 1 0
vn 0 1 0
vn 0 1 0
vn 0 1 0
vn 0 1 0
vn 0 1 0
vn 0 0.999969 0
vn 0 1 0
vn 0 1 0
vn 0 1 0
vn 0 1 0
vn 0 1 0
vn 0 1 0
vn 0 1 0
vn 0 1 0
vn 0 0.999969 0
vn 0 0.999969 0
vn 0 1 0
vn 0 1 0
vn 0 1 0
vn 0 1 0
vn 0 1 0
vn 0 0.999969 0
vn 0 1 0
vn 0 1 0
vn 0 1 0
vn 0 1 0
vn 0 1 0
vn 0 1 0
vn 0 1 0
vn 0 0.999969 0
vn 0 0.999969 0
vn 0 1 0
vn 0 1 0
vn 0 1 0
vn 0 1 0
vn 0 1 0
vn 0 1 0
vn 0 1 0
vn 0 0.999969 0
vn 0 1 0
vn 0 1 0
vn 0 1 0
vn 0 0.999969 0
vn 0 1 0
vn 0 1 0
vn 0 1 0
vn 0 0.999969 0
vn 0 1 0
vn 0 0.999969 0
vn 0 1 0
vn 0 1 0
vn 0 1 0
vn 0 0.999969 0
vn 0 1 0
f 95/95/95 92/92/92 93/93/93
f 94/94/94 93/93/93 92/92/92
f 94/94/94 460/460/460 461/461/461
f 462/462/462 461/461/461 460/460/460
f 3/3/3 2/2/2 1/1/1
f 1/1/1 4/4/4 3/3/3
f 8/8/8 1/1/1 2/2/2
f 13/13/13 3/3/3 4/4/4
f 2/2/2 7/7/7 8/8/8
f 4/4/4 14/14/14 13/13/13
f 5/5/5 8/8/8 7/7/7
f 43/43/43 13/13/13 14/14/14
f 14/14/14 44/44/44 43/43/43
f 7/7/7 6/6/6 5/5/5
f 12/12/12 5/5/5 6/6/6
f 6/6/6 11/11/11 12/12/12
f 9/9/9 12/12/12 11/11/11
f 11/11/11 10/10/10 9/9/9
f 15/15/15 9/9/9 10/10/10
f 10/10/10 16/16/16 15/15/15
f 16/16/16 369/369/369 15/15/15
f 369/369/369 16/16/16 367/367/367
f 367/367/367 368/368/368 369/369/369
f 368/368/368 367/367/367 366/366/366
f 366/366/366 365/365/365 368/368/368
f 365/365/365 366/366/366 363/363/363
f 363/363/363 364/364/364 365/365/365
f 364/364/364 363/363/363 362/362/362
f 362/362/362 361/361/361 364/364/364
f 361/361/361 362/362/362 359/359/359
f 359/359/359 360/360/360 361/361/361
f 360/360/360 359/359/359 358/358/358
f 358/358/358 371/371/371 360/360/360
f 371/371/371 358/358/358 370/370/370
f 393/393/393 371/371/371 370/370/370
f 371/371/371 393/393/393 392/392/392
f 19/19/19 18/18/18 17/17/17
f 18/18/18 19/19/19 20/20/20
f 17/17/17 30/30/30 19/19/19
f 20/20/20 21/21/21 18/18/18
f 30/30/30 17/17/17 29/29/29
f 21/21/21 20/20/20 23/23/23
f 54/54/54 30/30/30 29/29/29
f 30/30/30 54/54/54 53/53/53
f 23/23/23 22/22/22 21/21/21
f 22/22/22 23/23/23 24/24/24
f 24/24/24 25/25/25 22/22/22
f 25/25/25 24/24/24 27/27/27
f 27/27/27 26/26/26 25/25/25
f 26/26/26 27/27/27 28/28/28
f 28/28/28 31/31/31 26/26/26
f 31/31/31 28/28/28 32/32/32
f 353/353/353 31/31/31 32/32/32
f 32/32/32 352/352/352 353/353/353
f 354/354/354 353/353/353 352/352/352
f 352/352/352 355/355/355 354/354/354
f 349/349/349 354/354/354 355/355/355
f 355/355/355 348/348/348 349/349/349
f 350/350/350 349/349/349 348/348/348
f 348/348/348 351/351/351 350/350/350
f 345/345/345 350/350/350 351/351/351
f 351/351/351 344/344/344 345/345/345
f 346/346/346 345/345/345 344/344/344
f 344/344/344 347/347/347 346/346/346
f 356/356/356 346/346/346 347/347/347
f 347/347/347 357/357/357 356/356/356
f 382/382/382 356/356/356 357/357/357
f 357/357/357 383/383/383 382/382/382
f 35/35/35 34/34/34 33/33/33
f 33/33/33 36/36/36 35/35/35
f 37/37/37 35/35/35 36/36/36
f 36/36/36 38/38/38 37/37/37
f 39/39/39 37/37/37 38/38/38
f 38/38/38 40/40/40 39/39/39
f 41/41/41 39/39/39 40/40/40
f 40/40/40 42/42/42 41/41/41
f 52/52/52 41/41/41 42/42/42
f 42/42/42 51/51/51 52/52/52
f 50/50/50 52/52/52 51/51/51
f 51/51/51 49/49/49 50/50/50
f 46/46/46 50/50/50 49/49/49
f 49/49/49 45/45/45 46/46/46
f 47/47/47 46/46/46 45/45/45
f 45/45/45 48/48/48 47/47/47
f 57/57/57 56/56/56 55/55/55
f 55/55/55 58/58/58 57/57/57
f 423/423/423 55/55/55 56/56/56
f 59/59/59 57/57/57 58/58/58
f 56/56/56 422/422/422 423/423/423
f 58/58/58 60/60/60 59/59/59
f 421/421/421 423/423/423 422/422/422
f 61/61/61 59/59/59 60/60/60
f 422/422/422 420/420/420 421/421/421
f 60/60/60 62/62/62 61/61/61
f 419/419/419 421/421/421 420/420/420
f 63/63/63 61/61/61 62/62/62
f 420/420/420 418/418/418 419/419/419
f 62/62/62 64/64/64 63/63/63
f 417/417/417 419/419/419 418/418/418
f 65/65/65 63/63/63 64/64/64
f 418/418/418 416/416/416 417/417/417
f 64/64/64 66/66/66 65/65/65
f 415/415/415 417/417/417 416/416/416
f 67/67/67 65/65/65 66/66/66
f 416/416/416 414/414/414 415/415/415
f 66/66/66 68/68/68 67/67/67
f 413/413/413 415/415/415 414/414/414
f 69/69/69 67/67/67 68/68/68
f 414/414/414 412/412/412 413/413/413
f 68/68/68 70/70/70 69/69/69
f 411/411/411 413/413/413 412/412/412
f 71/71/71 69/69/69 70/70/70
f 412/412/412 410/410/410 411/411/411
f 70/70/70 72/72/72 71/71/71
f 409/409/409 411/411/411 410/410/410
f 73/73/73 71/71/71 72/72/72
f 410/410/410 408/408/408 409/409/409
f 72/72/72 74/74/74 73/73/73
f 407/407/407 409/409/409 408/408/408
f 75/75/75 73/73/73 74/74/74
f 408/408/408 406/406/406 407/407/407
f 74/74/74 76/76/76 75/75/75
f 405/405/405 407/407/407 406/406/406
f 77/77/77 75/75/75 76/76/76
f 406/406/406 404/404/404 405/405/405
f 76/76/76 78/78/78 77/77/77
f 403/403/403 405/405/405 404/404/404
f 79/79/79 77/77/77 78/78/78
f 404/404/404 402/402/402 403/403/403
f 78/78/78 80/80/80 79/79/79
f 401/401/401 403/403/403 402/402/402
f 81/81/81 79/79/79 80/80/80
f 402/402/402 400/400/400 401/401/401
f 80/80/80 82/82/82 81/81/81
f 399/399/399 401/401/401 400/400/400
f 83/83/83 81/81/81 82/82/82
f 400/400/400 398/398/398 399/399/399
f 82/82/82 84/84/84 83/83/83
f 397/397/397 399/399/399 398/398/398
f 85/85/85 83/83/83 84/84/84
f 398/398/398 396/396/396 397/397/397
f 84/84/84 86/86/86 85/85/85
f 395/395/395 397/397/397 396/396/396
f 87/87/87 85/85/85 86/86/86
f 396/396/396 394/394/394 395/395/395
f 86/86/86 88/88/88 87/87/87
f 88/88/88 395/395/395 394/394/394
f 394/394/394 87/87/87 88/88/88
f 91/91/91 90/90/90 89/89/89
f 459/459/459 89/89/89 90/90/90
f 91/91/91 97/97/97 96/96/96
f 98/98/98 96/96/96 97/97/97
f 459/459/459 457/457/457 458/458/458
f 453/453/453 458/458/458 457/457/457
f 98/98/98 104/104/104 103/103/103
f 105/105/105 103/103/103 104/104/104
f 453/453/453 451/451/451 452/452/452
f 446/446/446 452/452/452 451/451/451
f 105/105/105 110/110/110 109/109/109
f 322/322/322 109/109/109 110/110/110
f 446/446/446 445/445/445 444/444/444
f 628/628/628 444/444/444 445/445/445
f 322/322/322 341/341/341 340/340/340
f 322/322/322 340/340/340 342/342/342
f 641/641/641 640/640/640 628/628/628
f 642/642/642 641/641/641 628/628/628
f 342/342/342 343/343/343 338/338/338
f 343/343/343 337/337/337 338/338/338
f 338/338/338 337/337/337 336/336/336
f 338/338/338 336/336/336 335/335/335
f 335/335/335 334/334/334 321/321/321
f 334/334/334 333/333/333 321/321/321
f 321/321/321 111/111/111 112/112/112
f 113/113/113 112/112/112 111/111/111
f 113/113/113 119/119/119 118/118/118
f 120/120/120 118/118/118 119/119/119
f 120/120/120 125/125/125 124/124/124
f 126/126/126 124/124/124 125/125/125
f 645/645/645 643/643/643 642/642/642
f 645/645/645 644/644/644 643/643/643
f 650/650/650 644/644/644 645/645/645
f 649/649/649 650/650/650 645/645/645
f 629/629/629 647/647/647 649/649/649
f 629/629/629 648/648/648 647/647/647
f 629/629/629 442/442/442 443/443/443
f 438/438/438 443/443/443 442/442/442
f 438/438/438 436/436/436 437/437/437
f 431/431/431 437/437/437 436/436/436
f 431/431/431 428/428/428 429/429/429
f 430/430/430 429/429/429 428/428/428
f 101/101/101 100/100/100 99/99/99
f 102/102/102 99/99/99 100/100/100
f 102/102/102 107/107/107 106/106/106
f 108/108/108 106/106/106 107/107/107
f 108/108/108 324/324/324 323/323/323
f 325/325/325 323/323/323 324/324/324
f 116/116/116 115/115/115 114/114/114
f 117/117/117 114/114/114 115/115/115
f 117/117/117 122/122/122 121/121/121
f 123/123/123 121/121/121 122/122/122
f 129/129/129 128/128/128 127/127/127
f 130/130/130 127/127/127 128/128/128
f 130/130/130 426/426/426 425/425/425
f 427/427/427 425/425/425 426/426/426
f 133/133/133 132/132/132 131/131/131
f 424/424/424 131/131/131 132/132/132
f 136/136/136 135/135/135 134/134/134
f 136/136/136 138/138/138 135/135/135
f 136/136/136 134/134/134 137/137/137
f 139/139/139 138/138/138 136/136/136
f 137/137/137 134/134/134 486/486/486
f 141/141/141 138/138/138 139/139/139
f 486/486/486 134/134/134 485/485/485
f 141/141/141 140/140/140 138/138/138
f 486/486/486 485/485/485 483/483/483
f 141/141/141 142/142/142 140/140/140
f 486/486/486 483/483/483 484/484/484
f 143/143/143 142/142/142 141/141/141
f 484/484/484 483/483/483 482/482/482
f 145/145/145 142/142/142 143/143/143
f 482/482/482 483/483/483 481/481/481
f 145/145/145 144/144/144 142/142/142
f 482/482/482 481/481/481 479/479/479
f 145/145/145 146/146/146 144/144/144
f 482/482/482 479/479/479 480/480/480
f 147/147/147 146/146/146 145/145/145
f 480/480/480 479/479/479 477/477/477
f 332/332/332 146/146/146 147/147/147
f 477/477/477 479/479/479 476/476/476
f 332/332/332 331/331/331 146/146/146
f 477/477/477 476/476/476 475/475/475
f 332/332/332 339/339/339 331/331/331
f 477/477/477 475/475/475 478/478/478
f 339/339/339 326/326/326 331/331/331
f 478/478/478 475/475/475 637/637/637
f 326/326/326 339/339/339 328/328/328
f 637/637/637 475/475/475 636/636/636
f 328/328/328 327/327/327 326/326/326
f 636/636/636 634/634/634 637/637/637
f 329/329/329 326/326/326 327/327/327
f 636/636/636 633/633/633 634/634/634
f 329/329/329 327/327/327 330/330/330
f 635/635/635 634/634/634 633/633/633
f 330/330/330 148/148/148 329/329/329
f 633/633/633 646/646/646 635/635/635
f 151/151/151 148/148/148 330/330/330
f 646/646/646 633/633/633 638/638/638
f 150/150/150 148/148/148 151/151/151
f 639/639/639 646/646/646 638/638/638
f 150/150/150 149/149/149 148/148/148
f 639/639/639 638/638/638 473/473/473
f 150/150/150 152/152/152 149/149/149
f 639/639/639 473/473/473 474/474/474
f 153/153/153 152/152/152 150/150/150
f 474/474/474 473/473/473 472/472/472
f 155/155/155 152/152/152 153/153/153
f 472/472/472 473/473/473 471/471/471
f 155/155/155 154/154/154 152/152/152
f 472/472/472 471/471/471 469/469/469
f 155/155/155 156/156/156 154/154/154
f 472/472/472 469/469/469 470/470/470
f 157/157/157 156/156/156 155/155/155
f 470/470/470 469/469/469 468/468/468
f 159/159/159 156/156/156 157/157/157
f 468/468/468 469/469/469 467/467/467
f 159/159/159 158/158/158 156/156/156
f 468/468/468 467/467/467 465/465/465
f 159/159/159 160/160/160 158/158/158
f 468/468/468 465/465/465 466/466/466
f 161/161/161 160/160/160 159/159/159
f 466/466/466 465/465/465 464/464/464
f 464/464/464 160/160/160 161/161/161
f 464/464/464 465/465/465 463/463/463
f 464/464/464 463/463/463 160/160/160
f 164/164/164 163/163/163 162/162/162
f 162/162/162 165/165/165 164/164/164
f 166/166/166 162/162/162 163/163/163
f 516/516/516 164/164/164 165/165/165
f 163/163/163 167/167/167 166/166/166
f 165/165/165 515/515/515 516/516/516
f 168/168/168 166/166/166 167/167/167
f 514/514/514 516/516/516 515/515/515
f 167/167/167 169/169/169 168/168/168
f 515/515/515 513/513/513 514/514/514
f 170/170/170 168/168/168 169/169/169
f 512/512/512 514/514/514 513/513/513
f 169/169/169 171/171/171 170/170/170
f 513/513/513 511/511/511 512/512/512
f 172/172/172 170/170/170 171/171/171
f 510/510/510 512/512/512 511/511/511
f 171/171/171 173/173/173 172/172/172
f 511/511/511 509/509/509 510/510/510
f 174/174/174 172/172/172 173/173/173
f 508/508/508 510/510/510 509/509/509
f 173/173/173 175/175/175 174/174/174
f 509/509/509 507/507/507 508/508/508
f 176/176/176 174/174/174 175/175/175
f 506/506/506 508/508/508 507/507/507
f 175/175/175 177/177/177 176/176/176
f 507/507/507 505/505/505 506/506/506
f 178/178/178 176/176/176 177/177/177
f 504/504/504 506/506/506 505/505/505
f 177/177/177 179/179/179 178/178/178
f 505/505/505 503/503/503 504/504/504
f 180/180/180 178/178/178 179/179/179
f 502/502/502 504/504/504 503/503/503
f 179/179/179 181/181/181 180/180/180
f 503/503/503 501/501/501 502/502/502
f 182/182/182 180/180/180 181/181/181
f 500/500/500 502/502/502 501/501/501
f 181/181/181 183/183/183 182/182/182
f 501/501/501 499/499/499 500/500/500
f 184/184/184 182/182/182 183/183/183
f 498/498/498 500/500/500 499/499/499
f 183/183/183 185/185/185 184/184/184
f 499/499/499 497/497/497 498/498/498
f 186/186/186 184/184/184 185/185/185
f 496/496/496 498/498/498 497/497/497
f 185/185/185 187/187/187 186/186/186
f 497/497/497 495/495/495 496/496/496
f 188/188/188 186/186/186 187/187/187
f 494/494/494 496/496/496 495/495/495
f 187/187/187 189/189/189 188/188/188
f 495/495/495 493/493/493 494/494/494
f 190/190/190 188/188/188 189/189/189
f 492/492/492 494/494/494 493/493/493
f 189/189/189 191/191/191 190/190/190
f 493/493/493 491/491/491 492/492/492
f 192/192/192 190/190/190 191/191/191
f 490/490/490 492/492/492 491/491/491
f 191/191/191 193/193/193 192/192/192
f 491/491/491 489/489/489 490/490/490
f 194/194/194 192/192/192 193/193/193
f 488/488/488 490/490/490 489/489/489
f 193/193/193 195/195/195 194/194/194
f 489/489/489 487/487/487 488/488/488
f 487/487/487 194/194/194 195/195/195
f 195/195/195 488/488/488 487/487/487
f 198/198/198 197/197/197 196/196/196
f 204/204/204 196/196/196 197/197/197
f 198/198/198 561/561/561 562/562/562
f 560/560/560 562/562/562 561/561/561
f 204/204/204 206/206/206 205/205/205
f 210/210/210 205/205/205 206/206/206
f 560/560/560 555/555/555 556/556/556
f 554/554/554 556/556/556 555/555/555
f 210/210/210 212/212/212 211/211/211
f 216/216/216 211/211/211 212/212/212
f 554/554/554 548/548/548 549/549/549
f 550/550/550 549/549/549 548/548/548
f 201/201/201 200/200/200 199/199/199
f 563/563/563 199/199/199 200/200/200
f 201/201/201 203/203/203 202/202/202
f 207/207/207 202/202/202 203/203/203
f 563/563/563 558/558/558 559/559/559
f 557/557/557 559/559/559 558/558/558
f 207/207/207 209/209/209 208/208/208
f 213/213/213 208/208/208 209/209/209
f 557/557/557 552/552/552 553/553/553
f 551/551/551 553/553/553 552/552/552
f 213/213/213 215/215/215 214/214/214
f 220/220/220 214/214/214 215/215/215
f 551/551/551 545/545/545 546/546/546
f 544/544/544 546/546/546 545/545/545
f 220/220/220 222/222/222 221/221/221
f 226/226/226 221/221/221 222/222/222
f 544/544/544 539/539/539 540/540/540
f 538/538/538 540/540/540 539/539/539
f 226/226/226 228/228/228 227/227/227
f 233/233/233 227/227/227 228/228/228
f 538/538/538 532/532/532 533/533/533
f 531/531/531 533/533/533 532/532/532
f 233/233/233 235/235/235 234/234/234
f 239/239/239 234/234/234 235/235/235
f 531/531/531 526/526/526 527/527/527
f 525/525/525 527/527/527 526/526/526
f 239/239/239 241/241/241 240/240/240
f 245/245/245 240/240/240 241/241/241
f 525/525/525 520/520/520 521/521/521
f 519/519/519 521/521/521 520/520/520
f 245/245/245 247/247/247 246/246/246
f 519/519/519 246/246/246 247/247/247
f 219/219/219 218/218/218 217/217/217
f 223/223/223 217/217/217 218/218/218
f 223/223/223 225/225/225 224/224/224
f 229/229/229 224/224/224 225/225/225
f 232/232/232 231/231/231 230/230/230
f 236/236/236 230/230/230 231/231/231
f 236/236/236 238/238/238 237/237/237
f 242/242/242 237/237/237 238/238/238
f 242/242/242 244/244/244 243/243/243
f 248/248/248 243/243/243 244/244/244
f 248/248/248 518/518/518 517/517/517
f 522/522/522 517/517/517 518/518/518
f 522/522/522 524/524/524 523/523/523
f 528/528/528 523/523/523 524/524/524
f 528/528/528 530/530/530 529/529/529
f 534/534/534 529/529/529 530/530/530
f 251/251/251 250/250/250 249/249/249
f 251/251/251 249/249/249 592/592/592
f 252/252/252 250/250/250 251/251/251
f 251/251/251 592/592/592 593/593/593
f 254/254/254 250/250/250 252/252/252
f 593/593/593 592/592/592 591/591/591
f 254/254/254 253/253/253 250/250/250
f 591/591/591 592/592/592 590/590/590
f 254/254/254 255/255/255 253/253/253
f 591/591/591 590/590/590 588/588/588
f 256/256/256 255/255/255 254/254/254
f 591/591/591 588/588/588 589/589/589
f 258/258/258 255/255/255 256/256/256
f 589/589/589 588/588/588 587/587/587
f 258/258/258 257/257/257 255/255/255
f 587/587/587 588/588/588 586/586/586
f 258/258/258 259/259/259 257/257/257
f 587/587/587 586/586/586 584/584/584
f 260/260/260 259/259/259 258/258/258
f 587/587/587 584/584/584 585/585/585
f 262/262/262 259/259/259 260/260/260
f 583/583/583 585/585/585 584/584/584
f 262/262/262 261/261/261 259/259/259
f 583/583/583 584/584/584 582/582/582
f 262/262/262 263/263/263 261/261/261
f 583/583/583 582/582/582 580/580/580
f 264/264/264 263/263/263 262/262/262
f 583/583/583 580/580/580 581/581/581
f 266/266/266 263/263/263 264/264/264
f 581/581/581 580/580/580 579/579/579
f 266/266/266 265/265/265 263/263/263
f 579/579/579 580/580/580 578/578/578
f 266/266/266 267/267/267 265/265/265
f 579/579/579 578/578/578 576/576/576
f 268/268/268 267/267/267 266/266/266
f 579/579/579 576/576/576 577/577/577
f 270/270/270 267/267/267 268/268/268
f 577/577/577 576/576/576 575/575/575
f 270/270/270 269/269/269 267/267/267
f 575/575/575 576/576/576 574/574/574
f 270/270/270 271/271/271 269/269/269
f 575/575/575 574/574/574 572/572/572
f 270/270/270 272/272/272 271/271/271
f 575/575/575 572/572/572 573/573/573
f 274/274/274 271/271/271 272/272/272
f 573/573/573 572/572/572 571/571/571
f 274/274/274 273/273/273 271/271/271
f 571/571/571 572/572/572 570/570/570
f 274/274/274 275/275/275 273/273/273
f 571/571/571 570/570/570 568/568/568
f 276/276/276 275/275/275 274/274/274
f 571/571/571 568/568/568 569/569/569
f 278/278/278 275/275/275 276/276/276
f 569/569/569 568/568/568 567/567/567
f 278/278/278 277/277/277 275/275/275
f 567/567/567 568/568/568 566/566/566
f 278/278/278 279/279/279 277/277/277
f 567/567/567 566/566/566 564/564/564
f 280/280/280 279/279/279 278/278/278
f 567/567/567 564/564/564 565/565/565
f 282/282/282 279/279/279 280/280/280
f 565/565/565 564/564/564 282/282/282
f 282/282/282 281/281/281 279/279/279
f 282/282/282 564/564/564 281/281/281
f 285/285/285 284/284/284 283/283/283
f 287/287/287 283/283/283 284/284/284
f 284/284/284 285/285/285 286/286/286
f 284/284/284 288/288/288 287/287/287
f 623/623/623 286/286/286 285/285/285
f 290/290/290 287/287/287 288/288/288
f 285/285/285 622/622/622 623/623/623
f 287/287/287 290/290/290 289/289/289
f 620/620/620 623/623/623 622/622/622
f 291/291/291 289/289/289 290/290/290
f 623/623/623 620/620/620 621/621/621
f 290/290/290 292/292/292 291/291/291
f 619/619/619 621/621/621 620/620/620
f 294/294/294 291/291/291 292/292/292
f 620/620/620 618/618/618 619/619/619
f 291/291/291 294/294/294 293/293/293
f 616/616/616 619/619/619 618/618/618
f 295/295/295 293/293/293 294/294/294
f 619/619/619 616/616/616 617/617/617
f 294/294/294 296/296/296 295/295/295
f 615/615/615 617/617/617 616/616/616
f 298/298/298 295/295/295 296/296/296
f 616/616/616 614/614/614 615/615/615
f 295/295/295 298/298/298 297/297/297
f 612/612/612 615/615/615 614/614/614
f 299/299/299 297/297/297 298/298/298
f 615/615/615 612/612/612 613/613/613
f 298/298/298 300/300/300 299/299/299
f 611/611/611 613/613/613 612/612/612
f 302/302/302 299/299/299 300/300/300
f 612/612/612 610/610/610 611/611/611
f 299/299/299 302/302/302 301/301/301
f 608/608/608 611/611/611 610/610/610
f 303/303/303 301/301/301 302/302/302
f 611/611/611 608/608/608 609/609/609
f 302/302/302 304/304/304 303/303/303
f 607/607/607 609/609/609 608/608/608
f 306/306/306 303/303/303 304/304/304
f 608/608/608 606/606/606 607/607/607
f 303/303/303 306/306/306 305/305/305
f 604/604/604 607/607/607 606/606/606
f 307/307/307 305/305/305 306/306/306
f 607/607/607 604/604/604 605/605/605
f 306/306/306 308/308/308 307/307/307
f 603/603/603 605/605/605 604/604/604
f 310/310/310 307/307/307 308/308/308
f 604/604/604 602/602/602 603/603/603
f 307/307/307 310/310/310 309/309/309
f 600/600/600 603/603/603 602/602/602
f 311/311/311 309/309/309 310/310/310
f 603/603/603 600/600/600 601/601/601
f 310/310/310 312/312/312 311/311/311
f 599/599/599 601/601/601 600/600/600
f 314/314/314 311/311/311 312/312/312
f 600/600/600 598/598/598 599/599/599
f 311/311/311 314/314/314 313/313/313
f 596/596/596 599/599/599 598/598/598
f 315/315/315 313/313/313 314/314/314
f 599/599/599 596/596/596 597/597/597
f 314/314/314 316/316/316 315/315/315
f 595/595/595 597/597/597 596/596/596
f 595/595/595 315/315/315 316/316/316
f 596/596/596 594/594/594 595/595/595
f 315/315/315 595/595/595 594/594/594
f 319/319/319 318/318/318 317/317/317
f 320/320/320 317/317/317 318/318/318
f 374/374/374 373/373/373 372/372/372
f 372/372/372 375/375/375 374/374/374
f 376/376/376 374/374/374 375/375/375
f 375/375/375 377/377/377 376/376/376
f 378/378/378 376/376/376 377/377/377
f 377/377/377 379/379/379 378/378/378
f 380/380/380 378/378/378 379/379/379
f 379/379/379 381/381/381 380/380/380
f 391/391/391 380/380/380 381/381/381
f 381/381/381 390/390/390 391/391/391
f 389/389/389 391/391/391 390/390/390
f 390/390/390 388/388/388 389/389/389
f 385/385/385 389/389/389 388/388/388
f 388/388/388 384/384/384 385/385/385
f 386/386/386 385/385/385 384/384/384
f 384/384/384 387/387/387 386/386/386
f 434/434/434 433/433/433 432/432/432
f 435/435/435 432/432/432 433/433/433
f 435/435/435 440/440/440 439/439/439
f 441/441/441 439/439/439 440/440/440
f 441/441/441 631/631/631 630/630/630
f 632/632/632 630/630/630 631/631/631
f 449/449/449 448/448/448 447/447/447
f 450/450/450 447/447/447 448/448/448
f 450/450/450 455/455/455 454/454/454
f 456/456/456 454/454/454 455/455/455
f 537/537/537 536/536/536 535/535/535
f 541/541/541 535/535/535 536/536/536
f 541/541/541 543/543/543 542/542/542
f 547/547/547 542/542/542 543/543/543
f 626/626/626 625/625/625 624/624/624
f 627/627/627 624/624/624 625/625/625
f 653/653/653 652/652/652 651/651/651
f 651/651/651 652/652/652 654/654/654
f 708/708/708 652/652/652 653/653/653
f 707/707/707 708/708/708 653/653/653
f 706/706/706 708/708/708 707/707/707
f 654/654/654 652/652/652 656/656/656
f 654/654/654 656/656/656 655/655/655
f 655/655/655 656/656/656 657/657/657
f 706/706/706 705/705/705 708/708/708
f 704/704/704 705/705/705 706/706/706
f 703/703/703 705/705/705 704/704/704
f 657/657/657 656/656/656 659/659/659
f 657/657/657 659/659/659 658/658/658
f 658/658/658 659/659/659 660/660/660
f 703/703/703 702/702/702 705/705/705
f 701/701/701 702/702/702 703/703/703
f 700/700/700 702/702/702 701/701/701
f 660/660/660 659/659/659 662/662/662
f 660/660/660 662/662/662 661/661/661
f 661/661/661 662/662/662 663/663/663
f 700/700/700 699/699/699 702/702/702
f 698/698/698 699/699/699 700/700/700
f 697/697/697 699/699/699 698/698/698
f 663/663/663 662/662/662 665/665/665
f 663/663/663 665/665/665 664/664/664
f 664/664/664 665/665/665 666/666/666
f 697/697/697 696/696/696 699/699/699
f 695/695/695 696/696/696 697/697/697
f 694/694/694 696/696/696 695/695/695
f 666/666/666 665/665/665 668/668/668
f 666/666/666 668/668/668 667/667/667
f 667/667/667 668/668/668 669/669/669
f 694/694/694 693/693/693 696/696/696
f 692/692/692 693/693/693 694/694/694
f 691/691/691 693/693/693 692/692/692
f 669/669/669 668/668/668 671/671/671
f 669/669/669 671/671/671 670/670/670
f 670/670/670 671/671/671 672/672/672
f 691/691/691 690/690/690 693/693/693
f 689/689/689 690/690/690 691/691/691
f 688/688/688 690/690/690 689/689/689
f 672/672/672 671/671/671 674/674/674
f 672/672/672 674/674/674 673/673/673
f 673/673/673 674/674/674 675/675/675
f 688/688/688 687/687/687 690/690/690
f 675/675/675 674/674/674 687/687/687
f 686/686/686 687/687/687 688/688/688
f 675/675/675 687/687/687 686/686/686
f 683/683/683 674/674/674 671/671/671
f 674/674/674 682/682/682 687/687/687
f 683/683/683 682/682/682 674/674/674
f 713/713/713 690/690/690 687/687/687
f 682/682/682 713/713/713 687/687/687
f 684/684/684 683/683/683 671/671/671
f 684/684/684 671/671/671 668/668/668
f 713/713/713 712/712/712 690/690/690
f 712/712/712 693/693/693 690/690/690
f 676/676/676 684/684/684 668/668/668
f 676/676/676 668/668/668 665/665/665
f 712/712/712 711/711/711 693/693/693
f 711/711/711 696/696/696 693/693/693
f 677/677/677 676/676/676 665/665/665
f 677/677/677 665/665/665 662/662/662
f 711/711/711 710/710/710 696/696/696
f 710/710/710 699/699/699 696/696/696
f 678/678/678 677/677/677 662/662/662
f 678/678/678 662/662/662 659/659/659
f 710/710/710 709/709/709 699/699/699
f 709/709/709 702/702/702 699/699/699
f 679/679/679 678/678/678 659/659/659
f 679/679/679 659/659/659 656/656/656
f 709/709/709 715/715/715 702/702/702
f 715/715/715 705/705/705 702/702/702
f 680/680/680 679/679/679 656/656/656
f 680/680/680 656/656/656 652/652/652
f 715/715/715 714/714/714 705/705/705
f 714/714/714 708/708/708 705/705/705
f 708/708/708 681/681/681 652/652/652
f 714/714/714 681/681/681 708/708/708
f 681/681/681 680/680/680 652/652/652
f 714/714/714 715/715/715 685/685/685
f 681/681/681 714/714/714 685/685/685
f 715/715/715 709/709/709 685/685/685
f 680/680/680 681/681/681 685/685/685
f 709/709/709 710/710/710 685/685/685
f 679/679/679 680/680/680 685/685/685
f 710/710/710 711/711/711 685/685/685
f 678/678/678 679/679/679 685/685/685
f 711/711/711 712/712/712 685/685/685
f 677/677/677 678/678/678 685/685/685
f 712/712/712 713/713/713 685/685/685
f 676/676/676 677/677/677 685/685/685
f 713/713/713 682/682/682 685/685/685
f 684/684/684 676/676/676 685/685/685
f 682/682/682 683/683/683 685/685/685
f 683/683/683 684/684/684 685/685/685
f 718/718/718 717/717/717 716/716/716
f 728/728/728 716/716/716 717/717/717
f 717/717/717 718/718/718 719/719/719
f 717/717/717 729/729/729 728/728/728
f 721/721/721 719/719/719 718/718/718
f 733/733/733 728/728/728 729/729/729
f 718/718/718 720/720/720 721/721/721
f 728/728/728 733/733/733 732/732/732
f 722/722/722 721/721/721 720/720/720
f 721/721/721 722/722/722 723/723/723
f 733/733/733 782/782/782 732/732/732
f 725/725/725 723/723/723 722/722/722
f 732/732/732 782/782/782 784/784/784
f 722/722/722 724/724/724 725/725/725
f 732/732/732 784/784/784 785/785/785
f 726/726/726 725/725/725 724/724/724
f 732/732/732 785/785/785 786/786/786
f 725/725/725 726/726/726 727/727/727
f 732/732/732 786/786/786 787/787/787
f 730/730/730 727/727/727 726/726/726
f 787/787/787 788/788/788 732/732/732
f 726/726/726 731/731/731 730/730/730
f 788/788/788 783/783/783 732/732/732
f 730/730/730 731/731/731 775/775/775
f 783/783/783 750/750/750 732/732/732
f 775/775/775 778/778/778 730/730/730
f 747/747/747 732/732/732 750/750/750
f 778/778/778 775/775/775 776/776/776
f 746/746/746 747/747/747 750/750/750
f 777/777/777 776/776/776 775/775/775
f 747/747/747 746/746/746 735/735/735
f 776/776/776 777/777/777 771/771/771
f 735/735/735 736/736/736 747/747/747
f 771/771/771 774/774/774 776/776/776
f 736/736/736 735/735/735 734/734/734
f 774/774/774 771/771/771 772/772/772
f 737/737/737 734/734/734 735/735/735
f 773/773/773 772/772/772 771/771/771
f 734/734/734 737/737/737 739/739/739
f 772/772/772 773/773/773 767/767/767
f 739/739/739 740/740/740 734/734/734
f 767/767/767 770/770/770 772/772/772
f 740/740/740 739/739/739 738/738/738
f 770/770/770 767/767/767 768/768/768
f 741/741/741 738/738/738 739/739/739
f 769/769/769 768/768/768 767/767/767
f 738/738/738 741/741/741 743/743/743
f 768/768/768 769/769/769 780/780/780
f 743/743/743 744/744/744 738/738/738
f 780/780/780 779/779/779 768/768/768
f 744/744/744 743/743/743 742/742/742
f 779/779/779 780/780/780 781/781/781
f 745/745/745 742/742/742 743/743/743
f 780/780/780 765/765/765 781/781/781
f 742/742/742 745/745/745 748/748/748
f 748/748/748 749/749/749 742/742/742
f 789/789/789 781/781/781 765/765/765
f 761/761/761 749/749/749 748/748/748
f 790/790/790 789/789/789 765/765/765
f 748/748/748 762/762/762 761/761/761
f 791/791/791 790/790/790 765/765/765
f 760/760/760 761/761/761 762/762/762
f 791/791/791 765/765/765 792/792/792
f 761/761/761 760/760/760 759/759/759
f 793/793/793 792/792/792 765/765/765
f 757/757/757 759/759/759 760/760/760
f 794/794/794 793/793/793 765/765/765
f 760/760/760 758/758/758 757/757/757
f 795/795/795 794/794/794 765/765/765
f 756/756/756 757/757/757 758/758/758
f 765/765/765 766/766/766 795/795/795
f 757/757/757 756/756/756 755/755/755
f 763/763/763 766/766/766 765/765/765
f 753/753/753 755/755/755 756/756/756
f 766/766/766 763/763/763 764/764/764
f 756/756/756 754/754/754 753/753/753
f 752/752/752 764/764/764 763/763/763
f 752/752/752 753/753/753 754/754/754
f 763/763/763 751/751/751 752/752/752
f 753/753/753 752/752/752 751/751/751
