# VPXTOOL table OBJ file
# VPXTOOL OBJ file
# numVerts: 657 numFaces: 448
o PegPlasticT6
v 0.045232 0.0035 -0.163154
v 0.018309 0.013 -0.129711
v 0.00101 0.0035 -0.168981
v 0.045232 0.0035 -0.163154
v 0.086486 0.0035 -0.146071
v 0.051822 0.013 -0.120734
v 0.086486 0.0035 -0.146071
v 0.121911 0.0035 -0.118896
v 0.081869 0.013 -0.103391
v 0.121911 0.0035 -0.118896
v 0.149094 0.0035 -0.083481
v 0.106402 0.013 -0.078865
v 0.149094 0.0035 -0.083481
v 0.166181 0.0035 -0.042239
v 0.123749 0.013 -0.048827
v 0.166181 0.0035 -0.042239
v 0.17201 0.0035 0.002019
v 0.132729 0.013 -0.015323
v 0.17201 0.0035 0.002019
v 0.166181 0.0035 0.046277
v 0.132729 0.013 0.019362
v 0.166181 0.0035 0.046277
v 0.149094 0.0035 0.087519
v 0.123749 0.013 0.052865
v 0.149094 0.0035 0.087519
v 0.121911 0.0035 0.122935
v 0.106402 0.013 0.082904
v 0.121911 0.0035 0.122935
v 0.086486 0.0035 0.15011
v 0.081869 0.013 0.10743
v 0.086486 0.0035 0.15011
v 0.045232 0.0035 0.167193
v 0.051822 0.013 0.124773
v 0.045232 0.0035 0.167193
v 0.00101 0.0035 0.173019
v 0.018309 0.013 0.13375
v 0.018309 0.013 -0.129711
v 0.03536 0.2695 -0.12632
v 0.00101 0.2695 -0.130848
v 0.051822 0.013 -0.120734
v 0.067414 0.2695 -0.113047
v 0.03536 0.2695 -0.12632
v 0.081869 0.013 -0.103391
v 0.094939 0.2695 -0.091932
v 0.067414 0.2695 -0.113047
v 0.106402 0.013 -0.078865
v 0.11606 0.2695 -0.064414
v 0.094939 0.2695 -0.091932
v 0.123749 0.013 -0.048827
v 0.129337 0.2695 -0.032369
v 0.11606 0.2695 -0.064414
v 0.132729 0.013 -0.015323
v 0.133866 0.2695 0.002019
v 0.129337 0.2695 -0.032369
v 0.132729 0.013 0.019362
v 0.129337 0.2695 0.036408
v 0.133866 0.2695 0.002019
v 0.123749 0.013 0.052865
v 0.11606 0.2695 0.068453
v 0.129337 0.2695 0.036408
v 0.106402 0.013 0.082904
v 0.094939 0.2695 0.095971
v 0.11606 0.2695 0.068453
v 0.081869 0.013 0.10743
v 0.067414 0.2695 0.117086
v 0.094939 0.2695 0.095971
v 0.051822 0.013 0.124773
v 0.03536 0.2695 0.130359
v 0.067414 0.2695 0.117086
v 0.018309 0.013 0.13375
v 0.00101 0.2695 0.134886
v 0.03536 0.2695 0.130359
v 0.17201 0.0035 0.002019
v 0.132729 0.013 0.019362
v 0.133866 0.2695 0.002019
v 0.133866 0.2695 0.002019
v 0.132729 0.013 -0.015323
v 0.17201 0.0035 0.002019
v 0.166181 0.0035 0.046277
v 0.123749 0.013 0.052865
v 0.129337 0.2695 0.036408
v 0.129337 0.2695 0.036408
v 0.132729 0.013 0.019362
v 0.166181 0.0035 0.046277
v 0.149094 0.0035 0.087519
v 0.106402 0.013 0.082904
v 0.11606 0.2695 0.068453
v 0.11606 0.2695 0.068453
v 0.123749 0.013 0.052865
v 0.149094 0.0035 0.087519
v 0.121911 0.0035 0.122935
v 0.081869 0.013 0.10743
v 0.094939 0.2695 0.095971
v 0.094939 0.2695 0.095971
v 0.106402 0.013 0.082904
v 0.121911 0.0035 0.122935
v 0.067414 0.2695 0.117086
v 0.081869 0.013 0.10743
v 0.086486 0.0035 0.15011
v 0.086486 0.0035 0.15011
v 0.051822 0.013 0.124773
v 0.067414 0.2695 0.117086
v 0.03536 0.2695 0.130359
v 0.051822 0.013 0.124773
v 0.045232 0.0035 0.167193
v 0.045232 0.0035 0.167193
v 0.018309 0.013 0.13375
v 0.03536 0.2695 0.130359
v 0.00101 0.2695 0.134886
v 0.018309 0.013 0.13375
v 0.00101 0.0035 0.173019
v 0.166181 0.0035 -0.042239
v 0.132729 0.013 -0.015323
v 0.129337 0.2695 -0.032369
v 0.129337 0.2695 -0.032369
v 0.123749 0.013 -0.048827
v 0.166181 0.0035 -0.042239
v 0.149094 0.0035 -0.083481
v 0.123749 0.013 -0.048827
v 0.11606 0.2695 -0.064414
v 0.11606 0.2695 -0.064414
v 0.106402 0.013 -0.078865
v 0.149094 0.0035 -0.083481
v 0.121911 0.0035 -0.118896
v 0.106402 0.013 -0.078865
v 0.094939 0.2695 -0.091932
v 0.094939 0.2695 -0.091932
v 0.081869 0.013 -0.103391
v 0.121911 0.0035 -0.118896
v 0.086486 0.0035 -0.146071
v 0.081869 0.013 -0.103391
v 0.067414 0.2695 -0.113047
v 0.067414 0.2695 -0.113047
v 0.051822 0.013 -0.120734
v 0.086486 0.0035 -0.146071
v 0.045232 0.0035 -0.163154
v 0.051822 0.013 -0.120734
v 0.03536 0.2695 -0.12632
v 0.045232 0.0035 -0.163154
v 0.03536 0.2695 -0.12632
v 0.018309 0.013 -0.129711
v 0.00101 0.0035 -0.168981
v 0.018309 0.013 -0.129711
v 0.00101 0.2695 -0.130848
v 0.00101 0.0035 -0.168981
v -0.01629 0.013 -0.129711
v -0.043213 0.0035 -0.163154
v -0.049803 0.013 -0.120734
v -0.084466 0.0035 -0.146071
v -0.043213 0.0035 -0.163154
v -0.079849 0.013 -0.103391
v -0.119892 0.0035 -0.118896
v -0.084466 0.0035 -0.146071
v -0.104382 0.013 -0.078865
v -0.147074 0.0035 -0.083481
v -0.119892 0.0035 -0.118896
v -0.12173 0.013 -0.048827
v -0.164162 0.0035 -0.042239
v -0.147074 0.0035 -0.083481
v -0.13071 0.013 -0.015323
v -0.16999 0.0035 0.002019
v -0.164162 0.0035 -0.042239
v -0.13071 0.013 0.019362
v -0.164162 0.0035 0.046277
v -0.16999 0.0035 0.002019
v -0.12173 0.013 0.052865
v -0.147074 0.0035 0.087519
v -0.164162 0.0035 0.046277
v -0.104382 0.013 0.082904
v -0.119892 0.0035 0.122935
v -0.147074 0.0035 0.087519
v -0.079849 0.013 0.10743
v -0.084466 0.0035 0.15011
v -0.119892 0.0035 0.122935
v -0.049803 0.013 0.124773
v -0.043213 0.0035 0.167193
v -0.084466 0.0035 0.15011
v -0.01629 0.013 0.13375
v 0.00101 0.0035 0.173019
v -0.043213 0.0035 0.167193
v 0.00101 0.2695 -0.130848
v -0.033341 0.2695 -0.12632
v -0.01629 0.013 -0.129711
v -0.033341 0.2695 -0.12632
v -0.065395 0.2695 -0.113047
v -0.049803 0.013 -0.120734
v -0.065395 0.2695 -0.113047
v -0.09292 0.2695 -0.091932
v -0.079849 0.013 -0.103391
v -0.09292 0.2695 -0.091932
v -0.114041 0.2695 -0.064414
v -0.104382 0.013 -0.078865
v -0.114041 0.2695 -0.064414
v -0.127318 0.2695 -0.032369
v -0.12173 0.013 -0.048827
v -0.127318 0.2695 -0.032369
v -0.131847 0.2695 0.002019
v -0.13071 0.013 -0.015323
v -0.131847 0.2695 0.002019
v -0.127318 0.2695 0.036408
v -0.13071 0.013 0.019362
v -0.127318 0.2695 0.036408
v -0.114041 0.2695 0.068453
v -0.12173 0.013 0.052865
v -0.114041 0.2695 0.068453
v -0.09292 0.2695 0.095971
v -0.104382 0.013 0.082904
v -0.09292 0.2695 0.095971
v -0.065395 0.2695 0.117086
v -0.079849 0.013 0.10743
v -0.065395 0.2695 0.117086
v -0.033341 0.2695 0.130359
v -0.049803 0.013 0.124773
v -0.033341 0.2695 0.130359
v 0.00101 0.2695 0.134886
v -0.01629 0.013 0.13375
v -0.131847 0.2695 0.002019
v -0.13071 0.013 0.019362
v -0.16999 0.0035 0.002019
v -0.16999 0.0035 0.002019
v -0.13071 0.013 -0.015323
v -0.131847 0.2695 0.002019
v -0.127318 0.2695 0.036408
v -0.12173 0.013 0.052865
v -0.164162 0.0035 0.046277
v -0.164162 0.0035 0.046277
v -0.13071 0.013 0.019362
v -0.127318 0.2695 0.036408
v -0.114041 0.2695 0.068453
v -0.104382 0.013 0.082904
v -0.147074 0.0035 0.087519
v -0.147074 0.0035 0.087519
v -0.12173 0.013 0.052865
v -0.114041 0.2695 0.068453
v -0.09292 0.2695 0.095971
v -0.079849 0.013 0.10743
v -0.119892 0.0035 0.122935
v -0.119892 0.0035 0.122935
v -0.104382 0.013 0.082904
v -0.09292 0.2695 0.095971
v -0.084466 0.0035 0.15011
v -0.079849 0.013 0.10743
v -0.065395 0.2695 0.117086
v -0.065395 0.2695 0.117086
v -0.049803 0.013 0.124773
v -0.084466 0.0035 0.15011
v -0.043213 0.0035 0.167193
v -0.049803 0.013 0.124773
v -0.033341 0.2695 0.130359
v -0.033341 0.2695 0.130359
v -0.01629 0.013 0.13375
v -0.043213 0.0035 0.167193
v 0.00101 0.0035 0.173019
v -0.01629 0.013 0.13375
v 0.00101 0.2695 0.134886
v -0.127318 0.2695 -0.032369
v -0.13071 0.013 -0.015323
v -0.164162 0.0035 -0.042239
v -0.164162 0.0035 -0.042239
v -0.12173 0.013 -0.048827
v -0.127318 0.2695 -0.032369
v -0.114041 0.2695 -0.064414
v -0.12173 0.013 -0.048827
v -0.147074 0.0035 -0.083481
v -0.147074 0.0035 -0.083481
v -0.104382 0.013 -0.078865
v -0.114041 0.2695 -0.064414
v -0.09292 0.2695 -0.091932
v -0.104382 0.013 -0.078865
v -0.119892 0.0035 -0.118896
v -0.119892 0.0035 -0.118896
v -0.079849 0.013 -0.103391
v -0.09292 0.2695 -0.091932
v -0.065395 0.2695 -0.113047
v -0.079849 0.013 -0.103391
v -0.084466 0.0035 -0.146071
v -0.084466 0.0035 -0.146071
v -0.049803 0.013 -0.120734
v -0.065395 0.2695 -0.113047
v -0.033341 0.2695 -0.12632
v -0.049803 0.013 -0.120734
v -0.043213 0.0035 -0.163154
v -0.01629 0.013 -0.129711
v -0.033341 0.2695 -0.12632
v -0.043213 0.0035 -0.163154
v 0.00101 0.2695 -0.130848
v -0.01629 0.013 -0.129711
v 0.00101 0.0035 -0.168981
v 0.00101 0.37495 -0.130848
v 0.00101 0.3607 -0.130848
v 0.03536 0.3607 -0.12632
v 0.03536 0.37495 -0.12632
v 0.067414 0.3607 -0.113047
v 0.067414 0.37495 -0.113047
v 0.094939 0.3607 -0.091932
v 0.094939 0.37495 -0.091932
v 0.11606 0.3607 -0.064414
v 0.11606 0.37495 -0.064414
v 0.129337 0.3607 -0.032369
v 0.129337 0.37495 -0.032369
v 0.129337 0.37495 -0.032369
v 0.129337 0.3607 -0.032369
v 0.133866 0.3607 0.002019
v 0.133866 0.37495 0.002019
v 0.129337 0.3607 0.036408
v 0.129337 0.37495 0.036408
v 0.11606 0.3607 0.068453
v 0.11606 0.37495 0.068453
v 0.094939 0.3607 0.095971
v 0.094939 0.37495 0.095971
v 0.067414 0.3607 0.117086
v 0.067414 0.37495 0.117086
v 0.03536 0.3607 0.130359
v 0.03536 0.37495 0.130359
v 0.00101 0.3607 0.134886
v 0.00101 0.37495 0.134886
v -0.033341 0.37495 -0.12632
v -0.033341 0.3607 -0.12632
v -0.065395 0.37495 -0.113047
v -0.065395 0.3607 -0.113047
v -0.09292 0.37495 -0.091932
v -0.09292 0.3607 -0.091932
v -0.114041 0.37495 -0.064414
v -0.114041 0.3607 -0.064414
v -0.127318 0.37495 -0.032369
v -0.127318 0.3607 -0.032369
v -0.131847 0.37495 0.002019
v -0.131847 0.3607 0.002019
v -0.127318 0.37495 0.036408
v -0.127318 0.3607 0.036408
v -0.114041 0.37495 0.068453
v -0.114041 0.3607 0.068453
v -0.09292 0.37495 0.095971
v -0.09292 0.3607 0.095971
v -0.065395 0.37495 0.117086
v -0.065395 0.3607 0.117086
v -0.033341 0.37495 0.130359
v -0.033341 0.3607 0.130359
v -0.06048 0.37495 -0.023453
v -0.131847 0.37495 0.002019
v -0.127318 0.37495 -0.032369
v -0.114041 0.37495 -0.064414
v -0.09292 0.37495 -0.091932
v -0.024446 0.37495 -0.059477
v -0.065395 0.37495 -0.113047
v -0.033341 0.37495 -0.12632
v 0.00101 0.37495 -0.130848
v 0.03536 0.37495 -0.12632
v 0.026466 0.37495 -0.059477
v 0.067414 0.37495 -0.113047
v 0.094939 0.37495 -0.091932
v 0.11606 0.37495 -0.064414
v 0.0625 0.37495 -0.023453
v 0.129337 0.37495 -0.032369
v 0.133866 0.37495 0.002019
v 0.129337 0.37495 0.036408
v 0.0625 0.37495 0.027492
v 0.11606 0.37495 0.068453
v 0.094939 0.37495 0.095971
v 0.067414 0.37495 0.117086
v 0.026466 0.37495 0.063516
v 0.03536 0.37495 0.130359
v 0.00101 0.37495 0.134886
v -0.033341 0.37495 0.130359
v -0.024446 0.37495 0.063516
v -0.065395 0.37495 0.117086
v -0.09292 0.37495 0.095971
v -0.06048 0.37495 0.027492
v -0.114041 0.37495 0.068453
v -0.127318 0.37495 0.036408
v -0.06048 0.37495 0.027492
v -0.131847 0.37495 0.002019
v -0.073268 0.46425 0.021924
v -0.073268 0.46425 -0.017885
v -0.131847 0.37495 0.002019
v -0.06048 0.37495 -0.023453
v -0.065583 0.46425 -0.036433
v -0.06048 0.37495 -0.023453
v -0.09292 0.37495 -0.091932
v -0.037426 0.46425 -0.064582
v -0.09292 0.37495 -0.091932
v -0.024446 0.37495 -0.059477
v -0.018873 0.46425 -0.072265
v -0.024446 0.37495 -0.059477
v 0.00101 0.37495 -0.130848
v 0.020892 0.46425 -0.072265
v 0.00101 0.37495 -0.130848
v 0.026466 0.37495 -0.059477
v 0.039445 0.46425 -0.064582
v 0.026466 0.37495 -0.059477
v 0.094939 0.37495 -0.091932
v 0.067602 0.46425 -0.036433
v 0.094939 0.37495 -0.091932
v 0.0625 0.37495 -0.023453
v 0.075287 0.46425 -0.017885
v 0.0625 0.37495 -0.023453
v 0.133866 0.37495 0.002019
v 0.075287 0.46425 0.021924
v 0.133866 0.37495 0.002019
v 0.0625 0.37495 0.027492
v 0.067602 0.46425 0.040472
v 0.0625 0.37495 0.027492
v 0.094939 0.37495 0.095971
v 0.039445 0.46425 0.068621
v 0.094939 0.37495 0.095971
v 0.026466 0.37495 0.063516
v 0.020892 0.46425 0.076304
v 0.026466 0.37495 0.063516
v 0.00101 0.37495 0.134886
v -0.018873 0.46425 0.076304
v 0.00101 0.37495 0.134886
v -0.024446 0.37495 0.063516
v -0.037426 0.46425 0.068621
v -0.024446 0.37495 0.063516
v -0.09292 0.37495 0.095971
v -0.065583 0.46425 0.040472
v -0.09292 0.37495 0.095971
v -0.06048 0.37495 0.027492
v -0.131847 0.37495 0.002019
v -0.073268 0.46425 -0.017885
v -0.073268 0.46425 0.021924
v -0.09292 0.37495 -0.091932
v -0.037426 0.46425 -0.064582
v -0.065583 0.46425 -0.036433
v 0.00101 0.37495 -0.130848
v 0.020892 0.46425 -0.072265
v -0.018873 0.46425 -0.072265
v 0.067602 0.46425 -0.036433
v 0.039445 0.46425 -0.064582
v 0.094939 0.37495 -0.091932
v 0.075287 0.46425 0.021924
v 0.075287 0.46425 -0.017885
v 0.133866 0.37495 0.002019
v 0.039445 0.46425 0.068621
v 0.067602 0.46425 0.040472
v 0.094939 0.37495 0.095971
v -0.018873 0.46425 0.076304
v 0.020892 0.46425 0.076304
v 0.00101 0.37495 0.134886
v -0.09292 0.37495 0.095971
v -0.065583 0.46425 0.040472
v -0.037426 0.46425 0.068621
v -0.06048 0.46425 0.027492
v -0.073268 0.46425 0.021924
v -0.066629 0.46425 0.002019
v -0.073268 0.46425 -0.017885
v -0.06048 0.46425 -0.023453
v -0.065583 0.46425 -0.036433
v -0.04681 0.46425 -0.045814
v -0.037426 0.46425 -0.064582
v -0.024446 0.46425 -0.059477
v -0.018873 0.46425 -0.072265
v 0.00101 0.46425 -0.065627
v 0.020892 0.46425 -0.072265
v 0.026466 0.46425 -0.059477
v 0.039445 0.46425 -0.064582
v 0.04883 0.46425 -0.045814
v 0.067602 0.46425 -0.036433
v 0.0625 0.46425 -0.023453
v 0.075287 0.46425 -0.017885
v 0.068649 0.46425 0.002019
v 0.075287 0.46425 0.021924
v 0.0625 0.46425 0.027492
v 0.067602 0.46425 0.040472
v 0.04883 0.46425 0.049853
v 0.039445 0.46425 0.068621
v 0.026466 0.46425 0.063516
v 0.020892 0.46425 0.076304
v 0.00101 0.46425 0.069666
v -0.018873 0.46425 0.076304
v -0.024446 0.46425 0.063516
v -0.037426 0.46425 0.068621
v -0.04681 0.46425 0.049853
v -0.065583 0.46425 0.040472
v 0.0625 0.46425 0.027492
v -0.024446 0.46425 0.063516
v -0.06048 0.46425 0.027492
v -0.06048 0.46425 0.027492
v -0.06048 0.46425 -0.023453
v -0.06048 0.46425 -0.023453
v -0.024446 0.46425 -0.059477
v -0.024446 0.46425 -0.059477
v 0.026466 0.46425 -0.059477
v 0.026466 0.46425 -0.059477
v 0.0625 0.46425 -0.023453
v 0.0625 0.46425 -0.023453
v 0.0625 0.46425 0.027492
v 0.0625 0.46425 0.027492
v 0.026466 0.46425 0.063516
v 0.026466 0.46425 0.063516
v -0.024446 0.46425 0.063516
v -0.06048 0.5165 0.027492
v -0.06048 0.46425 0.027492
v -0.066629 0.46425 0.002019
v -0.066629 0.5165 0.002019
v -0.06048 0.5165 -0.023453
v -0.06048 0.46425 -0.023453
v -0.04681 0.46425 -0.045814
v -0.04681 0.5165 -0.045814
v -0.024446 0.5165 -0.059477
v -0.024446 0.46425 -0.059477
v 0.00101 0.46425 -0.065627
v 0.00101 0.5165 -0.065627
v 0.026466 0.5165 -0.059477
v 0.026466 0.46425 -0.059477
v 0.04883 0.46425 -0.045814
v 0.04883 0.5165 -0.045814
v 0.0625 0.5165 -0.023453
v 0.0625 0.46425 -0.023453
v 0.068649 0.46425 0.002019
v 0.068649 0.5165 0.002019
v 0.0625 0.5165 0.027492
v 0.0625 0.46425 0.027492
v 0.04883 0.46425 0.049853
v 0.04883 0.5165 0.049853
v 0.026466 0.5165 0.063516
v 0.026466 0.46425 0.063516
v 0.00101 0.46425 0.069666
v 0.00101 0.5165 0.069666
v -0.024446 0.5165 0.063516
v -0.024446 0.46425 0.063516
v -0.04681 0.46425 0.049853
v -0.04681 0.5165 0.049853
v 0.0625 0.46425 0.027492
v 0.0625 0.5165 0.027492
v 0.00101 0.5165 0.002019
v -0.06048 0.5165 0.027492
v -0.066629 0.5165 0.002019
v -0.06048 0.5165 -0.023453
v -0.04681 0.5165 -0.045814
v -0.024446 0.5165 -0.059477
v 0.00101 0.5165 -0.065627
v 0.026466 0.5165 -0.059477
v 0.04883 0.5165 -0.045814
v 0.0625 0.5165 -0.023453
v 0.068649 0.5165 0.002019
v 0.0625 0.5165 0.027492
v 0.04883 0.5165 0.049853
v 0.026466 0.5165 0.063516
v 0.00101 0.5165 0.069666
v -0.024446 0.5165 0.063516
v -0.04681 0.5165 0.049853
v -0.093731 0.33885 0.002019
v -0.087665 0.3151 0.025782
v -0.087665 0.3151 -0.021743
v -0.093731 0.29135 0.002019
v -0.081034 0.33885 -0.045355
v -0.063896 0.3151 -0.062901
v -0.081034 0.29135 -0.045355
v -0.046344 0.33885 -0.080035
v -0.022726 0.3151 -0.086663
v -0.046344 0.29135 -0.080035
v -0.081034 0.33885 0.049394
v -0.063896 0.3151 0.06694
v -0.081034 0.29135 0.049394
v -0.046344 0.33885 0.084074
v -0.022726 0.3151 0.090702
v -0.046344 0.29135 0.084074
v 0.024746 0.3151 0.090702
v 0.00101 0.33885 0.096768
v 0.00101 0.29135 0.096768
v 0.065915 0.3151 0.06694
v 0.048363 0.33885 0.084074
v 0.048363 0.29135 0.084074
v 0.089684 0.3151 0.025782
v 0.083053 0.33885 0.049394
v 0.083053 0.29135 0.049394
v 0.024746 0.3151 -0.086663
v 0.065915 0.3151 -0.062901
v 0.048363 0.33885 -0.080035
v 0.048363 0.29135 -0.080035
v 0.089684 0.3151 -0.021743
v 0.083053 0.33885 -0.045355
v 0.083053 0.29135 -0.045355
v 0.00101 0.33885 -0.092729
v 0.00101 0.29135 -0.092729
v 0.089684 0.3151 -0.021743
v 0.095751 0.33885 0.002019
v 0.095751 0.29135 0.002019
v -0.108069 0.2695 -0.027211
v -0.108069 0.2695 0.03125
v -0.078831 0.2695 0.081878
v -0.028188 0.2695 0.111108
v -0.07883 0.2695 -0.077839
v -0.028188 0.2695 -0.107069
v 0.030208 0.2695 0.111108
v 0.08085 0.2695 0.081878
v 0.110088 0.2695 0.03125
v 0.083053 0.29135 -0.045355
v 0.110088 0.2695 -0.027211
v 0.08085 0.2695 -0.077839
v 0.030208 0.2695 -0.107069
v 0.110088 0.3607 0.03125
v 0.08085 0.3607 0.081878
v 0.030208 0.3607 0.111108
v 0.083053 0.33885 -0.045355
v 0.110088 0.3607 -0.027211
v 0.08085 0.3607 -0.077839
v 0.030208 0.3607 -0.107069
v -0.028188 0.3607 -0.107069
v -0.07883 0.3607 -0.077839
v -0.108069 0.3607 -0.027211
v -0.108069 0.3607 0.03125
v -0.078831 0.3607 0.081878
v -0.028188 0.3607 0.111108
v 0.110088 0.2695 -0.027211
v 0.133866 0.2695 0.002019
v 0.11606 0.2695 -0.064414
v 0.067414 0.2695 -0.113047
v 0.00101 0.2695 -0.130848
v -0.065395 0.2695 -0.113047
v -0.114041 0.2695 -0.064414
v -0.131847 0.2695 0.002019
v -0.114041 0.2695 0.068453
v -0.065395 0.2695 0.117086
v 0.00101 0.2695 0.134886
v 0.067414 0.2695 0.117086
v 0.11606 0.2695 0.068453
v 0.129337 0.2695 0.036408
v 0.129337 0.2695 -0.032369
v 0.129337 0.2695 -0.032369
v 0.094939 0.2695 -0.091932
v 0.03536 0.2695 -0.12632
v -0.033341 0.2695 -0.12632
v -0.09292 0.2695 -0.091932
v -0.127318 0.2695 -0.032369
v -0.127318 0.2695 0.036408
v -0.09292 0.2695 0.095971
v -0.033341 0.2695 0.130359
v 0.03536 0.2695 0.130359
v 0.094939 0.2695 0.095971
v 0.110088 0.3607 -0.027211
v 0.133866 0.3607 0.002019
v 0.11606 0.3607 -0.064414
v 0.067414 0.3607 -0.113047
v 0.00101 0.3607 -0.130848
v -0.065395 0.3607 -0.113047
v -0.114041 0.3607 -0.064414
v -0.131847 0.3607 0.002019
v -0.114041 0.3607 0.068453
v -0.065395 0.3607 0.117086
v 0.00101 0.3607 0.134886
v 0.067414 0.3607 0.117086
v 0.11606 0.3607 0.068453
v 0.129337 0.3607 0.036408
v 0.129337 0.3607 -0.032369
v 0.129337 0.3607 -0.032369
v 0.094939 0.3607 -0.091932
v 0.03536 0.3607 -0.12632
v -0.033341 0.3607 -0.12632
v -0.09292 0.3607 -0.091932
v -0.127318 0.3607 -0.032369
v -0.127318 0.3607 0.036408
v -0.09292 0.3607 0.095971
v -0.033341 0.3607 0.130359
v 0.03536 0.3607 0.130359
v 0.094939 0.3607 0.095971
vt 0.162086 0.007790029
vt 0.181243 0.024883986
vt 0.200519 0.007790029
vt 0.162086 0.007790029
vt 0.123124 0.007790029
vt 0.142779 0.024883986
vt 0.123124 0.007790029
vt 0.08498 0.007790029
vt 0.104312 0.024883986
vt 0.08498 0.007790029
vt 0.04614 0.007790029
vt 0.065842 0.024883986
vt 0.04614 0.007790029
vt 0.008059 0.007790029
vt 0.027369 0.024883986
vt 0.930757 0.007790029
vt 0.892578 0.007790029
vt 0.911895 0.024883986
vt 0.892578 0.007790029
vt 0.854093 0.007790029
vt 0.873474 0.024883986
vt 0.854093 0.007790029
vt 0.815431 0.007790029
vt 0.835 0.024883986
vt 0.815431 0.007790029
vt 0.777279 0.007790029
vt 0.796527 0.024883986
vt 0.777279 0.007790029
vt 0.738783 0.007790029
vt 0.758057 0.024883986
vt 0.738783 0.007790029
vt 0.699938 0.007790029
vt 0.71959 0.024883986
vt 0.699938 0.007790029
vt 0.661723 0.007790029
vt 0.681126 0.024883986
vt 0.181243 0.024883986
vt 0.162086 0.28228104
vt 0.200519 0.28228104
vt 0.142779 0.024883986
vt 0.123124 0.28228104
vt 0.162086 0.28228104
vt 0.104312 0.024883986
vt 0.08498 0.28228104
vt 0.123124 0.28228104
vt 0.065842 0.024883986
vt 0.04614 0.28228104
vt 0.08498 0.28228104
vt 0.027369 0.024883986
vt 0.008059 0.28228104
vt 0.04614 0.28228104
vt 0.911895 0.024883986
vt 0.892578 0.28228104
vt 0.930757 0.28228104
vt 0.873474 0.024883986
vt 0.854093 0.28228104
vt 0.892578 0.28228104
vt 0.835 0.024883986
vt 0.815431 0.28228104
vt 0.854093 0.28228104
vt 0.796527 0.024883986
vt 0.777279 0.28228104
vt 0.815431 0.28228104
vt 0.758057 0.024883986
vt 0.738783 0.28228104
vt 0.777279 0.28228104
vt 0.71959 0.024883986
vt 0.699938 0.28228104
vt 0.738783 0.28228104
vt 0.681126 0.024883986
vt 0.661723 0.28228104
vt 0.699938 0.28228104
vt 0.892578 0.007790029
vt 0.873474 0.024883986
vt 0.892578 0.28228104
vt 0.892578 0.28228104
vt 0.911895 0.024883986
vt 0.892578 0.007790029
vt 0.854093 0.007790029
vt 0.835 0.024883986
vt 0.854093 0.28228104
vt 0.854093 0.28228104
vt 0.873474 0.024883986
vt 0.854093 0.007790029
vt 0.815431 0.007790029
vt 0.796527 0.024883986
vt 0.815431 0.28228104
vt 0.815431 0.28228104
vt 0.835 0.024883986
vt 0.815431 0.007790029
vt 0.777279 0.007790029
vt 0.758057 0.024883986
vt 0.777279 0.28228104
vt 0.777279 0.28228104
vt 0.796527 0.024883986
vt 0.777279 0.007790029
vt 0.738783 0.28228104
vt 0.758057 0.024883986
vt 0.738783 0.007790029
vt 0.738783 0.007790029
vt 0.71959 0.024883986
vt 0.738783 0.28228104
vt 0.699938 0.28228104
vt 0.71959 0.024883986
vt 0.699938 0.007790029
vt 0.699938 0.007790029
vt 0.681126 0.024883986
vt 0.699938 0.28228104
vt 0.661723 0.28228104
vt 0.681126 0.024883986
vt 0.661723 0.007790029
vt 0.930757 0.007790029
vt 0.911895 0.024883986
vt 0.930757 0.28228104
vt 0.008059 0.28228104
vt 0.027369 0.024883986
vt 0.008059 0.007790029
vt 0.04614 0.007790029
vt 0.027369 0.024883986
vt 0.04614 0.28228104
vt 0.04614 0.28228104
vt 0.065842 0.024883986
vt 0.04614 0.007790029
vt 0.08498 0.007790029
vt 0.065842 0.024883986
vt 0.08498 0.28228104
vt 0.08498 0.28228104
vt 0.104312 0.024883986
vt 0.08498 0.007790029
vt 0.123124 0.007790029
vt 0.104312 0.024883986
vt 0.123124 0.28228104
vt 0.123124 0.28228104
vt 0.142779 0.024883986
vt 0.123124 0.007790029
vt 0.162086 0.007790029
vt 0.142779 0.024883986
vt 0.162086 0.28228104
vt 0.162086 0.007790029
vt 0.162086 0.28228104
vt 0.181243 0.024883986
vt 0.200519 0.007790029
vt 0.181243 0.024883986
vt 0.200519 0.28228104
vt 0.200519 0.007790029
vt 0.219599 0.024883986
vt 0.238901 0.007790029
vt 0.258063 0.024883986
vt 0.277105 0.007790029
vt 0.238901 0.007790029
vt 0.296531 0.024883986
vt 0.315674 0.007790029
vt 0.277105 0.007790029
vt 0.335001 0.024883986
vt 0.354118 0.007790029
vt 0.315674 0.007790029
vt 0.373473 0.024883986
vt 0.392626 0.007790029
vt 0.354118 0.007790029
vt 0.411947 0.024883986
vt 0.431119 0.007790029
vt 0.392626 0.007790029
vt 0.450422 0.024883986
vt 0.469712 0.007790029
vt 0.431119 0.007790029
vt 0.488895 0.024883986
vt 0.508132 0.007790029
vt 0.469712 0.007790029
vt 0.527368 0.024883986
vt 0.546655 0.007790029
vt 0.508132 0.007790029
vt 0.565838 0.024883986
vt 0.585072 0.007790029
vt 0.546655 0.007790029
vt 0.604306 0.024883986
vt 0.623448 0.007790029
vt 0.585072 0.007790029
vt 0.64277 0.024883986
vt 0.661723 0.007790029
vt 0.623448 0.007790029
vt 0.200519 0.28228104
vt 0.238901 0.28228104
vt 0.219599 0.024883986
vt 0.238901 0.28228104
vt 0.277105 0.28228104
vt 0.258063 0.024883986
vt 0.277105 0.28228104
vt 0.315674 0.28228104
vt 0.296531 0.024883986
vt 0.315674 0.28228104
vt 0.354118 0.28228104
vt 0.335001 0.024883986
vt 0.354118 0.28228104
vt 0.392626 0.28228104
vt 0.373473 0.024883986
vt 0.392626 0.28228104
vt 0.431119 0.28228104
vt 0.411947 0.024883986
vt 0.431119 0.28228104
vt 0.469712 0.28228104
vt 0.450422 0.024883986
vt 0.469712 0.28228104
vt 0.508132 0.28228104
vt 0.488895 0.024883986
vt 0.508132 0.28228104
vt 0.546655 0.28228104
vt 0.527368 0.024883986
vt 0.546655 0.28228104
vt 0.585072 0.28228104
vt 0.565838 0.024883986
vt 0.585072 0.28228104
vt 0.623448 0.28228104
vt 0.604306 0.024883986
vt 0.623448 0.28228104
vt 0.661723 0.28228104
vt 0.64277 0.024883986
vt 0.431119 0.28228104
vt 0.450422 0.024883986
vt 0.431119 0.007790029
vt 0.431119 0.007790029
vt 0.411947 0.024883986
vt 0.431119 0.28228104
vt 0.469712 0.28228104
vt 0.488895 0.024883986
vt 0.469712 0.007790029
vt 0.469712 0.007790029
vt 0.450422 0.024883986
vt 0.469712 0.28228104
vt 0.508132 0.28228104
vt 0.527368 0.024883986
vt 0.508132 0.007790029
vt 0.508132 0.007790029
vt 0.488895 0.024883986
vt 0.508132 0.28228104
vt 0.546655 0.28228104
vt 0.565838 0.024883986
vt 0.546655 0.007790029
vt 0.546655 0.007790029
vt 0.527368 0.024883986
vt 0.546655 0.28228104
vt 0.585072 0.007790029
vt 0.565838 0.024883986
vt 0.585072 0.28228104
vt 0.585072 0.28228104
vt 0.604306 0.024883986
vt 0.585072 0.007790029
vt 0.623448 0.007790029
vt 0.604306 0.024883986
vt 0.623448 0.28228104
vt 0.623448 0.28228104
vt 0.64277 0.024883986
vt 0.623448 0.007790029
vt 0.661723 0.007790029
vt 0.64277 0.024883986
vt 0.661723 0.28228104
vt 0.392626 0.28228104
vt 0.411947 0.024883986
vt 0.392626 0.007790029
vt 0.392626 0.007790029
vt 0.373473 0.024883986
vt 0.392626 0.28228104
vt 0.354118 0.28228104
vt 0.373473 0.024883986
vt 0.354118 0.007790029
vt 0.354118 0.007790029
vt 0.335001 0.024883986
vt 0.354118 0.28228104
vt 0.315674 0.28228104
vt 0.335001 0.024883986
vt 0.315674 0.007790029
vt 0.315674 0.007790029
vt 0.296531 0.024883986
vt 0.315674 0.28228104
vt 0.277105 0.28228104
vt 0.296531 0.024883986
vt 0.277105 0.007790029
vt 0.277105 0.007790029
vt 0.258063 0.024883986
vt 0.277105 0.28228104
vt 0.238901 0.28228104
vt 0.258063 0.024883986
vt 0.238901 0.007790029
vt 0.219599 0.024883986
vt 0.238901 0.28228104
vt 0.238901 0.007790029
vt 0.200519 0.28228104
vt 0.219599 0.024883986
vt 0.200519 0.007790029
vt 0.200519 0.491961
vt 0.200519 0.466191
vt 0.162086 0.466191
vt 0.162086 0.491961
vt 0.123124 0.466191
vt 0.123124 0.491961
vt 0.08498 0.466191
vt 0.08498 0.491961
vt 0.04614 0.466191
vt 0.04614 0.491961
vt 0.008059 0.466191
vt 0.008059 0.491961
vt 0.930757 0.491961
vt 0.930757 0.466191
vt 0.892578 0.466191
vt 0.892578 0.491961
vt 0.854093 0.466191
vt 0.854093 0.491961
vt 0.815431 0.466191
vt 0.815431 0.491961
vt 0.777279 0.466191
vt 0.777279 0.491961
vt 0.738783 0.466191
vt 0.738783 0.491961
vt 0.699938 0.466191
vt 0.699938 0.491961
vt 0.661723 0.466191
vt 0.661723 0.491961
vt 0.238901 0.491961
vt 0.238901 0.466191
vt 0.277105 0.491961
vt 0.277105 0.466191
vt 0.315674 0.491961
vt 0.315674 0.466191
vt 0.354118 0.491961
vt 0.354118 0.466191
vt 0.392626 0.491961
vt 0.392626 0.466191
vt 0.431119 0.491961
vt 0.431119 0.466191
vt 0.469712 0.491961
vt 0.469712 0.466191
vt 0.508132 0.491961
vt 0.508132 0.466191
vt 0.546655 0.491961
vt 0.546655 0.466191
vt 0.585072 0.491961
vt 0.585072 0.466191
vt 0.623448 0.491961
vt 0.623448 0.466191
vt 0.127909 1.42295003
vt 0.079979 1.557243
vt 0.144684 1.54872096
vt 0.204979 1.52373695
vt 0.256756 1.48399305
vt 0.195691 1.35514295
vt 0.296486 1.43219805
vt 0.321461 1.371881
vt 0.329979 1.30724204
vt 0.321461 1.24260402
vt 0.195691 1.259341
vt 0.296486 1.18228698
vt 0.256756 1.13049197
vt 0.204979 1.09074795
vt 0.127909 1.191535
vt 0.144684 1.06576395
vt 0.079979 1.057242036
vt 0.015275 1.06576395
vt 0.03205 1.191535
vt -0.045021 1.09074795
vt -0.096797 1.13049197
vt -0.136527 1.18228698
vt -0.035732 1.259341
vt -0.161502 1.24260402
vt -0.170021 1.30724204
vt -0.161502 1.371881
vt -0.035732 1.35514295
vt -0.136527 1.43219805
vt -0.096797 1.48399305
vt 0.03205 1.42295003
vt -0.045021 1.52373695
vt 0.015275 1.54872096
vt 0.618136 0.572204
vt 0.557847 0.572204
vt 0.598225 0.70275998
vt 0.51754 0.70275998
vt 0.557847 0.572204
vt 0.497193 0.572204
vt 0.477197 0.70275998
vt 0.497193 0.572204
vt 0.436668 0.572204
vt 0.39652 0.70275998
vt 0.436668 0.572204
vt 0.376151 0.572204
vt 0.356186 0.70275998
vt 0.376151 0.572204
vt 0.315697 0.572204
vt 0.275635 0.70275998
vt 0.315697 0.572204
vt 0.255243 0.572204
vt 0.235301 0.70275998
vt 0.255243 0.572204
vt 0.194727 0.572204
vt 0.154624 0.70275998
vt 0.194727 0.572204
vt 0.134343 0.572204
vt 0.114226 0.70275998
vt 0.134343 0.572204
vt 0.073808 0.572204
vt 0.033525 0.70275998
vt 0.073808 0.572204
vt 0.013282 0.572204
vt 0.96114 0.70275998
vt 0.981239 0.572204
vt 0.920713 0.572204
vt 0.880463 0.70275998
vt 0.920713 0.572204
vt 0.860197 0.572204
vt 0.840129 0.70275998
vt 0.860197 0.572204
vt 0.799743 0.572204
vt 0.759579 0.70275998
vt 0.799743 0.572204
vt 0.739289 0.572204
vt 0.719245 0.70275998
vt 0.739289 0.572204
vt 0.678773 0.572204
vt 0.638567 0.70275998
vt 0.678773 0.572204
vt 0.618136 0.572204
vt 0.557847 0.572204
vt 0.51754 0.70275998
vt 0.598225 0.70275998
vt 0.436668 0.572204
vt 0.39652 0.70275998
vt 0.477197 0.70275998
vt 0.315697 0.572204
vt 0.275635 0.70275998
vt 0.356186 0.70275998
vt 0.154624 0.70275998
vt 0.235301 0.70275998
vt 0.194727 0.572204
vt 0.033525 0.70275998
vt 0.114226 0.70275998
vt 0.073808 0.572204
vt 0.880463 0.70275998
vt 0.96114 0.70275998
vt 0.920713 0.572204
vt 0.759579 0.70275998
vt 0.840129 0.70275998
vt 0.799743 0.572204
vt 0.678773 0.572204
vt 0.638567 0.70275998
vt 0.719245 0.70275998
vt 0.618136 0.719162
vt 0.598225 0.70275998
vt 0.557847 0.719162
vt 0.51754 0.70275998
vt 0.497193 0.719162
vt 0.477197 0.70275998
vt 0.436668 0.719162
vt 0.39652 0.70275998
vt 0.376151 0.719162
vt 0.356186 0.70275998
vt 0.315697 0.719162
vt 0.275635 0.70275998
vt 0.255243 0.719162
vt 0.235301 0.70275998
vt 0.194727 0.719162
vt 0.154624 0.70275998
vt 0.134201 0.719162
vt 0.114226 0.70275998
vt 0.073808 0.719162
vt 0.033525 0.70275998
vt 0.981239 0.719162
vt 0.96114 0.70275998
vt 0.920713 0.719162
vt 0.880463 0.70275998
vt 0.860197 0.719162
vt 0.840129 0.70275998
vt 0.799743 0.719162
vt 0.759579 0.70275998
vt 0.739289 0.719162
vt 0.719245 0.70275998
vt 0.678773 0.719162
vt 0.638567 0.70275998
vt 0.013282 0.719162
vt 0.739289 0.70275998
vt 0.618136 0.70275998
vt 0.618136 0.70275998
vt 0.497193 0.70275998
vt 0.497193 0.70275998
vt 0.376151 0.70275998
vt 0.376151 0.70275998
vt 0.255243 0.70275998
vt 0.255243 0.70275998
vt 0.134343 0.70275998
vt 0.134343 0.70275998
vt 0.013282 0.70275998
vt 0.981239 0.70275998
vt 0.860197 0.70275998
vt 0.860197 0.70275998
vt 0.739289 0.70275998
vt 0.618136 0.85213
vt 0.618136 0.719162
vt 0.557847 0.719162
vt 0.557847 0.85222
vt 0.497193 0.85230303
vt 0.497193 0.719162
vt 0.436668 0.719162
vt 0.436668 0.85230303
vt 0.376151 0.85230303
vt 0.376151 0.719162
vt 0.315697 0.719162
vt 0.315697 0.85230303
vt 0.255243 0.85230303
vt 0.255243 0.719162
vt 0.194727 0.719162
vt 0.194727 0.85230303
vt 0.134201 0.85230303
vt 0.134201 0.719162
vt 0.073808 0.719162
vt 0.073808 0.85230303
vt 0.981239 0.85230303
vt 0.981239 0.719162
vt 0.920713 0.719162
vt 0.920713 0.85230303
vt 0.860197 0.85230303
vt 0.860197 0.719162
vt 0.799743 0.719162
vt 0.799743 0.85230303
vt 0.739289 0.85230303
vt 0.739289 0.719162
vt 0.678773 0.719162
vt 0.678773 0.85230303
vt 0.013282 0.719162
vt 0.013282 0.85230303
vt 0.585205 1.0031659603
vt 0.618136 0.85213
vt 0.557847 0.85222
vt 0.501692 0.87308103
vt 0.456206 0.913524985
vt 0.434174 0.970265985
vt 0.430588 1.030985951
vt 0.455114 1.08664799
vt 0.495543 1.13215101
vt 0.552274 1.15420198
vt 0.613024 1.15778303
vt 0.668717 1.13325095
vt 0.714203 1.092807055
vt 0.736234 1.036064982
vt 0.739821 0.975346029
vt 0.715295 0.919685006
vt 0.674866 0.87418199
vt 0.431119 0.40700603
vt 0.469712 0.374272
vt 0.392626 0.374272
vt 0.431119 0.341538
vt 0.354118 0.40700603
vt 0.315674 0.374272
vt 0.354118 0.341538
vt 0.277105 0.40700603
vt 0.238901 0.374272
vt 0.277105 0.341538
vt 0.508132 0.40700603
vt 0.546655 0.374272
vt 0.508132 0.341538
vt 0.585072 0.40700603
vt 0.623448 0.374272
vt 0.585072 0.341538
vt 0.699938 0.374272
vt 0.661723 0.40700603
vt 0.661723 0.341538
vt 0.777279 0.374272
vt 0.738783 0.40700603
vt 0.738783 0.341538
vt 0.854093 0.374272
vt 0.815431 0.40700603
vt 0.815431 0.341538
vt 0.162086 0.374272
vt 0.08498 0.374272
vt 0.123124 0.40700603
vt 0.123124 0.341538
vt 0.008059 0.374272
vt 0.04614 0.40700603
vt 0.04614 0.341538
vt 0.200519 0.40700603
vt 0.200519 0.341538
vt 0.930757 0.374272
vt 0.892578 0.40700603
vt 0.892578 0.341538
vt 0.392626 0.312191
vt 0.469712 0.312191
vt 0.546655 0.312191
vt 0.623448 0.312191
vt 0.315674 0.312191
vt 0.238901 0.312191
vt 0.699938 0.312191
vt 0.777279 0.312191
vt 0.854093 0.312191
vt 0.969658 0.341538
vt 0.930757 0.312191
vt 0.08498 0.312191
vt 0.162086 0.312191
vt 0.854093 0.43628204
vt 0.777279 0.43628204
vt 0.699938 0.43628204
vt 0.969658 0.40700603
vt 0.930757 0.43628204
vt 0.08498 0.43628204
vt 0.162086 0.43628204
vt 0.238901 0.43628204
vt 0.315674 0.43628097
vt 0.392626 0.43628204
vt 0.469712 0.43628097
vt 0.546655 0.43628204
vt 0.623448 0.43628204
vt 0.008059 0.312191
vt 0.892578 0.28228104
vt 0.04614 0.28228104
vt 0.123124 0.28228104
vt 0.200519 0.28228104
vt 0.277105 0.28228104
vt 0.354118 0.28228104
vt 0.431119 0.28228104
vt 0.508132 0.28228104
vt 0.585072 0.28228104
vt 0.661723 0.28228104
vt 0.738783 0.28228104
vt 0.815431 0.28228104
vt 0.854093 0.28228104
vt 0.930757 0.28228104
vt 0.008059 0.28228104
vt 0.08498 0.28228104
vt 0.162086 0.28228104
vt 0.238901 0.28228104
vt 0.315674 0.28228104
vt 0.392626 0.28228104
vt 0.469712 0.28228104
vt 0.546655 0.28228104
vt 0.623448 0.28228104
vt 0.699938 0.28228104
vt 0.777279 0.28228104
vt 0.008059 0.43628204
vt 0.892578 0.466191
vt 0.04614 0.466191
vt 0.123124 0.466191
vt 0.200519 0.466191
vt 0.277105 0.466191
vt 0.354118 0.466191
vt 0.431119 0.466191
vt 0.508132 0.466191
vt 0.585072 0.466191
vt 0.661723 0.466191
vt 0.738783 0.466191
vt 0.815431 0.466191
vt 0.854093 0.466191
vt 0.930757 0.466191
vt 0.008059 0.466191
vt 0.08498 0.466191
vt 0.162086 0.466191
vt 0.238901 0.466191
vt 0.315674 0.466191
vt 0.392626 0.466191
vt 0.469712 0.466191
vt 0.546655 0.466191
vt 0.623448 0.466191
vt 0.699938 0.466191
vt 0.777279 0.466191
vn 0.032746 0.968047 -0.248604
vn 0.032746 0.968047 -0.248604
vn 0.032746 0.968047 -0.248604
vn 0.09592 0.968017 -0.231697
vn 0.09592 0.968017 -0.231697
vn 0.09592 0.968017 -0.231697
vn 0.152623 0.968047 -0.19895
vn 0.152623 0.968047 -0.19895
vn 0.152623 0.968047 -0.19895
vn 0.198889 0.968047 -0.152654
vn 0.198889 0.968047 -0.152654
vn 0.198889 0.968047 -0.152654
vn 0.231635 0.968047 -0.09595
vn 0.231635 0.968047 -0.09595
vn 0.231635 0.968047 -0.09595
vn 0.248573 0.968047 -0.032716
vn 0.248573 0.968047 -0.032716
vn 0.248573 0.968047 -0.032716
vn 0.248573 0.968047 0.032716
vn 0.248573 0.968047 0.032716
vn 0.248573 0.968047 0.032716
vn 0.231635 0.968047 0.09595
vn 0.231635 0.968047 0.09595
vn 0.231635 0.968047 0.09595
vn 0.198889 0.968047 0.152654
vn 0.198889 0.968047 0.152654
vn 0.198889 0.968047 0.152654
vn 0.152623 0.968047 0.19895
vn 0.152623 0.968047 0.19895
vn 0.152623 0.968047 0.19895
vn 0.09592 0.968017 0.231697
vn 0.09592 0.968017 0.231697
vn 0.09592 0.968017 0.231697
vn 0.032746 0.968047 0.248604
vn 0.032746 0.968047 0.248604
vn 0.032746 0.968047 0.248604
vn 0.13065 0.004395 -0.991394
vn 0.13065 0.004395 -0.991394
vn 0.13065 0.004395 -0.991394
vn 0.38258 0.004425 -0.923887
vn 0.38258 0.004425 -0.923887
vn 0.38258 0.004425 -0.923887
vn 0.608631 0.004425 -0.79342
vn 0.608631 0.004425 -0.79342
vn 0.608631 0.004425 -0.79342
vn 0.793237 0.004425 -0.608844
vn 0.793237 0.004425 -0.608844
vn 0.793237 0.004425 -0.608844
vn 0.923826 0.004425 -0.382763
vn 0.923826 0.004425 -0.382763
vn 0.923826 0.004425 -0.382763
vn 0.991424 0.004425 -0.130558
vn 0.991424 0.004425 -0.130558
vn 0.991424 0.004425 -0.130558
vn 0.991424 0.004425 0.130558
vn 0.991424 0.004425 0.130558
vn 0.991424 0.004425 0.130558
vn 0.923826 0.004425 0.382763
vn 0.923826 0.004425 0.382763
vn 0.923826 0.004425 0.382763
vn 0.793237 0.004425 0.608844
vn 0.793237 0.004425 0.608844
vn 0.793237 0.004425 0.608844
vn 0.608631 0.004425 0.79342
vn 0.608631 0.004425 0.79342
vn 0.608631 0.004425 0.79342
vn 0.38258 0.004425 0.923887
vn 0.38258 0.004425 0.923887
vn 0.38258 0.004425 0.923887
vn 0.13065 0.004395 0.991394
vn 0.13065 0.004395 0.991394
vn 0.13065 0.004395 0.991394
vn 0.415174 0.059511 0.907773
vn 0.415174 0.059511 0.907773
vn 0.415174 0.059511 0.907773
vn 0.415174 0.059511 -0.907773
vn 0.415174 0.059511 -0.907773
vn 0.415174 0.059511 -0.907773
vn 0.166143 0.059511 0.984283
vn 0.166143 0.059511 0.984283
vn 0.166143 0.059511 0.984283
vn 0.635945 0.059511 -0.769402
vn 0.635945 0.059511 -0.769402
vn 0.635945 0.059511 -0.769402
vn -0.09418 0.059511 0.993744
vn -0.09418 0.059511 0.993744
vn -0.09418 0.059511 0.993744
vn 0.81344 0.059542 -0.57857
vn 0.81344 0.059542 -0.57857
vn 0.81344 0.059542 -0.57857
vn -0.348125 0.059511 0.935545
vn -0.348125 0.059511 0.935545
vn -0.348125 0.059511 0.935545
vn 0.935484 0.059542 -0.348277
vn 0.935484 0.059542 -0.348277
vn 0.935484 0.059542 -0.348277
vn 0.993744 0.059542 -0.094241
vn 0.993744 0.059542 -0.094241
vn 0.993744 0.059542 -0.094241
vn -0.578356 0.059511 0.813593
vn -0.578356 0.059511 0.813593
vn -0.578356 0.059511 0.813593
vn 0.984283 0.059542 0.166234
vn 0.984283 0.059542 0.166234
vn 0.984283 0.059542 0.166234
vn -0.769219 0.059542 0.636158
vn -0.769219 0.059542 0.636158
vn -0.769219 0.059542 0.636158
vn 0.908109 0.059389 0.414411
vn 0.908109 0.059389 0.414411
vn 0.908109 0.059389 0.414411
vn 0.635945 0.059511 0.769402
vn 0.635945 0.059511 0.769402
vn 0.635945 0.059511 0.769402
vn 0.166143 0.059511 -0.984283
vn 0.166143 0.059511 -0.984283
vn 0.166143 0.059511 -0.984283
vn 0.81344 0.059542 0.57857
vn 0.81344 0.059542 0.57857
vn 0.81344 0.059542 0.57857
vn -0.09418 0.059511 -0.993744
vn -0.09418 0.059511 -0.993744
vn -0.09418 0.059511 -0.993744
vn 0.935484 0.059542 0.348277
vn 0.935484 0.059542 0.348277
vn 0.935484 0.059542 0.348277
vn -0.348125 0.059511 -0.935545
vn -0.348125 0.059511 -0.935545
vn -0.348125 0.059511 -0.935545
vn 0.993744 0.059542 0.094241
vn 0.993744 0.059542 0.094241
vn 0.993744 0.059542 0.094241
vn -0.578356 0.059511 -0.813593
vn -0.578356 0.059511 -0.813593
vn -0.578356 0.059511 -0.813593
vn 0.984283 0.059542 -0.166234
vn 0.984283 0.059542 -0.166234
vn 0.984283 0.059542 -0.166234
vn -0.769219 0.059542 -0.636158
vn -0.769219 0.059542 -0.636158
vn -0.769219 0.059542 -0.636158
vn 0.908109 0.059389 -0.414411
vn 0.908109 0.059389 -0.414411
vn 0.908109 0.059389 -0.414411
vn -0.032746 0.968047 -0.248604
vn -0.032746 0.968047 -0.248604
vn -0.032746 0.968047 -0.248604
vn -0.09592 0.968017 -0.231697
vn -0.09592 0.968017 -0.231697
vn -0.09592 0.968017 -0.231697
vn -0.152623 0.968047 -0.19895
vn -0.152623 0.968047 -0.19895
vn -0.152623 0.968047 -0.19895
vn -0.198889 0.968047 -0.152654
vn -0.198889 0.968047 -0.152654
vn -0.198889 0.968047 -0.152654
vn -0.231635 0.968047 -0.09595
vn -0.231635 0.968047 -0.09595
vn -0.231635 0.968047 -0.09595
vn -0.248573 0.968047 -0.032716
vn -0.248573 0.968047 -0.032716
vn -0.248573 0.968047 -0.032716
vn -0.248573 0.968047 0.032716
vn -0.248573 0.968047 0.032716
vn -0.248573 0.968047 0.032716
vn -0.231635 0.968047 0.09595
vn -0.231635 0.968047 0.09595
vn -0.231635 0.968047 0.09595
vn -0.198889 0.968047 0.152654
vn -0.198889 0.968047 0.152654
vn -0.198889 0.968047 0.152654
vn -0.152623 0.968047 0.19895
vn -0.152623 0.968047 0.19895
vn -0.152623 0.968047 0.19895
vn -0.09592 0.968017 0.231697
vn -0.09592 0.968017 0.231697
vn -0.09592 0.968017 0.231697
vn -0.032746 0.968047 0.248604
vn -0.032746 0.968047 0.248604
vn -0.032746 0.968047 0.248604
vn -0.13065 0.004395 -0.991394
vn -0.13065 0.004395 -0.991394
vn -0.13065 0.004395 -0.991394
vn -0.38258 0.004425 -0.923887
vn -0.38258 0.004425 -0.923887
vn -0.38258 0.004425 -0.923887
vn -0.608631 0.004425 -0.79342
vn -0.608631 0.004425 -0.79342
vn -0.608631 0.004425 -0.79342
vn -0.793237 0.004425 -0.608844
vn -0.793237 0.004425 -0.608844
vn -0.793237 0.004425 -0.608844
vn -0.923826 0.004425 -0.382763
vn -0.923826 0.004425 -0.382763
vn -0.923826 0.004425 -0.382763
vn -0.991424 0.004425 -0.130558
vn -0.991424 0.004425 -0.130558
vn -0.991424 0.004425 -0.130558
vn -0.991424 0.004425 0.130558
vn -0.991424 0.004425 0.130558
vn -0.991424 0.004425 0.130558
vn -0.923826 0.004425 0.382763
vn -0.923826 0.004425 0.382763
vn -0.923826 0.004425 0.382763
vn -0.793237 0.004425 0.608844
vn -0.793237 0.004425 0.608844
vn -0.793237 0.004425 0.608844
vn -0.608631 0.004425 0.79342
vn -0.608631 0.004425 0.79342
vn -0.608631 0.004425 0.79342
vn -0.38258 0.004425 0.923887
vn -0.38258 0.004425 0.923887
vn -0.38258 0.004425 0.923887
vn -0.13065 0.004395 0.991394
vn -0.13065 0.004395 0.991394
vn -0.13065 0.004395 0.991394
vn -0.415174 0.059511 0.907773
vn -0.415174 0.059511 0.907773
vn -0.415174 0.059511 0.907773
vn -0.415174 0.059511 -0.907773
vn -0.415174 0.059511 -0.907773
vn -0.415174 0.059511 -0.907773
vn -0.166143 0.059511 0.984283
vn -0.166143 0.059511 0.984283
vn -0.166143 0.059511 0.984283
vn -0.635945 0.059511 -0.769402
vn -0.635945 0.059511 -0.769402
vn -0.635945 0.059511 -0.769402
vn 0.09418 0.059511 0.993744
vn 0.09418 0.059511 0.993744
vn 0.09418 0.059511 0.993744
vn -0.81344 0.059542 -0.57857
vn -0.81344 0.059542 -0.57857
vn -0.81344 0.059542 -0.57857
vn 0.348125 0.059511 0.935545
vn 0.348125 0.059511 0.935545
vn 0.348125 0.059511 0.935545
vn -0.935484 0.059542 -0.348277
vn -0.935484 0.059542 -0.348277
vn -0.935484 0.059542 -0.348277
vn -0.993744 0.059542 -0.094241
vn -0.993744 0.059542 -0.094241
vn -0.993744 0.059542 -0.094241
vn 0.578356 0.059511 0.813593
vn 0.578356 0.059511 0.813593
vn 0.578356 0.059511 0.813593
vn -0.984283 0.059542 0.166234
vn -0.984283 0.059542 0.166234
vn -0.984283 0.059542 0.166234
vn 0.769219 0.059542 0.636158
vn 0.769219 0.059542 0.636158
vn 0.769219 0.059542 0.636158
vn -0.908109 0.059389 0.414411
vn -0.908109 0.059389 0.414411
vn -0.908109 0.059389 0.414411
vn -0.635945 0.059511 0.769402
vn -0.635945 0.059511 0.769402
vn -0.635945 0.059511 0.769402
vn -0.166143 0.059511 -0.984283
vn -0.166143 0.059511 -0.984283
vn -0.166143 0.059511 -0.984283
vn -0.81344 0.059542 0.57857
vn -0.81344 0.059542 0.57857
vn -0.81344 0.059542 0.57857
vn 0.09418 0.059511 -0.993744
vn 0.09418 0.059511 -0.993744
vn 0.09418 0.059511 -0.993744
vn -0.935484 0.059542 0.348277
vn -0.935484 0.059542 0.348277
vn -0.935484 0.059542 0.348277
vn 0.348125 0.059511 -0.935545
vn 0.348125 0.059511 -0.935545
vn 0.348125 0.059511 -0.935545
vn -0.993744 0.059542 0.094241
vn -0.993744 0.059542 0.094241
vn -0.993744 0.059542 0.094241
vn 0.578356 0.059511 -0.813593
vn 0.578356 0.059511 -0.813593
vn 0.578356 0.059511 -0.813593
vn -0.984283 0.059542 -0.166234
vn -0.984283 0.059542 -0.166234
vn -0.984283 0.059542 -0.166234
vn 0.769219 0.059542 -0.636158
vn 0.769219 0.059542 -0.636158
vn 0.769219 0.059542 -0.636158
vn -0.908109 0.059389 -0.414411
vn -0.908109 0.059389 -0.414411
vn -0.908109 0.059389 -0.414411
vn 0 0 -1
vn 0 0 -1
vn 0.258827 0 -0.965911
vn 0.258827 0 -0.965911
vn 0.499893 0 -0.866054
vn 0.499893 0 -0.866054
vn 0.706992 0 -0.707175
vn 0.706992 0 -0.707175
vn 0.865963 0 -0.500076
vn 0.865963 0 -0.500076
vn 0.96588 0 -0.258858
vn 0.96588 0 -0.258858
vn 0.96588 0 -0.258858
vn 0.96588 0 -0.258858
vn 0.999969 0 0
vn 0.999969 0 0
vn 0.96588 0 0.258858
vn 0.96588 0 0.258858
vn 0.865963 0 0.500076
vn 0.865963 0 0.500076
vn 0.706992 0 0.707175
vn 0.706992 0 0.707175
vn 0.499893 0 0.866054
vn 0.499893 0 0.866054
vn 0.258827 0 0.965911
vn 0.258827 0 0.965911
vn 0 0 1
vn 0 0 1
vn -0.258827 0 -0.965911
vn -0.258827 0 -0.965911
vn -0.499893 0 -0.866054
vn -0.499893 0 -0.866054
vn -0.706992 0 -0.707175
vn -0.706992 0 -0.707175
vn -0.865963 0 -0.500076
vn -0.865963 0 -0.500076
vn -0.96588 0 -0.258858
vn -0.96588 0 -0.258858
vn -1 0 0
vn -0.999969 0 0
vn -0.96588 0 0.258858
vn -0.96588 0 0.258858
vn -0.865963 0 0.500076
vn -0.865963 0 0.500076
vn -0.706992 0 0.707175
vn -0.706992 0 0.707175
vn -0.499893 0 0.866054
vn -0.499893 0 0.866054
vn -0.258827 0 0.965911
vn -0.258827 0 0.965911
vn 0 1 0
vn 0 1 0
vn 0 1 0
vn 0 1 0
vn 0 1 0
vn 0 1 0
vn 0 1 0
vn 0 1 0
vn 0 1 0
vn 0 1 0
vn 0 1 0
vn 0 1 0
vn 0 1 0
vn 0 1 0
vn 0 1 0
vn 0 1 0
vn 0 1 0
vn 0 1 0
vn 0 1 0
vn 0 1 0
vn 0 1 0
vn 0 1 0
vn 0 0.999969 0
vn 0 1 0
vn 0 1 0
vn 0 1 0
vn 0 0.999969 0
vn 0 1 0
vn 0 1 0
vn 0 1 0
vn 0 1 0
vn 0 1 0
vn -0.342418 0.009522 0.939482
vn -0.336131 0.010559 0.94174
vn -0.377392 0.003693 0.926023
vn -0.377392 0.003693 -0.926023
vn -0.336131 0.010559 -0.94174
vn -0.342418 0.009522 -0.939482
vn -0.92172 0.003693 0.387799
vn -0.906522 0.009522 0.42204
vn -0.903653 0.010559 0.428083
vn 0.387951 0.003693 -0.921659
vn 0.428266 0.01059 -0.903562
vn 0.422193 0.009552 -0.90643
vn -0.925993 0.003723 -0.377514
vn -0.939543 0.009613 -0.342265
vn -0.941801 0.010651 -0.335917
vn 0.925993 0.003723 -0.377514
vn 0.941801 0.010651 -0.335917
vn 0.939543 0.009613 -0.342265
vn -0.387951 0.003693 -0.921659
vn -0.422193 0.009552 -0.90643
vn -0.428266 0.01059 -0.903562
vn 0.92172 0.003693 0.387799
vn 0.903653 0.010559 0.428083
vn 0.906522 0.009522 0.42204
vn 0.377392 0.003693 -0.926023
vn 0.342418 0.009522 -0.939482
vn 0.336131 0.010559 -0.94174
vn 0.377392 0.003693 0.926023
vn 0.336131 0.010559 0.94174
vn 0.342418 0.009522 0.939482
vn 0.92172 0.003693 -0.387799
vn 0.906522 0.009522 -0.42204
vn 0.903653 0.010559 -0.428083
vn -0.387951 0.003693 0.921659
vn -0.428266 0.01059 0.903562
vn -0.422193 0.009552 0.90643
vn 0.925993 0.003723 0.377514
vn 0.939543 0.009613 0.342265
vn 0.941801 0.010651 0.335917
vn -0.925993 0.003723 0.377514
vn -0.941801 0.010651 0.335917
vn -0.939543 0.009613 0.342265
vn 0.387951 0.003693 0.921659
vn 0.422193 0.009552 0.90643
vn 0.428266 0.01059 0.903562
vn -0.92172 0.003693 -0.387799
vn -0.903653 0.010559 -0.428083
vn -0.906522 0.009522 -0.42204
vn -0.836146 0.548479 0
vn -0.836146 0.548479 0
vn -0.836146 0.548479 0
vn -0.591174 0.548479 -0.591327
vn -0.591174 0.548479 -0.591327
vn -0.591174 0.548479 -0.591327
vn 0 0.548509 -0.836116
vn 0 0.548509 -0.836116
vn 0 0.548509 -0.836116
vn 0.591174 0.548479 -0.591327
vn 0.591174 0.548479 -0.591327
vn 0.591174 0.548479 -0.591327
vn 0.836146 0.548479 0
vn 0.836146 0.548479 0
vn 0.836146 0.548479 0
vn 0.591174 0.548479 0.591327
vn 0.591144 0.548479 0.591327
vn 0.591144 0.548479 0.591327
vn 0 0.548509 0.836116
vn 0 0.548509 0.836116
vn 0 0.548509 0.836116
vn -0.591144 0.548479 0.591327
vn -0.591144 0.548479 0.591327
vn -0.591174 0.548479 0.591327
vn 0 1 0
vn 0 1 0
vn 0 0.999969 0
vn 0 1 0
vn 0 1 0
vn 0 0.999969 0
vn 0 1 0
vn 0 1 0
vn 0 1 0
vn 0 1 0
vn 0 0.999969 0
vn 0 1 0
vn 0 1 0
vn 0 1 0
vn 0 1 0
vn 0 0.999969 0
vn 0 1 0
vn 0 1 0
vn 0 1 0
vn 0 1 0
vn 0 1 0
vn 0 1 0
vn 0 1 0
vn 0 0.999969 0
vn 0 0.999969 0
vn 0 1 0
vn 0 0.999969 0
vn 0 1 0
vn 0 0.999969 0
vn 0 0.999969 0
vn 0 1 0
vn 0 1 0
vn 0 1 0
vn 0.365978 0 0.930601
vn -0.930662 0 -0.365856
vn -0.399213 0 0.916837
vn -0.399213 0 -0.916837
vn -0.930662 0 0.365856
vn 0.365978 0 -0.930601
vn -0.916684 0 -0.399518
vn 0.916684 0 -0.399518
vn -0.365978 0 -0.930601
vn 0.930662 0 0.365856
vn 0.399213 0 -0.916837
vn 0.399213 0 0.916837
vn 0.930662 0 -0.365856
vn -0.365978 0 0.930601
vn 0.916715 0 0.399518
vn -0.916715 0 0.399518
vn -0.923826 0 0.382763
vn -0.923826 0 0.382763
vn -1 0 0
vn -1 0 0
vn -0.923826 0 -0.382763
vn -0.923826 0 -0.382763
vn -0.706992 0 -0.707175
vn -0.706992 0 -0.707175
vn -0.382702 0 -0.923856
vn -0.382702 0 -0.923856
vn 0 0 -1
vn 0 0 -1
vn 0.382702 0 -0.923856
vn 0.382702 0 -0.923856
vn 0.706992 0 -0.707175
vn 0.706992 0 -0.707175
vn 0.923826 0 -0.382763
vn 0.923826 0 -0.382763
vn 1 0 0
vn 1 0 0
vn 0.923826 0 0.382763
vn 0.923826 0 0.382763
vn 0.706992 0 0.707175
vn 0.706992 0 0.707175
vn 0.382702 0 0.923856
vn 0.382702 0 0.923856
vn 0 0 1
vn 0 0 1
vn -0.382702 0 0.923856
vn -0.382702 0 0.923856
vn -0.706992 0 0.707175
vn -0.706992 0 0.707175
vn 0.923826 0 0.382763
vn 0.923826 0 0.382763
vn 0 1 0
vn 0 1 0
vn 0 1 0
vn 0 1 0
vn 0 1 0
vn 0 1 0
vn 0 0.999969 0
vn 0 1 0
vn 0 1 0
vn 0 1 0
vn 0 1 0
vn 0 1 0
vn 0 1 0
vn 0 1 0
vn 0 1 0
vn 0 1 0
vn 0 1 0
vn -0.911344 -0.411634 0
vn -0.96588 0 0.258858
vn -0.96588 0 -0.258858
vn -0.911344 0.411634 0
vn -0.789178 -0.411603 -0.455763
vn -0.706992 0 -0.707175
vn -0.789178 0.411603 -0.455763
vn -0.455611 -0.411603 -0.78927
vn -0.258766 0 -0.965911
vn -0.455611 0.411603 -0.78927
vn -0.789178 -0.411603 0.455763
vn -0.706992 0 0.707175
vn -0.789178 0.411603 0.455763
vn -0.455611 -0.411603 0.78927
vn -0.258766 0 0.965911
vn -0.455611 0.411603 0.78927
vn 0.258766 0 0.965911
vn 0 -0.411664 0.911313
vn 0 0.411664 0.911313
vn 0.706992 0 0.707175
vn 0.455611 -0.411603 0.78927
vn 0.455611 0.411603 0.78927
vn 0.96588 0 0.258858
vn 0.789178 -0.411603 0.455763
vn 0.789178 0.411603 0.455763
vn 0.258766 0 -0.965911
vn 0.706992 0 -0.707175
vn 0.455611 -0.411603 -0.78927
vn 0.455611 0.411603 -0.78927
vn 0.96588 0 -0.258858
vn 0.789178 -0.411603 -0.455763
vn 0.789178 0.411603 -0.455763
vn 0 -0.411664 -0.911313
vn 0 0.411664 -0.911313
vn 0.96588 0 -0.258858
vn 0.911344 -0.411634 0
vn 0.911344 0.411634 0
vn -0.355663 0.929716 -0.095309
vn -0.355663 0.929716 0.095309
vn -0.260353 0.929716 0.260414
vn -0.095279 0.929685 0.355724
vn -0.260353 0.929716 -0.260414
vn -0.095279 0.929685 -0.355724
vn 0.095279 0.929685 0.355724
vn 0.260353 0.929716 0.260414
vn 0.355663 0.929716 0.095309
vn 0.789178 0.411603 -0.455763
vn 0.355663 0.929716 -0.095309
vn 0.260353 0.929716 -0.260414
vn 0.095279 0.929685 -0.355724
vn 0.355663 -0.929716 0.095309
vn 0.260353 -0.929716 0.260414
vn 0.095279 -0.929685 0.355724
vn 0.789178 -0.411603 -0.455763
vn 0.355663 -0.929716 -0.095309
vn 0.260353 -0.929716 -0.260414
vn 0.095279 -0.929685 -0.355724
vn -0.095279 -0.929685 -0.355724
vn -0.260353 -0.929716 -0.260414
vn -0.355663 -0.929716 -0.095309
vn -0.355663 -0.929716 0.095309
vn -0.260353 -0.929716 0.260414
vn -0.095279 -0.929685 0.355724
vn 0.355663 0.929716 -0.095309
vn 0 1 0
vn 0 1 0
vn 0 1 0
vn 0 1 0
vn 0 1 0
vn 0 1 0
vn 0 1 0
vn 0 1 0
vn 0 1 0
vn 0 1 0
vn 0 1 0
vn 0 1 0
vn 0 1 0
vn 0 1 0
vn 0 1 0
vn 0 0.999969 0
vn 0 1 0
vn 0 1 0
vn 0 0.999969 0
vn 0 1 0
vn 0 1 0
vn 0 1 0
vn 0 1 0
vn 0 1 0
vn 0 1 0
vn 0.355663 -0.929716 -0.095309
vn 0 -1 0
vn 0 -1 0
vn 0 -1 0
vn 0 -1 0
vn 0 -1 0
vn 0 -1 0
vn 0 -1 0
vn 0 -1 0
vn 0 -1 0
vn 0 -1 0
vn 0 -1 0
vn 0 -1 0
vn 0 -1 0
vn 0 -1 0
vn 0 -1 0
vn 0 -0.999969 0
vn 0 -1 0
vn 0 -1 0
vn 0 -0.999969 0
vn 0 -1 0
vn 0 -1 0
vn 0 -1 0
vn 0 -1 0
vn 0 -1 0
vn 0 -1 0
f 3/3/3 2/2/2 1/1/1
f 6/6/6 5/5/5 4/4/4
f 9/9/9 8/8/8 7/7/7
f 12/12/12 11/11/11 10/10/10
f 15/15/15 14/14/14 13/13/13
f 18/18/18 17/17/17 16/16/16
f 21/21/21 20/20/20 19/19/19
f 24/24/24 23/23/23 22/22/22
f 27/27/27 26/26/26 25/25/25
f 30/30/30 29/29/29 28/28/28
f 33/33/33 32/32/32 31/31/31
f 36/36/36 35/35/35 34/34/34
f 39/39/39 38/38/38 37/37/37
f 42/42/42 41/41/41 40/40/40
f 45/45/45 44/44/44 43/43/43
f 48/48/48 47/47/47 46/46/46
f 51/51/51 50/50/50 49/49/49
f 54/54/54 53/53/53 52/52/52
f 57/57/57 56/56/56 55/55/55
f 60/60/60 59/59/59 58/58/58
f 63/63/63 62/62/62 61/61/61
f 66/66/66 65/65/65 64/64/64
f 69/69/69 68/68/68 67/67/67
f 72/72/72 71/71/71 70/70/70
f 75/75/75 74/74/74 73/73/73
f 78/78/78 77/77/77 76/76/76
f 81/81/81 80/80/80 79/79/79
f 84/84/84 83/83/83 82/82/82
f 87/87/87 86/86/86 85/85/85
f 90/90/90 89/89/89 88/88/88
f 93/93/93 92/92/92 91/91/91
f 96/96/96 95/95/95 94/94/94
f 99/99/99 98/98/98 97/97/97
f 102/102/102 101/101/101 100/100/100
f 105/105/105 104/104/104 103/103/103
f 108/108/108 107/107/107 106/106/106
f 111/111/111 110/110/110 109/109/109
f 114/114/114 113/113/113 112/112/112
f 117/117/117 116/116/116 115/115/115
f 120/120/120 119/119/119 118/118/118
f 123/123/123 122/122/122 121/121/121
f 126/126/126 125/125/125 124/124/124
f 129/129/129 128/128/128 127/127/127
f 132/132/132 131/131/131 130/130/130
f 135/135/135 134/134/134 133/133/133
f 138/138/138 137/137/137 136/136/136
f 141/141/141 140/140/140 139/139/139
f 144/144/144 143/143/143 142/142/142
f 147/147/147 146/146/146 145/145/145
f 150/150/150 149/149/149 148/148/148
f 153/153/153 152/152/152 151/151/151
f 156/156/156 155/155/155 154/154/154
f 159/159/159 158/158/158 157/157/157
f 162/162/162 161/161/161 160/160/160
f 165/165/165 164/164/164 163/163/163
f 168/168/168 167/167/167 166/166/166
f 171/171/171 170/170/170 169/169/169
f 174/174/174 173/173/173 172/172/172
f 177/177/177 176/176/176 175/175/175
f 180/180/180 179/179/179 178/178/178
f 183/183/183 182/182/182 181/181/181
f 186/186/186 185/185/185 184/184/184
f 189/189/189 188/188/188 187/187/187
f 192/192/192 191/191/191 190/190/190
f 195/195/195 194/194/194 193/193/193
f 198/198/198 197/197/197 196/196/196
f 201/201/201 200/200/200 199/199/199
f 204/204/204 203/203/203 202/202/202
f 207/207/207 206/206/206 205/205/205
f 210/210/210 209/209/209 208/208/208
f 213/213/213 212/212/212 211/211/211
f 216/216/216 215/215/215 214/214/214
f 219/219/219 218/218/218 217/217/217
f 222/222/222 221/221/221 220/220/220
f 225/225/225 224/224/224 223/223/223
f 228/228/228 227/227/227 226/226/226
f 231/231/231 230/230/230 229/229/229
f 234/234/234 233/233/233 232/232/232
f 237/237/237 236/236/236 235/235/235
f 240/240/240 239/239/239 238/238/238
f 243/243/243 242/242/242 241/241/241
f 246/246/246 245/245/245 244/244/244
f 249/249/249 248/248/248 247/247/247
f 252/252/252 251/251/251 250/250/250
f 255/255/255 254/254/254 253/253/253
f 258/258/258 257/257/257 256/256/256
f 261/261/261 260/260/260 259/259/259
f 264/264/264 263/263/263 262/262/262
f 267/267/267 266/266/266 265/265/265
f 270/270/270 269/269/269 268/268/268
f 273/273/273 272/272/272 271/271/271
f 276/276/276 275/275/275 274/274/274
f 279/279/279 278/278/278 277/277/277
f 282/282/282 281/281/281 280/280/280
f 285/285/285 284/284/284 283/283/283
f 288/288/288 287/287/287 286/286/286
f 291/291/291 290/290/290 289/289/289
f 289/289/289 292/292/292 291/291/291
f 317/317/317 289/289/289 290/290/290
f 293/293/293 291/291/291 292/292/292
f 290/290/290 318/318/318 317/317/317
f 292/292/292 294/294/294 293/293/293
f 319/319/319 317/317/317 318/318/318
f 295/295/295 293/293/293 294/294/294
f 318/318/318 320/320/320 319/319/319
f 294/294/294 296/296/296 295/295/295
f 321/321/321 319/319/319 320/320/320
f 297/297/297 295/295/295 296/296/296
f 320/320/320 322/322/322 321/321/321
f 296/296/296 298/298/298 297/297/297
f 323/323/323 321/321/321 322/322/322
f 299/299/299 297/297/297 298/298/298
f 298/298/298 300/300/300 299/299/299
f 322/322/322 324/324/324 323/323/323
f 325/325/325 323/323/323 324/324/324
f 324/324/324 326/326/326 325/325/325
f 327/327/327 325/325/325 326/326/326
f 326/326/326 328/328/328 327/327/327
f 329/329/329 327/327/327 328/328/328
f 328/328/328 330/330/330 329/329/329
f 331/331/331 329/329/329 330/330/330
f 330/330/330 332/332/332 331/331/331
f 333/333/333 331/331/331 332/332/332
f 332/332/332 334/334/334 333/333/333
f 335/335/335 333/333/333 334/334/334
f 334/334/334 336/336/336 335/335/335
f 337/337/337 335/335/335 336/336/336
f 336/336/336 338/338/338 337/337/337
f 316/316/316 337/337/337 338/338/338
f 338/338/338 315/315/315 316/316/316
f 314/314/314 316/316/316 315/315/315
f 315/315/315 313/313/313 314/314/314
f 312/312/312 314/314/314 313/313/313
f 313/313/313 311/311/311 312/312/312
f 310/310/310 312/312/312 311/311/311
f 311/311/311 309/309/309 310/310/310
f 308/308/308 310/310/310 309/309/309
f 309/309/309 307/307/307 308/308/308
f 306/306/306 308/308/308 307/307/307
f 307/307/307 305/305/305 306/306/306
f 304/304/304 306/306/306 305/305/305
f 305/305/305 303/303/303 304/304/304
f 301/301/301 304/304/304 303/303/303
f 303/303/303 302/302/302 301/301/301
f 341/341/341 340/340/340 339/339/339
f 342/342/342 341/341/341 339/339/339
f 343/343/343 342/342/342 339/339/339
f 340/340/340 370/370/370 368/368/368
f 369/369/369 368/368/368 370/370/370
f 369/369/369 367/367/367 368/368/368
f 345/345/345 343/343/343 344/344/344
f 345/345/345 344/344/344 346/346/346
f 347/347/347 346/346/346 344/344/344
f 367/367/367 366/366/366 365/365/365
f 366/366/366 364/364/364 365/365/365
f 365/365/365 364/364/364 363/363/363
f 349/349/349 348/348/348 347/347/347
f 350/350/350 348/348/348 349/349/349
f 349/349/349 351/351/351 350/350/350
f 361/361/361 363/363/363 362/362/362
f 361/361/361 362/362/362 360/360/360
f 361/361/361 360/360/360 359/359/359
f 353/353/353 352/352/352 351/351/351
f 354/354/354 352/352/352 353/353/353
f 353/353/353 355/355/355 354/354/354
f 357/357/357 359/359/359 358/358/358
f 357/357/357 356/356/356 355/355/355
f 358/358/358 356/356/356 357/357/357
f 373/373/373 372/372/372 371/371/371
f 478/478/478 373/373/373 371/371/371
f 376/376/376 375/375/375 374/374/374
f 376/376/376 374/374/374 479/479/479
f 379/379/379 378/378/378 377/377/377
f 480/480/480 377/377/377 378/378/378
f 382/382/382 381/381/381 380/380/380
f 382/382/382 380/380/380 481/481/481
f 385/385/385 384/384/384 383/383/383
f 482/482/482 383/383/383 384/384/384
f 388/388/388 387/387/387 386/386/386
f 388/388/388 386/386/386 483/483/483
f 391/391/391 390/390/390 389/389/389
f 484/484/484 389/389/389 390/390/390
f 394/394/394 393/393/393 392/392/392
f 394/394/394 392/392/392 485/485/485
f 397/397/397 396/396/396 395/395/395
f 486/486/486 395/395/395 396/396/396
f 400/400/400 399/399/399 398/398/398
f 400/400/400 398/398/398 487/487/487
f 403/403/403 402/402/402 401/401/401
f 488/488/488 401/401/401 402/402/402
f 406/406/406 405/405/405 404/404/404
f 406/406/406 404/404/404 489/489/489
f 409/409/409 408/408/408 407/407/407
f 490/490/490 407/407/407 408/408/408
f 412/412/412 411/411/411 410/410/410
f 412/412/412 410/410/410 491/491/491
f 415/415/415 414/414/414 413/413/413
f 476/476/476 413/413/413 414/414/414
f 418/418/418 417/417/417 416/416/416
f 418/418/418 416/416/416 477/477/477
f 421/421/421 420/420/420 419/419/419
f 424/424/424 423/423/423 422/422/422
f 427/427/427 426/426/426 425/425/425
f 430/430/430 429/429/429 428/428/428
f 433/433/433 432/432/432 431/431/431
f 436/436/436 435/435/435 434/434/434
f 439/439/439 438/438/438 437/437/437
f 442/442/442 441/441/441 440/440/440
f 445/445/445 444/444/444 443/443/443
f 444/444/444 445/445/445 446/446/446
f 445/445/445 447/447/447 446/446/446
f 473/473/473 443/443/443 474/474/474
f 472/472/472 473/473/473 474/474/474
f 473/473/473 472/472/472 471/471/471
f 449/449/449 448/448/448 447/447/447
f 448/448/448 449/449/449 450/450/450
f 449/449/449 451/451/451 450/450/450
f 469/469/469 471/471/471 470/470/470
f 468/468/468 469/469/469 470/470/470
f 469/469/469 468/468/468 467/467/467
f 453/453/453 452/452/452 451/451/451
f 452/452/452 453/453/453 454/454/454
f 453/453/453 455/455/455 454/454/454
f 465/465/465 467/467/467 466/466/466
f 464/464/464 465/465/465 466/466/466
f 465/465/465 464/464/464 463/463/463
f 457/457/457 456/456/456 455/455/455
f 456/456/456 457/457/457 458/458/458
f 457/457/457 459/459/459 458/458/458
f 461/461/461 460/460/460 459/459/459
f 460/460/460 461/461/461 462/462/462
f 461/461/461 475/475/475 462/462/462
f 494/494/494 493/493/493 492/492/492
f 492/492/492 495/495/495 494/494/494
f 523/523/523 492/492/492 493/493/493
f 497/497/497 494/494/494 495/495/495
f 493/493/493 522/522/522 523/523/523
f 495/495/495 496/496/496 497/497/497
f 520/520/520 523/523/523 522/522/522
f 498/498/498 497/497/497 496/496/496
f 522/522/522 521/521/521 520/520/520
f 496/496/496 499/499/499 498/498/498
f 519/519/519 520/520/520 521/521/521
f 501/501/501 498/498/498 499/499/499
f 521/521/521 518/518/518 519/519/519
f 499/499/499 500/500/500 501/501/501
f 516/516/516 519/519/519 518/518/518
f 502/502/502 501/501/501 500/500/500
f 518/518/518 517/517/517 516/516/516
f 500/500/500 503/503/503 502/502/502
f 515/515/515 516/516/516 517/517/517
f 505/505/505 502/502/502 503/503/503
f 517/517/517 514/514/514 515/515/515
f 503/503/503 504/504/504 505/505/505
f 512/512/512 515/515/515 514/514/514
f 514/514/514 513/513/513 512/512/512
f 506/506/506 505/505/505 504/504/504
f 504/504/504 507/507/507 506/506/506
f 509/509/509 506/506/506 507/507/507
f 507/507/507 508/508/508 509/509/509
f 510/510/510 509/509/509 508/508/508
f 508/508/508 511/511/511 510/510/510
f 524/524/524 510/510/510 511/511/511
f 511/511/511 525/525/525 524/524/524
f 528/528/528 527/527/527 526/526/526
f 529/529/529 528/528/528 526/526/526
f 527/527/527 542/542/542 526/526/526
f 530/530/530 529/529/529 526/526/526
f 542/542/542 541/541/541 526/526/526
f 531/531/531 530/530/530 526/526/526
f 541/541/541 540/540/540 526/526/526
f 532/532/532 531/531/531 526/526/526
f 540/540/540 539/539/539 526/526/526
f 533/533/533 532/532/532 526/526/526
f 539/539/539 538/538/538 526/526/526
f 534/534/534 533/533/533 526/526/526
f 538/538/538 537/537/537 526/526/526
f 535/535/535 534/534/534 526/526/526
f 537/537/537 536/536/536 526/526/526
f 536/536/536 535/535/535 526/526/526
f 545/545/545 544/544/544 543/543/543
f 545/545/545 543/543/543 547/547/547
f 544/544/544 553/553/553 543/543/543
f 548/548/548 545/545/545 547/547/547
f 553/553/553 603/603/603 543/543/543
f 543/543/543 602/602/602 547/547/547
f 603/603/603 602/602/602 543/543/543
f 544/544/544 545/545/545 546/546/546
f 639/639/639 602/602/602 603/603/603
f 603/603/603 653/653/653 639/639/639
f 602/602/602 639/639/639 652/652/652
f 603/603/603 640/640/640 653/653/653
f 602/602/602 652/652/652 638/638/638
f 640/640/640 603/603/603 604/604/604
f 604/604/604 603/603/603 553/553/553
f 604/604/604 654/654/654 640/640/640
f 604/604/604 641/641/641 654/654/654
f 601/601/601 602/602/602 638/638/638
f 602/602/602 601/601/601 547/547/547
f 601/601/601 638/638/638 651/651/651
f 601/601/601 651/651/651 637/637/637
f 547/547/547 601/601/601 550/550/550
f 548/548/548 547/547/547 550/550/550
f 600/600/600 601/601/601 637/637/637
f 601/601/601 600/600/600 550/550/550
f 600/600/600 637/637/637 650/650/650
f 600/600/600 650/650/650 636/636/636
f 641/641/641 604/604/604 605/605/605
f 605/605/605 655/655/655 641/641/641
f 642/642/642 655/655/655 605/605/605
f 599/599/599 600/600/600 636/636/636
f 599/599/599 636/636/636 649/649/649
f 649/649/649 635/635/635 599/599/599
f 550/550/550 600/600/600 575/575/575
f 600/600/600 599/599/599 575/575/575
f 635/635/635 598/598/598 599/599/599
f 635/635/635 648/648/648 598/598/598
f 648/648/648 634/634/634 598/598/598
f 634/634/634 647/647/647 632/632/632
f 634/634/634 632/632/632 598/598/598
f 598/598/598 632/632/632 573/573/573
f 599/599/599 598/598/598 570/570/570
f 570/570/570 598/598/598 573/573/573
f 575/575/575 599/599/599 570/570/570
f 570/570/570 573/573/573 569/569/569
f 573/573/573 572/572/572 569/569/569
f 574/574/574 569/569/569 572/572/572
f 575/575/575 570/570/570 568/568/568
f 570/570/570 569/569/569 568/568/568
f 551/551/551 550/550/550 575/575/575
f 568/568/568 551/551/551 575/575/575
f 551/551/551 548/548/548 550/550/550
f 571/571/571 568/568/568 569/569/569
f 569/569/569 574/574/574 571/571/571
f 551/551/551 568/568/568 576/576/576
f 568/568/568 571/571/571 576/576/576
f 548/548/548 551/551/551 552/552/552
f 576/576/576 552/552/552 551/551/551
f 574/574/574 591/591/591 571/571/571
f 574/574/574 606/606/606 591/591/591
f 606/606/606 621/621/621 608/608/608
f 591/591/591 606/606/606 608/608/608
f 591/591/591 608/608/608 622/622/622
f 591/591/591 622/622/622 609/609/609
f 571/571/571 591/591/591 592/592/592
f 592/592/592 591/591/591 609/609/609
f 576/576/576 571/571/571 592/592/592
f 592/592/592 609/609/609 623/623/623
f 623/623/623 610/610/610 592/592/592
f 592/592/592 585/585/585 576/576/576
f 610/610/610 585/585/585 592/592/592
f 576/576/576 585/585/585 552/552/552
f 610/610/610 624/624/624 585/585/585
f 624/624/624 611/611/611 585/585/585
f 611/611/611 584/584/584 585/585/585
f 585/585/585 584/584/584 552/552/552
f 611/611/611 625/625/625 584/584/584
f 625/625/625 612/612/612 584/584/584
f 552/552/552 549/549/549 548/548/548
f 552/552/552 584/584/584 549/549/549
f 545/545/545 548/548/548 549/549/549
f 549/549/549 546/546/546 545/545/545
f 612/612/612 580/580/580 584/584/584
f 584/584/584 580/580/580 549/549/549
f 549/549/549 580/580/580 546/546/546
f 612/612/612 626/626/626 580/580/580
f 626/626/626 613/613/613 580/580/580
f 581/581/581 580/580/580 613/613/613
f 546/546/546 580/580/580 581/581/581
f 613/613/613 627/627/627 581/581/581
f 627/627/627 614/614/614 581/581/581
f 546/546/546 581/581/581 555/555/555
f 546/546/546 555/555/555 544/544/544
f 582/582/582 581/581/581 614/614/614
f 555/555/555 581/581/581 582/582/582
f 614/614/614 628/628/628 582/582/582
f 628/628/628 615/615/615 582/582/582
f 554/554/554 544/544/544 555/555/555
f 544/544/544 554/554/554 553/553/553
f 555/555/555 582/582/582 558/558/558
f 555/555/555 558/558/558 554/554/554
f 583/583/583 582/582/582 615/615/615
f 558/558/558 582/582/582 583/583/583
f 615/615/615 629/629/629 583/583/583
f 583/583/583 629/629/629 616/616/616
f 554/554/554 556/556/556 553/553/553
f 556/556/556 604/604/604 553/553/553
f 605/605/605 604/604/604 556/556/556
f 557/557/557 554/554/554 558/558/558
f 554/554/554 557/557/557 556/556/556
f 561/561/561 558/558/558 583/583/583
f 557/557/557 558/558/558 561/561/561
f 586/586/586 583/583/583 616/616/616
f 561/561/561 583/583/583 586/586/586
f 586/586/586 616/616/616 630/630/630
f 586/586/586 630/630/630 617/617/617
f 560/560/560 556/556/556 557/557/557
f 605/605/605 556/556/556 560/560/560
f 561/561/561 559/559/559 557/557/557
f 560/560/560 557/557/557 559/559/559
f 561/561/561 586/586/586 564/564/564
f 559/559/559 561/561/561 564/564/564
f 587/587/587 586/586/586 617/617/617
f 564/564/564 586/586/586 587/587/587
f 587/587/587 617/617/617 631/631/631
f 587/587/587 631/631/631 618/618/618
f 560/560/560 595/595/595 605/605/605
f 642/642/642 605/605/605 595/595/595
f 656/656/656 642/642/642 595/595/595
f 643/643/643 656/656/656 595/595/595
f 588/588/588 587/587/587 618/618/618
f 588/588/588 618/618/618 619/619/619
f 588/588/588 619/619/619 607/607/607
f 643/643/643 595/595/595 594/594/594
f 657/657/657 643/643/643 594/594/594
f 644/644/644 657/657/657 594/594/594
f 563/563/563 595/595/595 560/560/560
f 563/563/563 594/594/594 595/595/595
f 563/563/563 560/560/560 559/559/559
f 590/590/590 607/607/607 620/620/620
f 590/590/590 588/588/588 607/607/607
f 563/563/563 559/559/559 562/562/562
f 564/564/564 562/562/562 559/559/559
f 579/579/579 588/588/588 590/590/590
f 579/579/579 590/590/590 589/589/589
f 577/577/577 579/579/579 589/589/589
f 567/567/567 587/587/587 588/588/588
f 564/564/564 587/587/587 567/567/567
f 567/567/567 588/588/588 579/579/579
f 562/562/562 564/564/564 567/567/567
f 565/565/565 567/567/567 579/579/579
f 567/567/567 565/565/565 562/562/562
f 579/579/579 577/577/577 565/565/565
f 566/566/566 563/563/563 562/562/562
f 566/566/566 562/562/562 565/565/565
f 566/566/566 594/594/594 563/563/563
f 578/578/578 565/565/565 577/577/577
f 578/578/578 566/566/566 565/565/565
f 596/596/596 578/578/578 577/577/577
f 596/596/596 597/597/597 578/578/578
f 566/566/566 593/593/593 594/594/594
f 578/578/578 593/593/593 566/566/566
f 644/644/644 594/594/594 593/593/593
f 597/597/597 593/593/593 578/578/578
f 645/645/645 644/644/644 593/593/593
f 633/633/633 645/645/645 593/593/593
f 633/633/633 593/593/593 597/597/597
f 646/646/646 633/633/633 597/597/597
