# VPXTOOL table OBJ file
# VPXTOOL OBJ file
# numVerts: 760 numFaces: 912
o VRCaster
v -0.678359 22.410658 -0.017443
v -0.674288 22.382 -0.087112
v -0.798883 22.430239 -0.024069
v -0.558038 22.43133 -0.010445
v -0.544468 22.404306 -0.079561
v -0.672047 22.382381 -0.126764
v -0.804328 22.403126 -0.094259
v -0.670735 22.677126 -0.173592
v -0.802087 22.403507 -0.133911
v -0.542227 22.404686 -0.119211
v -0.636236 22.683054 -0.171587
v -0.670735 22.677126 -0.173592
v -0.666253 22.677887 -0.252897
v -0.705293 22.682741 -0.175493
v -0.631754 22.683815 -0.250893
v -0.636236 22.683054 -0.171587
v -0.684252 22.73261 -0.253389
v -0.700811 22.683502 -0.254801
v -0.666516 22.729729 -0.252417
v -0.666253 22.677887 -0.252897
v -0.631754 22.683815 -0.250893
v -0.640574 22.734133 -0.711403
v -0.65831 22.737015 -0.712376
v -0.666516 22.729729 -0.252417
v -0.648809 22.732775 -0.251387
v -0.622867 22.737175 -0.710369
v -0.633052 22.741407 -0.250412
v -0.60711 22.745811 -0.709394
v -0.595008 22.759106 -0.708586
v -0.62095 22.754702 -0.249603
v -0.648809 22.732775 -0.251387
v -0.633052 22.741407 -0.250412
v -0.601052 22.700642 -0.248997
v -0.577474 22.726543 -0.247417
v -0.605534 22.69988 -0.169687
v -0.601052 22.700642 -0.248997
v -0.577474 22.726543 -0.247417
v -0.581956 22.725782 -0.168108
v -0.426695 22.468004 -0.112078
v -0.605534 22.69988 -0.169687
v -0.337971 22.565474 -0.106129
v -0.581956 22.725782 -0.168108
v -0.428936 22.467625 -0.072422
v -0.340212 22.565094 -0.066473
v -0.450959 22.490017 -0.00383
v -0.368726 22.580355 0.001684
v -0.28791 22.686152 -0.062355
v -0.320251 22.692554 0.005503
v -0.277698 22.81768 -0.060514
v -0.310786 22.81446 0.007206
v -0.275457 22.81806 -0.100172
v -0.285669 22.686531 -0.102009
v -0.565343 22.792908 -0.166523
v -0.568057 22.757956 -0.167015
v -0.565343 22.792908 -0.166523
v -0.560861 22.793667 -0.245832
v -0.568057 22.757956 -0.167015
v -0.563575 22.758715 -0.246319
v -0.613817 22.771214 -0.249041
v -0.563575 22.758715 -0.246319
v -0.612424 22.789156 -0.248789
v -0.62095 22.754702 -0.249603
v -0.586482 22.793556 -0.707773
v -0.587875 22.775616 -0.708023
v -0.612424 22.789156 -0.248789
v -0.613817 22.771214 -0.249041
v -0.616923 22.806578 -0.248877
v -0.59098 22.81098 -0.707859
v -0.600883 22.825998 -0.708277
v -0.626826 22.821596 -0.249292
v -0.569626 22.827616 -0.245998
v -0.588921 22.85688 -0.246813
v -0.616923 22.806578 -0.248877
v -0.560861 22.793667 -0.245832
v -0.588921 22.85688 -0.246813
v -0.569626 22.827616 -0.245998
v -0.593403 22.85612 -0.167503
v -0.574109 22.826857 -0.166693
v -0.381048 23.055931 -0.103855
v -0.593403 22.85612 -0.167503
v -0.308441 22.945808 -0.100809
v -0.574109 22.826857 -0.166693
v -0.383289 23.05555 -0.064201
v -0.310683 22.945429 -0.061153
v -0.408652 23.034925 0.00379
v -0.341358 22.93286 0.006618
v -0.48765 23.136108 -0.069326
v -0.505377 23.10959 -0.000959
v -0.612456 23.178385 -0.075975
v -0.62105 23.148771 -0.007122
v -0.610215 23.178762 -0.115627
v -0.485409 23.13649 -0.108982
v -0.654304 22.888762 -0.170633
v -0.621137 22.87753 -0.168863
v -0.649822 22.889524 -0.249941
v -0.616655 22.87829 -0.248175
v -0.654304 22.888762 -0.170633
v -0.621137 22.87753 -0.168863
v -0.64106 22.832584 -0.24999
v -0.616655 22.87829 -0.248175
v -0.658082 22.838352 -0.250898
v -0.626826 22.821596 -0.249292
v -0.63214 22.842754 -0.709881
v -0.615117 22.836988 -0.708975
v -0.658082 22.838352 -0.250898
v -0.64106 22.832584 -0.24999
v -0.650107 22.84267 -0.710899
v -0.676049 22.838268 -0.251915
v -0.693012 22.83235 -0.252926
v -0.66707 22.83675 -0.711912
v -0.684827 22.889366 -0.251921
v -0.717879 22.87783 -0.253897
v -0.676049 22.838268 -0.251915
v -0.649822 22.889524 -0.249941
v -0.722361 22.87707 -0.174589
v -0.717879 22.87783 -0.253897
v -0.68931 22.888605 -0.172611
v -0.684827 22.889366 -0.251921
v -0.722361 22.87707 -0.174589
v -0.68931 22.888605 -0.172611
v -0.866313 23.134764 -0.130524
v -0.741941 23.178165 -0.123081
v -0.868554 23.134382 -0.090872
v -0.744182 23.177784 -0.083424
v -0.858411 23.10799 -0.020927
v -0.743139 23.148218 -0.014029
v -0.954375 23.032448 -0.027077
v -0.972094 23.052877 -0.097504
v -1.020633 22.929777 -0.031807
v -1.043583 22.942102 -0.102608
v -1.041342 22.942482 -0.142262
v -0.969853 23.053259 -0.137161
v -0.768874 22.825972 -0.17771
v -0.749877 22.855412 -0.176353
v -0.764392 22.826733 -0.257017
v -0.745395 22.856169 -0.255659
v -0.768874 22.825972 -0.17771
v -0.749877 22.855412 -0.176353
v -0.707134 22.821232 -0.253834
v -0.745395 22.856169 -0.255659
v -0.716885 22.806122 -0.25453
v -0.693012 22.83235 -0.252926
v -0.690942 22.810526 -0.713514
v -0.681192 22.825634 -0.712816
v -0.716885 22.806122 -0.25453
v -0.707134 22.821232 -0.253834
v -0.695265 22.79306 -0.713924
v -0.721207 22.78866 -0.254944
v -0.719632 22.770733 -0.255024
v -0.69369 22.775137 -0.714008
v -0.764392 22.826733 -0.257017
v -0.772813 22.792707 -0.25782
v -0.769746 22.75778 -0.257982
v -0.721207 22.78866 -0.254944
v -0.772813 22.792707 -0.25782
v -0.777296 22.791946 -0.178513
v -0.774228 22.757019 -0.178673
v -0.769746 22.75778 -0.257982
v -0.777296 22.791946 -0.178513
v -1.073031 22.814442 -0.145281
v -1.061487 22.683012 -0.145891
v -0.774228 22.757019 -0.178673
v -1.075272 22.814062 -0.105629
v -1.063728 22.68263 -0.106237
v -1.050003 22.811108 -0.034605
v -1.039304 22.689291 -0.035172
v -1.010203 22.562052 -0.104366
v -0.989695 22.577538 -0.03344
v -0.906552 22.487947 -0.0296
v -0.920496 22.465395 -0.100225
v -0.918254 22.465773 -0.139881
v -1.007962 22.562433 -0.144022
v -0.736165 22.69929 -0.177073
v -0.760004 22.724976 -0.178179
v -0.736165 22.69929 -0.177073
v -0.731682 22.700048 -0.256384
v -0.760004 22.724976 -0.178179
v -0.755521 22.725737 -0.257484
v -0.712332 22.754288 -0.25477
v -0.755521 22.725737 -0.257484
v -0.700097 22.741104 -0.254204
v -0.719632 22.770733 -0.255024
v -0.700097 22.741104 -0.254204
v -0.674154 22.745506 -0.71319
v -0.712332 22.754288 -0.25477
v -0.68639 22.75869 -0.713755
v -0.684252 22.73261 -0.253389
v -0.731682 22.700048 -0.256384
v -0.700811 22.683502 -0.254801
v -0.705293 22.682741 -0.175493
v -0.75252 -1.897274 0.000181
v -0.752271 -1.925932 -0.069607
v -0.873227 -1.877694 0.000168
v -0.631997 -1.876603 0.00058
v -0.752205 -1.925552 -0.10932
v -0.882507 -1.904807 -0.06962
v -0.622232 -1.903628 -0.069174
v -0.622166 -1.903248 -0.108887
v -0.753459 -1.630808 -0.156149
v -0.882441 -1.904427 -0.109337
v -0.718902 -1.624878 -0.156036
v -0.753459 -1.630808 -0.156149
v -0.753327 -1.630045 -0.23558
v -0.788069 -1.625192 -0.156157
v -0.718769 -1.624115 -0.23547
v -0.718902 -1.624878 -0.156036
v -0.771326 -1.575322 -0.235088
v -0.787937 -1.624429 -0.235586
v -0.753563 -1.578203 -0.235088
v -0.753327 -1.630045 -0.23558
v -0.718769 -1.624115 -0.23547
v -0.753563 -1.578203 -0.235088
v -0.752793 -1.573802 -0.694805
v -0.771326 -1.575322 -0.235088
v -0.735826 -1.57516 -0.235027
v -0.735057 -1.570759 -0.694744
v -0.720039 -1.566525 -0.234919
v -0.71927 -1.562124 -0.694632
v -0.707142 -1.54883 -0.694489
v -0.707911 -1.553231 -0.234774
v -0.735826 -1.57516 -0.235027
v -0.720039 -1.566525 -0.234919
v -0.688009 -1.607292 -0.235254
v -0.66438 -1.581389 -0.234972
v -0.688142 -1.608055 -0.155821
v -0.688009 -1.607292 -0.235254
v -0.66438 -1.581389 -0.234972
v -0.664513 -1.582152 -0.155537
v -0.506417 -1.83993 -0.108091
v -0.688142 -1.608055 -0.155821
v -0.664513 -1.582152 -0.155537
v -0.4175 -1.742457 -0.107008
v -0.506483 -1.84031 -0.068373
v -0.417566 -1.74284 -0.067291
v -0.524716 -1.817918 0.001322
v -0.442305 -1.727578 0.002325
v -0.365117 -1.62178 -0.066044
v -0.393694 -1.615378 0.003481
v -0.35482 -1.490252 -0.064766
v -0.384149 -1.493471 0.004663
v -0.354753 -1.489871 -0.104486
v -0.365051 -1.621402 -0.105762
v -0.647838 -1.515028 -0.154861
v -0.650574 -1.549978 -0.155205
v -0.647838 -1.515028 -0.154861
v -0.647705 -1.514265 -0.234297
v -0.650574 -1.549978 -0.155205
v -0.650442 -1.549218 -0.234636
v -0.650442 -1.549218 -0.234636
v -0.647705 -1.514265 -0.234297
v -0.700758 -1.536718 -0.234602
v -0.707911 -1.553231 -0.234774
v -0.699353 -1.51878 -0.234426
v -0.698584 -1.514376 -0.694143
v -0.700758 -1.536718 -0.234602
v -0.699988 -1.532317 -0.694317
v -0.703081 -1.496953 -0.693983
v -0.70385 -1.501355 -0.23427
v -0.712991 -1.481935 -0.693859
v -0.713761 -1.486336 -0.234144
v -0.656467 -1.480317 -0.233986
v -0.675777 -1.451053 -0.233742
v -0.70385 -1.501355 -0.23427
v -0.699353 -1.51878 -0.234426
v -0.675777 -1.451053 -0.233742
v -0.656467 -1.480317 -0.233986
v -0.67591 -1.451812 -0.154306
v -0.6566 -1.481075 -0.154552
v -0.67591 -1.451812 -0.154306
v -0.6566 -1.481075 -0.154552
v -0.460388 -1.252005 -0.102381
v -0.387723 -1.362125 -0.103317
v -0.460454 -1.252383 -0.062664
v -0.38779 -1.362503 -0.063599
v -0.482055 -1.273007 0.006617
v -0.414707 -1.375072 0.005753
v -0.578895 -1.198342 0.007168
v -0.564939 -1.171824 -0.062065
v -0.689922 -1.129549 -0.061869
v -0.694733 -1.159161 0.007351
v -0.689855 -1.129169 -0.101587
v -0.564873 -1.171443 -0.101788
v -0.73689 -1.419169 -0.154097
v -0.703677 -1.430403 -0.154144
v -0.736758 -1.418408 -0.23353
v -0.703544 -1.429644 -0.233582
v -0.73689 -1.419169 -0.154097
v -0.703677 -1.430403 -0.154144
v -0.703544 -1.429644 -0.233582
v -0.736758 -1.418408 -0.23353
v -0.728012 -1.475347 -0.234058
v -0.713761 -1.486336 -0.234144
v -0.744289 -1.465181 -0.693747
v -0.727242 -1.470946 -0.693777
v -0.745058 -1.469582 -0.234034
v -0.728012 -1.475347 -0.234058
v -0.763054 -1.469665 -0.234064
v -0.762284 -1.465262 -0.693779
v -0.780047 -1.475585 -0.234144
v -0.779278 -1.471179 -0.693863
v -0.763054 -1.469665 -0.234064
v -0.771819 -1.418568 -0.233589
v -0.780047 -1.475585 -0.234144
v -0.745058 -1.469582 -0.234034
v -0.805062 -1.430863 -0.154318
v -0.804929 -1.4301 -0.233753
v -0.771952 -1.419329 -0.154154
v -0.771819 -1.418568 -0.233589
v -0.946385 -1.17317 -0.102438
v -0.805062 -1.430863 -0.154318
v -0.821792 -1.129768 -0.101814
v -0.771952 -1.419329 -0.154154
v -0.946451 -1.173551 -0.062721
v -0.821859 -1.130148 -0.062096
v -0.932493 -1.199944 0.006561
v -0.817016 -1.159716 0.007137
v -1.02865 -1.275485 0.005676
v -1.050199 -1.255056 -0.063675
v -1.095067 -1.378154 0.004581
v -1.12186 -1.36583 -0.064854
v -1.121794 -1.36545 -0.104574
v -1.050133 -1.254675 -0.103392
v -0.851676 -1.481961 -0.154888
v -0.832633 -1.452522 -0.154573
v -0.851544 -1.481198 -0.234324
v -0.8325 -1.451761 -0.234009
v -0.851676 -1.481961 -0.154888
v -0.832633 -1.452522 -0.154573
v -0.8325 -1.451761 -0.234009
v -0.851544 -1.481198 -0.234324
v -0.794197 -1.486702 -0.234278
v -0.804929 -1.4301 -0.233753
v -0.803202 -1.497407 -0.694155
v -0.793428 -1.482298 -0.693993
v -0.803971 -1.50181 -0.23444
v -0.794197 -1.486702 -0.234278
v -0.80754 -1.514871 -0.69433
v -0.80831 -1.519274 -0.234615
v -0.806742 -1.537202 -0.234783
v -0.805973 -1.532798 -0.694498
v -0.859996 -1.515227 -0.234663
v -0.803971 -1.50181 -0.23444
v -0.856942 -1.550154 -0.234991
v -0.80831 -1.519274 -0.234615
v -0.859996 -1.515227 -0.234663
v -0.860129 -1.515988 -0.155228
v -0.857075 -1.550915 -0.155556
v -0.856942 -1.550154 -0.234991
v -0.860129 -1.515988 -0.155228
v -1.153601 -1.49349 -0.10585
v -0.857075 -1.550915 -0.155556
v -1.142108 -1.624921 -0.10709
v -1.153667 -1.49387 -0.066137
v -1.142174 -1.625301 -0.067377
v -1.124547 -1.496826 0.003397
v -1.113895 -1.618643 0.002247
v -1.064265 -1.730394 0.001257
v -1.088627 -1.74588 -0.068439
v -0.998827 -1.842539 -0.069218
v -0.981037 -1.819985 0.00054
v -0.998761 -1.84216 -0.108936
v -1.08856 -1.745497 -0.108158
v -0.818981 -1.608645 -0.156044
v -0.842845 -1.582957 -0.155844
v -0.818981 -1.608645 -0.156044
v -0.818848 -1.607883 -0.235481
v -0.842845 -1.582957 -0.155844
v -0.842712 -1.582199 -0.235273
v -0.799439 -1.553645 -0.234928
v -0.842712 -1.582199 -0.235273
v -0.787191 -1.56683 -0.235033
v -0.806742 -1.537202 -0.234783
v -0.787191 -1.56683 -0.235033
v -0.786421 -1.562429 -0.694752
v -0.799439 -1.553645 -0.234928
v -0.798669 -1.549243 -0.694647
v -0.770556 -1.570921 -0.694805
v -0.818848 -1.607883 -0.235481
v -0.787937 -1.624429 -0.235586
v -0.788069 -1.625192 -0.156157
v 10.249386 -1.897274 0.000181
v 10.249635 -1.925932 -0.069607
v 10.128678 -1.877694 0.000168
v 10.369909 -1.876603 0.00058
v 10.379673 -1.903628 -0.069174
v 10.249701 -1.925552 -0.10932
v 10.119399 -1.904807 -0.06962
v 10.37974 -1.903248 -0.108887
v 10.248446 -1.630808 -0.156149
v 10.119465 -1.904427 -0.109337
v 10.283003 -1.624878 -0.156036
v 10.248446 -1.630808 -0.156149
v 10.248578 -1.630045 -0.23558
v 10.213837 -1.625192 -0.156157
v 10.283137 -1.624115 -0.23547
v 10.283003 -1.624878 -0.156036
v 10.23058 -1.575322 -0.235088
v 10.213969 -1.624429 -0.235586
v 10.248343 -1.578203 -0.235088
v 10.248578 -1.630045 -0.23558
v 10.283137 -1.624115 -0.23547
v 10.249112 -1.573802 -0.694805
v 10.23135 -1.570921 -0.694805
v 10.248343 -1.578203 -0.235088
v 10.26608 -1.57516 -0.235027
v 10.26685 -1.570759 -0.694744
v 10.281867 -1.566525 -0.234919
v 10.282637 -1.562124 -0.694632
v 10.294764 -1.54883 -0.694489
v 10.293995 -1.553231 -0.234774
v 10.26608 -1.57516 -0.235027
v 10.281867 -1.566525 -0.234919
v 10.313897 -1.607292 -0.235254
v 10.337526 -1.581389 -0.234972
v 10.313763 -1.608055 -0.155821
v 10.313897 -1.607292 -0.235254
v 10.337526 -1.581389 -0.234972
v 10.337394 -1.582152 -0.155537
v 10.495489 -1.83993 -0.108091
v 10.313763 -1.608055 -0.155821
v 10.584407 -1.742457 -0.107008
v 10.337394 -1.582152 -0.155537
v 10.495422 -1.84031 -0.068373
v 10.584339 -1.74284 -0.067291
v 10.47719 -1.817918 0.001322
v 10.559601 -1.727578 0.002325
v 10.636788 -1.62178 -0.066044
v 10.608212 -1.615378 0.003481
v 10.647086 -1.490252 -0.064766
v 10.617757 -1.493471 0.004663
v 10.647153 -1.489871 -0.104486
v 10.636854 -1.621402 -0.105762
v 10.354067 -1.515028 -0.154861
v 10.351332 -1.549978 -0.155205
v 10.354067 -1.515028 -0.154861
v 10.354199 -1.514265 -0.234297
v 10.351332 -1.549978 -0.155205
v 10.351464 -1.549218 -0.234636
v 10.351464 -1.549218 -0.234636
v 10.354199 -1.514265 -0.234297
v 10.301148 -1.536718 -0.234602
v 10.293995 -1.553231 -0.234774
v 10.302552 -1.51878 -0.234426
v 10.303322 -1.514376 -0.694143
v 10.301148 -1.536718 -0.234602
v 10.301918 -1.532317 -0.694317
v 10.298824 -1.496953 -0.693983
v 10.298056 -1.501355 -0.23427
v 10.288915 -1.481935 -0.693859
v 10.288145 -1.486336 -0.234144
v 10.345439 -1.480317 -0.233986
v 10.326128 -1.451053 -0.233742
v 10.298056 -1.501355 -0.23427
v 10.302552 -1.51878 -0.234426
v 10.326128 -1.451053 -0.233742
v 10.345439 -1.480317 -0.233986
v 10.325995 -1.451812 -0.154306
v 10.345306 -1.481075 -0.154552
v 10.325995 -1.451812 -0.154306
v 10.345306 -1.481075 -0.154552
v 10.541518 -1.252005 -0.102381
v 10.614182 -1.362125 -0.103317
v 10.541452 -1.252383 -0.062664
v 10.614117 -1.362503 -0.063599
v 10.519851 -1.273007 0.006617
v 10.587198 -1.375072 0.005753
v 10.42301 -1.198342 0.007168
v 10.436967 -1.171824 -0.062065
v 10.307172 -1.159161 0.007351
v 10.311984 -1.129549 -0.061869
v 10.31205 -1.129169 -0.101587
v 10.437034 -1.171443 -0.101788
v 10.265016 -1.419169 -0.154097
v 10.298229 -1.430403 -0.154144
v 10.265148 -1.418408 -0.23353
v 10.298362 -1.429644 -0.233582
v 10.265016 -1.419169 -0.154097
v 10.298229 -1.430403 -0.154144
v 10.273893 -1.475347 -0.234058
v 10.298362 -1.429644 -0.233582
v 10.256848 -1.469582 -0.234034
v 10.288145 -1.486336 -0.234144
v 10.257616 -1.465181 -0.693747
v 10.274663 -1.470946 -0.693777
v 10.256848 -1.469582 -0.234034
v 10.273893 -1.475347 -0.234058
v 10.239621 -1.465262 -0.693779
v 10.238852 -1.469665 -0.234064
v 10.221859 -1.475585 -0.234144
v 10.222628 -1.471179 -0.693863
v 10.238852 -1.469665 -0.234064
v 10.230086 -1.418568 -0.233589
v 10.221859 -1.475585 -0.234144
v 10.265148 -1.418408 -0.23353
v 10.196843 -1.430863 -0.154318
v 10.196976 -1.4301 -0.233753
v 10.229954 -1.419329 -0.154154
v 10.230086 -1.418568 -0.233589
v 10.055521 -1.17317 -0.102438
v 10.196843 -1.430863 -0.154318
v 10.180114 -1.129768 -0.101814
v 10.229954 -1.419329 -0.154154
v 10.055455 -1.173551 -0.062721
v 10.180048 -1.130148 -0.062096
v 10.069413 -1.199944 0.006561
v 10.18489 -1.159716 0.007137
v 9.973256 -1.275485 0.005676
v 9.951706 -1.255056 -0.063675
v 9.906838 -1.378154 0.004581
v 9.880046 -1.36583 -0.064854
v 9.880112 -1.36545 -0.104574
v 9.951773 -1.254675 -0.103392
v 10.150229 -1.481961 -0.154888
v 10.169272 -1.452522 -0.154573
v 10.150229 -1.481961 -0.154888
v 10.150361 -1.481198 -0.234324
v 10.169272 -1.452522 -0.154573
v 10.169405 -1.451761 -0.234009
v 10.207708 -1.486702 -0.234278
v 10.169405 -1.451761 -0.234009
v 10.197935 -1.50181 -0.23444
v 10.196976 -1.4301 -0.233753
v 10.198704 -1.497407 -0.694155
v 10.208478 -1.482298 -0.693993
v 10.197935 -1.50181 -0.23444
v 10.207708 -1.486702 -0.234278
v 10.194366 -1.514871 -0.69433
v 10.193597 -1.519274 -0.234615
v 10.195164 -1.537202 -0.234783
v 10.195933 -1.532798 -0.694498
v 10.150361 -1.481198 -0.234324
v 10.14191 -1.515227 -0.234663
v 10.193597 -1.519274 -0.234615
v 10.195164 -1.537202 -0.234783
v 10.14191 -1.515227 -0.234663
v 10.141777 -1.515988 -0.155228
v 10.144831 -1.550915 -0.155556
v 10.144963 -1.550154 -0.234991
v 10.141777 -1.515988 -0.155228
v 9.848305 -1.49349 -0.10585
v 10.144831 -1.550915 -0.155556
v 9.859798 -1.624921 -0.10709
v 9.848239 -1.49387 -0.066137
v 9.859732 -1.625301 -0.067377
v 9.877358 -1.496826 0.003397
v 9.888011 -1.618643 0.002247
v 9.93764 -1.730394 0.001257
v 9.91328 -1.74588 -0.068439
v 10.020869 -1.819985 0.00054
v 10.003079 -1.842539 -0.069218
v 10.003145 -1.84216 -0.108936
v 9.913346 -1.745497 -0.108158
v 10.182925 -1.608645 -0.156044
v 10.15906 -1.582957 -0.155844
v 10.182925 -1.608645 -0.156044
v 10.183058 -1.607883 -0.235481
v 10.15906 -1.582957 -0.155844
v 10.159194 -1.582199 -0.235273
v 10.202467 -1.553645 -0.234928
v 10.159194 -1.582199 -0.235273
v 10.214715 -1.56683 -0.235033
v 10.144963 -1.550154 -0.234991
v 10.214715 -1.56683 -0.235033
v 10.215485 -1.562429 -0.694752
v 10.202467 -1.553645 -0.234928
v 10.203237 -1.549243 -0.694647
v 10.23058 -1.575322 -0.235088
v 10.183058 -1.607883 -0.235481
v 10.213969 -1.624429 -0.235586
v 10.213837 -1.625192 -0.156157
v 10.250695 22.410652 0.00425
v 10.249371 22.381996 -0.065525
v 10.130018 22.430235 0.006956
v 10.371197 22.431328 0.001928
v 10.379386 22.404299 -0.068026
v 10.248542 22.382378 -0.105232
v 10.119168 22.403122 -0.062607
v 10.246231 22.677118 -0.152021
v 10.118339 22.403503 -0.102312
v 10.378557 22.404682 -0.107735
v 10.280783 22.683048 -0.152689
v 10.246231 22.677118 -0.152021
v 10.244573 22.677883 -0.231436
v 10.21163 22.682735 -0.151247
v 10.279123 22.68381 -0.232105
v 10.280783 22.683048 -0.152689
v 10.226589 22.732605 -0.230537
v 10.20997 22.683498 -0.230663
v 10.244348 22.729725 -0.230936
v 10.244573 22.677883 -0.231436
v 10.279123 22.68381 -0.232105
v 10.234751 22.734125 -0.690556
v 10.216991 22.737007 -0.690155
v 10.244348 22.729725 -0.230936
v 10.262081 22.732769 -0.231279
v 10.252482 22.737171 -0.690893
v 10.277866 22.741404 -0.231524
v 10.268269 22.745804 -0.691139
v 10.280396 22.7591 -0.691269
v 10.289994 22.7547 -0.231653
v 10.30988 22.700636 -0.232586
v 10.262081 22.732769 -0.231279
v 10.333509 22.726538 -0.232832
v 10.277866 22.741404 -0.231524
v 10.311539 22.699873 -0.153168
v 10.30988 22.700636 -0.232586
v 10.333509 22.726538 -0.232832
v 10.335169 22.725775 -0.153416
v 10.494294 22.467999 -0.109547
v 10.311539 22.699873 -0.153168
v 10.583214 22.56547 -0.110472
v 10.335169 22.725775 -0.153416
v 10.495124 22.46762 -0.069838
v 10.584042 22.565088 -0.070761
v 10.478467 22.490011 0.000252
v 10.560879 22.580349 -0.000605
v 10.636506 22.686146 -0.070696
v 10.609505 22.692549 -0.000544
v 10.64683 22.817678 -0.069651
v 10.619073 22.814455 0.000423
v 10.646001 22.818058 -0.109362
v 10.635676 22.686523 -0.110407
v 10.351855 22.792902 -0.153116
v 10.349111 22.75795 -0.153399
v 10.351855 22.792902 -0.153116
v 10.350195 22.793661 -0.232534
v 10.349111 22.75795 -0.153399
v 10.347453 22.758709 -0.232813
v 10.347453 22.758709 -0.232813
v 10.350195 22.793661 -0.232534
v 10.29715 22.77121 -0.231642
v 10.289994 22.7547 -0.231653
v 10.28896 22.793552 -0.691116
v 10.287552 22.775612 -0.691259
v 10.298558 22.789152 -0.231501
v 10.29715 22.77121 -0.231642
v 10.294066 22.806574 -0.231241
v 10.284469 22.810974 -0.690855
v 10.274562 22.825994 -0.690506
v 10.284161 22.821592 -0.23089
v 10.341443 22.827612 -0.232025
v 10.322144 22.856874 -0.231346
v 10.294066 22.806574 -0.231241
v 10.298558 22.789152 -0.231501
v 10.322144 22.856874 -0.231346
v 10.341443 22.827612 -0.232025
v 10.323802 22.856115 -0.151928
v 10.343102 22.826853 -0.152609
v 10.323802 22.856115 -0.151928
v 10.343102 22.826853 -0.152609
v 10.540442 23.055925 -0.104876
v 10.613066 22.945805 -0.107449
v 10.54127 23.055544 -0.065168
v 10.613895 22.945423 -0.067739
v 10.521236 23.03492 0.00458
v 10.588548 22.932856 0.002199
v 10.436825 23.136106 -0.062214
v 10.424434 23.109585 0.007318
v 10.311878 23.17838 -0.0592
v 10.308629 23.148766 0.010111
v 10.311049 23.178757 -0.098907
v 10.435995 23.13649 -0.101923
v 10.262842 22.888756 -0.150343
v 10.296046 22.877525 -0.15114
v 10.261183 22.889517 -0.229759
v 10.294388 22.878283 -0.23056
v 10.262842 22.888756 -0.150343
v 10.296046 22.877525 -0.15114
v 10.294388 22.878283 -0.23056
v 10.261183 22.889517 -0.229759
v 10.269915 22.832582 -0.230486
v 10.284161 22.821592 -0.23089
v 10.243276 22.842749 -0.68969
v 10.260318 22.836983 -0.690102
v 10.252873 22.838346 -0.230074
v 10.269915 22.832582 -0.230486
v 10.225285 22.842667 -0.689318
v 10.234881 22.838264 -0.2297
v 10.217891 22.832342 -0.229401
v 10.208293 22.836748 -0.689016
v 10.22613 22.889362 -0.229027
v 10.193024 22.877827 -0.228445
v 10.234881 22.838264 -0.2297
v 10.252873 22.838346 -0.230074
v 10.194683 22.877064 -0.149029
v 10.193024 22.877827 -0.228445
v 10.227788 22.888601 -0.149609
v 10.22613 22.889362 -0.229027
v 10.194683 22.877064 -0.149029
v 10.227788 22.888601 -0.149609
v 10.054566 23.134758 -0.093971
v 10.179141 23.17816 -0.096159
v 10.055394 23.134377 -0.054266
v 10.179971 23.17778 -0.05645
v 10.070912 23.107986 0.014685
v 10.186372 23.14821 0.012659
v 9.974759 23.032442 0.01597
v 9.951652 23.052874 -0.052879
v 9.908335 22.929773 0.016373
v 9.879983 22.942097 -0.052441
v 9.879153 22.942476 -0.092152
v 9.950822 23.053253 -0.092588
v 10.148067 22.825968 -0.148544
v 10.167113 22.855408 -0.148659
v 10.146409 22.82673 -0.227962
v 10.165454 22.856167 -0.228077
v 10.148067 22.825968 -0.148544
v 10.167113 22.855408 -0.148659
v 10.165454 22.856167 -0.228077
v 10.146409 22.82673 -0.227962
v 10.203741 22.821226 -0.229212
v 10.217891 22.832342 -0.229401
v 10.184368 22.810522 -0.688768
v 10.194143 22.82563 -0.688828
v 10.193967 22.806118 -0.229153
v 10.203741 22.821226 -0.229212
v 10.180028 22.793055 -0.688847
v 10.189625 22.788656 -0.229229
v 10.191189 22.770727 -0.229433
v 10.18159 22.77513 -0.689049
v 10.13795 22.792702 -0.228113
v 10.193967 22.806118 -0.229153
v 10.189625 22.788656 -0.229229
v 10.191189 22.770727 -0.229433
v 10.13795 22.792702 -0.228113
v 10.139608 22.791943 -0.148695
v 10.142655 22.757011 -0.149092
v 10.140996 22.757776 -0.22851
v 9.847325 22.814436 -0.092714
v 10.139608 22.791943 -0.148695
v 9.858788 22.683004 -0.094213
v 10.142655 22.757011 -0.149092
v 9.848155 22.814058 -0.053005
v 9.859617 22.682625 -0.054506
v 9.878836 22.811104 0.015852
v 9.889459 22.689287 0.014462
v 9.939054 22.577532 0.012356
v 9.913127 22.562048 -0.056776
v 10.002887 22.465391 -0.059578
v 10.022244 22.487944 0.009762
v 10.002057 22.465767 -0.099287
v 9.912298 22.562428 -0.096487
v 10.180728 22.699284 -0.150438
v 10.156876 22.72497 -0.1497
v 10.180728 22.699284 -0.150438
v 10.17907 22.700045 -0.229858
v 10.156876 22.72497 -0.1497
v 10.155217 22.72573 -0.229113
v 10.198486 22.754282 -0.229744
v 10.155217 22.72573 -0.229113
v 10.21073 22.741096 -0.230124
v 10.140996 22.757776 -0.22851
v 10.21073 22.741096 -0.230124
v 10.201131 22.745499 -0.689743
v 10.198486 22.754282 -0.229744
v 10.188889 22.758682 -0.689362
v 10.226589 22.732605 -0.230537
v 10.17907 22.700045 -0.229858
v 10.20997 22.683498 -0.230663
v 10.21163 22.682735 -0.151247
vt 0.61289 0.63067198
vt 0.619759 0.63014603
vt 0.61461 0.61707902
vt 0.616589 0.64397
vt 0.622973 0.64103597
vt 0.622627 0.62990803
vt 0.621284 0.61900502
vt 0.646813 0.628151
vt 0.624232 0.619834
vt 0.625795 0.63975
vt 0.64745 0.63040698
vt 0.646813 0.628151
vt 0.650804 0.62777
vt 0.647049 0.625722
vt 0.651116 0.62887597
vt 0.64745 0.63040698
vt 0.652824 0.627097
vt 0.650901 0.626621
vt 0.652764 0.6276
vt 0.650804 0.62777
vt 0.651116 0.62887597
vt 0.654546 0.627446
vt 0.654547 0.62743402
vt 0.652764 0.6276
vt 0.652904 0.628084
vt 0.654549 0.62745702
vt 0.653228 0.62849897
vt 0.654556 0.62746698
vt 0.654566 0.627474
vt 0.653712 0.62879503
vt 0.652904 0.628084
vt 0.653228 0.62849897
vt 0.651806 0.62983298
vt 0.652785 0.630544
vt 0.648852 0.632425
vt 0.651806 0.62983298
vt 0.652785 0.630544
vt 0.650906 0.63394803
vt 0.631766 0.648099
vt 0.648852 0.632425
vt 0.639921 0.654185
vt 0.650906 0.63394803
vt 0.629515 0.65023297
vt 0.638473 0.656918
vt 0.624485 0.655101
vt 0.635298 0.66309798
vt 0.649058 0.66044998
vt 0.647949 0.66728997
vt 0.660188 0.660433
vt 0.661258 0.66728997
vt 0.659705 0.65739202
vt 0.64956 0.65738302
vt 0.655904 0.634731
vt 0.653335 0.63474202
vt 0.655904 0.634731
vt 0.655222 0.63090003
vt 0.653335 0.63474202
vt 0.653972 0.630906
vt 0.654279 0.628958
vt 0.653972 0.630906
vt 0.654881 0.628946
vt 0.653712 0.62879503
vt 0.654591 0.627478
vt 0.654579 0.627478
vt 0.654881 0.628946
vt 0.654279 0.628958
vt 0.655449 0.628771
vt 0.654604 0.627474
vt 0.654614 0.62746602
vt 0.655919 0.62844902
vt 0.656407 0.630513
vt 0.657399 0.62979
vt 0.655449 0.628771
vt 0.655222 0.63090003
vt 0.657399 0.62979
vt 0.656407 0.630513
vt 0.660362 0.632366
vt 0.658339 0.633909
vt 0.67768 0.64815003
vt 0.660362 0.632366
vt 0.6694 0.65425497
vt 0.658339 0.633909
vt 0.67996 0.650329
vt 0.670847 0.65704298
vt 0.685038 0.655316
vt 0.674035 0.66328502
vt 0.6867 0.64097297
vt 0.693247 0.644082
vt 0.690334 0.62982
vt 0.697248 0.630338
vt 0.686537 0.629623
vt 0.683686 0.639655
vt 0.662354 0.627935
vt 0.661752 0.630287
vt 0.658359 0.627688
vt 0.658069 0.62880898
vt 0.662354 0.627935
vt 0.661752 0.630287
vt 0.656258 0.628026
vt 0.658069 0.62880898
vt 0.656415 0.62754
vt 0.655919 0.62844902
vt 0.654624 0.62744498
vt 0.654621 0.62745702
vt 0.656415 0.62754
vt 0.656258 0.628026
vt 0.654623 0.627433
vt 0.65635 0.62704402
vt 0.656115 0.626585
vt 0.654618 0.62742198
vt 0.658264 0.62654603
vt 0.657751 0.62550002
vt 0.65635 0.62704402
vt 0.658359 0.627688
vt 0.661065 0.62339997
vt 0.657751 0.62550002
vt 0.66211 0.625592
vt 0.658264 0.62654603
vt 0.661065 0.62339997
vt 0.66211 0.625592
vt 0.68028 0.610339
vt 0.685005 0.61942202
vt 0.682819 0.60849
vt 0.688103 0.618523
vt 0.688411 0.604293
vt 0.694911 0.61631697
vt 0.678706 0.595249
vt 0.674794 0.600861
vt 0.666986 0.589598
vt 0.66501 0.596057
vt 0.664109 0.59895802
vt 0.673032 0.60334003
vt 0.657085 0.620454
vt 0.659332 0.62161702
vt 0.655804 0.62411702
vt 0.656902 0.624659
vt 0.657085 0.620454
vt 0.659332 0.62161702
vt 0.655711 0.62622
vt 0.656902 0.624659
vt 0.655184 0.62598598
vt 0.656115 0.626585
vt 0.654598 0.62740803
vt 0.654609 0.627414
vt 0.655184 0.62598598
vt 0.655711 0.62622
vt 0.654585 0.627407
vt 0.654593 0.62590998
vt 0.654003 0.626011
vt 0.654572 0.62740898
vt 0.655804 0.62411702
vt 0.654575 0.62393802
vt 0.653343 0.62413102
vt 0.654593 0.62590998
vt 0.654575 0.62393802
vt 0.654562 0.62005597
vt 0.652029 0.620476
vt 0.653343 0.62413102
vt 0.654562 0.62005597
vt 0.654348 0.597565
vt 0.644643 0.59918898
vt 0.652029 0.620476
vt 0.654312 0.59457803
vt 0.643688 0.59633
vt 0.654221 0.58786702
vt 0.641527 0.58995402
vt 0.63401 0.601272
vt 0.62998 0.595806
vt 0.620708 0.60511398
vt 0.626317 0.609097
vt 0.62883 0.61083502
vt 0.635834 0.603715
vt 0.648046 0.62351203
vt 0.649799 0.62167102
vt 0.648046 0.62351203
vt 0.651414 0.62556303
vt 0.649799 0.62167102
vt 0.652252 0.624699
vt 0.653469 0.626256
vt 0.652252 0.624699
vt 0.653055 0.62663
vt 0.654003 0.626011
vt 0.653055 0.62663
vt 0.654552 0.627423
vt 0.653469 0.626256
vt 0.654561 0.627414
vt 0.652824 0.627097
vt 0.651414 0.62556303
vt 0.650901 0.626621
vt 0.647049 0.625722
vt 0.61289 0.63067198
vt 0.619759 0.63014603
vt 0.61461 0.61707902
vt 0.616589 0.64397
vt 0.622627 0.62990803
vt 0.621284 0.61900502
vt 0.622973 0.64103597
vt 0.625795 0.63975
vt 0.646813 0.628151
vt 0.624232 0.619834
vt 0.64745 0.63040698
vt 0.646813 0.628151
vt 0.650804 0.62777
vt 0.647049 0.625722
vt 0.651116 0.62887597
vt 0.64745 0.63040698
vt 0.652824 0.627097
vt 0.650901 0.626621
vt 0.652764 0.6276
vt 0.650804 0.62777
vt 0.651116 0.62887597
vt 0.652764 0.6276
vt 0.654546 0.627446
vt 0.652824 0.627097
vt 0.652904 0.628084
vt 0.654549 0.62745702
vt 0.653228 0.62849897
vt 0.654556 0.62746698
vt 0.654566 0.627474
vt 0.653712 0.62879503
vt 0.652904 0.628084
vt 0.653228 0.62849897
vt 0.651806 0.62983298
vt 0.652785 0.630544
vt 0.648852 0.632425
vt 0.651806 0.62983298
vt 0.652785 0.630544
vt 0.650906 0.63394803
vt 0.631766 0.648099
vt 0.648852 0.632425
vt 0.650906 0.63394803
vt 0.639921 0.654185
vt 0.629515 0.65023297
vt 0.638473 0.656918
vt 0.624485 0.655101
vt 0.635298 0.66309798
vt 0.649058 0.66044998
vt 0.647949 0.66728997
vt 0.660188 0.660433
vt 0.661258 0.66728997
vt 0.659705 0.65739202
vt 0.64956 0.65738302
vt 0.655904 0.634731
vt 0.653335 0.63474202
vt 0.655904 0.634731
vt 0.655222 0.63090003
vt 0.653335 0.63474202
vt 0.653972 0.630906
vt 0.653972 0.630906
vt 0.655222 0.63090003
vt 0.654279 0.628958
vt 0.653712 0.62879503
vt 0.654881 0.628946
vt 0.654591 0.627478
vt 0.654279 0.628958
vt 0.654579 0.627478
vt 0.654604 0.627474
vt 0.655449 0.628771
vt 0.654614 0.62746602
vt 0.655919 0.62844902
vt 0.656407 0.630513
vt 0.657399 0.62979
vt 0.655449 0.628771
vt 0.654881 0.628946
vt 0.657399 0.62979
vt 0.656407 0.630513
vt 0.660362 0.632366
vt 0.658339 0.633909
vt 0.660362 0.632366
vt 0.658339 0.633909
vt 0.67768 0.64815003
vt 0.6694 0.65425497
vt 0.67996 0.650329
vt 0.670847 0.65704298
vt 0.685038 0.655316
vt 0.674035 0.66328502
vt 0.693247 0.644082
vt 0.6867 0.64097297
vt 0.690334 0.62982
vt 0.697248 0.630338
vt 0.686537 0.629623
vt 0.683686 0.639655
vt 0.662354 0.627935
vt 0.661752 0.630287
vt 0.658359 0.627688
vt 0.658069 0.62880898
vt 0.662354 0.627935
vt 0.661752 0.630287
vt 0.658069 0.62880898
vt 0.658359 0.627688
vt 0.656258 0.628026
vt 0.655919 0.62844902
vt 0.654624 0.62744498
vt 0.654621 0.62745702
vt 0.656415 0.62754
vt 0.656258 0.628026
vt 0.65635 0.62704402
vt 0.654623 0.627433
vt 0.656115 0.626585
vt 0.654618 0.62742198
vt 0.65635 0.62704402
vt 0.658264 0.62654603
vt 0.656115 0.626585
vt 0.656415 0.62754
vt 0.661065 0.62339997
vt 0.657751 0.62550002
vt 0.66211 0.625592
vt 0.658264 0.62654603
vt 0.68028 0.610339
vt 0.661065 0.62339997
vt 0.685005 0.61942202
vt 0.66211 0.625592
vt 0.682819 0.60849
vt 0.688103 0.618523
vt 0.688411 0.604293
vt 0.694911 0.61631697
vt 0.678706 0.595249
vt 0.674794 0.600861
vt 0.666986 0.589598
vt 0.66501 0.596057
vt 0.664109 0.59895802
vt 0.673032 0.60334003
vt 0.657085 0.620454
vt 0.659332 0.62161702
vt 0.655804 0.62411702
vt 0.656902 0.624659
vt 0.657085 0.620454
vt 0.659332 0.62161702
vt 0.656902 0.624659
vt 0.655804 0.62411702
vt 0.655711 0.62622
vt 0.657751 0.62550002
vt 0.654598 0.62740803
vt 0.654609 0.627414
vt 0.655184 0.62598598
vt 0.655711 0.62622
vt 0.654585 0.627407
vt 0.654593 0.62590998
vt 0.654003 0.626011
vt 0.654572 0.62740898
vt 0.654575 0.62393802
vt 0.655184 0.62598598
vt 0.653343 0.62413102
vt 0.654593 0.62590998
vt 0.654575 0.62393802
vt 0.654562 0.62005597
vt 0.652029 0.620476
vt 0.653343 0.62413102
vt 0.654562 0.62005597
vt 0.654348 0.597565
vt 0.652029 0.620476
vt 0.644643 0.59918898
vt 0.654312 0.59457803
vt 0.643688 0.59633
vt 0.654221 0.58786702
vt 0.641527 0.58995402
vt 0.62998 0.595806
vt 0.63401 0.601272
vt 0.626317 0.609097
vt 0.620708 0.60511398
vt 0.62883 0.61083502
vt 0.635834 0.603715
vt 0.648046 0.62351203
vt 0.649799 0.62167102
vt 0.648046 0.62351203
vt 0.651414 0.62556303
vt 0.649799 0.62167102
vt 0.652252 0.624699
vt 0.653469 0.626256
vt 0.652252 0.624699
vt 0.653055 0.62663
vt 0.654003 0.626011
vt 0.653055 0.62663
vt 0.654552 0.627423
vt 0.653469 0.626256
vt 0.654561 0.627414
vt 0.654547 0.62743402
vt 0.651414 0.62556303
vt 0.650901 0.626621
vt 0.647049 0.625722
vt 0.61289 0.63067198
vt 0.619759 0.63014603
vt 0.61461 0.61707902
vt 0.616589 0.64397
vt 0.622973 0.64103597
vt 0.622627 0.62990803
vt 0.621284 0.61900502
vt 0.625795 0.63975
vt 0.646813 0.628151
vt 0.624232 0.619834
vt 0.64745 0.63040698
vt 0.646813 0.628151
vt 0.650804 0.62777
vt 0.647049 0.625722
vt 0.651116 0.62887597
vt 0.64745 0.63040698
vt 0.652824 0.627097
vt 0.650901 0.626621
vt 0.652764 0.6276
vt 0.650804 0.62777
vt 0.651116 0.62887597
vt 0.654546 0.627446
vt 0.654547 0.62743402
vt 0.652764 0.6276
vt 0.652904 0.628084
vt 0.654549 0.62745702
vt 0.653228 0.62849897
vt 0.654556 0.62746698
vt 0.654566 0.627474
vt 0.653712 0.62879503
vt 0.652904 0.628084
vt 0.653228 0.62849897
vt 0.651806 0.62983298
vt 0.652785 0.630544
vt 0.648852 0.632425
vt 0.651806 0.62983298
vt 0.652785 0.630544
vt 0.650906 0.63394803
vt 0.631766 0.648099
vt 0.648852 0.632425
vt 0.639921 0.654185
vt 0.650906 0.63394803
vt 0.629515 0.65023297
vt 0.638473 0.656918
vt 0.624485 0.655101
vt 0.635298 0.66309798
vt 0.649058 0.66044998
vt 0.647949 0.66728997
vt 0.660188 0.660433
vt 0.661258 0.66728997
vt 0.659705 0.65739202
vt 0.64956 0.65738302
vt 0.655904 0.634731
vt 0.653335 0.63474202
vt 0.655904 0.634731
vt 0.655222 0.63090003
vt 0.653335 0.63474202
vt 0.653972 0.630906
vt 0.653972 0.630906
vt 0.655222 0.63090003
vt 0.654279 0.628958
vt 0.653712 0.62879503
vt 0.654881 0.628946
vt 0.654591 0.627478
vt 0.654279 0.628958
vt 0.654579 0.627478
vt 0.654604 0.627474
vt 0.655449 0.628771
vt 0.654614 0.62746602
vt 0.655919 0.62844902
vt 0.656407 0.630513
vt 0.657399 0.62979
vt 0.655449 0.628771
vt 0.654881 0.628946
vt 0.657399 0.62979
vt 0.656407 0.630513
vt 0.660362 0.632366
vt 0.658339 0.633909
vt 0.660362 0.632366
vt 0.658339 0.633909
vt 0.67768 0.64815003
vt 0.6694 0.65425497
vt 0.67996 0.650329
vt 0.670847 0.65704298
vt 0.685038 0.655316
vt 0.674035 0.66328502
vt 0.693247 0.644082
vt 0.6867 0.64097297
vt 0.697248 0.630338
vt 0.690334 0.62982
vt 0.686537 0.629623
vt 0.683686 0.639655
vt 0.662354 0.627935
vt 0.661752 0.630287
vt 0.658359 0.627688
vt 0.658069 0.62880898
vt 0.662354 0.627935
vt 0.661752 0.630287
vt 0.656258 0.628026
vt 0.658069 0.62880898
vt 0.656415 0.62754
vt 0.655919 0.62844902
vt 0.654624 0.62744498
vt 0.654621 0.62745702
vt 0.656415 0.62754
vt 0.656258 0.628026
vt 0.654623 0.627433
vt 0.65635 0.62704402
vt 0.656115 0.626585
vt 0.654618 0.62742198
vt 0.65635 0.62704402
vt 0.658264 0.62654603
vt 0.656115 0.626585
vt 0.658359 0.627688
vt 0.661065 0.62339997
vt 0.657751 0.62550002
vt 0.66211 0.625592
vt 0.658264 0.62654603
vt 0.68028 0.610339
vt 0.661065 0.62339997
vt 0.685005 0.61942202
vt 0.66211 0.625592
vt 0.682819 0.60849
vt 0.688103 0.618523
vt 0.688411 0.604293
vt 0.694911 0.61631697
vt 0.678706 0.595249
vt 0.674794 0.600861
vt 0.666986 0.589598
vt 0.66501 0.596057
vt 0.664109 0.59895802
vt 0.673032 0.60334003
vt 0.657085 0.620454
vt 0.659332 0.62161702
vt 0.657085 0.620454
vt 0.655804 0.62411702
vt 0.659332 0.62161702
vt 0.656902 0.624659
vt 0.655711 0.62622
vt 0.656902 0.624659
vt 0.655184 0.62598598
vt 0.657751 0.62550002
vt 0.654598 0.62740803
vt 0.654609 0.627414
vt 0.655184 0.62598598
vt 0.655711 0.62622
vt 0.654585 0.627407
vt 0.654593 0.62590998
vt 0.654003 0.626011
vt 0.654572 0.62740898
vt 0.655804 0.62411702
vt 0.654575 0.62393802
vt 0.654593 0.62590998
vt 0.654003 0.626011
vt 0.654575 0.62393802
vt 0.654562 0.62005597
vt 0.652029 0.620476
vt 0.653343 0.62413102
vt 0.654562 0.62005597
vt 0.654348 0.597565
vt 0.652029 0.620476
vt 0.644643 0.59918898
vt 0.654312 0.59457803
vt 0.643688 0.59633
vt 0.654221 0.58786702
vt 0.641527 0.58995402
vt 0.62998 0.595806
vt 0.63401 0.601272
vt 0.620708 0.60511398
vt 0.626317 0.609097
vt 0.62883 0.61083502
vt 0.635834 0.603715
vt 0.648046 0.62351203
vt 0.649799 0.62167102
vt 0.648046 0.62351203
vt 0.651414 0.62556303
vt 0.649799 0.62167102
vt 0.652252 0.624699
vt 0.653469 0.626256
vt 0.652252 0.624699
vt 0.653055 0.62663
vt 0.653343 0.62413102
vt 0.653055 0.62663
vt 0.654552 0.627423
vt 0.653469 0.626256
vt 0.654561 0.627414
vt 0.652824 0.627097
vt 0.651414 0.62556303
vt 0.650901 0.626621
vt 0.647049 0.625722
vt 0.61289 0.63067198
vt 0.619759 0.63014603
vt 0.61461 0.61707902
vt 0.616589 0.64397
vt 0.622973 0.64103597
vt 0.622627 0.62990803
vt 0.621284 0.61900502
vt 0.646813 0.628151
vt 0.624232 0.619834
vt 0.625795 0.63975
vt 0.64745 0.63040698
vt 0.646813 0.628151
vt 0.650804 0.62777
vt 0.647049 0.625722
vt 0.651116 0.62887597
vt 0.64745 0.63040698
vt 0.652824 0.627097
vt 0.650901 0.626621
vt 0.652764 0.6276
vt 0.650804 0.62777
vt 0.651116 0.62887597
vt 0.654546 0.627446
vt 0.654547 0.62743402
vt 0.652764 0.6276
vt 0.652904 0.628084
vt 0.654549 0.62745702
vt 0.653228 0.62849897
vt 0.654556 0.62746698
vt 0.654566 0.627474
vt 0.653712 0.62879503
vt 0.651806 0.62983298
vt 0.652904 0.628084
vt 0.652785 0.630544
vt 0.653228 0.62849897
vt 0.648852 0.632425
vt 0.651806 0.62983298
vt 0.652785 0.630544
vt 0.650906 0.63394803
vt 0.631766 0.648099
vt 0.648852 0.632425
vt 0.639921 0.654185
vt 0.650906 0.63394803
vt 0.629515 0.65023297
vt 0.638473 0.656918
vt 0.624485 0.655101
vt 0.635298 0.66309798
vt 0.649058 0.66044998
vt 0.647949 0.66728997
vt 0.660188 0.660433
vt 0.661258 0.66728997
vt 0.659705 0.65739202
vt 0.64956 0.65738302
vt 0.655904 0.634731
vt 0.653335 0.63474202
vt 0.655904 0.634731
vt 0.655222 0.63090003
vt 0.653335 0.63474202
vt 0.653972 0.630906
vt 0.653972 0.630906
vt 0.655222 0.63090003
vt 0.654279 0.628958
vt 0.653712 0.62879503
vt 0.654591 0.627478
vt 0.654579 0.627478
vt 0.654881 0.628946
vt 0.654279 0.628958
vt 0.655449 0.628771
vt 0.654604 0.627474
vt 0.654614 0.62746602
vt 0.655919 0.62844902
vt 0.656407 0.630513
vt 0.657399 0.62979
vt 0.655449 0.628771
vt 0.654881 0.628946
vt 0.657399 0.62979
vt 0.656407 0.630513
vt 0.660362 0.632366
vt 0.658339 0.633909
vt 0.660362 0.632366
vt 0.658339 0.633909
vt 0.67768 0.64815003
vt 0.6694 0.65425497
vt 0.67996 0.650329
vt 0.670847 0.65704298
vt 0.685038 0.655316
vt 0.674035 0.66328502
vt 0.6867 0.64097297
vt 0.693247 0.644082
vt 0.690334 0.62982
vt 0.697248 0.630338
vt 0.686537 0.629623
vt 0.683686 0.639655
vt 0.662354 0.627935
vt 0.661752 0.630287
vt 0.658359 0.627688
vt 0.658069 0.62880898
vt 0.662354 0.627935
vt 0.661752 0.630287
vt 0.658069 0.62880898
vt 0.658359 0.627688
vt 0.656258 0.628026
vt 0.655919 0.62844902
vt 0.654624 0.62744498
vt 0.654621 0.62745702
vt 0.656415 0.62754
vt 0.656258 0.628026
vt 0.654623 0.627433
vt 0.65635 0.62704402
vt 0.656115 0.626585
vt 0.654618 0.62742198
vt 0.658264 0.62654603
vt 0.657751 0.62550002
vt 0.65635 0.62704402
vt 0.656415 0.62754
vt 0.661065 0.62339997
vt 0.657751 0.62550002
vt 0.66211 0.625592
vt 0.658264 0.62654603
vt 0.661065 0.62339997
vt 0.66211 0.625592
vt 0.68028 0.610339
vt 0.685005 0.61942202
vt 0.682819 0.60849
vt 0.688103 0.618523
vt 0.688411 0.604293
vt 0.694911 0.61631697
vt 0.678706 0.595249
vt 0.674794 0.600861
vt 0.666986 0.589598
vt 0.66501 0.596057
vt 0.664109 0.59895802
vt 0.673032 0.60334003
vt 0.657085 0.620454
vt 0.659332 0.62161702
vt 0.655804 0.62411702
vt 0.656902 0.624659
vt 0.657085 0.620454
vt 0.659332 0.62161702
vt 0.656902 0.624659
vt 0.655804 0.62411702
vt 0.655711 0.62622
vt 0.656115 0.626585
vt 0.654598 0.62740803
vt 0.654609 0.627414
vt 0.655184 0.62598598
vt 0.655711 0.62622
vt 0.654585 0.627407
vt 0.654593 0.62590998
vt 0.654003 0.626011
vt 0.654572 0.62740898
vt 0.654575 0.62393802
vt 0.655184 0.62598598
vt 0.654593 0.62590998
vt 0.654003 0.626011
vt 0.654575 0.62393802
vt 0.654562 0.62005597
vt 0.652029 0.620476
vt 0.653343 0.62413102
vt 0.654348 0.597565
vt 0.654562 0.62005597
vt 0.644643 0.59918898
vt 0.652029 0.620476
vt 0.654312 0.59457803
vt 0.643688 0.59633
vt 0.654221 0.58786702
vt 0.641527 0.58995402
vt 0.62998 0.595806
vt 0.63401 0.601272
vt 0.626317 0.609097
vt 0.620708 0.60511398
vt 0.62883 0.61083502
vt 0.635834 0.603715
vt 0.648046 0.62351203
vt 0.649799 0.62167102
vt 0.648046 0.62351203
vt 0.651414 0.62556303
vt 0.649799 0.62167102
vt 0.652252 0.624699
vt 0.653469 0.626256
vt 0.652252 0.624699
vt 0.653055 0.62663
vt 0.653343 0.62413102
vt 0.653055 0.62663
vt 0.654552 0.627423
vt 0.653469 0.626256
vt 0.654561 0.627414
vt 0.652824 0.627097
vt 0.651414 0.62556303
vt 0.650901 0.626621
vt 0.647049 0.625722
vn -0.0173 -0.925 0.3795
vn -0.0096 -0.969 0.247
vn -0.3162 -0.8765 0.3631
vn 0.2812 -0.8738 0.3968
vn 0.3035 -0.9151 0.2655
vn 0.0546 -0.344 -0.9374
vn -0.3058 -0.9244 0.2279
vn 0.0565 -0.1569 -0.986
vn -0.6467 -0.3734 -0.6651
vn 0.7524 -0.4879 -0.4426
vn 0.1104 -0.1476 -0.9829
vn 0.0051 -0.9999 -0.0093
vn 0.0051 -0.9999 -0.0093
vn -0.3194 -0.9472 -0.0271
vn 0.329 -0.9443 0.0095
vn 0.329 -0.9443 0.0095
vn 0.0563 0.0096 -0.9984
vn 0.0564 0.0096 -0.9984
vn 0.0563 0.0096 -0.9984
vn 0.0565 0.0095 -0.9984
vn 0.0564 0.0096 -0.9984
vn 0.0051 -0.9999 -0.0093
vn -0.3194 -0.9472 -0.0271
vn 0.0051 -0.9999 -0.0093
vn 0.329 -0.9443 0.0095
vn 0.329 -0.9443 0.0095
vn 0.6172 -0.7863 0.0273
vn 0.6172 -0.7863 0.0274
vn 0.8386 -0.5431 0.0422
vn 0.8386 -0.5431 0.0422
vn 0.0564 0.0096 -0.9984
vn 0.0564 0.0095 -0.9984
vn 0.0564 0.0096 -0.9984
vn 0.0564 0.0096 -0.9984
vn 0.6172 -0.7863 0.0273
vn 0.6172 -0.7863 0.0273
vn 0.8386 -0.5431 0.0422
vn 0.8386 -0.5431 0.0422
vn 0.263 -0.2585 -0.9295
vn 0.1583 -0.1214 -0.9799
vn 0.3488 -0.1828 -0.9192
vn 0.1951 -0.0809 -0.9774
vn 0.5681 -0.7742 0.279
vn 0.7961 -0.5274 0.2967
vn 0.5467 -0.7282 0.4133
vn 0.7507 -0.5041 0.4269
vn 0.9222 -0.2355 0.3069
vn 0.8709 -0.2258 0.4364
vn 0.9468 0.0817 0.3112
vn 0.8944 0.0765 0.4406
vn 0.3987 0.0393 -0.9162
vn 0.8337 0.3504 -0.4269
vn 0.2211 0.024 -0.975
vn 0.2169 -0.0306 -0.9757
vn 0.9946 0.0871 0.057
vn 0.9946 0.0871 0.0571
vn 0.9691 -0.2411 0.0525
vn 0.9691 -0.2411 0.0525
vn 0.0564 0.0096 -0.9984
vn 0.0565 0.0096 -0.9984
vn 0.0565 0.0096 -0.9984
vn 0.0564 0.0096 -0.9984
vn 0.9946 0.0871 0.0571
vn 0.9691 -0.2411 0.0524
vn 0.9946 0.0871 0.057
vn 0.9691 -0.2411 0.0525
vn 0.9123 0.4058 0.0555
vn 0.9123 0.4058 0.0555
vn 0.7311 0.6806 0.0479
vn 0.7311 0.6806 0.0479
vn 0.0565 0.0095 -0.9984
vn 0.0565 0.0095 -0.9984
vn 0.0564 0.0095 -0.9984
vn 0.0564 0.0096 -0.9984
vn 0.7311 0.6806 0.0478
vn 0.9123 0.4058 0.0555
vn 0.7311 0.6806 0.0479
vn 0.9123 0.4058 0.0555
vn 0.3071 0.2456 -0.9194
vn 0.1772 0.1227 -0.9765
vn 0.3406 0.2252 -0.9128
vn 0.2074 0.0769 -0.9752
vn 0.6922 0.6554 0.3023
vn 0.9033 0.3377 0.2647
vn 0.6517 0.6233 0.4321
vn 0.8186 0.3702 0.4392
vn 0.4405 0.8496 0.29
vn 0.4118 0.8085 0.4204
vn 0.1395 0.9516 0.2739
vn 0.1249 0.9057 0.4051
vn 0.1068 0.3417 -0.9337
vn -0.088 0.871 -0.4833
vn 0.0821 0.1737 -0.9814
vn 0.1339 0.1561 -0.9786
vn 0.1594 0.987 0.0185
vn 0.4707 0.8816 0.0351
vn 0.1593 0.9871 0.0184
vn 0.4707 0.8816 0.035
vn 0.0564 0.0095 -0.9984
vn 0.0564 0.0096 -0.9984
vn 0.0563 0.0096 -0.9984
vn 0.0563 0.0096 -0.9984
vn 0.1593 0.9871 0.0185
vn 0.4708 0.8816 0.0351
vn 0.1593 0.9871 0.0185
vn 0.4708 0.8816 0.0351
vn -0.1693 0.9856 -0.0001
vn -0.1694 0.9856 -0.0001
vn -0.4796 0.8773 -0.0187
vn -0.4796 0.8773 -0.0187
vn 0.0564 0.0096 -0.9984
vn 0.0564 0.0096 -0.9984
vn 0.0563 0.0096 -0.9984
vn 0.0564 0.0096 -0.9984
vn -0.4796 0.8773 -0.0187
vn -0.4797 0.8773 -0.0187
vn -0.1693 0.9856 -0.0001
vn -0.1693 0.9856 -0.0001
vn -0.0241 0.1554 -0.9876
vn 0.0275 0.1734 -0.9845
vn -0.6955 0.2741 -0.6641
vn 0.4249 0.7278 -0.5383
vn -0.4781 0.8456 0.2375
vn -0.1165 0.97 0.2132
vn -0.4638 0.8046 0.3709
vn -0.1779 0.9043 0.388
vn -0.7019 0.6172 0.3556
vn -0.7277 0.6489 0.2221
vn -0.8662 0.3625 0.3439
vn -0.9001 0.3818 0.2097
vn -0.2657 0.1471 -0.9528
vn -0.8415 0.1006 -0.5309
vn -0.0968 0.0756 -0.9924
vn -0.0671 0.1216 -0.9903
vn -0.9163 0.3975 -0.048
vn -0.738 0.6739 -0.0353
vn -0.9163 0.3975 -0.048
vn -0.738 0.6739 -0.0353
vn 0.0565 0.0096 -0.9984
vn 0.0564 0.0096 -0.9984
vn 0.0564 0.0096 -0.9984
vn 0.0564 0.0096 -0.9984
vn -0.9163 0.3975 -0.048
vn -0.738 0.6739 -0.0352
vn -0.9163 0.3975 -0.048
vn -0.738 0.6739 -0.0352
vn -0.9954 0.0781 -0.0555
vn -0.9954 0.0781 -0.0555
vn -0.9666 -0.2499 -0.057
vn -0.9666 -0.2499 -0.057
vn 0.0564 0.0096 -0.9984
vn 0.0565 0.0096 -0.9984
vn 0.0565 0.0095 -0.9984
vn 0.0564 0.0096 -0.9984
vn -0.9954 0.0781 -0.0555
vn -0.9954 0.0781 -0.0555
vn -0.9666 -0.2498 -0.057
vn -0.9666 -0.2499 -0.057
vn -0.1099 0.0224 -0.9937
vn -0.5882 -0.46 -0.6651
vn -0.2922 -0.0802 -0.953
vn -0.1052 -0.0321 -0.9939
vn -0.9766 0.073 0.2023
vn -0.9537 -0.2261 0.1984
vn -0.9391 0.0682 0.3369
vn -0.9125 -0.2339 0.3355
vn -0.8197 -0.5348 0.205
vn -0.7895 -0.5111 0.3398
vn -0.5832 -0.7333 0.3494
vn -0.6033 -0.7678 0.2157
vn -0.1681 -0.2781 -0.9457
vn -0.2328 -0.18 -0.9557
vn -0.0457 -0.1223 -0.9914
vn -0.0829 -0.0822 -0.9932
vn -0.6092 -0.7919 -0.042
vn -0.6092 -0.7919 -0.042
vn -0.8331 -0.5507 -0.0524
vn -0.833 -0.5507 -0.0524
vn 0.0564 0.0095 -0.9984
vn 0.0564 0.0096 -0.9984
vn 0.0564 0.0096 -0.9984
vn 0.0564 0.0095 -0.9984
vn -0.6092 -0.7919 -0.042
vn -0.6092 -0.7919 -0.042
vn -0.8331 -0.5507 -0.0524
vn -0.8331 -0.5507 -0.0524
vn -0.3194 -0.9472 -0.0272
vn 0.0564 0.0096 -0.9984
vn -0.3194 -0.9472 -0.0271
vn 0.0025 -0.1481 -0.989
vn 0.0035 -0.925 0.3799
vn 0.004 -0.9689 0.2475
vn -0.2959 -0.8765 0.3798
vn 0.3025 -0.8738 0.3809
vn 0.0035 -0.3535 -0.9354
vn -0.2929 -0.9244 0.2444
vn 0.2616 -0.9468 0.1874
vn 0.1145 -0.315 -0.9422
vn 0.0024 -0.1569 -0.9876
vn -0.6822 -0.3734 -0.6287
vn 0.0564 -0.1476 -0.9874
vn 0.0046 -0.9999 -0.0096
vn 0.0046 -0.9999 -0.0096
vn -0.3204 -0.9472 -0.0096
vn 0.329 -0.9443 -0.0085
vn 0.329 -0.9443 -0.0085
vn 0.0016 0.0096 -1
vn 0.0017 0.0096 -1
vn 0.0016 0.0096 -1
vn 0.0017 0.0096 -1
vn 0.0016 0.0096 -1
vn 0.0046 -0.9999 -0.0096
vn 0.0046 -0.9999 -0.0096
vn -0.3204 -0.9472 -0.0096
vn 0.329 -0.9443 -0.0085
vn 0.329 -0.9443 -0.0085
vn 0.6178 -0.7863 -0.0065
vn 0.6178 -0.7863 -0.0065
vn 0.8397 -0.5431 -0.0038
vn 0.8396 -0.5431 -0.0038
vn 0.0017 0.0096 -1
vn 0.0017 0.0095 -1
vn 0.0016 0.0096 -1
vn 0.0017 0.0096 -1
vn 0.6178 -0.7863 -0.0065
vn 0.6178 -0.7863 -0.0065
vn 0.8396 -0.5431 -0.0038
vn 0.8396 -0.5431 -0.0038
vn 0.2255 -0.276 -0.9343
vn 0.1044 -0.1214 -0.9871
vn 0.1413 -0.0809 -0.9866
vn 0.7723 0.1215 -0.6235
vn 0.5825 -0.7742 0.2474
vn 0.8015 -0.5432 0.2501
vn 0.5686 -0.7282 0.3827
vn 0.773 -0.5041 0.3852
vn 0.9376 -0.2355 0.2558
vn 0.8935 -0.2258 0.3881
vn 0.9624 0.0817 0.2589
vn 0.9172 0.0765 0.391
vn 0.3479 0.0394 -0.9367
vn 0.8085 0.3534 -0.4705
vn 0.1674 0.024 -0.9856
vn 0.1631 -0.0306 -0.9861
vn 0.9962 0.0871 0.0025
vn 0.9962 0.0871 0.0025
vn 0.9705 -0.2411 -0.0007
vn 0.9705 -0.2411 -0.0007
vn 0.0017 0.0096 -1
vn 0.0017 0.0096 -1
vn 0.0017 0.0096 -1
vn 0.0017 0.0095 -1
vn 0.9962 0.0871 0.0025
vn 0.9962 0.0871 0.0025
vn 0.9705 -0.2411 -0.0007
vn 0.9705 -0.2411 -0.0007
vn 0.9139 0.4059 0.0054
vn 0.9139 0.4058 0.0054
vn 0.7326 0.6806 0.0077
vn 0.7326 0.6806 0.0077
vn 0.0018 0.0095 -1
vn 0.0017 0.0096 -1
vn 0.0018 0.0095 -1
vn 0.0017 0.0096 -1
vn 0.7326 0.6806 0.0077
vn 0.9139 0.4058 0.0054
vn 0.7326 0.6806 0.0077
vn 0.9139 0.4058 0.0054
vn 0.1235 0.1227 -0.9847
vn 0.1537 0.0769 -0.9851
vn 0.0752 0.7827 -0.6178
vn 0.7979 -0.199 -0.569
vn 0.7078 0.6554 0.2637
vn 0.9164 0.3377 0.2149
vn 0.6744 0.6233 0.3958
vn 0.8414 0.3702 0.3937
vn 0.4342 0.8085 0.3972
vn 0.4557 0.8496 0.2656
vn 0.1543 0.9516 0.2658
vn 0.1469 0.9057 0.3977
vn 0.0578 0.3574 -0.9322
vn -0.1142 0.871 -0.4778
vn 0.0283 0.1736 -0.9844
vn 0.0802 0.1561 -0.9845
vn 0.1601 0.987 0.0097
vn 0.472 0.8816 0.0092
vn 0.1601 0.9871 0.0097
vn 0.4719 0.8816 0.0092
vn 0.0016 0.0096 -1
vn 0.0016 0.0096 -1
vn 0.0017 0.0096 -1
vn 0.0016 0.0096 -1
vn 0.1601 0.9871 0.0097
vn 0.472 0.8816 0.0092
vn 0.1601 0.9871 0.0097
vn 0.472 0.8816 0.0092
vn -0.1691 0.9855 0.0092
vn -0.169 0.9856 0.0092
vn -0.4799 0.8773 0.0076
vn -0.4799 0.8773 0.0076
vn 0.0016 0.0096 -1
vn 0.0016 0.0096 -1
vn 0.0017 0.0096 -1
vn 0.0017 0.0096 -1
vn -0.4799 0.8773 0.0076
vn -0.4799 0.8773 0.0076
vn -0.1691 0.9856 0.0092
vn -0.1691 0.9856 0.0092
vn -0.1617 0.3074 -0.9377
vn -0.0782 0.1554 -0.9848
vn -0.1369 0.3311 -0.9336
vn -0.0265 0.1734 -0.9845
vn -0.4485 0.8548 0.2611
vn -0.226 0.9492 0.2188
vn -0.4428 0.8045 0.3957
vn -0.1564 0.9043 0.3972
vn -0.6813 0.6172 0.3935
vn -0.7145 0.6489 0.2615
vn -0.8461 0.3625 0.3908
vn -0.8873 0.3818 0.2586
vn -0.3223 0.1492 -0.9348
vn -0.8674 0.1058 -0.4863
vn -0.151 0.0756 -0.9856
vn -0.1212 0.1216 -0.9852
vn -0.9176 0.3975 0.0023
vn -0.7388 0.6739 0.0052
vn -0.9176 0.3975 0.0023
vn -0.7388 0.6739 0.0052
vn 0.0017 0.0096 -1
vn 0.0017 0.0096 -1
vn 0.0017 0.0096 -1
vn 0.0017 0.0096 -1
vn -0.9176 0.3975 0.0023
vn -0.7388 0.6739 0.0052
vn -0.9176 0.3975 0.0023
vn -0.7388 0.6739 0.0052
vn -0.9969 0.0781 -0.0009
vn -0.9969 0.0781 -0.0009
vn -0.9683 -0.2499 -0.004
vn -0.9683 -0.2499 -0.004
vn 0.0017 0.0096 -1
vn 0.0017 0.0096 -1
vn 0.0017 0.0095 -1
vn 0.0017 0.0096 -1
vn -0.9969 0.0781 -0.0009
vn -0.9969 0.0781 -0.0009
vn -0.9683 -0.2499 -0.004
vn -0.9683 -0.2499 -0.004
vn -0.1642 0.0224 -0.9862
vn -0.6261 -0.4558 -0.6326
vn -0.1594 -0.0321 -0.9867
vn -0.4363 -0.6397 -0.6328
vn -0.9631 0.0914 0.2531
vn -0.9414 -0.2262 0.2502
vn -0.9192 0.0682 0.3879
vn -0.8928 -0.2339 0.385
vn -0.7697 -0.5111 0.3826
vn -0.8071 -0.5347 0.2502
vn -0.5906 -0.7678 0.2482
vn -0.5632 -0.7333 0.3808
vn -0.2199 -0.2779 -0.9351
vn -0.2848 -0.1799 -0.9416
vn -0.0999 -0.1223 -0.9874
vn -0.1372 -0.0822 -0.9871
vn -0.6106 -0.7919 -0.0086
vn -0.6106 -0.7919 -0.0086
vn -0.8347 -0.5507 -0.0067
vn -0.8347 -0.5507 -0.0067
vn 0.0017 0.0095 -1
vn 0.0017 0.0096 -1
vn 0.0017 0.0096 -1
vn 0.0017 0.0095 -1
vn -0.6106 -0.7919 -0.0086
vn -0.6106 -0.7919 -0.0086
vn -0.8347 -0.5507 -0.0067
vn -0.8347 -0.5507 -0.0067
vn -0.3204 -0.9472 -0.0096
vn 0.0017 0.0096 -1
vn -0.3204 -0.9472 -0.0096
vn -0.0517 -0.1481 -0.9876
vn 0.0035 -0.925 0.3799
vn 0.004 -0.9689 0.2472
vn -0.2959 -0.8765 0.3798
vn 0.3025 -0.8738 0.3809
vn 0.3175 -0.9151 0.2484
vn 0.0033 -0.3535 -0.9354
vn -0.2928 -0.9244 0.2446
vn 0.1145 -0.315 -0.9422
vn 0.0024 -0.1569 -0.9876
vn -0.6822 -0.3734 -0.6287
vn 0.0564 -0.1476 -0.9874
vn 0.0046 -0.9999 -0.0096
vn 0.0046 -0.9999 -0.0096
vn -0.3204 -0.9472 -0.0096
vn 0.329 -0.9443 -0.0085
vn 0.329 -0.9443 -0.0085
vn 0.0016 0.0096 -1
vn 0.0017 0.0096 -1
vn 0.0016 0.0096 -1
vn 0.0017 0.0096 -1
vn 0.0016 0.0096 -1
vn 0.0046 -0.9999 -0.0096
vn -0.3204 -0.9472 -0.0096
vn 0.0046 -0.9999 -0.0096
vn 0.329 -0.9443 -0.0085
vn 0.329 -0.9443 -0.0085
vn 0.6177 -0.7864 -0.0065
vn 0.6178 -0.7863 -0.0065
vn 0.8397 -0.5431 -0.0038
vn 0.8396 -0.5432 -0.0038
vn 0.0017 0.0096 -1
vn 0.0017 0.0095 -1
vn 0.0016 0.0096 -1
vn 0.0017 0.0096 -1
vn 0.6177 -0.7864 -0.0065
vn 0.6178 -0.7863 -0.0065
vn 0.8397 -0.5431 -0.0038
vn 0.8396 -0.5431 -0.0038
vn 0.2164 -0.2644 -0.9398
vn 0.1044 -0.1214 -0.9871
vn 0.3011 -0.1849 -0.9355
vn 0.1413 -0.0809 -0.9867
vn 0.5827 -0.7742 0.2471
vn 0.8015 -0.5432 0.2502
vn 0.5686 -0.7282 0.3827
vn 0.773 -0.5041 0.3852
vn 0.9376 -0.2355 0.2558
vn 0.8935 -0.2258 0.3881
vn 0.9624 0.0817 0.2589
vn 0.9172 0.0765 0.391
vn 0.3479 0.0393 -0.9367
vn 0.8085 0.3534 -0.4705
vn 0.1674 0.024 -0.9856
vn 0.1631 -0.0306 -0.9861
vn 0.9962 0.0871 0.0025
vn 0.9962 0.0871 0.0025
vn 0.9705 -0.241 -0.0007
vn 0.9705 -0.2411 -0.0007
vn 0.0017 0.0096 -1
vn 0.0017 0.0096 -1
vn 0.0017 0.0096 -1
vn 0.0017 0.0095 -1
vn 0.9962 0.0871 0.0025
vn 0.9962 0.0871 0.0025
vn 0.9705 -0.241 -0.0007
vn 0.9705 -0.2411 -0.0007
vn 0.9139 0.4058 0.0054
vn 0.9139 0.4058 0.0054
vn 0.7327 0.6806 0.0077
vn 0.7326 0.6806 0.0077
vn 0.0018 0.0095 -1
vn 0.0017 0.0096 -1
vn 0.0018 0.0095 -1
vn 0.0017 0.0096 -1
vn 0.7327 0.6806 0.0077
vn 0.9139 0.4058 0.0054
vn 0.7326 0.6806 0.0077
vn 0.914 0.4058 0.0054
vn 0.1235 0.1227 -0.9847
vn 0.1537 0.0769 -0.9851
vn 0.0752 0.7827 -0.6178
vn 0.7979 -0.199 -0.569
vn 0.7078 0.6554 0.2637
vn 0.9164 0.3377 0.2149
vn 0.6744 0.6233 0.3958
vn 0.8414 0.3702 0.3937
vn 0.4342 0.8085 0.3972
vn 0.4557 0.8496 0.2654
vn 0.1469 0.9057 0.3977
vn 0.1543 0.9516 0.2658
vn 0.058 0.3574 -0.9322
vn -0.1143 0.871 -0.4778
vn 0.0283 0.1736 -0.9844
vn 0.0802 0.1561 -0.9845
vn 0.1601 0.9871 0.0097
vn 0.472 0.8816 0.0092
vn 0.1601 0.9871 0.0097
vn 0.4719 0.8816 0.0092
vn 0.0016 0.0096 -1
vn 0.0017 0.0096 -1
vn 0.0016 0.0096 -1
vn 0.0016 0.0096 -1
vn 0.1601 0.9871 0.0097
vn 0.4719 0.8816 0.0092
vn 0.1601 0.9871 0.0097
vn 0.472 0.8816 0.0092
vn -0.169 0.9856 0.0092
vn -0.1691 0.9855 0.0092
vn -0.4799 0.8773 0.0076
vn -0.4799 0.8773 0.0076
vn 0.0016 0.0096 -1
vn 0.0016 0.0096 -1
vn 0.0017 0.0096 -1
vn 0.0017 0.0096 -1
vn -0.4799 0.8773 0.0076
vn -0.4799 0.8773 0.0076
vn -0.1691 0.9856 0.0092
vn -0.1691 0.9856 0.0092
vn -0.1617 0.3074 -0.9377
vn -0.0782 0.1554 -0.9848
vn -0.1369 0.3311 -0.9336
vn -0.0265 0.1734 -0.9845
vn -0.4485 0.8548 0.2611
vn -0.2262 0.9492 0.2189
vn -0.4428 0.8045 0.3957
vn -0.1564 0.9043 0.3972
vn -0.6813 0.6172 0.3935
vn -0.7145 0.6489 0.2614
vn -0.8461 0.3625 0.3908
vn -0.8873 0.3818 0.2587
vn -0.3174 0.1473 -0.9368
vn -0.269 0.2556 -0.9286
vn -0.151 0.0756 -0.9856
vn -0.1212 0.1216 -0.9852
vn -0.9176 0.3975 0.0023
vn -0.9176 0.3975 0.0023
vn -0.7388 0.6739 0.0052
vn -0.7388 0.6739 0.0052
vn 0.0017 0.0096 -1
vn 0.0017 0.0096 -1
vn 0.0017 0.0096 -1
vn 0.0017 0.0096 -1
vn -0.9176 0.3975 0.0023
vn -0.7388 0.6739 0.0052
vn -0.9176 0.3976 0.0023
vn -0.7388 0.6739 0.0052
vn -0.9969 0.078 -0.0009
vn -0.9969 0.0781 -0.0009
vn -0.9683 -0.2499 -0.004
vn -0.9683 -0.2498 -0.004
vn 0.0017 0.0096 -1
vn 0.0017 0.0096 -1
vn 0.0017 0.0096 -1
vn 0.0017 0.0095 -1
vn -0.997 0.078 -0.0009
vn -0.9969 0.0781 -0.0009
vn -0.9683 -0.2498 -0.004
vn -0.9683 -0.2499 -0.004
vn -0.1642 0.0224 -0.9862
vn -0.6261 -0.4558 -0.6326
vn -0.1594 -0.0321 -0.9867
vn -0.4363 -0.6397 -0.6328
vn -0.9631 0.0914 0.2531
vn -0.9414 -0.2262 0.2502
vn -0.9192 0.0682 0.3879
vn -0.8928 -0.2339 0.385
vn -0.7697 -0.5111 0.3826
vn -0.8072 -0.5348 0.2499
vn -0.5633 -0.7333 0.3807
vn -0.5906 -0.7678 0.2482
vn -0.2197 -0.2781 -0.9351
vn -0.2848 -0.1799 -0.9416
vn -0.0999 -0.1223 -0.9874
vn -0.1372 -0.0822 -0.9871
vn -0.6106 -0.7919 -0.0086
vn -0.6106 -0.7919 -0.0086
vn -0.8347 -0.5507 -0.0067
vn -0.8346 -0.5507 -0.0067
vn 0.0017 0.0095 -1
vn 0.0017 0.0096 -1
vn 0.0017 0.0096 -1
vn 0.0017 0.0096 -1
vn -0.6107 -0.7918 -0.0086
vn -0.6106 -0.7919 -0.0086
vn -0.8347 -0.5506 -0.0067
vn -0.8347 -0.5507 -0.0067
vn -0.3204 -0.9472 -0.0096
vn 0.0017 0.0096 -1
vn -0.3204 -0.9472 -0.0096
vn -0.0517 -0.1481 -0.9876
vn 0.0121 -0.925 0.3797
vn 0.0095 -0.969 0.247
vn -0.2872 -0.8765 0.3864
vn 0.311 -0.8738 0.3739
vn 0.3231 -0.9151 0.2413
vn -0.0179 -0.344 -0.9388
vn -0.2873 -0.9244 0.2509
vn -0.0199 -0.1569 -0.9874
vn -0.6892 -0.3827 -0.6153
vn 0.7214 -0.4829 -0.4963
vn 0.0341 -0.1476 -0.9885
vn 0.0043 -0.9999 -0.0097
vn 0.0043 -0.9999 -0.0097
vn -0.3206 -0.9472 -0.0024
vn 0.3287 -0.9443 -0.0159
vn 0.3287 -0.9443 -0.0159
vn -0.021 0.0096 -0.9997
vn -0.0209 0.0096 -0.9997
vn -0.021 0.0096 -0.9997
vn -0.0209 0.0096 -0.9997
vn -0.0209 0.0096 -0.9997
vn 0.0044 -0.9999 -0.0097
vn -0.3205 -0.9473 -0.0024
vn 0.0044 -0.9999 -0.0097
vn 0.3288 -0.9443 -0.0159
vn 0.3287 -0.9443 -0.0159
vn 0.6175 -0.7863 -0.0204
vn 0.6175 -0.7863 -0.0204
vn 0.8394 -0.5431 -0.0227
vn 0.8394 -0.5431 -0.0227
vn -0.0209 0.0096 -0.9997
vn -0.021 0.0096 -0.9997
vn -0.0209 0.0096 -0.9997
vn -0.0209 0.0096 -0.9997
vn 0.6175 -0.7863 -0.0204
vn 0.6175 -0.7863 -0.0204
vn 0.8393 -0.5431 -0.0227
vn 0.8393 -0.5432 -0.0227
vn 0.1985 -0.2686 -0.9426
vn 0.0822 -0.1214 -0.9892
vn 0.28 -0.1848 -0.9421
vn 0.119 -0.0809 -0.9896
vn 0.6022 -0.7625 0.2366
vn 0.807 -0.5432 0.2319
vn 0.577 -0.7282 0.3698
vn 0.7815 -0.5041 0.3676
vn 0.9431 -0.2355 0.2346
vn 0.9021 -0.2258 0.3678
vn 0.968 0.0817 0.2371
vn 0.9258 0.0765 0.3702
vn 0.3267 0.0394 -0.9443
vn 0.7977 0.3534 -0.4887
vn 0.1451 0.024 -0.9891
vn 0.1408 -0.0306 -0.9896
vn 0.996 0.0871 -0.02
vn 0.996 0.0871 -0.02
vn 0.9702 -0.2411 -0.0226
vn 0.9702 -0.2411 -0.0226
vn -0.0209 0.0096 -0.9997
vn -0.0209 0.0096 -0.9997
vn -0.0209 0.0096 -0.9997
vn -0.021 0.0095 -0.9997
vn 0.996 0.0871 -0.02
vn 0.9702 -0.2411 -0.0226
vn 0.996 0.0871 -0.02
vn 0.9702 -0.2411 -0.0226
vn 0.9138 0.4058 -0.0152
vn 0.9138 0.4058 -0.0152
vn 0.7326 0.6806 -0.0088
vn 0.7327 0.6805 -0.0088
vn -0.0208 0.0095 -0.9997
vn -0.0209 0.0095 -0.9997
vn -0.0208 0.0096 -0.9997
vn -0.0209 0.0095 -0.9997
vn 0.7326 0.6806 -0.0088
vn 0.9138 0.4058 -0.0152
vn 0.7326 0.6806 -0.0088
vn 0.9138 0.4058 -0.0152
vn 0.1013 0.1227 -0.9873
vn 0.1314 0.0769 -0.9883
vn 0.0673 0.7813 -0.6205
vn 0.7848 -0.199 -0.5869
vn 0.7135 0.6554 0.2479
vn 0.921 0.3377 0.1941
vn 0.6831 0.6233 0.3805
vn 0.8501 0.3702 0.3746
vn 0.4616 0.8496 0.2551
vn 0.443 0.8085 0.3873
vn 0.1603 0.9516 0.2623
vn 0.1558 0.9057 0.3943
vn 0.0343 0.3417 -0.9392
vn 0.1516 0.3285 -0.9323
vn 0.0061 0.1736 -0.9848
vn 0.0579 0.1561 -0.986
vn 0.1604 0.987 0.0061
vn 0.472 0.8816 -0.0014
vn 0.1603 0.987 0.0061
vn 0.472 0.8816 -0.0015
vn -0.0209 0.0096 -0.9997
vn -0.0209 0.0096 -0.9997
vn -0.021 0.0096 -0.9997
vn -0.0209 0.0096 -0.9997
vn 0.1603 0.9871 0.0061
vn 0.472 0.8816 -0.0014
vn 0.1603 0.9871 0.0061
vn 0.4721 0.8816 -0.0014
vn -0.1688 0.9856 0.013
vn -0.1689 0.9856 0.013
vn -0.4797 0.8772 0.0184
vn -0.4796 0.8773 0.0184
vn -0.0209 0.0096 -0.9997
vn -0.0209 0.0096 -0.9997
vn -0.021 0.0096 -0.9997
vn -0.021 0.0096 -0.9997
vn -0.4796 0.8773 0.0185
vn -0.4797 0.8773 0.0184
vn -0.1688 0.9856 0.013
vn -0.1688 0.9856 0.013
vn -0.1004 0.1554 -0.9827
vn -0.0487 0.1734 -0.9836
vn -0.7448 0.2741 -0.6084
vn 0.3877 0.7259 -0.5682
vn -0.4583 0.8456 0.2737
vn -0.0996 0.97 0.2216
vn -0.4338 0.8046 0.4056
vn -0.1474 0.9043 0.4006
vn -0.6723 0.6172 0.4088
vn -0.7084 0.6489 0.2776
vn -0.8371 0.3625 0.4098
vn -0.8812 0.3817 0.2788
vn -0.3385 0.1471 -0.9294
vn -0.2764 0.2433 -0.9298
vn -0.1732 0.0756 -0.982
vn -0.1434 0.1216 -0.9822
vn -0.9173 0.3975 0.0229
vn -0.7385 0.6739 0.0219
vn -0.9173 0.3976 0.023
vn -0.7385 0.6739 0.0219
vn -0.0209 0.0096 -0.9997
vn -0.0208 0.0096 -0.9997
vn -0.0209 0.0096 -0.9997
vn -0.021 0.0096 -0.9997
vn -0.9173 0.3975 0.023
vn -0.7385 0.6739 0.0219
vn -0.9173 0.3976 0.023
vn -0.7385 0.6739 0.0219
vn -0.9967 0.0781 0.0216
vn -0.9967 0.0781 0.0216
vn -0.9681 -0.2498 0.0178
vn -0.9681 -0.2498 0.0178
vn -0.0209 0.0096 -0.9997
vn -0.0209 0.0096 -0.9997
vn -0.0209 0.0096 -0.9997
vn -0.0209 0.0096 -0.9997
vn -0.9967 0.078 0.0216
vn -0.9967 0.0781 0.0216
vn -0.9681 -0.2499 0.0178
vn -0.9681 -0.2499 0.0178
vn -0.3661 0.0361 -0.9299
vn -0.1864 0.0224 -0.9822
vn -0.3562 -0.0779 -0.9312
vn -0.1816 -0.0321 -0.9828
vn -0.9572 0.0913 0.2745
vn -0.9355 -0.2262 0.2713
vn -0.9102 0.0682 0.4085
vn -0.8839 -0.2339 0.405
vn -0.7608 -0.5111 0.3998
vn -0.8013 -0.5347 0.2684
vn -0.5849 -0.7678 0.2615
vn -0.5545 -0.7333 0.3934
vn -0.232 -0.2663 -0.9356
vn -0.3097 -0.1825 -0.9332
vn -0.1222 -0.1223 -0.985
vn -0.1594 -0.0822 -0.9838
vn -0.6107 -0.7919 0.0052
vn -0.6107 -0.7919 0.0052
vn -0.8346 -0.5507 0.0121
vn -0.8346 -0.5507 0.0121
vn -0.0209 0.0095 -0.9997
vn -0.0209 0.0096 -0.9997
vn -0.0209 0.0096 -0.9997
vn -0.0209 0.0096 -0.9997
vn -0.6107 -0.7919 0.0052
vn -0.6106 -0.7919 0.0052
vn -0.8346 -0.5507 0.0122
vn -0.8346 -0.5507 0.0122
vn -0.3205 -0.9472 -0.0024
vn -0.0209 0.0096 -0.9997
vn -0.3205 -0.9472 -0.0024
vn -0.0739 -0.1481 -0.9862
f 24/24/24 23/23/23 22/22/22
f 24/24/24 22/22/22 26/26/26
f 24/24/24 187/187/187 23/23/23
f 24/24/24 26/26/26 25/25/25
f 187/187/187 184/184/184 23/23/23
f 25/25/25 26/26/26 28/28/28
f 187/187/187 183/183/183 184/184/184
f 25/25/25 28/28/28 27/27/27
f 185/185/185 184/184/184 183/183/183
f 30/30/30 27/27/27 28/28/28
f 185/185/185 186/186/186 184/184/184
f 30/30/30 28/28/28 29/29/29
f 185/185/185 150/150/150 186/186/186
f 30/30/30 29/29/29 64/64/64
f 185/185/185 149/149/149 150/150/150
f 30/30/30 64/64/64 66/66/66
f 148/148/148 150/150/150 149/149/149
f 65/65/65 66/66/66 64/64/64
f 148/148/148 147/147/147 150/150/150
f 65/65/65 64/64/64 63/63/63
f 148/148/148 143/143/143 147/147/147
f 65/65/65 63/63/63 68/68/68
f 148/148/148 145/145/145 143/143/143
f 65/65/65 68/68/68 67/67/67
f 145/145/145 144/144/144 143/143/143
f 70/70/70 67/67/67 68/68/68
f 145/145/145 146/146/146 144/144/144
f 70/70/70 68/68/68 69/69/69
f 146/146/146 110/110/110 144/144/144
f 70/70/70 69/69/69 104/104/104
f 146/146/146 109/109/109 110/110/110
f 70/70/70 104/104/104 106/106/106
f 108/108/108 110/110/110 109/109/109
f 105/105/105 106/106/106 104/104/104
f 108/108/108 107/107/107 110/110/110
f 105/105/105 104/104/104 103/103/103
f 108/108/108 103/103/103 107/107/107
f 108/108/108 105/105/105 103/103/103
f 3/3/3 2/2/2 1/1/1
f 1/1/1 2/2/2 5/5/5
f 1/1/1 5/5/5 4/4/4
f 45/45/45 4/4/4 5/5/5
f 3/3/3 7/7/7 2/2/2
f 45/45/45 5/5/5 43/43/43
f 46/46/46 45/45/45 43/43/43
f 6/6/6 5/5/5 2/2/2
f 7/7/7 6/6/6 2/2/2
f 46/46/46 43/43/43 44/44/44
f 48/48/48 46/46/46 44/44/44
f 43/43/43 5/5/5 10/10/10
f 6/6/6 10/10/10 5/5/5
f 48/48/48 44/44/44 47/47/47
f 50/50/50 48/48/48 47/47/47
f 43/43/43 41/41/41 44/44/44
f 47/47/47 44/44/44 41/41/41
f 43/43/43 10/10/10 39/39/39
f 43/43/43 39/39/39 41/41/41
f 10/10/10 40/40/40 39/39/39
f 39/39/39 40/40/40 42/42/42
f 39/39/39 42/42/42 41/41/41
f 10/10/10 11/11/11 40/40/40
f 6/6/6 11/11/11 10/10/10
f 41/41/41 42/42/42 54/54/54
f 6/6/6 8/8/8 11/11/11
f 41/41/41 54/54/54 52/52/52
f 47/47/47 41/41/41 52/52/52
f 52/52/52 54/54/54 53/53/53
f 9/9/9 8/8/8 6/6/6
f 7/7/7 9/9/9 6/6/6
f 9/9/9 190/190/190 8/8/8
f 9/9/9 173/173/173 190/190/190
f 52/52/52 53/53/53 51/51/51
f 47/47/47 52/52/52 51/51/51
f 51/51/51 53/53/53 82/82/82
f 9/9/9 171/171/171 173/173/173
f 7/7/7 171/171/171 9/9/9
f 51/51/51 82/82/82 81/81/81
f 81/81/81 82/82/82 80/80/80
f 47/47/47 51/51/51 49/49/49
f 49/49/49 51/51/51 81/81/81
f 50/50/50 47/47/47 49/49/49
f 86/86/86 50/50/50 49/49/49
f 81/81/81 80/80/80 79/79/79
f 86/86/86 49/49/49 84/84/84
f 49/49/49 81/81/81 84/84/84
f 84/84/84 81/81/81 79/79/79
f 85/85/85 86/86/86 84/84/84
f 79/79/79 80/80/80 94/94/94
f 85/85/85 84/84/84 83/83/83
f 84/84/84 79/79/79 83/83/83
f 88/88/88 85/85/85 83/83/83
f 79/79/79 94/94/94 92/92/92
f 83/83/83 79/79/79 92/92/92
f 88/88/88 83/83/83 87/87/87
f 83/83/83 92/92/92 87/87/87
f 90/90/90 88/88/88 87/87/87
f 91/91/91 92/92/92 94/94/94
f 87/87/87 92/92/92 91/91/91
f 91/91/91 94/94/94 93/93/93
f 90/90/90 87/87/87 89/89/89
f 87/87/87 91/91/91 89/89/89
f 126/126/126 90/90/90 89/89/89
f 91/91/91 93/93/93 120/120/120
f 126/126/126 89/89/89 124/124/124
f 89/89/89 91/91/91 122/122/122
f 91/91/91 120/120/120 122/122/122
f 89/89/89 122/122/122 124/124/124
f 125/125/125 126/126/126 124/124/124
f 121/121/121 122/122/122 120/120/120
f 124/124/124 122/122/122 121/121/121
f 121/121/121 120/120/120 119/119/119
f 125/125/125 124/124/124 123/123/123
f 124/124/124 121/121/121 123/123/123
f 121/121/121 119/119/119 134/134/134
f 125/125/125 123/123/123 128/128/128
f 128/128/128 123/123/123 121/121/121
f 125/125/125 128/128/128 127/127/127
f 121/121/121 134/134/134 132/132/132
f 128/128/128 121/121/121 132/132/132
f 131/131/131 132/132/132 134/134/134
f 128/128/128 132/132/132 131/131/131
f 131/131/131 134/134/134 133/133/133
f 127/127/127 128/128/128 130/130/130
f 128/128/128 131/131/131 130/130/130
f 127/127/127 130/130/130 129/129/129
f 160/160/160 131/131/131 133/133/133
f 130/130/130 131/131/131 160/160/160
f 160/160/160 133/133/133 159/159/159
f 129/129/129 130/130/130 163/163/163
f 130/130/130 160/160/160 163/163/163
f 129/129/129 163/163/163 165/165/165
f 160/160/160 159/159/159 162/162/162
f 165/165/165 163/163/163 164/164/164
f 164/164/164 163/163/163 160/160/160
f 165/165/165 164/164/164 166/166/166
f 160/160/160 162/162/162 161/161/161
f 164/164/164 160/160/160 161/161/161
f 168/168/168 166/166/166 164/164/164
f 172/172/172 161/161/161 162/162/162
f 164/164/164 161/161/161 172/172/172
f 172/172/172 162/162/162 174/174/174
f 172/172/172 174/174/174 173/173/173
f 172/172/172 173/173/173 171/171/171
f 168/168/168 164/164/164 167/167/167
f 164/164/164 172/172/172 167/167/167
f 168/168/168 167/167/167 170/170/170
f 170/170/170 167/167/167 172/172/172
f 170/170/170 172/172/172 171/171/171
f 168/168/168 170/170/170 169/169/169
f 7/7/7 170/170/170 171/171/171
f 3/3/3 169/169/169 170/170/170
f 3/3/3 170/170/170 7/7/7
f 14/14/14 13/13/13 12/12/12
f 16/16/16 12/12/12 13/13/13
f 14/14/14 189/189/189 13/13/13
f 16/16/16 13/13/13 15/15/15
f 14/14/14 176/176/176 189/189/189
f 16/16/16 15/15/15 36/36/36
f 14/14/14 175/175/175 176/176/176
f 16/16/16 36/36/36 35/35/35
f 177/177/177 176/176/176 175/175/175
f 38/38/38 35/35/35 36/36/36
f 177/177/177 178/178/178 176/176/176
f 38/38/38 36/36/36 37/37/37
f 177/177/177 158/158/158 178/178/178
f 38/38/38 37/37/37 58/58/58
f 177/177/177 157/157/157 158/158/158
f 38/38/38 58/58/58 57/57/57
f 156/156/156 158/158/158 157/157/157
f 57/57/57 58/58/58 56/56/56
f 156/156/156 155/155/155 158/158/158
f 57/57/57 56/56/56 55/55/55
f 156/156/156 135/135/135 155/155/155
f 78/78/78 55/55/55 56/56/56
f 156/156/156 137/137/137 135/135/135
f 78/78/78 56/56/56 76/76/76
f 137/137/137 136/136/136 135/135/135
f 77/77/77 78/78/78 76/76/76
f 137/137/137 138/138/138 136/136/136
f 77/77/77 76/76/76 75/75/75
f 138/138/138 116/116/116 136/136/136
f 77/77/77 75/75/75 96/96/96
f 138/138/138 115/115/115 116/116/116
f 77/77/77 96/96/96 98/98/98
f 117/117/117 116/116/116 115/115/115
f 97/97/97 98/98/98 96/96/96
f 117/117/117 118/118/118 116/116/116
f 97/97/97 118/118/118 117/117/117
f 97/97/97 96/96/96 95/95/95
f 97/97/97 95/95/95 118/118/118
f 19/19/19 18/18/18 17/17/17
f 181/181/181 17/17/17 18/18/18
f 19/19/19 20/20/20 18/18/18
f 181/181/181 18/18/18 188/188/188
f 19/19/19 21/21/21 20/20/20
f 181/181/181 188/188/188 180/180/180
f 19/19/19 31/31/31 21/21/21
f 181/181/181 180/180/180 179/179/179
f 32/32/32 21/21/21 31/31/31
f 182/182/182 179/179/179 180/180/180
f 32/32/32 33/33/33 21/21/21
f 182/182/182 180/180/180 153/153/153
f 32/32/32 34/34/34 33/33/33
f 154/154/154 182/182/182 153/153/153
f 32/32/32 62/62/62 34/34/34
f 154/154/154 153/153/153 152/152/152
f 59/59/59 34/34/34 62/62/62
f 141/141/141 154/154/154 152/152/152
f 59/59/59 60/60/60 34/34/34
f 141/141/141 152/152/152 151/151/151
f 61/61/61 60/60/60 59/59/59
f 141/141/141 151/151/151 140/140/140
f 61/61/61 74/74/74 60/60/60
f 141/141/141 140/140/140 139/139/139
f 61/61/61 71/71/71 74/74/74
f 139/139/139 140/140/140 112/112/112
f 61/61/61 73/73/73 71/71/71
f 139/139/139 112/112/112 142/142/142
f 73/73/73 72/72/72 71/71/71
f 113/113/113 142/142/142 112/112/112
f 73/73/73 102/102/102 72/72/72
f 113/113/113 112/112/112 111/111/111
f 99/99/99 72/72/72 102/102/102
f 113/113/113 111/111/111 114/114/114
f 99/99/99 100/100/100 72/72/72
f 113/113/113 114/114/114 101/101/101
f 101/101/101 100/100/100 99/99/99
f 101/101/101 114/114/114 100/100/100
f 193/193/193 192/192/192 191/191/191
f 192/192/192 194/194/194 191/191/191
f 192/192/192 197/197/197 194/194/194
f 235/235/235 194/194/194 197/197/197
f 193/193/193 196/196/196 192/192/192
f 235/235/235 197/197/197 233/233/233
f 236/236/236 235/235/235 233/233/233
f 192/192/192 198/198/198 197/197/197
f 233/233/233 197/197/197 198/198/198
f 196/196/196 195/195/195 192/192/192
f 192/192/192 195/195/195 198/198/198
f 236/236/236 233/233/233 234/234/234
f 238/238/238 236/236/236 234/234/234
f 233/233/233 198/198/198 229/229/229
f 234/234/234 233/233/233 229/229/229
f 198/198/198 195/195/195 199/199/199
f 198/198/198 199/199/199 201/201/201
f 198/198/198 201/201/201 230/230/230
f 198/198/198 230/230/230 229/229/229
f 200/200/200 199/199/199 195/195/195
f 196/196/196 200/200/200 195/195/195
f 200/200/200 380/380/380 199/199/199
f 200/200/200 363/363/363 380/380/380
f 232/232/232 229/229/229 230/230/230
f 234/234/234 229/229/229 232/232/232
f 232/232/232 230/230/230 231/231/231
f 200/200/200 361/361/361 363/363/363
f 196/196/196 361/361/361 200/200/200
f 242/242/242 232/232/232 231/231/231
f 234/234/234 232/232/232 242/242/242
f 242/242/242 231/231/231 244/244/244
f 242/242/242 244/244/244 243/243/243
f 238/238/238 234/234/234 237/237/237
f 234/234/234 242/242/242 237/237/237
f 240/240/240 238/238/238 237/237/237
f 242/242/242 243/243/243 241/241/241
f 237/237/237 242/242/242 241/241/241
f 241/241/241 243/243/243 270/270/270
f 240/240/240 237/237/237 239/239/239
f 237/237/237 241/241/241 239/239/239
f 276/276/276 240/240/240 239/239/239
f 241/241/241 270/270/270 272/272/272
f 239/239/239 241/241/241 272/272/272
f 276/276/276 239/239/239 274/274/274
f 239/239/239 272/272/272 274/274/274
f 275/275/275 276/276/276 274/274/274
f 271/271/271 272/272/272 270/270/270
f 274/274/274 272/272/272 271/271/271
f 271/271/271 270/270/270 269/269/269
f 271/271/271 269/269/269 284/284/284
f 275/275/275 274/274/274 273/273/273
f 274/274/274 271/271/271 273/273/273
f 271/271/271 284/284/284 282/282/282
f 273/273/273 271/271/271 282/282/282
f 275/275/275 273/273/273 278/278/278
f 273/273/273 282/282/282 278/278/278
f 275/275/275 278/278/278 277/277/277
f 280/280/280 277/277/277 278/278/278
f 281/281/281 282/282/282 284/284/284
f 278/278/278 282/282/282 281/281/281
f 281/281/281 284/284/284 283/283/283
f 280/280/280 278/278/278 279/279/279
f 278/278/278 281/281/281 279/279/279
f 316/316/316 280/280/280 279/279/279
f 311/311/311 281/281/281 283/283/283
f 311/311/311 283/283/283 312/312/312
f 314/314/314 279/279/279 281/281/281
f 316/316/316 279/279/279 314/314/314
f 314/314/314 281/281/281 311/311/311
f 315/315/315 316/316/316 314/314/314
f 311/311/311 312/312/312 310/310/310
f 315/315/315 314/314/314 313/313/313
f 313/313/313 314/314/314 311/311/311
f 311/311/311 310/310/310 309/309/309
f 313/313/313 311/311/311 309/309/309
f 309/309/309 310/310/310 324/324/324
f 315/315/315 313/313/313 318/318/318
f 315/315/315 318/318/318 317/317/317
f 313/313/313 309/309/309 322/322/322
f 309/309/309 324/324/324 322/322/322
f 313/313/313 322/322/322 318/318/318
f 321/321/321 322/322/322 324/324/324
f 318/318/318 322/322/322 321/321/321
f 321/321/321 324/324/324 323/323/323
f 317/317/317 318/318/318 320/320/320
f 318/318/318 321/321/321 320/320/320
f 317/317/317 320/320/320 319/319/319
f 350/350/350 321/321/321 323/323/323
f 319/319/319 320/320/320 353/353/353
f 353/353/353 320/320/320 321/321/321
f 353/353/353 321/321/321 350/350/350
f 319/319/319 353/353/353 355/355/355
f 350/350/350 323/323/323 349/349/349
f 355/355/355 353/353/353 354/354/354
f 354/354/354 353/353/353 350/350/350
f 355/355/355 354/354/354 356/356/356
f 352/352/352 350/350/350 349/349/349
f 354/354/354 350/350/350 352/352/352
f 352/352/352 349/349/349 351/351/351
f 356/356/356 354/354/354 358/358/358
f 356/356/356 358/358/358 357/357/357
f 360/360/360 357/357/357 358/358/358
f 354/354/354 352/352/352 362/362/362
f 362/362/362 352/352/352 351/351/351
f 354/354/354 362/362/362 358/358/358
f 362/362/362 351/351/351 364/364/364
f 362/362/362 364/364/364 363/363/363
f 362/362/362 363/363/363 361/361/361
f 360/360/360 358/358/358 359/359/359
f 359/359/359 358/358/358 362/362/362
f 359/359/359 362/362/362 361/361/361
f 193/193/193 360/360/360 359/359/359
f 196/196/196 359/359/359 361/361/361
f 193/193/193 359/359/359 196/196/196
f 204/204/204 203/203/203 202/202/202
f 206/206/206 202/202/202 203/203/203
f 204/204/204 379/379/379 203/203/203
f 206/206/206 203/203/203 205/205/205
f 204/204/204 366/366/366 379/379/379
f 206/206/206 205/205/205 226/226/226
f 204/204/204 365/365/365 366/366/366
f 206/206/206 226/226/226 225/225/225
f 367/367/367 366/366/366 365/365/365
f 228/228/228 225/225/225 226/226/226
f 367/367/367 368/368/368 366/366/366
f 228/228/228 226/226/226 227/227/227
f 367/367/367 348/348/348 368/368/368
f 228/228/228 227/227/227 248/248/248
f 367/367/367 347/347/347 348/348/348
f 228/228/228 248/248/248 247/247/247
f 346/346/346 348/348/348 347/347/347
f 247/247/247 248/248/248 246/246/246
f 346/346/346 345/345/345 348/348/348
f 247/247/247 246/246/246 245/245/245
f 346/346/346 325/325/325 345/345/345
f 268/268/268 245/245/245 246/246/246
f 346/346/346 327/327/327 325/325/325
f 268/268/268 246/246/246 266/266/266
f 327/327/327 326/326/326 325/325/325
f 267/267/267 268/268/268 266/266/266
f 327/327/327 328/328/328 326/326/326
f 267/267/267 266/266/266 265/265/265
f 328/328/328 306/306/306 326/326/326
f 267/267/267 265/265/265 286/286/286
f 328/328/328 305/305/305 306/306/306
f 267/267/267 286/286/286 288/288/288
f 307/307/307 306/306/306 305/305/305
f 287/287/287 288/288/288 286/286/286
f 307/307/307 308/308/308 306/306/306
f 287/287/287 308/308/308 307/307/307
f 287/287/287 286/286/286 285/285/285
f 287/287/287 285/285/285 308/308/308
f 209/209/209 208/208/208 207/207/207
f 371/371/371 207/207/207 208/208/208
f 209/209/209 210/210/210 208/208/208
f 371/371/371 208/208/208 378/378/378
f 209/209/209 211/211/211 210/210/210
f 371/371/371 378/378/378 370/370/370
f 209/209/209 221/221/221 211/211/211
f 371/371/371 370/370/370 369/369/369
f 222/222/222 211/211/211 221/221/221
f 372/372/372 369/369/369 370/370/370
f 222/222/222 223/223/223 211/211/211
f 372/372/372 370/370/370 343/343/343
f 222/222/222 224/224/224 223/223/223
f 344/344/344 372/372/372 343/343/343
f 222/222/222 252/252/252 224/224/224
f 344/344/344 343/343/343 341/341/341
f 252/252/252 249/249/249 224/224/224
f 342/342/342 344/344/344 341/341/341
f 252/252/252 251/251/251 249/249/249
f 342/342/342 341/341/341 330/330/330
f 251/251/251 250/250/250 249/249/249
f 331/331/331 342/342/342 330/330/330
f 251/251/251 264/264/264 250/250/250
f 331/331/331 330/330/330 329/329/329
f 264/264/264 261/261/261 250/250/250
f 303/303/303 331/331/331 329/329/329
f 264/264/264 263/263/263 261/261/261
f 303/303/303 329/329/329 332/332/332
f 263/263/263 262/262/262 261/261/261
f 303/303/303 332/332/332 302/302/302
f 263/263/263 292/292/292 262/262/262
f 303/303/303 302/302/302 301/301/301
f 291/291/291 262/262/262 292/292/292
f 304/304/304 301/301/301 302/302/302
f 291/291/291 289/289/289 262/262/262
f 304/304/304 302/302/302 290/290/290
f 291/291/291 290/290/290 289/289/289
f 291/291/291 304/304/304 290/290/290
f 214/214/214 213/213/213 212/212/212
f 212/212/212 213/213/213 216/216/216
f 214/214/214 377/377/377 213/213/213
f 212/212/212 216/216/216 215/215/215
f 214/214/214 374/374/374 377/377/377
f 215/215/215 216/216/216 218/218/218
f 214/214/214 373/373/373 374/374/374
f 215/215/215 218/218/218 217/217/217
f 375/375/375 374/374/374 373/373/373
f 220/220/220 217/217/217 218/218/218
f 375/375/375 376/376/376 374/374/374
f 220/220/220 218/218/218 219/219/219
f 375/375/375 340/340/340 376/376/376
f 220/220/220 219/219/219 256/256/256
f 375/375/375 339/339/339 340/340/340
f 220/220/220 256/256/256 255/255/255
f 338/338/338 340/340/340 339/339/339
f 255/255/255 256/256/256 254/254/254
f 338/338/338 337/337/337 340/340/340
f 255/255/255 254/254/254 253/253/253
f 338/338/338 333/333/333 337/337/337
f 258/258/258 253/253/253 254/254/254
f 338/338/338 335/335/335 333/333/333
f 258/258/258 254/254/254 257/257/257
f 335/335/335 334/334/334 333/333/333
f 260/260/260 258/258/258 257/257/257
f 335/335/335 336/336/336 334/334/334
f 260/260/260 257/257/257 259/259/259
f 336/336/336 300/300/300 334/334/334
f 260/260/260 259/259/259 294/294/294
f 336/336/336 299/299/299 300/300/300
f 260/260/260 294/294/294 296/296/296
f 297/297/297 300/300/300 299/299/299
f 295/295/295 296/296/296 294/294/294
f 297/297/297 298/298/298 300/300/300
f 295/295/295 298/298/298 297/297/297
f 295/295/295 294/294/294 293/293/293
f 295/295/295 293/293/293 298/298/298
f 383/383/383 382/382/382 381/381/381
f 381/381/381 382/382/382 385/385/385
f 381/381/381 385/385/385 384/384/384
f 425/425/425 384/384/384 385/385/385
f 383/383/383 387/387/387 382/382/382
f 549/549/549 387/387/387 383/383/383
f 425/425/425 385/385/385 423/423/423
f 549/549/549 550/550/550 387/387/387
f 547/547/547 550/550/550 549/549/549
f 382/382/382 388/388/388 385/385/385
f 423/423/423 385/385/385 388/388/388
f 387/387/387 386/386/386 382/382/382
f 382/382/382 386/386/386 388/388/388
f 547/547/547 548/548/548 550/550/550
f 546/546/546 548/548/548 547/547/547
f 387/387/387 550/550/550 551/551/551
f 546/546/546 544/544/544 548/548/548
f 545/545/545 544/544/544 546/546/546
f 550/550/550 548/548/548 552/552/552
f 550/550/550 552/552/552 551/551/551
f 544/544/544 552/552/552 548/548/548
f 387/387/387 551/551/551 390/390/390
f 387/387/387 390/390/390 386/386/386
f 552/552/552 553/553/553 551/551/551
f 390/390/390 551/551/551 553/553/553
f 552/552/552 554/554/554 553/553/553
f 390/390/390 553/553/553 570/570/570
f 552/552/552 541/541/541 554/554/554
f 390/390/390 570/570/570 389/389/389
f 390/390/390 389/389/389 386/386/386
f 388/388/388 386/386/386 389/389/389
f 388/388/388 389/389/389 391/391/391
f 388/388/388 391/391/391 420/420/420
f 552/552/552 542/542/542 541/541/541
f 544/544/544 542/542/542 552/552/552
f 542/542/542 539/539/539 541/541/541
f 388/388/388 420/420/420 419/419/419
f 423/423/423 388/388/388 419/419/419
f 419/419/419 420/420/420 422/422/422
f 542/542/542 540/540/540 539/539/539
f 544/544/544 540/540/540 542/542/542
f 540/540/540 513/513/513 539/539/539
f 419/419/419 422/422/422 421/421/421
f 540/540/540 511/511/511 513/513/513
f 511/511/511 514/514/514 513/513/513
f 544/544/544 543/543/543 540/540/540
f 543/543/543 511/511/511 540/540/540
f 545/545/545 543/543/543 544/544/544
f 509/509/509 543/543/543 545/545/545
f 509/509/509 510/510/510 543/543/543
f 543/543/543 510/510/510 511/511/511
f 507/507/507 510/510/510 509/509/509
f 511/511/511 512/512/512 514/514/514
f 510/510/510 512/512/512 511/511/511
f 507/507/507 508/508/508 510/510/510
f 510/510/510 508/508/508 512/512/512
f 505/505/505 508/508/508 507/507/507
f 499/499/499 514/514/514 512/512/512
f 499/499/499 500/500/500 514/514/514
f 503/503/503 512/512/512 508/508/508
f 503/503/503 499/499/499 512/512/512
f 505/505/505 503/503/503 508/508/508
f 501/501/501 500/500/500 499/499/499
f 503/503/503 501/501/501 499/499/499
f 501/501/501 502/502/502 500/500/500
f 501/501/501 473/473/473 502/502/502
f 505/505/505 504/504/504 503/503/503
f 503/503/503 504/504/504 501/501/501
f 505/505/505 506/506/506 504/504/504
f 469/469/469 504/504/504 506/506/506
f 501/501/501 471/471/471 473/473/473
f 504/504/504 471/471/471 501/501/501
f 471/471/471 474/474/474 473/473/473
f 469/469/469 470/470/470 504/504/504
f 504/504/504 470/470/470 471/471/471
f 467/467/467 470/470/470 469/469/469
f 467/467/467 468/468/468 470/470/470
f 468/468/468 471/471/471 470/470/470
f 465/465/465 468/468/468 467/467/467
f 471/471/471 472/472/472 474/474/474
f 468/468/468 472/472/472 471/471/471
f 465/465/465 463/463/463 468/468/468
f 463/463/463 472/472/472 468/468/468
f 461/461/461 474/474/474 472/472/472
f 463/463/463 461/461/461 472/472/472
f 461/461/461 459/459/459 474/474/474
f 465/465/465 464/464/464 463/463/463
f 464/464/464 461/461/461 463/463/463
f 465/465/465 466/466/466 464/464/464
f 461/461/461 460/460/460 459/459/459
f 466/466/466 429/429/429 464/464/464
f 466/466/466 430/430/430 429/429/429
f 464/464/464 462/462/462 461/461/461
f 461/461/461 462/462/462 460/460/460
f 429/429/429 462/462/462 464/464/464
f 431/431/431 460/460/460 462/462/462
f 429/429/429 431/431/431 462/462/462
f 431/431/431 433/433/433 460/460/460
f 430/430/430 427/427/427 429/429/429
f 427/427/427 431/431/431 429/429/429
f 430/430/430 428/428/428 427/427/427
f 432/432/432 433/433/433 431/431/431
f 427/427/427 432/432/432 431/431/431
f 432/432/432 434/434/434 433/433/433
f 432/432/432 422/422/422 434/434/434
f 432/432/432 421/421/421 422/422/422
f 428/428/428 424/424/424 427/427/427
f 424/424/424 432/432/432 427/427/427
f 424/424/424 421/421/421 432/432/432
f 428/428/428 426/426/426 424/424/424
f 424/424/424 419/419/419 421/421/421
f 425/425/425 424/424/424 426/426/426
f 424/424/424 423/423/423 419/419/419
f 425/425/425 423/423/423 424/424/424
f 394/394/394 393/393/393 392/392/392
f 396/396/396 392/392/392 393/393/393
f 394/394/394 569/569/569 393/393/393
f 396/396/396 393/393/393 395/395/395
f 394/394/394 556/556/556 569/569/569
f 396/396/396 395/395/395 416/416/416
f 394/394/394 555/555/555 556/556/556
f 396/396/396 416/416/416 415/415/415
f 557/557/557 556/556/556 555/555/555
f 418/418/418 415/415/415 416/416/416
f 557/557/557 558/558/558 556/556/556
f 418/418/418 416/416/416 417/417/417
f 557/557/557 538/538/538 558/558/558
f 418/418/418 417/417/417 438/438/438
f 557/557/557 537/537/537 538/538/538
f 418/418/418 438/438/438 437/437/437
f 536/536/536 538/538/538 537/537/537
f 437/437/437 438/438/438 436/436/436
f 536/536/536 535/535/535 538/538/538
f 437/437/437 436/436/436 435/435/435
f 536/536/536 516/516/516 535/535/535
f 435/435/435 436/436/436 456/456/456
f 536/536/536 515/515/515 516/516/516
f 435/435/435 456/456/456 458/458/458
f 517/517/517 516/516/516 515/515/515
f 457/457/457 458/458/458 456/456/456
f 517/517/517 518/518/518 516/516/516
f 457/457/457 456/456/456 455/455/455
f 517/517/517 496/496/496 518/518/518
f 457/457/457 455/455/455 476/476/476
f 517/517/517 495/495/495 496/496/496
f 457/457/457 476/476/476 478/478/478
f 497/497/497 496/496/496 495/495/495
f 477/477/477 478/478/478 476/476/476
f 497/497/497 498/498/498 496/496/496
f 477/477/477 498/498/498 497/497/497
f 477/477/477 476/476/476 475/475/475
f 477/477/477 475/475/475 498/498/498
f 399/399/399 398/398/398 397/397/397
f 561/561/561 397/397/397 398/398/398
f 399/399/399 400/400/400 398/398/398
f 561/561/561 398/398/398 568/568/568
f 399/399/399 401/401/401 400/400/400
f 561/561/561 568/568/568 560/560/560
f 399/399/399 411/411/411 401/401/401
f 561/561/561 560/560/560 559/559/559
f 412/412/412 401/401/401 411/411/411
f 534/534/534 559/559/559 560/560/560
f 412/412/412 413/413/413 401/401/401
f 534/534/534 560/560/560 562/562/562
f 412/412/412 414/414/414 413/413/413
f 534/534/534 562/562/562 532/532/532
f 412/412/412 442/442/442 414/414/414
f 534/534/534 532/532/532 533/533/533
f 442/442/442 439/439/439 414/414/414
f 521/521/521 533/533/533 532/532/532
f 442/442/442 441/441/441 439/439/439
f 521/521/521 532/532/532 531/531/531
f 441/441/441 440/440/440 439/439/439
f 521/521/521 531/531/531 520/520/520
f 441/441/441 454/454/454 440/440/440
f 521/521/521 520/520/520 519/519/519
f 454/454/454 451/451/451 440/440/440
f 493/493/493 519/519/519 520/520/520
f 454/454/454 453/453/453 451/451/451
f 493/493/493 520/520/520 522/522/522
f 453/453/453 452/452/452 451/451/451
f 493/493/493 522/522/522 492/492/492
f 453/453/453 482/482/482 452/452/452
f 493/493/493 492/492/492 491/491/491
f 479/479/479 452/452/452 482/482/482
f 481/481/481 491/491/491 492/492/492
f 479/479/479 480/480/480 452/452/452
f 481/481/481 480/480/480 479/479/479
f 481/481/481 492/492/492 494/494/494
f 481/481/481 494/494/494 480/480/480
f 404/404/404 403/403/403 402/402/402
f 404/404/404 402/402/402 406/406/406
f 404/404/404 567/567/567 403/403/403
f 404/404/404 406/406/406 405/405/405
f 567/567/567 564/564/564 403/403/403
f 405/405/405 406/406/406 408/408/408
f 567/567/567 563/563/563 564/564/564
f 405/405/405 408/408/408 407/407/407
f 565/565/565 564/564/564 563/563/563
f 410/410/410 407/407/407 408/408/408
f 565/565/565 566/566/566 564/564/564
f 410/410/410 408/408/408 409/409/409
f 565/565/565 530/530/530 566/566/566
f 410/410/410 409/409/409 446/446/446
f 565/565/565 529/529/529 530/530/530
f 410/410/410 446/446/446 445/445/445
f 528/528/528 530/530/530 529/529/529
f 445/445/445 446/446/446 444/444/444
f 528/528/528 527/527/527 530/530/530
f 445/445/445 444/444/444 443/443/443
f 528/528/528 523/523/523 527/527/527
f 448/448/448 443/443/443 444/444/444
f 528/528/528 525/525/525 523/523/523
f 448/448/448 444/444/444 447/447/447
f 525/525/525 524/524/524 523/523/523
f 450/450/450 448/448/448 447/447/447
f 525/525/525 526/526/526 524/524/524
f 450/450/450 447/447/447 449/449/449
f 526/526/526 490/490/490 524/524/524
f 450/450/450 449/449/449 484/484/484
f 526/526/526 489/489/489 490/490/490
f 450/450/450 484/484/484 486/486/486
f 488/488/488 490/490/490 489/489/489
f 485/485/485 486/486/486 484/484/484
f 488/488/488 487/487/487 490/490/490
f 485/485/485 484/484/484 483/483/483
f 488/488/488 483/483/483 487/487/487
f 488/488/488 485/485/485 483/483/483
f 573/573/573 572/572/572 571/571/571
f 571/571/571 572/572/572 575/575/575
f 571/571/571 575/575/575 574/574/574
f 615/615/615 574/574/574 575/575/575
f 573/573/573 577/577/577 572/572/572
f 615/615/615 575/575/575 613/613/613
f 616/616/616 615/615/615 613/613/613
f 576/576/576 575/575/575 572/572/572
f 577/577/577 576/576/576 572/572/572
f 616/616/616 613/613/613 614/614/614
f 618/618/618 616/616/616 614/614/614
f 575/575/575 609/609/609 613/613/613
f 614/614/614 613/613/613 609/609/609
f 576/576/576 580/580/580 575/575/575
f 575/575/575 580/580/580 609/609/609
f 618/618/618 614/614/614 617/617/617
f 620/620/620 618/618/618 617/617/617
f 580/580/580 610/610/610 609/609/609
f 580/580/580 581/581/581 610/610/610
f 576/576/576 581/581/581 580/580/580
f 609/609/609 610/610/610 612/612/612
f 576/576/576 578/578/578 581/581/581
f 609/609/609 612/612/612 611/611/611
f 614/614/614 609/609/609 611/611/611
f 579/579/579 578/578/578 576/576/576
f 577/577/577 579/579/579 576/576/576
f 579/579/579 760/760/760 578/578/578
f 614/614/614 611/611/611 622/622/622
f 622/622/622 611/611/611 612/612/612
f 614/614/614 622/622/622 617/617/617
f 622/622/622 612/612/612 624/624/624
f 622/622/622 624/624/624 623/623/623
f 741/741/741 760/760/760 579/579/579
f 577/577/577 741/741/741 579/579/579
f 741/741/741 743/743/743 760/760/760
f 622/622/622 623/623/623 621/621/621
f 617/617/617 622/622/622 621/621/621
f 621/621/621 623/623/623 650/650/650
f 742/742/742 743/743/743 741/741/741
f 742/742/742 744/744/744 743/743/743
f 577/577/577 739/739/739 741/741/741
f 739/739/739 742/742/742 741/741/741
f 573/573/573 739/739/739 577/577/577
f 573/573/573 740/740/740 739/739/739
f 731/731/731 744/744/744 742/742/742
f 740/740/740 738/738/738 739/739/739
f 739/739/739 738/738/738 742/742/742
f 738/738/738 731/731/731 742/742/742
f 740/740/740 737/737/737 738/738/738
f 731/731/731 732/732/732 744/744/744
f 736/736/736 738/738/738 737/737/737
f 729/729/729 732/732/732 731/731/731
f 736/736/736 734/734/734 738/738/738
f 738/738/738 734/734/734 731/731/731
f 734/734/734 729/729/729 731/731/731
f 735/735/735 734/734/734 736/736/736
f 729/729/729 730/730/730 732/732/732
f 735/735/735 733/733/733 734/734/734
f 734/734/734 733/733/733 729/729/729
f 701/701/701 730/730/730 729/729/729
f 733/733/733 701/701/701 729/729/729
f 701/701/701 703/703/703 730/730/730
f 735/735/735 700/700/700 733/733/733
f 733/733/733 700/700/700 701/701/701
f 735/735/735 699/699/699 700/700/700
f 697/697/697 700/700/700 699/699/699
f 702/702/702 703/703/703 701/701/701
f 700/700/700 702/702/702 701/701/701
f 702/702/702 704/704/704 703/703/703
f 697/697/697 698/698/698 700/700/700
f 700/700/700 698/698/698 702/702/702
f 695/695/695 698/698/698 697/697/697
f 691/691/691 704/704/704 702/702/702
f 698/698/698 691/691/691 702/702/702
f 691/691/691 689/689/689 704/704/704
f 695/695/695 693/693/693 698/698/698
f 698/698/698 693/693/693 691/691/691
f 691/691/691 690/690/690 689/689/689
f 695/695/695 694/694/694 693/693/693
f 694/694/694 691/691/691 693/693/693
f 695/695/695 696/696/696 694/694/694
f 691/691/691 692/692/692 690/690/690
f 694/694/694 692/692/692 691/691/691
f 661/661/661 690/690/690 692/692/692
f 694/694/694 661/661/661 692/692/692
f 661/661/661 663/663/663 690/690/690
f 696/696/696 659/659/659 694/694/694
f 694/694/694 659/659/659 661/661/661
f 696/696/696 660/660/660 659/659/659
f 661/661/661 664/664/664 663/663/663
f 660/660/660 657/657/657 659/659/659
f 660/660/660 658/658/658 657/657/657
f 659/659/659 662/662/662 661/661/661
f 661/661/661 662/662/662 664/664/664
f 659/659/659 657/657/657 662/662/662
f 651/651/651 664/664/664 662/662/662
f 657/657/657 651/651/651 662/662/662
f 651/651/651 649/649/649 664/664/664
f 651/651/651 650/650/650 649/649/649
f 658/658/658 653/653/653 657/657/657
f 657/657/657 653/653/653 651/651/651
f 658/658/658 655/655/655 653/653/653
f 651/651/651 652/652/652 650/650/650
f 621/621/621 650/650/650 652/652/652
f 654/654/654 651/651/651 653/653/653
f 655/655/655 654/654/654 653/653/653
f 654/654/654 652/652/652 651/651/651
f 655/655/655 656/656/656 654/654/654
f 619/619/619 621/621/621 652/652/652
f 619/619/619 652/652/652 654/654/654
f 656/656/656 619/619/619 654/654/654
f 617/617/617 621/621/621 619/619/619
f 656/656/656 620/620/620 619/619/619
f 620/620/620 617/617/617 619/619/619
f 584/584/584 583/583/583 582/582/582
f 586/586/586 582/582/582 583/583/583
f 584/584/584 759/759/759 583/583/583
f 586/586/586 583/583/583 585/585/585
f 584/584/584 746/746/746 759/759/759
f 586/586/586 585/585/585 606/606/606
f 584/584/584 745/745/745 746/746/746
f 586/586/586 606/606/606 605/605/605
f 747/747/747 746/746/746 745/745/745
f 608/608/608 605/605/605 606/606/606
f 747/747/747 748/748/748 746/746/746
f 608/608/608 606/606/606 607/607/607
f 727/727/727 748/748/748 747/747/747
f 608/608/608 607/607/607 628/628/628
f 727/727/727 728/728/728 748/748/748
f 608/608/608 628/628/628 627/627/627
f 726/726/726 728/728/728 727/727/727
f 627/627/627 628/628/628 626/626/626
f 726/726/726 725/725/725 728/728/728
f 627/627/627 626/626/626 625/625/625
f 726/726/726 705/705/705 725/725/725
f 625/625/625 626/626/626 646/646/646
f 726/726/726 707/707/707 705/705/705
f 625/625/625 646/646/646 648/648/648
f 707/707/707 706/706/706 705/705/705
f 647/647/647 648/648/648 646/646/646
f 707/707/707 708/708/708 706/706/706
f 647/647/647 646/646/646 645/645/645
f 708/708/708 686/686/686 706/706/706
f 647/647/647 645/645/645 666/666/666
f 708/708/708 685/685/685 686/686/686
f 647/647/647 666/666/666 668/668/668
f 687/687/687 686/686/686 685/685/685
f 667/667/667 668/668/668 666/666/666
f 687/687/687 688/688/688 686/686/686
f 667/667/667 688/688/688 687/687/687
f 667/667/667 666/666/666 665/665/665
f 667/667/667 665/665/665 688/688/688
f 589/589/589 588/588/588 587/587/587
f 751/751/751 587/587/587 588/588/588
f 589/589/589 590/590/590 588/588/588
f 751/751/751 588/588/588 758/758/758
f 589/589/589 591/591/591 590/590/590
f 751/751/751 758/758/758 750/750/750
f 589/589/589 602/602/602 591/591/591
f 751/751/751 750/750/750 749/749/749
f 602/602/602 601/601/601 591/591/591
f 749/749/749 750/750/750 752/752/752
f 602/602/602 604/604/604 601/601/601
f 749/749/749 752/752/752 724/724/724
f 604/604/604 603/603/603 601/601/601
f 724/724/724 752/752/752 721/721/721
f 604/604/604 632/632/632 603/603/603
f 724/724/724 721/721/721 723/723/723
f 632/632/632 629/629/629 603/603/603
f 722/722/722 723/723/723 721/721/721
f 632/632/632 631/631/631 629/629/629
f 722/722/722 721/721/721 710/710/710
f 631/631/631 630/630/630 629/629/629
f 711/711/711 722/722/722 710/710/710
f 631/631/631 644/644/644 630/630/630
f 711/711/711 710/710/710 709/709/709
f 644/644/644 641/641/641 630/630/630
f 711/711/711 709/709/709 682/682/682
f 644/644/644 643/643/643 641/641/641
f 711/711/711 682/682/682 712/712/712
f 643/643/643 642/642/642 641/641/641
f 683/683/683 712/712/712 682/682/682
f 643/643/643 672/672/672 642/642/642
f 683/683/683 682/682/682 681/681/681
f 672/672/672 669/669/669 642/642/642
f 684/684/684 683/683/683 681/681/681
f 672/672/672 671/671/671 669/669/669
f 684/684/684 681/681/681 670/670/670
f 671/671/671 670/670/670 669/669/669
f 671/671/671 684/684/684 670/670/670
f 594/594/594 593/593/593 592/592/592
f 594/594/594 592/592/592 596/596/596
f 594/594/594 757/757/757 593/593/593
f 594/594/594 596/596/596 595/595/595
f 757/757/757 754/754/754 593/593/593
f 595/595/595 596/596/596 598/598/598
f 757/757/757 753/753/753 754/754/754
f 595/595/595 598/598/598 597/597/597
f 755/755/755 754/754/754 753/753/753
f 600/600/600 597/597/597 598/598/598
f 755/755/755 756/756/756 754/754/754
f 600/600/600 598/598/598 599/599/599
f 755/755/755 720/720/720 756/756/756
f 600/600/600 599/599/599 634/634/634
f 755/755/755 719/719/719 720/720/720
f 600/600/600 634/634/634 636/636/636
f 718/718/718 720/720/720 719/719/719
f 635/635/635 636/636/636 634/634/634
f 718/718/718 717/717/717 720/720/720
f 635/635/635 634/634/634 633/633/633
f 718/718/718 713/713/713 717/717/717
f 635/635/635 633/633/633 638/638/638
f 718/718/718 715/715/715 713/713/713
f 635/635/635 638/638/638 637/637/637
f 715/715/715 714/714/714 713/713/713
f 640/640/640 637/637/637 638/638/638
f 715/715/715 716/716/716 714/714/714
f 640/640/640 638/638/638 639/639/639
f 716/716/716 680/680/680 714/714/714
f 640/640/640 639/639/639 674/674/674
f 716/716/716 679/679/679 680/680/680
f 640/640/640 674/674/674 676/676/676
f 678/678/678 680/680/680 679/679/679
f 675/675/675 676/676/676 674/674/674
f 678/678/678 677/677/677 680/680/680
f 675/675/675 674/674/674 673/673/673
f 678/678/678 673/673/673 677/677/677
f 678/678/678 675/675/675 673/673/673
