# VPXTOOL table OBJ file
# VPXTOOL OBJ file
# numVerts: 242 numFaces: 416
o VRLeftFlip
v -0.585733 21.338812 -15.748625
v -0.580608 21.341225 -15.741409
v -0.585733 21.29358 -15.738281
v -0.585733 21.325975 -16.20154
v -0.585733 21.280209 -16.209301
v -0.580608 21.327969 -16.208868
v -0.580608 21.49944 -15.90886
v -0.571014 21.505297 -15.906789
v -0.580608 21.48237 -15.864106
v -0.580608 21.384941 -15.760988
v -0.571014 21.387627 -15.755385
v -0.571014 21.513596 -15.955202
v -0.403941 21.506397 -15.90697
v -0.571014 21.19736 -15.731532
v -0.580608 21.199432 -15.73739
v -0.571014 21.245773 -15.723229
v -0.571014 21.039684 -16.085331
v -0.571014 21.022102 -16.039469
v -0.40394 21.038584 -16.08537
v -0.571014 21.281628 -16.223028
v -0.571014 21.232216 -16.22061
v -0.40394 21.281242 -16.22407
v -0.580608 21.019947 -15.990177
v -0.571014 21.013803 -15.991066
v -0.580608 21.02796 -16.037397
v -0.585733 21.201427 -15.744724
v -0.585733 21.24718 -15.736967
v -0.585733 21.44237 -16.128452
v -0.580608 21.44811 -16.133436
v -0.585733 21.469238 -16.09061
v -0.580608 21.045029 -16.08216
v -0.580608 21.506086 -16.003963
v -0.585733 21.498547 -16.003008
v -0.580608 21.49542 -16.050665
v -0.585733 21.475573 -15.867497
v -0.585733 21.492102 -15.910855
v -0.571014 21.33004 -16.214725
v -0.40394 21.021008 -16.039297
v -0.571014 21.139772 -16.19087
v -0.580608 21.14245 -16.185268
v -0.571014 21.099669 -16.16251
v -0.40394 21.138876 -16.19152
v -0.571014 21.481443 -16.097054
v -0.571014 21.453085 -16.13716
v -0.40394 21.482094 -16.097954
v -0.571014 21.025959 -15.89406
v -0.580608 21.03198 -15.895601
v -0.571014 21.045956 -15.849204
v -0.585733 21.15806 -15.761265
v -0.580608 21.154676 -15.754455
v -0.580608 21.413286 -16.166332
v -0.585733 21.039188 -15.898013
v -0.585733 21.058151 -15.855657
v -0.585733 21.419016 -15.794459
v -0.585733 21.450886 -15.828195
v -0.580608 21.424007 -15.788725
v -0.571014 21.184633 -16.210867
v -0.580608 21.18617 -16.204847
v -0.580608 21.456902 -15.823533
v -0.571014 21.461517 -15.819388
v -0.571014 21.015106 -15.941961
v -0.40394 21.012756 -15.990681
v -0.571014 21.417442 -16.170948
v -0.40394 21.45354 -16.138163
v -0.571014 21.065882 -16.126879
v -0.40394 21.064804 -16.127132
v -0.571014 21.375015 -16.1964
v -0.40394 21.375938 -16.198246
v -0.571014 21.109947 -15.77531
v -0.571014 21.152388 -15.749866
v -0.40394 21.109695 -15.774233
v -0.580608 21.280739 -16.216879
v -0.580608 21.232866 -16.215519
v -0.585733 21.188574 -16.197641
v -0.585733 21.233824 -16.207985
v -0.585733 21.499859 -15.956619
v -0.580608 21.475843 -16.09438
v -0.585733 21.488214 -16.048254
v -0.580608 21.114105 -15.779926
v -0.571014 21.427721 -15.783748
v -0.40394 21.428724 -15.783289
v -0.571014 21.295183 -15.725647
v -0.571014 21.34277 -15.735399
v -0.40394 21.295448 -15.723598
v -0.40394 21.246147 -15.722198
v -0.571014 21.074318 -15.809107
v -0.40394 21.045307 -15.848313
v -0.40394 21.417704 -16.172024
v -0.571014 21.512293 -16.004295
v -0.403941 21.51463 -15.955587
v -0.571014 21.50144 -16.052197
v -0.403941 21.513239 -16.004875
v -0.580608 21.051561 -15.851877
v -0.585733 21.381168 -15.767592
v -0.585733 21.035288 -16.0354
v -0.585733 21.027527 -15.989647
v -0.580608 21.021313 -15.942293
v -0.585733 21.028843 -15.943251
v -0.585733 21.108385 -16.151808
v -0.585733 21.076506 -16.118073
v -0.580608 21.103394 -16.157541
v -0.40394 21.343517 -15.734581
v -0.580608 21.294535 -15.73074
v -0.580608 21.372719 -16.191803
v -0.585733 21.146217 -16.178675
v -0.580608 21.24665 -15.72938
v -0.585733 21.369331 -16.185003
v -0.40394 21.02515 -15.893311
v -0.40394 21.197533 -15.730445
v -0.580608 21.079288 -15.81283
v -0.40394 21.07385 -15.808104
v -0.571014 21.487717 -15.860934
v -0.40394 21.462595 -15.819134
v -0.40394 21.098667 -16.16298
v -0.580608 21.070498 -16.122725
v -0.585733 21.051826 -16.07877
v -0.585733 21.118755 -15.785942
v -0.40394 21.388523 -15.754735
v -0.580608 21.507448 -15.956089
v -0.40394 21.488815 -15.860888
v -0.585733 21.408634 -16.160326
v -0.40394 21.329866 -16.215822
v -0.585733 21.08503 -15.817814
v -0.40394 21.183884 -16.211676
v -0.40394 21.502249 -16.052946
v -0.40394 21.01416 -15.941391
v -0.40394 21.23195 -16.222668
v -0.40394 21.15146 -15.74801
v -0.585733 21.334183 -15.762466
v -0.585733 21.373928 -15.780263
v -0.585733 21.40944 -15.805474
v -0.585733 21.205267 -15.758805
v -0.585733 21.04332 -15.945093
v -0.585733 21.431353 -16.118877
v -0.585733 21.484068 -16.001165
v -0.585733 21.474371 -16.043623
v -0.585733 21.153461 -16.166004
v -0.585733 21.4853 -15.957638
v -0.585733 21.070826 -15.862899
v -0.585733 21.399698 -16.148785
v -0.585733 21.193209 -16.183802
v -0.585733 21.127691 -15.797482
v -0.585733 21.248198 -15.751526
v -0.585733 21.291739 -15.75276
v -0.585733 21.462511 -15.87401
v -0.585733 21.279194 -16.194742
v -0.585733 21.235666 -16.193506
v -0.585733 21.096046 -15.827388
v -0.585733 21.47802 -15.914696
v -0.585733 21.456566 -16.083368
v -0.585733 21.049366 -16.031563
v -0.585733 21.088047 -16.109137
v -0.585733 21.064892 -16.072256
v -0.585733 21.322132 -16.187462
v -0.585733 21.36282 -16.171942
v -0.585733 21.439348 -15.83713
v -0.573888 21.10464 -16.016495
v -0.585733 21.042086 -15.98863
v -0.573888 21.42004 -16.025444
v -0.573888 21.345499 -15.830002
v -0.573888 21.371857 -15.848711
v -0.573888 21.100151 -15.952324
v -0.573888 21.411242 -15.899573
v -0.585733 21.053028 -15.902644
v -0.573888 21.394049 -15.872203
v -0.573888 21.422749 -15.929766
v -0.573888 21.120567 -15.891327
v -0.573888 21.162764 -15.84278
v -0.585733 21.164572 -15.774326
v -0.573888 21.42815 -15.961634
v -0.573888 21.427237 -15.993937
v -0.573888 21.18189 -16.116264
v -0.585733 21.11796 -16.140793
v -0.573888 21.139282 -15.864974
v -0.573888 21.211384 -16.129473
v -0.573888 21.242893 -16.136675
v -0.573888 21.364626 -16.103487
v -0.573888 21.337257 -16.12067
v -0.573888 21.307066 -16.132187
v -0.573888 21.406828 -16.05494
v -0.573888 21.275196 -16.13759
v -0.573888 21.190138 -15.825596
v -0.573888 21.252195 -15.808676
v -0.573888 21.284508 -15.809591
v -0.573888 21.13334 -16.074064
v -0.573888 21.220339 -15.814078
v -0.573888 21.316006 -15.816794
v -0.573888 21.107359 -15.920822
v -0.565666 21.157932 -15.912684
v -0.565666 21.189117 -15.876811
v -0.565666 21.385216 -15.964636
v -0.565666 21.384542 -15.988504
v -0.565666 21.203249 -16.078897
v -0.573888 21.155542 -16.097555
v -0.565666 21.171762 -15.893211
v -0.565666 21.225042 -16.088657
v -0.565666 21.248325 -16.093979
v -0.573888 21.388117 -16.081291
v -0.565666 21.355637 -16.053055
v -0.565666 21.31805 -16.082153
v -0.565666 21.295744 -16.090664
v -0.565666 21.338278 -16.069456
v -0.565666 21.272192 -16.094656
v -0.565666 21.209343 -15.864114
v -0.565666 21.2552 -15.85161
v -0.565666 21.279074 -15.852287
v -0.573888 21.11616 -16.046694
v -0.565666 21.146164 -16.005175
v -0.565666 21.167372 -16.047714
v -0.565666 21.231659 -15.855603
v -0.565666 21.379225 -16.011787
v -0.565666 21.302353 -15.85761
v -0.573888 21.099241 -15.984632
v -0.565666 21.324146 -15.86737
v -0.565666 21.14285 -15.957756
v -0.565666 21.343618 -15.881194
v -0.565666 21.372723 -15.918777
v -0.565666 21.36002 -15.898553
v -0.565666 21.381226 -15.941088
v -0.557371 21.263702 -15.973133
v -0.557371 21.263702 -15.973133
v -0.565666 21.36946 -16.033583
v -0.557371 21.263702 -15.973133
v -0.557371 21.263702 -15.973133
v -0.557371 21.263702 -15.973133
v -0.557371 21.263702 -15.973133
v -0.565666 21.154676 -16.027489
v -0.557371 21.263702 -15.973133
v -0.557371 21.263702 -15.973133
v -0.557371 21.263702 -15.973133
v -0.565666 21.18378 -16.065073
v -0.557371 21.263702 -15.973133
v -0.557371 21.263702 -15.973133
v -0.565666 21.142176 -15.98163
v -0.557371 21.263702 -15.973133
v -0.557371 21.263702 -15.973133
v -0.557371 21.263702 -15.973133
v -0.557371 21.263702 -15.973133
v -0.557371 21.263702 -15.973133
v -0.557371 21.263702 -15.973133
v -0.565666 21.148174 -15.934479
v -0.557371 21.263702 -15.973133
vt 0.989771 0.065245986
vt 0.961884 0.05128801
vt 0.989771 0.038468003
vt 0.989772 0.961531997
vt 0.989772 0.970574021
vt 0.961884 0.97635001
vt 0.961884 0.405248
vt 0.907427 0.403068
vt 0.961884 0.31413698
vt 0.961884 0.09617001
vt 0.907434 0.086881995
vt 0.907428 0.5
vt 0 0.40245497
vt 0.907419 0.012692988
vt 0.961884 0.02364999
vt 0.90742 0.0031459928
vt 0.90743 0.69013798
vt 0.907428 0.59693098
vt 0.000001 0.691342
vt 0.907421 0.9968540072
vt 0.920534 0.98635298
vt 0.000001 1
vt 0.961884 0.5
vt 0.907429 0.5
vt 0.961884 0.594752
vt 0.989771 0.038468003
vt 0.989771 0.029425979
vt 0.989772 0.83274603
vt 0.961884 0.84342903
vt 0.989771 0.761437
vt 0.961884 0.68586302
vt 0.961884 0.594752
vt 0.989771 0.59180403
vt 0.961884 0.68586302
vt 0.989771 0.319919
vt 0.989771 0.40819597
vt 0.90742 0.987307012
vt 0 0.59754503
vt 0.907435 0.913118005
vt 0.961884 0.90382999
vt 0.907426 0.85132903
vt 0.000001 0.91573501
vt 0.907426 0.77603698
vt 0.907425 0.85132903
vt 0 0.777785
vt 0.907429 0.30986297
vt 0.961884 0.31413698
vt 0.907432 0.22396302
vt 0.989771 0.065245986
vt 0.961884 0.05128801
vt 0.961884 0.90382999
vt 0.989771 0.319919
vt 0.989771 0.238563
vt 0.989771 0.16725397
vt 0.989771 0.238563
vt 0.961884 0.15657103
vt 0.907421 0.959033012
vt 0.961884 0.94871199
vt 0.961884 0.230169
vt 0.907425 0.22396302
vt 0.907428 0.403068
vt 0 0.5
vt 0.907436 0.913118005
vt 0.000001 0.853553
vt 0.907427 0.77603698
vt 0.000001 0.777785
vt 0.920534 0.958133996
vt 0.000001 0.96193999
vt 0.907435 0.086881995
vt 0.920533 0.04186499
vt 0 0.08426499
vt 0.961884 0.985682011
vt 0.961884 0.97635001
vt 0.989772 0.934754014
vt 0.989772 0.961531997
vt 0.989771 0.5
vt 0.961884 0.769831
vt 0.989771 0.680081
vt 0.961884 0.09617001
vt 0.907424 0.14867103
vt 0 0.146447
vt 0.920533 0.01364702
vt 0.90742 0.040965974
vt -0 0.009607017
vt -0 0
vt 0.907426 0.14867198
vt 0 0.222215
vt 0.000001 0.91573501
vt 0.907428 0.59693098
vt 0 0.5
vt 0.90743 0.69013703
vt 0 0.59754503
vt 0.961884 0.230169
vt 0.989771 0.108731985
vt 0.989772 0.59180403
vt 0.989771 0.5
vt 0.961884 0.405248
vt 0.989771 0.40819502
vt 0.989772 0.83274603
vt 0.989772 0.761437
vt 0.961884 0.84342903
vt 0 0.03806001
vt 0.961884 0.02364999
vt 0.961884 0.94871199
vt 0.989772 0.891268015
vt 0.961884 0.014317989
vt 0.989772 0.934754014
vt 0 0.308658
vt -0 0.009607017
vt 0.961884 0.15657103
vt 0 0.146447
vt 0.907429 0.30986202
vt 0 0.222215
vt 0.000001 0.85355401
vt 0.961884 0.769831
vt 0.989772 0.680081
vt 0.989771 0.108731985
vt 0 0.08426499
vt 0.961884 0.5
vt 0 0.308658
vt 0.989772 0.891268015
vt 0.000001 0.990392983
vt 0.989771 0.16725397
vt 0.000001 0.96193999
vt 0 0.691342
vt 0 0.40245497
vt 0.000001 0.990392983
vt 0 0.03806001
vt 0.989771 0.065245986
vt 0.989771 0.108731985
vt 0.989771 0.16725397
vt 0.989771 0.038468003
vt 0.989771 0.40819502
vt 0.989772 0.83274603
vt 0.989771 0.59180403
vt 0.989771 0.680081
vt 0.989772 0.891268015
vt 0.989771 0.5
vt 0.989771 0.238563
vt 0.989772 0.891268015
vt 0.989772 0.934754014
vt 0.989771 0.108731985
vt 0.989771 0.029425979
vt 0.989771 0.038468003
vt 0.989771 0.319919
vt 0.989772 0.970574021
vt 0.989772 0.961531997
vt 0.989771 0.16725397
vt 0.989771 0.40819597
vt 0.989771 0.761437
vt 0.989772 0.59180403
vt 0.989772 0.761437
vt 0.989772 0.680081
vt 0.989772 0.961531997
vt 0.989772 0.934754014
vt 0.989771 0.238563
vt 0.989772 0.59180403
vt 0.989771 0.5
vt 0.989771 0.680081
vt 0.989771 0.108731985
vt 0.989771 0.16725397
vt 0.989771 0.40819502
vt 0.989771 0.319919
vt 0.989771 0.319919
vt 0.989771 0.238563
vt 0.989771 0.40819597
vt 0.989771 0.238563
vt 0.989771 0.108731985
vt 0.989771 0.065245986
vt 0.989771 0.5
vt 0.989771 0.59180403
vt 0.989772 0.891268015
vt 0.989772 0.83274603
vt 0.989771 0.16725397
vt 0.989772 0.934754014
vt 0.989772 0.961531997
vt 0.989772 0.891268015
vt 0.989772 0.934754014
vt 0.989772 0.961531997
vt 0.989771 0.761437
vt 0.989772 0.970574021
vt 0.989771 0.065245986
vt 0.989771 0.029425979
vt 0.989771 0.038468003
vt 0.989772 0.761437
vt 0.989771 0.038468003
vt 0.989771 0.065245986
vt 0.989771 0.319919
vt 0.989771 0.238563
vt 0.989771 0.108731985
vt 0.989771 0.5
vt 0.989771 0.59180403
vt 0.989772 0.891268015
vt 0.989772 0.83274603
vt 0.989771 0.16725397
vt 0.989772 0.934754014
vt 0.989772 0.961531997
vt 0.989772 0.83274603
vt 0.989772 0.83274603
vt 0.989772 0.934754014
vt 0.989772 0.961531997
vt 0.989772 0.891268015
vt 0.989772 0.970574021
vt 0.989771 0.065245986
vt 0.989771 0.029425979
vt 0.989771 0.038468003
vt 0.989772 0.680081
vt 0.989772 0.59180403
vt 0.989772 0.761437
vt 0.989771 0.038468003
vt 0.989771 0.680081
vt 0.989771 0.065245986
vt 0.989771 0.5
vt 0.989771 0.108731985
vt 0.989771 0.40819502
vt 0.989771 0.16725397
vt 0.989771 0.319919
vt 0.989771 0.238563
vt 0.989771 0.40819597
vt 0.989772 0.934754014
vt 0.989772 0.891268015
vt 0.989771 0.761437
vt 0.989772 0.83274603
vt 0.989772 0.970574021
vt 0.989771 0.038468003
vt 0.989771 0.029425979
vt 0.989772 0.680081
vt 0.989772 0.59180403
vt 0.989771 0.065245986
vt 0.989772 0.761437
vt 0.989772 0.83274603
vt 0.989771 0.59180403
vt 0.989771 0.5
vt 0.989771 0.5
vt 0.989771 0.680081
vt 0.989771 0.108731985
vt 0.989771 0.40819502
vt 0.989771 0.16725397
vt 0.989771 0.40819597
vt 0.989771 0.319919
vt 0.989771 0.319919
vt 0.989771 0.238563
vn -0.9512 0.0979 0.2927
vn -0.694 0.2292 0.6825
vn -0.9511 0.039 0.3063
vn -0.9511 0.0813 -0.2981
vn -0.9511 0.0215 -0.3082
vn -0.6939 0.1886 -0.695
vn -0.6941 0.6947 0.1886
vn -0.281 0.9253 0.2548
vn -0.694 0.6447 0.3205
vn -0.6942 0.3579 0.6246
vn -0.281 0.4742 0.8344
vn -0.2809 0.9572 0.0693
vn -0.0058 0.9648 0.263
vn -0.2791 -0.26 0.9244
vn -0.6941 -0.1886 0.6948
vn -0.2803 -0.059 0.9581
vn -0.281 -0.8578 -0.4303
vn -0.281 -0.9253 -0.2547
vn -0.0058 -0.8949 -0.4462
vn -0.2803 0.059 -0.9581
vn -0.248 -0.1165 -0.9617
vn -0.0085 0.0677 -0.9977
vn -0.6939 -0.7184 -0.0495
vn -0.2808 -0.9572 -0.0694
vn -0.6939 -0.6949 -0.1886
vn -0.9511 -0.0812 0.2979
vn -0.9512 -0.0215 0.3079
vn -0.9512 0.233 -0.2026
vn -0.6941 0.5428 -0.4729
vn -0.9512 0.268 -0.1532
vn -0.694 -0.6447 -0.3205
vn -0.6941 0.714 -0.0916
vn -0.9511 0.3064 -0.0389
vn -0.6939 0.6826 -0.2292
vn -0.9511 0.2765 0.1378
vn -0.9512 0.2978 0.0812
vn -0.2791 0.2599 -0.9244
vn -0.0059 -0.9647 -0.2631
vn -0.2808 -0.4741 -0.8345
vn -0.6938 -0.3581 -0.6249
vn -0.2809 -0.6278 -0.7259
vn -0.0058 -0.4961 -0.8682
vn -0.2808 0.8345 -0.4741
vn -0.2809 0.7258 -0.6279
vn -0.0058 0.8682 -0.4962
vn -0.281 -0.9109 0.3022
vn -0.6941 -0.6825 0.2292
vn -0.2809 -0.8344 0.4742
vn -0.9512 -0.1377 0.2762
vn -0.665 -0.3375 0.6662
vn -0.6916 0.4379 -0.5744
vn -0.9511 -0.2928 0.098
vn -0.9511 -0.2682 0.1533
vn -0.9511 0.2026 0.233
vn -0.9512 0.2439 0.1889
vn -0.694 0.473 0.5428
vn -0.2792 -0.2975 -0.913
vn -0.6939 -0.2292 -0.6826
vn -0.694 0.5697 0.4402
vn -0.2807 0.7574 0.5896
vn -0.281 -0.9523 0.1187
vn -0.0059 -0.9975 -0.0698
vn -0.2802 0.5813 -0.7639
vn -0.0058 0.7547 -0.6561
vn -0.2809 -0.7574 -0.5895
vn -0.0058 -0.7907 -0.6121
vn -0.2481 0.4374 -0.8643
vn -0.0097 0.448 -0.894
vn -0.2802 -0.5813 0.7639
vn -0.2477 -0.4375 0.8644
vn -0.0085 -0.6106 0.7919
vn -0.6916 0.045 -0.7208
vn -0.665 -0.0895 -0.7415
vn -0.951 -0.0981 -0.2931
vn -0.951 -0.039 -0.3066
vn -0.9512 0.3078 0.0215
vn -0.6939 0.6248 -0.358
vn -0.9511 0.293 -0.098
vn -0.6918 -0.4378 0.5743
vn -0.2809 0.6278 0.7259
vn -0.0058 0.6561 0.7547
vn -0.2479 0.1165 0.9617
vn -0.279 0.2975 0.9131
vn -0.0097 0.1242 0.9922
vn -0.0085 -0.0677 0.9977
vn -0.2809 -0.7259 0.6278
vn -0.0058 -0.8682 0.4962
vn -0.0085 0.6106 -0.7919
vn -0.281 0.9523 -0.1187
vn -0.0058 0.9975 0.0697
vn -0.2809 0.9109 -0.3022
vn -0.0058 0.992 -0.1262
vn -0.6939 -0.6248 0.3581
vn -0.9512 0.1531 0.2679
vn -0.9511 -0.2981 -0.0813
vn -0.9511 -0.3081 -0.0215
vn -0.6939 -0.7142 0.0916
vn -0.951 -0.3066 0.039
vn -0.9511 -0.2025 -0.2331
vn -0.9511 -0.2443 -0.1891
vn -0.694 -0.4729 -0.5429
vn -0.0058 0.3172 0.9483
vn -0.6651 0.0895 0.7413
vn -0.6652 0.3373 -0.6661
vn -0.9511 -0.1534 -0.2682
vn -0.6919 -0.045 0.7206
vn -0.9511 0.1378 -0.2764
vn -0.0058 -0.9483 0.3173
vn -0.0058 -0.263 0.9648
vn -0.694 -0.5429 0.4729
vn -0.0058 -0.7547 0.656
vn -0.281 0.8578 0.4304
vn -0.0058 0.7906 0.6123
vn -0.0058 -0.656 -0.7547
vn -0.6939 -0.5699 -0.4402
vn -0.9511 -0.2765 -0.1378
vn -0.9512 -0.189 0.2441
vn -0.0058 0.4963 0.8681
vn -0.6942 0.7181 0.0494
vn -0.0058 0.8949 0.4463
vn -0.9511 0.1891 -0.2443
vn -0.0058 0.2631 -0.9648
vn -0.9512 -0.233 0.2025
vn -0.0058 -0.3173 -0.9483
vn -0.0058 0.9483 -0.3174
vn -0.0058 -0.992 0.1263
vn -0.0097 -0.1242 -0.9922
vn -0.0097 -0.448 0.894
vn -0.9954 -0.0303 -0.0905
vn -0.9954 -0.0474 -0.0829
vn -0.9954 -0.0626 -0.0721
vn -0.9954 0.0251 -0.0921
vn -0.9954 0.0947 -0.012
vn -0.9954 -0.0721 0.0626
vn -0.9954 -0.0947 0.012
vn -0.9954 -0.0905 0.0303
vn -0.9954 0.0474 0.0829
vn -0.9954 -0.0952 -0.0067
vn -0.9954 0.0829 -0.0474
vn -0.9954 -0.0585 0.0755
vn -0.9954 0.0303 0.0905
vn -0.9954 0.0584 -0.0755
vn -0.9954 0.0067 -0.0952
vn -0.9954 -0.012 -0.0947
vn -0.9954 -0.0854 -0.0426
vn -0.9954 -0.0067 0.0952
vn -0.9954 0.012 0.0947
vn -0.9954 0.0721 -0.0626
vn -0.9954 -0.0921 -0.0251
vn -0.9954 -0.0829 0.0474
vn -0.9954 0.0921 0.0251
vn -0.9954 0.0755 0.0584
vn -0.9954 0.0854 0.0426
vn -0.9954 -0.0251 0.0921
vn -0.9954 -0.0426 0.0854
vn -0.9954 -0.0755 -0.0585
vn -0.9807 0.1886 0.0514
vn -0.9954 0.0952 0.0067
vn -0.9807 -0.1854 0.062
vn -0.9807 -0.097 -0.1698
vn -0.9807 -0.1283 -0.1476
vn -0.9807 0.194 -0.0247
vn -0.9807 -0.175 -0.0872
vn -0.9954 0.0905 -0.0303
vn -0.9807 -0.1546 -0.1197
vn -0.9807 -0.1887 -0.0514
vn -0.9807 0.1698 -0.097
vn -0.9807 0.1197 -0.1546
vn -0.9954 0.0426 -0.0854
vn -0.9807 -0.195 -0.0136
vn -0.9807 -0.194 0.0246
vn -0.9807 0.097 0.1698
vn -0.9954 0.0626 0.0721
vn -0.9807 0.1476 -0.1283
vn -0.9807 0.062 0.1854
vn -0.9807 0.0247 0.1939
vn -0.9807 -0.1197 0.1546
vn -0.9807 -0.0872 0.175
vn -0.9807 -0.0514 0.1886
vn -0.9807 -0.1697 0.097
vn -0.9807 -0.0136 0.195
vn -0.9807 0.0872 -0.175
vn -0.9807 0.0136 -0.195
vn -0.9807 -0.0247 -0.194
vn -0.9807 0.1546 0.1197
vn -0.9807 0.0514 -0.1886
vn -0.9807 -0.062 -0.1854
vn -0.9807 0.1854 -0.0621
vn -0.9913 0.1144 -0.0654
vn -0.9913 0.0806 -0.1041
vn -0.9913 -0.1314 -0.0092
vn -0.9913 -0.1307 0.0166
vn -0.9913 0.0654 0.1144
vn -0.9807 0.1283 0.1476
vn -0.9913 0.0994 -0.0864
vn -0.9913 0.0418 0.1249
vn -0.9913 0.0166 0.1307
vn -0.9807 -0.1476 0.1283
vn -0.9913 -0.0994 0.0864
vn -0.9913 -0.0588 0.1179
vn -0.9913 -0.0347 0.1271
vn -0.9913 -0.0806 0.1042
vn -0.9913 -0.0092 0.1314
vn -0.9913 0.0588 -0.1179
vn -0.9913 0.0092 -0.1314
vn -0.9913 -0.0166 -0.1307
vn -0.9807 0.175 0.0872
vn -0.9913 0.1271 0.0346
vn -0.9913 0.1042 0.0806
vn -0.9913 0.0347 -0.1271
vn -0.9913 -0.1249 0.0418
vn -0.9913 -0.0418 -0.1249
vn -0.9807 0.195 0.0136
vn -0.9913 -0.0654 -0.1144
vn -0.9913 0.1307 -0.0166
vn -0.9913 -0.0864 -0.0994
vn -0.9913 -0.1179 -0.0588
vn -0.9913 -0.1041 -0.0807
vn -0.9913 -0.1271 -0.0346
vn -1 -0 -0
vn -1 -0 -0
vn -0.9913 -0.1144 0.0654
vn -1 -0 -0
vn -1 -0 -0
vn -1 -0 -0
vn -1 -0 -0
vn -0.9913 0.1179 0.0588
vn -1 -0 -0
vn -1 -0 -0
vn -1 -0 -0
vn -0.9913 0.0864 0.0994
vn -1 -0 -0
vn -1 -0 -0
vn -0.9913 0.1314 0.0092
vn -1 -0 -0
vn -1 -0 -0
vn -1 -0 -0
vn -1 -0 -0
vn -1 -0 -0
vn -1 -0 -0
vn -0.9913 0.1249 -0.0418
vn -1 -0 -0
f 208/208/208 228/228/228 227/227/227
f 208/208/208 227/227/227 207/207/207
f 207/207/207 227/227/227 209/209/209
f 209/209/209 227/227/227 230/230/230
f 209/209/209 230/230/230 231/231/231
f 208/208/208 207/207/207 157/157/157
f 209/209/209 231/231/231 194/194/194
f 207/207/207 209/209/209 185/185/185
f 209/209/209 194/194/194 185/185/185
f 157/157/157 207/207/207 153/153/153
f 153/153/153 207/207/207 185/185/185
f 194/194/194 231/231/231 193/193/193
f 231/231/231 223/223/223 193/193/193
f 185/185/185 194/194/194 173/173/173
f 194/194/194 193/193/193 172/172/172
f 173/173/173 194/194/194 172/172/172
f 153/153/153 185/185/185 152/152/152
f 185/185/185 173/173/173 152/152/152
f 175/175/175 172/172/172 193/193/193
f 152/152/152 173/173/173 99/99/99
f 175/175/175 193/193/193 196/196/196
f 196/196/196 193/193/193 220/220/220
f 173/173/173 172/172/172 137/137/137
f 99/99/99 173/173/173 137/137/137
f 196/196/196 220/220/220 197/197/197
f 175/175/175 196/196/196 197/197/197
f 141/141/141 137/137/137 172/172/172
f 141/141/141 172/172/172 175/175/175
f 175/175/175 197/197/197 176/176/176
f 141/141/141 175/175/175 176/176/176
f 99/99/99 137/137/137 105/105/105
f 181/181/181 176/176/176 197/197/197
f 74/74/74 105/105/105 137/137/137
f 74/74/74 137/137/137 141/141/141
f 181/181/181 197/197/197 203/203/203
f 203/203/203 197/197/197 224/224/224
f 203/203/203 224/224/224 201/201/201
f 181/181/181 203/203/203 201/201/201
f 200/200/200 201/201/201 220/220/220
f 141/141/141 176/176/176 147/147/147
f 147/147/147 176/176/176 181/181/181
f 141/141/141 75/75/75 74/74/74
f 141/141/141 147/147/147 75/75/75
f 40/40/40 105/105/105 74/74/74
f 40/40/40 99/99/99 105/105/105
f 75/75/75 58/58/58 74/74/74
f 40/40/40 74/74/74 58/58/58
f 147/147/147 181/181/181 146/146/146
f 5/5/5 75/75/75 147/147/147
f 5/5/5 147/147/147 146/146/146
f 75/75/75 73/73/73 58/58/58
f 73/73/73 75/75/75 5/5/5
f 146/146/146 181/181/181 179/179/179
f 181/181/181 201/201/201 179/179/179
f 5/5/5 146/146/146 154/154/154
f 146/146/146 179/179/179 154/154/154
f 178/178/178 179/179/179 201/201/201
f 178/178/178 201/201/201 200/200/200
f 155/155/155 154/154/154 179/179/179
f 155/155/155 179/179/179 178/178/178
f 178/178/178 200/200/200 202/202/202
f 202/202/202 200/200/200 221/221/221
f 202/202/202 221/221/221 199/199/199
f 178/178/178 202/202/202 177/177/177
f 177/177/177 202/202/202 199/199/199
f 155/155/155 178/178/178 177/177/177
f 199/199/199 223/223/223 222/222/222
f 4/4/4 154/154/154 155/155/155
f 5/5/5 154/154/154 4/4/4
f 177/177/177 199/199/199 198/198/198
f 199/199/199 222/222/222 180/180/180
f 199/199/199 180/180/180 198/198/198
f 211/211/211 222/222/222 235/235/235
f 180/180/180 222/222/222 211/211/211
f 177/177/177 198/198/198 134/134/134
f 134/134/134 198/198/198 180/180/180
f 155/155/155 177/177/177 140/140/140
f 177/177/177 134/134/134 140/140/140
f 107/107/107 155/155/155 140/140/140
f 4/4/4 155/155/155 107/107/107
f 121/121/121 140/140/140 134/134/134
f 107/107/107 140/140/140 121/121/121
f 134/134/134 180/180/180 150/150/150
f 121/121/121 134/134/134 28/28/28
f 28/28/28 134/134/134 150/150/150
f 51/51/51 107/107/107 121/121/121
f 51/51/51 121/121/121 28/28/28
f 104/104/104 4/4/4 107/107/107
f 51/51/51 104/104/104 107/107/107
f 6/6/6 5/5/5 4/4/4
f 104/104/104 6/6/6 4/4/4
f 6/6/6 72/72/72 5/5/5
f 73/73/73 5/5/5 72/72/72
f 104/104/104 37/37/37 6/6/6
f 20/20/20 72/72/72 6/6/6
f 20/20/20 6/6/6 37/37/37
f 21/21/21 73/73/73 72/72/72
f 21/21/21 72/72/72 20/20/20
f 104/104/104 67/67/67 37/37/37
f 67/67/67 104/104/104 51/51/51
f 122/122/122 20/20/20 37/37/37
f 68/68/68 122/122/122 37/37/37
f 68/68/68 37/37/37 67/67/67
f 122/122/122 22/22/22 20/20/20
f 22/22/22 21/21/21 20/20/20
f 67/67/67 88/88/88 68/68/68
f 22/22/22 127/127/127 21/21/21
f 67/67/67 63/63/63 88/88/88
f 67/67/67 51/51/51 63/63/63
f 64/64/64 88/88/88 63/63/63
f 127/127/127 57/57/57 21/21/21
f 73/73/73 21/21/21 57/57/57
f 127/127/127 124/124/124 57/57/57
f 73/73/73 57/57/57 58/58/58
f 124/124/124 39/39/39 57/57/57
f 39/39/39 58/58/58 57/57/57
f 124/124/124 42/42/42 39/39/39
f 39/39/39 40/40/40 58/58/58
f 42/42/42 41/41/41 39/39/39
f 41/41/41 40/40/40 39/39/39
f 42/42/42 114/114/114 41/41/41
f 41/41/41 101/101/101 40/40/40
f 40/40/40 101/101/101 99/99/99
f 114/114/114 65/65/65 41/41/41
f 65/65/65 101/101/101 41/41/41
f 114/114/114 66/66/66 65/65/65
f 101/101/101 100/100/100 99/99/99
f 152/152/152 99/99/99 100/100/100
f 65/65/65 115/115/115 101/101/101
f 101/101/101 115/115/115 100/100/100
f 100/100/100 153/153/153 152/152/152
f 66/66/66 17/17/17 65/65/65
f 115/115/115 65/65/65 17/17/17
f 66/66/66 19/19/19 17/17/17
f 100/100/100 115/115/115 31/31/31
f 115/115/115 17/17/17 31/31/31
f 19/19/19 18/18/18 17/17/17
f 18/18/18 31/31/31 17/17/17
f 19/19/19 38/38/38 18/18/18
f 100/100/100 116/116/116 153/153/153
f 100/100/100 31/31/31 116/116/116
f 38/38/38 24/24/24 18/18/18
f 38/38/38 62/62/62 24/24/24
f 18/18/18 25/25/25 31/31/31
f 25/25/25 18/18/18 24/24/24
f 31/31/31 95/95/95 116/116/116
f 31/31/31 25/25/25 95/95/95
f 151/151/151 153/153/153 116/116/116
f 151/151/151 116/116/116 95/95/95
f 157/157/157 153/153/153 151/151/151
f 25/25/25 96/96/96 95/95/95
f 96/96/96 151/151/151 95/95/95
f 25/25/25 24/24/24 23/23/23
f 25/25/25 23/23/23 96/96/96
f 62/62/62 61/61/61 24/24/24
f 23/23/23 24/24/24 61/61/61
f 62/62/62 126/126/126 61/61/61
f 23/23/23 61/61/61 97/97/97
f 96/96/96 23/23/23 97/97/97
f 126/126/126 46/46/46 61/61/61
f 97/97/97 61/61/61 46/46/46
f 126/126/126 108/108/108 46/46/46
f 96/96/96 158/158/158 151/151/151
f 158/158/158 157/157/157 151/151/151
f 108/108/108 48/48/48 46/46/46
f 108/108/108 87/87/87 48/48/48
f 97/97/97 46/46/46 47/47/47
f 48/48/48 47/47/47 46/46/46
f 96/96/96 97/97/97 98/98/98
f 47/47/47 98/98/98 97/97/97
f 87/87/87 86/86/86 48/48/48
f 87/87/87 111/111/111 86/86/86
f 133/133/133 96/96/96 98/98/98
f 133/133/133 158/158/158 96/96/96
f 111/111/111 69/69/69 86/86/86
f 111/111/111 71/71/71 69/69/69
f 86/86/86 93/93/93 48/48/48
f 48/48/48 93/93/93 47/47/47
f 110/110/110 86/86/86 69/69/69
f 86/86/86 110/110/110 93/93/93
f 71/71/71 70/70/70 69/69/69
f 71/71/71 128/128/128 70/70/70
f 110/110/110 69/69/69 79/79/79
f 79/79/79 69/69/69 70/70/70
f 93/93/93 110/110/110 123/123/123
f 123/123/123 110/110/110 79/79/79
f 47/47/47 93/93/93 53/53/53
f 93/93/93 123/123/123 53/53/53
f 47/47/47 52/52/52 98/98/98
f 47/47/47 53/53/53 52/52/52
f 52/52/52 133/133/133 98/98/98
f 139/139/139 52/52/52 53/53/53
f 123/123/123 139/139/139 53/53/53
f 52/52/52 164/164/164 133/133/133
f 139/139/139 164/164/164 52/52/52
f 162/162/162 158/158/158 133/133/133
f 164/164/164 162/162/162 133/133/133
f 158/158/158 213/213/213 157/157/157
f 162/162/162 213/213/213 158/158/158
f 213/213/213 208/208/208 157/157/157
f 213/213/213 234/234/234 208/208/208
f 234/234/234 233/233/233 208/208/208
f 215/215/215 234/234/234 213/213/213
f 215/215/215 213/213/213 162/162/162
f 215/215/215 237/237/237 234/234/234
f 164/164/164 188/188/188 162/162/162
f 188/188/188 215/215/215 162/162/162
f 241/241/241 240/240/240 215/215/215
f 188/188/188 241/241/241 215/215/215
f 167/167/167 188/188/188 164/164/164
f 167/167/167 164/164/164 139/139/139
f 189/189/189 241/241/241 188/188/188
f 189/189/189 188/188/188 167/167/167
f 189/189/189 242/242/242 241/241/241
f 148/148/148 167/167/167 139/139/139
f 123/123/123 148/148/148 139/139/139
f 189/189/189 195/195/195 242/242/242
f 174/174/174 189/189/189 167/167/167
f 174/174/174 195/195/195 189/189/189
f 148/148/148 174/174/174 167/167/167
f 174/174/174 190/190/190 195/195/195
f 195/195/195 190/190/190 238/238/238
f 148/148/148 168/168/168 174/174/174
f 174/174/174 168/168/168 190/190/190
f 123/123/123 142/142/142 148/148/148
f 148/148/148 142/142/142 168/168/168
f 123/123/123 117/117/117 142/142/142
f 123/123/123 79/79/79 117/117/117
f 169/169/169 168/168/168 142/142/142
f 49/49/49 142/142/142 117/117/117
f 79/79/79 49/49/49 117/117/117
f 49/49/49 169/169/169 142/142/142
f 182/182/182 190/190/190 168/168/168
f 169/169/169 182/182/182 168/168/168
f 79/79/79 50/50/50 49/49/49
f 79/79/79 70/70/70 50/50/50
f 132/132/132 169/169/169 49/49/49
f 132/132/132 182/182/182 169/169/169
f 50/50/50 26/26/26 49/49/49
f 132/132/132 49/49/49 26/26/26
f 50/50/50 70/70/70 14/14/14
f 128/128/128 14/14/14 70/70/70
f 128/128/128 109/109/109 14/14/14
f 50/50/50 15/15/15 26/26/26
f 50/50/50 14/14/14 15/15/15
f 109/109/109 16/16/16 14/14/14
f 16/16/16 15/15/15 14/14/14
f 109/109/109 85/85/85 16/16/16
f 182/182/182 204/204/204 190/190/190
f 190/190/190 204/204/204 236/236/236
f 85/85/85 82/82/82 16/16/16
f 85/85/85 84/84/84 82/82/82
f 16/16/16 106/106/106 15/15/15
f 82/82/82 106/106/106 16/16/16
f 186/186/186 204/204/204 182/182/182
f 132/132/132 186/186/186 182/182/182
f 210/210/210 225/225/225 204/204/204
f 186/186/186 210/210/210 204/204/204
f 84/84/84 83/83/83 82/82/82
f 84/84/84 102/102/102 83/83/83
f 82/82/82 103/103/103 106/106/106
f 103/103/103 82/82/82 83/83/83
f 15/15/15 106/106/106 27/27/27
f 103/103/103 27/27/27 106/106/106
f 15/15/15 27/27/27 26/26/26
f 102/102/102 11/11/11 83/83/83
f 102/102/102 118/118/118 11/11/11
f 103/103/103 83/83/83 2/2/2
f 2/2/2 83/83/83 11/11/11
f 103/103/103 3/3/3 27/27/27
f 3/3/3 103/103/103 2/2/2
f 118/118/118 80/80/80 11/11/11
f 118/118/118 81/81/81 80/80/80
f 2/2/2 11/11/11 10/10/10
f 10/10/10 11/11/11 80/80/80
f 3/3/3 2/2/2 1/1/1
f 10/10/10 1/1/1 2/2/2
f 81/81/81 60/60/60 80/80/80
f 81/81/81 113/113/113 60/60/60
f 10/10/10 80/80/80 56/56/56
f 56/56/56 80/80/80 60/60/60
f 113/113/113 112/112/112 60/60/60
f 113/113/113 120/120/120 112/112/112
f 56/56/56 60/60/60 59/59/59
f 112/112/112 59/59/59 60/60/60
f 120/120/120 8/8/8 112/112/112
f 120/120/120 13/13/13 8/8/8
f 112/112/112 9/9/9 59/59/59
f 9/9/9 112/112/112 8/8/8
f 56/56/56 59/59/59 55/55/55
f 55/55/55 59/59/59 9/9/9
f 13/13/13 12/12/12 8/8/8
f 13/13/13 90/90/90 12/12/12
f 9/9/9 8/8/8 7/7/7
f 7/7/7 8/8/8 12/12/12
f 90/90/90 89/89/89 12/12/12
f 90/90/90 92/92/92 89/89/89
f 7/7/7 12/12/12 119/119/119
f 119/119/119 12/12/12 89/89/89
f 92/92/92 91/91/91 89/89/89
f 92/92/92 125/125/125 91/91/91
f 119/119/119 89/89/89 32/32/32
f 91/91/91 32/32/32 89/89/89
f 7/7/7 119/119/119 76/76/76
f 32/32/32 76/76/76 119/119/119
f 125/125/125 43/43/43 91/91/91
f 125/125/125 45/45/45 43/43/43
f 91/91/91 34/34/34 32/32/32
f 43/43/43 34/34/34 91/91/91
f 45/45/45 44/44/44 43/43/43
f 45/45/45 64/64/64 44/44/44
f 64/64/64 63/63/63 44/44/44
f 43/43/43 77/77/77 34/34/34
f 77/77/77 43/43/43 44/44/44
f 29/29/29 44/44/44 63/63/63
f 77/77/77 44/44/44 29/29/29
f 29/29/29 63/63/63 51/51/51
f 51/51/51 28/28/28 29/29/29
f 30/30/30 29/29/29 28/28/28
f 30/30/30 77/77/77 29/29/29
f 28/28/28 150/150/150 30/30/30
f 77/77/77 78/78/78 34/34/34
f 77/77/77 30/30/30 78/78/78
f 34/34/34 33/33/33 32/32/32
f 34/34/34 78/78/78 33/33/33
f 32/32/32 33/33/33 76/76/76
f 30/30/30 136/136/136 78/78/78
f 33/33/33 78/78/78 136/136/136
f 30/30/30 150/150/150 136/136/136
f 33/33/33 136/136/136 135/135/135
f 76/76/76 33/33/33 135/135/135
f 150/150/150 159/159/159 136/136/136
f 135/135/135 136/136/136 159/159/159
f 150/150/150 180/180/180 159/159/159
f 180/180/180 211/211/211 159/159/159
f 135/135/135 159/159/159 171/171/171
f 171/171/171 159/159/159 211/211/211
f 76/76/76 135/135/135 138/138/138
f 138/138/138 135/135/135 171/171/171
f 192/192/192 211/211/211 232/232/232
f 171/171/171 211/211/211 192/192/192
f 138/138/138 171/171/171 170/170/170
f 170/170/170 171/171/171 192/192/192
f 76/76/76 138/138/138 149/149/149
f 170/170/170 192/192/192 191/191/191
f 191/191/191 192/192/192 233/233/233
f 191/191/191 233/233/233 219/219/219
f 170/170/170 191/191/191 219/219/219
f 138/138/138 170/170/170 166/166/166
f 170/170/170 219/219/219 166/166/166
f 138/138/138 166/166/166 149/149/149
f 219/219/219 239/239/239 217/217/217
f 166/166/166 219/219/219 217/217/217
f 76/76/76 149/149/149 36/36/36
f 7/7/7 76/76/76 36/36/36
f 9/9/9 7/7/7 36/36/36
f 149/149/149 166/166/166 163/163/163
f 166/166/166 217/217/217 163/163/163
f 9/9/9 36/36/36 35/35/35
f 55/55/55 9/9/9 35/35/35
f 36/36/36 149/149/149 145/145/145
f 36/36/36 145/145/145 35/35/35
f 149/149/149 163/163/163 145/145/145
f 55/55/55 35/35/35 145/145/145
f 156/156/156 145/145/145 163/163/163
f 55/55/55 145/145/145 156/156/156
f 165/165/165 163/163/163 217/217/217
f 156/156/156 163/163/163 165/165/165
f 218/218/218 217/217/217 242/242/242
f 165/165/165 217/217/217 218/218/218
f 216/216/216 218/218/218 238/238/238
f 165/165/165 218/218/218 216/216/216
f 156/156/156 165/165/165 161/161/161
f 165/165/165 216/216/216 161/161/161
f 55/55/55 156/156/156 131/131/131
f 156/156/156 161/161/161 131/131/131
f 214/214/214 216/216/216 236/236/236
f 161/161/161 216/216/216 214/214/214
f 55/55/55 131/131/131 54/54/54
f 56/56/56 55/55/55 54/54/54
f 10/10/10 56/56/56 54/54/54
f 10/10/10 54/54/54 94/94/94
f 94/94/94 54/54/54 131/131/131
f 10/10/10 94/94/94 1/1/1
f 130/130/130 131/131/131 161/161/161
f 94/94/94 131/131/131 130/130/130
f 161/161/161 214/214/214 160/160/160
f 130/130/130 161/161/161 160/160/160
f 94/94/94 130/130/130 129/129/129
f 94/94/94 129/129/129 1/1/1
f 129/129/129 130/130/130 160/160/160
f 160/160/160 214/214/214 212/212/212
f 212/212/212 214/214/214 229/229/229
f 212/212/212 229/229/229 206/206/206
f 160/160/160 212/212/212 187/187/187
f 129/129/129 160/160/160 187/187/187
f 187/187/187 212/212/212 206/206/206
f 1/1/1 129/129/129 144/144/144
f 1/1/1 144/144/144 3/3/3
f 27/27/27 3/3/3 144/144/144
f 129/129/129 187/187/187 184/184/184
f 129/129/129 184/184/184 144/144/144
f 187/187/187 206/206/206 184/184/184
f 27/27/27 144/144/144 143/143/143
f 143/143/143 144/144/144 184/184/184
f 143/143/143 26/26/26 27/27/27
f 143/143/143 132/132/132 26/26/26
f 143/143/143 186/186/186 132/132/132
f 143/143/143 184/184/184 183/183/183
f 143/143/143 183/183/183 186/186/186
f 183/183/183 184/184/184 206/206/206
f 183/183/183 210/210/210 186/186/186
f 183/183/183 206/206/206 205/205/205
f 183/183/183 205/205/205 210/210/210
f 205/205/205 206/206/206 226/226/226
f 205/205/205 226/226/226 210/210/210
