# VPXTOOL table OBJ file
# VPXTOOL OBJ file
# numVerts: 105 numFaces: 168
o VRStartButtonHousing
v 0.631872 22.5529 -15.299598
v 0.724305 22.552685 -15.278502
v 0.628773 22.721119 -15.256529
v 0.537325 22.508102 -14.672747
v 0.449063 22.508455 -14.707384
v 0.537327 22.546495 -14.672375
v 0.3346 22.718723 -15.021944
v 0.3346 22.717878 -14.939501
v 0.293598 22.550146 -15.029846
v 0.469805 22.720747 -15.220247
v 0.546556 22.721056 -15.250368
v 0.481569 22.720661 -15.199879
v 0.631872 22.508034 -14.665661
v 0.631872 22.546427 -14.66529
v 0.724313 22.508247 -14.686758
v 0.321522 22.512676 -15.120839
v 0.321543 22.55107 -15.120438
v 0.293577 22.511755 -15.030241
v 0.481569 22.716185 -14.761564
v 0.485053 22.509249 -14.765411
v 0.551789 22.715902 -14.734005
v 0.817204 22.716967 -14.838167
v 0.849935 22.717665 -14.90613
v 0.836637 22.716713 -14.824919
v 0.628773 22.715487 -14.704916
v 0.724305 22.54664 -14.686386
v 0.709153 22.715675 -14.723261
v 0.700563 22.716017 -14.745153
v 0.780558 22.716097 -14.764483
v 0.405345 22.716383 -14.792601
v 0.358903 22.71708 -14.860719
v 0.422585 22.716665 -14.808596
v 0.293598 22.54918 -14.935042
v 0.321543 22.54825 -14.84445
v 0.293577 22.510786 -14.935431
v 0.546556 22.715553 -14.711077
v 0.374948 22.547455 -14.766119
v 0.449074 22.546848 -14.70701
v 0.374932 22.509062 -14.766497
v 0.405345 22.720222 -15.168844
v 0.422585 22.72018 -15.152847
v 0.765895 22.716402 -14.78287
v 0.469805 22.715857 -14.741198
v 0.357858 22.718807 -15.018438
v 0.360745 22.511822 -15.017941
v 0.357858 22.718035 -14.943005
v 0.926166 22.549664 -14.982444
v 0.884701 22.718302 -14.980722
v 0.912033 22.55062 -15.076189
v 0.627017 22.715847 -14.728368
v 0.815733 22.510046 -14.843884
v 0.765556 22.509483 -14.78886
v 0.631872 22.514505 -15.300011
v 0.537325 22.514435 -15.292925
v 0.423503 22.513182 -15.151176
v 0.380093 22.719543 -15.090521
v 0.861181 22.718424 -14.980721
v 0.872412 22.719137 -15.062245
v 0.872412 22.717468 -14.899199
v 0.870899 22.547836 -14.803284
v 0.912033 22.548706 -14.888699
v 0.870917 22.50944 -14.803663
v 0.358903 22.719526 -15.100726
v 0.806413 22.547123 -14.733788
v 0.383949 22.510336 -14.872505
v 0.380093 22.7173 -14.870922
v 0.361386 22.51106 -14.943474
v 0.627017 22.721003 -15.233074
v 0.624632 22.514008 -15.232113
v 0.551789 22.720942 -15.227438
v 0.700563 22.72083 -15.21629
v 0.697374 22.513845 -15.216167
v 0.84747 22.51073 -14.911255
v 0.481328 22.513662 -15.198107
v 0.806424 22.50873 -14.734163
v 0.836637 22.719889 -15.136526
v 0.849935 22.719185 -15.055312
v 0.846202 22.512234 -15.058524
v 0.817204 22.719877 -15.123276
v 0.709153 22.720936 -15.238183
v 0.70138 22.509096 -14.751072
v 0.537327 22.552832 -15.292513
v 0.449063 22.514082 -15.258287
v 0.321522 22.509861 -14.844833
v 0.449074 22.552477 -15.257877
v 0.374948 22.55187 -15.198769
v 0.870899 22.551487 -15.161605
v 0.806413 22.5522 -15.2311
v 0.550415 22.513945 -15.225908
v 0.426431 22.509714 -14.811338
v 0.857935 22.511484 -14.984985
v 0.870917 22.513096 -15.162008
v 0.806424 22.51381 -15.231508
v 0.628918 22.50892 -14.733877
v 0.765895 22.720444 -15.178572
v 0.762191 22.513468 -15.179489
v 0.382084 22.51255 -15.089288
v 0.780558 22.720507 -15.196961
v 0.374932 22.513477 -15.199175
v 0.724313 22.514294 -15.278913
v 0.813312 22.512918 -15.125338
v 0.912054 22.510313 -14.889085
v 0.554608 22.508972 -14.738802
v 0.912054 22.512228 -15.076587
v 0.926187 22.511267 -14.982836
vt 0.878768 -1.2231622
vt 0.870529 -1.224781
vt 0.879044 -1.443229
vt 0.887195 -1.2219191
vt 0.895062 -1.21926
vt 0.887195 -1.271297
vt 0.905265 -1.461232
vt 0.905265 -1.4675589
vt 0.908919 -1.2438631
vt 0.893213 -1.446013
vt 0.886372 -1.443702
vt 0.892165 -1.447731
vt 0.878768 -1.2224622
vt 0.878768 -1.271841
vt 0.870528 -1.2208428
vt 0.90643 -1.18753
vt 0.906429 -1.236911
vt 0.908921 -1.194483
vt 0.892165 -1.481369
vt 0.891854 -1.2150569
vt 0.885906 -1.483484
vt 0.862249 -1.475491
vt 0.859331 -1.470274
vt 0.860516 -1.476352
vt 0.879044 -1.4855618
vt 0.870529 -1.270222
vt 0.871879 -1.484154
vt 0.872645 -1.4826288
vt 0.865515 -1.4809899
vt 0.898959 -1.478833
vt 0.903099 -1.4736052
vt 0.897422 -1.4777598
vt 0.908919 -1.2511392
vt 0.906429 -1.258091
vt 0.908921 -1.2017589
vt 0.886372 -1.4850888
vt 0.901668 -1.2641029
vt 0.895061 -1.2686391
vt 0.90167 -1.2147241
vt 0.898959 -1.4499578
vt 0.897422 -1.4513412
vt 0.866822 -1.479734
vt 0.893213 -1.4827781
vt 0.903192 -1.4616561
vt 0.902934 -1.195677
vt 0.903192 -1.4674449
vt 0.852537 -1.2475009
vt 0.856233 -1.464395
vt 0.853796 -1.2403069
vt 0.879201 -1.483917
vt 0.86238 -1.209034
vt 0.866853 -1.2132568
vt 0.878768 -1.17378
vt 0.887195 -1.174324
vt 0.89734 -1.185452
vt 0.90121 -1.4561238
vt 0.858329 -1.46455
vt 0.857328 -1.458139
vt 0.857328 -1.4706521
vt 0.857463 -1.26125
vt 0.853796 -1.2546949
vt 0.857461 -1.2118711
vt 0.903099 -1.4551859
vt 0.863211 -1.2665839
vt 0.900866 -1.2068381
vt 0.90121 -1.4729772
vt 0.902877 -1.2013922
vt 0.879201 -1.445184
vt 0.879413 -1.17924
vt 0.885906 -1.445617
vt 0.872645 -1.4464722
vt 0.872929 -1.180464
vt 0.859551 -1.2038641
vt 0.892186 -1.18185
vt 0.863209 -1.217205
vt 0.860516 -1.4524388
vt 0.859331 -1.4588261
vt 0.859664 -1.1925621
vt 0.862249 -1.45361
vt 0.871879 -1.4446368
vt 0.872572 -1.216157
vt 0.887195 -1.223705
vt 0.895062 -1.1769819
vt 0.90643 -1.2087121
vt 0.895061 -1.2263641
vt 0.901668 -1.2309
vt 0.857463 -1.233752
vt 0.863211 -1.2284188
vt 0.886028 -1.1797171
vt 0.89708 -1.2115321
vt 0.858618 -1.198206
vt 0.857461 -1.184371
vt 0.863209 -1.1790371
vt 0.879031 -1.2174768
vt 0.866822 -1.449367
vt 0.867152 -1.183279
vt 0.901032 -1.190201
vt 0.865515 -1.4478011
vt 0.90167 -1.181519
vt 0.870528 -1.1753988
vt 0.862596 -1.1874352
vt 0.853794 -1.2053161
vt 0.885655 -1.217099
vt 0.853794 -1.1909261
vt 0.852535 -1.1981211
vn 0.0742 0.1293 -0.9888
vn 0.3627 0.1286 -0.923
vn 0.0487 0.7643 -0.6431
vn -0.2225 -0.0094 0.9749
vn -0.5 -0.0083 0.866
vn -0.2209 0.1093 0.9691
vn -0.6453 0.7587 -0.0895
vn -0.6453 0.7567 0.105
vn -0.9818 0.1207 -0.1468
vn -0.3263 0.7634 -0.5574
vn -0.1452 0.7642 -0.6284
vn 0.3313 0.743 0.5815
vn 0.0747 -0.0096 0.9972
vn 0.0742 0.1091 0.9913
vn 0.3653 -0.009 0.9308
vn -0.901 0.005 -0.4338
vn -0.8946 0.1236 -0.4295
vn -0.9888 0.0021 -0.149
vn 0.3313 0.7547 -0.5663
vn 0.4924 0.0257 -0.87
vn 0.1475 0.7554 -0.6385
vn -0.5476 0.7526 -0.3657
vn -0.6331 0.7509 -0.1877
vn 0.5391 0.754 0.3753
vn 0.0488 0.751 0.6585
vn 0.3627 0.1097 0.9254
vn 0.2384 0.7515 0.6151
vn -0.2421 0.7551 -0.6093
vn 0.4068 0.7525 0.5179
vn -0.4784 0.7532 0.4516
vn -0.5879 0.7548 0.2908
vn 0.4858 0.7535 -0.4431
vn -0.9818 0.1177 0.1492
vn -0.8946 0.1148 0.432
vn -0.9888 -0.001 0.149
vn -0.1452 0.7513 0.6438
vn -0.7278 0.1123 0.6765
vn -0.4964 0.1104 0.861
vn -0.733 -0.0064 0.6802
vn -0.4784 0.7623 -0.436
vn 0.4858 0.7442 0.4584
vn -0.4132 0.7541 -0.5105
vn -0.3263 0.752 0.5728
vn 0.6553 0.7478 0.1064
vn 0.9899 0.0154 0.1406
vn 0.6553 0.7499 -0.0911
vn 0.9929 0.1192 0.0012
vn 0.6526 0.7577 0.0078
vn 0.9488 0.1222 -0.2914
vn -0.0495 0.7556 -0.6531
vn -0.831 0.0225 -0.5559
vn -0.6301 0.0247 -0.7761
vn 0.0747 0.0107 -0.9971
vn -0.2225 0.0105 -0.9749
vn 0.7388 0.01 0.6738
vn 0.5971 0.7459 0.2951
vn -0.6627 0.7489 0.0076
vn 0.6236 0.7597 -0.1847
vn 0.6237 0.7556 0.2001
vn 0.8204 0.1135 0.5605
vn 0.9488 0.1162 0.2939
vn 0.8262 -0.0052 0.5633
vn -0.5879 0.7606 -0.2754
vn 0.619 0.1112 0.7774
vn 0.8971 0.0213 -0.4414
vn 0.5971 0.7517 -0.2799
vn 0.9874 0.0184 -0.1574
vn -0.0496 0.7422 0.6684
vn -0.0661 0.0066 0.9978
vn 0.1475 0.7423 0.6537
vn -0.2421 0.7425 0.6245
vn -0.3572 0.0073 0.934
vn -0.9579 0.0197 -0.2863
vn 0.5074 0.008 0.8617
vn 0.6235 -0.0075 0.7818
vn 0.5392 0.7614 -0.3599
vn -0.6333 0.7469 0.2029
vn -0.9529 0.0137 0.3031
vn -0.5475 0.7451 0.3809
vn 0.2384 0.7639 -0.5997
vn -0.3733 0.0263 -0.9273
vn -0.2209 0.1291 -0.9667
vn -0.5 0.0094 -0.866
vn -0.901 -0.0038 0.4338
vn -0.4964 0.128 -0.8586
vn -0.7278 0.1261 -0.6741
vn 0.8203 0.1249 -0.5581
vn 0.6191 0.1271 -0.775
vn 0.2309 0.0069 0.973
vn 0.727 0.0238 -0.6862
vn -0.9998 0.0167 0.0088
vn 0.8262 0.0063 -0.5633
vn 0.6235 0.0085 -0.7818
vn -0.0833 0.027 -0.9962
vn -0.4132 0.7436 0.5257
vn -0.6166 0.0088 0.7872
vn 0.9046 0.0125 0.4262
vn 0.4069 0.7629 -0.5025
vn -0.733 0.0075 -0.6802
vn 0.3653 0.01 -0.9308
vn -0.8212 0.011 0.5705
vn 0.9556 -0.0024 0.2948
vn 0.2141 0.0268 -0.9765
vn 0.9556 0.0036 -0.2947
vn 1 0.0005 -0
f 54/54/54 1/1/1 53/53/53
f 100/100/100 53/53/53 1/1/1
f 54/54/54 82/82/82 1/1/1
f 83/83/83 82/82/82 54/54/54
f 100/100/100 1/1/1 2/2/2
f 2/2/2 93/93/93 100/100/100
f 82/82/82 3/3/3 1/1/1
f 3/3/3 2/2/2 1/1/1
f 83/83/83 85/85/85 82/82/82
f 2/2/2 88/88/88 93/93/93
f 83/83/83 86/86/86 85/85/85
f 83/83/83 99/99/99 86/86/86
f 93/93/93 88/88/88 87/87/87
f 93/93/93 87/87/87 92/92/92
f 104/104/104 92/92/92 87/87/87
f 99/99/99 17/17/17 86/86/86
f 99/99/99 16/16/16 17/17/17
f 18/18/18 17/17/17 16/16/16
f 85/85/85 86/86/86 40/40/40
f 18/18/18 9/9/9 17/17/17
f 35/35/35 9/9/9 18/18/18
f 86/86/86 17/17/17 63/63/63
f 86/86/86 63/63/63 40/40/40
f 7/7/7 17/17/17 9/9/9
f 7/7/7 63/63/63 17/17/17
f 85/85/85 40/40/40 10/10/10
f 82/82/82 85/85/85 10/10/10
f 41/41/41 40/40/40 63/63/63
f 41/41/41 10/10/10 40/40/40
f 82/82/82 10/10/10 11/11/11
f 82/82/82 11/11/11 3/3/3
f 12/12/12 11/11/11 10/10/10
f 41/41/41 12/12/12 10/10/10
f 70/70/70 3/3/3 11/11/11
f 12/12/12 70/70/70 11/11/11
f 41/41/41 63/63/63 56/56/56
f 7/7/7 56/56/56 63/63/63
f 41/41/41 74/74/74 12/12/12
f 12/12/12 74/74/74 89/89/89
f 12/12/12 89/89/89 70/70/70
f 41/41/41 55/55/55 74/74/74
f 56/56/56 55/55/55 41/41/41
f 70/70/70 89/89/89 69/69/69
f 56/56/56 97/97/97 55/55/55
f 70/70/70 69/69/69 68/68/68
f 70/70/70 68/68/68 3/3/3
f 68/68/68 69/69/69 72/72/72
f 44/44/44 97/97/97 56/56/56
f 7/7/7 44/44/44 56/56/56
f 44/44/44 45/45/45 97/97/97
f 68/68/68 80/80/80 3/3/3
f 3/3/3 80/80/80 2/2/2
f 68/68/68 72/72/72 71/71/71
f 68/68/68 71/71/71 80/80/80
f 71/71/71 72/72/72 96/96/96
f 2/2/2 80/80/80 98/98/98
f 71/71/71 98/98/98 80/80/80
f 2/2/2 98/98/98 88/88/88
f 71/71/71 96/96/96 95/95/95
f 71/71/71 95/95/95 98/98/98
f 95/95/95 96/96/96 101/101/101
f 88/88/88 98/98/98 76/76/76
f 95/95/95 76/76/76 98/98/98
f 88/88/88 76/76/76 87/87/87
f 95/95/95 101/101/101 79/79/79
f 95/95/95 79/79/79 76/76/76
f 79/79/79 101/101/101 78/78/78
f 49/49/49 87/87/87 76/76/76
f 104/104/104 87/87/87 49/49/49
f 79/79/79 78/78/78 77/77/77
f 77/77/77 76/76/76 79/79/79
f 77/77/77 78/78/78 91/91/91
f 49/49/49 76/76/76 58/58/58
f 77/77/77 58/58/58 76/76/76
f 77/77/77 91/91/91 57/57/57
f 58/58/58 77/77/77 57/57/57
f 57/57/57 91/91/91 73/73/73
f 49/49/49 58/58/58 48/48/48
f 58/58/58 57/57/57 48/48/48
f 104/104/104 49/49/49 47/47/47
f 49/49/49 48/48/48 47/47/47
f 104/104/104 47/47/47 105/105/105
f 102/102/102 105/105/105 47/47/47
f 57/57/57 59/59/59 48/48/48
f 59/59/59 47/47/47 48/48/48
f 57/57/57 73/73/73 23/23/23
f 57/57/57 23/23/23 59/59/59
f 23/23/23 73/73/73 51/51/51
f 102/102/102 47/47/47 61/61/61
f 59/59/59 61/61/61 47/47/47
f 62/62/62 102/102/102 61/61/61
f 23/23/23 51/51/51 22/22/22
f 52/52/52 22/22/22 51/51/51
f 62/62/62 61/61/61 60/60/60
f 60/60/60 61/61/61 59/59/59
f 52/52/52 42/42/42 22/22/22
f 81/81/81 42/42/42 52/52/52
f 24/24/24 23/23/23 22/22/22
f 24/24/24 59/59/59 23/23/23
f 24/24/24 22/22/22 42/42/42
f 60/60/60 59/59/59 24/24/24
f 81/81/81 28/28/28 42/42/42
f 28/28/28 81/81/81 94/94/94
f 62/62/62 60/60/60 64/64/64
f 24/24/24 64/64/64 60/60/60
f 62/62/62 64/64/64 75/75/75
f 24/24/24 42/42/42 29/29/29
f 24/24/24 29/29/29 64/64/64
f 29/29/29 42/42/42 28/28/28
f 26/26/26 75/75/75 64/64/64
f 26/26/26 64/64/64 29/29/29
f 26/26/26 15/15/15 75/75/75
f 29/29/29 28/28/28 27/27/27
f 26/26/26 29/29/29 27/27/27
f 28/28/28 94/94/94 50/50/50
f 27/27/27 28/28/28 50/50/50
f 50/50/50 94/94/94 103/103/103
f 15/15/15 26/26/26 14/14/14
f 15/15/15 14/14/14 13/13/13
f 26/26/26 27/27/27 25/25/25
f 26/26/26 25/25/25 14/14/14
f 27/27/27 50/50/50 25/25/25
f 13/13/13 14/14/14 6/6/6
f 6/6/6 14/14/14 25/25/25
f 13/13/13 6/6/6 4/4/4
f 6/6/6 5/5/5 4/4/4
f 50/50/50 103/103/103 21/21/21
f 21/21/21 25/25/25 50/50/50
f 21/21/21 103/103/103 20/20/20
f 21/21/21 36/36/36 25/25/25
f 6/6/6 25/25/25 36/36/36
f 21/21/21 20/20/20 19/19/19
f 36/36/36 21/21/21 19/19/19
f 19/19/19 20/20/20 90/90/90
f 6/6/6 36/36/36 43/43/43
f 36/36/36 19/19/19 43/43/43
f 6/6/6 38/38/38 5/5/5
f 6/6/6 43/43/43 38/38/38
f 39/39/39 5/5/5 38/38/38
f 19/19/19 90/90/90 32/32/32
f 43/43/43 19/19/19 32/32/32
f 65/65/65 32/32/32 90/90/90
f 37/37/37 38/38/38 43/43/43
f 39/39/39 38/38/38 37/37/37
f 43/43/43 32/32/32 30/30/30
f 37/37/37 43/43/43 30/30/30
f 65/65/65 66/66/66 32/32/32
f 67/67/67 66/66/66 65/65/65
f 32/32/32 31/31/31 30/30/30
f 31/31/31 37/37/37 30/30/30
f 32/32/32 66/66/66 31/31/31
f 39/39/39 37/37/37 34/34/34
f 31/31/31 34/34/34 37/37/37
f 39/39/39 34/34/34 84/84/84
f 35/35/35 84/84/84 34/34/34
f 67/67/67 46/46/46 66/66/66
f 46/46/46 67/67/67 45/45/45
f 46/46/46 45/45/45 44/44/44
f 35/35/35 34/34/34 33/33/33
f 33/33/33 34/34/34 31/31/31
f 35/35/35 33/33/33 9/9/9
f 8/8/8 31/31/31 66/66/66
f 33/33/33 31/31/31 8/8/8
f 8/8/8 66/66/66 46/46/46
f 9/9/9 33/33/33 8/8/8
f 44/44/44 8/8/8 46/46/46
f 9/9/9 8/8/8 7/7/7
f 44/44/44 7/7/7 8/8/8
