# VPXTOOL table OBJ file
# VPXTOOL OBJ file
# numVerts: 492 numFaces: 376
o PegPlasticT8Twin2
v 0.076015 0.497 -0.071326
v 0.076015 0.478 -0.071326
v 0.111686 0.478 -0.06177
v 0.111686 0.497 -0.06177
v 0.137798 0.478 -0.035663
v 0.137798 0.497 -0.035663
v 0.147356 0.478 -0
v 0.147356 0.497 -0
v 0.137798 0.478 0.035663
v 0.137798 0.497 0.035663
v 0.111686 0.478 0.06177
v 0.111686 0.497 0.06177
v 0.076015 0.478 0.071326
v 0.076015 0.497 0.071326
v 0.147356 0.478 -0
v 0.197775 0.38585 -0
v 0.193624 0.39535 0.031507
v 0.193624 0.39535 -0.031507
v 0.137798 0.478 -0.035663
v 0.181463 0.38585 -0.060868
v 0.193624 0.39535 -0.031507
v 0.162111 0.39535 -0.086078
v 0.137798 0.478 0.035663
v 0.193624 0.39535 0.031507
v 0.181463 0.38585 0.060867
v 0.162111 0.39535 0.086078
v 0.111686 0.478 0.06177
v 0.162111 0.39535 0.086078
v 0.136895 0.38585 0.105426
v 0.107529 0.39535 0.117585
v 0.111686 0.478 -0.06177
v 0.136895 0.38585 -0.105426
v 0.162111 0.39535 -0.086078
v 0.107529 0.39535 -0.117585
v 0.076015 0.478 0.071326
v 0.107529 0.39535 0.117585
v 0.076015 0.38585 0.121735
v 0.076015 0.478 -0.071326
v 0.076015 0.38585 -0.121735
v 0.107529 0.39535 -0.117585
v 0.076015 0.497 0
v 0.076015 0.497 -0.071326
v 0.111686 0.497 -0.06177
v 0.137798 0.497 -0.035663
v 0.147356 0.497 -0
v 0.137798 0.497 0.035663
v 0.111686 0.497 0.06177
v 0.076015 0.497 0.071326
v 0.111686 0.478 -0.06177
v 0.076015 0.478 -0.071326
v 0.107529 0.39535 -0.117585
v 0.162111 0.39535 -0.086078
v 0.137798 0.478 -0.035663
v 0.111686 0.478 -0.06177
v 0.193624 0.39535 -0.031507
v 0.147356 0.478 -0
v 0.137798 0.478 -0.035663
v 0.193624 0.39535 0.031507
v 0.137798 0.478 0.035663
v 0.147356 0.478 -0
v 0.162111 0.39535 0.086078
v 0.111686 0.478 0.06177
v 0.137798 0.478 0.035663
v 0.107529 0.39535 0.117585
v 0.076015 0.478 0.071326
v 0.111686 0.478 0.06177
v 0.12027 0.003 -0.165125
v 0.12027 0.0163 -0.165125
v 0.076015 0.02295 -0.17095
v 0.076015 0.003 -0.17095
v 0.161508 0.003 -0.148047
v 0.161508 0.02295 -0.148047
v 0.19692 0.003 -0.12088
v 0.19692 0.0163 -0.12088
v 0.224092 0.003 -0.085475
v 0.224092 0.02295 -0.085475
v 0.241174 0.003 -0.044245
v 0.241174 0.0163 -0.044245
v 0.247 0.003 0
v 0.247 0.02295 0
v 0.241174 0.003 0.044245
v 0.241174 0.0163 0.044245
v 0.224092 0.003 0.085475
v 0.224092 0.02295 0.085475
v 0.19692 0.003 0.12088
v 0.19692 0.0163 0.12088
v 0.161508 0.003 0.148047
v 0.161508 0.02295 0.148047
v 0.12027 0.003 0.165125
v 0.12027 0.0163 0.165125
v 0.076015 0.003 0.17095
v 0.076015 0.02295 0.17095
v 0.076015 0.0315 -0.156704
v 0.076015 0.02295 -0.17095
v 0.12027 0.0163 -0.165125
v 0.161508 0.02295 -0.148047
v 0.154383 0.0315 -0.13571
v 0.12027 0.0163 -0.165125
v 0.19692 0.0163 -0.12088
v 0.224092 0.02295 -0.085475
v 0.211753 0.0315 -0.078352
v 0.19692 0.0163 -0.12088
v 0.241174 0.0163 -0.044245
v 0.247 0.02295 0
v 0.232751 0.0315 0
v 0.241174 0.0163 -0.044245
v 0.241174 0.0163 0.044245
v 0.224092 0.02295 0.085475
v 0.211753 0.0315 0.078352
v 0.241174 0.0163 0.044245
v 0.19692 0.0163 0.12088
v 0.161508 0.02295 0.148047
v 0.154383 0.0315 0.13571
v 0.19692 0.0163 0.12088
v 0.12027 0.0163 0.165125
v 0.076015 0.02295 0.17095
v 0.076015 0.0315 0.156704
v 0.12027 0.0163 0.165125
v 0.154383 0.0315 -0.13571
v 0.076015 0.0315 -0.156704
v 0.12027 0.0163 -0.165125
v 0.211753 0.0315 -0.078352
v 0.154383 0.0315 -0.13571
v 0.19692 0.0163 -0.12088
v 0.232751 0.0315 0
v 0.211753 0.0315 -0.078352
v 0.241174 0.0163 -0.044245
v 0.211753 0.0315 0.078352
v 0.232751 0.0315 0
v 0.241174 0.0163 0.044245
v 0.154383 0.0315 0.13571
v 0.211753 0.0315 0.078352
v 0.19692 0.0163 0.12088
v 0.076015 0.0315 0.156704
v 0.154383 0.0315 0.13571
v 0.12027 0.0163 0.165125
v 0.11095 0.269 -0.130352
v 0.076015 0.0315 -0.156704
v 0.154383 0.0315 -0.13571
v 0.154383 0.0315 -0.13571
v 0.141205 0.269 -0.112888
v 0.11095 0.269 -0.130352
v 0.171459 0.269 -0.095424
v 0.154383 0.0315 -0.13571
v 0.211753 0.0315 -0.078352
v 0.211753 0.0315 -0.078352
v 0.188927 0.269 -0.065176
v 0.171459 0.269 -0.095424
v 0.206394 0.269 -0.034928
v 0.211753 0.0315 -0.078352
v 0.232751 0.0315 0
v 0.232751 0.0315 0
v 0.206394 0.269 -0
v 0.206394 0.269 -0.034928
v 0.206394 0.269 0.034928
v 0.232751 0.0315 0
v 0.211753 0.0315 0.078352
v 0.211753 0.0315 0.078352
v 0.188927 0.269 0.065176
v 0.206394 0.269 0.034928
v 0.171459 0.269 0.095424
v 0.211753 0.0315 0.078352
v 0.154383 0.0315 0.13571
v 0.154383 0.0315 0.13571
v 0.141205 0.269 0.112888
v 0.171459 0.269 0.095424
v 0.11095 0.269 0.130352
v 0.154383 0.0315 0.13571
v 0.076015 0.0315 0.156704
v 0.076015 0.0315 0.156704
v 0.076015 0.269 0.130352
v 0.11095 0.269 0.130352
v 0.076015 0.0315 -0.156704
v 0.11095 0.269 -0.130352
v 0.076015 0.269 -0.130352
v 0.171459 0.269 -0.095424
v 0.206394 0.269 -0.034928
v 0.206394 0.269 0.034928
v 0.171459 0.269 0.095424
v 0.11095 0.269 0.130352
v 0.141205 0.269 -0.112888
v 0.076015 0.269 -0.130352
v 0.11095 0.269 -0.130352
v 0.188927 0.269 -0.065176
v 0.171459 0.269 -0.095424
v 0.206394 0.269 -0
v 0.206394 0.269 -0.034928
v 0.188927 0.269 0.065176
v 0.206394 0.269 0.034928
v 0.141205 0.269 0.112888
v 0.171459 0.269 0.095424
v 0.076015 0.269 0.130352
v 0.11095 0.269 0.130352
v 0.076015 0.2975 -0.091246
v 0.121648 0.2975 -0.079022
v 0.155053 0.2975 -0.045623
v 0.16728 0.2975 -0
v 0.155053 0.2975 0.045623
v 0.121648 0.2975 0.079022
v 0.076015 0.2975 0.091246
v 0.076015 0.3317 -0.091246
v 0.121648 0.3317 -0.079022
v 0.155053 0.3317 -0.045623
v 0.16728 0.3317 -0
v 0.155053 0.3317 0.045623
v 0.121648 0.3317 0.079022
v 0.076015 0.3317 0.091246
v 0.076015 0.3602 -0.121735
v 0.107529 0.3602 -0.117585
v 0.136895 0.3602 -0.105426
v 0.162111 0.3602 -0.086078
v 0.181463 0.3602 -0.060868
v 0.193624 0.3602 -0.031507
v 0.197775 0.3602 -0
v 0.193624 0.3602 0.031507
v 0.181463 0.3602 0.060867
v 0.162111 0.3602 0.086078
v 0.136895 0.3602 0.105426
v 0.107529 0.3602 0.117585
v 0.076015 0.3602 0.121735
v 0.076015 0.38585 -0.121735
v 0.076015 0.3602 -0.121735
v 0.107529 0.3602 -0.117585
v 0.107529 0.39535 -0.117585
v 0.136895 0.38585 -0.105426
v 0.136895 0.3602 -0.105426
v 0.162111 0.3602 -0.086078
v 0.162111 0.39535 -0.086078
v 0.181463 0.38585 -0.060868
v 0.181463 0.3602 -0.060868
v 0.193624 0.3602 -0.031507
v 0.193624 0.39535 -0.031507
v 0.197775 0.38585 -0
v 0.197775 0.3602 -0
v 0.193624 0.3602 0.031507
v 0.193624 0.39535 0.031507
v 0.181463 0.38585 0.060867
v 0.181463 0.3602 0.060867
v 0.162111 0.3602 0.086078
v 0.162111 0.39535 0.086078
v 0.136895 0.38585 0.105426
v 0.136895 0.3602 0.105426
v 0.107529 0.3602 0.117585
v 0.107529 0.39535 0.117585
v 0.076015 0.3602 0.121735
v 0.076015 0.38585 0.121735
v -0.076015 0.497 0.071326
v -0.076015 0.478 0.071326
v -0.111686 0.478 0.06177
v -0.111686 0.497 0.06177
v -0.137798 0.478 0.035663
v -0.137798 0.497 0.035663
v -0.147356 0.478 0
v -0.147356 0.497 0
v -0.137798 0.478 -0.035663
v -0.137798 0.497 -0.035663
v -0.111686 0.478 -0.06177
v -0.111686 0.497 -0.06177
v -0.076015 0.478 -0.071326
v -0.076015 0.497 -0.071326
v -0.137798 0.478 -0.035663
v -0.181463 0.38585 -0.060868
v -0.162111 0.39535 -0.086078
v -0.193624 0.39535 -0.031507
v -0.147356 0.478 0
v -0.197775 0.38585 -0
v -0.193624 0.39535 -0.031507
v -0.193624 0.39535 0.031507
v -0.137798 0.478 0.035663
v -0.181463 0.38585 0.060868
v -0.193624 0.39535 0.031507
v -0.162111 0.39535 0.086078
v -0.111686 0.478 0.06177
v -0.136895 0.38585 0.105426
v -0.162111 0.39535 0.086078
v -0.107529 0.39535 0.117585
v -0.111686 0.478 -0.06177
v -0.162111 0.39535 -0.086078
v -0.136895 0.38585 -0.105426
v -0.107529 0.39535 -0.117585
v -0.076015 0.478 0.071326
v -0.076015 0.38585 0.121735
v -0.107529 0.39535 0.117585
v -0.076015 0.478 -0.071326
v -0.107529 0.39535 -0.117585
v -0.076015 0.38585 -0.121735
v -0.076015 0.497 0
v -0.076015 0.497 0.071326
v -0.111686 0.497 0.06177
v -0.137798 0.497 0.035663
v -0.147356 0.497 0
v -0.137798 0.497 -0.035663
v -0.111686 0.497 -0.06177
v -0.076015 0.497 -0.071326
v -0.193624 0.39535 -0.031507
v -0.137798 0.478 -0.035663
v -0.147356 0.478 0
v -0.162111 0.39535 -0.086078
v -0.111686 0.478 -0.06177
v -0.137798 0.478 -0.035663
v -0.076015 0.478 -0.071326
v -0.111686 0.478 -0.06177
v -0.107529 0.39535 -0.117585
v -0.107529 0.39535 0.117585
v -0.111686 0.478 0.06177
v -0.076015 0.478 0.071326
v -0.162111 0.39535 0.086078
v -0.137798 0.478 0.035663
v -0.111686 0.478 0.06177
v -0.193624 0.39535 0.031507
v -0.147356 0.478 0
v -0.137798 0.478 0.035663
v -0.12027 0.003 0.165125
v -0.12027 0.0163 0.165125
v -0.076015 0.02295 0.17095
v -0.076015 0.003 0.17095
v -0.161508 0.003 0.148047
v -0.161508 0.02295 0.148047
v -0.19692 0.003 0.12088
v -0.19692 0.0163 0.12088
v -0.224092 0.003 0.085475
v -0.224092 0.02295 0.085475
v -0.241174 0.003 0.044245
v -0.241174 0.0163 0.044245
v -0.247 0.003 0
v -0.247 0.02295 0
v -0.241174 0.003 -0.044245
v -0.241174 0.0163 -0.044245
v -0.224092 0.003 -0.085475
v -0.224092 0.02295 -0.085475
v -0.19692 0.003 -0.12088
v -0.19692 0.0163 -0.12088
v -0.161508 0.003 -0.148047
v -0.161508 0.02295 -0.148047
v -0.12027 0.003 -0.165125
v -0.12027 0.0163 -0.165125
v -0.076015 0.003 -0.17095
v -0.076015 0.02295 -0.17095
v -0.076015 0.0315 0.156704
v -0.076015 0.02295 0.17095
v -0.12027 0.0163 0.165125
v -0.161508 0.02295 0.148047
v -0.154383 0.0315 0.13571
v -0.12027 0.0163 0.165125
v -0.19692 0.0163 0.12088
v -0.224092 0.02295 0.085475
v -0.211753 0.0315 0.078352
v -0.19692 0.0163 0.12088
v -0.241174 0.0163 0.044245
v -0.247 0.02295 0
v -0.232751 0.0315 0
v -0.241174 0.0163 0.044245
v -0.241174 0.0163 -0.044245
v -0.224092 0.02295 -0.085475
v -0.211753 0.0315 -0.078352
v -0.241174 0.0163 -0.044245
v -0.19692 0.0163 -0.12088
v -0.161508 0.02295 -0.148047
v -0.154383 0.0315 -0.13571
v -0.19692 0.0163 -0.12088
v -0.12027 0.0163 -0.165125
v -0.076015 0.02295 -0.17095
v -0.076015 0.0315 -0.156704
v -0.12027 0.0163 -0.165125
v -0.211753 0.0315 -0.078352
v -0.232751 0.0315 0
v -0.241174 0.0163 -0.044245
v -0.154383 0.0315 -0.13571
v -0.211753 0.0315 -0.078352
v -0.19692 0.0163 -0.12088
v -0.12027 0.0163 -0.165125
v -0.076015 0.0315 -0.156704
v -0.154383 0.0315 -0.13571
v -0.154383 0.0315 0.13571
v -0.076015 0.0315 0.156704
v -0.12027 0.0163 0.165125
v -0.211753 0.0315 0.078352
v -0.154383 0.0315 0.13571
v -0.19692 0.0163 0.12088
v -0.232751 0.0315 0
v -0.211753 0.0315 0.078352
v -0.241174 0.0163 0.044245
v -0.232751 0.0315 0
v -0.206394 0.269 -0
v -0.206394 0.269 0.034928
v -0.206394 0.269 -0.034928
v -0.232751 0.0315 0
v -0.211753 0.0315 -0.078352
v -0.211753 0.0315 -0.078352
v -0.188927 0.269 -0.065176
v -0.206394 0.269 -0.034928
v -0.171459 0.269 -0.095424
v -0.211753 0.0315 -0.078352
v -0.154383 0.0315 -0.13571
v -0.141205 0.269 -0.112888
v -0.171459 0.269 -0.095424
v -0.154383 0.0315 -0.13571
v -0.154383 0.0315 -0.13571
v -0.076015 0.0315 -0.156704
v -0.11095 0.269 -0.130352
v -0.076015 0.269 -0.130352
v -0.11095 0.269 -0.130352
v -0.076015 0.0315 -0.156704
v -0.11095 0.269 0.130352
v -0.076015 0.0315 0.156704
v -0.154383 0.0315 0.13571
v -0.154383 0.0315 0.13571
v -0.141205 0.269 0.112888
v -0.11095 0.269 0.130352
v -0.171459 0.269 0.095424
v -0.154383 0.0315 0.13571
v -0.211753 0.0315 0.078352
v -0.211753 0.0315 0.078352
v -0.188927 0.269 0.065176
v -0.171459 0.269 0.095424
v -0.206394 0.269 0.034928
v -0.211753 0.0315 0.078352
v -0.232751 0.0315 0
v -0.206394 0.269 -0.034928
v -0.171459 0.269 -0.095424
v -0.11095 0.269 -0.130352
v -0.076015 0.0315 0.156704
v -0.11095 0.269 0.130352
v -0.076015 0.269 0.130352
v -0.171459 0.269 0.095424
v -0.206394 0.269 0.034928
v -0.206394 0.269 0.034928
v -0.206394 0.269 -0
v -0.188927 0.269 0.065176
v -0.188927 0.269 -0.065176
v -0.206394 0.269 -0.034928
v -0.141205 0.269 -0.112888
v -0.171459 0.269 -0.095424
v -0.076015 0.269 -0.130352
v -0.11095 0.269 -0.130352
v -0.141205 0.269 0.112888
v -0.076015 0.269 0.130352
v -0.11095 0.269 0.130352
v -0.171459 0.269 0.095424
v -0.155053 0.2975 0.045623
v -0.16728 0.2975 -0
v -0.155053 0.2975 -0.045623
v -0.121648 0.2975 -0.079022
v -0.076015 0.2975 -0.091246
v -0.076015 0.2975 0.091246
v -0.121648 0.2975 0.079022
v -0.155053 0.3317 0.045623
v -0.16728 0.3317 -0
v -0.155053 0.3317 -0.045623
v -0.121648 0.3317 -0.079022
v -0.076015 0.3317 -0.091246
v -0.076015 0.3317 0.091246
v -0.121648 0.3317 0.079022
v -0.181463 0.3602 0.060868
v -0.193624 0.3602 0.031507
v -0.197775 0.3602 -0
v -0.193624 0.3602 -0.031507
v -0.181463 0.3602 -0.060868
v -0.162111 0.3602 -0.086078
v -0.136895 0.3602 -0.105426
v -0.107529 0.3602 -0.117585
v -0.076015 0.3602 0.121735
v -0.107529 0.3602 0.117585
v -0.136895 0.3602 0.105426
v -0.162111 0.3602 0.086078
v -0.076015 0.3602 -0.121735
v -0.181463 0.38585 0.060868
v -0.181463 0.3602 0.060868
v -0.193624 0.3602 0.031507
v -0.193624 0.39535 0.031507
v -0.197775 0.38585 -0
v -0.197775 0.3602 -0
v -0.193624 0.3602 -0.031507
v -0.193624 0.39535 -0.031507
v -0.181463 0.38585 -0.060868
v -0.181463 0.3602 -0.060868
v -0.162111 0.3602 -0.086078
v -0.162111 0.39535 -0.086078
v -0.136895 0.38585 -0.105426
v -0.136895 0.3602 -0.105426
v -0.107529 0.3602 -0.117585
v -0.107529 0.39535 -0.117585
v -0.076015 0.38585 0.121735
v -0.076015 0.3602 0.121735
v -0.107529 0.3602 0.117585
v -0.107529 0.39535 0.117585
v -0.136895 0.38585 0.105426
v -0.136895 0.3602 0.105426
v -0.162111 0.3602 0.086078
v -0.162111 0.39535 0.086078
v -0.076015 0.3602 -0.121735
v -0.076015 0.38585 -0.121735
vt 0.5 0.5
vt 0.5 0.5
vt 0.5 0.5
vt 0.5 0.5
vt 0.5 0.5
vt 0.5 0.5
vt 0.5 0.5
vt 0.5 0.5
vt 0.5 0.5
vt 0.5 0.5
vt 0.5 0.5
vt 0.5 0.5
vt 0.5 0.5
vt 0.5 0.5
vt 0.5 0.5
vt 0.5 0.5
vt 0.5 0.5
vt 0.5 0.5
vt 0.5 0.5
vt 0.5 0.5
vt 0.5 0.5
vt 0.5 0.5
vt 0.5 0.5
vt 0.5 0.5
vt 0.5 0.5
vt 0.5 0.5
vt 0.5 0.5
vt 0.5 0.5
vt 0.5 0.5
vt 0.5 0.5
vt 0.5 0.5
vt 0.5 0.5
vt 0.5 0.5
vt 0.5 0.5
vt 0.5 0.5
vt 0.5 0.5
vt 0.5 0.5
vt 0.5 0.5
vt 0.5 0.5
vt 0.5 0.5
vt 0.5 0.5
vt 0.5 0.5
vt 0.5 0.5
vt 0.5 0.5
vt 0.5 0.5
vt 0.5 0.5
vt 0.5 0.5
vt 0.5 0.5
vt 0.5 0.5
vt 0.5 0.5
vt 0.5 0.5
vt 0.5 0.5
vt 0.5 0.5
vt 0.5 0.5
vt 0.5 0.5
vt 0.5 0.5
vt 0.5 0.5
vt 0.5 0.5
vt 0.5 0.5
vt 0.5 0.5
vt 0.5 0.5
vt 0.5 0.5
vt 0.5 0.5
vt 0.5 0.5
vt 0.5 0.5
vt 0.5 0.5
vt 0.5 0.5
vt 0.5 0.5
vt 0.5 0.5
vt 0.5 0.5
vt 0.5 0.5
vt 0.5 0.5
vt 0.5 0.5
vt 0.5 0.5
vt 0.5 0.5
vt 0.5 0.5
vt 0.5 0.5
vt 0.5 0.5
vt 0.5 0.5
vt 0.5 0.5
vt 0.5 0.5
vt 0.5 0.5
vt 0.5 0.5
vt 0.5 0.5
vt 0.5 0.5
vt 0.5 0.5
vt 0.5 0.5
vt 0.5 0.5
vt 0.5 0.5
vt 0.5 0.5
vt 0.5 0.5
vt 0.5 0.5
vt 0.5 0.5
vt 0.5 0.5
vt 0.5 0.5
vt 0.5 0.5
vt 0.5 0.5
vt 0.5 0.5
vt 0.5 0.5
vt 0.5 0.5
vt 0.5 0.5
vt 0.5 0.5
vt 0.5 0.5
vt 0.5 0.5
vt 0.5 0.5
vt 0.5 0.5
vt 0.5 0.5
vt 0.5 0.5
vt 0.5 0.5
vt 0.5 0.5
vt 0.5 0.5
vt 0.5 0.5
vt 0.5 0.5
vt 0.5 0.5
vt 0.5 0.5
vt 0.5 0.5
vt 0.5 0.5
vt 0.5 0.5
vt 0.5 0.5
vt 0.5 0.5
vt 0.5 0.5
vt 0.5 0.5
vt 0.5 0.5
vt 0.5 0.5
vt 0.5 0.5
vt 0.5 0.5
vt 0.5 0.5
vt 0.5 0.5
vt 0.5 0.5
vt 0.5 0.5
vt 0.5 0.5
vt 0.5 0.5
vt 0.5 0.5
vt 0.5 0.5
vt 0.5 0.5
vt 0.5 0.5
vt 0.5 0.5
vt 0.5 0.5
vt 0.5 0.5
vt 0.5 0.5
vt 0.5 0.5
vt 0.5 0.5
vt 0.5 0.5
vt 0.5 0.5
vt 0.5 0.5
vt 0.5 0.5
vt 0.5 0.5
vt 0.5 0.5
vt 0.5 0.5
vt 0.5 0.5
vt 0.5 0.5
vt 0.5 0.5
vt 0.5 0.5
vt 0.5 0.5
vt 0.5 0.5
vt 0.5 0.5
vt 0.5 0.5
vt 0.5 0.5
vt 0.5 0.5
vt 0.5 0.5
vt 0.5 0.5
vt 0.5 0.5
vt 0.5 0.5
vt 0.5 0.5
vt 0.5 0.5
vt 0.5 0.5
vt 0.5 0.5
vt 0.5 0.5
vt 0.5 0.5
vt 0.5 0.5
vt 0.5 0.5
vt 0.5 0.5
vt 0.5 0.5
vt 0.5 0.5
vt 0.5 0.5
vt 0.5 0.5
vt 0.5 0.5
vt 0.5 0.5
vt 0.5 0.5
vt 0.5 0.5
vt 0.5 0.5
vt 0.5 0.5
vt 0.5 0.5
vt 0.5 0.5
vt 0.5 0.5
vt 0.5 0.5
vt 0.5 0.5
vt 0.5 0.5
vt 0.5 0.5
vt 0.5 0.5
vt 0.5 0.5
vt 0.5 0.5
vt 0.5 0.5
vt 0.5 0.5
vt 0.5 0.5
vt 0.5 0.5
vt 0.5 0.5
vt 0.5 0.5
vt 0.5 0.5
vt 0.5 0.5
vt 0.5 0.5
vt 0.5 0.5
vt 0.5 0.5
vt 0.5 0.5
vt 0.5 0.5
vt 0.5 0.5
vt 0.5 0.5
vt 0.5 0.5
vt 0.5 0.5
vt 0.5 0.5
vt 0.5 0.5
vt 0.5 0.5
vt 0.5 0.5
vt 0.5 0.5
vt 0.5 0.5
vt 0.5 0.5
vt 0.5 0.5
vt 0.5 0.5
vt 0.5 0.5
vt 0.5 0.5
vt 0.5 0.5
vt 0.5 0.5
vt 0.5 0.5
vt 0.5 0.5
vt 0.5 0.5
vt 0.5 0.5
vt 0.5 0.5
vt 0.5 0.5
vt 0.5 0.5
vt 0.5 0.5
vt 0.5 0.5
vt 0.5 0.5
vt 0.5 0.5
vt 0.5 0.5
vt 0.5 0.5
vt 0.5 0.5
vt 0.5 0.5
vt 0.5 0.5
vt 0.5 0.5
vt 0.5 0.5
vt 0.5 0.5
vt 0.5 0.5
vt 0.5 0.5
vt 0.5 0.5
vt 0.5 0.5
vt 0.5 0.5
vt 0.5 0.5
vt 0.5 0.5
vt 0.5 0.5
vt 0.5 0.5
vt 0.5 0.5
vt 0.5 0.5
vt 0.5 0.5
vt 0.5 0.5
vt 0.5 0.5
vt 0.5 0.5
vt 0.5 0.5
vt 0.5 0.5
vt 0.5 0.5
vt 0.5 0.5
vt 0.5 0.5
vt 0.5 0.5
vt 0.5 0.5
vt 0.5 0.5
vt 0.5 0.5
vt 0.5 0.5
vt 0.5 0.5
vt 0.5 0.5
vt 0.5 0.5
vt 0.5 0.5
vt 0.5 0.5
vt 0.5 0.5
vt 0.5 0.5
vt 0.5 0.5
vt 0.5 0.5
vt 0.5 0.5
vt 0.5 0.5
vt 0.5 0.5
vt 0.5 0.5
vt 0.5 0.5
vt 0.5 0.5
vt 0.5 0.5
vt 0.5 0.5
vt 0.5 0.5
vt 0.5 0.5
vt 0.5 0.5
vt 0.5 0.5
vt 0.5 0.5
vt 0.5 0.5
vt 0.5 0.5
vt 0.5 0.5
vt 0.5 0.5
vt 0.5 0.5
vt 0.5 0.5
vt 0.5 0.5
vt 0.5 0.5
vt 0.5 0.5
vt 0.5 0.5
vt 0.5 0.5
vt 0.5 0.5
vt 0.5 0.5
vt 0.5 0.5
vt 0.5 0.5
vt 0.5 0.5
vt 0.5 0.5
vt 0.5 0.5
vt 0.5 0.5
vt 0.5 0.5
vt 0.5 0.5
vt 0.5 0.5
vt 0.5 0.5
vt 0.5 0.5
vt 0.5 0.5
vt 0.5 0.5
vt 0.5 0.5
vt 0.5 0.5
vt 0.5 0.5
vt 0.5 0.5
vt 0.5 0.5
vt 0.5 0.5
vt 0.5 0.5
vt 0.5 0.5
vt 0.5 0.5
vt 0.5 0.5
vt 0.5 0.5
vt 0.5 0.5
vt 0.5 0.5
vt 0.5 0.5
vt 0.5 0.5
vt 0.5 0.5
vt 0.5 0.5
vt 0.5 0.5
vt 0.5 0.5
vt 0.5 0.5
vt 0.5 0.5
vt 0.5 0.5
vt 0.5 0.5
vt 0.5 0.5
vt 0.5 0.5
vt 0.5 0.5
vt 0.5 0.5
vt 0.5 0.5
vt 0.5 0.5
vt 0.5 0.5
vt 0.5 0.5
vt 0.5 0.5
vt 0.5 0.5
vt 0.5 0.5
vt 0.5 0.5
vt 0.5 0.5
vt 0.5 0.5
vt 0.5 0.5
vt 0.5 0.5
vt 0.5 0.5
vt 0.5 0.5
vt 0.5 0.5
vt 0.5 0.5
vt 0.5 0.5
vt 0.5 0.5
vt 0.5 0.5
vt 0.5 0.5
vt 0.5 0.5
vt 0.5 0.5
vt 0.5 0.5
vt 0.5 0.5
vt 0.5 0.5
vt 0.5 0.5
vt 0.5 0.5
vt 0.5 0.5
vt 0.5 0.5
vt 0.5 0.5
vt 0.5 0.5
vt 0.5 0.5
vt 0.5 0.5
vt 0.5 0.5
vt 0.5 0.5
vt 0.5 0.5
vt 0.5 0.5
vt 0.5 0.5
vt 0.5 0.5
vt 0.5 0.5
vt 0.5 0.5
vt 0.5 0.5
vt 0.5 0.5
vt 0.5 0.5
vt 0.5 0.5
vt 0.5 0.5
vt 0.5 0.5
vt 0.5 0.5
vt 0.5 0.5
vt 0.5 0.5
vt 0.5 0.5
vt 0.5 0.5
vt 0.5 0.5
vt 0.5 0.5
vt 0.5 0.5
vt 0.5 0.5
vt 0.5 0.5
vt 0.5 0.5
vt 0.5 0.5
vt 0.5 0.5
vt 0.5 0.5
vt 0.5 0.5
vt 0.5 0.5
vt 0.5 0.5
vt 0.5 0.5
vt 0.5 0.5
vt 0.5 0.5
vt 0.5 0.5
vt 0.5 0.5
vt 0.5 0.5
vt 0.5 0.5
vt 0.5 0.5
vt 0.5 0.5
vt 0.5 0.5
vt 0.5 0.5
vt 0.5 0.5
vt 0.5 0.5
vt 0.5 0.5
vt 0.5 0.5
vt 0.5 0.5
vt 0.5 0.5
vt 0.5 0.5
vt 0.5 0.5
vt 0.5 0.5
vt 0.5 0.5
vt 0.5 0.5
vt 0.5 0.5
vt 0.5 0.5
vt 0.5 0.5
vt 0.5 0.5
vt 0.5 0.5
vt 0.5 0.5
vt 0.5 0.5
vt 0.5 0.5
vt 0.5 0.5
vt 0.5 0.5
vt 0.5 0.5
vt 0.5 0.5
vt 0.5 0.5
vt 0.5 0.5
vt 0.5 0.5
vt 0.5 0.5
vt 0.5 0.5
vt 0.5 0.5
vt 0.5 0.5
vt 0.5 0.5
vt 0.5 0.5
vt 0.5 0.5
vt 0.5 0.5
vt 0.5 0.5
vt 0.5 0.5
vt 0.5 0.5
vt 0.5 0.5
vt 0.5 0.5
vt 0.5 0.5
vt 0.5 0.5
vt 0.5 0.5
vt 0.5 0.5
vt 0.5 0.5
vt 0.5 0.5
vt 0.5 0.5
vt 0.5 0.5
vt 0.5 0.5
vt 0.5 0.5
vt 0.5 0.5
vt 0.5 0.5
vt 0.5 0.5
vt 0.5 0.5
vt 0.5 0.5
vt 0.5 0.5
vt 0.5 0.5
vt 0.5 0.5
vt 0.5 0.5
vt 0.5 0.5
vt 0.5 0.5
vt 0.5 0.5
vt 0.5 0.5
vt 0.5 0.5
vt 0.5 0.5
vt 0.5 0.5
vt 0.5 0.5
vt 0.5 0.5
vt 0.5 0.5
vt 0.5 0.5
vt 0.5 0.5
vt 0.5 0.5
vt 0.5 0.5
vt 0.5 0.5
vt 0.5 0.5
vt 0.5 0.5
vt 0.5 0.5
vn 0.130497 0 -0.991424
vn 0.130497 0 -0.991424
vn 0.499924 0 -0.866054
vn 0.499924 0 -0.866054
vn 0.865963 0 -0.500046
vn 0.865963 0 -0.500046
vn 1 0 0
vn 1 0 0
vn 0.865963 0 0.500046
vn 0.865963 0 0.500046
vn 0.499924 0 0.866054
vn 0.499924 0 0.866054
vn 0.130497 0 0.991424
vn 0.130497 0 0.991424
vn 0.877255 0.479995 0
vn 0.877255 0.479995 0
vn 0.876888 0.479781 -0.029115
vn 0.876888 0.479781 0.029115
vn 0.759697 0.479965 -0.438704
vn 0.759697 0.479965 -0.438704
vn 0.744804 0.479751 -0.463729
vn 0.773949 0.479751 -0.413282
vn 0.759697 0.479965 0.438704
vn 0.744804 0.479751 0.463729
vn 0.759697 0.479965 0.438704
vn 0.773949 0.479751 0.413282
vn 0.438581 0.479934 0.759789
vn 0.41316 0.47972 0.774041
vn 0.438581 0.479934 0.759789
vn 0.463607 0.47972 0.744896
vn 0.438581 0.479934 -0.759789
vn 0.438581 0.479934 -0.759789
vn 0.41316 0.47972 -0.774041
vn 0.463607 0.47972 -0.744896
vn -0.004944 0.479904 0.877285
vn -0.029115 0.47969 0.876919
vn -0.012909 0.479873 0.877224
vn -0.004944 0.479904 -0.877285
vn -0.012909 0.479873 -0.877224
vn -0.029115 0.47969 -0.876919
vn 0 0.999969 0
vn 0 1 0
vn 0 1 0
vn 0 1 0
vn 0 0.999969 0
vn 0 1 0
vn 0 1 0
vn 0 1 0
vn 0.217994 0.538621 -0.813837
vn 0.217994 0.538621 -0.813837
vn 0.217994 0.538621 -0.813837
vn 0.59566 0.538652 -0.595782
vn 0.59566 0.538652 -0.595782
vn 0.59566 0.538652 -0.595782
vn 0.813776 0.538682 -0.218085
vn 0.813776 0.538682 -0.218085
vn 0.813776 0.538682 -0.218085
vn 0.813776 0.538682 0.218085
vn 0.813776 0.538682 0.218085
vn 0.813776 0.538682 0.218085
vn 0.59566 0.538652 0.595782
vn 0.59566 0.538652 0.595782
vn 0.59566 0.538652 0.595782
vn 0.217994 0.538621 0.813837
vn 0.217994 0.538621 0.813837
vn 0.217994 0.538621 0.813837
vn 0.258766 0 -0.965911
vn 0.258766 0 -0.965911
vn 0.062136 0 -0.998047
vn 0.065371 0 -0.997833
vn 0.499924 0 -0.866054
vn 0.499924 0 -0.866054
vn 0.707022 0 -0.707175
vn 0.707022 0 -0.707175
vn 0.865963 0 -0.500046
vn 0.865963 0 -0.500046
vn 0.965911 0 -0.258858
vn 0.965911 0 -0.258858
vn 0.999969 0 0
vn 1 0 0
vn 0.965911 0 0.258858
vn 0.965911 0 0.258858
vn 0.865963 0 0.500046
vn 0.865963 0 0.500046
vn 0.707022 0 0.707175
vn 0.707022 0 0.707175
vn 0.499924 0 0.866054
vn 0.499924 0 0.866054
vn 0.258766 0 0.965911
vn 0.258766 0 0.965911
vn 0.065371 0 0.997833
vn 0.062136 0 0.998047
vn 0.085818 0.854244 -0.51268
vn 0.095798 0.853481 -0.512223
vn 0.192877 0.841304 -0.504929
vn 0.257271 0.857418 -0.445631
vn 0.25721 0.857418 -0.445662
vn 0.08536 0.841304 -0.533738
vn 0.419477 0.841334 -0.340831
vn 0.445601 0.857448 -0.257271
vn 0.44557 0.857448 -0.257302
vn 0.340739 0.841334 -0.419538
vn 0.533647 0.841365 -0.085391
vn 0.514512 0.857448 0
vn 0.514512 0.857448 0
vn 0.504837 0.841334 -0.192907
vn 0.504837 0.841334 0.192907
vn 0.445601 0.857448 0.257271
vn 0.44557 0.857448 0.257302
vn 0.533647 0.841365 0.085391
vn 0.340739 0.841334 0.419538
vn 0.257271 0.857418 0.445631
vn 0.25721 0.857418 0.445662
vn 0.419477 0.841334 0.340831
vn 0.08536 0.841304 0.533738
vn 0.095798 0.853481 0.512223
vn 0.085818 0.854244 0.51268
vn 0.192877 0.841304 0.504929
vn 0.158635 0.789972 -0.592212
vn 0.158635 0.789972 -0.592212
vn 0.158635 0.789972 -0.592212
vn 0.433454 0.790002 -0.433546
vn 0.433454 0.790002 -0.433546
vn 0.433454 0.790002 -0.433546
vn 0.59212 0.790033 -0.158666
vn 0.59212 0.790033 -0.158666
vn 0.59212 0.790033 -0.158666
vn 0.59212 0.790033 0.158666
vn 0.59212 0.790033 0.158666
vn 0.59212 0.790033 0.158666
vn 0.433454 0.790002 0.433546
vn 0.433454 0.790002 0.433546
vn 0.433454 0.790002 0.433546
vn 0.158635 0.789972 0.592212
vn 0.158635 0.789972 0.592212
vn 0.158635 0.789972 0.592212
vn 0.258126 0.068941 -0.963622
vn 0.258126 0.068941 -0.963622
vn 0.258126 0.068941 -0.963622
vn 0.496872 0.110263 -0.860775
vn 0.496872 0.110263 -0.860775
vn 0.496872 0.110263 -0.860775
vn 0.705344 0.068941 -0.705466
vn 0.705344 0.068941 -0.705466
vn 0.705344 0.068941 -0.705466
vn 0.860683 0.110294 -0.497024
vn 0.860683 0.110294 -0.497024
vn 0.860683 0.110294 -0.497024
vn 0.963591 0.068941 -0.258248
vn 0.963591 0.068941 -0.258248
vn 0.963591 0.068941 -0.258248
vn 0.993896 0.110294 0
vn 0.993896 0.110294 0
vn 0.993896 0.110294 0
vn 0.963591 0.068941 0.258248
vn 0.963591 0.068941 0.258248
vn 0.963591 0.068941 0.258248
vn 0.860683 0.110294 0.497024
vn 0.860683 0.110294 0.497024
vn 0.860683 0.110294 0.497024
vn 0.705344 0.068941 0.705466
vn 0.705344 0.068941 0.705466
vn 0.705344 0.068941 0.705466
vn 0.496872 0.110263 0.860775
vn 0.496872 0.110263 0.860775
vn 0.496872 0.110263 0.860775
vn 0.258126 0.068941 0.963622
vn 0.258126 0.068941 0.963622
vn 0.258126 0.068941 0.963622
vn 0 0.110263 0.993896
vn 0 0.110263 0.993896
vn 0 0.110263 0.993896
vn 0 0.110263 -0.993896
vn 0 0.110263 -0.993896
vn 0 0.110263 -0.993896
vn 0.496872 0.110263 -0.860775
vn 0.860683 0.110294 -0.497024
vn 0.993896 0.110294 0
vn 0.860683 0.110294 0.497024
vn 0.496872 0.110263 0.860775
vn 0.253121 0.8623 -0.43852
vn 0.067568 0.834254 -0.547197
vn 0 1 0
vn 0.438429 0.862331 -0.253151
vn 0 1 0
vn 0.506241 0.862362 0
vn 0 1 0
vn 0.438429 0.862331 0.253151
vn 0 1 0
vn 0.253121 0.8623 0.43852
vn 0 1 0
vn 0.067568 0.834254 0.547197
vn 0 1 0
vn 0.118686 0.467025 -0.876217
vn 0.43675 0.486526 -0.756645
vn 0.756554 0.486557 -0.436872
vn 0.873623 0.486587 0
vn 0.756554 0.486557 0.436872
vn 0.43675 0.486526 0.756645
vn 0.118686 0.467025 0.876217
vn 0.110202 -0.419599 -0.900967
vn 0.447645 -0.445174 -0.775506
vn 0.775414 -0.445204 -0.447768
vn 0.895383 -0.445235 0
vn 0.775414 -0.445204 0.447768
vn 0.447645 -0.445174 0.775506
vn 0.110202 -0.419599 0.900967
vn 0.043397 -0.72982 -0.682211
vn 0.17362 -0.741447 -0.648122
vn 0.34138 -0.730522 -0.591388
vn 0.47438 -0.741478 -0.474471
vn 0.591296 -0.730552 -0.341441
vn 0.648061 -0.741508 -0.173681
vn 0.682791 -0.730583 0
vn 0.648061 -0.741508 0.173681
vn 0.591296 -0.730552 0.341441
vn 0.47438 -0.741478 0.474471
vn 0.34138 -0.730522 0.591388
vn 0.17362 -0.741447 0.648122
vn 0.043397 -0.72982 0.682211
vn 0.070956 0 -0.997467
vn 0.065401 0 -0.997833
vn 0.258766 0 -0.965911
vn 0.258766 0 -0.965911
vn 0.499924 0 -0.866054
vn 0.499924 0 -0.866054
vn 0.707022 0 -0.707175
vn 0.707022 0 -0.707175
vn 0.865963 0 -0.500046
vn 0.865963 0 -0.500046
vn 0.965911 0 -0.258858
vn 0.965911 0 -0.258858
vn 1 0 0
vn 1 0 0
vn 0.965911 0 0.258858
vn 0.965911 0 0.258858
vn 0.865963 0 0.500046
vn 0.865963 0 0.500046
vn 0.707022 0 0.707175
vn 0.707022 0 0.707175
vn 0.499924 0 0.866054
vn 0.499924 0 0.866054
vn 0.258766 0 0.965911
vn 0.258766 0 0.965911
vn 0.065401 0 0.997833
vn 0.070956 0 0.997467
vn -0.130497 0 0.991424
vn -0.130497 0 0.991424
vn -0.499924 0 0.866054
vn -0.499924 0 0.866054
vn -0.865963 0 0.500046
vn -0.865963 0 0.500046
vn -1 0 0
vn -1 0 0
vn -0.865963 0 -0.500046
vn -0.865963 0 -0.500046
vn -0.499924 0 -0.866054
vn -0.499924 0 -0.866054
vn -0.130497 0 -0.991424
vn -0.130497 0 -0.991424
vn -0.759697 0.479965 -0.438704
vn -0.759697 0.479965 -0.438704
vn -0.773949 0.479751 -0.413282
vn -0.744804 0.479751 -0.463729
vn -0.877255 0.479995 0
vn -0.877255 0.479995 0
vn -0.876888 0.479781 0.029115
vn -0.876888 0.479781 -0.029115
vn -0.759697 0.479965 0.438704
vn -0.759697 0.479965 0.438704
vn -0.744804 0.479751 0.463729
vn -0.773949 0.479751 0.413282
vn -0.438581 0.479934 0.759789
vn -0.438581 0.479934 0.759789
vn -0.41316 0.47972 0.774041
vn -0.463607 0.47972 0.744896
vn -0.438581 0.479934 -0.759789
vn -0.41316 0.47972 -0.774041
vn -0.438581 0.479934 -0.759789
vn -0.463607 0.47972 -0.744896
vn 0.004944 0.479904 0.877285
vn 0.012909 0.479873 0.877224
vn 0.029115 0.47969 0.876919
vn 0.004944 0.479904 -0.877285
vn 0.029115 0.47969 -0.876919
vn 0.012909 0.479873 -0.877224
vn 0 0.999969 0
vn 0 1 0
vn 0 1 0
vn 0 1 0
vn 0 0.999969 0
vn 0 1 0
vn 0 1 0
vn 0 1 0
vn -0.813776 0.538682 -0.218085
vn -0.813776 0.538682 -0.218085
vn -0.813776 0.538682 -0.218085
vn -0.59566 0.538652 -0.595782
vn -0.59566 0.538652 -0.595782
vn -0.59566 0.538652 -0.595782
vn -0.217994 0.538621 -0.813837
vn -0.217994 0.538621 -0.813837
vn -0.217994 0.538621 -0.813837
vn -0.217994 0.538621 0.813837
vn -0.217994 0.538621 0.813837
vn -0.217994 0.538621 0.813837
vn -0.59566 0.538652 0.595782
vn -0.59566 0.538652 0.595782
vn -0.59566 0.538652 0.595782
vn -0.813776 0.538682 0.218085
vn -0.813776 0.538682 0.218085
vn -0.813776 0.538682 0.218085
vn -0.258766 0 0.965911
vn -0.258766 0 0.965911
vn -0.062136 0 0.998047
vn -0.065371 0 0.997833
vn -0.499924 0 0.866054
vn -0.499924 0 0.866054
vn -0.707022 0 0.707175
vn -0.707022 0 0.707175
vn -0.865963 0 0.500046
vn -0.865963 0 0.500046
vn -0.965911 0 0.258858
vn -0.965911 0 0.258858
vn -0.999969 0 0
vn -1 0 0
vn -0.965911 0 -0.258858
vn -0.965911 0 -0.258858
vn -0.865963 0 -0.500046
vn -0.865963 0 -0.500046
vn -0.707022 0 -0.707175
vn -0.707022 0 -0.707175
vn -0.499924 0 -0.866054
vn -0.499924 0 -0.866054
vn -0.258766 0 -0.965911
vn -0.258766 0 -0.965911
vn -0.065371 0 -0.997833
vn -0.062136 0 -0.998047
vn -0.085818 0.854244 0.51268
vn -0.095798 0.853481 0.512223
vn -0.192877 0.841304 0.504929
vn -0.257271 0.857418 0.445631
vn -0.25721 0.857418 0.445662
vn -0.08536 0.841304 0.533738
vn -0.419477 0.841334 0.340831
vn -0.445601 0.857448 0.257271
vn -0.44557 0.857448 0.257302
vn -0.340739 0.841334 0.419538
vn -0.533647 0.841365 0.085391
vn -0.514512 0.857448 0
vn -0.514512 0.857448 0
vn -0.504837 0.841334 0.192907
vn -0.504837 0.841334 -0.192907
vn -0.445601 0.857448 -0.257271
vn -0.44557 0.857448 -0.257302
vn -0.533647 0.841365 -0.085391
vn -0.340739 0.841334 -0.419538
vn -0.257271 0.857418 -0.445631
vn -0.25721 0.857418 -0.445662
vn -0.419477 0.841334 -0.340831
vn -0.08536 0.841304 -0.533738
vn -0.095798 0.853481 -0.512223
vn -0.085818 0.854244 -0.51268
vn -0.192877 0.841304 -0.504929
vn -0.59212 0.790033 -0.158666
vn -0.59212 0.790033 -0.158666
vn -0.59212 0.790033 -0.158666
vn -0.433454 0.790002 -0.433546
vn -0.433454 0.790002 -0.433546
vn -0.433454 0.790002 -0.433546
vn -0.158635 0.789972 -0.592212
vn -0.158635 0.789972 -0.592212
vn -0.158635 0.789972 -0.592212
vn -0.158635 0.789972 0.592212
vn -0.158635 0.789972 0.592212
vn -0.158635 0.789972 0.592212
vn -0.433454 0.790002 0.433546
vn -0.433454 0.790002 0.433546
vn -0.433454 0.790002 0.433546
vn -0.59212 0.790033 0.158666
vn -0.59212 0.790033 0.158666
vn -0.59212 0.790033 0.158666
vn -0.993896 0.110294 0
vn -0.993896 0.110294 0
vn -0.993896 0.110294 0
vn -0.963591 0.068941 -0.258248
vn -0.963591 0.068941 -0.258248
vn -0.963591 0.068941 -0.258248
vn -0.860683 0.110294 -0.497024
vn -0.860683 0.110294 -0.497024
vn -0.860683 0.110294 -0.497024
vn -0.705344 0.068941 -0.705466
vn -0.705344 0.068941 -0.705466
vn -0.705344 0.068941 -0.705466
vn -0.496872 0.110263 -0.860775
vn -0.496872 0.110263 -0.860775
vn -0.496872 0.110263 -0.860775
vn -0.258126 0.068941 -0.963622
vn -0.258126 0.068941 -0.963622
vn -0.258126 0.068941 -0.963622
vn 0 0.110263 -0.993896
vn 0 0.110263 -0.993896
vn 0 0.110263 -0.993896
vn -0.258126 0.068941 0.963622
vn -0.258126 0.068941 0.963622
vn -0.258126 0.068941 0.963622
vn -0.496872 0.110263 0.860775
vn -0.496872 0.110263 0.860775
vn -0.496872 0.110263 0.860775
vn -0.705344 0.068941 0.705466
vn -0.705344 0.068941 0.705466
vn -0.705344 0.068941 0.705466
vn -0.860683 0.110294 0.497024
vn -0.860683 0.110294 0.497024
vn -0.860683 0.110294 0.497024
vn -0.963591 0.068941 0.258248
vn -0.963591 0.068941 0.258248
vn -0.963591 0.068941 0.258248
vn -0.993896 0.110294 0
vn -0.860683 0.110294 -0.497024
vn -0.496872 0.110263 -0.860775
vn 0 0.110263 0.993896
vn 0 0.110263 0.993896
vn 0 0.110263 0.993896
vn -0.496872 0.110263 0.860775
vn -0.860683 0.110294 0.497024
vn 0 1 0
vn -0.506241 0.862362 0
vn -0.438429 0.862331 0.253151
vn -0.438429 0.862331 -0.253151
vn 0 1 0
vn -0.253121 0.8623 -0.43852
vn 0 1 0
vn -0.067568 0.834254 -0.547197
vn 0 1 0
vn -0.253121 0.8623 0.43852
vn -0.067568 0.834254 0.547197
vn 0 1 0
vn 0 0.999969 0
vn -0.756554 0.486557 0.436872
vn -0.873623 0.486587 0
vn -0.756554 0.486557 -0.436872
vn -0.43675 0.486526 -0.756645
vn -0.118686 0.467025 -0.876217
vn -0.118686 0.467025 0.876217
vn -0.43675 0.486526 0.756645
vn -0.775414 -0.445204 0.447768
vn -0.895383 -0.445235 0
vn -0.775414 -0.445204 -0.447768
vn -0.447645 -0.445174 -0.775506
vn -0.110202 -0.419599 -0.900967
vn -0.110202 -0.419599 0.900967
vn -0.447645 -0.445174 0.775506
vn -0.591296 -0.730552 0.341441
vn -0.648061 -0.741508 0.173681
vn -0.682791 -0.730583 0
vn -0.648061 -0.741508 -0.173681
vn -0.591296 -0.730552 -0.341441
vn -0.47438 -0.741478 -0.474471
vn -0.34138 -0.730522 -0.591388
vn -0.17362 -0.741447 -0.648122
vn -0.043397 -0.72982 0.682211
vn -0.17362 -0.741447 0.648122
vn -0.34138 -0.730522 0.591388
vn -0.47438 -0.741478 0.474471
vn -0.043397 -0.72982 -0.682211
vn -0.865963 0 0.500046
vn -0.865963 0 0.500046
vn -0.965911 0 0.258858
vn -0.965911 0 0.258858
vn -1 0 0
vn -1 0 0
vn -0.965911 0 -0.258858
vn -0.965911 0 -0.258858
vn -0.865963 0 -0.500046
vn -0.865963 0 -0.500046
vn -0.707022 0 -0.707175
vn -0.707022 0 -0.707175
vn -0.499924 0 -0.866054
vn -0.499924 0 -0.866054
vn -0.258766 0 -0.965911
vn -0.258766 0 -0.965911
vn -0.070956 0 0.997467
vn -0.065401 0 0.997833
vn -0.258766 0 0.965911
vn -0.258766 0 0.965911
vn -0.499924 0 0.866054
vn -0.499924 0 0.866054
vn -0.707022 0 0.707175
vn -0.707022 0 0.707175
vn -0.065401 0 -0.997833
vn -0.070956 0 -0.997467
f 51/51/51 50/50/50 49/49/49
f 3/3/3 2/2/2 1/1/1
f 1/1/1 4/4/4 3/3/3
f 260/260/260 1/1/1 2/2/2
f 5/5/5 3/3/3 4/4/4
f 2/2/2 259/259/259 260/260/260
f 4/4/4 6/6/6 5/5/5
f 258/258/258 260/260/260 259/259/259
f 7/7/7 5/5/5 6/6/6
f 259/259/259 257/257/257 258/258/258
f 6/6/6 8/8/8 7/7/7
f 256/256/256 258/258/258 257/257/257
f 9/9/9 7/7/7 8/8/8
f 257/257/257 255/255/255 256/256/256
f 8/8/8 10/10/10 9/9/9
f 254/254/254 256/256/256 255/255/255
f 11/11/11 9/9/9 10/10/10
f 255/255/255 253/253/253 254/254/254
f 10/10/10 12/12/12 11/11/11
f 252/252/252 254/254/254 253/253/253
f 13/13/13 11/11/11 12/12/12
f 253/253/253 251/251/251 252/252/252
f 12/12/12 14/14/14 13/13/13
f 250/250/250 252/252/252 251/251/251
f 13/13/13 14/14/14 248/248/248
f 251/251/251 249/249/249 250/250/250
f 247/247/247 248/248/248 14/14/14
f 247/247/247 250/250/250 249/249/249
f 249/249/249 248/248/248 247/247/247
f 17/17/17 16/16/16 15/15/15
f 16/16/16 18/18/18 15/15/15
f 21/21/21 20/20/20 19/19/19
f 20/20/20 22/22/22 19/19/19
f 25/25/25 24/24/24 23/23/23
f 26/26/26 25/25/25 23/23/23
f 29/29/29 28/28/28 27/27/27
f 30/30/30 29/29/29 27/27/27
f 33/33/33 32/32/32 31/31/31
f 32/32/32 34/34/34 31/31/31
f 37/37/37 36/36/36 35/35/35
f 282/282/282 37/37/37 35/35/35
f 35/35/35 281/281/281 282/282/282
f 283/283/283 282/282/282 281/281/281
f 40/40/40 39/39/39 38/38/38
f 38/38/38 39/39/39 284/284/284
f 286/286/286 284/284/284 39/39/39
f 286/286/286 285/285/285 284/284/284
f 43/43/43 42/42/42 41/41/41
f 44/44/44 43/43/43 41/41/41
f 45/45/45 44/44/44 41/41/41
f 46/46/46 45/45/45 41/41/41
f 47/47/47 46/46/46 41/41/41
f 294/294/294 41/41/41 42/42/42
f 48/48/48 47/47/47 41/41/41
f 41/41/41 294/294/294 287/287/287
f 48/48/48 41/41/41 287/287/287
f 294/294/294 293/293/293 287/287/287
f 287/287/287 288/288/288 48/48/48
f 293/293/293 292/292/292 287/287/287
f 289/289/289 288/288/288 287/287/287
f 292/292/292 291/291/291 287/287/287
f 290/290/290 289/289/289 287/287/287
f 291/291/291 290/290/290 287/287/287
f 54/54/54 53/53/53 52/52/52
f 57/57/57 56/56/56 55/55/55
f 60/60/60 59/59/59 58/58/58
f 63/63/63 62/62/62 61/61/61
f 66/66/66 65/65/65 64/64/64
f 69/69/69 68/68/68 67/67/67
f 67/67/67 70/70/70 69/69/69
f 71/71/71 67/67/67 68/68/68
f 69/69/69 70/70/70 338/338/338
f 68/68/68 72/72/72 71/71/71
f 337/337/337 338/338/338 70/70/70
f 73/73/73 71/71/71 72/72/72
f 336/336/336 338/338/338 337/337/337
f 72/72/72 74/74/74 73/73/73
f 337/337/337 335/335/335 336/336/336
f 75/75/75 73/73/73 74/74/74
f 334/334/334 336/336/336 335/335/335
f 74/74/74 76/76/76 75/75/75
f 335/335/335 333/333/333 334/334/334
f 77/77/77 75/75/75 76/76/76
f 332/332/332 334/334/334 333/333/333
f 76/76/76 78/78/78 77/77/77
f 333/333/333 331/331/331 332/332/332
f 79/79/79 77/77/77 78/78/78
f 330/330/330 332/332/332 331/331/331
f 78/78/78 80/80/80 79/79/79
f 331/331/331 329/329/329 330/330/330
f 81/81/81 79/79/79 80/80/80
f 328/328/328 330/330/330 329/329/329
f 80/80/80 82/82/82 81/81/81
f 329/329/329 327/327/327 328/328/328
f 83/83/83 81/81/81 82/82/82
f 326/326/326 328/328/328 327/327/327
f 82/82/82 84/84/84 83/83/83
f 327/327/327 325/325/325 326/326/326
f 85/85/85 83/83/83 84/84/84
f 324/324/324 326/326/326 325/325/325
f 84/84/84 86/86/86 85/85/85
f 325/325/325 323/323/323 324/324/324
f 87/87/87 85/85/85 86/86/86
f 322/322/322 324/324/324 323/323/323
f 86/86/86 88/88/88 87/87/87
f 323/323/323 321/321/321 322/322/322
f 89/89/89 87/87/87 88/88/88
f 320/320/320 322/322/322 321/321/321
f 88/88/88 90/90/90 89/89/89
f 321/321/321 319/319/319 320/320/320
f 91/91/91 89/89/89 90/90/90
f 318/318/318 320/320/320 319/319/319
f 90/90/90 92/92/92 91/91/91
f 319/319/319 317/317/317 318/318/318
f 316/316/316 91/91/91 92/92/92
f 314/314/314 318/318/318 317/317/317
f 92/92/92 315/315/315 316/316/316
f 317/317/317 313/313/313 314/314/314
f 313/313/313 316/316/316 315/315/315
f 315/315/315 314/314/314 313/313/313
f 95/95/95 94/94/94 93/93/93
f 363/363/363 93/93/93 94/94/94
f 94/94/94 362/362/362 363/363/363
f 364/364/364 363/363/363 362/362/362
f 98/98/98 97/97/97 96/96/96
f 99/99/99 96/96/96 97/97/97
f 102/102/102 101/101/101 100/100/100
f 103/103/103 100/100/100 101/101/101
f 106/106/106 105/105/105 104/104/104
f 107/107/107 104/104/104 105/105/105
f 110/110/110 109/109/109 108/108/108
f 111/111/111 108/108/108 109/109/109
f 114/114/114 113/113/113 112/112/112
f 115/115/115 112/112/112 113/113/113
f 118/118/118 117/117/117 116/116/116
f 116/116/116 117/117/117 340/340/340
f 339/339/339 340/340/340 117/117/117
f 341/341/341 340/340/340 339/339/339
f 121/121/121 120/120/120 119/119/119
f 124/124/124 123/123/123 122/122/122
f 127/127/127 126/126/126 125/125/125
f 130/130/130 129/129/129 128/128/128
f 133/133/133 132/132/132 131/131/131
f 136/136/136 135/135/135 134/134/134
f 139/139/139 138/138/138 137/137/137
f 142/142/142 141/141/141 140/140/140
f 141/141/141 176/176/176 140/140/140
f 145/145/145 144/144/144 143/143/143
f 148/148/148 147/147/147 146/146/146
f 147/147/147 177/177/177 146/146/146
f 151/151/151 150/150/150 149/149/149
f 154/154/154 153/153/153 152/152/152
f 153/153/153 178/178/178 152/152/152
f 157/157/157 156/156/156 155/155/155
f 160/160/160 159/159/159 158/158/158
f 159/159/159 179/179/179 158/158/158
f 163/163/163 162/162/162 161/161/161
f 166/166/166 165/165/165 164/164/164
f 165/165/165 180/180/180 164/164/164
f 169/169/169 168/168/168 167/167/167
f 172/172/172 171/171/171 170/170/170
f 170/170/170 171/171/171 422/422/422
f 424/424/424 422/422/422 171/171/171
f 424/424/424 423/423/423 422/422/422
f 175/175/175 174/174/174 173/173/173
f 401/401/401 175/175/175 173/173/173
f 173/173/173 403/403/403 401/401/401
f 403/403/403 402/402/402 401/401/401
f 183/183/183 182/182/182 181/181/181
f 185/185/185 181/181/181 184/184/184
f 181/181/181 182/182/182 194/194/194
f 184/184/184 181/181/181 195/195/195
f 194/194/194 195/195/195 181/181/181
f 187/187/187 184/184/184 186/186/186
f 444/444/444 194/194/194 182/182/182
f 182/182/182 434/434/434 444/444/444
f 186/186/186 184/184/184 196/196/196
f 195/195/195 196/196/196 184/184/184
f 189/189/189 186/186/186 188/188/188
f 196/196/196 197/197/197 186/186/186
f 188/188/188 186/186/186 197/197/197
f 196/196/196 195/195/195 202/202/202
f 191/191/191 188/188/188 190/190/190
f 195/195/195 194/194/194 201/201/201
f 201/201/201 202/202/202 195/195/195
f 190/190/190 188/188/188 198/198/198
f 197/197/197 198/198/198 188/188/188
f 193/193/193 190/190/190 192/192/192
f 197/197/197 196/196/196 203/203/203
f 202/202/202 203/203/203 196/196/196
f 192/192/192 190/190/190 199/199/199
f 198/198/198 199/199/199 190/190/190
f 199/199/199 200/200/200 192/192/192
f 192/192/192 200/200/200 437/437/437
f 198/198/198 197/197/197 204/204/204
f 203/203/203 204/204/204 197/197/197
f 199/199/199 198/198/198 205/205/205
f 204/204/204 205/205/205 198/198/198
f 200/200/200 199/199/199 206/206/206
f 205/205/205 206/206/206 199/199/199
f 203/203/203 213/213/213 204/204/204
f 213/213/213 214/214/214 204/204/204
f 213/213/213 203/203/203 212/212/212
f 215/215/215 204/204/204 214/214/214
f 204/204/204 215/215/215 205/205/205
f 211/211/211 212/212/212 203/203/203
f 202/202/202 211/211/211 203/203/203
f 215/215/215 216/216/216 205/205/205
f 211/211/211 202/202/202 210/210/210
f 217/217/217 205/205/205 216/216/216
f 205/205/205 217/217/217 206/206/206
f 209/209/209 210/210/210 202/202/202
f 217/217/217 218/218/218 206/206/206
f 201/201/201 209/209/209 202/202/202
f 219/219/219 206/206/206 218/218/218
f 209/209/209 201/201/201 208/208/208
f 466/466/466 208/208/208 201/201/201
f 206/206/206 219/219/219 207/207/207
f 206/206/206 207/207/207 200/200/200
f 219/219/219 220/220/220 207/207/207
f 201/201/201 451/451/451 466/466/466
f 451/451/451 201/201/201 194/194/194
f 461/461/461 466/466/466 451/451/451
f 194/194/194 444/444/444 451/451/451
f 450/450/450 461/461/461 451/451/451
f 450/450/450 451/451/451 444/444/444
f 461/461/461 450/450/450 460/460/460
f 459/459/459 460/460/460 450/450/450
f 444/444/444 443/443/443 450/450/450
f 443/443/443 444/444/444 434/434/434
f 449/449/449 459/459/459 450/450/450
f 449/449/449 450/450/450 443/443/443
f 459/459/459 449/449/449 458/458/458
f 457/457/457 458/458/458 449/449/449
f 434/434/434 432/432/432 443/443/443
f 435/435/435 432/432/432 434/434/434
f 443/443/443 442/442/442 449/449/449
f 442/442/442 443/443/443 432/432/432
f 448/448/448 457/457/457 449/449/449
f 448/448/448 449/449/449 442/442/442
f 457/457/457 448/448/448 456/456/456
f 455/455/455 456/456/456 448/448/448
f 432/432/432 430/430/430 442/442/442
f 433/433/433 430/430/430 432/432/432
f 442/442/442 441/441/441 448/448/448
f 441/441/441 442/442/442 430/430/430
f 447/447/447 455/455/455 448/448/448
f 447/447/447 448/448/448 441/441/441
f 455/455/455 447/447/447 454/454/454
f 465/465/465 454/454/454 447/447/447
f 430/430/430 428/428/428 441/441/441
f 431/431/431 428/428/428 430/430/430
f 441/441/441 440/440/440 447/447/447
f 440/440/440 441/441/441 428/428/428
f 453/453/453 465/465/465 447/447/447
f 453/453/453 447/447/447 440/440/440
f 465/465/465 453/453/453 464/464/464
f 463/463/463 464/464/464 453/453/453
f 428/428/428 429/429/429 440/440/440
f 429/429/429 428/428/428 427/427/427
f 440/440/440 446/446/446 453/453/453
f 446/446/446 440/440/440 429/429/429
f 452/452/452 463/463/463 453/453/453
f 452/452/452 453/453/453 446/446/446
f 463/463/463 452/452/452 462/462/462
f 462/462/462 452/452/452 220/220/220
f 207/207/207 220/220/220 452/452/452
f 429/429/429 436/436/436 446/446/446
f 439/439/439 436/436/436 429/429/429
f 446/446/446 445/445/445 452/452/452
f 452/452/452 445/445/445 207/207/207
f 445/445/445 446/446/446 436/436/436
f 200/200/200 207/207/207 445/445/445
f 445/445/445 437/437/437 200/200/200
f 436/436/436 437/437/437 445/445/445
f 438/438/438 437/437/437 436/436/436
f 223/223/223 222/222/222 221/221/221
f 221/221/221 224/224/224 223/223/223
f 221/221/221 222/222/222 492/492/492
f 226/226/226 223/223/223 224/224/224
f 491/491/491 492/492/492 222/222/222
f 224/224/224 225/225/225 226/226/226
f 482/482/482 492/492/492 491/491/491
f 227/227/227 226/226/226 225/225/225
f 491/491/491 481/481/481 482/482/482
f 225/225/225 228/228/228 227/227/227
f 479/479/479 482/482/482 481/481/481
f 230/230/230 227/227/227 228/228/228
f 481/481/481 480/480/480 479/479/479
f 228/228/228 229/229/229 230/230/230
f 478/478/478 479/479/479 480/480/480
f 231/231/231 230/230/230 229/229/229
f 480/480/480 477/477/477 478/478/478
f 229/229/229 232/232/232 231/231/231
f 475/475/475 478/478/478 477/477/477
f 234/234/234 231/231/231 232/232/232
f 477/477/477 476/476/476 475/475/475
f 232/232/232 233/233/233 234/234/234
f 474/474/474 475/475/475 476/476/476
f 235/235/235 234/234/234 233/233/233
f 476/476/476 473/473/473 474/474/474
f 233/233/233 236/236/236 235/235/235
f 471/471/471 474/474/474 473/473/473
f 238/238/238 235/235/235 236/236/236
f 473/473/473 472/472/472 471/471/471
f 236/236/236 237/237/237 238/238/238
f 470/470/470 471/471/471 472/472/472
f 239/239/239 238/238/238 237/237/237
f 472/472/472 469/469/469 470/470/470
f 237/237/237 240/240/240 239/239/239
f 467/467/467 470/470/470 469/469/469
f 242/242/242 239/239/239 240/240/240
f 469/469/469 468/468/468 467/467/467
f 240/240/240 241/241/241 242/242/242
f 490/490/490 467/467/467 468/468/468
f 243/243/243 242/242/242 241/241/241
f 468/468/468 489/489/489 490/490/490
f 241/241/241 244/244/244 243/243/243
f 487/487/487 490/490/490 489/489/489
f 245/245/245 243/243/243 244/244/244
f 489/489/489 488/488/488 487/487/487
f 244/244/244 246/246/246 245/245/245
f 486/486/486 487/487/487 488/488/488
f 484/484/484 245/245/245 246/246/246
f 488/488/488 485/485/485 486/486/486
f 246/246/246 483/483/483 484/484/484
f 483/483/483 486/486/486 485/485/485
f 485/485/485 484/484/484 483/483/483
f 263/263/263 262/262/262 261/261/261
f 262/262/262 264/264/264 261/261/261
f 267/267/267 266/266/266 265/265/265
f 266/266/266 268/268/268 265/265/265
f 271/271/271 270/270/270 269/269/269
f 269/269/269 270/270/270 272/272/272
f 275/275/275 274/274/274 273/273/273
f 274/274/274 276/276/276 273/273/273
f 279/279/279 278/278/278 277/277/277
f 280/280/280 279/279/279 277/277/277
f 297/297/297 296/296/296 295/295/295
f 300/300/300 299/299/299 298/298/298
f 303/303/303 302/302/302 301/301/301
f 306/306/306 305/305/305 304/304/304
f 309/309/309 308/308/308 307/307/307
f 312/312/312 311/311/311 310/310/310
f 344/344/344 343/343/343 342/342/342
f 345/345/345 342/342/342 343/343/343
f 348/348/348 347/347/347 346/346/346
f 349/349/349 346/346/346 347/347/347
f 352/352/352 351/351/351 350/350/350
f 353/353/353 350/350/350 351/351/351
f 356/356/356 355/355/355 354/354/354
f 357/357/357 354/354/354 355/355/355
f 360/360/360 359/359/359 358/358/358
f 361/361/361 358/358/358 359/359/359
f 367/367/367 366/366/366 365/365/365
f 370/370/370 369/369/369 368/368/368
f 373/373/373 372/372/372 371/371/371
f 376/376/376 375/375/375 374/374/374
f 379/379/379 378/378/378 377/377/377
f 382/382/382 381/381/381 380/380/380
f 385/385/385 384/384/384 383/383/383
f 384/384/384 419/419/419 383/383/383
f 388/388/388 387/387/387 386/386/386
f 391/391/391 390/390/390 389/389/389
f 390/390/390 420/420/420 389/389/389
f 394/394/394 393/393/393 392/392/392
f 397/397/397 396/396/396 395/395/395
f 395/395/395 421/421/421 397/397/397
f 400/400/400 399/399/399 398/398/398
f 406/406/406 405/405/405 404/404/404
f 409/409/409 408/408/408 407/407/407
f 408/408/408 425/425/425 407/407/407
f 412/412/412 411/411/411 410/410/410
f 415/415/415 414/414/414 413/413/413
f 414/414/414 426/426/426 413/413/413
f 418/418/418 417/417/417 416/416/416
