# VPXTOOL table OBJ file
# VPXTOOL OBJ file
# numVerts: 480 numFaces: 336
o PegPlasticT50
v -0 0.5945 -0.071326
v -0 0.5565 -0.071326
v 0.035673 0.5565 -0.06177
v 0.035673 0.5945 -0.06177
v 0.061788 0.5565 -0.035663
v 0.061788 0.5945 -0.035663
v 0.071347 0.5565 -0
v 0.071347 0.5945 -0
v 0.061788 0.5565 0.035663
v 0.061788 0.5945 0.035663
v 0.035673 0.5565 0.06177
v 0.035673 0.5945 0.06177
v -0 0.5565 0.071326
v -0 0.5945 0.071326
v -0.035673 0.5565 0.06177
v -0.035673 0.5945 0.06177
v -0.061788 0.5565 0.035663
v -0.061788 0.5945 0.035663
v -0.071347 0.5565 0
v -0.071347 0.5945 0
v -0.061788 0.5565 -0.035663
v -0.061788 0.5945 -0.035663
v -0.035673 0.5565 -0.06177
v -0.035673 0.5945 -0.06177
v -0 0.5565 -0.071326
v -0.061788 0.5565 -0.035663
v -0.105457 0.38835 -0.060868
v -0.086103 0.39785 -0.086078
v -0.117619 0.39785 -0.031507
v -0.071347 0.5565 0
v -0.121771 0.38835 -0
v -0.117619 0.39785 -0.031507
v -0.117619 0.39785 0.031507
v -0.061788 0.5565 0.035663
v -0.105457 0.38835 0.060868
v -0.117619 0.39785 0.031507
v -0.086103 0.39785 0.086078
v -0.035673 0.5565 0.06177
v -0.060885 0.38835 0.105426
v -0.086103 0.39785 0.086078
v -0.031516 0.39785 0.117585
v -0.035673 0.5565 -0.06177
v -0.086103 0.39785 -0.086078
v -0.060885 0.38835 -0.105426
v -0.031516 0.39785 -0.117585
v 0.071347 0.5565 -0
v 0.121771 0.38835 -0
v 0.117619 0.39785 0.031507
v 0.117619 0.39785 -0.031507
v 0.061788 0.5565 -0.035663
v 0.105457 0.38835 -0.060868
v 0.117619 0.39785 -0.031507
v 0.086103 0.39785 -0.086078
v 0.061788 0.5565 0.035663
v 0.117619 0.39785 0.031507
v 0.105457 0.38835 0.060867
v 0.086103 0.39785 0.086078
v 0.035673 0.5565 0.06177
v 0.086103 0.39785 0.086078
v 0.060885 0.38835 0.105426
v 0.031516 0.39785 0.117585
v 0.035673 0.5565 -0.06177
v 0.060885 0.38835 -0.105426
v 0.086103 0.39785 -0.086078
v 0.031516 0.39785 -0.117585
v -0 0.5565 0.071326
v -0 0.38835 0.121735
v -0.031516 0.39785 0.117585
v 0.031516 0.39785 0.117585
v -0 0.5565 -0.071326
v -0 0.38835 -0.121735
v 0.031516 0.39785 -0.117585
v -0.031516 0.39785 -0.117585
v -0 0.5945 0
v -0 0.5945 -0.071326
v 0.035673 0.5945 -0.06177
v -0 0.5945 0
v 0.061788 0.5945 -0.035663
v -0 0.5945 0
v 0.071347 0.5945 -0
v -0 0.5945 0
v 0.061788 0.5945 0.035663
v -0 0.5945 0
v 0.035673 0.5945 0.06177
v -0 0.5945 0
v -0 0.5945 0.071326
v -0 0.5945 0
v -0.035673 0.5945 0.06177
v -0 0.5945 0
v -0.061788 0.5945 0.035663
v -0 0.5945 0
v -0.071347 0.5945 0
v -0 0.5945 0
v -0.061788 0.5945 -0.035663
v -0 0.5945 0
v -0.035673 0.5945 -0.06177
v -0 0.5945 0
v -0.117619 0.39785 -0.031507
v -0.061788 0.5565 -0.035663
v -0.071347 0.5565 0
v -0.086103 0.39785 -0.086078
v -0.035673 0.5565 -0.06177
v -0.061788 0.5565 -0.035663
v -0 0.5565 -0.071326
v -0.035673 0.5565 -0.06177
v -0.031516 0.39785 -0.117585
v 0.035673 0.5565 -0.06177
v -0 0.5565 -0.071326
v 0.031516 0.39785 -0.117585
v 0.086103 0.39785 -0.086078
v 0.061788 0.5565 -0.035663
v 0.035673 0.5565 -0.06177
v 0.117619 0.39785 -0.031507
v 0.071347 0.5565 -0
v 0.061788 0.5565 -0.035663
v 0.117619 0.39785 0.031507
v 0.061788 0.5565 0.035663
v 0.071347 0.5565 -0
v 0.086103 0.39785 0.086078
v 0.035673 0.5565 0.06177
v 0.061788 0.5565 0.035663
v 0.031516 0.39785 0.117585
v -0 0.5565 0.071326
v 0.035673 0.5565 0.06177
v -0.031516 0.39785 0.117585
v -0.035673 0.5565 0.06177
v -0 0.5565 0.071326
v -0.086103 0.39785 0.086078
v -0.061788 0.5565 0.035663
v -0.035673 0.5565 0.06177
v -0.117619 0.39785 0.031507
v -0.071347 0.5565 0
v -0.061788 0.5565 0.035663
v 0.044258 0.0055 -0.165125
v 0.044258 0.0188 -0.165125
v 0 0.02545 -0.17095
v 0 0.0055 -0.17095
v 0.0855 0.0055 -0.148047
v 0.0855 0.02545 -0.148047
v 0.120915 0.0055 -0.12088
v 0.120915 0.0188 -0.12088
v 0.14809 0.0055 -0.085475
v 0.14809 0.02545 -0.085475
v 0.165173 0.0055 -0.044245
v 0.165173 0.0188 -0.044245
v 0.171 0.0055 0
v 0.171 0.02545 0
v 0.165173 0.0055 0.044245
v 0.165173 0.0188 0.044245
v 0.14809 0.0055 0.085475
v 0.14809 0.02545 0.085475
v 0.120915 0.0055 0.12088
v 0.120915 0.0188 0.12088
v 0.0855 0.0055 0.148047
v 0.0855 0.02545 0.148047
v 0.044258 0.0055 0.165125
v 0.044258 0.0188 0.165125
v 0 0.0055 0.17095
v 0 0.02545 0.17095
v -0.044258 0.0055 0.165125
v -0.044258 0.0188 0.165125
v -0.0855 0.0055 0.148047
v -0.0855 0.02545 0.148047
v -0.120915 0.0055 0.12088
v -0.120915 0.0188 0.12088
v -0.14809 0.0055 0.085475
v -0.14809 0.02545 0.085475
v -0.165173 0.0055 0.044245
v -0.165173 0.0188 0.044245
v -0.171 0.0055 0
v -0.171 0.02545 0
v -0.165173 0.0055 -0.044245
v -0.165173 0.0188 -0.044245
v -0.14809 0.0055 -0.085475
v -0.14809 0.02545 -0.085475
v -0.120915 0.0055 -0.12088
v -0.120915 0.0188 -0.12088
v -0.0855 0.0055 -0.148047
v -0.0855 0.02545 -0.148047
v -0.044258 0.0055 -0.165125
v -0.044258 0.0188 -0.165125
v 0 0.02545 -0.17095
v 0 0.034 -0.156704
v 0 0.02545 -0.17095
v 0.044258 0.0188 -0.165125
v 0.0855 0.02545 -0.148047
v 0.078375 0.034 -0.13571
v 0.078375 0.034 -0.13571
v 0.0855 0.02545 -0.148047
v 0.120915 0.0188 -0.12088
v 0.14809 0.02545 -0.085475
v 0.135749 0.034 -0.078352
v 0.135749 0.034 -0.078352
v 0.14809 0.02545 -0.085475
v 0.165173 0.0188 -0.044245
v 0.171 0.02545 0
v 0.15675 0.034 0
v 0.15675 0.034 0
v 0.171 0.02545 0
v 0.165173 0.0188 0.044245
v 0.14809 0.02545 0.085475
v 0.135749 0.034 0.078352
v 0.135749 0.034 0.078352
v 0.14809 0.02545 0.085475
v 0.120915 0.0188 0.12088
v 0.0855 0.02545 0.148047
v 0.078375 0.034 0.13571
v 0.078375 0.034 0.13571
v 0.0855 0.02545 0.148047
v 0.044258 0.0188 0.165125
v 0 0.02545 0.17095
v 0 0.034 0.156704
v 0 0.034 0.156704
v 0 0.02545 0.17095
v -0.044258 0.0188 0.165125
v -0.0855 0.02545 0.148047
v -0.078375 0.034 0.13571
v -0.078375 0.034 0.13571
v -0.0855 0.02545 0.148047
v -0.120915 0.0188 0.12088
v -0.14809 0.02545 0.085475
v -0.135749 0.034 0.078352
v -0.135749 0.034 0.078352
v -0.14809 0.02545 0.085475
v -0.165173 0.0188 0.044245
v -0.171 0.02545 0
v -0.15675 0.034 0
v -0.15675 0.034 0
v -0.171 0.02545 0
v -0.165173 0.0188 -0.044245
v -0.14809 0.02545 -0.085475
v -0.135749 0.034 -0.078352
v -0.135749 0.034 -0.078352
v -0.14809 0.02545 -0.085475
v -0.120915 0.0188 -0.12088
v -0.0855 0.02545 -0.148047
v -0.078375 0.034 -0.13571
v -0.078375 0.034 -0.13571
v -0.0855 0.02545 -0.148047
v -0.044258 0.0188 -0.165125
v 0 0.02545 -0.17095
v 0 0.034 -0.156704
v -0.135749 0.034 -0.078352
v -0.15675 0.034 0
v -0.165173 0.0188 -0.044245
v -0.078375 0.034 -0.13571
v -0.135749 0.034 -0.078352
v -0.120915 0.0188 -0.12088
v -0.044258 0.0188 -0.165125
v -0.078375 0.034 -0.13571
v 0.078375 0.034 -0.13571
v 0.044258 0.0188 -0.165125
v 0.135749 0.034 -0.078352
v 0.078375 0.034 -0.13571
v 0.120915 0.0188 -0.12088
v 0.15675 0.034 0
v 0.135749 0.034 -0.078352
v 0.165173 0.0188 -0.044245
v 0.135749 0.034 0.078352
v 0.15675 0.034 0
v 0.165173 0.0188 0.044245
v 0.078375 0.034 0.13571
v 0.135749 0.034 0.078352
v 0.120915 0.0188 0.12088
v 0 0.034 0.156704
v 0.078375 0.034 0.13571
v 0.044258 0.0188 0.165125
v -0.078375 0.034 0.13571
v 0 0.034 0.156704
v -0.044258 0.0188 0.165125
v -0.135749 0.034 0.078352
v -0.078375 0.034 0.13571
v -0.120915 0.0188 0.12088
v -0.15675 0.034 0
v -0.135749 0.034 0.078352
v -0.165173 0.0188 0.044245
v -0.15675 0.034 0
v -0.13039 0.2715 -0
v -0.13039 0.2715 0.034928
v -0.13039 0.2715 -0.034928
v -0.15675 0.034 0
v -0.135749 0.034 -0.078352
v -0.135749 0.034 -0.078352
v -0.112921 0.2715 -0.065176
v -0.13039 0.2715 -0.034928
v -0.095452 0.2715 -0.095424
v -0.135749 0.034 -0.078352
v -0.078375 0.034 -0.13571
v -0.065195 0.2715 -0.112888
v -0.095452 0.2715 -0.095424
v -0.078375 0.034 -0.13571
v -0.078375 0.034 -0.13571
v 0 0.034 -0.156704
v -0.034938 0.2715 -0.130352
v -0 0.2715 -0.130352
v -0.034938 0.2715 -0.130352
v 0 0.034 -0.156704
v 0.034938 0.2715 -0.130352
v 0 0.034 -0.156704
v 0.078375 0.034 -0.13571
v 0.078375 0.034 -0.13571
v 0.065195 0.2715 -0.112888
v 0.034938 0.2715 -0.130352
v 0.095452 0.2715 -0.095424
v 0.078375 0.034 -0.13571
v 0.135749 0.034 -0.078352
v 0.135749 0.034 -0.078352
v 0.112921 0.2715 -0.065176
v 0.095452 0.2715 -0.095424
v 0.13039 0.2715 -0.034928
v 0.135749 0.034 -0.078352
v 0.15675 0.034 0
v 0.15675 0.034 0
v 0.13039 0.2715 -0
v 0.13039 0.2715 -0.034928
v 0.13039 0.2715 0.034928
v 0.15675 0.034 0
v 0.135749 0.034 0.078352
v 0.135749 0.034 0.078352
v 0.112921 0.2715 0.065176
v 0.13039 0.2715 0.034928
v 0.095452 0.2715 0.095424
v 0.135749 0.034 0.078352
v 0.078375 0.034 0.13571
v 0.078375 0.034 0.13571
v 0.065195 0.2715 0.112888
v 0.095452 0.2715 0.095424
v 0.034938 0.2715 0.130352
v 0.078375 0.034 0.13571
v 0 0.034 0.156704
v 0 0.034 0.156704
v -0 0.2715 0.130352
v 0.034938 0.2715 0.130352
v -0.034938 0.2715 0.130352
v 0 0.034 0.156704
v -0.078375 0.034 0.13571
v -0.078375 0.034 0.13571
v -0.065195 0.2715 0.112888
v -0.034938 0.2715 0.130352
v -0.095452 0.2715 0.095424
v -0.078375 0.034 0.13571
v -0.135749 0.034 0.078352
v -0.135749 0.034 0.078352
v -0.112921 0.2715 0.065176
v -0.095452 0.2715 0.095424
v -0.13039 0.2715 0.034928
v -0.135749 0.034 0.078352
v -0.15675 0.034 0
v -0.13039 0.2715 -0.034928
v -0.095452 0.2715 -0.095424
v -0.034938 0.2715 -0.130352
v 0.034938 0.2715 -0.130352
v 0.095452 0.2715 -0.095424
v 0.13039 0.2715 -0.034928
v 0.13039 0.2715 0.034928
v 0.095452 0.2715 0.095424
v 0.034938 0.2715 0.130352
v -0.034938 0.2715 0.130352
v -0.095452 0.2715 0.095424
v -0.13039 0.2715 0.034928
v -0.13039 0.2715 0.034928
v -0.13039 0.2715 -0
v -0.112921 0.2715 0.065176
v -0.112921 0.2715 -0.065176
v -0.13039 0.2715 -0.034928
v -0.065195 0.2715 -0.112888
v -0.095452 0.2715 -0.095424
v -0 0.2715 -0.130352
v -0.034938 0.2715 -0.130352
v 0.065195 0.2715 -0.112888
v 0.034938 0.2715 -0.130352
v 0.112921 0.2715 -0.065176
v 0.095452 0.2715 -0.095424
v 0.13039 0.2715 -0
v 0.13039 0.2715 -0.034928
v 0.112921 0.2715 0.065176
v 0.13039 0.2715 0.034928
v 0.065195 0.2715 0.112888
v 0.095452 0.2715 0.095424
v -0 0.2715 0.130352
v 0.034938 0.2715 0.130352
v -0.065195 0.2715 0.112888
v -0.034938 0.2715 0.130352
v -0.095452 0.2715 0.095424
v -0.079045 0.3 0.045623
v -0.091273 0.3 -0
v -0.079045 0.3 -0.045623
v -0.045637 0.3 -0.079022
v -0 0.3 -0.091246
v 0.045637 0.3 -0.079022
v 0.079045 0.3 -0.045623
v 0.091273 0.3 -0
v 0.079045 0.3 0.045623
v 0.045637 0.3 0.079022
v -0 0.3 0.091246
v -0.045637 0.3 0.079022
v -0.079045 0.3342 0.045623
v -0.091273 0.3342 -0
v -0.079045 0.3342 -0.045623
v -0.045637 0.3342 -0.079022
v -0 0.3342 -0.091246
v 0.045637 0.3342 -0.079022
v 0.079045 0.3342 -0.045623
v 0.091273 0.3342 -0
v 0.079045 0.3342 0.045623
v 0.045637 0.3342 0.079022
v -0 0.3342 0.091246
v -0.045637 0.3342 0.079022
v -0.105457 0.3627 0.060868
v -0.117619 0.3627 0.031507
v -0.121771 0.3627 -0
v -0.117619 0.3627 -0.031507
v -0.105457 0.3627 -0.060868
v -0.086103 0.3627 -0.086078
v -0.060885 0.3627 -0.105426
v -0.031516 0.3627 -0.117585
v -0 0.3627 -0.121735
v 0.031516 0.3627 -0.117585
v 0.060885 0.3627 -0.105426
v 0.086103 0.3627 -0.086078
v 0.105457 0.3627 -0.060868
v 0.117619 0.3627 -0.031507
v 0.121771 0.3627 -0
v 0.117619 0.3627 0.031507
v 0.105457 0.3627 0.060867
v 0.086103 0.3627 0.086078
v 0.060885 0.3627 0.105426
v 0.031516 0.3627 0.117585
v -0 0.3627 0.121735
v -0.031516 0.3627 0.117585
v -0.060885 0.3627 0.105426
v -0.086103 0.3627 0.086078
v -0.105457 0.38835 0.060868
v -0.105457 0.3627 0.060868
v -0.117619 0.3627 0.031507
v -0.117619 0.39785 0.031507
v -0.121771 0.38835 -0
v -0.121771 0.3627 -0
v -0.117619 0.3627 -0.031507
v -0.117619 0.39785 -0.031507
v -0.105457 0.38835 -0.060868
v -0.105457 0.3627 -0.060868
v -0.086103 0.3627 -0.086078
v -0.086103 0.39785 -0.086078
v -0.060885 0.38835 -0.105426
v -0.060885 0.3627 -0.105426
v -0.031516 0.3627 -0.117585
v -0.031516 0.39785 -0.117585
v -0 0.38835 -0.121735
v -0 0.3627 -0.121735
v 0.031516 0.3627 -0.117585
v 0.031516 0.39785 -0.117585
v 0.060885 0.38835 -0.105426
v 0.060885 0.3627 -0.105426
v 0.086103 0.3627 -0.086078
v 0.086103 0.39785 -0.086078
v 0.105457 0.38835 -0.060868
v 0.105457 0.3627 -0.060868
v 0.117619 0.3627 -0.031507
v 0.117619 0.39785 -0.031507
v 0.121771 0.38835 -0
v 0.121771 0.3627 -0
v 0.117619 0.3627 0.031507
v 0.117619 0.39785 0.031507
v 0.105457 0.38835 0.060867
v 0.105457 0.3627 0.060867
v 0.086103 0.3627 0.086078
v 0.086103 0.39785 0.086078
v 0.060885 0.38835 0.105426
v 0.060885 0.3627 0.105426
v 0.031516 0.3627 0.117585
v 0.031516 0.39785 0.117585
v -0 0.38835 0.121735
v -0 0.3627 0.121735
v -0.031516 0.3627 0.117585
v -0.031516 0.39785 0.117585
v -0.060885 0.38835 0.105426
v -0.060885 0.3627 0.105426
v -0.086103 0.3627 0.086078
v -0.086103 0.39785 0.086078
vt 0 1
vt 0 1
vt 0.083333 1
vt 0.083333 1
vt 0.166667 1
vt 0.166667 1
vt 0.25 1
vt 0.25 1
vt 0.333333 1
vt 0.333333 1
vt 0.416667 1
vt 0.416667 1
vt 0.5 1
vt 0.5 1
vt 0.583333 1
vt 0.583333 1
vt 0.666667 1
vt 0.666667 1
vt 0.75 1
vt 0.75 1
vt 0.833333 1
vt 0.833333 1
vt 0.916667 1
vt 0.916667 1
vt 1 1
vt 0 1
vt 0 1
vt 0 1
vt 0 1
vt 0 1
vt 0 1
vt 0 1
vt 0 1
vt 0 1
vt 0 1
vt 0 1
vt 0 1
vt 0 1
vt 0 1
vt 0 1
vt 0 1
vt 0 1
vt 0 1
vt 0 1
vt 0 1
vt 0 1
vt 0 1
vt 0 1
vt 0 1
vt 0 1
vt 0 1
vt 0 1
vt 0 1
vt 0 1
vt 0 1
vt 0 1
vt 0 1
vt 0 1
vt 0 1
vt 0 1
vt 0 1
vt 0 1
vt 0 1
vt 0 1
vt 0 1
vt 0 1
vt 0 1
vt 0 1
vt 0 1
vt 0 1
vt 0 1
vt 0 1
vt 0 1
vt 0 1
vt 0 1
vt 0.083333 1
vt 0.083333 1
vt 0.166667 1
vt 0.166667 1
vt 0.25 1
vt 0.25 1
vt 0.333333 1
vt 0.333333 1
vt 0.416667 1
vt 0.416667 1
vt 0.5 1
vt 0.5 1
vt 0.583333 1
vt 0.583333 1
vt 0.666667 1
vt 0.666667 1
vt 0.75 1
vt 0.75 1
vt 0.833333 1
vt 0.833333 1
vt 0.916667 1
vt 0.916667 1
vt 0 1
vt 0 1
vt 0 1
vt 0 1
vt 0 1
vt 0 1
vt 0 1
vt 0 1
vt 0 1
vt 0 1
vt 0 1
vt 0 1
vt 0 1
vt 0 1
vt 0 1
vt 0 1
vt 0 1
vt 0 1
vt 0 1
vt 0 1
vt 0 1
vt 0 1
vt 0 1
vt 0 1
vt 0 1
vt 0 1
vt 0 1
vt 0 1
vt 0 1
vt 0 1
vt 0 1
vt 0 1
vt 0 1
vt 0 1
vt 0 1
vt 0 1
vt 0.041667 1
vt 0.041667 1
vt 0 1
vt 0 1
vt 0.083333 1
vt 0.083333 1
vt 0.125 1
vt 0.125 1
vt 0.166667 1
vt 0.166667 1
vt 0.208333 1
vt 0.208333 1
vt 0.25 1
vt 0.25 1
vt 0.291667 1
vt 0.291667 1
vt 0.333333 1
vt 0.333333 1
vt 0.375 1
vt 0.375 1
vt 0.416667 1
vt 0.416667 1
vt 0.458333 1
vt 0.458333 1
vt 0.5 1
vt 0.5 1
vt 0.541667 1
vt 0.541667 1
vt 0.583333 1
vt 0.583333 1
vt 0.625 1
vt 0.625 1
vt 0.666667 1
vt 0.666667 1
vt 0.708333 1
vt 0.708333 1
vt 0.75 1
vt 0.75 1
vt 0.791667 1
vt 0.791667 1
vt 0.833333 1
vt 0.833333 1
vt 0.875 1
vt 0.875 1
vt 0.916667 1
vt 0.916667 1
vt 0.958333 1
vt 0.958333 1
vt 1 1
vt 0 1
vt 0 1
vt 0.041667 1
vt 0.083333 1
vt 0.083333 1
vt 0.083333 1
vt 0.083333 1
vt 0.125 1
vt 0.166667 1
vt 0.166667 1
vt 0.166667 1
vt 0.166667 1
vt 0.208333 1
vt 0.25 1
vt 0.25 1
vt 0.25 1
vt 0.25 1
vt 0.291667 1
vt 0.333333 1
vt 0.333333 1
vt 0.333333 1
vt 0.333333 1
vt 0.375 1
vt 0.416667 1
vt 0.416667 1
vt 0.416667 1
vt 0.416667 1
vt 0.458333 1
vt 0.5 1
vt 0.5 1
vt 0.5 1
vt 0.5 1
vt 0.541667 1
vt 0.583333 1
vt 0.583333 1
vt 0.583333 1
vt 0.583333 1
vt 0.625 1
vt 0.666667 1
vt 0.666667 1
vt 0.666667 1
vt 0.666667 1
vt 0.708333 1
vt 0.75 1
vt 0.75 1
vt 0.75 1
vt 0.75 1
vt 0.791667 1
vt 0.833333 1
vt 0.833333 1
vt 0.833333 1
vt 0.833333 1
vt 0.875 1
vt 0.916667 1
vt 0.916667 1
vt 0.916667 1
vt 0.916667 1
vt 0.958333 1
vt 1 1
vt 0 1
vt 0 1
vt 0 1
vt 0 1
vt 0 1
vt 0 1
vt 0 1
vt 0 1
vt 0 1
vt 0 1
vt 0 1
vt 0 1
vt 0 1
vt 0 1
vt 0 1
vt 0 1
vt 0 1
vt 0 1
vt 0 1
vt 0 1
vt 0 1
vt 0 1
vt 0 1
vt 0 1
vt 0 1
vt 0 1
vt 0 1
vt 0 1
vt 0 1
vt 0 1
vt 0 1
vt 0 1
vt 0 1
vt 0 1
vt 0 1
vt 0 1
vt 0 1
vt 0 1
vt 0 1
vt 0 1
vt 0 1
vt 0 1
vt 0 1
vt 0 1
vt 0 1
vt 0 1
vt 0 1
vt 0 1
vt 0 1
vt 0 1
vt 0 1
vt 0 1
vt 0 1
vt 0 1
vt 0 1
vt 0 1
vt 0 1
vt 0 1
vt 0 1
vt 0 1
vt 0 1
vt 0 1
vt 0 1
vt 0 1
vt 0 1
vt 0 1
vt 0 1
vt 0 1
vt 0 1
vt 0 1
vt 0 1
vt 0 1
vt 0 1
vt 0 1
vt 0 1
vt 0 1
vt 0 1
vt 0 1
vt 0 1
vt 0 1
vt 0 1
vt 0 1
vt 0 1
vt 0 1
vt 0 1
vt 0 1
vt 0 1
vt 0 1
vt 0 1
vt 0 1
vt 0 1
vt 0 1
vt 0 1
vt 0 1
vt 0 1
vt 0 1
vt 0 1
vt 0 1
vt 0 1
vt 0 1
vt 0 1
vt 0 1
vt 0 1
vt 0 1
vt 0 1
vt 0 1
vt 0 1
vt 0 1
vt 0 1
vt 0 1
vt 0 1
vt 0 1
vt 0 1
vt 0 1
vt 0 1
vt 0 1
vt 0 1
vt 0 1
vt 0 1
vt 0 1
vt 0 1
vt 0 1
vt 0 1
vt 0 1
vt 0 1
vt 0 1
vt 0 1
vt 0 1
vt 0 1
vt 0 1
vt 0 1
vt 0 1
vt 0 1
vt 0 1
vt 0 1
vt 0 1
vt 0 1
vt 0 1
vt 0 1
vt 0 1
vt 0 1
vt 0 1
vt 0 1
vt 0 1
vt 0 1
vt 0 1
vt 0 1
vt 0 1
vt 0 1
vt 0 1
vt 0 1
vt 0 1
vt 0 1
vt 0 1
vt 0 1
vt 0 1
vt 0 1
vt 0 1
vt 0 1
vt 0 1
vt 0 1
vt 0 1
vt 0 1
vt 0 1
vt 0 1
vt 0 1
vt 0 1
vt 0 1
vt 0 1
vt 0 1
vt 0 1
vt 0 1
vt 0 1
vt 0 1
vt 0 1
vt 0 1
vt 0 1
vt 0 1
vt 0 1
vt 0 1
vt 0 1
vt 0 1
vt 0 1
vt 0 1
vt 0 1
vt 0 1
vt 0 1
vt 0 1
vt 0 1
vt 0 1
vt 0 1
vt 0 1
vt 0 1
vt 0 1
vt 0 1
vt 0 1
vt 0 1
vt 0 1
vt 0 1
vt 0 1
vt 0 1
vt 0 1
vt 0 1
vt 0 1
vt 0 1
vt 0 1
vt 0 1
vt 0 1
vt 0 1
vt 0 1
vt 0 1
vt 0 1
vt 0 1
vt 0 1
vt 0 1
vt 0 1
vt 0 1
vt 0 1
vt 0 1
vt 0 1
vt 0 1
vt 0 1
vt 0 1
vt 0 1
vt 0 1
vt 0 1
vt 0 1
vt 0 1
vt 0 1
vt 0 1
vt 0 1
vt 0 1
vt 0 1
vt 0 1
vt 0 1
vt 0 1
vt 0 1
vt 0 1
vt 0 1
vn 0 0 -1
vn 0 0 -1
vn 0.499893 0 -0.866054
vn 0.499893 0 -0.866054
vn 0.865963 0 -0.500076
vn 0.865963 0 -0.500076
vn 0.999969 0 0
vn 1 0 0
vn 0.865963 0 0.500076
vn 0.865963 0 0.500076
vn 0.499893 0 0.866054
vn 0.499893 0 0.866054
vn 0 0 1
vn 0 0 1
vn -0.499893 0 0.866054
vn -0.499893 0 0.866054
vn -0.865963 0 0.500076
vn -0.865963 0 0.500076
vn -0.999969 0 0
vn -1 0 0
vn -0.865963 0 -0.500076
vn -0.865963 0 -0.500076
vn -0.499893 0 -0.866054
vn -0.499893 0 -0.866054
vn 0 0 -1
vn -0.829463 0.28721 -0.479019
vn -0.829463 0.28721 -0.479019
vn -0.809015 0.286966 -0.512925
vn -0.848598 0.286996 -0.44438
vn -0.957854 0.28721 0
vn -0.957854 0.28721 0
vn -0.957091 0.286996 -0.039552
vn -0.957091 0.286996 0.039552
vn -0.829463 0.28721 0.479019
vn -0.829463 0.28721 0.479019
vn -0.848598 0.286996 0.44438
vn -0.809015 0.286966 0.512925
vn -0.478805 0.287179 0.829585
vn -0.478805 0.287179 0.829585
vn -0.512711 0.286935 0.809168
vn -0.444197 0.286935 0.84872
vn -0.478805 0.287179 -0.829585
vn -0.512711 0.286935 -0.809168
vn -0.478805 0.287179 -0.829585
vn -0.444197 0.286935 -0.84872
vn 0.957854 0.28721 0
vn 0.957854 0.28721 0
vn 0.957091 0.286996 0.039552
vn 0.957091 0.286996 -0.039552
vn 0.829463 0.28721 -0.479019
vn 0.829463 0.28721 -0.479019
vn 0.848598 0.286996 -0.44438
vn 0.809015 0.286966 -0.512925
vn 0.829463 0.28721 0.479019
vn 0.848598 0.286996 0.44438
vn 0.829463 0.28721 0.479019
vn 0.809015 0.286966 0.512925
vn 0.478805 0.287179 0.829585
vn 0.512711 0.286935 0.809168
vn 0.478805 0.287179 0.829585
vn 0.444197 0.286935 0.84872
vn 0.478805 0.287179 -0.829585
vn 0.478805 0.287179 -0.829585
vn 0.512711 0.286935 -0.809168
vn 0.444197 0.286935 -0.84872
vn 0 0.287149 0.957854
vn 0 0.287149 0.957854
vn -0.039521 0.286935 0.957121
vn 0.039521 0.286935 0.957121
vn 0 0.287149 -0.957854
vn 0 0.287149 -0.957854
vn 0.039521 0.286935 -0.957121
vn -0.039521 0.286935 -0.957121
vn 0 1 0
vn 0 1 0
vn 0 1 0
vn 0 1 0
vn 0 1 0
vn 0 1 0
vn 0 1 0
vn 0 1 0
vn 0 1 0
vn 0 1 0
vn 0 1 0
vn 0 1 0
vn 0 1 0
vn 0 1 0
vn 0 1 0
vn 0 1 0
vn 0 1 0
vn 0 1 0
vn 0 1 0
vn 0 1 0
vn 0 1 0
vn 0 1 0
vn 0 1 0
vn 0 1 0
vn -0.916379 0.31605 -0.245613
vn -0.916379 0.31605 -0.245613
vn -0.916379 0.31605 -0.245613
vn -0.670766 0.316019 -0.670949
vn -0.670766 0.316019 -0.670949
vn -0.670766 0.316019 -0.670949
vn -0.24546 0.315958 -0.91644
vn -0.24546 0.315958 -0.91644
vn -0.24546 0.315958 -0.91644
vn 0.24546 0.315958 -0.91644
vn 0.24546 0.315958 -0.91644
vn 0.24546 0.315958 -0.91644
vn 0.670766 0.316019 -0.670949
vn 0.670766 0.316019 -0.670949
vn 0.670766 0.316019 -0.670949
vn 0.916379 0.31605 -0.245613
vn 0.916379 0.31605 -0.245613
vn 0.916379 0.31605 -0.245613
vn 0.916379 0.31605 0.245613
vn 0.916379 0.31605 0.245613
vn 0.916379 0.31605 0.245613
vn 0.670766 0.316019 0.670949
vn 0.670766 0.316019 0.670949
vn 0.670766 0.316019 0.670949
vn 0.24546 0.315958 0.91644
vn 0.24546 0.315958 0.91644
vn 0.24546 0.315958 0.91644
vn -0.24546 0.315958 0.91644
vn -0.24546 0.315958 0.91644
vn -0.24546 0.315958 0.91644
vn -0.670766 0.316019 0.670949
vn -0.670766 0.316019 0.670949
vn -0.670766 0.316019 0.670949
vn -0.916379 0.31605 0.245613
vn -0.916379 0.31605 0.245613
vn -0.916379 0.31605 0.245613
vn 0.258736 0 -0.965941
vn 0.258736 0 -0.965941
vn 0 0 -1
vn 0 0 -1
vn 0.499893 0 -0.866085
vn 0.499863 0 -0.866085
vn 0.706992 0 -0.707205
vn 0.706992 0 -0.707205
vn 0.865963 0 -0.500076
vn 0.865963 0 -0.500107
vn 0.96588 0 -0.258858
vn 0.96588 0 -0.258858
vn 1 0 0
vn 1 0 0
vn 0.96588 0 0.258858
vn 0.96588 0 0.258858
vn 0.865963 0 0.500076
vn 0.865963 0 0.500107
vn 0.706992 0 0.707205
vn 0.706992 0 0.707205
vn 0.499893 0 0.866085
vn 0.499893 0 0.866085
vn 0.258736 0 0.965941
vn 0.258736 0 0.965941
vn 0 0 1
vn 0 0 1
vn -0.258736 0 0.965941
vn -0.258736 0 0.965941
vn -0.499893 0 0.866085
vn -0.499863 0 0.866085
vn -0.706992 0 0.707205
vn -0.706992 0 0.707205
vn -0.865963 0 0.500076
vn -0.865963 0 0.500107
vn -0.96588 0 0.258858
vn -0.96588 0 0.258858
vn -1 0 0
vn -1 0 0
vn -0.96588 0 -0.258858
vn -0.96588 0 -0.258858
vn -0.865963 0 -0.500076
vn -0.865963 0 -0.500107
vn -0.706992 0 -0.707205
vn -0.706992 0 -0.707205
vn -0.499893 0 -0.866085
vn -0.499893 0 -0.866085
vn -0.258736 0 -0.965941
vn -0.258736 0 -0.965941
vn 0 0 -1
vn 0.182623 0.826655 -0.532212
vn 0.192846 0.841304 -0.504929
vn 0.153752 0.804224 -0.574053
vn 0.08536 0.841304 -0.533738
vn 0.107852 0.826655 -0.552263
vn 0.424207 0.826685 -0.369579
vn 0.419446 0.841334 -0.340831
vn 0.420118 0.804254 -0.42024
vn 0.340739 0.841334 -0.419538
vn 0.369457 0.826685 -0.424329
vn 0.552141 0.826716 -0.107883
vn 0.533616 0.841365 -0.085391
vn 0.573931 0.804315 -0.153813
vn 0.504807 0.841365 -0.192938
vn 0.53209 0.826716 -0.182684
vn 0.53209 0.826716 0.182684
vn 0.504807 0.841365 0.192938
vn 0.573931 0.804315 0.153813
vn 0.533616 0.841365 0.085391
vn 0.552141 0.826716 0.107883
vn 0.369457 0.826685 0.424329
vn 0.340739 0.841334 0.419538
vn 0.420118 0.804254 0.42024
vn 0.419446 0.841334 0.340831
vn 0.424207 0.826685 0.369579
vn 0.107852 0.826655 0.552263
vn 0.08536 0.841304 0.533738
vn 0.153752 0.804224 0.574053
vn 0.192846 0.841304 0.504929
vn 0.182623 0.826655 0.532212
vn -0.182623 0.826655 0.532212
vn -0.192846 0.841304 0.504929
vn -0.153752 0.804224 0.574053
vn -0.08536 0.841304 0.533738
vn -0.107852 0.826655 0.552263
vn -0.424207 0.826685 0.369579
vn -0.419446 0.841334 0.340831
vn -0.420118 0.804254 0.42024
vn -0.340739 0.841334 0.419538
vn -0.369457 0.826685 0.424329
vn -0.552141 0.826716 0.107883
vn -0.533616 0.841365 0.085391
vn -0.573931 0.804315 0.153813
vn -0.504807 0.841365 0.192938
vn -0.53209 0.826716 0.182684
vn -0.53209 0.826716 -0.182684
vn -0.504807 0.841365 -0.192938
vn -0.573931 0.804315 -0.153813
vn -0.533616 0.841365 -0.085391
vn -0.552141 0.826716 -0.107883
vn -0.369457 0.826685 -0.424329
vn -0.340739 0.841334 -0.419538
vn -0.420118 0.804254 -0.42024
vn -0.419446 0.841334 -0.340831
vn -0.424207 0.826685 -0.369579
vn -0.107852 0.826655 -0.552263
vn -0.08536 0.841304 -0.533738
vn -0.153752 0.804224 -0.574053
vn -0.192846 0.841304 -0.504929
vn -0.182623 0.826655 -0.532212
vn -0.552141 0.826716 -0.107883
vn -0.53209 0.826716 -0.182684
vn -0.573931 0.804315 -0.153813
vn -0.424207 0.826685 -0.369579
vn -0.369457 0.826685 -0.424329
vn -0.420118 0.804254 -0.42024
vn -0.153752 0.804224 -0.574053
vn -0.107852 0.826655 -0.552263
vn 0.107852 0.826655 -0.552263
vn 0.153752 0.804224 -0.574053
vn 0.369457 0.826685 -0.424329
vn 0.424207 0.826685 -0.369579
vn 0.420118 0.804254 -0.42024
vn 0.53209 0.826716 -0.182684
vn 0.552141 0.826716 -0.107883
vn 0.573931 0.804315 -0.153813
vn 0.552141 0.826716 0.107883
vn 0.53209 0.826716 0.182684
vn 0.573931 0.804315 0.153813
vn 0.424207 0.826685 0.369579
vn 0.369457 0.826685 0.424329
vn 0.420118 0.804254 0.42024
vn 0.182623 0.826655 0.532212
vn 0.107852 0.826655 0.552263
vn 0.153752 0.804224 0.574053
vn -0.107852 0.826655 0.552263
vn -0.182623 0.826655 0.532212
vn -0.153752 0.804224 0.574053
vn -0.369457 0.826685 0.424329
vn -0.424207 0.826685 0.369579
vn -0.420118 0.804254 0.42024
vn -0.53209 0.826716 0.182684
vn -0.552141 0.826716 0.107883
vn -0.573931 0.804315 0.153813
vn -0.993896 0.110294 0
vn -0.993896 0.110294 0
vn -0.993896 0.110294 0
vn -0.963591 0.068941 -0.258248
vn -0.963591 0.068941 -0.258248
vn -0.963591 0.068941 -0.258248
vn -0.860653 0.110294 -0.497055
vn -0.860653 0.110294 -0.497055
vn -0.860653 0.110294 -0.497055
vn -0.705313 0.068941 -0.705527
vn -0.705313 0.068941 -0.705527
vn -0.705313 0.068941 -0.705527
vn -0.496811 0.110263 -0.860805
vn -0.496811 0.110263 -0.860805
vn -0.496811 0.110263 -0.860805
vn -0.258126 0.068941 -0.963622
vn -0.258126 0.068941 -0.963622
vn -0.258126 0.068941 -0.963622
vn 0 0.110263 -0.993896
vn 0 0.110263 -0.993896
vn 0 0.110263 -0.993896
vn 0.258126 0.068941 -0.963622
vn 0.258126 0.068941 -0.963622
vn 0.258126 0.068941 -0.963622
vn 0.496811 0.110263 -0.860805
vn 0.496811 0.110263 -0.860805
vn 0.496811 0.110263 -0.860805
vn 0.705313 0.068941 -0.705527
vn 0.705313 0.068941 -0.705527
vn 0.705313 0.068941 -0.705527
vn 0.860653 0.110294 -0.497055
vn 0.860653 0.110294 -0.497055
vn 0.860653 0.110294 -0.497055
vn 0.963591 0.068941 -0.258248
vn 0.963591 0.068941 -0.258248
vn 0.963591 0.068941 -0.258248
vn 0.993896 0.110294 0
vn 0.993896 0.110294 0
vn 0.993896 0.110294 0
vn 0.963591 0.068941 0.258248
vn 0.963591 0.068941 0.258248
vn 0.963591 0.068941 0.258248
vn 0.860653 0.110294 0.497055
vn 0.860653 0.110294 0.497055
vn 0.860653 0.110294 0.497055
vn 0.705313 0.068941 0.705527
vn 0.705313 0.068941 0.705527
vn 0.705313 0.068941 0.705527
vn 0.496811 0.110263 0.860805
vn 0.496811 0.110263 0.860805
vn 0.496811 0.110263 0.860805
vn 0.258126 0.068941 0.963622
vn 0.258126 0.068941 0.963622
vn 0.258126 0.068941 0.963622
vn 0 0.110263 0.993896
vn 0 0.110263 0.993896
vn 0 0.110263 0.993896
vn -0.258126 0.068941 0.963622
vn -0.258126 0.068941 0.963622
vn -0.258126 0.068941 0.963622
vn -0.496811 0.110263 0.860805
vn -0.496811 0.110263 0.860805
vn -0.496811 0.110263 0.860805
vn -0.705313 0.068941 0.705527
vn -0.705313 0.068941 0.705527
vn -0.705313 0.068941 0.705527
vn -0.860653 0.110294 0.497055
vn -0.860653 0.110294 0.497055
vn -0.860653 0.110294 0.497055
vn -0.963591 0.068941 0.258248
vn -0.963591 0.068941 0.258248
vn -0.963591 0.068941 0.258248
vn -0.993896 0.110294 0
vn -0.860653 0.110294 -0.497055
vn -0.496811 0.110263 -0.860805
vn 0 0.110263 -0.993896
vn 0.496811 0.110263 -0.860805
vn 0.860653 0.110294 -0.497055
vn 0.993896 0.110294 0
vn 0.860653 0.110294 0.497055
vn 0.496811 0.110263 0.860805
vn 0 0.110263 0.993896
vn -0.496811 0.110263 0.860805
vn -0.860653 0.110294 0.497055
vn 0 1 0
vn -0.506211 0.862392 0
vn -0.438398 0.862362 0.253151
vn -0.438398 0.862362 -0.253151
vn 0 0.999969 0
vn -0.253121 0.862331 -0.43852
vn 0 0.999969 0
vn 0 0.8623 -0.506363
vn 0 1 0
vn 0.253121 0.862331 -0.43852
vn 0 1 0
vn 0.438398 0.862362 -0.253151
vn 0 0.999969 0
vn 0.506211 0.862392 0
vn 0 0.999969 0
vn 0.438398 0.862362 0.253151
vn 0 0.999969 0
vn 0.253121 0.862331 0.43852
vn 0 0.999969 0
vn 0 0.8623 0.506363
vn 0 1 0
vn -0.253121 0.862331 0.43852
vn 0 1 0
vn 0 1 0
vn -0.756523 0.486587 0.436903
vn -0.873592 0.486587 0
vn -0.756523 0.486587 -0.436903
vn -0.43672 0.486526 -0.756645
vn 0 0.486496 -0.873653
vn 0.43672 0.486526 -0.756645
vn 0.756523 0.486587 -0.436903
vn 0.873592 0.486587 0
vn 0.756523 0.486587 0.436903
vn 0.43672 0.486526 0.756645
vn 0 0.486496 0.873653
vn -0.43672 0.486526 0.756645
vn -0.775384 -0.445235 0.447798
vn -0.895383 -0.445265 0
vn -0.775384 -0.445235 -0.447798
vn -0.447615 -0.445174 -0.775506
vn 0 -0.445143 -0.895444
vn 0.447615 -0.445174 -0.775506
vn 0.775384 -0.445235 -0.447798
vn 0.895383 -0.445265 0
vn 0.775384 -0.445235 0.447798
vn 0.447615 -0.445174 0.775506
vn 0 -0.445143 0.895444
vn -0.447615 -0.445174 0.775506
vn -0.591266 -0.730583 0.341441
vn -0.64803 -0.741508 0.173681
vn -0.68276 -0.730613 0
vn -0.64803 -0.741508 -0.173681
vn -0.591266 -0.730583 -0.341441
vn -0.474349 -0.741478 -0.474471
vn -0.34135 -0.730552 -0.591388
vn -0.17362 -0.741447 -0.648122
vn 0 -0.730522 -0.682852
vn 0.17362 -0.741447 -0.648122
vn 0.34135 -0.730552 -0.591388
vn 0.474349 -0.741478 -0.474471
vn 0.591266 -0.730583 -0.341441
vn 0.64803 -0.741508 -0.173681
vn 0.68276 -0.730613 0
vn 0.64803 -0.741508 0.173681
vn 0.591266 -0.730583 0.341441
vn 0.474349 -0.741478 0.474471
vn 0.34135 -0.730552 0.591388
vn 0.17362 -0.741447 0.648122
vn 0 -0.730522 0.682852
vn -0.17362 -0.741447 0.648122
vn -0.34135 -0.730552 0.591388
vn -0.474349 -0.741478 0.474471
vn -0.865963 0 0.500076
vn -0.865963 0 0.500076
vn -0.96588 0 0.258858
vn -0.96588 0 0.258858
vn -1 0 0
vn -1 0 0
vn -0.96588 0 -0.258858
vn -0.96588 0 -0.258858
vn -0.865963 0 -0.500076
vn -0.865963 0 -0.500076
vn -0.706992 0 -0.707205
vn -0.706992 0 -0.707205
vn -0.499893 0 -0.866085
vn -0.499893 0 -0.866085
vn -0.258736 0 -0.965941
vn -0.258736 0 -0.965941
vn 0 0 -1
vn 0 0 -1
vn 0.258736 0 -0.965941
vn 0.258736 0 -0.965941
vn 0.499893 0 -0.866085
vn 0.499893 0 -0.866085
vn 0.706992 0 -0.707205
vn 0.706992 0 -0.707205
vn 0.865963 0 -0.500076
vn 0.865963 0 -0.500076
vn 0.96588 0 -0.258858
vn 0.96588 0 -0.258858
vn 1 0 0
vn 1 0 0
vn 0.96588 0 0.258858
vn 0.96588 0 0.258858
vn 0.865963 0 0.500076
vn 0.865963 0 0.500076
vn 0.706992 0 0.707205
vn 0.706992 0 0.707205
vn 0.499893 0 0.866085
vn 0.499893 0 0.866085
vn 0.258736 0 0.965941
vn 0.258736 0 0.965941
vn 0 0 1
vn 0 0 1
vn -0.258736 0 0.965941
vn -0.258736 0 0.965941
vn -0.499893 0 0.866085
vn -0.499893 0 0.866085
vn -0.706992 0 0.707205
vn -0.706992 0 0.707205
f 100/100/100 99/99/99 98/98/98
f 3/3/3 2/2/2 1/1/1
f 1/1/1 4/4/4 3/3/3
f 5/5/5 3/3/3 4/4/4
f 4/4/4 6/6/6 5/5/5
f 7/7/7 5/5/5 6/6/6
f 6/6/6 8/8/8 7/7/7
f 9/9/9 7/7/7 8/8/8
f 8/8/8 10/10/10 9/9/9
f 11/11/11 9/9/9 10/10/10
f 10/10/10 12/12/12 11/11/11
f 13/13/13 11/11/11 12/12/12
f 12/12/12 14/14/14 13/13/13
f 15/15/15 13/13/13 14/14/14
f 14/14/14 16/16/16 15/15/15
f 17/17/17 15/15/15 16/16/16
f 16/16/16 18/18/18 17/17/17
f 19/19/19 17/17/17 18/18/18
f 18/18/18 20/20/20 19/19/19
f 21/21/21 19/19/19 20/20/20
f 20/20/20 22/22/22 21/21/21
f 23/23/23 21/21/21 22/22/22
f 22/22/22 24/24/24 23/23/23
f 25/25/25 23/23/23 24/24/24
f 24/24/24 1/1/1 25/25/25
f 28/28/28 27/27/27 26/26/26
f 27/27/27 29/29/29 26/26/26
f 32/32/32 31/31/31 30/30/30
f 31/31/31 33/33/33 30/30/30
f 36/36/36 35/35/35 34/34/34
f 34/34/34 35/35/35 37/37/37
f 40/40/40 39/39/39 38/38/38
f 39/39/39 41/41/41 38/38/38
f 44/44/44 43/43/43 42/42/42
f 45/45/45 44/44/44 42/42/42
f 48/48/48 47/47/47 46/46/46
f 47/47/47 49/49/49 46/46/46
f 52/52/52 51/51/51 50/50/50
f 51/51/51 53/53/53 50/50/50
f 56/56/56 55/55/55 54/54/54
f 57/57/57 56/56/56 54/54/54
f 60/60/60 59/59/59 58/58/58
f 61/61/61 60/60/60 58/58/58
f 64/64/64 63/63/63 62/62/62
f 63/63/63 65/65/65 62/62/62
f 68/68/68 67/67/67 66/66/66
f 67/67/67 69/69/69 66/66/66
f 72/72/72 71/71/71 70/70/70
f 71/71/71 73/73/73 70/70/70
f 76/76/76 75/75/75 74/74/74
f 75/75/75 96/96/96 97/97/97
f 78/78/78 76/76/76 77/77/77
f 96/96/96 94/94/94 95/95/95
f 80/80/80 78/78/78 79/79/79
f 94/94/94 92/92/92 93/93/93
f 82/82/82 80/80/80 81/81/81
f 92/92/92 90/90/90 91/91/91
f 84/84/84 82/82/82 83/83/83
f 90/90/90 88/88/88 89/89/89
f 86/86/86 84/84/84 85/85/85
f 88/88/88 86/86/86 87/87/87
f 103/103/103 102/102/102 101/101/101
f 106/106/106 105/105/105 104/104/104
f 109/109/109 108/108/108 107/107/107
f 112/112/112 111/111/111 110/110/110
f 115/115/115 114/114/114 113/113/113
f 118/118/118 117/117/117 116/116/116
f 121/121/121 120/120/120 119/119/119
f 124/124/124 123/123/123 122/122/122
f 127/127/127 126/126/126 125/125/125
f 130/130/130 129/129/129 128/128/128
f 133/133/133 132/132/132 131/131/131
f 136/136/136 135/135/135 134/134/134
f 134/134/134 137/137/137 136/136/136
f 138/138/138 134/134/134 135/135/135
f 135/135/135 139/139/139 138/138/138
f 140/140/140 138/138/138 139/139/139
f 139/139/139 141/141/141 140/140/140
f 142/142/142 140/140/140 141/141/141
f 141/141/141 143/143/143 142/142/142
f 144/144/144 142/142/142 143/143/143
f 143/143/143 145/145/145 144/144/144
f 146/146/146 144/144/144 145/145/145
f 145/145/145 147/147/147 146/146/146
f 148/148/148 146/146/146 147/147/147
f 147/147/147 149/149/149 148/148/148
f 150/150/150 148/148/148 149/149/149
f 149/149/149 151/151/151 150/150/150
f 152/152/152 150/150/150 151/151/151
f 151/151/151 153/153/153 152/152/152
f 154/154/154 152/152/152 153/153/153
f 153/153/153 155/155/155 154/154/154
f 156/156/156 154/154/154 155/155/155
f 155/155/155 157/157/157 156/156/156
f 158/158/158 156/156/156 157/157/157
f 157/157/157 159/159/159 158/158/158
f 160/160/160 158/158/158 159/159/159
f 159/159/159 161/161/161 160/160/160
f 162/162/162 160/160/160 161/161/161
f 161/161/161 163/163/163 162/162/162
f 164/164/164 162/162/162 163/163/163
f 163/163/163 165/165/165 164/164/164
f 166/166/166 164/164/164 165/165/165
f 165/165/165 167/167/167 166/166/166
f 168/168/168 166/166/166 167/167/167
f 167/167/167 169/169/169 168/168/168
f 170/170/170 168/168/168 169/169/169
f 169/169/169 171/171/171 170/170/170
f 172/172/172 170/170/170 171/171/171
f 171/171/171 173/173/173 172/172/172
f 174/174/174 172/172/172 173/173/173
f 173/173/173 175/175/175 174/174/174
f 176/176/176 174/174/174 175/175/175
f 175/175/175 177/177/177 176/176/176
f 178/178/178 176/176/176 177/177/177
f 177/177/177 179/179/179 178/178/178
f 180/180/180 178/178/178 179/179/179
f 179/179/179 181/181/181 180/180/180
f 137/137/137 180/180/180 181/181/181
f 181/181/181 182/182/182 137/137/137
f 185/185/185 184/184/184 183/183/183
f 252/252/252 183/183/183 251/251/251
f 185/185/185 187/187/187 186/186/186
f 190/190/190 189/189/189 188/188/188
f 190/190/190 192/192/192 191/191/191
f 195/195/195 194/194/194 193/193/193
f 195/195/195 197/197/197 196/196/196
f 200/200/200 199/199/199 198/198/198
f 200/200/200 202/202/202 201/201/201
f 205/205/205 204/204/204 203/203/203
f 205/205/205 207/207/207 206/206/206
f 210/210/210 209/209/209 208/208/208
f 210/210/210 212/212/212 211/211/211
f 215/215/215 214/214/214 213/213/213
f 215/215/215 217/217/217 216/216/216
f 220/220/220 219/219/219 218/218/218
f 220/220/220 222/222/222 221/221/221
f 225/225/225 224/224/224 223/223/223
f 225/225/225 227/227/227 226/226/226
f 230/230/230 229/229/229 228/228/228
f 230/230/230 232/232/232 231/231/231
f 235/235/235 234/234/234 233/233/233
f 235/235/235 237/237/237 236/236/236
f 240/240/240 239/239/239 238/238/238
f 240/240/240 242/242/242 241/241/241
f 250/250/250 242/242/242 249/249/249
f 245/245/245 244/244/244 243/243/243
f 248/248/248 247/247/247 246/246/246
f 255/255/255 254/254/254 253/253/253
f 258/258/258 257/257/257 256/256/256
f 261/261/261 260/260/260 259/259/259
f 264/264/264 263/263/263 262/262/262
f 267/267/267 266/266/266 265/265/265
f 270/270/270 269/269/269 268/268/268
f 273/273/273 272/272/272 271/271/271
f 276/276/276 275/275/275 274/274/274
f 279/279/279 278/278/278 277/277/277
f 278/278/278 349/349/349 277/277/277
f 282/282/282 281/281/281 280/280/280
f 285/285/285 284/284/284 283/283/283
f 284/284/284 350/350/350 283/283/283
f 288/288/288 287/287/287 286/286/286
f 291/291/291 290/290/290 289/289/289
f 289/289/289 351/351/351 291/291/291
f 294/294/294 293/293/293 292/292/292
f 297/297/297 296/296/296 295/295/295
f 295/295/295 352/352/352 297/297/297
f 300/300/300 299/299/299 298/298/298
f 303/303/303 302/302/302 301/301/301
f 302/302/302 353/353/353 301/301/301
f 306/306/306 305/305/305 304/304/304
f 309/309/309 308/308/308 307/307/307
f 308/308/308 354/354/354 307/307/307
f 312/312/312 311/311/311 310/310/310
f 315/315/315 314/314/314 313/313/313
f 314/314/314 355/355/355 313/313/313
f 318/318/318 317/317/317 316/316/316
f 321/321/321 320/320/320 319/319/319
f 320/320/320 356/356/356 319/319/319
f 324/324/324 323/323/323 322/322/322
f 327/327/327 326/326/326 325/325/325
f 326/326/326 357/357/357 325/325/325
f 330/330/330 329/329/329 328/328/328
f 333/333/333 332/332/332 331/331/331
f 332/332/332 358/358/358 331/331/331
f 336/336/336 335/335/335 334/334/334
f 339/339/339 338/338/338 337/337/337
f 338/338/338 359/359/359 337/337/337
f 342/342/342 341/341/341 340/340/340
f 345/345/345 344/344/344 343/343/343
f 344/344/344 360/360/360 343/343/343
f 348/348/348 347/347/347 346/346/346
f 363/363/363 362/362/362 361/361/361
f 365/365/365 362/362/362 364/364/364
f 384/384/384 382/382/382 363/363/363
f 364/364/364 362/362/362 386/386/386
f 362/362/362 363/363/363 385/385/385
f 385/385/385 386/386/386 362/362/362
f 363/363/363 382/382/382 396/396/396
f 396/396/396 385/385/385 363/363/363
f 383/383/383 380/380/380 382/382/382
f 395/395/395 396/396/396 382/382/382
f 382/382/382 380/380/380 395/395/395
f 385/385/385 396/396/396 408/408/408
f 381/381/381 378/378/378 380/380/380
f 396/396/396 395/395/395 407/407/407
f 407/407/407 408/408/408 396/396/396
f 394/394/394 395/395/395 380/380/380
f 380/380/380 378/378/378 394/394/394
f 406/406/406 407/407/407 395/395/395
f 395/395/395 394/394/394 406/406/406
f 379/379/379 376/376/376 378/378/378
f 393/393/393 394/394/394 378/378/378
f 378/378/378 376/376/376 393/393/393
f 405/405/405 406/406/406 394/394/394
f 394/394/394 393/393/393 405/405/405
f 406/406/406 428/428/428 407/407/407
f 428/428/428 429/429/429 407/407/407
f 428/428/428 406/406/406 427/427/427
f 430/430/430 407/407/407 429/429/429
f 426/426/426 427/427/427 406/406/406
f 407/407/407 430/430/430 408/408/408
f 405/405/405 426/426/426 406/406/406
f 430/430/430 431/431/431 408/408/408
f 426/426/426 405/405/405 425/425/425
f 432/432/432 408/408/408 431/431/431
f 424/424/424 425/425/425 405/405/405
f 408/408/408 432/432/432 397/397/397
f 408/408/408 397/397/397 385/385/385
f 432/432/432 409/409/409 397/397/397
f 386/386/386 385/385/385 397/397/397
f 410/410/410 397/397/397 409/409/409
f 404/404/404 424/424/424 405/405/405
f 404/404/404 405/405/405 393/393/393
f 424/424/424 404/404/404 423/423/423
f 422/422/422 423/423/423 404/404/404
f 397/397/397 410/410/410 398/398/398
f 397/397/397 398/398/398 386/386/386
f 410/410/410 411/411/411 398/398/398
f 412/412/412 398/398/398 411/411/411
f 393/393/393 392/392/392 404/404/404
f 392/392/392 393/393/393 376/376/376
f 403/403/403 422/422/422 404/404/404
f 403/403/403 404/404/404 392/392/392
f 422/422/422 403/403/403 421/421/421
f 420/420/420 421/421/421 403/403/403
f 376/376/376 374/374/374 392/392/392
f 377/377/377 374/374/374 376/376/376
f 392/392/392 391/391/391 403/403/403
f 391/391/391 392/392/392 374/374/374
f 402/402/402 420/420/420 403/403/403
f 402/402/402 403/403/403 391/391/391
f 420/420/420 402/402/402 419/419/419
f 418/418/418 419/419/419 402/402/402
f 374/374/374 372/372/372 391/391/391
f 375/375/375 372/372/372 374/374/374
f 391/391/391 390/390/390 402/402/402
f 390/390/390 391/391/391 372/372/372
f 401/401/401 418/418/418 402/402/402
f 401/401/401 402/402/402 390/390/390
f 418/418/418 401/401/401 417/417/417
f 416/416/416 417/417/417 401/401/401
f 372/372/372 370/370/370 390/390/390
f 373/373/373 370/370/370 372/372/372
f 390/390/390 389/389/389 401/401/401
f 389/389/389 390/390/390 370/370/370
f 400/400/400 416/416/416 401/401/401
f 400/400/400 401/401/401 389/389/389
f 416/416/416 400/400/400 415/415/415
f 414/414/414 415/415/415 400/400/400
f 370/370/370 368/368/368 389/389/389
f 371/371/371 368/368/368 370/370/370
f 389/389/389 388/388/388 400/400/400
f 388/388/388 389/389/389 368/368/368
f 399/399/399 414/414/414 400/400/400
f 399/399/399 400/400/400 388/388/388
f 414/414/414 399/399/399 413/413/413
f 412/412/412 413/413/413 399/399/399
f 398/398/398 412/412/412 399/399/399
f 368/368/368 366/366/366 388/388/388
f 369/369/369 366/366/366 368/368/368
f 388/388/388 387/387/387 399/399/399
f 398/398/398 399/399/399 387/387/387
f 387/387/387 388/388/388 366/366/366
f 387/387/387 386/386/386 398/398/398
f 386/386/386 387/387/387 364/364/364
f 366/366/366 364/364/364 387/387/387
f 367/367/367 364/364/364 366/366/366
f 435/435/435 434/434/434 433/433/433
f 433/433/433 436/436/436 435/435/435
f 480/480/480 433/433/433 434/434/434
f 438/438/438 435/435/435 436/436/436
f 434/434/434 479/479/479 480/480/480
f 436/436/436 437/437/437 438/438/438
f 477/477/477 480/480/480 479/479/479
f 439/439/439 438/438/438 437/437/437
f 479/479/479 478/478/478 477/477/477
f 437/437/437 440/440/440 439/439/439
f 476/476/476 477/477/477 478/478/478
f 442/442/442 439/439/439 440/440/440
f 478/478/478 475/475/475 476/476/476
f 440/440/440 441/441/441 442/442/442
f 473/473/473 476/476/476 475/475/475
f 443/443/443 442/442/442 441/441/441
f 475/475/475 474/474/474 473/473/473
f 441/441/441 444/444/444 443/443/443
f 472/472/472 473/473/473 474/474/474
f 446/446/446 443/443/443 444/444/444
f 474/474/474 471/471/471 472/472/472
f 444/444/444 445/445/445 446/446/446
f 469/469/469 472/472/472 471/471/471
f 447/447/447 446/446/446 445/445/445
f 471/471/471 470/470/470 469/469/469
f 445/445/445 448/448/448 447/447/447
f 468/468/468 469/469/469 470/470/470
f 450/450/450 447/447/447 448/448/448
f 470/470/470 467/467/467 468/468/468
f 448/448/448 449/449/449 450/450/450
f 465/465/465 468/468/468 467/467/467
f 451/451/451 450/450/450 449/449/449
f 467/467/467 466/466/466 465/465/465
f 449/449/449 452/452/452 451/451/451
f 464/464/464 465/465/465 466/466/466
f 454/454/454 451/451/451 452/452/452
f 466/466/466 463/463/463 464/464/464
f 452/452/452 453/453/453 454/454/454
f 461/461/461 464/464/464 463/463/463
f 455/455/455 454/454/454 453/453/453
f 463/463/463 462/462/462 461/461/461
f 453/453/453 456/456/456 455/455/455
f 460/460/460 461/461/461 462/462/462
f 458/458/458 455/455/455 456/456/456
f 462/462/462 459/459/459 460/460/460
f 456/456/456 457/457/457 458/458/458
f 457/457/457 460/460/460 459/459/459
f 459/459/459 458/458/458 457/457/457
