# VPXTOOL table OBJ file
# VPXTOOL OBJ file
# numVerts: 187 numFaces: 75
o VRStartButton
v 0.420762 22.739988 -14.83902
v 0.420608 22.597992 -14.838838
v 0.391369 22.739956 -14.890149
v 0.374489 22.739822 -15.005944
v 0.374335 22.597826 -15.005761
v 0.388061 22.739735 -15.063335
v 0.388061 22.739735 -15.063335
v 0.387907 22.597734 -15.063151
v 0.415481 22.739637 -15.115547
v 0.685233 22.597805 -14.758409
v 0.627525 22.597883 -14.746252
v 0.685387 22.739805 -14.758591
v 0.375615 22.739899 -14.94698
v 0.375461 22.5979 -14.946796
v 0.374489 22.739822 -15.005944
v 0.782821 22.597616 -14.822984
v 0.738106 22.597713 -14.784533
v 0.782975 22.739616 -14.823168
v 0.843655 22.73934 -14.985411
v 0.837382 22.739424 -14.92677
v 0.608426 22.739603 -14.980918
v 0.835148 22.739273 -15.043768
v 0.843655 22.73934 -14.985411
v 0.608426 22.739603 -14.980918
v 0.837382 22.739424 -14.92677
v 0.816721 22.739517 -14.871533
v 0.812393 22.73923 -15.098176
v 0.835148 22.739273 -15.043768
v 0.608426 22.739603 -14.980918
v 0.816721 22.739517 -14.871533
v 0.782975 22.739616 -14.823168
v 0.776825 22.739206 -15.145217
v 0.738261 22.739714 -14.784715
v 0.730675 22.73921 -15.181934
v 0.776825 22.739206 -15.145217
v 0.685387 22.739805 -14.758591
v 0.676843 22.739239 -15.206022
v 0.627679 22.739885 -14.746435
v 0.618712 22.739286 -15.215965
v 0.627679 22.739885 -14.746435
v 0.568761 22.739943 -14.749014
v 0.608426 22.739603 -14.980918
v 0.559936 22.739359 -15.211138
v 0.568761 22.739943 -14.749014
v 0.512334 22.739985 -14.766165
v 0.504205 22.739443 -15.191848
v 0.461947 22.739998 -14.796808
v 0.455024 22.739538 -15.159302
v 0.420762 22.739988 -14.83902
v 0.415481 22.739637 -15.115547
v 0.420762 22.739988 -14.83902
v 0.391369 22.739956 -14.890149
v 0.388061 22.739735 -15.063335
v 0.391369 22.739956 -14.890149
v 0.375615 22.739899 -14.94698
v 0.374489 22.739822 -15.005944
v 0.676688 22.597239 -15.205839
v 0.73052 22.597212 -15.181752
v 0.676843 22.739239 -15.206022
v 0.51218 22.597982 -14.765982
v 0.461792 22.598 -14.796625
v 0.512334 22.739985 -14.766165
v 0.461947 22.739998 -14.796808
v 0.461792 22.598 -14.796625
v 0.420762 22.739988 -14.83902
v 0.8435 22.59734 -14.985228
v 0.843655 22.73934 -14.985411
v 0.834993 22.597275 -15.043585
v 0.835148 22.739273 -15.043768
v 0.812393 22.73923 -15.098176
v 0.834993 22.597275 -15.043585
v 0.391369 22.739956 -14.890149
v 0.391214 22.597956 -14.889966
v 0.375615 22.739899 -14.94698
v 0.415327 22.597637 -15.115365
v 0.45487 22.597538 -15.159119
v 0.415481 22.739637 -15.115547
v 0.812393 22.73923 -15.098176
v 0.776825 22.739206 -15.145217
v 0.812239 22.597229 -15.097993
v 0.73052 22.597212 -15.181752
v 0.776671 22.597208 -15.145035
v 0.730675 22.73921 -15.181934
v 0.782975 22.739616 -14.823168
v 0.816721 22.739517 -14.871533
v 0.782821 22.597616 -14.822984
v 0.627679 22.739885 -14.746435
v 0.627525 22.597883 -14.746252
v 0.568761 22.739943 -14.749014
v 0.504205 22.739443 -15.191848
v 0.50405 22.597443 -15.191663
v 0.559936 22.739359 -15.211138
v 0.568606 22.597944 -14.748832
v 0.51218 22.597982 -14.765982
v 0.568761 22.739943 -14.749014
v 0.45487 22.597538 -15.159119
v 0.50405 22.597443 -15.191663
v 0.455024 22.739538 -15.159302
v 0.738106 22.597713 -14.784533
v 0.685233 22.597805 -14.758409
v 0.738261 22.739714 -14.784715
v 0.816721 22.739517 -14.871533
v 0.837382 22.739424 -14.92677
v 0.816567 22.597517 -14.871349
v 0.559781 22.597357 -15.210956
v 0.618558 22.597288 -15.215782
v 0.559936 22.739359 -15.211138
v 0.618558 22.597288 -15.215782
v 0.676688 22.597239 -15.205839
v 0.618712 22.739286 -15.215965
v 0.837228 22.597422 -14.926587
v 0.837382 22.739424 -14.92677
v 0.8435 22.59734 -14.985228
v 0.420608 22.597992 -14.838838
v 0.391214 22.597956 -14.889966
v 0.391369 22.739956 -14.890149
v 0.374335 22.597826 -15.005761
v 0.387907 22.597734 -15.063151
v 0.388061 22.739735 -15.063335
v 0.387907 22.597734 -15.063151
v 0.415327 22.597637 -15.115365
v 0.415481 22.739637 -15.115547
v 0.627525 22.597883 -14.746252
v 0.627679 22.739885 -14.746435
v 0.685387 22.739805 -14.758591
v 0.375461 22.5979 -14.946796
v 0.374335 22.597826 -15.005761
v 0.374489 22.739822 -15.005944
v 0.738106 22.597713 -14.784533
v 0.738261 22.739714 -14.784715
v 0.782975 22.739616 -14.823168
v 0.73052 22.597212 -15.181752
v 0.730675 22.73921 -15.181934
v 0.676843 22.739239 -15.206022
v 0.461792 22.598 -14.796625
v 0.461947 22.739998 -14.796808
v 0.512334 22.739985 -14.766165
v 0.461792 22.598 -14.796625
v 0.420608 22.597992 -14.838838
v 0.420762 22.739988 -14.83902
v 0.843655 22.73934 -14.985411
v 0.835148 22.739273 -15.043768
v 0.834993 22.597275 -15.043585
v 0.812393 22.73923 -15.098176
v 0.812239 22.597229 -15.097993
v 0.834993 22.597275 -15.043585
v 0.391214 22.597956 -14.889966
v 0.375461 22.5979 -14.946796
v 0.375615 22.739899 -14.94698
v 0.45487 22.597538 -15.159119
v 0.455024 22.739538 -15.159302
v 0.415481 22.739637 -15.115547
v 0.776825 22.739206 -15.145217
v 0.776671 22.597208 -15.145035
v 0.812239 22.597229 -15.097993
v 0.776671 22.597208 -15.145035
v 0.776825 22.739206 -15.145217
v 0.730675 22.73921 -15.181934
v 0.816721 22.739517 -14.871533
v 0.816567 22.597517 -14.871349
v 0.782821 22.597616 -14.822984
v 0.627525 22.597883 -14.746252
v 0.568761 22.739943 -14.749014
v 0.50405 22.597443 -15.191663
v 0.559781 22.597357 -15.210956
v 0.559936 22.739359 -15.211138
v 0.51218 22.597982 -14.765982
v 0.512334 22.739985 -14.766165
v 0.568761 22.739943 -14.749014
v 0.50405 22.597443 -15.191663
v 0.504205 22.739443 -15.191848
v 0.455024 22.739538 -15.159302
v 0.685233 22.597805 -14.758409
v 0.685387 22.739805 -14.758591
v 0.738261 22.739714 -14.784715
v 0.837382 22.739424 -14.92677
v 0.837228 22.597422 -14.926587
v 0.816567 22.597517 -14.871349
v 0.618558 22.597288 -15.215782
v 0.618712 22.739286 -15.215965
v 0.559936 22.739359 -15.211138
v 0.676688 22.597239 -15.205839
v 0.676843 22.739239 -15.206022
v 0.618712 22.739286 -15.215965
v 0.837382 22.739424 -14.92677
v 0.843655 22.73934 -14.985411
v 0.8435 22.59734 -14.985228
vt 0.50232 0.87417197
vt 0.50232 0.87160301
vt 0.501385 0.87417197
vt 0.499284 0.87417197
vt 0.499284 0.87160301
vt 0.49825 0.87417197
vt 0.49825 0.87417197
vt 0.49825 0.87160301
vt 0.497315 0.87417197
vt 0.501087 0.87160301
vt 0.500048 0.87160301
vt 0.501087 0.87417197
vt 0.500351 0.87417197
vt 0.500351 0.87160301
vt 0.499284 0.87417197
vt 0.502859 0.87160301
vt 0.502044 0.87160301
vt 0.502859 0.87417197
vt 0.523636 0.85028899
vt 0.522866 0.84414399
vt 0.499143 0.85028899
vt 0.522866 0.85643297
vt 0.523636 0.85028899
vt 0.499143 0.85028899
vt 0.522866 0.84414399
vt 0.520606 0.838386
vt 0.520606 0.86219198
vt 0.522866 0.85643297
vt 0.499143 0.85028899
vt 0.520606 0.838386
vt 0.516997 0.83337498
vt 0.516997 0.86720198
vt 0.512267 0.829427
vt 0.512267 0.87115002
vt 0.516997 0.86720198
vt 0.506711 0.82678998
vt 0.506711 0.87378699
vt 0.500681 0.82563001
vt 0.500681 0.87494802
vt 0.500681 0.82563001
vt 0.494553 0.82601899
vt 0.499143 0.85028899
vt 0.494553 0.87455899
vt 0.494553 0.82601899
vt 0.488714 0.827932
vt 0.488714 0.87264502
vt 0.48353 0.83125103
vt 0.48353 0.869326
vt 0.479328 0.83576602
vt 0.479328 0.864811
vt 0.479328 0.83576602
vt 0.47637 0.84119302
vt 0.47637 0.859384
vt 0.47637 0.84119302
vt 0.474843 0.84719199
vt 0.474843 0.85338497
vt 0.498512 0.87160301
vt 0.497555 0.87160301
vt 0.498512 0.87417197
vt 0.497986 0.87160301
vt 0.497093 0.87160301
vt 0.497986 0.87417197
vt 0.503098 0.87417197
vt 0.503098 0.87160301
vt 0.50232 0.87417197
vt 0.499781 0.87160301
vt 0.499781 0.87417197
vt 0.50084 0.87160301
vt 0.50084 0.87417197
vt 0.501832 0.87417197
vt 0.50084 0.87160301
vt 0.501385 0.87417197
vt 0.501385 0.87160301
vt 0.500351 0.87417197
vt 0.497315 0.87160301
vt 0.496538 0.87160301
vt 0.497315 0.87417197
vt 0.501832 0.87417197
vt 0.502695 0.87417197
vt 0.501832 0.87160301
vt 0.497555 0.87160301
vt 0.49674 0.87160301
vt 0.497555 0.87417197
vt 0.496867 0.87417197
vt 0.49773 0.87417197
vt 0.496867 0.87160301
vt 0.500048 0.87417197
vt 0.500048 0.87160301
vt 0.498992 0.87417197
vt 0.501613 0.87417197
vt 0.501613 0.87160301
vt 0.500607 0.87417197
vt 0.498992 0.87160301
vt 0.497986 0.87160301
vt 0.498992 0.87417197
vt 0.502506 0.87160301
vt 0.501613 0.87160301
vt 0.502506 0.87417197
vt 0.502044 0.87160301
vt 0.501087 0.87160301
vt 0.502044 0.87417197
vt 0.49773 0.87417197
vt 0.498723 0.87417197
vt 0.49773 0.87160301
vt 0.500607 0.87160301
vt 0.499551 0.87160301
vt 0.500607 0.87417197
vt 0.499551 0.87160301
vt 0.498512 0.87160301
vt 0.499551 0.87417197
vt 0.498723 0.87160301
vt 0.498723 0.87417197
vt 0.499781 0.87160301
vt 0.50232 0.87160301
vt 0.501385 0.87160301
vt 0.501385 0.87417197
vt 0.499284 0.87160301
vt 0.49825 0.87160301
vt 0.49825 0.87417197
vt 0.49825 0.87160301
vt 0.497315 0.87160301
vt 0.497315 0.87417197
vt 0.500048 0.87160301
vt 0.500048 0.87417197
vt 0.501087 0.87417197
vt 0.500351 0.87160301
vt 0.499284 0.87160301
vt 0.499284 0.87417197
vt 0.502044 0.87160301
vt 0.502044 0.87417197
vt 0.502859 0.87417197
vt 0.497555 0.87160301
vt 0.497555 0.87417197
vt 0.498512 0.87417197
vt 0.497093 0.87160301
vt 0.497093 0.87417197
vt 0.497986 0.87417197
vt 0.503098 0.87160301
vt 0.50232 0.87160301
vt 0.50232 0.87417197
vt 0.499781 0.87417197
vt 0.50084 0.87417197
vt 0.50084 0.87160301
vt 0.501832 0.87417197
vt 0.501832 0.87160301
vt 0.50084 0.87160301
vt 0.501385 0.87160301
vt 0.500351 0.87160301
vt 0.500351 0.87417197
vt 0.496538 0.87160301
vt 0.496538 0.87417197
vt 0.497315 0.87417197
vt 0.502695 0.87417197
vt 0.502695 0.87160301
vt 0.501832 0.87160301
vt 0.49674 0.87160301
vt 0.49674 0.87417197
vt 0.497555 0.87417197
vt 0.49773 0.87417197
vt 0.49773 0.87160301
vt 0.496867 0.87160301
vt 0.500048 0.87160301
vt 0.498992 0.87417197
vt 0.501613 0.87160301
vt 0.500607 0.87160301
vt 0.500607 0.87417197
vt 0.497986 0.87160301
vt 0.497986 0.87417197
vt 0.498992 0.87417197
vt 0.501613 0.87160301
vt 0.501613 0.87417197
vt 0.502506 0.87417197
vt 0.501087 0.87160301
vt 0.501087 0.87417197
vt 0.502044 0.87417197
vt 0.498723 0.87417197
vt 0.498723 0.87160301
vt 0.49773 0.87160301
vt 0.499551 0.87160301
vt 0.499551 0.87417197
vt 0.500607 0.87417197
vt 0.498512 0.87160301
vt 0.498512 0.87417197
vt 0.499551 0.87417197
vt 0.498723 0.87417197
vt 0.499781 0.87417197
vt 0.499781 0.87160301
vn -0.7977 0.0016 0.6031
vn -0.8025 -0.0463 0.5949
vn -0.9205 -0.031 0.3896
vn -0.9943 0.0009 -0.1064
vn -0.9922 -0.047 -0.1156
vn -0.9377 -0.0319 -0.3461
vn -0.9366 0.0006 -0.3503
vn -0.9322 -0.0474 -0.3587
vn -0.8222 -0.0323 -0.5684
vn 0.3271 0.0009 0.945
vn 0.0861 0.0337 0.9957
vn 0.3178 0.0488 0.9469
vn -0.9895 0.0013 0.1442
vn -0.9898 -0.0467 0.1348
vn -0.9943 -0.0316 -0.102
vn 0.7419 0.0001 0.6705
vn 0.5551 0.0329 0.8311
vn 0.7347 0.048 0.6767
vn 0.0011 1 -0.0013
vn 0.0011 1 -0.0013
vn 0.0011 1 -0.0013
vn 0.0011 1 -0.0014
vn 0.0011 1 -0.0014
vn 0.0011 1 -0.0014
vn 0.0011 1 -0.0014
vn 0.0011 1 -0.0014
vn 0.0011 1 -0.0012
vn 0.0011 1 -0.0012
vn 0.0011 1 -0.0012
vn 0.0011 1 -0.0013
vn 0.0011 1 -0.0013
vn 0.0011 1 -0.0012
vn 0.0011 1 -0.0013
vn 0.0011 1 -0.0013
vn 0.0011 1 -0.0013
vn 0.0011 1 -0.0013
vn 0.0011 1 -0.0013
vn 0.0011 1 -0.0013
vn 0.0011 1 -0.0013
vn 0.001 1 -0.0013
vn 0.001 1 -0.0013
vn 0.001 1 -0.0013
vn 0.0011 1 -0.0013
vn 0.0011 1 -0.0013
vn 0.0011 1 -0.0013
vn 0.0011 1 -0.0013
vn 0.0011 1 -0.0013
vn 0.0011 1 -0.0013
vn 0.0011 1 -0.0013
vn 0.0011 1 -0.0013
vn 0.0011 1 -0.0012
vn 0.0011 1 -0.0012
vn 0.0011 1 -0.0013
vn 0.0011 1 -0.0013
vn 0.0011 1 -0.0013
vn 0.0011 1 -0.0013
vn 0.2908 -0.0015 -0.9568
vn 0.5157 0.0309 -0.8562
vn 0.2996 0.0464 -0.953
vn -0.4085 0.0016 0.9128
vn -0.6189 0.0342 0.7847
vn -0.4165 0.0495 0.9078
vn -0.6226 0.0017 0.7825
vn -0.6293 -0.0462 0.7758
vn -0.7947 -0.0309 0.6063
vn 0.9998 -0.0011 -0.0191
vn 0.9985 0.0468 -0.0286
vn 0.9643 0.0311 -0.2629
vn 0.9636 -0.0014 -0.2672
vn 0.8686 -0.0341 -0.4944
vn 0.9599 -0.0494 -0.2759
vn -0.9226 0.0015 0.3858
vn -0.9252 -0.0464 0.3767
vn -0.9884 -0.0312 0.1485
vn -0.82 0.0002 -0.5723
vn -0.6549 0.0323 -0.7551
vn -0.8136 0.048 -0.5794
vn 0.8669 -0.0016 -0.4984
vn 0.7184 -0.0342 -0.6948
vn 0.8611 -0.0495 -0.506
vn 0.5196 -0.0017 -0.8544
vn 0.7124 0.0308 -0.7011
vn 0.5271 0.0463 -0.8485
vn 0.7419 0.0001 0.6705
vn 0.8828 -0.0329 0.4685
vn 0.7473 -0.0479 0.6627
vn 0.0818 0.0012 0.9966
vn 0.0723 -0.0467 0.9963
vn -0.1643 -0.0311 0.9859
vn -0.4429 -0.0006 -0.8966
vn -0.434 -0.0486 -0.8996
vn -0.2102 -0.0335 -0.9771
vn -0.1686 0.0015 0.9857
vn -0.4043 0.0341 0.914
vn -0.1777 0.0494 0.9828
vn -0.652 -0.0003 -0.7582
vn -0.4466 0.0319 -0.8942
vn -0.644 0.0476 -0.7635
vn 0.5518 0.0005 0.834
vn 0.331 0.0334 0.943
vn 0.5434 0.0484 0.8381
vn 0.8854 -0.0004 0.4649
vn 0.9716 -0.0333 0.2342
vn 0.8886 -0.0483 0.456
vn -0.2061 -0.001 -0.9785
vn 0.0394 0.0312 -0.9987
vn -0.1965 0.0469 -0.9794
vn 0.0438 -0.0013 -0.999
vn 0.2866 0.031 -0.9575
vn 0.0532 0.0466 -0.9975
vn 0.9732 -0.0008 0.2301
vn 0.9742 0.0471 0.2206
vn 0.9994 0.0314 -0.0149
vn -0.7997 0.0342 0.5994
vn -0.9226 0.0015 0.3858
vn -0.9178 0.0494 0.394
vn -0.9933 0.0334 -0.1106
vn -0.9366 0.0006 -0.3503
vn -0.9388 0.0485 -0.3411
vn -0.9346 0.0331 -0.3542
vn -0.8201 0.0002 -0.5722
vn -0.8245 0.0481 -0.5638
vn 0.0912 -0.0467 0.9947
vn 0.0819 0.0012 0.9966
vn 0.3229 -0.0317 0.9459
vn -0.9896 0.0338 0.1399
vn -0.9943 0.0009 -0.1064
vn -0.9941 0.0489 -0.0969
vn 0.5591 -0.0475 0.8278
vn 0.5519 0.0005 0.8339
vn 0.7386 -0.0325 0.6734
vn 0.5108 -0.0496 -0.8582
vn 0.5196 -0.0017 -0.8544
vn 0.2947 -0.0341 -0.955
vn -0.6145 -0.0462 0.7876
vn -0.6226 0.0017 0.7826
vn -0.4121 -0.0309 0.9106
vn -0.6256 0.0342 0.7794
vn -0.7976 0.0017 0.6031
vn -0.7909 0.0496 0.6099
vn 0.9992 -0.0336 -0.0233
vn 0.9637 -0.0014 -0.2671
vn 0.965 -0.0493 -0.2576
vn 0.8707 0.0463 -0.4896
vn 0.867 -0.0016 -0.4984
vn 0.962 0.0311 -0.2712
vn -0.9237 0.034 0.3816
vn -0.9895 0.0012 0.1443
vn -0.9869 0.0492 0.1534
vn -0.6585 -0.0482 -0.751
vn -0.6521 -0.0003 -0.7582
vn -0.8172 -0.0324 -0.5754
vn 0.7216 0.0462 -0.6908
vn 0.7158 -0.0017 -0.6983
vn 0.8644 0.0309 -0.5019
vn 0.7083 -0.0496 -0.7042
vn 0.7158 -0.0017 -0.6983
vn 0.523 -0.0342 -0.8516
vn 0.8799 0.0476 0.4727
vn 0.8853 -0.0003 0.465
vn 0.7444 0.0326 0.6669
vn 0.0775 0.0337 0.9964
vn -0.159 0.0494 0.986
vn -0.4389 0.0318 -0.898
vn -0.2062 -0.001 -0.9785
vn -0.2151 0.0469 -0.9755
vn -0.3993 -0.0463 0.9156
vn -0.4084 0.0016 0.9128
vn -0.1727 -0.0311 0.9845
vn -0.451 -0.0485 -0.8912
vn -0.443 -0.0007 -0.8965
vn -0.6485 -0.0328 -0.7605
vn 0.3356 -0.0471 0.9408
vn 0.3272 0.0009 0.945
vn 0.548 -0.032 0.8359
vn 0.9699 0.0472 0.2391
vn 0.9731 -0.0007 0.2302
vn 0.8869 0.0321 0.4609
vn 0.0341 -0.0492 -0.9982
vn 0.0437 -0.0013 -0.999
vn -0.2019 -0.0335 -0.9788
vn 0.2813 -0.0495 -0.9583
vn 0.2908 -0.0016 -0.9568
vn 0.0479 -0.0339 -0.9983
vn 0.9736 -0.0333 0.2259
vn 0.9998 -0.0011 -0.0191
vn 0.9988 -0.049 -0.0095
f 3/3/3 2/2/2 1/1/1
f 6/6/6 5/5/5 4/4/4
f 9/9/9 8/8/8 7/7/7
f 12/12/12 11/11/11 10/10/10
f 15/15/15 14/14/14 13/13/13
f 18/18/18 17/17/17 16/16/16
f 21/21/21 20/20/20 19/19/19
f 21/21/21 31/31/31 30/30/30
f 21/21/21 33/33/33 31/31/31
f 21/21/21 36/36/36 33/33/33
f 21/21/21 38/38/38 36/36/36
f 21/21/21 55/55/55 54/54/54
f 21/21/21 56/56/56 55/55/55
f 21/21/21 53/53/53 56/56/56
f 21/21/21 50/50/50 53/53/53
f 21/21/21 48/48/48 50/50/50
f 21/21/21 46/46/46 48/48/48
f 21/21/21 43/43/43 46/46/46
f 21/21/21 39/39/39 43/43/43
f 21/21/21 37/37/37 39/39/39
f 21/21/21 34/34/34 37/37/37
f 21/21/21 35/35/35 34/34/34
f 21/21/21 45/45/45 44/44/44
f 21/21/21 47/47/47 45/45/45
f 21/21/21 49/49/49 47/47/47
f 24/24/24 23/23/23 22/22/22
f 24/24/24 26/26/26 25/25/25
f 29/29/29 28/28/28 27/27/27
f 29/29/29 27/27/27 32/32/32
f 29/29/29 52/52/52 51/51/51
f 42/42/42 41/41/41 40/40/40
f 59/59/59 58/58/58 57/57/57
f 62/62/62 61/61/61 60/60/60
f 65/65/65 64/64/64 63/63/63
f 68/68/68 67/67/67 66/66/66
f 71/71/71 70/70/70 69/69/69
f 74/74/74 73/73/73 72/72/72
f 77/77/77 76/76/76 75/75/75
f 80/80/80 79/79/79 78/78/78
f 83/83/83 82/82/82 81/81/81
f 86/86/86 85/85/85 84/84/84
f 89/89/89 88/88/88 87/87/87
f 92/92/92 91/91/91 90/90/90
f 95/95/95 94/94/94 93/93/93
f 163/163/163 93/93/93 162/162/162
f 98/98/98 97/97/97 96/96/96
f 101/101/101 100/100/100 99/99/99
f 104/104/104 103/103/103 102/102/102
f 107/107/107 106/106/106 105/105/105
f 110/110/110 109/109/109 108/108/108
f 113/113/113 112/112/112 111/111/111
f 116/116/116 115/115/115 114/114/114
f 119/119/119 118/118/118 117/117/117
f 122/122/122 121/121/121 120/120/120
f 125/125/125 124/124/124 123/123/123
f 128/128/128 127/127/127 126/126/126
f 131/131/131 130/130/130 129/129/129
f 134/134/134 133/133/133 132/132/132
f 137/137/137 136/136/136 135/135/135
f 140/140/140 139/139/139 138/138/138
f 143/143/143 142/142/142 141/141/141
f 146/146/146 145/145/145 144/144/144
f 149/149/149 148/148/148 147/147/147
f 152/152/152 151/151/151 150/150/150
f 155/155/155 154/154/154 153/153/153
f 158/158/158 157/157/157 156/156/156
f 161/161/161 160/160/160 159/159/159
f 166/166/166 165/165/165 164/164/164
f 169/169/169 168/168/168 167/167/167
f 172/172/172 171/171/171 170/170/170
f 175/175/175 174/174/174 173/173/173
f 178/178/178 177/177/177 176/176/176
f 181/181/181 180/180/180 179/179/179
f 184/184/184 183/183/183 182/182/182
f 187/187/187 186/186/186 185/185/185
